<?xml version="1.0" encoding="iso-8859-1"?>
<!-- Uploaded to: SVG Repo, www.svgrepo.com, Generator: SVG Repo Mixer Tools -->
<svg height="800px" width="800px" version="1.1" id="Layer_1" xmlns="http://www.w3.org/2000/svg" xmlns:xlink="http://www.w3.org/1999/xlink" 
	 viewBox="0 0 507.6 507.6" xml:space="preserve">
<!--Infill Punkt-->
<path style="fill:#218395;" d="M269.6,377.8c-4.8-2.4-10.4-4-15.6-4c-18.4,0-33.6,15.2-33.6,33.6S235.6,441,254,441
	s33.6-15.2,33.6-33.6c0-4-0.8-7.6-2-11.6c-0.4-0.8,0-1.6,0.4-2l-14.4-16.4C271.2,378.2,270.4,378.2,269.6,377.8z"/>
<!--Infill unterer Balken-->
<path style="fill:#218395;" d="M336.8,287.8c-24.4-16.8-53.2-26-83.2-26c-38.8,0-75.6,15.2-102.8,42.4c-9.2,9.2-9.2,24.8,0,34
	c4.4,4.4,10.4,7.6,16.8,7.6l0,0c6.4,0,12.4-2.8,16.8-7.6c18.4-18.4,43.2-28.8,69.6-28.8c26.4,0,51.2,10,69.6,28.8
	c4.4,4.4,10.4,6.8,16.8,6.8c6.4,0,12.4-2.4,16.8-6.8c9.2-9.2,9.2-24.4,0-33.6c-0.8-0.8-0.8-2,0-2.8L340,287.4
	C338.8,288.2,338,288.2,336.8,287.8z"/>
<!--Infill zweiter balken von oben-->
<path style="fill:#218395;" d="M473.6,146.6c-61.2-51.6-139.2-80-219.6-80c-91.2,0-176.4,35.6-240.8,99.6
	c-4.4,4.4-6.8,10.4-6.8,16.8s2.4,11.6,6.8,16.4c4.4,4.4,10.4,6.4,16.8,6.4l0,0c6.4,0,12.4-2,16.8-6.4
	c55.2-55.6,128.8-85.6,207.2-85.6s152,30.8,207.6,86c4.4,4.4,10.4,7.2,16.8,7.2s12.4-2.4,16.8-6.8s6.8-10.4,6.8-16.8
	s-2.4-12.4-6.8-16.8c-0.8-0.8-0.8-2,0-2.8l-18.8-17.2C475.6,147.4,474.4,147.4,473.6,146.6z"/>

<!--Infill oberer Balken-->
<path style="fill:#218395;" d="M404,219c-42.8-34.4-94.8-52.4-150-52.4c-64.4,0-124.8,25.2-170.4,70.4c-9.2,9.2-9.2,24.4,0,33.6
	c4.4,4.4,10.4,7.2,16.8,7.2l0,0c6.4,0,12.4-2.8,16.8-7.2c36.4-36.4,85.2-56.8,136.8-56.8s100.4,20,136.8,56.8
	c4.4,4.4,10.4,6.8,16.8,6.8c6.4,0,12.4-2.4,16.8-6.8c4.4-4.4,6.8-10.4,6.8-16.8c0-6.4-2.4-12.4-6.8-16.8c-0.8-0.8-0.8-2,0-2.8
	l-17.6-16C406,219.4,404.8,219.4,404,219z"/>

	<!--Alle striche-->
<path d="M254,447c-22,0-39.6-17.6-39.6-39.6s17.6-39.6,39.6-39.6c6.4,0,12.8,1.6,18.4,4.4c2,1.2,2.8,3.6,1.6,5.6s-3.6,2.8-5.6,1.6
	c-4.4-2.4-9.6-3.6-14.8-3.6c-17.6,0-31.6,14-31.6,31.6s14,31.6,31.6,31.6s31.6-14,31.6-31.6c0-3.6-0.8-7.2-2-10.8
	c-0.8-2,0.4-4.4,2.4-5.2c2-0.8,4.4,0.4,5.2,2.4c1.6,4.4,2.4,8.8,2.4,13.6C293.6,429.4,275.6,447,254,447z"/>
<path d="M340.4,351c-8,0-15.6-3.2-21.2-8.8C301.6,324.6,278.4,315,254,315c-24.8,0-47.6,9.6-65.2,26.8c-5.6,5.6-13.2,8.8-20.8,8.8
	l0,0c-8,0-15.2-3.2-20.8-8.8c-11.6-11.6-11.6-30.4,0-42c28.8-28.4,66.8-44.4,107.2-44.4c31.2,0,61.2,9.2,86.4,27.2
	c2,1.2,2.4,3.6,0.8,5.6c-1.2,2-3.6,2.4-5.6,0.8c-24-16.8-52.4-25.6-82-25.6c-38.4,0-74.4,14.8-101.6,42c-8.4,8.4-8.4,22.4,0,30.8
	c4,4,9.6,6.4,15.2,6.4l0,0c5.6,0,11.2-2.4,15.2-6.4c18.8-18.8,44-29.2,70.8-29.2s52,10.4,71.2,29.6c4,4,9.6,6.4,15.2,6.4
	c5.6,0,11.2-2.4,15.2-6.4c8.4-8.4,8.4-22.4,0-30.8c-1.6-1.6-1.6-4,0-5.6s4-1.6,5.6,0c11.6,11.6,11.6,30.4,0,42
	C355.6,347.8,348.4,351,340.4,351z"/>
<path d="M478.4,213c-8,0-15.2-3.2-21.2-8.8c-54.4-54.4-126.4-84.4-203.6-84.4c-76.8,0-148.8,30-203.2,84c-5.6,5.6-13.2,8.8-20.8,8.8
	l0,0c-8,0-15.2-3.2-20.8-8.8C3.2,198.2,0,190.6,0,183c0-8,3.2-15.2,8.8-20.8C74.4,96.6,161.2,60.6,254,60.6
	c82,0,161.2,28.8,223.6,81.6c1.6,1.6,2,4,0.4,5.6s-4,2-5.6,0.4C411.6,97,334,68.6,254,68.6c-90.4,0-175.6,35.2-239.6,99.2
	c-4,4-6.4,9.6-6.4,15.2s2.4,11.2,6.4,15.2s9.6,6.4,15.2,6.4l0,0c5.6,0,11.2-2.4,15.2-6.4c56-55.6,130-86.4,208.8-86.4
	s153.2,30.8,209.2,86.8c4,4,9.6,6.4,15.2,6.4c6,0,11.2-2.4,15.2-6.4s6.4-9.6,6.4-15.2s-2.4-11.2-6.4-15.2c-1.6-1.6-1.6-4,0-5.6
	s4-1.6,5.6,0c5.6,5.6,8.8,13.2,8.8,21.2s-3.2,15.2-8.8,20.8C493.6,209.8,486.4,213,478.4,213z"/>
<path d="M407.6,283.8c-8,0-15.2-3.2-21.2-8.8c-35.6-35.6-82.4-55.2-132.8-55.2c-50,0-97.2,19.6-132.4,54.8
	c-5.6,5.6-13.2,8.8-20.8,8.8l0,0c-8,0-15.2-3.2-20.8-8.8c-11.6-11.6-11.6-30.4,0-42c46.8-46.4,108.4-72,174.4-72
	c56.4,0,109.6,18.4,153.6,53.6c1.6,1.2,2,4,0.8,5.6s-4,2-5.6,0.8c-42.4-34-94-52-148.8-52c-63.6,0-123.6,24.8-168.8,70
	c-8.4,8.4-8.4,22.4,0,30.8c4,4,9.6,6.4,15.2,6.4l0,0c5.6,0,11.2-2.4,15.2-6.4c36.8-36.8,86-57.2,138-57.2
	c52.4,0,101.2,20.4,138.4,57.2c4,4,9.6,6.4,15.2,6.4c5.6,0,11.2-2.4,15.2-6.4s6.4-9.6,6.4-15.2c0-5.6-2.4-11.2-6.4-15.2
	c-1.6-1.6-1.6-4,0-5.6s4-1.6,5.6,0c5.6,5.6,8.8,13.2,8.8,21.2c0,8-3.2,15.2-8.8,20.8C422.8,280.6,415.6,283.8,407.6,283.8z"/>
</svg>