<?xml version="1.0" encoding="utf-8" ?>
<svg xmlns="http://www.w3.org/2000/svg" xmlns:xlink="http://www.w3.org/1999/xlink" width="512" height="512">
	<path fill="#008498" transform="scale(0.5 0.5)" d="M727.379 141.333L726.602 140.5L731.057 133.264L731.458 132.434L732.128 132.554C731.956 134.713 732.183 139.104 730.75 140.572L727.379 141.333Z"/>
	<path fill="#008498" transform="scale(0.5 0.5)" d="M672.53 317.614L678.991 312.527C681.262 314.444 683.435 316.233 686.016 317.729C682.322 318.564 676.268 318.183 672.53 317.614Z"/>
	<path fill="#64B8C3" transform="scale(0.5 0.5)" d="M129.837 810.85C131.32 804.207 133.081 797.872 136.281 791.818C141.241 782.433 150.378 773.856 160.606 770.75C158.528 773.824 156.325 776.769 154.681 780.109C141.947 788.828 134.146 798.334 130.217 813.5L129.837 810.85Z"/>
	<path fill="#CECDCB" transform="scale(0.5 0.5)" d="M630.985 594.996C631.044 587.333 634.425 580.298 638.493 574L639.555 572.41C645.541 564.723 653.71 560.17 663.346 559.179C661.941 562.037 660.778 564.664 659.949 567.75L659.705 568.631C657.51 576.821 658.483 586.609 658.505 595.067L630.985 594.996Z"/>
	<path fill="#B8EAF2" transform="scale(0.5 0.5)" d="M154.681 780.109L154.655 859.128C148.494 856.213 142.99 850.778 139.075 845.268C132.997 836.714 127.985 821.475 129.837 810.85L130.217 813.5C134.146 798.334 141.947 788.828 154.681 780.109Z"/>
	<path fill="#F7524D" transform="scale(0.5 0.5)" d="M323.995 703.691C326.945 695.339 330.318 687.939 336.573 681.514C344.955 672.906 355.034 668.975 367.002 668.761L367.133 703.509C367.148 708.038 367.798 713.659 367.049 718.043L366.966 718.6C363.875 718.622 354.547 717.831 352.278 719.401L352.242 719.408C351.353 715.762 349.793 711.75 347.25 708.934C341.064 702.084 332.305 704.084 323.995 703.691Z"/>
	<path fill="#008498" transform="scale(0.5 0.5)" d="M438.412 449.088L497.434 448.956L516.518 448.949C519.267 448.949 522.655 448.563 525.31 449.245C527.065 449.696 529.083 451.254 529.975 452.833C530.898 454.468 530.928 457.609 530.331 459.326C529.409 461.977 527.069 463.477 524.735 464.731L501.348 464.971L462.759 464.996L446.229 464.985C443.923 464.983 440.905 465.383 438.713 464.798C436.344 464.166 434.396 462.846 433.322 460.561C432.392 458.58 432.073 455.556 432.998 453.523C434.147 450.997 435.962 450.141 438.412 449.088Z"/>
	<path fill="#008498" transform="scale(0.5 0.5)" d="M438.878 563.648L493.685 563.538L514.204 563.507C517.287 563.506 521.884 562.93 524.75 564.002C526.857 564.79 529.361 566.437 530.213 568.623C530.89 570.359 530.679 572.788 530.011 574.5C528.916 577.307 526.848 578.683 524.206 579.882L467.53 579.98L448.673 579.962C445.516 579.956 442.035 580.277 438.939 579.672C436.549 579.206 434.447 577.85 433.231 575.695C432.216 573.897 432.153 570.3 432.921 568.388C433.985 565.74 436.373 564.587 438.878 563.648Z"/>
	<path fill="#008498" transform="scale(0.5 0.5)" d="M438.386 675.624C445.671 675.143 453.14 675.387 460.444 675.385L498.321 675.415L515.481 675.451C518.256 675.459 521.547 675.127 524.25 675.743C526.466 676.248 528.935 677.981 530.098 679.956C531.131 681.709 531.034 683.855 530.541 685.75C529.785 688.658 527.749 690.153 525.257 691.602C518.56 692.357 511.402 691.898 504.66 691.889L467.01 691.809L447.109 691.696C444.63 691.661 441.39 691.975 438.98 691.414C436.759 690.898 434.561 689.554 433.447 687.501C432.309 685.404 432.395 682.849 433.188 680.661C434.161 677.978 435.881 676.778 438.386 675.624Z"/>
	<path fill="#DE362F" transform="scale(0.5 0.5)" d="M367.002 668.761C380.216 669.807 390.768 674.439 399.415 684.749C404.244 690.506 407.029 697.205 408.787 704.421C409.84 708.742 409.66 713.508 409.323 717.92L367.049 718.043C367.798 713.659 367.148 708.038 367.133 703.509L367.002 668.761Z"/>
	<path fill="#FEA44C" transform="scale(0.5 0.5)" d="M367.049 718.043L409.323 717.92C407.135 730.148 400.46 741.821 390.14 748.925C386.958 751.116 383.164 753.382 379.438 754.406C375.417 755.379 371.213 756.505 367.06 756.572C362.355 756.933 357.651 757.089 353.085 755.653C350.128 754.723 347.176 752.933 344.423 751.497L344.536 751.132L347.265 749.924L347.768 749.702C350.036 748.514 351.748 746.806 352.475 744.321C353.075 742.272 352.785 739.272 351.561 737.513C349.659 734.777 346.951 734.269 343.902 733.748C344.313 733.257 344.109 733.413 344.656 733.101L349.481 729.905C351.776 726.602 352.331 723.372 352.278 719.401C354.547 717.831 363.875 718.622 366.966 718.6L367.049 718.043Z"/>
	<path fill="#CA772C" transform="scale(0.5 0.5)" d="M367.013 729.532C370.925 738.381 373.58 746.477 379.438 754.406C375.417 755.379 371.213 756.505 367.06 756.572L367.013 729.532Z"/>
	<path fill="#008498" transform="scale(0.5 0.5)" d="M352.278 719.401C354.547 717.831 363.875 718.622 366.966 718.6L367.013 729.532L367.06 756.572C362.355 756.933 357.651 757.089 353.085 755.653C350.128 754.723 347.176 752.933 344.423 751.497L344.536 751.132L347.265 749.924L347.768 749.702C350.036 748.514 351.748 746.806 352.475 744.321C353.075 742.272 352.785 739.272 351.561 737.513C349.659 734.777 346.951 734.269 343.902 733.748C344.313 733.257 344.109 733.413 344.656 733.101L349.481 729.905C351.776 726.602 352.331 723.372 352.278 719.401Z"/>
	<path fill="#008498" transform="scale(0.5 0.5)" d="M366.529 595.999L394.358 609.216C398.775 611.327 404.383 613.46 408.247 616.429C404.311 627.585 396.305 636.869 385.547 642.038C374.419 647.384 362.136 647.629 350.581 643.555C339.424 639.621 330.619 631.118 325.62 620.478L324.141 617.125L366.529 595.999Z"/>
	<path fill="#FEA44C" transform="scale(0.5 0.5)" d="M287.516 703.372L315.895 703.568C317.653 703.58 322.547 703.049 323.995 703.691C332.305 704.084 341.064 702.084 347.25 708.934C349.793 711.75 351.353 715.762 352.242 719.408L352.278 719.401C352.331 723.372 351.776 726.602 349.481 729.905L344.656 733.101C344.109 733.413 344.313 733.257 343.902 733.748C342.423 734.843 340.726 734.735 338.959 734.836C321.544 735.829 303.656 735.01 286.194 735.004L267.189 735.012C264.364 735.011 261.039 735.339 258.259 734.972C257.7 734.898 257.543 734.813 257.076 734.631L257.025 729.512L256.98 707.287C260.531 706.558 265.708 705.98 268.491 703.541L268.92 703.36L287.516 703.372Z"/>
	<path fill="#F97642" transform="scale(0.5 0.5)" d="M257.025 729.512L321.75 729.569L338.729 729.517C342.232 729.506 346.052 729.194 349.481 729.905L344.656 733.101C344.109 733.413 344.313 733.257 343.902 733.748C342.423 734.843 340.726 734.735 338.959 734.836C321.544 735.829 303.656 735.01 286.194 735.004L267.189 735.012C264.364 735.011 261.039 735.339 258.259 734.972C257.7 734.898 257.543 734.813 257.076 734.631L257.025 729.512Z"/>
	<path fill="#64B8C3" transform="scale(0.5 0.5)" d="M658.501 734.293L658.526 748.99L631.006 748.996L479.174 748.948L447.264 748.97C444.957 748.969 439.564 749.566 437.61 748.864C437.088 748.676 436.259 748.097 435.791 747.75C433.994 746.416 432.749 744.35 432.567 742.096C432.415 740.219 432.954 738.009 434.25 736.598C435.431 735.313 437.3 734.683 439 734.582C444.714 734.24 450.779 734.771 456.534 734.774L498.754 734.746L630.942 734.373L631.003 734.157L658.501 734.293Z"/>
	<path fill="#64B8C3" transform="scale(0.5 0.5)" d="M631.013 624.031L658.52 624.071L658.525 638.914L630.997 639.004L499.243 638.887L459.254 638.926C452.907 638.94 446.112 639.423 439.812 638.882C437.937 638.721 436.511 638.1 435.089 636.856C433.654 635.601 433.031 634.293 432.924 632.392C432.792 630.072 433.259 627.88 434.984 626.22C435.944 625.296 437.501 624.635 438.811 624.488C445.172 623.776 452.414 624.401 458.849 624.371L503.194 624.282L631.013 624.031Z"/>
	<path fill="#64B8C3" transform="scale(0.5 0.5)" d="M366.574 557.406C379.477 558.912 392.607 563.604 400.871 574.185C405.028 579.509 407.864 585.475 409.567 592L409.801 592.863C411.724 600.228 411.165 609.381 408.247 616.429C404.383 613.46 398.775 611.327 394.358 609.216L366.529 595.999L324.141 617.125C322.889 613.067 321.835 609.112 321.531 604.849C320.684 593 324.883 581.078 332.831 572.243C341.831 562.241 353.381 558.04 366.574 557.406Z"/>
	<path fill="#64B8C3" transform="scale(0.5 0.5)" d="M658.497 705.226L658.48 720.28L658.501 734.293L631.003 734.157L630.977 720.036L503.131 720.014L462.47 720.01L440.408 719.927C438.79 719.845 437.278 719.484 435.911 718.587C434.481 717.648 433.58 716.197 433.367 714.5C433.089 712.279 433.517 709.312 435.147 707.647C436.244 706.528 437.939 705.681 439.5 705.547C445.571 705.026 452.113 705.474 458.217 705.534L497.259 705.958L631.052 705.081L658.497 705.226Z"/>
	<path fill="#CECDCB" transform="scale(0.5 0.5)" d="M630.977 720.036L658.48 720.28L658.501 734.293L631.003 734.157L630.977 720.036Z"/>
	<path fill="#64B8C3" transform="scale(0.5 0.5)" d="M437.335 481.035L693.089 480.791C693.062 483.952 693.967 493.063 692.401 495.327L689.125 495.391L504.273 495.164L458.406 495.138C452.067 495.134 443.849 496.07 437.759 494.75C435.89 494.345 434.255 492.911 433.33 491.258C432.433 489.653 432.223 487.603 432.752 485.844C433.48 483.426 435.271 482.262 437.335 481.035Z"/>
	<path fill="#64B8C3" transform="scale(0.5 0.5)" d="M437.449 509.75C442.368 508.461 449.597 509.499 454.752 509.506L496.282 509.535L693.146 509.934C693.136 513.027 694.032 521.527 692.472 523.861L688.25 523.976L499.196 523.974L456.126 523.949L444.119 523.909C442.106 523.898 439.68 524.084 437.75 523.485C435.907 522.913 434.452 521.263 433.575 519.602C432.773 518.081 432.421 515.924 432.992 514.274C433.76 512.057 435.462 510.802 437.449 509.75Z"/>
	<path fill="#64B8C3" transform="scale(0.5 0.5)" d="M630.985 594.996L658.505 595.067L658.511 610.118L658.52 624.071L631.013 624.031L630.941 610.054L583.074 609.95L491.501 609.95L457.227 609.983C451.52 609.984 445.587 610.319 439.902 609.936C438.063 609.812 436.63 609.371 435.267 608.093C433.811 606.728 433.045 605.209 433.012 603.197C432.976 600.972 433.519 598.343 435.215 596.75C436.512 595.533 437.851 595.215 439.599 595.107C446.756 594.665 454.112 595.007 461.295 595.013L501.382 595.074L630.985 594.996Z"/>
	<path fill="#CECDCB" transform="scale(0.5 0.5)" d="M630.941 610.054L658.511 610.118L658.52 624.071L631.013 624.031L630.941 610.054Z"/>
	<path fill="#008498" transform="scale(0.5 0.5)" d="M327.6 472.684C328.533 470.245 330.878 467.682 332.632 465.75C341.234 456.271 352.248 451.698 364.975 451.002C377.681 451.706 387.668 454.987 397.274 463.7C403.333 470.317 406.607 477.251 408.835 485.87C411.269 495.283 408.403 506.091 403.533 514.256C396.936 525.315 385.693 533.375 373.25 536.496C371.05 537.048 368.792 537.54 366.522 537.639C356.679 537.705 348.698 536.2 340.476 530.619C331.392 524.452 324.449 514.972 322.455 504.024C320.504 493.309 321.591 482.023 327.6 472.684Z"/>
	<path fill="#FEDBB2" transform="scale(0.5 0.5)" d="M327.6 472.684C328.533 470.245 330.878 467.682 332.632 465.75C341.234 456.271 352.248 451.698 364.975 451.002C377.681 451.706 387.668 454.987 397.274 463.7C390.055 474.687 382.892 484.737 373.91 494.416C371.221 497.314 368.526 500.589 365.333 502.937L364.966 502.69C362.109 501.089 359.414 498.375 356.829 496.305L343.418 485.393C338.341 481.017 333.259 476.289 327.6 472.684Z"/>
	<path fill="#F7524D" transform="scale(0.5 0.5)" d="M364.975 451.002C377.681 451.706 387.668 454.987 397.274 463.7C390.055 474.687 382.892 484.737 373.91 494.416C371.221 497.314 368.526 500.589 365.333 502.937L364.966 502.69L364.975 451.002Z"/>
	<path fill="#FEB78B" transform="scale(0.5 0.5)" d="M219.679 703.084L224.911 703.114C230.17 703.094 235.684 702.684 240.839 703.779L241.366 703.875C246.054 706.367 251.62 708.129 256.98 707.287L257.025 729.512L257.076 734.631C257.543 734.813 257.7 734.898 258.259 734.972C261.039 735.339 264.364 735.011 267.189 735.012L286.194 735.004C303.656 735.01 321.544 735.829 338.959 734.836C340.726 734.735 342.423 734.843 343.902 733.748C346.951 734.269 349.659 734.777 351.561 737.513C352.785 739.272 353.075 742.272 352.475 744.321C351.748 746.806 350.036 748.514 347.768 749.702L347.265 749.924L344.536 751.132L344.423 751.497L346.58 756.462L346.483 761.75C345.98 762.104 345.634 762.26 345.01 762.272L293.712 761.681L269.5 761.74C265.432 761.745 260.996 762.076 256.967 761.59L199.29 761.605L182.564 761.546C178.969 761.522 174.882 761.92 171.489 760.582C167.366 758.955 165.719 756.377 164.054 752.502L163.846 751.548L164.04 749.17C163.353 749.309 163.325 749.341 162.503 749.346C160.494 749.359 158.739 748.93 157.25 747.572C155.28 745.776 154.093 743.964 154.039 741.231C153.999 739.168 154.653 737.494 156.132 736.047C158.745 733.491 161.788 733.37 165.206 733.34L161.012 730.221C159.536 729.462 157.98 727.998 157.045 726.636C154.65 723.151 154.526 719.161 155.362 715.138C156.526 712.271 157.708 709.933 159.906 707.726C161.938 705.687 164.415 704.136 167.282 703.621C172.129 702.753 177.867 703.25 182.842 703.207L219.679 703.084Z"/>
	<path fill="#F97642" transform="scale(0.5 0.5)" d="M256.981 747.938C262.879 746.991 269.535 747.553 275.517 747.551L314.539 747.734L333.5 747.908C336.779 747.931 340.511 747.602 343.75 748.063C344.92 748.23 345.893 748.779 346.808 749.504L347.265 749.924L344.536 751.132C344.107 751.519 344.295 751.282 343.991 752.004L343.75 752.602L341.5 752.867C333.848 753.25 326.033 752.851 318.362 752.786L278.655 752.684L261.984 752.823C261.163 752.834 258.317 753.145 257.75 752.889C257.461 752.759 257.281 752.463 257.047 752.25L256.981 747.938Z"/>
	<path fill="#FEDBB2" transform="scale(0.5 0.5)" d="M164.054 752.502L256.933 752.854L256.967 761.59L199.29 761.605L182.564 761.546C178.969 761.522 174.882 761.92 171.489 760.582C167.366 758.955 165.719 756.377 164.054 752.502Z"/>
	<path fill="#FEA44C" transform="scale(0.5 0.5)" d="M343.902 733.748C346.951 734.269 349.659 734.777 351.561 737.513C352.785 739.272 353.075 742.272 352.475 744.321C351.748 746.806 350.036 748.514 347.768 749.702L347.265 749.924L346.808 749.504C345.893 748.779 344.92 748.23 343.75 748.063C340.511 747.602 336.779 747.931 333.5 747.908L314.539 747.734L275.517 747.551C269.535 747.553 262.879 746.991 256.981 747.938L256.972 734.929L257.076 734.631C257.543 734.813 257.7 734.898 258.259 734.972C261.039 735.339 264.364 735.011 267.189 735.012L286.194 735.004C303.656 735.01 321.544 735.829 338.959 734.836C340.726 734.735 342.423 734.843 343.902 733.748Z"/>
	<path fill="#FEDBB2" transform="scale(0.5 0.5)" d="M164.04 749.17C163.353 749.309 163.325 749.341 162.503 749.346C160.494 749.359 158.739 748.93 157.25 747.572C155.28 745.776 154.093 743.964 154.039 741.231C153.999 739.168 154.653 737.494 156.132 736.047C158.745 733.491 161.788 733.37 165.206 733.34C168.173 734.576 172.346 734.251 175.561 734.309L195.47 734.454L256.972 734.929L256.981 747.938L195.686 747.997C185.995 747.993 175.91 747.423 166.272 748.162C165.329 748.235 164.712 748.534 164.04 749.17Z"/>
	<path fill="#FEDBB2" transform="scale(0.5 0.5)" d="M219.679 703.084L224.911 703.114C230.17 703.094 235.684 702.684 240.839 703.779L241.366 703.875C246.054 706.367 251.62 708.129 256.98 707.287L257.025 729.512L257.076 734.631L256.972 734.929L195.47 734.454L175.561 734.309C172.346 734.251 168.173 734.576 165.206 733.34L161.012 730.221C159.536 729.462 157.98 727.998 157.045 726.636C154.65 723.151 154.526 719.161 155.362 715.138C156.526 712.271 157.708 709.933 159.906 707.726C161.938 705.687 164.415 704.136 167.282 703.621C172.129 702.753 177.867 703.25 182.842 703.207L219.679 703.084Z"/>
	<path fill="#FEB78B" transform="scale(0.5 0.5)" d="M161.012 730.221C171.485 728.753 183.152 729.661 193.742 729.647L257.025 729.512L257.076 734.631L256.972 734.929L195.47 734.454L175.561 734.309C172.346 734.251 168.173 734.576 165.206 733.34L161.012 730.221Z"/>
	<path fill="#008498" transform="scale(0.5 0.5)" d="M256.639 768.475L256.876 768.568L314.78 768.531L330.485 768.539C333.535 768.538 336.981 768.271 339.989 768.745C343.143 769.242 346.407 771.112 348.671 773.309C354.219 778.695 353.831 784.381 353.88 791.523L353.95 804.373L354.007 828.288C354.003 831.941 354.506 836.694 353.479 840.22C352.788 842.593 351.042 844.384 349.338 846.091L345.549 849.295L344.02 850.504C344.443 854.311 345.627 856.902 347.662 860.137C350.31 863.31 352.988 865.192 356.719 866.965C355.897 867.181 354.973 867.531 354.129 867.577C350.881 865.961 348.418 863.423 345.844 860.928C342.008 863.22 333.032 866.234 328.517 866.103L328.492 866.33L327.896 866.965C325.667 866.665 323.257 866.772 321.001 866.706L257.366 866.461L257.108 866.53C250.029 866.124 242.779 866.41 235.683 866.386L196.387 866.292C188.296 866.314 179.36 867.167 171.391 865.841C167.166 865.138 162.984 863.358 158.969 861.887C157.391 861.124 156.065 860.165 154.655 859.128L154.681 780.109C156.325 776.769 158.528 773.824 160.606 770.75C162.597 769.708 164.676 769.176 166.896 768.92C175.957 767.604 186.419 768.565 195.667 768.564L256.639 768.475Z"/>
	<path fill="#FEDBB2" transform="scale(0.5 0.5)" d="M326.154 834.028C331.042 835.263 335.281 836.035 340.323 836.174L340.464 843.657L344.02 850.504C344.443 854.311 345.627 856.902 347.662 860.137C350.31 863.31 352.988 865.192 356.719 866.965C355.897 867.181 354.973 867.531 354.129 867.577C350.881 865.961 348.418 863.423 345.844 860.928C342.008 863.22 333.032 866.234 328.517 866.103C324.542 856.727 322.274 843.747 326.154 834.028Z"/>
	<path fill="#DE362F" transform="scale(0.5 0.5)" d="M340.464 843.657L344.02 850.504C344.443 854.311 345.627 856.902 347.662 860.137C350.31 863.31 352.988 865.192 356.719 866.965C355.897 867.181 354.973 867.531 354.129 867.577C350.881 865.961 348.418 863.423 345.844 860.928C342.189 856.181 340.626 849.548 340.464 843.657Z"/>
	<path fill="white" transform="scale(0.5 0.5)" d="M256.569 790.643L264.006 790.607L263.973 809.973L283.39 810.028C284.514 813.753 283.769 820.256 283.619 824.285L263.804 824.473L263.719 845.024L257.022 845.041L249.981 845.026L249.976 824.049L230.564 824.025L230.631 810.336L249.897 810.362L249.968 790.911L256.569 790.643Z"/>
	<path fill="#64B8C3" transform="scale(0.5 0.5)" d="M172.611 772.54L194.574 772.508L240.38 772.645L250.982 772.679C252.714 772.656 254.812 772.357 256.467 772.827L256.569 790.643L249.968 790.911L249.897 810.362L230.631 810.336L230.564 824.025L249.976 824.049L249.981 845.026L257.022 845.041L257.083 858.661C257.108 861.196 256.884 863.975 257.366 866.461L257.108 866.53C250.029 866.124 242.779 866.41 235.683 866.386L196.387 866.292C188.296 866.314 179.36 867.167 171.391 865.841C167.166 865.138 162.984 863.358 158.969 861.887L159.074 804.897C159.053 797.525 158.116 788.611 159.402 781.391C159.788 779.219 160.895 777.044 162.464 775.486C165.558 772.415 168.557 772.419 172.611 772.54Z"/>
	<path fill="#008498" transform="scale(0.5 0.5)" d="M721.393 321.156L721.717 320.647C717.925 319.076 714.03 317.972 710.304 316.211C690.142 306.683 674.641 291.372 666.086 270.656C657.645 250.217 657.756 226.752 666.269 206.359C674.161 187.454 689.964 170.359 709.09 162.503C729.273 154.214 752.426 153.488 772.669 162.005C792.821 170.484 810.352 187.737 818.591 208.062C826.941 228.665 827.657 249.865 818.923 270.526C810.139 291.306 793.962 308.281 772.953 316.728C762.717 320.843 750.988 323.665 739.882 323.425C735.888 323.338 731.976 322.651 727.977 322.638L721.393 321.156Z"/>
	<path fill="white" transform="scale(0.5 0.5)" d="M736.645 176.191C743.092 175.112 750.797 176.331 757.114 177.713C773.547 181.309 787.266 192.318 796.153 206.378C804.277 219.23 808.33 237.298 804.761 252.282C802.618 261.279 799.52 269.405 793.889 276.854C782.404 292.048 767.258 300.297 748.618 302.859C742.773 303.588 736.075 303.032 730.312 301.784C713.577 298.161 698.373 287.693 689.232 273.192C680.797 259.811 676.515 242.596 680.202 226.966C682.603 216.787 686.463 207.213 693.043 198.973C703.951 185.316 719.523 178.153 736.645 176.191Z"/>
	<path fill="#008498" transform="scale(0.5 0.5)" d="M736.45 187.191C749.064 186.357 760.547 188.579 771.191 195.644C783.587 203.87 791.314 216.858 794.049 231.379C796.599 244.926 792.774 258.618 785.063 269.832C776.969 281.605 763.807 288.799 749.997 291.4C735.688 292.746 721.255 289.498 709.867 280.39C699.093 271.774 692.206 259.123 690.718 245.425C689.185 231.327 692.884 216.608 701.904 205.535C710.66 194.787 722.796 188.717 736.45 187.191Z"/>
	<path fill="white" transform="scale(0.5 0.5)" d="M737.229 205.606C745.591 204.897 752.642 206.05 759.957 210.191C767.547 214.487 773.711 222.196 775.955 230.652C778.238 239.258 776.519 248.319 772.156 255.953C766.809 265.308 759.651 270.263 749.339 273.085C740.508 274.513 731.284 273.284 723.649 268.476C715.938 263.618 710.844 255.186 708.94 246.398C707.088 237.852 708.971 227.511 713.774 220.212C719.261 211.874 727.675 207.494 737.229 205.606Z"/>
	<path fill="#01284A" transform="scale(0.5 0.5)" d="M737.909 216.608C743.809 215.945 749.606 216.502 754.776 219.623C760.179 222.884 763.897 228.342 765.328 234.461C766.765 240.608 765.737 247.266 762.25 252.554C758.367 258.442 753.066 261.536 746.305 262.926C740.422 263.503 735.071 262.859 729.943 259.704C724.626 256.433 720.673 251.346 719.273 245.195C717.838 238.889 719.293 231.99 722.723 226.556C726.339 220.829 731.478 218.012 737.909 216.608Z"/>
	<path fill="#008498" transform="scale(0.5 0.5)" d="M742.229 223.655L742.382 223.677C744.171 223.81 745.989 223.815 747.695 224.436C751.857 225.953 755.205 229.073 756.896 233.194C758.322 236.672 758.287 241.922 756.803 245.368L756.514 246C755.202 248.927 752.463 252.004 749.568 253.475L748.994 253.75C746.896 254.781 744.907 255.099 742.624 255.449C739.657 255.169 736.667 254.704 734.097 253.069C730.763 250.948 727.762 246.859 726.914 243.011C726.025 238.98 726.813 233.97 729.304 230.584C732.641 226.047 736.827 224.443 742.229 223.655Z"/>
	<path fill="#64B8C3" transform="scale(0.5 0.5)" d="M256.251 897.352C251.031 896.258 243.995 897.376 238.568 897.405L188.74 897.561C180.586 897.585 171.54 898.435 163.533 897.189C147.094 894.631 133.165 887.692 121.639 875.594C109.025 862.354 102 842.939 102.54 824.75C102.93 811.592 107.998 797.419 116.016 786.991C119.258 782.775 123.055 779.23 126.914 775.598C118.867 787.986 113.229 799.479 113.258 814.655C113.293 833.637 120.49 849.95 134.011 863.271C142.505 871.639 152.239 877.02 163.81 879.868C177.142 883.149 192.211 881.695 205.935 881.658L257.524 881.492L337.852 881.092C333.808 876.737 329.773 872.755 327.896 866.965L328.492 866.33L328.517 866.103C333.032 866.234 342.008 863.22 345.844 860.928C348.418 863.423 350.881 865.961 354.129 867.577C354.973 867.531 355.897 867.181 356.719 866.965C352.988 865.192 350.31 863.31 347.662 860.137C350.044 859.028 351.943 857.092 353.905 855.371L354.47 854.823C363.666 845.72 363.944 836.792 363.992 824.693L381.082 824.923C384.646 823.53 387.517 819.525 389.985 816.679C392.666 819.256 394.764 821.939 396.89 824.987L397.478 825.22L658.163 825.003L658.382 847.044C658.406 852.329 657.884 858.132 659.309 863.25L659.539 864.104C661.957 872.763 667.979 880.444 675.866 884.798C679.767 886.952 683.83 888.305 688.273 888.68C695.129 889.259 702.244 888.891 709.129 888.865L746.546 888.704L805.446 888.594L826.075 888.518C830.977 888.491 836.082 888.859 840.824 887.436C847.126 885.545 851.662 881.875 856.748 877.925C853.546 891.219 847.276 901.982 835.284 909.269C831.238 911.728 826.501 913.378 821.83 914.133C814.315 915.349 805.752 914.636 798.112 914.672L751.333 914.898C747.919 914.914 741.197 913.978 738.249 915.359C731.329 920.202 722.291 924.165 714.623 927.746C677.691 944.996 639.223 956.55 599.324 964.555C577.222 968.989 554.72 971.009 532.232 972.022C434.406 976.43 338.003 951.742 256.251 897.352Z"/>
	<path fill="white" transform="scale(0.5 0.5)" d="M532.491 920.571C535.537 920.407 538.457 920.386 541.295 921.711C545.786 923.808 549.508 927.997 550.986 932.75C552.165 936.54 551.804 941.168 549.785 944.593C546.659 949.896 543.114 952.678 537.116 954.22C533.41 954.554 530.335 954.157 527.011 952.406C522.808 950.193 519.404 946.51 518.106 941.875C516.855 937.404 517.689 932.457 520.153 928.54C522.97 924.061 527.514 921.783 532.491 920.571Z"/>
	<path fill="#F7524D" transform="scale(0.5 0.5)" d="M461.664 905.311C461.591 907.775 461.199 909.914 460.25 912.204C458.303 916.906 454.144 920.546 449.431 922.342C445.268 923.929 440.793 923.883 436.75 921.949C432.476 919.904 429.065 916.257 427.587 911.739C426.225 907.576 426.862 902.32 428.977 898.487C431.108 894.627 435.057 891.432 439.24 890.148L440 889.928C442.726 889.12 446.621 889.134 449.336 889.968C451.179 890.535 452.934 891.509 454.625 892.426C458.198 895.249 460.759 897.713 461.417 902.505L461.664 905.311Z"/>
	<path fill="white" transform="scale(0.5 0.5)" d="M441.642 894.597C443.509 894.574 445.5 894.205 447.334 894.675C450.47 895.477 453.158 897.766 454.741 900.547C456.171 903.059 456.965 905.658 456.098 908.501C454.705 913.067 451.659 915.292 447.602 917.318C445.72 917.615 443.408 917.846 441.553 917.308C438.32 916.371 435.66 914.239 434.076 911.25C432.768 908.783 432.55 905.321 433.417 902.662C434.812 898.385 437.867 896.491 441.642 894.597Z"/>
	<path fill="#FE856D" transform="scale(0.5 0.5)" d="M381.082 824.923C384.646 823.53 387.517 819.525 389.985 816.679C392.666 819.256 394.764 821.939 396.89 824.987L397.478 825.22C403.74 835.064 405.492 843.45 405.071 855.137C403.582 863.086 401.249 869.809 395.953 876.115C393.639 878.87 390.92 881.079 388.409 883.622C382.644 886.858 377.324 889.382 370.717 890.347C358.688 892.103 347.419 888.244 337.852 881.092C333.808 876.737 329.773 872.755 327.896 866.965L328.492 866.33L328.517 866.103C333.032 866.234 342.008 863.22 345.844 860.928C348.418 863.423 350.881 865.961 354.129 867.577C354.973 867.531 355.897 867.181 356.719 866.965C352.988 865.192 350.31 863.31 347.662 860.137C350.044 859.028 351.943 857.092 353.905 855.371L354.47 854.823C363.666 845.72 363.944 836.792 363.992 824.693L381.082 824.923Z"/>
	<path fill="#F13836" transform="scale(0.5 0.5)" d="M383.385 853.076L385.651 852.799C383.666 858.872 380.28 865.485 374.25 868.461C369.03 871.037 363.542 871.343 358.058 869.366C356.73 868.887 355.329 868.323 354.129 867.577C354.973 867.531 355.897 867.181 356.719 866.965C361.838 868.774 366.394 868.924 371.562 867.059C377.026 865.087 380.363 860.425 382.724 855.382L383.385 853.076Z"/>
	<path fill="#DE362F" transform="scale(0.5 0.5)" d="M381.082 824.923C384.646 823.53 387.517 819.525 389.985 816.679C392.666 819.256 394.764 821.939 396.89 824.987L394.752 824.087L394.241 823.355L393.434 823.468L389.801 819.259C386.095 823.39 381.923 825.866 377.965 829.518C383.412 836.291 386.799 842.578 385.813 851.556L385.651 852.799L383.385 853.076L383.435 852.583C384.078 844.071 381.582 836.887 376.065 830.368C375.441 829.63 375.538 830.038 375.599 829.233L381.082 824.923Z"/>
	<path fill="#F13836" transform="scale(0.5 0.5)" d="M393.434 823.468L394.241 823.355L394.752 824.087L396.89 824.987L397.478 825.22C403.74 835.064 405.492 843.45 405.071 855.137C403.582 863.086 401.249 869.809 395.953 876.115C393.639 878.87 390.92 881.079 388.409 883.622C382.644 886.858 377.324 889.382 370.717 890.347C358.688 892.103 347.419 888.244 337.852 881.092C333.808 876.737 329.773 872.755 327.896 866.965L328.492 866.33C330.329 866.833 330.133 866.956 331.158 868.49C337.283 877.659 345.923 885.072 357.059 887.103C367.16 888.944 377.522 887.291 386.005 881.287C394.196 875.488 400.145 866.339 401.8 856.417C403.818 844.324 400.311 833.28 393.434 823.468Z"/>
	<path fill="#64B8C3" transform="scale(0.5 0.5)" d="M363.992 824.693L381.082 824.923L375.599 829.233C375.538 830.038 375.441 829.63 376.065 830.368C381.582 836.887 384.078 844.071 383.435 852.583L383.385 853.076L382.724 855.382C380.363 860.425 377.026 865.087 371.562 867.059C366.394 868.924 361.838 868.774 356.719 866.965C352.988 865.192 350.31 863.31 347.662 860.137C350.044 859.028 351.943 857.092 353.905 855.371L354.47 854.823C363.666 845.72 363.944 836.792 363.992 824.693Z"/>
	<path fill="#64B8C3" transform="scale(0.5 0.5)" d="M838.729 200.37C840.648 198.739 843.813 196.581 844.122 193.917C844.429 191.281 842.534 187.945 840.876 186.038C839.694 184.677 838.364 183.561 836.479 183.592C832.543 183.657 828.137 186.176 824.578 187.743L824.309 187.224C820.681 180.358 815.719 174.34 810.187 168.935C812.471 165.836 816.068 161.867 817.331 158.25L817.686 160.813L818.075 161.022C821.907 163.182 825.193 166.837 828.348 169.88L846.591 188.376C899.291 244.841 937.145 313.506 956.907 388.254C982.636 485.575 977.42 588.764 941.851 682.915C933.517 704.975 923.658 727.018 911.737 747.391C901.907 764.191 891.475 781.126 879.937 796.815L867.122 812.774L867.38 726.568L867.028 676.972L867.167 674.112C866.707 670.118 867.019 665.771 867.01 661.742L867.109 637.596L867.136 635.161L867.199 598.758C867.236 590.382 868.31 580.25 866.406 572.135C864.754 565.094 861.481 558.886 856.338 553.771C847.947 545.425 838.576 542.505 826.902 542.525C824.196 542.968 821.182 542.766 818.431 542.795C817.827 542.801 816.183 542.988 815.684 542.822C815.357 542.713 814.143 541.346 813.848 541.077C812.041 539.428 810.742 538.202 808.25 538.091C791.752 537.354 775.138 538.881 758.633 538.369L759.189 535.979C758.935 534.75 759.006 534.075 759.327 532.865C759.73 530.402 759.37 527.356 759.362 524.811L759.319 507.609L759.256 468.859C759.252 463.705 760.146 457.02 759.002 452.096C759.388 447.134 759.09 441.937 759.088 436.944L759.095 408.118L759.167 378.287C759.179 371.785 759.586 365.036 758.46 358.617L756.533 351.544C758.479 351.339 760.476 351.5 762.011 350.25C763.699 345.307 763.747 340.046 764.066 334.88C765.689 334.323 779.214 329.749 779.396 329.828C779.707 329.963 780.948 331.768 781.24 332.132C783.649 335.126 786.456 339.471 790.092 340.912L790.512 341.063C791.972 341.103 793.079 340.955 794.354 340.177C797.721 338.121 799.032 335.563 799.942 331.85C799.348 328.121 798.511 324.68 797.193 321.146C802.681 317.468 807.41 313.505 812.231 309.007C814.05 310.087 815.727 311.495 817.417 312.768C819.589 313.896 821.813 315.185 824.158 315.908C826.188 316.533 827.894 316.768 829.823 315.66C832.192 314.299 833.748 312.1 834.271 309.434C834.806 306.704 832.905 304.386 831.515 302.211L823.13 294.537C824.934 292.002 826.675 289.387 828.177 286.66C829.478 284.298 830.761 280.375 832.954 279C837.405 278.906 841.571 280.698 846.195 279.939C847.805 279.675 849.385 278.53 850.301 277.207C851.787 275.06 852.305 272.113 851.379 269.633C849.707 265.157 841.502 262.205 837.234 260.749C837.392 258.32 838.127 255.827 838.643 253.443C839.606 249.895 839.604 246.319 839.716 242.668L841.055 241.902C845.081 240.347 849.747 241.065 853.463 238.23C855.281 236.843 855.806 234.712 855.895 232.5C855.983 230.303 855.134 227.95 853.616 226.366C850.036 222.628 843.807 222.739 838.982 222.438L835.84 210.979L833.115 203.585L838.729 200.37Z"/>
	<path fill="white" transform="scale(0.5 0.5)" d="M790.134 384.038C791.61 383.997 793.331 384.113 794.75 384.535C796.632 385.095 798.105 386.57 798.964 388.292C800.245 390.854 800.673 394.069 799.506 396.75C798.337 399.438 796.016 400.645 793.425 401.682C791.87 401.653 790.078 401.748 788.589 401.253C786.519 400.564 784.724 398.806 783.863 396.824C782.771 394.308 782.65 391.225 783.887 388.732C785.184 386.117 787.545 385.026 790.134 384.038Z"/>
	<path fill="white" transform="scale(0.5 0.5)" d="M917.766 557.745C919.253 559.871 920.311 562.63 921.471 564.963C922.471 566.975 923.396 568.981 925.068 570.539C928.12 573.382 933.959 575.168 937.822 576.855L927.25 581.008C926.169 581.465 924.274 582.067 923.54 582.977C921.116 585.982 919.515 592.49 918.034 596.183C916.074 592.4 914.424 586.278 911.7 583.166C911.054 582.428 909.03 581.709 908.09 581.29L897.84 576.717C901.686 574.854 907.14 573.183 910.382 570.487C913.512 567.883 915.882 561.447 917.766 557.745Z"/>
	<path fill="#F97642" transform="scale(0.5 0.5)" d="M892.603 343.59C896.094 343.475 899.839 344.405 902.869 346.175C906.996 348.587 910.292 353.45 911.272 358.062C912.387 363.304 910.898 368.748 907.785 373.032C904.321 377.798 899.963 379.492 894.413 380.458C890.91 380.214 887.857 379.687 884.742 377.999C880.498 375.698 877.058 371.344 875.783 366.682C874.472 361.892 875.475 356.664 878.079 352.5C881.447 347.114 886.626 344.866 892.603 343.59Z"/>
	<path fill="white" transform="scale(0.5 0.5)" d="M891.62 350.562C893.562 350.454 895.379 350.443 897.25 351.056C900.15 352.006 902.922 354.458 904.134 357.267C905.263 359.882 905.248 362.558 904.178 365.202C902.606 369.084 899.692 371.071 895.973 372.662C893.877 372.912 891.38 372.854 889.36 372.202C886.707 371.345 884.565 369.017 883.501 366.489C882.287 363.604 882.283 360.102 883.64 357.25C885.396 353.562 888.014 351.999 891.62 350.562Z"/>
	<path fill="#F97642" transform="scale(0.5 0.5)" d="M902.441 479.14C906.22 479.252 909.564 479.516 912.966 481.387C917.269 483.754 921.058 487.968 922.174 492.858C923.186 497.296 922.238 502.623 919.916 506.5C916.918 511.505 912.907 514.09 907.369 515.541C902.543 515.866 897.509 515.689 893.291 513.051C889.794 510.865 887.849 507.038 886.935 503.121C885.712 497.88 886.444 491.492 889.439 486.989C892.628 482.193 896.951 480.187 902.441 479.14Z"/>
	<path fill="white" transform="scale(0.5 0.5)" d="M901.001 486.607C903.115 486.325 905.306 486.117 907.384 486.713C910.755 487.681 913.089 489.831 914.587 492.966C915.801 495.505 915.884 498.658 914.893 501.289C913.423 505.188 911.025 506.594 907.407 508.304C905.154 508.48 903.017 508.639 900.808 508.055C898.113 507.343 895.893 505.442 894.544 503.04C892.917 500.143 892.726 496.54 893.81 493.415C895.033 489.891 897.839 488.186 901.001 486.607Z"/>
	<path fill="#008498" transform="scale(0.5 0.5)" d="M867.109 637.596L867.976 637.367C871.297 636.442 874.688 634.641 878 633.486C887.886 630.038 897.642 627.862 908.095 627.202C911.336 626.998 915.266 626.543 918.247 628.089C919.42 628.698 919.876 629.358 920.469 630.5C921.18 639.601 917.001 648.849 913.503 657.089C904.888 677.386 894.133 696.658 879.753 713.492L867.38 726.568L867.028 676.972L867.167 674.112C866.707 670.118 867.019 665.771 867.01 661.742L867.109 637.596Z"/>
	<path fill="#003F55" transform="scale(0.5 0.5)" d="M898.716 647.552L910.714 637.002C912.338 635.496 914.647 632.753 916.75 632.094L917.928 633C917.614 634.659 915.611 635.902 914.366 637.035L900.581 649.224L878.484 667.915C874.746 670.988 871.085 674.324 867.028 676.972L867.167 674.112L898.716 647.552Z"/>
	<path fill="#008498" transform="scale(0.5 0.5)" d="M849.928 397.065C851.524 399.585 851.452 405.899 851.622 408.997C852.413 423.433 852.718 438.401 851.67 452.825C850.968 462.48 849.988 472.683 847.915 482.123L847.714 483.014L847.073 485.9C844.63 497.214 841.643 508.568 837.461 519.377C834.387 527.32 830.557 534.847 826.902 542.525C824.196 542.968 821.182 542.766 818.431 542.795C817.827 542.801 816.183 542.988 815.684 542.822C815.357 542.713 814.143 541.346 813.848 541.077C812.041 539.428 810.742 538.202 808.25 538.091C791.752 537.354 775.138 538.881 758.633 538.369L759.189 535.979C758.935 534.75 759.006 534.075 759.327 532.865C759.73 530.402 759.37 527.356 759.362 524.811L759.319 507.609L759.256 468.859C759.252 463.705 760.146 457.02 759.002 452.096L759.555 452.996C760.815 452.98 762.082 451.395 763.035 450.57L772.863 442.125C789.452 428.23 809.628 416.29 829.068 406.826C834.959 403.958 840.881 400.885 847.034 398.632L849.928 397.065Z"/>
	<path fill="#003F55" transform="scale(0.5 0.5)" d="M849.928 397.065C849.657 400.314 846.178 404.614 844.448 407.414L827.359 434.413L791.207 490.705L771.657 521.842L789.691 512.743L789.725 512.641L847.714 483.014L847.073 485.9L789.053 515.315C782.97 519.623 775.61 522.564 769.216 526.484L759.189 535.979C758.935 534.75 759.006 534.075 759.327 532.865C766.338 525.511 771.199 517.41 776.499 508.8L789.683 487.986L847.034 398.632L849.928 397.065Z"/>
	<path fill="#008498" transform="scale(0.5 0.5)" d="M789.053 515.315L847.073 485.9C844.63 497.214 841.643 508.568 837.461 519.377C834.387 527.32 830.557 534.847 826.902 542.525C824.196 542.968 821.182 542.766 818.431 542.795C817.827 542.801 816.183 542.988 815.684 542.822C815.357 542.713 814.143 541.346 813.848 541.077C812.041 539.428 810.742 538.202 808.25 538.091C791.752 537.354 775.138 538.881 758.633 538.369L759.189 535.979L769.216 526.484C775.61 522.564 782.97 519.623 789.053 515.315Z"/>
	<path fill="#008498" transform="scale(0.5 0.5)" d="M759.002 452.096L759.555 452.996C760.815 452.98 762.082 451.395 763.035 450.57L772.863 442.125C789.452 428.23 809.628 416.29 829.068 406.826C834.959 403.958 840.881 400.885 847.034 398.632L789.683 487.986L776.499 508.8C771.199 517.41 766.338 525.511 759.327 532.865C759.73 530.402 759.37 527.356 759.362 524.811L759.319 507.609L759.256 468.859C759.252 463.705 760.146 457.02 759.002 452.096Z"/>
	<path fill="#004770" transform="scale(0.5 0.5)" d="M492.642 317.102L514.772 317.026C517.431 317.048 520.9 316.668 523.444 317.438L523.773 317.94C525.686 318.308 527.323 318.855 529.097 317.793L529.89 317.907L660.503 317.835C664.363 318.173 668.732 318.427 672.53 317.614C676.268 318.183 682.322 318.564 686.016 317.729C688.6 317.874 690.266 318.479 692.448 319.854C693.077 320.25 694.488 321.443 695.119 321.609C697.066 322.122 701.542 321.286 703.701 321.201C709.543 320.969 715.552 320.852 721.393 321.156L727.977 322.638C740.579 327.462 750.061 336.641 755.488 349L756.533 351.544L758.46 358.617C759.586 365.036 759.179 371.785 759.167 378.287L759.095 408.118L759.088 436.944C759.09 441.937 759.388 447.134 759.002 452.096C760.146 457.02 759.252 463.705 759.256 468.859L759.319 507.609L759.362 524.811C759.37 527.356 759.73 530.402 759.327 532.865C759.006 534.075 758.935 534.75 759.189 535.979L758.633 538.369C775.138 538.881 791.752 537.354 808.25 538.091C810.742 538.202 812.041 539.428 813.848 541.077C814.143 541.346 815.357 542.713 815.684 542.822C816.183 542.988 817.827 542.801 818.431 542.795C821.182 542.766 824.196 542.968 826.902 542.525C838.576 542.505 847.947 545.425 856.338 553.771C861.481 558.886 864.754 565.094 866.406 572.135C868.31 580.25 867.236 590.382 867.199 598.758L867.136 635.161L867.109 637.596L867.01 661.742C867.019 665.771 866.707 670.118 867.167 674.112L867.028 676.972L867.38 726.568L867.122 812.774L867.021 841.202C867.024 846.78 867.349 852.475 866.543 858L866.428 858.861C865.386 866.2 861.523 872.425 856.748 877.925C851.662 881.875 847.126 885.545 840.824 887.436C836.082 888.859 830.977 888.491 826.075 888.518L805.446 888.594L746.546 888.704L709.129 888.865C702.244 888.891 695.129 889.259 688.273 888.68C683.83 888.305 679.767 886.952 675.866 884.798C667.979 880.444 661.957 872.763 659.539 864.104L659.309 863.25C657.884 858.132 658.406 852.329 658.382 847.044L658.163 825.003L397.478 825.22L396.89 824.987C394.764 821.939 392.666 819.256 389.985 816.679C387.517 819.525 384.646 823.53 381.082 824.923L363.992 824.693L363.976 798.376L374.22 798.082L631.265 798.042L631.006 748.996L658.526 748.99L658.501 734.293L658.48 720.28L658.497 705.226L631.052 705.081L630.997 639.004L658.525 638.914L658.52 624.071L658.511 610.118L658.505 595.067C658.483 586.609 657.51 576.821 659.705 568.631L659.949 567.75C660.778 564.664 661.941 562.037 663.346 559.179C665.056 556.667 666.77 554.329 668.93 552.179C679.878 541.276 693.777 543.017 707.895 543.021C709.073 541.976 709.82 540.269 710.604 538.894C718.55 539.968 727.028 539.414 735.052 539.404L735.232 473.127L735.154 422.493L287.746 422.486L287.516 703.372L268.92 703.36C275.615 699.739 280.306 693.581 282.75 686.423C287.025 673.905 281.532 662.866 276.017 651.82L267.037 633.768L266.619 547.496L266.788 368.635C268.263 353.782 275.721 340.064 287.383 330.707C294.825 324.736 304.063 320.376 313.515 318.856C323.483 317.252 334.408 318.069 344.528 318.036L398.765 317.818L459.181 317.687C468.785 317.682 479.073 316.921 488.609 317.898L489.76 318.446C491.211 318.142 491.525 318.06 492.642 317.102Z"/>
	<path fill="#CECDCB" transform="scale(0.5 0.5)" d="M631.006 748.996L658.526 748.99L658.459 798.094L631.265 798.042L631.006 748.996Z"/>
	<path fill="#CECDCB" transform="scale(0.5 0.5)" d="M630.997 639.004L658.525 638.914L658.497 705.226L631.052 705.081L630.997 639.004Z"/>
	<path fill="#008498" transform="scale(0.5 0.5)" d="M670.948 411.482L287.993 411.519L288.01 387.704C288.028 377.231 287.016 366.458 292.431 357C297.384 348.348 304.961 342.667 314.5 339.91C317.801 338.956 320.958 338.878 324.374 338.819L407.095 338.761L589.731 338.827L671.85 338.684L692.361 338.831C696.688 338.869 701.399 338.643 705.652 339.503C714.881 341.37 722.898 347.906 728.107 355.556C731.351 360.046 733.216 364.476 734.793 369.756C736.484 375.414 735.985 381.777 735.983 387.619L735.913 412.058L692.45 412.09C685.502 412.058 677.791 412.649 670.948 411.482Z"/>
	<path fill="white" transform="scale(0.5 0.5)" d="M457.673 363.564C463.386 363.505 472.475 362.416 477.677 364.612C480.527 365.816 482.528 368.018 483.606 370.913C484.863 374.29 484.813 378.308 483.256 381.571C481.545 385.16 478.98 386.813 475.362 388.196L463.55 388.485C461.143 388.513 458.534 388.789 456.25 387.894C453.004 386.623 450.539 384.366 449.211 381.129C447.875 377.874 447.628 373.493 449.216 370.291C451.011 366.673 454.029 364.899 457.673 363.564Z"/>
	<path fill="white" transform="scale(0.5 0.5)" d="M401.057 363.607C404.381 363.453 418.082 362.677 420.32 363.89C423.628 365.683 426.359 368.537 427.518 372.157C428.634 375.642 428.18 379.986 426.369 383.167C424.544 386.373 422.178 387.539 418.683 388.407C412.759 388.709 401.865 389.86 397 386.491C394.656 384.868 393.017 382.521 392.52 379.703L392.408 379C391.939 376.251 391.991 373.679 392.993 371.031C394.417 367.271 397.505 365.13 401.057 363.607Z"/>
	<path fill="#003F55" transform="scale(0.5 0.5)" d="M343.278 362.103C349.347 361.932 357.7 360.887 363.514 362.36L364 362.493C365.105 362.779 364.702 362.627 365.75 363.028C368.739 364.172 371.015 367.194 372.131 370.101C373.826 374.514 373.13 379.905 371.16 384.115C369.582 387.487 366.702 389.165 363.329 390.368L349.794 390.491C346.927 390.519 343.723 390.883 341.063 389.643C337.311 387.895 335.346 385.247 334.068 381.39C332.67 377.168 333.479 371.326 335.665 367.482C337.364 364.494 340.076 362.95 343.278 362.103Z"/>
	<path fill="white" transform="scale(0.5 0.5)" d="M344.689 363.6C350.291 363.364 359.683 362.531 364.771 364.844C367.523 366.095 369.441 368.529 370.408 371.348C371.719 375.167 371.466 379.688 369.487 383.25C367.829 386.232 365.238 387.608 362.08 388.542C356.642 389.064 347.063 390.032 342 387.96C339.12 386.782 336.572 384.506 335.497 381.546C334.2 377.977 334.461 373.544 336.193 370.142C338.107 366.382 340.846 364.897 344.689 363.6Z"/>
	<path fill="#64B8C3" transform="scale(0.5 0.5)" d="M547.67 358.565L618.224 358.448L650.659 358.55C657.139 358.58 666.769 357.462 672.779 359.778C677.215 361.488 680.268 364.994 682.142 369.312C683.937 373.45 683.953 378.267 682.233 382.438C679.918 388.048 676.019 391.121 670.527 393.36C663.49 393.957 656.283 393.644 649.223 393.62L615.524 393.477L576.412 393.244L552.15 393.365C549.807 393.283 547.468 393.016 545.281 392.135C540.987 390.404 537.283 386.95 535.667 382.559C534.049 378.164 534.68 372.303 536.606 368.105C538.836 363.243 542.721 360.328 547.67 358.565Z"/>
	<path fill="white" transform="scale(0.5 0.5)" d="M689.642 552.095L703.527 552.23C703.757 557.253 704.235 562.478 707.684 566.458C710.634 569.862 714.704 572.18 719.25 572.35L737.476 572.263L774.12 572.269L794.555 572.343C798.516 572.386 802.734 572.774 806.656 572.383C808.768 572.173 811.046 571.233 812.551 569.721C816.046 566.207 814.902 557.865 814.916 553.242C821.89 552.99 830.631 552.159 837.406 553.948C844.255 555.756 849.855 560.076 853.367 566.218C855.553 570.042 856.836 574.511 857.078 578.898C857.603 588.42 857.112 598.24 857.096 607.785L857.073 665.033L857.02 797.051L856.989 834.693C856.975 842.619 858.132 853.145 855.821 860.701L855.56 861.5C854.172 865.848 851.875 868.828 848.84 872.155C845.917 874.88 842.226 877.226 838.321 878.222C834.177 879.279 829.794 879.086 825.551 879.122L806.7 879.222L734.012 879.019L705.992 879.101C701.248 879.163 696.24 879.731 691.532 879.367C687.841 879.082 684.043 877.877 680.881 875.951C674.948 872.336 670.187 866.357 668.676 859.488C667.971 856.281 668.28 852.432 668.246 849.15L668.337 826.12L668.46 772.262L668.411 636.101L668.513 595.471C668.528 588.362 668.193 581.093 668.61 574C668.814 570.53 670.16 566.492 672.033 563.574C676.248 557.007 682.188 553.647 689.642 552.095Z"/>
	<path fill="#CECDCB" transform="scale(0.5 0.5)" d="M691.819 816.277L737.977 816.556L738.002 842.87C738 846.958 738.358 851.454 737.954 855.5C737.818 856.871 737.336 857.609 736.352 858.55C735.902 858.98 735.502 859.173 734.919 859.372C734.631 858.685 734.785 858.824 734.317 858.397L691.819 816.277Z"/>
	<path fill="#C1BDB8" transform="scale(0.5 0.5)" d="M734.919 859.372C730.272 860.018 724.587 859.355 719.836 859.374L701.96 859.446C698.809 859.457 695.407 859.722 692.275 859.41C691.066 859.29 690.202 858.806 689.435 857.846C687.586 855.531 688.134 823.068 688.577 818.5C689.799 816.947 689.798 816.79 691.819 816.277L734.317 858.397C734.785 858.824 734.631 858.685 734.919 859.372Z"/>
	<path fill="#F7524D" transform="scale(0.5 0.5)" d="M734.075 802.436L732.538 802.498L703.516 802.553C699.744 802.564 694.922 803.124 691.25 802.511C690.265 802.346 689.728 801.899 689.08 801.167C688.451 800.455 688.223 799.36 688.134 798.446C687.316 789.98 688.077 780.789 688.079 772.249C688.08 767.451 687.412 761.933 688.02 757.25C688.22 755.709 688.873 755.416 689.989 754.465C691.02 755.348 690.543 754.729 690.928 755.625C692.226 758.651 697.436 762.794 699.802 765.298L724.011 791.227L731.404 798.746C731.953 799.299 733.42 800.435 733.737 801.092C733.938 801.508 733.962 801.988 734.075 802.436Z"/>
	<path fill="#F7524D" transform="scale(0.5 0.5)" d="M735.562 675.065C735.028 675.359 734.929 675.454 734.243 675.595C731.715 676.113 727.981 675.625 725.293 675.624L700 675.557C698.03 675.547 692.927 676.086 691.25 675.466C690.633 675.237 690.116 674.798 689.549 674.464C687.258 671.257 688.08 664.706 688.063 660.806L688.087 633.159C688.118 630.844 688.274 629.543 689.95 627.915C690.583 628.171 690.685 628.172 691.311 628.656C692.37 629.473 693.41 631.115 694.297 632.143L700.41 638.625L722.081 660.626L731.695 670.182C732.902 671.426 734.695 672.934 735.398 674.541L735.562 675.065Z"/>
	<path fill="#FE856D" transform="scale(0.5 0.5)" d="M689.95 627.915C694.41 626.393 701.946 627.317 706.708 627.311L726.332 627.309C730.341 627.315 734.44 627.101 738.417 627.62C738.47 634.689 739.521 670.668 737.085 674.25L735.562 675.065L735.398 674.541C734.695 672.934 732.902 671.426 731.695 670.182L722.081 660.626L700.41 638.625L694.297 632.143C693.41 631.115 692.37 629.473 691.311 628.656C690.685 628.172 690.583 628.171 689.95 627.915Z"/>
	<path fill="#FE856D" transform="scale(0.5 0.5)" d="M689.989 754.465C692.723 752.997 698.097 753.689 701.313 753.686L725.307 753.677C728.6 753.677 733.11 753.058 736.25 753.671C737.031 753.823 737.73 754.065 738.025 754.836C739.019 757.434 738.379 762.893 738.382 765.819L738.291 789.434C738.259 792.597 738.823 797.746 737.348 800.521C736.909 801.345 736.224 801.897 735.47 802.421L734.075 802.436C733.962 801.988 733.938 801.508 733.737 801.092C733.42 800.435 731.953 799.299 731.404 798.746L724.011 791.227L699.802 765.298C697.436 762.794 692.226 758.651 690.928 755.625C690.543 754.729 691.02 755.348 689.989 754.465Z"/>
	<path fill="#008498" transform="scale(0.5 0.5)" d="M690.556 690.417C695.961 689.106 703.584 690.014 709.223 690.009L727.2 690.017C730.665 690.026 734.545 689.648 737.863 690.655C739.148 692.361 738.502 698.842 738.503 701.164L738.485 723.789C738.474 727.36 738.739 731.207 738.414 734.75C738.303 735.952 738.047 736.679 737.167 737.515C736.519 738.087 735.969 738.383 735.096 738.494C730.361 739.095 724.85 738.588 720.039 738.596L691.25 738.468C690.336 737.958 689.622 737.567 688.97 736.716C688.279 735.813 688.14 734.242 688.081 733.153C687.578 723.925 687.99 714.428 688.005 705.175C688.011 701.453 687.327 696.251 688.241 692.75C688.652 691.173 689.213 691.109 690.556 690.417Z"/>
	<path fill="#008498" transform="scale(0.5 0.5)" d="M755.549 692.25C759.64 691.319 765.05 691.976 769.275 691.99L799.532 692.115C809.636 692.158 820.415 691.329 830.45 692.155C832.99 692.364 833.908 693.328 835.418 695.25C836.187 698.56 835.957 701.986 835.963 705.364L835.945 721.614C835.931 725.461 836.466 730.252 835.676 733.94C835.201 736.158 834.062 737.207 832.25 738.441C828.408 739.196 823.826 738.71 819.897 738.709L796.919 738.783L769.296 738.857C765.253 738.864 760.744 739.272 756.744 738.745C754.58 738.46 753.498 737.54 752.25 735.833C751.467 732.449 751.769 728.769 751.764 725.308L751.784 708.014C751.794 704.747 751.103 699.083 752.106 696.096C752.783 694.078 753.803 693.293 755.549 692.25Z"/>
	<path fill="#64B8C3" transform="scale(0.5 0.5)" d="M763.22 703.75C766.08 703.363 769.198 703.576 772.103 703.542L788.881 703.447C801.531 703.42 814.707 702.67 827.296 703.716C827.797 708.12 828.201 714.996 827.15 719.25L825.625 719.62L761.601 719.361C761.24 718.975 761.139 718.914 760.889 718.493C759.557 716.252 759.409 709.02 760.15 706.642C760.633 705.09 761.836 704.366 763.22 703.75Z"/>
	<path fill="#008498" transform="scale(0.5 0.5)" d="M756.118 755.75C758.761 755.123 762.341 755.526 765.089 755.525L784.542 755.526L815.942 755.494C820.615 755.495 825.703 755.1 830.334 755.574C832.654 755.812 834.045 756.712 835.467 758.5C836.289 761.805 835.974 765.466 835.988 768.872L836.008 786.29C836.003 789.747 836.572 794.51 835.817 797.782C835.339 799.854 833.553 801.223 831.828 802.25C829.655 802.884 826.55 802.516 824.269 802.516L809.093 802.519L755.5 802.465C754.184 801.698 753.279 800.882 752.573 799.5C751.353 797.113 751.298 761.262 752.48 758.5C753.119 757.007 754.727 756.334 756.118 755.75Z"/>
	<path fill="#64B8C3" transform="scale(0.5 0.5)" d="M763.017 767.25C768.996 766.183 776.575 766.993 782.742 766.992L826.984 767.049L826.985 778.246C826.982 779.773 827.165 781.314 826.567 782.75L825.125 783.075L762.75 782.897C762.12 782.4 761.513 781.883 761.013 781.25C759.431 779.249 759.763 774.452 760.076 772.007C760.361 769.771 761.262 768.541 763.017 767.25Z"/>
	<path fill="#008498" transform="scale(0.5 0.5)" d="M756.735 628.163L830.376 628.459C832.726 628.533 833.674 629.333 835.25 631.005C836.498 634.366 836.014 638.746 836.013 642.345L836.038 661.146C836.045 663.898 836.688 669.756 835.574 672.072C834.655 673.983 833.189 674.912 831.25 675.548L775.07 675.641L761.975 675.635C760.078 675.641 757.36 675.952 755.553 675.322C754.377 674.913 753.215 673.472 752.645 672.42C751.332 669.998 751.982 664.735 751.974 661.868L751.976 641.981C751.988 638.464 751.593 634.387 752.461 631C753.772 629.441 754.861 628.918 756.735 628.163Z"/>
	<path fill="#64B8C3" transform="scale(0.5 0.5)" d="M762.591 640.25C768.926 639.203 776.249 639.962 782.743 639.959L827.086 639.966C827.186 644.061 827.877 649.919 826.755 653.811C826.354 655.205 825.931 655.294 824.75 655.953L776.835 656.034L766.219 655.971C765.694 655.961 763.946 656.11 763.5 655.909C763.118 655.736 762.072 654.975 761.75 654.608C760.072 652.697 760.001 648.971 760.157 646.575C760.334 643.865 760.537 642.107 762.591 640.25Z"/>
	<path fill="#64B8C3" transform="scale(0.5 0.5)" d="M79.2268 674.105C75.744 666.68 73.5685 658.144 71.176 650.307C63.9436 626.616 58.9439 602.386 55.4281 577.878C51.2725 548.911 49.3113 519.557 50.8177 490.295C53.8708 430.987 67.7085 371.109 92.7364 317.15C108.931 282.236 129.994 249.276 154.144 219.357C164.53 206.489 175.386 194.478 187.016 182.722C191.641 178.047 196.21 173.124 201.114 168.751C269.196 108.041 357.18 67.0117 447.541 54.3755C479.305 49.9336 511.179 49.2372 543.151 51.0839C622.787 55.6836 701.117 81.3844 769.002 123.149L794.692 140.547C797.688 142.738 800.95 144.435 803.446 147.236C804.174 146.342 804.988 145.995 805.993 145.474C807.912 144.727 808.921 144.623 810.859 145.537C813.842 146.943 816.628 149.71 818.597 152.306L817.75 157.422L817.211 157.25L816.992 156.266C816.143 152.713 813.635 150.203 810.537 148.378C809.278 147.637 807.882 147.02 806.502 146.545L805.964 146.936C803.204 148.994 801.2 151.498 799.043 154.151C798.535 154.775 797.35 156.646 796.75 157.011C796.394 157.228 795.917 157.011 795.5 157.011L792.832 155.502C789.489 153.341 785.518 152.096 781.982 150.217C781.501 146.349 784.227 142.237 782.899 138.323C782.289 136.527 780.402 134.942 778.75 134.115C776.827 133.153 773.365 133.092 771.413 133.92C769.331 134.804 768.053 136.415 767.275 138.477L765.406 143.118C764.638 143.566 764.023 143.127 763.209 142.903C758.483 141.601 753.996 141.376 749.137 141.109C748.972 137.676 748.16 132.495 746.562 129.478C745.722 127.891 744.442 126.359 742.655 125.853C740.364 125.203 737.787 125.899 735.75 127.004C733.376 128.292 732.888 130.118 732.128 132.554L731.458 132.434L731.057 133.264L726.602 140.5L727.379 141.333L713.296 144.244C709.674 140.631 708.047 131.518 701.75 131.572C698.463 131.601 694.854 133.327 692.709 135.809C691.433 137.285 690.91 138.785 691.023 140.746C692.126 144.776 693.787 148.386 695.484 152.19C690.795 154.724 686.997 157.744 682.725 160.852L678.933 158.051C675.855 155.968 671.892 152.683 667.942 153.42C665.185 153.934 662.094 157.04 660.748 159.383C659.785 161.06 659.82 162.726 660.142 164.578L660.511 165.22C662.585 168.757 665.666 171.47 668.704 174.173L659.087 187.95C656.224 187.237 653.689 186.289 650.995 185.099C648.136 184.49 645.287 184.163 642.726 185.895C639.843 187.845 639.161 191.218 638.696 194.434L638.556 195.496L638.779 195.927C641.359 200.779 646.766 202.774 651.433 205.198C650.116 209.053 648.722 212.921 647.679 216.86C647.015 219.371 646.766 222.338 645.568 224.64C642.378 228.356 634.293 225.41 630.706 229.75C629.164 231.615 630.659 234.447 629.501 236.085C629.844 238.345 630.208 240.339 632.191 241.746C635.761 244.277 641.609 243.443 645.726 244.881C646.461 251.676 647.544 258.366 649.847 264.825L643.054 269.362C640.257 271.856 638.338 273.733 636.977 277.32C638.113 280.347 639.016 283.859 641.881 285.685C646.102 286.576 652.473 284.334 656.591 283.162C659.589 288.93 662.722 294.352 666.864 299.392C664.166 302.019 657.466 308.111 657.404 312.058C658.021 314.476 659.011 315.895 660.503 317.835L529.89 317.907L529.097 317.793C527.323 318.855 525.686 318.308 523.773 317.94L523.444 317.438C520.9 316.668 517.431 317.048 514.772 317.026L492.642 317.102C491.525 318.06 491.211 318.142 489.76 318.446L488.609 317.898C479.073 316.921 468.785 317.682 459.181 317.687L398.765 317.818L344.528 318.036C334.408 318.069 323.483 317.252 313.515 318.856C304.063 320.376 294.825 324.736 287.383 330.707C275.721 340.064 268.263 353.782 266.788 368.635L266.619 547.496L267.037 633.768L276.017 651.82C281.532 662.866 287.025 673.905 282.75 686.423C280.306 693.581 275.615 699.739 268.92 703.36L268.491 703.541C265.708 705.98 260.531 706.558 256.98 707.287C251.62 708.129 246.054 706.367 241.366 703.875L240.839 703.779C235.684 702.684 230.17 703.094 224.911 703.114L219.679 703.084L182.842 703.207C177.867 703.25 172.129 702.753 167.282 703.621C164.415 704.136 161.938 705.687 159.906 707.726C157.708 709.933 156.526 712.271 155.362 715.138C154.526 719.161 154.65 723.151 157.045 726.636C157.98 727.998 159.536 729.462 161.012 730.221L165.206 733.34C161.788 733.37 158.745 733.491 156.132 736.047C154.653 737.494 153.999 739.168 154.039 741.231C154.093 743.964 155.28 745.776 157.25 747.572C158.739 748.93 160.494 749.359 162.503 749.346C163.325 749.341 163.353 749.309 164.04 749.17L163.846 751.548C161.122 753.061 157.511 753.4 154.564 754.569C145.303 758.242 137.396 764.085 130.38 771.05C109.355 741.879 91.1206 708.129 79.2268 674.105Z"/>
	<path fill="#DE362F" transform="scale(0.5 0.5)" d="M141.853 359.923L142.086 357.5C143.676 355.587 153.369 354.116 156.25 353.641L157.034 354.988C154.282 357.915 145.893 359.35 141.853 359.923Z"/>
	<path fill="#F13836" transform="scale(0.5 0.5)" d="M157.034 354.988L158.543 357.921C157.419 358.581 156.745 358.784 155.502 359.062L151.295 360.262C148.227 361.148 145.855 364.043 142.625 363.98C142.497 362.506 142.307 361.329 141.853 359.923C145.893 359.35 154.282 357.915 157.034 354.988Z"/>
	<path fill="#DE362F" transform="scale(0.5 0.5)" d="M211.031 445.924C211.943 447.272 212.591 447.849 212.646 449.5C210.739 452.566 205.961 459.371 202.5 460.194L201.078 459.361C202.783 454.759 208.207 450.062 211.031 445.924Z"/>
	<path fill="#DE362F" transform="scale(0.5 0.5)" d="M115.388 384.469L112.348 380.324C114.801 377.315 118.937 371.163 122.5 369.916L124.583 370.959C122.397 374.572 117.378 377.62 116.574 381.75L116.157 383.645L115.388 384.469Z"/>
	<path fill="#DE362F" transform="scale(0.5 0.5)" d="M176.607 360.115C177.459 358.601 178.258 356.917 179.403 355.611C182.858 356.824 190.439 358.884 192.422 362L192.048 364.589C188.943 362.335 180.341 360.133 176.607 360.115Z"/>
	<path fill="#DE362F" transform="scale(0.5 0.5)" d="M105.842 417.225L100.497 415.489C100.824 412.231 100.74 403.983 102.567 401.63L106.598 401.301L106.75 402.389L105.201 403.75C104.951 407.861 104.256 413.384 105.842 417.225Z"/>
	<path fill="#DE362F" transform="scale(0.5 0.5)" d="M220.412 411.139L223.761 411.75C224.998 414.158 223.536 423.552 222.75 426.588C222.194 426.77 221.617 427.002 221.045 427.116L218.701 426.75C219.739 422.404 220.142 417.221 219.746 412.77C219.675 411.966 219.983 411.8 220.412 411.139Z"/>
	<path fill="#DE362F" transform="scale(0.5 0.5)" d="M166.075 472.748C168.68 472.851 171.03 473.011 173.525 472.08L174.25 471.797C177.308 470.692 179.387 469.286 181.358 466.642C181.815 466.03 182.159 466.129 182.884 465.961L183.324 472.557C178.422 474.186 173.814 475.481 168.707 476.25C167.224 475.491 166.868 474.186 166.075 472.748Z"/>
	<path fill="#DE362F" transform="scale(0.5 0.5)" d="M130.462 464.889C132.037 465.943 133.689 466.296 135.362 467.132C139.232 469.066 142.777 471.147 147.221 471.253C146.374 472.78 145.274 474.158 144.234 475.558C141.09 474.16 131.29 470.639 129.589 468L130.462 464.889Z"/>
	<path fill="#DE362F" transform="scale(0.5 0.5)" d="M108.836 435.022C108.96 437.497 108.944 440.212 109.87 442.55C110.863 445.057 112.51 447.117 113.255 449.75L115.093 451.408C113.726 452.007 112.79 452.479 111.25 452.277C107.808 447.928 105.969 443.206 104.014 438.05C105.423 436.776 107.18 435.936 108.836 435.022Z"/>
	<path fill="#DE362F" transform="scale(0.5 0.5)" d="M205.546 378.372L210.343 375.459C212.527 378.335 217.158 384.189 217.732 387.75C216.832 389.112 215.885 389.926 214.599 390.921C212.482 387.566 210.783 383.025 207.886 380.362L205.546 378.372Z"/>
	<path fill="#008498" transform="scale(0.5 0.5)" d="M655.688 311.562C656.451 311.638 656.717 311.667 657.404 312.058C658.021 314.476 659.011 315.895 660.503 317.835L529.89 317.907C532.688 317.118 536.605 317.512 539.532 317.507L558.511 317.48L631.611 317.431L646.018 317.491C647.733 317.501 650.419 317.867 652.007 317.491C653.29 317.186 655.045 312.81 655.688 311.562Z"/>
	<path fill="white" transform="scale(0.5 0.5)" d="M199.166 202.756L201.86 209.718C203.821 213.519 209.664 214.588 213.405 215.675C212.206 217.081 208.563 217.907 206.843 219.053C202.524 221.933 201.637 226.133 200.719 230.901C196.512 223.614 193.068 219.992 185.422 216.19L190.75 213.923C195.349 211.686 197.408 208.128 198.941 203.456L199.166 202.756Z"/>
	<path fill="white" transform="scale(0.5 0.5)" d="M437.505 89.6109L439.356 94.8787C442.188 100.962 447.1 102.417 452.9 104.512C450.863 105.023 448.849 105.532 446.933 106.414C441.607 108.866 440.001 113.652 438.081 118.75L437.408 118.969C436.88 116.92 436.255 115.037 435.229 113.176C432.272 107.806 428.122 106.014 422.536 104.432L429.079 101.883C434.308 99.4463 435.657 94.6125 437.505 89.6109Z"/>
	<path fill="white" transform="scale(0.5 0.5)" d="M487.241 245.689L489.73 252.092C492.179 257.164 497.751 258.956 502.707 260.766C499.541 262.274 495.022 263.865 492.46 266.284C489.859 268.74 488.186 274.341 486.984 277.709C484.847 272.126 483.309 267.024 477.521 264.368C475.264 263.332 472.7 262.546 470.598 261.239C473.8 259.824 478.725 258.303 481.342 256.015C483.839 253.832 485.817 248.738 487.241 245.689Z"/>
	<path fill="#01284A" transform="scale(0.5 0.5)" d="M538.526 267.417L565.232 241.25L566.525 241.393L567.557 242.087C571.37 244.305 574.774 248.447 577.909 251.593C579.698 253.389 581.686 255.018 582.72 257.372C582.771 260.435 580.941 262.036 578.951 264.096L529.097 317.793C527.323 318.855 525.686 318.308 523.773 317.94L523.444 317.438C524.663 316.96 525.832 316.239 526.804 315.354C532.626 310.058 537.78 303.226 543.093 297.333L572.733 264.888L558.312 251.41L557.709 250.74L541.42 267.766L520.034 289.5L498.738 310.75C496.871 312.636 493.843 314.832 492.642 317.102C491.525 318.06 491.211 318.142 489.76 318.446L488.609 317.898L538.526 267.417Z"/>
	<path fill="white" transform="scale(0.5 0.5)" d="M563.413 245.423C566.274 247.155 568.449 249.868 570.748 252.263L579.836 260.96C578.869 261.959 578.401 262.83 577 263.097C571.483 259.112 567.299 253.026 561.941 248.656C561.027 247.91 561.286 248.403 561.15 247.25L563.413 245.423Z"/>
	<path fill="#DE362F" transform="scale(0.5 0.5)" d="M566.525 241.393L567.557 242.087L576.437 251.571C578.334 253.494 580.688 255.312 581.911 257.75C581.475 259.217 581.213 260.064 579.836 260.96L570.748 252.263C568.449 249.868 566.274 247.155 563.413 245.423L563.546 244.821C564.061 243.015 564.919 242.268 566.525 241.393Z"/>
	<path fill="white" transform="scale(0.5 0.5)" d="M591.715 100.608C593.806 100.506 596.126 100.233 598.166 100.778L598.75 100.95C599.779 101.246 600.782 101.55 601.75 102.017C605.774 103.96 608.847 107.096 610.409 111.298L610.649 111.972L611.1 113.25C612.356 117.585 611.119 122.638 608.861 126.407C606.108 131.003 602.162 133.047 597.207 134.36C593.717 134.599 590.539 134.234 587.347 132.716C583.181 130.735 579.937 126.78 578.443 122.455C576.934 118.085 577.453 114.602 579.492 110.5C582.091 105.271 586.334 102.45 591.715 100.608Z"/>
	<path fill="white" transform="scale(0.5 0.5)" d="M123.118 508.148C126.05 508.156 128.553 508.45 131.249 509.68C136.204 511.94 139.716 516.051 141.426 521.185C142.969 525.821 142.545 529.368 140.166 533.688C137.336 538.825 132.564 541.568 127.134 543.19C123.099 543.649 119.459 543.222 115.913 541.139C111.397 538.485 108.709 534.373 107.488 529.315C106.31 524.438 107.304 519.623 110.1 515.51C113.25 510.874 117.829 509.117 123.118 508.148Z"/>
	<path fill="#F97642" transform="scale(0.5 0.5)" d="M176.058 259.592C180.49 259.07 184.663 259.237 188.75 261.204C193.423 263.452 196.917 267.157 198.621 272.079C200.289 276.9 199.669 282.941 197.316 287.423C194.502 292.78 190.032 295.738 184.339 297.408C181.175 297.978 178.032 297.956 174.938 297.005C170.053 295.503 165.881 291.534 163.699 286.963C161.512 282.383 161.101 277.179 162.874 272.374C165.221 266.01 170.064 262.233 176.058 259.592Z"/>
	<path fill="white" transform="scale(0.5 0.5)" d="M179.801 267.09C181.592 267.05 183.472 267.277 185.133 267.97C187.984 269.159 190.313 271.722 191.467 274.571C192.756 277.753 192.605 280.935 191.154 284.038C189.468 287.643 186.594 289.318 183.005 290.663C180.516 290.622 178.655 290.564 176.359 289.501C173.322 288.095 170.769 285.297 169.78 282.065C168.944 279.331 169.356 275.856 170.752 273.393C172.798 269.784 175.906 268.091 179.801 267.09Z"/>
	<path fill="#008498" transform="scale(0.5 0.5)" d="M541.42 267.766L557.709 250.74L558.312 251.41L572.733 264.888L543.093 297.333C537.78 303.226 532.626 310.058 526.804 315.354C525.832 316.239 524.663 316.96 523.444 317.438C520.9 316.668 517.431 317.048 514.772 317.026L492.642 317.102C493.843 314.832 496.871 312.636 498.738 310.75L520.034 289.5L541.42 267.766Z"/>
	<path fill="white" transform="scale(0.5 0.5)" d="M457.862 194.638C457.153 188.87 458.608 182.814 462.25 178.168C466.027 173.351 471.372 170.359 477.472 169.728L483.692 169.651C485.447 157.925 490.363 148.41 500.011 141.2C508.733 134.683 519.754 131.09 530.696 132.669C541.99 134.299 552.42 141.075 559.106 150.201C561.924 154.048 563.502 158.741 564.887 163.261C570.385 161.586 575.384 160.629 581.055 162.333L581.936 162.59C589.17 164.795 594.858 169.772 598.361 176.416C601.428 182.232 602.309 188.654 600.354 194.986L599.438 197.389C596.699 203.316 591.753 208.583 585.499 210.737C581.42 212.142 576.975 211.977 572.72 211.986L558.138 212.01L519.949 212.032C505.596 212.033 490.763 212.853 476.476 211.905C473.85 211.731 471.451 210.901 469.13 209.698C462.934 206.487 460.015 200.994 457.862 194.638Z"/>
	<path fill="#F7524D" transform="scale(0.5 0.5)" d="M158.543 357.921C159.036 361.005 160.961 364.987 163.494 366.869C164.891 367.906 166.47 368.223 168.17 367.88C171.388 367.231 173.912 364.735 175.539 362.018L176.607 360.115C180.341 360.133 188.943 362.335 192.048 364.589C190.904 367.656 189.562 372.78 190.974 375.82C191.813 377.626 193.534 379.828 195.555 380.335C199.004 381.2 202.506 379.885 205.546 378.372L207.886 380.362C210.783 383.025 212.482 387.566 214.599 390.921C211.829 393.264 208.417 395.813 208.103 399.73C207.87 402.627 208.892 406.045 210.861 408.213C212.999 410.566 217.43 410.74 220.412 411.139C219.983 411.8 219.675 411.966 219.746 412.77C220.142 417.221 219.739 422.404 218.701 426.75L221.045 427.116L220.631 427.179C214.914 427.97 210.771 426.084 206.821 431.475C205.465 433.325 204.294 435.916 204.826 438.25C205.503 441.222 208.786 443.99 211.031 445.924C208.207 450.062 202.783 454.759 201.078 459.361C198.245 457.509 193.444 453.814 189.886 454.66C187.367 455.259 184.706 458.092 183.576 460.339C182.763 461.958 182.75 464.187 182.884 465.961C182.159 466.129 181.815 466.03 181.358 466.642C179.387 469.286 177.308 470.692 174.25 471.797L173.525 472.08C171.03 473.011 168.68 472.851 166.075 472.748C164.653 469.985 163.164 466.583 160.408 464.921C158.799 463.95 156.21 463.602 154.403 464.137C150.688 465.238 149.054 468.144 147.221 471.253C142.777 471.147 139.232 469.066 135.362 467.132C133.689 466.296 132.037 465.943 130.462 464.889C131.237 462.094 131.745 459.454 131.899 456.552C130.67 453.925 129.101 450.644 126.181 449.558C122.342 448.129 118.623 450.001 115.093 451.408L113.255 449.75C112.51 447.117 110.863 445.057 109.87 442.55C108.944 440.212 108.96 437.497 108.836 435.022C111.23 433.674 113.52 431.925 114.483 429.25C115.222 427.199 115.029 425.046 114.067 423.1C112.33 419.588 109.404 418.319 105.842 417.225C104.256 413.384 104.951 407.861 105.201 403.75L106.75 402.389L106.598 401.301C108.995 401.1 111.681 401.025 113.975 400.264C116.851 399.309 118.113 397.31 119.469 394.75C119.838 392.275 118.75 390.486 117.74 388.303L115.388 384.469L116.157 383.645L116.574 381.75C117.378 377.62 122.397 374.572 124.583 370.959C125.956 371.975 127.256 372.971 128.8 373.713L129.234 373.886C130.84 374.54 132.544 375.356 134.294 375.473C136.302 375.607 138.102 374.966 139.576 373.58C142.523 370.808 142.546 367.73 142.625 363.98C145.855 364.043 148.227 361.148 151.295 360.262L155.502 359.062C156.745 358.784 157.419 358.581 158.543 357.921Z"/>
	<path fill="#DE362F" transform="scale(0.5 0.5)" d="M159.765 374.675C167.968 373.588 177.609 376.799 184.234 381.509C193.503 388.099 200.079 398.437 201.704 409.743C203.113 419.548 200.013 430.825 194.15 438.731C187.136 448.187 175.861 453.338 164.496 454.929C155.13 455.102 145.919 453.264 138.281 447.481C129.5 440.833 123.355 430.199 121.927 419.284C120.636 409.41 123.853 399.073 129.949 391.28C137.483 381.652 147.677 376.125 159.765 374.675Z"/>
	<path fill="#FE856D" transform="scale(0.5 0.5)" d="M158.348 378.17C166.973 377.747 175.404 379.187 182.68 384.203C190.39 389.518 196.265 398.402 198.081 407.584C199.906 416.813 197.6 427.614 192.271 435.305C185.891 444.514 176.445 449.389 165.643 451.388C161.875 451.736 157.624 451.788 153.928 450.913C143.776 448.508 135.703 442.593 130.378 433.552C126.001 426.121 123.966 415.883 126.215 407.454L126.476 406.5C127.809 401.513 129.943 396.874 133.07 392.75C139.285 384.553 148.22 379.527 158.348 378.17Z"/>
	<path fill="white" transform="scale(0.5 0.5)" d="M158.512 391.588C163.033 391.424 166.743 391.588 170.902 393.579C176.939 396.467 182.039 401.929 184.008 408.395C185.76 414.147 184.717 419.719 181.973 425C178.585 431.522 172.948 434.978 166.139 437.071C160.585 438.158 155.677 437.33 150.701 434.706C145.651 432.043 141.634 427.313 140.002 421.833C138.198 415.778 138.398 408.82 141.65 403.26C145.428 396.799 151.494 393.441 158.512 391.588Z"/>
	<path fill="#008498" transform="scale(0.5 0.5)" d="M179.558 498.44C181.16 497.946 182.15 498.076 183.75 498.333L184.374 498.428C189.576 499.315 194.918 501.998 199.728 504.115C217.478 511.926 234.245 522.1 249.665 533.831L266.619 547.496L267.037 633.768L276.017 651.82C281.532 662.866 287.025 673.905 282.75 686.423C280.306 693.581 275.615 699.739 268.92 703.36L268.491 703.541C265.708 705.98 260.531 706.558 256.98 707.287C251.62 708.129 246.054 706.367 241.366 703.875L240.839 703.779C235.684 702.684 230.17 703.094 224.911 703.114L219.679 703.084L182.842 703.207C177.867 703.25 172.129 702.753 167.282 703.621C164.415 704.136 161.938 705.687 159.906 707.726C157.708 709.933 156.526 712.271 155.362 715.138C153.005 712.594 151.187 709.275 149.421 706.298C138.462 686.223 129.665 666.42 122.824 644.583C119.919 635.309 117.044 625.588 115.453 615.983C114.95 612.941 114.621 610.44 116.473 607.804L118.072 606.536C121.501 604.455 127.788 606.638 131.524 607.557L159.516 615.379L180.032 623.308L189.925 627.973C191.244 628.577 192.852 629.569 194.307 629.549L186.424 604.625C179.411 579.641 175.146 554.158 174.838 528.188L175.431 509.265C175.663 505.791 175.667 501.635 178.237 499.006L179.558 498.44Z"/>
	<path fill="#003F55" transform="scale(0.5 0.5)" d="M179.558 498.44C180.008 498.636 180.502 498.752 180.906 499.028C181.601 499.502 182.584 501.365 183.023 502.086L187.609 509.579L219.484 562.088C229.764 579.023 240.852 596.293 249.337 614.197L247.747 617.618C244.92 615.103 242.874 609.349 240.98 605.994L225.601 579.144L194.177 526.135L184.108 509.677C182.017 506.222 179.737 502.766 178.237 499.006L179.558 498.44Z"/>
	<path fill="#003F55" transform="scale(0.5 0.5)" d="M118.072 606.536C120.337 607.908 122.139 610.453 124.14 612.221L140.453 626.49L224.911 703.114L219.679 703.084C213.629 696.748 207.033 691.035 200.643 685.046L151.739 640.585L131.598 622.568C126.886 618.417 119.308 613.355 116.473 607.804L118.072 606.536Z"/>
	<path fill="white" transform="scale(0.5 0.5)" d="M249.337 614.197L252.883 605.993C257.311 615.121 261.552 625.249 267.037 633.768L276.017 651.82C281.532 662.866 287.025 673.905 282.75 686.423C280.306 693.581 275.615 699.739 268.92 703.36L268.491 703.541L259 704.227C258.186 705.2 258.612 704.786 257.75 705.5L257.597 704C256.276 703.246 254.967 703.541 253.46 703.555L241.892 703.344L240.5 702.953C233.709 700.43 228.294 693.385 225.718 686.847C221.169 675.302 225.455 664.688 230.085 654.032L247.747 617.618L249.337 614.197Z"/>
	<path fill="#01284A" transform="scale(0.5 0.5)" d="M253.08 680.75C254.34 680.325 255.943 680.282 257.25 680.523C259.062 680.858 260.931 682.354 261.739 683.985C262.44 685.398 262.179 688.308 261.582 689.738C260.828 691.545 259.468 692.326 257.75 693.046C256.745 693.332 255.792 693.476 254.75 693.31C252.991 693.03 251.084 691.77 250.128 690.273C249.198 688.817 248.832 686.927 249.23 685.247C249.759 683.01 251.174 681.849 253.08 680.75Z"/>
	<path fill="#008498" transform="scale(0.5 0.5)" d="M116.473 607.804C119.308 613.355 126.886 618.417 131.598 622.568L151.739 640.585L200.643 685.046C207.033 691.035 213.629 696.748 219.679 703.084L182.842 703.207C177.867 703.25 172.129 702.753 167.282 703.621C164.415 704.136 161.938 705.687 159.906 707.726C157.708 709.933 156.526 712.271 155.362 715.138C153.005 712.594 151.187 709.275 149.421 706.298C138.462 686.223 129.665 666.42 122.824 644.583C119.919 635.309 117.044 625.588 115.453 615.983C114.95 612.941 114.621 610.44 116.473 607.804Z"/>
	<path fill="#008498" transform="scale(0.5 0.5)" d="M179.558 498.44C181.16 497.946 182.15 498.076 183.75 498.333L184.374 498.428C189.576 499.315 194.918 501.998 199.728 504.115C217.478 511.926 234.245 522.1 249.665 533.831L266.619 547.496L267.037 633.768C261.552 625.249 257.311 615.121 252.883 605.993L249.337 614.197C240.852 596.293 229.764 579.023 219.484 562.088L187.609 509.579L183.023 502.086C182.584 501.365 181.601 499.502 180.906 499.028C180.502 498.752 180.008 498.636 179.558 498.44Z"/>
	<path fill="#DE362F" transform="scale(0.5 0.5)" d="M237.496 161.03C238.603 155.097 240.542 150.161 245.715 146.54C246.923 145.694 248.145 145.093 249.5 144.53L250.174 144.244C251.499 143.736 252.764 143.604 254.168 143.561L288.124 143.523L354.844 143.504L396.568 143.479C403.053 143.479 410.009 142.979 416.451 143.543C418.472 143.719 420.645 144.509 422.458 145.368C427.257 147.644 430.469 151.651 432.247 156.612C432.875 158.364 433.052 160.141 433.125 161.984L433.14 226.528L433.269 251.353C433.32 255.781 433.705 260.522 433.326 264.925C433.161 266.846 432.414 269.06 431.497 270.75C430.061 273.399 427.097 275.877 424.626 277.579L423.862 277.855C421.929 278.6 420.349 279.021 418.264 279.087L380.768 279.067L312.45 279.039L270.331 279.069C263.791 279.074 256.545 279.645 250.068 278.92C246.844 278.559 244.193 277.27 241.872 274.98C239.659 272.797 238.146 270.014 237.697 266.927C237.127 262.997 237.425 258.734 237.424 254.766L237.431 234.072L237.496 161.03Z"/>
	<path fill="#FE856D" transform="scale(0.5 0.5)" d="M253.251 146.546L284.272 146.374L343.558 146.301L391 146.339C399.189 146.353 407.589 145.989 415.75 146.496C418.057 146.64 420.643 147.664 422.535 148.966C426.048 151.384 428.775 155.876 429.472 160.042C430.352 165.301 429.909 171.25 429.932 176.573L429.966 208.485L429.922 245.689C429.906 252.087 430.291 258.802 429.636 265.164C429.418 267.288 428.646 269.122 427.34 270.813C424.96 273.895 422.133 274.865 418.424 275.455L247.588 274.921C244.817 273.137 242.81 271.391 241.581 268.25C240.326 265.041 240.496 261.451 240.49 258.073L240.47 244.226L240.45 206.233L240.458 176.99C240.461 171.568 240.21 166.004 240.583 160.602C240.695 158.972 241.153 157.709 241.827 156.245C244.237 151.018 248.025 148.471 253.251 146.546Z"/>
	<path fill="white" transform="scale(0.5 0.5)" d="M276.532 229.619C278.906 229.3 281.589 229.085 283.9 229.843C287.092 230.89 289.491 233.297 290.987 236.25C292.564 239.362 292.348 243.195 291.108 246.38C289.666 250.088 286.797 252.066 283.269 253.57C281.285 253.884 279.489 253.957 277.506 253.538C274.111 252.821 271.3 250.517 269.592 247.545C267.931 244.655 267.435 241.163 268.409 237.953C269.727 233.605 272.763 231.613 276.532 229.619Z"/>
	<path fill="white" transform="scale(0.5 0.5)" d="M320.292 229.157C322.447 229.287 324.647 229.317 326.584 230.383C329.957 232.238 332.045 235.053 332.961 238.766C333.783 242.095 333.07 245.708 331.2 248.597C329.076 251.877 326.155 253.187 322.486 254.009C319.565 254.004 316.46 253.463 314.019 251.75C311.433 249.935 309.482 246.884 309.017 243.75C308.524 240.431 309.151 236.972 311.159 234.25C313.543 231.017 316.484 229.896 320.292 229.157Z"/>
	<path fill="white" transform="scale(0.5 0.5)" d="M359.092 229.09C361.015 228.964 363.052 228.747 364.951 229.146C368.259 229.842 371.301 232.361 372.979 235.25C374.61 238.059 375.28 241.883 374.244 245.018C372.848 249.241 369.327 251.654 365.479 253.422C363.243 253.65 360.394 253.868 358.26 253.113C355.049 251.977 352.523 249.581 351.093 246.5C349.675 243.446 349.695 239.859 350.881 236.739C352.385 232.78 355.429 230.766 359.092 229.09Z"/>
	<path fill="white" transform="scale(0.5 0.5)" d="M267.183 195.997L337.999 195.947L337.996 202.996L267.226 203.011L267.183 195.997Z"/>
	<path fill="white" transform="scale(0.5 0.5)" d="M266.955 179.198L395.454 179.048L395.399 186.447L266.925 186.029L266.955 179.198Z"/>
	<path fill="white" transform="scale(0.5 0.5)" d="M267.262 163.137L404.278 162.928L404.288 170.051L267.331 169.965L267.262 163.137Z"/>
</svg>
