<?xml version="1.0" encoding="utf-8" ?>
<svg xmlns="http://www.w3.org/2000/svg" xmlns:xlink="http://www.w3.org/1999/xlink" width="512" height="512">
	
	<path fill="white" transform="scale(0.5 0.5)" d="M325.065 180.268L331.51 187.694C331.046 189.182 329.476 190.712 328.505 191.944C325.205 189.77 323.195 187.403 321.067 184.154L325.065 180.268Z"/>
	<path fill="white" transform="scale(0.5 0.5)" d="M373.539 180.7L377.05 184.337C375.372 187.39 373.307 189.707 370.799 192.072C369.095 190.834 367.619 189.232 366.113 187.763L373.539 180.7Z"/>
	<path fill="white" transform="scale(0.5 0.5)" d="M327.924 137.861L332.243 142.621L325.404 149.402L320.76 145.825L327.924 137.861Z"/>
	<path fill="white" transform="scale(0.5 0.5)" d="M370.072 138.75L371.027 138.523C373.824 139.631 376.008 143.122 377.435 145.633C376.669 146.965 375.335 147.795 374.146 148.75L373.025 149.003C370.701 147.647 368.315 143.646 366.613 141.453L370.072 138.75Z"/>
	<path fill="white" transform="scale(0.5 0.5)" d="M314.737 159.027L321.133 159.044L321.098 169.698L315.027 169.491L314.737 159.027Z"/>
	<path fill="white" transform="scale(0.5 0.5)" d="M376.059 158.513L382.453 158.388C382.466 161.21 383.144 166.878 381.75 169.199C379.98 169.353 378.18 169.702 376.502 168.981C375.432 166.694 376.072 161.193 376.059 158.513Z"/>
	<path fill="white" transform="scale(0.5 0.5)" d="M343.732 132.159L355.475 131.974L355.427 138.145C353.586 138.131 344.577 138.582 343.716 137.727L343.732 132.159Z"/>
	<path fill="white" transform="scale(0.5 0.5)" d="M350.856 191.253C352.398 191.232 354.036 191.001 355.434 191.75L355.501 197.712L349.774 197.829L343.523 197.819L343.606 191.261L350.856 191.253Z"/>
	<path fill="white" transform="scale(0.5 0.5)" d="M637.072 153.974C635.902 153.048 634.564 152.114 633.657 150.919C632.344 149.19 632.012 146.953 632.277 144.844C632.545 142.714 633.52 140.976 635.246 139.684C636.874 138.466 639.072 137.772 641.095 138.131C643.531 138.564 645.354 139.758 646.75 141.794C648.465 144.295 648.046 146.672 647.48 149.485C646.343 151.489 645.255 153.195 642.93 153.888C641.071 154.441 638.961 154.285 637.072 153.974Z"/>
	<path fill="white" transform="scale(0.5 0.5)" d="M302.232 284.04C303.94 283.959 305.397 284.104 307.013 284.712C309.669 285.712 311.905 287.912 312.993 290.537C313.897 292.717 313.773 295.458 312.823 297.602C311.201 301.259 308.952 302.625 305.307 303.989C303.768 304.039 302.412 303.986 300.923 303.54C298.384 302.778 296.168 300.662 295.061 298.277C293.967 295.922 293.902 292.792 294.822 290.364C296.075 287.054 299.215 285.406 302.232 284.04Z"/>
	<path fill="#C7C9C6" transform="scale(0.5 0.5)" d="M448.973 343.396L474.483 343.506C474.464 347.29 475.062 352.318 473.996 355.911L448.938 356.45L448.973 343.396Z"/>
	<path fill="white" transform="scale(0.5 0.5)" d="M824.385 454.237C822.551 453.711 820.476 453.228 818.878 452.156C816.315 450.437 814.474 447.59 813.914 444.56C813.382 441.687 814.074 438.591 815.786 436.229C817.76 433.505 820.901 431.911 824.214 431.596C827.085 431.322 829.813 432.567 831.892 434.484C834.532 436.919 835.474 439.918 835.686 443.412C834.868 447.359 833.599 450.115 830.169 452.457C828.465 453.621 826.375 453.893 824.385 454.237Z"/>
	<path fill="#FEB939" transform="scale(0.5 0.5)" d="M361.118 147.557C365.974 151.322 369.175 155.942 370.043 162.187C370.735 167.163 369.293 172.634 366.274 176.67C362.988 181.062 357.803 184.002 352.368 184.621C346.697 185.267 341.004 184.163 336.45 180.565C335.094 179.493 333.958 178.247 332.833 176.942C335.573 177.191 338.555 178.01 341.285 177.893C346.606 177.665 351.533 175.621 355.118 171.593C361.364 164.575 361.685 156.373 361.118 147.557Z"/>
	<path fill="white" transform="scale(0.5 0.5)" d="M749.424 440.393C751.533 441.086 752.905 441.704 755.06 440.934C759.017 440.883 764.905 440.033 768.574 441.36C770.855 443.728 770.658 445.04 770.61 448.266C770.577 450.561 770.949 452.619 769.5 454.441C766.504 455.136 763.395 454.952 760.335 454.948C760.271 458.522 761.123 465.984 758.47 468.533C757.548 469.42 756.236 470.082 755.073 470.603L754.389 470.585C751.061 470.484 748.378 471.081 745.511 468.938C743.13 466.17 744.018 459.539 744.04 456.004C741.994 456.04 738.262 456.57 736.5 455.467C734.691 454.334 733.753 451.245 733.548 449.25C733.317 446.996 733.597 444.354 735.225 442.623C737.92 439.758 745.592 440.542 749.424 440.393Z"/>
	<path fill="#008498" transform="scale(0.5 0.5)" d="M749.001 446.169L753.15 445.702L765.75 446.063C766.66 447.456 766.306 448.642 766.25 450.279C764.518 451.502 758.079 450.883 755.679 450.907C755.63 454.511 757.012 462.532 755.421 465.476C753.629 466.23 751.005 465.862 749.065 465.835L749.018 455.272L748.66 450.908C746.01 451.32 741.396 452.12 738.922 451.1C738.679 450.68 738.56 450.528 738.43 450C738.087 448.605 737.954 447.289 738.75 446.124L749.001 446.169Z"/>
	<path fill="#4D474D" transform="scale(0.5 0.5)" d="M749.001 446.169L753.15 445.702C753.215 447.778 753.732 449.032 754.645 450.883C752.775 450.932 750.85 451.125 749.007 450.788L749.001 446.169Z"/>
	<path fill="white" transform="scale(0.5 0.5)" d="M383.032 356.011L382.937 343.513L448.973 343.396L448.938 356.45L405.22 356.409C398.119 356.396 389.917 357.274 383.032 356.011Z"/>
	<path fill="#FED31A" transform="scale(0.5 0.5)" d="M332.833 176.942C331.048 174.246 329.859 171.448 329.206 168.27C328.099 162.888 329.514 156.671 332.737 152.25C336.338 147.309 341.75 144.588 347.715 143.731C352.523 143.041 357.296 144.747 361.118 147.557C361.685 156.373 361.364 164.575 355.118 171.593C351.533 175.621 346.606 177.665 341.285 177.893C338.555 178.01 335.573 177.191 332.833 176.942Z"/>
	<path fill="#F0EB44" transform="scale(0.5 0.5)" d="M840.84 542.882L858.199 487.652L861.304 477.066C861.579 476.108 861.877 474.045 862.393 473.252C862.634 472.882 863.032 472.644 863.351 472.341L874.35 527.126C873.733 528.785 871.736 529.773 870.39 530.875L864.392 536.198L844.745 555.46C842.156 558.026 838.395 562.828 835.106 564.238L834.768 564.338L840.84 542.882Z"/>
	<path fill="#004E6A" transform="scale(0.5 0.5)" d="M461.321 378.587L473.08 378.534C474.457 378.531 476.201 378.239 477.417 378.974L477.503 425.19L477.63 493.394L477.468 516.573C477.445 521.54 477.182 526.52 478.072 531.418L478.129 531.838L474.976 532.075L474.795 532.647C474.526 533.689 474.556 534.685 474.564 535.75C472.279 536.615 463.816 534.728 461.229 533.951C461.737 530.051 461.35 525.689 461.348 521.742L461.376 498.068L461.297 421.494C461.219 407.342 460.302 392.69 461.321 378.587Z"/>
	<path fill="#A5DE28" transform="scale(0.5 0.5)" d="M151.611 439.554C154.221 444.551 155.606 450.724 157.321 456.105C157.806 457.627 158.235 460.09 159.035 461.42C168.715 471.131 175.396 482.528 183.785 493.183L174.754 516.22L174.062 516.081L173.483 517.802L173.868 518.913L173.338 519.53C169.792 521.633 165.324 526.247 161.009 525.049C158.206 524.271 155.862 522.005 153.654 520.206L150.609 522.1L150.59 522.185C149.32 522.856 147.515 524.042 146.16 524.345C142.779 525.102 141.083 521.623 137.194 523.976L127.349 526.742L125.832 524.119L126.637 522.894L147.504 455.414L150.544 444.669C150.574 442.936 151.176 441.228 151.611 439.554Z"/>
	<path fill="#004E6A" transform="scale(0.5 0.5)" d="M159.035 461.42C168.715 471.131 175.396 482.528 183.785 493.183L174.754 516.22L174.062 516.081L159.035 461.42Z"/>
	<path fill="#F0EB44" transform="scale(0.5 0.5)" d="M150.544 444.669C151.414 448.072 151.136 451.793 151.126 455.288L151.04 471.66L150.988 516.502C152.447 515.769 153.425 514.843 155.041 515.25C157.445 517.61 159.662 520.611 163.25 520.796C165.593 520.17 167.255 518.809 169.148 517.373C169.353 517.217 170.536 516.178 170.75 516.143C170.862 516.124 171.811 516.584 171.888 516.627L173.483 517.802L173.868 518.913L173.338 519.53C169.792 521.633 165.324 526.247 161.009 525.049C158.206 524.271 155.862 522.005 153.654 520.206L150.609 522.1L150.59 522.185C149.32 522.856 147.515 524.042 146.16 524.345C142.779 525.102 141.083 521.623 137.194 523.976L127.349 526.742L125.832 524.119L126.637 522.894L147.504 455.414L150.544 444.669Z"/>
	<path fill="#378818" transform="scale(0.5 0.5)" d="M150.988 516.502C152.447 515.769 153.425 514.843 155.041 515.25C157.445 517.61 159.662 520.611 163.25 520.796C165.593 520.17 167.255 518.809 169.148 517.373C169.353 517.217 170.536 516.178 170.75 516.143C170.862 516.124 171.811 516.584 171.888 516.627L173.483 517.802L173.868 518.913L173.338 519.53C169.792 521.633 165.324 526.247 161.009 525.049C158.206 524.271 155.862 522.005 153.654 520.206L150.609 522.1L150.59 522.185C149.32 522.856 147.515 524.042 146.16 524.345C142.779 525.102 141.083 521.623 137.194 523.976L127.349 526.742L125.832 524.119L126.637 522.894L127.073 523.172C130.129 522.613 136.765 519.247 139.13 517.084L139.87 516.383C141.441 515.222 143.049 519.317 145.356 519.433C147.486 519.54 149.493 517.84 150.988 516.502Z"/>
	<path fill="#66A11F" transform="scale(0.5 0.5)" d="M787.415 454.57L787.648 453.939C787.965 453.109 787.799 453.424 788.25 452.781C788.882 453.565 788.981 454.147 789.23 455.096L792.889 466.634L793.793 469.448L815.206 535.133C816.295 537.57 817.324 539.929 818.069 542.5L818.295 543.248C819.995 549.274 819.49 557.329 819.463 563.595L792.675 563.357C790.288 563.009 787.729 563.104 785.312 563.027L784.858 563.532C782.163 562.641 778.167 563.151 775.319 563.137L755.252 563.067L760.277 536.637L760.619 534.474L770.401 497.532L770.582 496.5L773.071 488.645L785.813 457.624L787.415 454.57Z"/>
	<path fill="#A5DE28" transform="scale(0.5 0.5)" d="M787.415 454.57C789.17 457.57 787.638 471.27 787.527 475.5C787.203 487.844 787.783 500.758 786.451 513.018L770.401 497.532L770.582 496.5L773.071 488.645L785.813 457.624L787.415 454.57Z"/>
	<path fill="#378818" transform="scale(0.5 0.5)" d="M785.312 563.027C786.27 557.832 785.78 551.588 785.823 546.252L786.083 512.521L815.206 535.133C816.295 537.57 817.324 539.929 818.069 542.5L818.295 543.248C819.995 549.274 819.49 557.329 819.463 563.595L792.675 563.357C790.288 563.009 787.729 563.104 785.312 563.027Z"/>
	<path fill="white" transform="scale(0.5 0.5)" d="M243.459 288.944C245.253 288.324 247.643 288.215 249.384 289.091C250.977 289.892 252.195 291.64 253.328 292.979L260.075 300.963L304.064 353.964C307.949 358.65 326.56 379.793 327.274 384.496L273.007 338.466L247.998 371.991C246.157 371.153 244.006 367.839 242.796 366.158L240.6 363.619L220.585 338.133C218.431 339.321 216.217 342.382 214.509 344.199L203.211 355.986L154.829 405.371C155.083 404.448 155.487 403.587 155.982 402.769C159.13 397.565 163.513 392.604 167.152 387.706L189.671 357.16L224.947 310.206C229.719 303.997 234.302 297.022 239.613 291.278C240.775 290.02 241.815 289.377 243.459 288.944Z"/>
	<path fill="white" transform="scale(0.5 0.5)" d="M823.215 357.895L826.371 356.746C835.626 353.15 842.999 353.681 852.067 357.65L852.043 357.776C857.309 360.417 861.749 364.29 865.138 369.106C866.42 371.596 867.628 373.973 868.284 376.714C868.833 379.009 868.749 381.403 869.264 383.696C871.585 380.685 873.665 378.212 876.931 376.154C882.641 373.475 887.924 372.601 894.06 374.818C899.163 376.662 903.143 380.641 905.451 385.5L906.4 388.086L907.25 393.191C908.444 393.288 909.457 392.574 910.538 392.08C912.708 391.406 915.12 391.317 917.376 391.076C922.18 391.686 926.277 392.442 929.365 396.605C931.183 399.056 931.581 401.626 931.762 404.587C930.543 408.378 929.36 410.501 925.74 412.406L802.377 412.55L778.789 412.541L823.215 357.895Z"/>
	<path fill="#FE6B4A" transform="scale(0.5 0.5)" d="M739.664 151.989C747.876 151.938 755.858 152.007 763.995 153.278C784.482 156.478 808.864 166.99 823.676 181.719L824.568 182.64L805.903 201.072C786.934 185.005 766.326 176.803 741.174 178.889C718.705 180.753 699.119 190.625 684.504 207.867C670.472 224.419 664.927 245.319 665.955 266.682L666.743 273.651L666.45 274.895C657.292 275.722 647.77 274.134 638.68 275.181L638.402 271.163C637.887 268.421 638.028 265.548 638.021 262.765C637.996 254.051 639.144 245.769 640.246 237.159C644.616 219.437 652.8 203.171 664.397 189.034C683.265 166.035 710.75 154.902 739.664 151.989Z"/>
	<path fill="#F32C25" transform="scale(0.5 0.5)" d="M638.402 271.163C638.538 269.475 637.9 268.053 639.044 266.715L665.955 266.682L666.743 273.651L666.45 274.895C657.292 275.722 647.77 274.134 638.68 275.181L638.402 271.163Z"/>
	<path fill="#32E7F4" transform="scale(0.5 0.5)" d="M403.461 364.104L441.93 363.981L442.07 531.48C428.437 531.403 416.291 532.143 402.994 535.4L403.461 364.104Z"/>
	<path fill="white" transform="scale(0.5 0.5)" d="M417.187 430.25C417.574 430.146 418.11 429.976 418.507 429.993C419.73 430.047 420.423 430.609 421.221 431.465C423.359 433.759 422.587 440.914 422.502 443.996C422.441 446.215 421.895 446.82 420.383 448.25C419.978 448.388 419.419 448.608 418.994 448.608C417.43 448.608 416.792 447.75 415.75 446.794C414.537 443.315 414.511 436.672 415.054 433C415.285 431.443 415.95 431.089 417.187 430.25Z"/>
	<path fill="white" transform="scale(0.5 0.5)" d="M417.195 394.75C417.622 394.609 417.774 394.524 418.278 394.548C419.607 394.609 421.092 395.548 421.75 396.699C422.879 398.674 422.862 420.289 422.068 423C421.619 424.535 421.032 424.695 419.75 425.539L418.856 425.754C417.226 425.815 416.509 425.04 415.363 424.113C413.819 421.189 414.116 402.996 414.586 398.75C414.804 396.784 415.676 395.89 417.195 394.75Z"/>
	<path fill="white" transform="scale(0.5 0.5)" d="M417.299 453.75C419.292 453.497 419.211 453.476 420.865 454.617C421.795 457 421.433 459.859 421.432 462.387L421.388 476.889L421.24 513.245C421.155 515.127 421.421 515.917 419.957 517.25C418.212 517.368 417.924 517.503 416.365 516.575L416.12 515.424C415.5 510.92 416.014 505.638 416.005 501.065L415.972 468.869L416.009 458.414C416.027 457.729 415.888 455.82 416.124 455.25C416.368 454.664 416.907 454.25 417.299 453.75Z"/>
	<path fill="#32E7F4" transform="scale(0.5 0.5)" d="M425.761 216.028C429.106 214.494 432.416 213.83 436.032 215.082C438.401 215.902 440.25 217.575 441.307 219.845C442.503 222.416 443.166 226.375 442.201 229.108L441.261 231.098L440.974 231.68L440.788 232.023L496.42 293.411L511.613 310.519C514.346 313.556 517.87 316.834 520.023 320.25C520.448 320.924 520.674 321.632 520.777 322.42L475.075 284.521L453.041 314.073L426.025 274.023L398.932 307.089L379.905 276.31L351.559 305.965L318.183 340.22C316.466 341.971 307.583 352.252 305.929 352.701L332.623 314.553C335.034 313.114 336.916 310.096 338.64 307.905L348.412 295.808C357.16 285.583 415.543 217.982 422.965 215.401C424.197 214.972 424.627 215.482 425.761 216.028Z"/>
	<path fill="white" transform="scale(0.5 0.5)" d="M425.761 216.028C429.106 214.494 432.416 213.83 436.032 215.082C438.401 215.902 440.25 217.575 441.307 219.845C442.503 222.416 443.166 226.375 442.201 229.108L441.261 231.098L440.974 231.68L440.788 232.023C438.101 234.731 435.72 236.407 431.75 236.416C428.606 236.424 425.552 235.069 423.442 232.75C421.162 230.244 420.139 226.998 420.416 223.638C420.702 220.156 423.262 218.086 425.761 216.028Z"/>
	<path fill="white" transform="scale(0.5 0.5)" d="M128.837 258.239C127.633 257.494 126.329 256.753 125.273 255.804C123.224 253.96 122.173 251.101 122.079 248.395C121.974 245.381 122.656 242.192 124.864 240.002C129.545 235.356 143.728 237.099 150.261 237.122L151.161 233.153C152.759 226.656 157.537 221.497 163.203 218.125C170.599 213.725 177.449 214.21 185.505 216.239L186.673 212.948C191.286 201.317 199.446 193.062 210.991 188.141C223.226 182.926 235.451 184.166 247.466 189.072C260.198 195.975 268.125 205.74 272.281 219.669C279.515 216.978 286.148 216.437 293.393 219.663C300.031 222.618 304.464 228.315 306.909 235L307.448 236.921L321.651 236.706C326.392 236.736 331.131 236.136 334.872 239.628C337.857 242.415 338.577 245.176 338.602 249.104L338.598 250.613C337.332 253.733 336.549 256.049 333.25 257.524C329.493 259.205 322.098 258.315 317.865 258.318L285.576 258.325L178.218 258.475L146.62 258.641C140.896 258.668 134.467 259.246 128.837 258.239Z"/>
	<path fill="#DD1A19" transform="scale(0.5 0.5)" d="M824.568 182.64C833.831 191.996 842.14 201.559 848.411 213.25C853.418 222.584 856.617 232.783 859.268 242.999C859.98 246.985 860.913 251.088 861.294 255.112C863.913 282.83 857.855 311.056 841.849 334.056L823.215 357.895L778.789 412.541L755.06 440.934C752.905 441.704 751.533 441.086 749.424 440.393L745.835 436.568C747.471 433.598 746.972 428.963 746.986 425.627L747.059 407.491L747.38 366.359L747.053 366.381L746.979 343.312C763.92 343.686 781.209 338.916 795.366 329.518C800.044 326.414 804.219 322.648 808.363 318.879C821.293 304.415 828.976 288.853 831.15 269.5L831.561 261.855C831.674 238.165 822.471 217.758 805.903 201.072L824.568 182.64Z"/>
	<path fill="#FC643D" transform="scale(0.5 0.5)" d="M746.979 343.312C763.92 343.686 781.209 338.916 795.366 329.518C800.044 326.414 804.219 322.648 808.363 318.879C808.085 323.071 804.956 326.794 802.692 330.191C797.83 337.485 792.886 344.689 786.244 350.509C775.039 360.328 761.981 364.566 747.38 366.359L747.053 366.381L746.979 343.312Z"/>
	<path fill="white" transform="scale(0.5 0.5)" d="M485.447 88.6444C486.328 88.0004 487.415 85.7904 488.11 84.764C491.515 79.7329 495.038 73.1551 500.085 69.6238C504.738 66.3675 510.394 65.2246 515.974 66.2775C526.806 68.3217 531.943 79.9178 537.513 88.1655L571.813 137.682L606.732 189.389L625.193 216.493C629.72 222.945 635.061 229.385 638.763 236.313L638.255 236.161C636.727 235.465 635.007 232.803 633.881 231.46L624.526 220.828L583.811 177.681L570.647 163.706C567.852 160.711 565.133 157.467 562.001 154.824L546.487 184C545.467 185.917 543.572 190.858 542 192.048L511.877 148.364L481.316 192.978L460.264 153.902C453.281 160.651 447.303 168.303 440.724 175.428L414.053 203.532L388.846 232.079C387.127 234.027 383.301 239.62 381.123 240.267L485.447 88.6444Z"/>
	<path fill="#66A11F" transform="scale(0.5 0.5)" d="M212.827 409.13L213.266 407.25L213.862 407.102L228.846 447.922L244.391 493.549L271.461 561.558L267.521 563.557L261.807 568.264C257.638 572.742 255.39 576.905 254.937 583.109C257.794 586.428 260.596 590.089 263.95 592.911C256.979 597.872 254.177 603.283 251.956 611.501L246.943 610.791C236.983 608.719 227.294 606.32 217.878 602.383L211.654 599.736L211.293 563.122L210.25 560.668L209.666 561.335C206.335 565.05 202.115 567.81 197 567.959C192.858 568.078 189.888 565.665 186.903 563.095L186.483 563.444C181.402 567.578 173.461 570.142 166.988 570.819L164.225 568.558C161.396 566.544 158.849 563.637 156.348 561.206L150.834 555.121C151.532 547.77 150.994 539.827 151.001 532.394C151.003 529.338 151.572 525.074 150.59 522.185L150.609 522.1L153.654 520.206C155.862 522.005 158.206 524.271 161.009 525.049C165.324 526.247 169.792 521.633 173.338 519.53L173.868 518.913L173.483 517.802L174.062 516.081L174.754 516.22L183.785 493.183L212.827 409.13Z"/>
	<path fill="#266507" transform="scale(0.5 0.5)" d="M213.009 497.113C216.1 497.751 218.437 502.519 221.5 504.001L222.063 504.278C223.762 505.072 224.964 505.032 226.79 504.785L232.791 499.062C234.935 501.159 237.054 503.349 239.382 505.242C242.787 508.013 246.505 510.592 249.093 514.194C243.123 512.655 238.193 510.966 233.064 507.462L232.591 507.849C229.785 510.098 227.233 511.177 223.548 510.756C219.732 510.321 217.118 509.153 214.468 506.434C213.866 505.816 214.115 506.056 213.25 505.47C212.689 506.081 211.73 506.869 211.458 507.639C210.091 508.543 208.735 509.328 207.119 509.698C203.21 510.591 200.681 508.529 197.489 506.603L190.91 511.869C189.648 512.739 189.202 512.978 187.683 512.75L187.5 510.5C187.84 506.338 194.466 501.77 197.485 498.979L198.497 499.894L199.754 501.156C201.881 503.201 203.81 504.028 206.75 503.989C209.403 502.912 211.216 500.014 212.683 497.648L213.009 497.113Z"/>
	<path fill="#266507" transform="scale(0.5 0.5)" d="M164.225 568.558C168.297 564.886 173.091 563.345 177.739 560.682C181.376 558.599 184.816 556.063 188.262 553.679C189.351 555.65 190.499 557.683 192.25 559.156C193.544 560.245 195.3 560.881 196.99 560.944C201.684 561.117 203.524 558.392 206.483 555.311C207.876 553.861 208.389 552.816 210.482 552.593L212.352 555.607C213.358 557.215 215.373 559.925 217.29 560.403C218.887 560.802 220.485 560.757 221.856 559.75C223.533 558.518 225.626 554.666 227.395 554.077C230.994 557.832 232.772 560.243 238.25 560.459C240.193 560.536 241.72 560.527 243.18 559.114L247.699 554.483C249.23 555.371 250.839 556.232 252.275 557.268C254.708 559.023 256.901 562.658 260.497 561.372L262.359 560.228C262.992 559.813 263.512 559.629 264.25 559.479C265.442 560.799 266.526 562.081 267.521 563.557L261.807 568.264C257.513 567.532 253.042 566.211 249.623 563.464C249.477 563.347 249.373 563.085 249.186 563.109C248.824 563.155 247.132 564.398 246.699 564.661C244.345 566.092 242.117 567.045 239.328 567.179C235.117 567.381 231.443 565.853 228.333 563.114C227.666 562.527 227.648 563.073 227.035 563.639C224.061 566.382 222.111 568.007 217.929 567.991C215.428 567.982 212.947 564.79 211.293 563.122L210.25 560.668L209.666 561.335C206.335 565.05 202.115 567.81 197 567.959C192.858 568.078 189.888 565.665 186.903 563.095L186.483 563.444C181.402 567.578 173.461 570.142 166.988 570.819L164.225 568.558Z"/>
	<path fill="#66A11F" transform="scale(0.5 0.5)" d="M211.293 563.122C212.947 564.79 215.428 567.982 217.929 567.991C222.111 568.007 224.061 566.382 227.035 563.639C227.648 563.073 227.666 562.527 228.333 563.114C231.443 565.853 235.117 567.381 239.328 567.179C242.117 567.045 244.345 566.092 246.699 564.661C247.132 564.398 248.824 563.155 249.186 563.109C249.373 563.085 249.477 563.347 249.623 563.464C253.042 566.211 257.513 567.532 261.807 568.264C257.638 572.742 255.39 576.905 254.937 583.109C252.298 581.825 249.811 580.785 246.986 579.973C240.447 578.872 233.273 579.558 227.777 583.626C221.612 588.188 218.787 594.965 217.878 602.383L211.654 599.736L211.293 563.122Z"/>
	<path fill="#32E7F4" transform="scale(0.5 0.5)" d="M217.878 602.383C218.787 594.965 221.612 588.188 227.777 583.626C233.273 579.558 240.447 578.872 246.986 579.973C249.811 580.785 252.298 581.825 254.937 583.109C257.794 586.428 260.596 590.089 263.95 592.911C256.979 597.872 254.177 603.283 251.956 611.501L246.943 610.791C236.983 608.719 227.294 606.32 217.878 602.383Z"/>
	<path fill="#64B8C3" transform="scale(0.5 0.5)" d="M246.986 579.973C249.811 580.785 252.298 581.825 254.937 583.109C257.794 586.428 260.596 590.089 263.95 592.911C256.979 597.872 254.177 603.283 251.956 611.501L246.943 610.791L246.986 579.973Z"/>
	<path fill="#80C828" transform="scale(0.5 0.5)" d="M212.827 409.13C213.096 409.656 213.366 410.144 213.399 410.75C213.479 412.242 213.066 413.881 213.034 415.409L212.913 428.205L212.487 480.531L212.507 491.587C212.516 493.484 212.304 495.324 213.009 497.113L212.683 497.648C211.216 500.014 209.403 502.912 206.75 503.989C203.81 504.028 201.881 503.201 199.754 501.156L198.497 499.894L197.485 498.979C194.466 501.77 187.84 506.338 187.5 510.5L187.683 512.75C189.202 512.978 189.648 512.739 190.91 511.869L197.489 506.603C200.681 508.529 203.21 510.591 207.119 509.698C208.735 509.328 210.091 508.543 211.458 507.639C212.551 510.878 211.696 516.598 211.68 520.158L211.52 551.736L210.482 552.593C208.389 552.816 207.876 553.861 206.483 555.311C203.524 558.392 201.684 561.117 196.99 560.944C195.3 560.881 193.544 560.245 192.25 559.156C190.499 557.683 189.351 555.65 188.262 553.679C184.816 556.063 181.376 558.599 177.739 560.682C173.091 563.345 168.297 564.886 164.225 568.558C161.396 566.544 158.849 563.637 156.348 561.206L150.834 555.121C151.532 547.77 150.994 539.827 151.001 532.394C151.003 529.338 151.572 525.074 150.59 522.185L150.609 522.1L153.654 520.206C155.862 522.005 158.206 524.271 161.009 525.049C165.324 526.247 169.792 521.633 173.338 519.53L173.868 518.913L173.483 517.802L174.062 516.081L174.754 516.22L183.785 493.183L212.827 409.13Z"/>
	<path fill="#A5DE28" transform="scale(0.5 0.5)" d="M173.338 519.53C171.862 526.687 168.52 533.502 165.695 540.214C162.732 547.252 160.044 554.51 156.348 561.206L150.834 555.121C151.532 547.77 150.994 539.827 151.001 532.394C151.003 529.338 151.572 525.074 150.59 522.185L150.609 522.1L153.654 520.206C155.862 522.005 158.206 524.271 161.009 525.049C165.324 526.247 169.792 521.633 173.338 519.53Z"/>
	<path fill="white" transform="scale(0.5 0.5)" d="M665.955 266.682C664.927 245.319 670.472 224.419 684.504 207.867C699.119 190.625 718.705 180.753 741.174 178.889C766.326 176.803 786.934 185.005 805.903 201.072C822.471 217.758 831.674 238.165 831.561 261.855L831.15 269.5C828.976 288.853 821.293 304.415 808.363 318.879C804.219 322.648 800.044 326.414 795.366 329.518C781.209 338.916 763.92 343.686 746.979 343.312C730.012 342.519 715.377 338.087 701.152 328.626C682.122 315.969 671.091 295.679 666.743 273.651L665.955 266.682Z"/>
	<path fill="#FE6B4A" transform="scale(0.5 0.5)" d="M755.159 185.448C771.127 185.9 790.273 194.672 801.522 205.982L801.615 206.118C795.66 211.844 790.001 220.155 782.993 224.587C772.606 214.332 761.854 210.574 747.485 209.927L747.682 185.626L755.159 185.448Z"/>
	<path fill="#FC643D" transform="scale(0.5 0.5)" d="M782.993 224.587C790.001 220.155 795.66 211.844 801.615 206.118C811.175 215.185 819.702 228.615 823.134 241.393C824.722 247.306 825.305 253.887 825.453 260C825.501 261.936 825.91 266.356 825.222 267.893L824.749 267.195C821.652 266.553 818.122 266.735 814.953 266.685L796.899 266.604L797.371 261.079C797.99 247.036 792.214 234.811 782.993 224.587Z"/>
	<path fill="#FE6B4A" transform="scale(0.5 0.5)" d="M672.302 266.834C672.618 266.547 672.842 266.099 673.25 265.975C674.695 265.535 677.949 265.955 679.551 265.948L698.235 265.866L700.345 274.888C704.578 287.265 713.034 297.792 724.87 303.665C732.06 307.232 739.397 308.817 747.37 309.266L747.336 336.771C732.701 336.2 719.83 332.898 707.399 324.887C689.292 313.22 677.8 295.651 673.268 274.753L672.302 266.834Z"/>
	<path fill="#F32C25" transform="scale(0.5 0.5)" d="M672.302 266.834C672.618 266.547 672.842 266.099 673.25 265.975C674.695 265.535 677.949 265.955 679.551 265.948L698.235 265.866L700.345 274.888L673.268 274.753L672.302 266.834Z"/>
	<path fill="#FC643D" transform="scale(0.5 0.5)" d="M672.302 266.834L672.193 266.708L672.76 250.146L673.129 247.234C675.685 229.453 687.409 210.706 701.777 200.149C716.584 189.271 736.669 182.624 755.159 185.448L747.682 185.626L747.485 209.927C732.697 210.614 720.835 214.261 710.637 225.568C702.448 234.647 697.093 247.611 697.715 259.921L698.235 265.866L679.551 265.948C677.949 265.955 674.695 265.535 673.25 265.975C672.842 266.099 672.618 266.547 672.302 266.834Z"/>
	<path fill="#FC643D" transform="scale(0.5 0.5)" d="M796.899 266.604L814.953 266.685C818.122 266.735 821.652 266.553 824.749 267.195L825.222 267.893L824.545 274.012C820.119 294.686 809.707 312.633 791.62 324.348C777.802 333.298 763.549 336.378 747.336 336.771L747.37 309.266C755.015 309.555 762.847 308.131 769.75 304.778C782.71 298.483 790.828 287.094 795.522 273.834L796.899 266.604Z"/>
	<path fill="#DD1A19" transform="scale(0.5 0.5)" d="M796.899 266.604L814.953 266.685C818.122 266.735 821.652 266.553 824.749 267.195L825.222 267.893L824.545 274.012L795.522 273.834L796.899 266.604Z"/>
	<path fill="#008498" transform="scale(0.5 0.5)" d="M747.485 209.927C761.854 210.574 772.606 214.332 782.993 224.587C792.214 234.811 797.99 247.036 797.371 261.079L796.899 266.604L795.522 273.834C790.828 287.094 782.71 298.483 769.75 304.778C762.847 308.131 755.015 309.555 747.37 309.266C739.397 308.817 732.06 307.232 724.87 303.665C713.034 297.792 704.578 287.265 700.345 274.888L698.235 265.866L697.715 259.921C697.093 247.611 702.448 234.647 710.637 225.568C720.835 214.261 732.697 210.614 747.485 209.927Z"/>
	<path fill="#32E7F4" transform="scale(0.5 0.5)" d="M722.897 281.729C718.154 275.008 714.573 268.642 714.208 260.185C713.811 250.992 717.352 242.891 723.586 236.25C729.669 229.769 738.662 226.11 747.5 226.111C757.02 226.112 764.273 229.904 770.814 236.554L743.379 261.711C736.39 268.082 728.982 274.464 722.897 281.729Z"/>
	<path fill="white" transform="scale(0.5 0.5)" d="M770.814 236.554C777.808 244.314 781.064 252.512 780.569 263.044C780.16 271.755 775.69 279.834 769.25 285.535C762.918 291.14 753.917 293.398 745.594 292.889C736.129 292.31 729.265 288.421 722.897 281.729C728.982 274.464 736.39 268.082 743.379 261.711L770.814 236.554Z"/>
	<defs>
		<linearGradient id="gradient_0" gradientUnits="userSpaceOnUse" x1="243.94263" y1="381.45532" x2="425.40808" y2="477.91071">
			<stop offset="0" stop-color="#004263"/>
			<stop offset="1" stop-color="#005D6E"/>
		</linearGradient>
	</defs>
	<path fill="url(#gradient_0)" transform="scale(0.5 0.5)" d="M247.998 371.991L273.007 338.466L327.274 384.496L328.262 385.569L328.814 385.378C332.035 384.551 336.996 385.123 340.407 385.028L340.25 390.898C339.235 391.734 338.739 391.76 337.483 392.076C344.357 391.092 351.929 391.716 358.905 391.719C368.042 391.724 377.605 391.189 386.68 392.095L386.983 363.644L374.027 363.604L374.107 344.835L382.434 344.562C382.405 347.542 381.683 352.77 382.736 355.458L383.032 356.011C389.917 357.274 398.119 356.396 405.22 356.409L448.938 356.45L473.996 355.911L476.25 356.107C476.677 358.668 476.502 361.338 476.481 363.929L461.523 363.823L402.686 363.609L403.461 364.104L402.994 535.4C400.85 536.041 397.388 536.627 395.509 537.701C393.011 538.999 390.068 539.872 387.299 540.372L384.842 541.186L366.652 550.285L362.719 552.347L347.828 562.227L339.614 568.604C338.083 571.703 333.178 575.461 330.507 577.697C327.074 581.019 323.978 584.36 321.072 588.156C320.282 589.188 318.797 590.816 318.41 592.048C316.268 590.315 313.945 589.004 311.479 587.797L304.012 585.751C301.086 584.995 298.115 584.979 295.113 584.867C290.754 585.255 284.482 586.806 281.551 590.298L280.786 591.33C280.439 591.816 280.109 592.104 279.617 592.436L279.04 592.471C273.868 590.629 270.925 589.647 265.568 592.107L263.95 592.911C260.596 590.089 257.794 586.428 254.937 583.109C255.39 576.905 257.638 572.742 261.807 568.264L267.521 563.557L271.461 561.558L244.391 493.549L228.846 447.922L239.84 468.084C241.262 471.29 243.293 473.988 245.75 476.469C246.667 476.198 246.955 476.369 247.416 475.464C249.434 471.504 248.359 406.711 248.358 396.46L248.461 380.704C248.491 377.881 248.894 374.692 247.998 371.991Z"/>
	<path fill="white" transform="scale(0.5 0.5)" d="M339.614 568.604L339.629 411.932L347.992 411.818L347.828 562.227L339.614 568.604Z"/>
	<path fill="white" transform="scale(0.5 0.5)" d="M402.686 363.609L403.461 364.104L402.994 535.4C400.85 536.041 397.388 536.627 395.509 537.701L395.466 363.647L402.686 363.609Z"/>
	<path fill="white" transform="scale(0.5 0.5)" d="M337.483 392.076C344.357 391.092 351.929 391.716 358.905 391.719C368.042 391.724 377.605 391.189 386.68 392.095C387.662 392.361 388.2 392.593 388.98 393.25L388.979 404.187C383.896 404.795 378.671 404.608 373.553 404.639L349.163 404.779L275.526 404.632L275.506 392.037L337.483 392.076Z"/>
	<path fill="#32E7F4" transform="scale(0.5 0.5)" d="M351.158 411.873L387.045 411.762L387.144 466.312L387.299 540.372L384.842 541.186L366.652 550.285L362.719 552.347L347.828 562.227L347.992 411.818L351.158 411.873Z"/>
	<path fill="#64B8C3" transform="scale(0.5 0.5)" d="M384.842 541.186C384.528 540.666 384.392 540.519 384.258 539.842C383.733 537.176 384.422 533.117 384.533 530.355L385.087 489.043C385.107 483.125 384.542 476.575 385.191 470.75C385.363 469.204 386.41 467.664 387.144 466.312L387.299 540.372L384.842 541.186Z"/>
	<path fill="white" transform="scale(0.5 0.5)" d="M362.646 473.67C360.895 475.281 360.555 475.772 358.25 476.163C356.379 475.515 356.044 475.238 354.726 473.75C353.217 466.65 354.111 457.518 354.055 450.169C354.038 447.89 353.516 443.407 354.566 441.432C355.444 439.78 356.78 438.92 358.5 438.489C360.218 438.871 361.42 439.958 362.788 440.999L362.646 473.67Z"/>
	<path fill="#00C2C4" transform="scale(0.5 0.5)" d="M306.661 411.829L330.388 411.677L330.507 577.697C327.074 581.019 323.978 584.36 321.072 588.156C320.282 589.188 318.797 590.816 318.41 592.048C316.268 590.315 313.945 589.004 311.479 587.797L304.012 585.751C301.086 584.995 298.115 584.979 295.113 584.867C290.754 585.255 284.482 586.806 281.551 590.298L280.786 591.33C280.439 591.816 280.109 592.104 279.617 592.436L279.04 592.471C273.868 590.629 270.925 589.647 265.568 592.107L263.95 592.911C260.596 590.089 257.794 586.428 254.937 583.109C255.39 576.905 257.638 572.742 261.807 568.264L267.521 563.557L271.461 561.558L244.391 493.549L249.628 487.47C250.117 485.624 250.934 484.005 252.166 482.541C254.839 479.365 258.61 476.709 261.812 474.049C268.932 468.135 276.415 461.883 284.094 456.735L284.209 424.034C284.225 420.523 283.552 414.998 284.51 411.738L291.983 411.809L306.661 411.829Z"/>
	<path fill="#32E7F4" transform="scale(0.5 0.5)" d="M284.094 456.735L284.209 424.034C284.225 420.523 283.552 414.998 284.51 411.738L291.983 411.809L306.661 411.829L307.856 412.503L307.512 462.134L307.381 489.72L307.601 540.317C307.586 547.914 308.478 556.139 307.513 563.624L296.788 538.979C295.207 535.258 293.184 531.492 292.154 527.588C290.35 524.229 289.052 520.492 287.52 517C286.482 514.636 284.785 511.825 284.36 509.282C283.519 504.258 284.068 498.412 284.073 493.288L284.128 462.014L284.094 456.735Z"/>
	<path fill="white" transform="scale(0.5 0.5)" d="M307.381 489.72C305.853 491.276 305.732 491.768 303.5 492.036C302.045 491.462 301.02 490.679 300.25 489.274C298.808 486.642 299.286 465.23 300.226 461.75C301.449 460.399 301.702 460.083 303.5 459.486C305.328 459.667 306.274 460.915 307.512 462.134L307.381 489.72Z"/>
	<path fill="white" transform="scale(0.5 0.5)" d="M284.094 456.735L284.209 424.034C284.225 420.523 283.552 414.998 284.51 411.738L291.983 411.809L292.154 527.588C290.35 524.229 289.052 520.492 287.52 517C286.482 514.636 284.785 511.825 284.36 509.282C283.519 504.258 284.068 498.412 284.073 493.288L284.128 462.014L284.094 456.735Z"/>
	<path fill="#008498" transform="scale(0.5 0.5)" d="M249.628 487.47C250.117 485.624 250.934 484.005 252.166 482.541C254.839 479.365 258.61 476.709 261.812 474.049C268.932 468.135 276.415 461.883 284.094 456.735L284.128 462.014L284.073 493.288C284.068 498.412 283.519 504.258 284.36 509.282C284.785 511.825 286.482 514.636 287.52 517C289.052 520.492 290.35 524.229 292.154 527.588C293.184 531.492 295.207 535.258 296.788 538.979L307.513 563.624L310.776 572.826C312.272 577.17 311.663 583.2 311.479 587.797L304.012 585.751C301.086 584.995 298.115 584.979 295.113 584.867C290.754 585.255 284.482 586.806 281.551 590.298L280.786 591.33C280.439 591.816 280.109 592.104 279.617 592.436L279.04 592.471C273.868 590.629 270.925 589.647 265.568 592.107L263.95 592.911C260.596 590.089 257.794 586.428 254.937 583.109C255.39 576.905 257.638 572.742 261.807 568.264L267.521 563.557L271.461 561.558L244.391 493.549L249.628 487.47Z"/>
	<path fill="#00C2C4" transform="scale(0.5 0.5)" d="M279.002 560.282C284.434 560.703 288.576 562.784 292.162 566.89C293.261 568.147 293.898 569.484 294.561 571L294.858 571.652C296.322 575.163 295.592 581.088 295.113 584.867C290.754 585.255 284.482 586.806 281.551 590.298L280.786 591.33C280.439 591.816 280.109 592.104 279.617 592.436L279.04 592.471L279.002 560.282Z"/>
	<path fill="#32E7F4" transform="scale(0.5 0.5)" d="M271.461 561.558C274.007 560.84 276.38 560.52 279.002 560.282L279.04 592.471C273.868 590.629 270.925 589.647 265.568 592.107L263.95 592.911C260.596 590.089 257.794 586.428 254.937 583.109C255.39 576.905 257.638 572.742 261.807 568.264L267.521 563.557L271.461 561.558Z"/>
	<path fill="#64B8C3" transform="scale(0.5 0.5)" d="M381.123 240.267C383.301 239.62 387.127 234.027 388.846 232.079L414.053 203.532L440.724 175.428C447.303 168.303 453.281 160.651 460.264 153.902L481.316 192.978L511.877 148.364L542 192.048C543.572 190.858 545.467 185.917 546.487 184L562.001 154.824C565.133 157.467 567.852 160.711 570.647 163.706L583.811 177.681L624.526 220.828L633.881 231.46C635.007 232.803 636.727 235.465 638.255 236.161L638.763 236.313L640.246 237.159C639.144 245.769 637.996 254.051 638.021 262.765C638.028 265.548 637.887 268.421 638.402 271.163L638.68 275.181C647.77 274.134 657.292 275.722 666.45 274.895L666.743 273.651C671.091 295.679 682.122 315.969 701.152 328.626C715.377 338.087 730.012 342.519 746.979 343.312L747.053 366.381L747.38 366.359L747.059 407.491L746.986 425.627C746.972 428.963 747.471 433.598 745.835 436.568L701.741 382.21C698.638 383.584 694.398 383.03 690.991 383.042L672.611 383.23C670.539 383.297 666.312 384.264 664.477 383.75L663.658 383.38L662.678 384.226C660.572 382.816 657.188 378.009 655.011 377.643C651.213 374.412 647.85 370.376 644.408 366.759L624.997 346.101L584.144 303.775L582.192 301.852C577.657 295.884 571.818 290.494 566.527 285.183L526.476 327.658L520.777 322.42C520.674 321.632 520.448 320.924 520.023 320.25C517.87 316.834 514.346 313.556 511.613 310.519L496.42 293.411L440.788 232.023L440.974 231.68L441.261 231.098L442.201 229.108C443.166 226.375 442.503 222.416 441.307 219.845C440.25 217.575 438.401 215.902 436.032 215.082C432.416 213.83 429.106 214.494 425.761 216.028C424.627 215.482 424.197 214.972 422.965 215.401C415.543 217.982 357.16 285.583 348.412 295.808L338.64 307.905C336.916 310.096 335.034 313.114 332.623 314.553C333.702 311.136 336.416 308.053 338.31 305.026L364.249 265.521L377.781 244.84C378.86 243.292 379.595 241.411 381.123 240.267Z"/>
	<path fill="#008498" transform="scale(0.5 0.5)" d="M584.144 303.775C586.749 305.107 588.766 307.564 590.826 309.609L601.245 319.996L639.938 358.599C647.876 366.767 655.368 375.582 663.658 383.38L662.678 384.226C660.572 382.816 657.188 378.009 655.011 377.643C651.213 374.412 647.85 370.376 644.408 366.759L624.997 346.101L584.144 303.775Z"/>
	<path fill="white" transform="scale(0.5 0.5)" d="M587.701 262.25C589.055 261.914 590.801 261.779 592.161 262.124C594.233 262.65 596.323 264.357 597.303 266.25C598.236 268.052 597.979 270.263 597.32 272.109C596.492 274.431 594.874 275.639 592.75 276.702C591.371 277.24 589.201 277.207 587.806 276.75C586.072 276.182 584.648 274.912 583.814 273.301C582.735 271.219 582.289 268.449 583.288 266.242C584.278 264.056 585.584 263.241 587.701 262.25Z"/>
	<path fill="#32E7F4" transform="scale(0.5 0.5)" d="M487.389 212.665C493.424 212.236 499.685 212.538 505.74 212.541L538.73 212.545L565.128 212.501C569.428 212.5 574.171 212.119 578.421 212.591C580.814 212.857 583.338 213.645 585.386 214.94C588.107 216.662 590.355 219.42 590.971 222.616L591.083 223.25C591.483 225.373 591.506 227.124 591.007 229.25C590.243 232.507 587.682 235.378 584.843 237.03L581.146 238.746C575.055 239.439 568.549 239.018 562.407 239.022L527.782 239.094L503.127 239.332C498.434 239.421 491.106 240.527 486.817 238.767L486.25 238.517C483.56 237.387 481.018 235.831 479.493 233.25C477.492 229.865 477.245 225.96 478.154 222.209C478.926 219.021 481.135 215.714 484.084 214.125L487.389 212.665Z"/>
	<path fill="#FE6B4A" transform="scale(0.5 0.5)" d="M666.743 273.651C671.091 295.679 682.122 315.969 701.152 328.626C715.377 338.087 730.012 342.519 746.979 343.312L747.053 366.381L747.38 366.359L747.059 407.491L746.986 425.627C746.972 428.963 747.471 433.598 745.835 436.568L701.741 382.21L662.601 331.093C660.222 329.296 657.805 324.506 656.225 321.87C652.707 315.999 648.989 310.054 646.239 303.779C642.212 294.587 640.15 285.068 638.68 275.181C647.77 274.134 657.292 275.722 666.45 274.895L666.743 273.651Z"/>
	<path fill="#F32C25" transform="scale(0.5 0.5)" d="M662.601 331.093L663.038 331.285C666.223 332.8 668.6 335.709 671.25 337.988C674.002 340.355 677.32 342.553 680.321 344.61C694.229 354.145 711.991 361.154 728.5 364.534C734.404 365.743 741.023 366.729 747.053 366.381L747.38 366.359L747.059 407.491L746.986 425.627C746.972 428.963 747.471 433.598 745.835 436.568L701.741 382.21L662.601 331.093Z"/>
	<path fill="#004E6A" transform="scale(0.5 0.5)" d="M526.476 327.658L566.527 285.183C571.818 290.494 577.657 295.884 582.192 301.852L584.144 303.775L624.997 346.101L644.408 366.759C647.85 370.376 651.213 374.412 655.011 377.643C657.188 378.009 660.572 382.816 662.678 384.226L663.658 383.38L664.477 383.75C666.312 384.264 670.539 383.297 672.611 383.23L690.991 383.042C694.398 383.03 698.638 383.584 701.741 382.21L745.835 436.568L749.424 440.393C745.592 440.542 737.92 439.758 735.225 442.623C733.597 444.354 733.317 446.996 733.548 449.25C733.753 451.245 734.691 454.334 736.5 455.467C738.262 456.57 741.994 456.04 744.04 456.004C744.018 459.539 743.13 466.17 745.511 468.938L744.228 469.651L770.582 496.5L770.401 497.532L760.619 534.474L760.277 536.637L755.252 563.067L775.319 563.137C778.167 563.151 782.163 562.641 784.858 563.532L785.312 563.027C787.729 563.104 790.288 563.009 792.675 563.357L792.683 605.932L784.945 608.668L772 613.064L771.416 613.226C769.104 613.812 766.313 613.522 763.936 613.496L750.27 613.08L595.542 612.523L593.885 606.62C590.529 598.08 588.758 588.701 586.27 579.864L585.673 577.25C584.57 579.181 584.187 581.81 583.57 583.964C581.443 591.385 580.197 599.792 577.395 606.918L567.121 606.841L567.399 558.985L567.467 536.958L567.469 532.5C567.23 532.266 567.043 531.961 566.75 531.799C566.431 531.624 564.077 531.825 563.625 531.83L552.464 531.938C550.974 531.484 548.251 531.827 546.645 531.809L531.616 531.765L530.099 531.386C528.132 531.682 525.937 531.504 523.94 531.517L520.835 531.608L504.4 531.64L484.011 531.902L478.129 531.838L478.072 531.418C477.182 526.52 477.445 521.54 477.468 516.573L477.63 493.394L477.503 425.19L477.417 378.974C478.272 377.543 480.042 376.17 481.25 375.003L489.013 367.281L526.476 327.658Z"/>
	<path fill="#266507" transform="scale(0.5 0.5)" d="M509.224 495.68L511.021 497.868C513.459 500.605 514.963 504.069 516.632 507.304L523.869 520.859C525.801 524.309 528.603 527.79 530.099 531.386C528.132 531.682 525.937 531.504 523.94 531.517L520.835 531.608L511.351 502.125C510.162 500.183 509.536 497.917 509.224 495.68Z"/>
	<path fill="#094B06" transform="scale(0.5 0.5)" d="M511.351 502.125C513.268 503.013 516.415 509.893 517.177 512.086C518.019 514.512 518.474 517.07 519.297 519.498C520.621 523.407 523.375 527.469 523.94 531.517L520.835 531.608L511.351 502.125Z"/>
	<path fill="#339F53" transform="scale(0.5 0.5)" d="M682.591 438.418L682.75 439.287L683.11 443.25C683.764 443.717 683.327 443.54 684.436 443.4C688.959 442.829 694.189 443.219 698.76 443.416C702.584 450.844 705.537 458.633 708.966 466.241L713.542 476.44C714.153 477.864 714.99 479.399 714.857 480.979L682.583 443.426L682.591 438.418Z"/>
	<path fill="#003D53" transform="scale(0.5 0.5)" d="M682.583 443.426L714.857 480.979C718.918 487.388 722.858 493.479 727.709 499.339C723.331 499.337 716.77 498.462 712.709 499.874C709.812 500.347 706.049 499.909 703.072 499.917L682.48 499.756L682.583 443.426Z"/>
	<path fill="#00C2C4" transform="scale(0.5 0.5)" d="M663.658 383.38L664.477 383.75C666.312 384.264 670.539 383.297 672.611 383.23L690.991 383.042C694.398 383.03 698.638 383.584 701.741 382.21L745.835 436.568L749.424 440.393C745.592 440.542 737.92 439.758 735.225 442.623C733.597 444.354 733.317 446.996 733.548 449.25C733.753 451.245 734.691 454.334 736.5 455.467C738.262 456.57 741.994 456.04 744.04 456.004C744.018 459.539 743.13 466.17 745.511 468.938L744.228 469.651L702.569 425.887L675.865 397.481C671.57 393.035 667.42 388.198 662.678 384.226L663.658 383.38Z"/>
	<path fill="#C7C9C6" transform="scale(0.5 0.5)" d="M564.942 340.189C567.27 338.359 569.087 332.045 570.353 329.225C574.382 320.247 579.248 311.241 582.192 301.852L584.144 303.775L624.997 346.101L644.408 366.759C647.85 370.376 651.213 374.412 655.011 377.643L627.782 404.045L566.362 342.084L564.942 340.189Z"/>
	<path fill="#008498" transform="scale(0.5 0.5)" d="M526.476 327.658L566.527 285.183C571.818 290.494 577.657 295.884 582.192 301.852C579.248 311.241 574.382 320.247 570.353 329.225C569.087 332.045 567.27 338.359 564.942 340.189L566.362 342.084C566.486 350.187 567.594 358.039 568.549 366.074C568.962 369.552 569.973 373.826 569.624 377.25C569.42 379.254 567.972 381.524 567.075 383.335L562.217 393.297L527.149 462.435C521.439 473.96 515.106 485.656 511.021 497.868L509.224 495.68C509.536 497.917 510.162 500.183 511.351 502.125L520.835 531.608L504.4 531.64L484.011 531.902L478.129 531.838L478.072 531.418C477.182 526.52 477.445 521.54 477.468 516.573L477.63 493.394L477.503 425.19L477.417 378.974C478.272 377.543 480.042 376.17 481.25 375.003L489.013 367.281L526.476 327.658Z"/>
	<path fill="#A5DE28" transform="scale(0.5 0.5)" d="M484.011 531.902L484.263 531.383C485.953 526.915 488.726 522.793 490.885 518.5C490.18 516.947 489.097 518.289 487.942 517C489.315 514.455 491.544 512.64 493.137 510.25L492.5 509.448C491.292 509.244 490.512 509.175 489.452 508.5L499.374 491.883C500.546 489.821 501.947 486.152 503.668 484.75L504.068 486.028C505.806 487.927 508.885 493.081 509.224 495.68C509.536 497.917 510.162 500.183 511.351 502.125L520.835 531.608L504.4 531.64L484.011 531.902Z"/>
	<path fill="#378818" transform="scale(0.5 0.5)" d="M504.068 486.028C505.806 487.927 508.885 493.081 509.224 495.68C509.536 497.917 510.162 500.183 511.351 502.125L520.835 531.608L504.4 531.64L504.063 502.943C504.003 497.359 503.559 491.574 504.068 486.028Z"/>
	<path fill="white" transform="scale(0.5 0.5)" d="M526.476 327.658L566.527 285.183C571.818 290.494 577.657 295.884 582.192 301.852C579.248 311.241 574.382 320.247 570.353 329.225C569.087 332.045 567.27 338.359 564.942 340.189L563.25 338.8C560.677 340.362 558.405 343.313 556.265 345.488L541.522 360.529L477.503 425.19L477.417 378.974C478.272 377.543 480.042 376.17 481.25 375.003L489.013 367.281L526.476 327.658Z"/>
	<path fill="#FE9A37" transform="scale(0.5 0.5)" d="M552.464 531.938L552.086 437.99L648.928 437.928L671.994 437.937C675.05 437.938 679.776 437.312 682.591 438.418L682.583 443.426L682.48 499.756C680.788 499.664 678.969 499.151 677.645 500.25L673.275 535.989L660.879 535.802L644.094 535.148C643.624 535.866 643.245 536.544 642.9 537.33L637.136 550.44C635.923 553.125 634.831 556.175 633.344 558.707L630.399 558.885L567.399 558.985L567.467 536.958L567.469 532.5C567.23 532.266 567.043 531.961 566.75 531.799C566.431 531.624 564.077 531.825 563.625 531.83L552.464 531.938Z"/>
	<path fill="#FC643D" transform="scale(0.5 0.5)" d="M659.683 501.416L660.75 500.765L662.25 501.381C663.287 506.655 662.234 514.019 662.089 519.5C661.124 520.403 660.839 520.35 659.51 520.56L659.683 501.416Z"/>
	<path fill="#FE6B4A" transform="scale(0.5 0.5)" d="M659.984 463.525L662.25 463.467C662.482 463.728 662.839 463.918 662.947 464.25C663.254 465.193 662.95 467.672 662.951 468.789L662.962 482.25L662 482.942C661.169 482.758 660.546 482.728 659.875 482.179L659.984 463.525Z"/>
	<path fill="white" transform="scale(0.5 0.5)" d="M567.467 536.958L616.876 536.974C625.408 536.981 634.432 536.414 642.9 537.33L637.136 550.44C635.923 553.125 634.831 556.175 633.344 558.707L630.399 558.885L567.399 558.985L567.467 536.958Z"/>
	<path fill="white" transform="scale(0.5 0.5)" d="M659.875 482.179C656.402 481.791 652.684 482.035 649.177 482.035L630.746 482.037L567.929 482.054L567.835 460.114C577.983 460.035 657.141 459.179 659.84 460.611L659.984 463.525L659.875 482.179Z"/>
	<path fill="white" transform="scale(0.5 0.5)" d="M659.51 520.56C657.895 520.097 655.114 520.469 653.361 520.478L639.45 520.509L567.839 520.696L567.796 498.017L639.135 498.033C642.467 498.041 657.597 497.274 659.75 498.556L659.683 501.416L659.51 520.56Z"/>
	<path fill="#00C2C4" transform="scale(0.5 0.5)" d="M729.524 499.812L749.373 499.443C751.058 499.436 754.566 499.007 755.953 499.712C757.253 511.18 757.967 523.254 760.619 534.474L760.277 536.637L755.252 563.067L775.319 563.137C778.167 563.151 782.163 562.641 784.858 563.532L785.312 563.027C787.729 563.104 790.288 563.009 792.675 563.357L792.683 605.932L784.945 608.668L772 613.064L771.416 613.226C769.104 613.812 766.313 613.522 763.936 613.496L750.27 613.08L595.542 612.523L593.885 606.62C590.529 598.08 588.758 588.701 586.27 579.864L585.673 577.25C584.57 579.181 584.187 581.81 583.57 583.964C581.443 591.385 580.197 599.792 577.395 606.918L567.121 606.841L567.399 558.985L630.399 558.885L633.344 558.707C634.831 556.175 635.923 553.125 637.136 550.44L642.9 537.33C643.245 536.544 643.624 535.866 644.094 535.148L660.879 535.802L673.275 535.989L677.645 500.25C678.969 499.151 680.788 499.664 682.48 499.756L703.072 499.917C706.049 499.909 709.812 500.347 712.709 499.874L729.524 499.812Z"/>
	<path fill="#003D53" transform="scale(0.5 0.5)" d="M664.553 577.231L671.246 577.307L671.155 592.382L664.482 592.269L664.553 577.231Z"/>
	<path fill="#003D53" transform="scale(0.5 0.5)" d="M643.069 577.407L650.303 577.38L650.228 592.065L643.432 592.064L643.069 577.407Z"/>
	<path fill="#003D53" transform="scale(0.5 0.5)" d="M728.418 577.384L735.386 577.413L735.388 592.202L728.371 592.234L728.418 577.384Z"/>
	<path fill="#003D53" transform="scale(0.5 0.5)" d="M706.962 577.488L714.354 577.472L714.318 592.017L707.04 592.005L706.962 577.488Z"/>
	<path fill="#003D53" transform="scale(0.5 0.5)" d="M685.206 577.516L692.872 577.495L692.827 592.211L685.191 592.189L685.206 577.516Z"/>
	<path fill="#64B8C3" transform="scale(0.5 0.5)" d="M642.9 537.33C643.245 536.544 643.624 535.866 644.094 535.148L660.879 535.802L659.614 536.5L659.728 576.949L636.728 576.99C634.403 576.975 630.815 577.442 628.621 576.874C629.342 570.499 630.979 564.656 633.344 558.707C634.831 556.175 635.923 553.125 637.136 550.44L642.9 537.33Z"/>
	<path fill="#64B8C3" transform="scale(0.5 0.5)" d="M673.275 535.989L677.645 500.25C678.969 499.151 680.788 499.664 682.48 499.756L703.072 499.917C706.049 499.909 709.812 500.347 712.709 499.874L729.524 499.812L729.892 535.94L673.275 535.989Z"/>
	<path fill="#008498" transform="scale(0.5 0.5)" d="M750.27 613.08L750.003 536.523L760.277 536.637L755.252 563.067L775.319 563.137C778.167 563.151 782.163 562.641 784.858 563.532L785.312 563.027C787.729 563.104 790.288 563.009 792.675 563.357L792.683 605.932L784.945 608.668L772 613.064L771.416 613.226C769.104 613.812 766.313 613.522 763.936 613.496L750.27 613.08Z"/>
	<path fill="#3B301A" transform="scale(0.5 0.5)" d="M785.312 563.027C787.729 563.104 790.288 563.009 792.675 563.357L792.683 605.932L784.945 608.668L784.858 563.532L785.312 563.027Z"/>
	<path fill="#FE9A37" transform="scale(0.5 0.5)" d="M567.399 558.985L630.399 558.885L633.344 558.707C630.979 564.656 629.342 570.499 628.621 576.874L628.618 606.589L615.089 606.549L593.885 606.62C590.529 598.08 588.758 588.701 586.27 579.864L585.673 577.25C584.57 579.181 584.187 581.81 583.57 583.964C581.443 591.385 580.197 599.792 577.395 606.918L567.121 606.841L567.399 558.985Z"/>
	<path fill="#FC643D" transform="scale(0.5 0.5)" d="M630.399 558.885L633.344 558.707C630.979 564.656 629.342 570.499 628.621 576.874L628.618 606.589L615.089 606.549L630.399 558.885Z"/>
	<path fill="white" transform="scale(0.5 0.5)" d="M113.514 532.065L112.964 515.503C112.909 514.229 112.45 510.547 113.065 509.5C113.374 508.973 113.855 508.567 114.25 508.101C115.659 508.875 116.655 510.568 117.615 511.827C120.633 515.788 123.306 519.827 125.832 524.119L127.349 526.742L137.194 523.976C141.083 521.623 142.779 525.102 146.16 524.345C147.515 524.042 149.32 522.856 150.59 522.185C151.572 525.074 151.003 529.338 151.001 532.394C150.994 539.827 151.532 547.77 150.834 555.121L156.348 561.206C158.849 563.637 161.396 566.544 164.225 568.558L166.988 570.819C173.461 570.142 181.402 567.578 186.483 563.444L186.903 563.095C189.888 565.665 192.858 568.078 197 567.959C202.115 567.81 206.335 565.05 209.666 561.335L210.25 560.668L211.293 563.122L211.654 599.736L217.878 602.383C227.294 606.32 236.983 608.719 246.943 610.791L251.956 611.501C254.177 603.283 256.979 597.872 263.95 592.911L265.568 592.107C270.925 589.647 273.868 590.629 279.04 592.471L279.617 592.436C280.109 592.104 280.439 591.816 280.786 591.33L281.551 590.298C284.482 586.806 290.754 585.255 295.113 584.867C298.115 584.979 301.086 584.995 304.012 585.751L311.479 587.797C313.945 589.004 316.268 590.315 318.41 592.048C318.797 590.816 320.282 589.188 321.072 588.156C323.978 584.36 327.074 581.019 330.507 577.697C333.178 575.461 338.083 571.703 339.614 568.604L347.828 562.227L362.719 552.347L366.652 550.285L384.842 541.186L387.299 540.372C390.068 539.872 393.011 538.999 395.509 537.701C397.388 536.627 400.85 536.041 402.994 535.4C416.291 532.143 428.437 531.403 442.07 531.48C448.241 531.864 455.3 532.249 461.229 533.951C463.816 534.728 472.279 536.615 474.564 535.75C474.556 534.685 474.526 533.689 474.795 532.647L474.976 532.075L478.129 531.838L484.011 531.902L504.4 531.64L520.835 531.608L523.94 531.517C525.937 531.504 528.132 531.682 530.099 531.386L531.616 531.765L546.645 531.809C548.251 531.827 550.974 531.484 552.464 531.938L563.625 531.83C564.077 531.825 566.431 531.624 566.75 531.799C567.043 531.961 567.23 532.266 567.469 532.5L567.467 536.958L567.399 558.985L567.121 606.841L577.395 606.918C580.197 599.792 581.443 591.385 583.57 583.964C584.187 581.81 584.57 579.181 585.673 577.25L586.27 579.864C588.758 588.701 590.529 598.08 593.885 606.62L595.542 612.523L750.27 613.08L763.936 613.496C766.313 613.522 769.104 613.812 771.416 613.226L772 613.064L784.945 608.668L792.683 605.932C804.14 601.695 817.535 595.838 827.621 588.926L834.768 564.338L835.106 564.238C838.395 562.828 842.156 558.026 844.745 555.46L864.392 536.198L870.39 530.875C871.736 529.773 873.733 528.785 874.35 527.126L878.848 549.514C884.69 543.384 889.766 536.87 894.281 529.703L902.51 517.722C904.051 515.506 905.728 512.712 907.798 510.956C908.972 509.96 909.189 510.116 910.652 510.25C912.135 511.394 911.864 511.961 912.103 513.765C910.765 581.684 891.991 650.069 857.658 708.756C838.851 740.904 815.547 770.01 788.699 795.79C774.531 809.396 759.797 822.179 743.852 833.68C692.194 870.937 630.443 896.004 567.5 905.508C544.701 908.951 521.424 909.939 498.389 909.457C395.976 907.314 295.588 860.651 225.139 786.777C211.164 772.122 197.804 756.712 186.039 740.212C154.162 695.512 130.704 641.719 120.222 587.859C116.646 569.481 115.02 550.705 113.514 532.065Z"/>
	<path fill="#C7C9C6" transform="scale(0.5 0.5)" d="M350.711 723.49C352.467 723.211 352.628 723.264 354.25 724.009L374.977 754.296C376.049 756.122 377.149 756.779 377.287 759.02C368.065 747.902 357.972 736.01 350.711 723.49Z"/>
	<path fill="#003D53" transform="scale(0.5 0.5)" d="M377.923 759.687L408.076 759.965C408.833 761.976 410.472 763.288 411.978 764.761C402.387 765.929 391.604 765.259 381.952 764.915L377.923 759.687Z"/>
	<path fill="#F0EB44" transform="scale(0.5 0.5)" d="M150.59 522.185C151.572 525.074 151.003 529.338 151.001 532.394C150.994 539.827 151.532 547.77 150.834 555.121C142.564 547.364 134.983 538.459 129.246 528.674L127.349 526.742L137.194 523.976C141.083 521.623 142.779 525.102 146.16 524.345C147.515 524.042 149.32 522.856 150.59 522.185Z"/>
	<path fill="#A5DE28" transform="scale(0.5 0.5)" d="M137.194 523.976C136.374 526.028 135.064 527.744 132.992 528.672C131.831 529.191 130.496 528.801 129.246 528.674L127.349 526.742L137.194 523.976Z"/>
	<path fill="#008498" transform="scale(0.5 0.5)" d="M600.107 627.517L736.644 627.088L733.911 632.963L634.674 633.222L614.647 633.505C610.924 633.501 606.254 632.746 602.719 633.69L602.192 634.404L600.107 627.517Z"/>
	<path fill="#80C828" transform="scale(0.5 0.5)" d="M166.988 570.819C173.461 570.142 181.402 567.578 186.483 563.444L186.903 563.095C189.888 565.665 192.858 568.078 197 567.959C202.115 567.81 206.335 565.05 209.666 561.335L210.25 560.668L211.293 563.122L211.654 599.736C194.886 592.199 181.023 582.614 166.988 570.819Z"/>
	<path fill="#80C828" transform="scale(0.5 0.5)" d="M874.35 527.126L878.848 549.514C867.787 561.257 854.975 571.796 841.479 580.612C837.066 583.495 832.404 586.699 827.621 588.926L834.768 564.338L835.106 564.238C838.395 562.828 842.156 558.026 844.745 555.46L864.392 536.198L870.39 530.875C871.736 529.773 873.733 528.785 874.35 527.126Z"/>
	<path fill="#008498" transform="scale(0.5 0.5)" d="M352.157 690.299L353.193 690.475C354.346 692.238 355.501 693.876 356.902 695.452L357.537 696.107L360.27 699.974L360.665 700.543C363.514 705.03 367.129 712.198 371.25 715.411L373.552 715.498L373.591 714.832C373.671 712.257 371.695 708.265 370.91 705.75C372.207 706.432 374.303 713.654 375.165 715.514L413.597 715.433C419.281 715.43 426.245 714.751 431.786 715.841C436.262 716.722 440.632 718.671 443.889 721.919C444.551 722.579 445.776 723.634 446.128 724.432L446.239 724.88C446.885 727.376 448.218 729.442 449.06 731.841C451.486 738.752 450.875 746.094 447.25 752.502C444.196 757.901 439.212 762.764 433.088 764.403C426.715 766.109 419.11 764.883 412.525 765.173L414.075 767.353L415.006 767.954L427.22 785.299C426.811 781.407 425.045 773.976 426.07 770.308C431.507 785.222 433.38 801.301 437.31 816.621C437.892 818.891 438.544 821.207 439.331 823.417C440.178 825.795 441.687 826.932 441.346 829.604C431.991 822.07 423.356 812.112 415.196 803.263C404.522 791.687 393.582 780.033 384.017 767.518L381.952 764.915C391.604 765.259 402.387 765.929 411.978 764.761C410.472 763.288 408.833 761.976 408.076 759.965C418.381 759.952 431.174 761.456 439.293 753.921C442.818 750.651 445.406 745.651 445.491 740.78C445.578 735.737 443.109 730.467 439.5 727.027C437.156 724.793 434.222 723.113 431.05 722.418C424.948 721.081 417.503 721.823 411.229 721.83L377.633 721.881L365.738 721.845L349.553 721.768C349.5 720.75 346.772 717.17 346.102 716.083L336.079 700.097L333.692 696.05L330.64 691.004C332.977 690.073 337.528 690.59 340.155 690.552C343.879 690.529 348.564 691.059 352.157 690.299Z"/>
	<path fill="#004E6A" transform="scale(0.5 0.5)" d="M352.157 690.299L353.193 690.475C354.346 692.238 355.501 693.876 356.902 695.452L333.692 696.05L330.64 691.004C332.977 690.073 337.528 690.59 340.155 690.552C343.879 690.529 348.564 691.059 352.157 690.299Z"/>
	<defs>
		<linearGradient id="gradient_1" gradientUnits="userSpaceOnUse" x1="676.1933" y1="611.974" x2="644.77844" y2="691.56903">
			<stop offset="0" stop-color="#00C8CB"/>
			<stop offset="1" stop-color="#00F6FF"/>
		</linearGradient>
	</defs>
	<path fill="url(#gradient_1)" transform="scale(0.5 0.5)" d="M602.192 634.404L602.719 633.69C606.254 632.746 610.924 633.501 614.647 633.505L634.674 633.222L733.911 632.963L727.801 645.496C713.041 638.954 693.946 640.012 679.092 645.691C663.274 651.738 647.225 664.471 640.301 680.262C639.941 681.083 639.466 682.055 639.306 682.938L636.092 691.955L619.622 691.635L616.867 681.833L602.192 634.404Z"/>
	<path fill="#008498" transform="scale(0.5 0.5)" d="M616.867 681.833C624.288 683.126 631.803 682.978 639.306 682.938L636.092 691.955L619.622 691.635L616.867 681.833Z"/>
	<path fill="#66A11F" transform="scale(0.5 0.5)" d="M568.337 786.641L626.467 754.908L650.291 741.222L657.75 737.461C657.85 737.416 659.62 736.68 659.635 736.651C659.823 736.271 659.799 734.478 659.841 733.956L660.593 726.932C662.105 716.351 665.736 707.055 671.306 697.955C682.052 680.398 698.838 667.427 718.854 662.544C688.993 720.395 648.228 773.758 600.501 818.008C584.213 833.11 566.761 847.056 549.306 860.773L512.449 889.078C506.245 885.107 500.463 880.321 494.682 875.764L467.5 853.276L474.638 848.872L477.787 846.881L491.336 837.67L495.326 834.636L525.484 814.473L541.832 804.674C545.554 802.467 549.516 800.447 552.82 797.637C551.794 795.755 551.266 793.865 550.681 791.819C551.251 789.393 551.713 787.226 553.407 785.314C555.944 782.45 559.016 782.301 562.604 782.149C565.108 783.436 566.478 784.527 568.337 786.641Z"/>
	<path fill="white" transform="scale(0.5 0.5)" d="M550.681 791.819C551.251 789.393 551.713 787.226 553.407 785.314C555.944 782.45 559.016 782.301 562.604 782.149C565.108 783.436 566.478 784.527 568.337 786.641C569.375 789.417 570.206 792.008 568.91 794.901C567.765 797.455 565.503 799.78 562.787 800.603C560.498 801.297 557.39 800.853 555.357 799.605C554.451 799.048 553.583 798.377 552.82 797.637C551.794 795.755 551.266 793.865 550.681 791.819Z"/>
	<path fill="#80C828" transform="scale(0.5 0.5)" d="M639.306 682.938C639.466 682.055 639.941 681.083 640.301 680.262C647.225 664.471 663.274 651.738 679.092 645.691C693.946 640.012 713.041 638.954 727.801 645.496L724.94 650.816L718.854 662.544C698.838 667.427 682.052 680.398 671.306 697.955C665.736 707.055 662.105 716.351 660.593 726.932L659.841 733.956C659.799 734.478 659.823 736.271 659.635 736.651C659.62 736.68 657.85 737.416 657.75 737.461L650.291 741.222L626.467 754.908L568.337 786.641C566.478 784.527 565.108 783.436 562.604 782.149C559.016 782.301 555.944 782.45 553.407 785.314C551.713 787.226 551.251 789.393 550.681 791.819C551.266 793.865 551.794 795.755 552.82 797.637C549.516 800.447 545.554 802.467 541.832 804.674L525.484 814.473L495.326 834.636C486.143 827.615 478.899 817.015 475.081 806.143C470.925 794.307 472.485 781.457 477.969 770.341C489.612 746.738 518.183 734.049 541.725 726.045C547.795 724.751 553.84 723.065 559.966 722.071C568.798 720.639 577.588 720.092 586.499 719.481C598.17 719.336 610.869 719.933 622.085 723.404C624.039 721.995 626.247 721.05 628.409 720.009L619.622 691.635L636.092 691.955L639.306 682.938Z"/>
	<path fill="#378818" transform="scale(0.5 0.5)" d="M628.409 720.009L628.75 720.909L636.52 723.776C638.724 724.851 641.36 725.356 643.444 726.472C644.057 728.084 645.463 730.321 645.544 731.967L622.085 723.404C624.039 721.995 626.247 721.05 628.409 720.009Z"/>
	<path fill="#66A11F" transform="scale(0.5 0.5)" d="M639.306 682.938C639.466 682.055 639.941 681.083 640.301 680.262C647.225 664.471 663.274 651.738 679.092 645.691C693.946 640.012 713.041 638.954 727.801 645.496L724.94 650.816C709.333 645.138 690.869 647.287 676.015 654.228C672.089 656.063 668.349 658.322 664.8 660.8L664.021 661.333C651.246 670.288 642.879 685.354 640.335 700.526L639.796 704.098C639.259 707.804 639.657 711.385 640.314 715.048C641.018 718.968 642.052 722.736 643.444 726.472C641.36 725.356 638.724 724.851 636.52 723.776L628.75 720.909L628.409 720.009L619.622 691.635L636.092 691.955L639.306 682.938Z"/>
	<path fill="white" transform="scale(0.5 0.5)" d="M619.622 691.635L636.092 691.955C633.291 702.467 634.04 713.302 636.52 723.776L628.75 720.909L628.409 720.009L619.622 691.635Z"/>
	<path fill="#A5DE28" transform="scale(0.5 0.5)" d="M550.681 791.819L550.368 791.253C547.996 792.21 545.794 793.66 543.507 794.822L527.105 802.898C518.044 807.355 510.058 811.261 499.68 810.646C494.35 810.331 488.259 808.913 484.643 804.673C481.088 800.503 480.454 795.142 481.101 789.873C482.585 777.774 494.571 766.054 503.771 758.872C517.587 748.086 536.382 741.366 553.5 738.368C560.981 737.057 569.219 736.3 576.797 737.333L586.5 738.981C592.058 740.213 603.681 743.097 606.746 748.356C607.826 750.207 608.287 752.682 607.614 754.75C604.806 763.39 571.223 777.54 562.604 782.149C559.016 782.301 555.944 782.45 553.407 785.314C551.713 787.226 551.251 789.393 550.681 791.819Z"/>
	<path fill="#64B8C3" transform="scale(0.5 0.5)" d="M225.046 762.611C200.03 735.472 179.831 703.248 164.223 669.93C155.627 651.579 147.932 632.295 142.506 612.751C135.458 587.362 131.59 561.509 129.377 535.301C133.111 542.082 137.905 547.79 142.982 553.6C152.485 564.474 163.322 574.553 174.776 583.35C197.538 600.83 227.344 614.272 256.069 616.721C266.696 617.626 278.071 616.762 288.61 615.355L324.596 690.31L300.448 690.314C293.793 690.337 287.004 690.708 280.393 689.932L262.056 726.975L240.417 762.302L239.183 762.305C236.268 762.176 227.315 761.328 225.046 762.611Z"/>
	<path fill="white" transform="scale(0.5 0.5)" d="M177.125 604.618C178.447 604.75 179.956 604.863 181.195 605.366C182.844 606.035 184.61 608.069 185.25 609.719C186.126 611.975 186.091 614.446 185.093 616.66C183.921 619.259 181.715 620.364 179.165 621.269C177.357 621.17 175.552 621.052 173.898 620.241C171.987 619.303 170.015 617.08 169.539 614.953C169.125 613.106 169.27 610.667 170.285 609.041C171.966 606.35 174.145 605.395 177.125 604.618Z"/>
	<path fill="#F32C25" transform="scale(0.5 0.5)" d="M236.434 758.138L234.436 755.076C222.632 736.546 211.235 717.691 201.493 697.988C197.922 690.765 193.88 683.014 192.111 675.116C190.953 669.946 191.05 663.326 192.251 658.179L194.431 650.59C198.852 638.851 207.794 629.798 219.212 624.719C230.717 619.602 243.937 618.807 255.75 623.51C268.35 628.526 277.476 639.001 282.775 651.249C284.983 657.628 286.676 664.638 285.968 671.447C285.322 677.661 282.736 684.177 280.393 689.932L262.056 726.975L240.417 762.302L239.183 762.305L236.434 758.138Z"/>
	<path fill="#DD1A19" transform="scale(0.5 0.5)" d="M282.775 651.249C284.983 657.628 286.676 664.638 285.968 671.447C285.322 677.661 282.736 684.177 280.393 689.932L262.056 726.975L240.417 762.302L239.183 762.305L236.434 758.138C239.3 754.462 241.37 750.186 243.651 746.136C254.57 726.756 264.412 706.514 271.548 685.42C275.429 673.945 274.882 661.282 282.775 651.249Z"/>
	<path fill="#FED31A" transform="scale(0.5 0.5)" d="M237.762 632.206C243.877 632.097 250.259 633.369 255.536 636.551C263.091 641.108 269.599 649.282 271.533 658.007L271.71 658.85L272.201 661.253C273.626 670.054 271.496 679.544 266.201 686.733C259.936 695.239 250.857 699.144 240.662 700.614C233.047 700.773 227.027 699.747 220.441 695.749C212.919 691.183 207.608 684.592 205.548 675.928L205.335 675L204.663 671.623C203.529 661.943 206.005 651.62 212.312 644.073C219.05 636.009 227.591 633.038 237.762 632.206Z"/>
	<path fill="#F32C25" transform="scale(0.5 0.5)" d="M235.497 658.569C237.288 658.44 239.149 658.236 240.911 658.681C243.625 659.365 245.994 661.108 247.368 663.554C248.756 666.023 248.854 669.087 247.973 671.75C246.824 675.224 244.496 676.768 241.441 678.394L237.5 678.413C234.718 678.003 231.732 676.425 230.172 674.008C228.626 671.612 228.005 668.847 228.819 666.099C229.966 662.222 232.025 660.422 235.497 658.569Z"/>
	<path fill="#32E7F4" transform="scale(0.5 0.5)" d="M280.393 689.932C287.004 690.708 293.793 690.337 300.448 690.314L324.596 690.31C329.02 696.174 332.673 702.741 336.509 709L353.363 735.108C362.249 747.983 372.199 760.358 382.13 772.439C396.392 789.791 411.23 806.65 427.218 822.437L451.25 844.983C457.646 850.901 463.913 857.038 470.691 862.519L497.088 883.557C501.368 886.902 506.431 889.821 510.098 893.824C489.903 894.589 469.176 891.903 449.304 888.5C391.431 878.593 335.774 855.817 288.54 820.674C275.496 810.969 263.169 800.015 251.25 788.971L225.046 762.611C227.315 761.328 236.268 762.176 239.183 762.305L240.417 762.302L262.056 726.975L280.393 689.932Z"/>
	<path fill="white" transform="scale(0.5 0.5)" d="M402.056 838.75C403.244 838.516 404.622 838.301 405.789 838.71C407.453 839.293 409.007 840.979 409.653 842.596C410.292 844.193 410.086 846.455 409.319 847.984C408.378 849.859 407.177 850.67 405.25 851.362C404.361 851.456 403.387 851.567 402.5 851.419C400.748 851.129 398.938 849.725 398.002 848.25C396.927 846.554 396.962 844.784 397.57 842.935C398.266 840.818 400.194 839.69 402.056 838.75Z"/>
	<path fill="#008498" transform="scale(0.5 0.5)" d="M333.821 796.05C336.063 796.05 338.308 795.983 340.474 795.338C344.902 794.02 347.499 790.695 349.654 786.83C355.063 790.401 363.308 795.316 364.864 802.078C365.555 805.082 364.778 808.561 363.051 811.079C361.19 813.792 358.432 815.794 355.153 816.319C350.746 817.026 346.153 815.767 342.579 813.138C338.377 810.048 334.339 801.698 333.819 796.394L333.821 796.05Z"/>
	<path fill="#FEB939" transform="scale(0.5 0.5)" d="M321.504 784.69L321.483 780.293C321.675 776.586 324.083 772.432 326.85 770.058C329.708 767.608 333.549 765.694 337.412 766.086C342 766.55 345.223 769.075 348.133 772.417C350.19 775.764 351.677 779.281 350.698 783.288L349.654 786.83C347.499 790.695 344.902 794.02 340.474 795.338C338.308 795.983 336.063 796.05 333.821 796.05C332.505 795.774 331.277 795.456 330.047 794.897C325.445 792.807 323.28 789.147 321.504 784.69Z"/>
	<path fill="#FE9A37" transform="scale(0.5 0.5)" d="M321.504 784.69L322.477 784.234L323 783.906L324.009 784.457C325.482 787.296 327.874 789.613 330.887 790.74C334.288 792.011 337.727 792.389 341.085 790.78C345.821 788.511 347.814 783.566 347.635 778.591C347.576 776.954 347.143 774.612 347.809 773.091L348.133 772.417C350.19 775.764 351.677 779.281 350.698 783.288L349.654 786.83C347.499 790.695 344.902 794.02 340.474 795.338C338.308 795.983 336.063 796.05 333.821 796.05C332.505 795.774 331.277 795.456 330.047 794.897C325.445 792.807 323.28 789.147 321.504 784.69Z"/>
	<path fill="#64B8C3" transform="scale(0.5 0.5)" d="M262.056 726.975L262.673 727.331C264.77 728.439 269.265 727.905 271.671 727.918L296.25 727.998C301.762 727.998 308.649 727.103 313.829 729.081C318.081 730.704 321.548 734.651 323.12 738.849C324.799 743.336 324.312 748.057 322.236 752.309C320.192 756.494 316.319 759.846 311.931 761.345C306.903 763.064 298.443 762.038 293.102 762.053L259.083 762.134C252.907 762.148 246.574 761.864 240.417 762.302L262.056 726.975Z"/>
	<path fill="#32E7F4" transform="scale(0.5 0.5)" d="M893.531 538.75L894.254 539.124C892.972 565.446 887.079 591.46 879.316 616.574C874.252 632.956 868.694 649.14 861.758 664.836C854.799 680.58 846.603 695.01 837.529 709.585C825.924 728.225 813.344 745.832 798.462 762.016C787.485 773.955 775.943 785.836 763.727 796.514C715.528 838.642 656.561 870.033 593.974 884.102C568.071 889.924 542.227 892.632 515.75 893.766C514.833 893.599 515.32 893.746 514.314 893.25C519.804 887.9 527.254 883.749 533.414 879.115L565.747 853.59C600.326 826.685 633.034 795.717 660.061 761.116C677 739.429 692.863 717.164 706.932 693.494L732.689 646.413L740.107 631.001C740.706 629.756 741.544 627.114 742.396 626.249C743.496 625.133 749.78 623.99 751.5 623.525L780.68 615.155C806.556 606.547 829.789 594.357 851.981 578.558C867.729 567.347 882.472 554.769 893.531 538.75Z"/>
	<path fill="#339F53" transform="scale(0.5 0.5)" d="M697.151 771.763C700.635 770.824 705.199 771.55 708.302 773.328C710.7 774.701 712.005 777.141 713.227 779.501C713.673 781.872 714.187 784.145 714.069 786.572L713.09 783.5C711.01 778.76 707.753 776.052 703.012 774.251C702.202 773.973 701.879 773.645 701.368 772.986L700.808 772.25C699.515 771.937 698.495 771.739 697.151 771.763Z"/>
	<path fill="#80C828" transform="scale(0.5 0.5)" d="M697.151 771.763C698.495 771.739 699.515 771.937 700.808 772.25L701.368 772.986C701.879 773.645 702.202 773.973 703.012 774.251C697.755 774.441 693.697 774.961 690.035 779.204C688.934 780.479 688.183 782.03 687.437 783.528L686.765 781.5L687.25 781L686.855 780.35L686.347 781.149L685.622 780.006L686.34 778.795C689.024 774.832 692.517 772.667 697.151 771.763Z"/>
	<path fill="#339F53" transform="scale(0.5 0.5)" d="M685.622 780.006L686.347 781.149L686.855 780.35L687.25 781L686.765 781.5L687.437 783.528C686.419 787.961 686.275 791.397 688.831 795.468L690.819 798.099C694.516 800.638 697.496 801.592 701.964 802.139C698.479 803.065 695.44 803.065 691.853 802.897L689.173 800.765C686.664 798.157 684.395 794.637 683.667 791.044C682.95 787.502 683.667 783.044 685.622 780.006Z"/>
	<path fill="white" transform="scale(0.5 0.5)" d="M745.492 652.75C746.831 652.27 748.66 652.206 750.032 652.598C751.942 653.144 753.555 654.512 754.495 656.25C755.502 658.11 755.481 659.887 754.877 661.869C754.159 664.225 752.441 665.589 750.381 666.75C748.703 667.237 747.476 667.157 745.75 666.965C744.05 666.02 742.681 665.028 741.714 663.289C740.862 661.755 740.296 659.373 740.801 657.654C741.549 655.108 743.271 653.954 745.492 652.75Z"/>
	<path fill="white" transform="scale(0.5 0.5)" d="M857.087 606.537C858.884 606.467 860.489 606.611 862.173 607.308C863.638 607.915 865.255 609.87 865.829 611.315C866.667 613.427 866.685 615.495 865.785 617.583C864.64 620.237 862.731 621.175 860.179 622.247C858.899 622.225 857.541 622.235 856.3 621.891C853.979 621.246 851.759 619.498 850.814 617.25C850.125 615.61 850.069 613.312 850.764 611.66C851.869 609.034 854.639 607.612 857.087 606.537Z"/>
	<path fill="#008498" transform="scale(0.5 0.5)" d="M713.227 779.501C717.855 781.846 721.148 785.563 722.929 790.5C723.953 793.337 723.667 796.715 722.633 799.5L722.376 800.209C720.947 803.995 718.3 807.453 714.508 809.087C710.387 810.863 705.308 810.232 701.294 808.487C697.961 807.037 694.743 805.097 691.853 802.897C695.44 803.065 698.479 803.065 701.964 802.139C704.718 801.314 707.236 800.341 709.395 798.344C712.956 795.051 713.913 791.196 714.069 786.572C714.187 784.145 713.673 781.872 713.227 779.501Z"/>
	<path fill="#FED31A" transform="scale(0.5 0.5)" d="M687.437 783.528C688.183 782.03 688.934 780.479 690.035 779.204C693.697 774.961 697.755 774.441 703.012 774.251C707.753 776.052 711.01 778.76 713.09 783.5L714.069 786.572C713.913 791.196 712.956 795.051 709.395 798.344C707.236 800.341 704.718 801.314 701.964 802.139C697.496 801.592 694.516 800.638 690.819 798.099L688.831 795.468C686.275 791.397 686.419 787.961 687.437 783.528Z"/>
	<path fill="#00AEE3" transform="scale(0.5 0.5)" d="M810.297 643.066C812.855 642.899 815.544 642.701 818 643.562C822.043 644.979 824.928 647.974 826.579 651.889C827.883 654.982 827.76 658.93 826.427 662C824.496 666.445 820.902 668.611 816.564 670.285C813.119 670.754 809.526 670.594 806.362 669.036C803.183 667.471 800.784 664.066 799.77 660.75C798.754 657.425 799.13 652.603 800.943 649.603C803.077 646.072 806.453 644.152 810.297 643.066Z"/>
	<path fill="white" transform="scale(0.5 0.5)" d="M620.079 820.06C624.201 819.627 626.939 820.278 630.566 822.212L631.15 822.528L633.213 821.534C634.193 821.042 635.188 820.442 636.25 820.144C637.751 819.724 639.639 819.741 641 820.526C643.155 821.769 644.609 823.982 645.241 826.334L645.346 826.75C646.052 827.114 646.677 827.502 647.282 828.021C649.011 829.502 649.955 830.628 650.05 832.963C650.151 835.425 649.529 837.855 647.814 839.687C645.121 842.564 641.24 842.038 637.625 842.075C632.768 842.125 610.625 843.418 607.5 841.934C606.302 841.364 605.419 840.228 604.967 839C604.282 837.137 604.487 835.312 605.411 833.573C606.417 831.679 608.587 830.983 610.474 830.356L611.121 830.147C613.213 825.043 614.995 822.536 620.079 820.06Z"/>
	<path fill="white" transform="scale(0.5 0.5)" d="M442.07 531.48C448.241 531.864 455.3 532.249 461.229 533.951C463.816 534.728 472.279 536.615 474.564 535.75C474.556 534.685 474.526 533.689 474.795 532.647L474.976 532.075L478.129 531.838L484.011 531.902L504.4 531.64L520.835 531.608L523.94 531.517C525.937 531.504 528.132 531.682 530.099 531.386L531.616 531.765L546.645 531.809C548.251 531.827 550.974 531.484 552.464 531.938L563.625 531.83C564.077 531.825 566.431 531.624 566.75 531.799C567.043 531.961 567.23 532.266 567.469 532.5L567.467 536.958L567.399 558.985L567.121 606.841L577.395 606.918C580.197 599.792 581.443 591.385 583.57 583.964C584.187 581.81 584.57 579.181 585.673 577.25L586.27 579.864C588.758 588.701 590.529 598.08 593.885 606.62L595.542 612.523L600.107 627.517L602.192 634.404L616.867 681.833L619.622 691.635L628.409 720.009C626.247 721.05 624.039 721.995 622.085 723.404C610.869 719.933 598.17 719.336 586.499 719.481C577.588 720.092 568.798 720.639 559.966 722.071C553.84 723.065 547.795 724.751 541.725 726.045C518.183 734.049 489.612 746.738 477.969 770.341C472.485 781.457 470.925 794.307 475.081 806.143C478.899 817.015 486.143 827.615 495.326 834.636L491.336 837.67L477.787 846.881L474.638 848.872L467.5 853.276C465.641 851.061 462.606 848.95 460.391 847.008C453.956 841.366 447.259 835.792 441.346 829.604C441.687 826.932 440.178 825.795 439.331 823.417C438.544 821.207 437.892 818.891 437.31 816.621C433.38 801.301 431.507 785.222 426.07 770.308C425.045 773.976 426.811 781.407 427.22 785.299L415.006 767.954L414.075 767.353L412.525 765.173C419.11 764.883 426.715 766.109 433.088 764.403C439.212 762.764 444.196 757.901 447.25 752.502C450.875 746.094 451.486 738.752 449.06 731.841C448.218 729.442 446.885 727.376 446.239 724.88L446.128 724.432C445.776 723.634 444.551 722.579 443.889 721.919C440.632 718.671 436.262 716.722 431.786 715.841C426.245 714.751 419.281 715.43 413.597 715.433L375.165 715.514C374.303 713.654 372.207 706.432 370.91 705.75C371.695 708.265 373.671 712.257 373.591 714.832L373.552 715.498L371.25 715.411C367.129 712.198 363.514 705.03 360.665 700.543L360.27 699.974L357.537 696.107L356.902 695.452C355.501 693.876 354.346 692.238 353.193 690.475L352.157 690.299C348.564 691.059 343.879 690.529 340.155 690.552C337.528 690.59 332.977 690.073 330.64 691.004C328.524 688.189 326.871 684.508 325.121 681.429L309.572 652.077C306.912 647.688 304.914 642.796 302.84 638.107L292.891 613.84L291.934 611.019C278.487 612.425 265.404 613.166 251.956 611.501C254.177 603.283 256.979 597.872 263.95 592.911L265.568 592.107C270.925 589.647 273.868 590.629 279.04 592.471L279.617 592.436C280.109 592.104 280.439 591.816 280.786 591.33L281.551 590.298C284.482 586.806 290.754 585.255 295.113 584.867C298.115 584.979 301.086 584.995 304.012 585.751L311.479 587.797C313.945 589.004 316.268 590.315 318.41 592.048C318.797 590.816 320.282 589.188 321.072 588.156C323.978 584.36 327.074 581.019 330.507 577.697C333.178 575.461 338.083 571.703 339.614 568.604L347.828 562.227L362.719 552.347L366.652 550.285L384.842 541.186L387.299 540.372C390.068 539.872 393.011 538.999 395.509 537.701C397.388 536.627 400.85 536.041 402.994 535.4C416.291 532.143 428.437 531.403 442.07 531.48Z"/>
	<path fill="#378818" transform="scale(0.5 0.5)" d="M491.336 837.67C482.01 828.381 474.056 819.419 469.944 806.582C465.97 794.172 467.291 780.737 473.218 769.172C486.561 743.138 516.001 729.222 542.507 720.588C543.048 722.342 542.268 724.347 541.725 726.045C518.183 734.049 489.612 746.738 477.969 770.341C472.485 781.457 470.925 794.307 475.081 806.143C478.899 817.015 486.143 827.615 495.326 834.636L491.336 837.67Z"/>
	<path fill="#008498" transform="scale(0.5 0.5)" d="M352.576 613.455C353.402 611.431 351.066 606.611 350.582 604.336L350.409 603.5C349.276 598.261 349.311 593.288 350.804 588.126C353.879 577.491 360.891 569.736 370.512 564.467C377.112 560.851 387.341 557.73 394.808 559.895C381.107 560.996 368.492 565.234 359.338 575.985C354.319 581.881 350.965 589.842 351.717 597.694C352.46 605.447 356.02 613.142 362.25 618.004C365.036 620.178 368.43 621.731 371.897 622.426C375.527 623.153 379.218 623.194 382.592 624.841L383.359 625.208C387.997 627.542 391.27 631.925 392.825 636.799C394.291 641.397 393.415 646.106 391.063 650.253C388.708 654.405 384.98 657.583 380.323 658.802C376.865 659.707 373.187 659.47 369.638 659.474C363.248 659.483 355.681 660.325 350.013 656.929C347.55 655.454 345.153 652.82 344.59 649.918C342.853 640.968 347.236 629.087 338.75 622.538C336.583 620.865 329.94 617.683 327.1 617.891L328.254 617.547C330.137 615.069 330.023 614.353 330.101 611.364L330.75 614.574C338.201 616.875 344.326 616.803 348.276 624.922C351.754 632.07 346.889 649.687 354.607 652.782C356.624 653.591 360.025 653.433 362.166 653.452C367.139 653.496 377.523 654.64 381.506 652.173L381.938 651.886L382.414 651.579C385.064 649.782 386.999 646.579 387.447 643.407L387.535 638.945C387.245 637.466 386.991 635.953 386.136 634.681C384.033 631.551 380.487 629.803 376.896 629.011C373.392 628.238 369.22 627.67 365.96 626.142C362.581 624.557 359.982 622.274 357.563 619.462C356.166 617.838 354.403 614.256 352.576 613.455Z"/>
	<path fill="#32E7F4" transform="scale(0.5 0.5)" d="M327.582 602.645C330.848 603.684 333.796 605.755 336.901 607.218C340.564 608.943 345.07 610.307 348.412 612.444L352.576 613.455C354.403 614.256 356.166 617.838 357.563 619.462C359.982 622.274 362.581 624.557 365.96 626.142C369.22 627.67 373.392 628.238 376.896 629.011C380.487 629.803 384.033 631.551 386.136 634.681C386.991 635.953 387.245 637.466 387.535 638.945L387.447 643.407C386.999 646.579 385.064 649.782 382.414 651.579L381.938 651.886L381.506 652.173C377.523 654.64 367.139 653.496 362.166 653.452C360.025 653.433 356.624 653.591 354.607 652.782C346.889 649.687 351.754 632.07 348.276 624.922C344.326 616.803 338.201 616.875 330.75 614.574L330.101 611.364L327.582 602.645Z"/>
	<path fill="#00C2C4" transform="scale(0.5 0.5)" d="M348.412 612.444L352.576 613.455C354.403 614.256 356.166 617.838 357.563 619.462C359.982 622.274 362.581 624.557 365.96 626.142C369.22 627.67 373.392 628.238 376.896 629.011C380.487 629.803 384.033 631.551 386.136 634.681C386.991 635.953 387.245 637.466 387.535 638.945C385.486 637.11 383.614 634.802 381.341 633.27C376.567 630.052 370.121 631.275 364.974 629.071C359.937 626.915 356.355 622.641 352.855 618.612C351.106 616.599 349.425 614.968 348.412 612.444Z"/>
	<path fill="#C7C9C6" transform="scale(0.5 0.5)" d="M292.891 613.84C294.906 613.955 304.899 613.953 305.857 614.748L304.943 615.5C307.71 623.549 313.284 631.634 317.721 638.901L331.396 661.615L342.891 677.7C345.801 681.806 348.609 686.741 352.157 690.299C348.564 691.059 343.879 690.529 340.155 690.552C337.528 690.59 332.977 690.073 330.64 691.004C328.524 688.189 326.871 684.508 325.121 681.429L309.572 652.077C306.912 647.688 304.914 642.796 302.84 638.107L292.891 613.84Z"/>
	<path fill="#B4A396" transform="scale(0.5 0.5)" d="M309.572 652.077C311.518 650.811 314.029 649.254 316.415 649.652C319.339 651.107 321.804 657.539 323.425 660.5L332.334 676.954C334.742 681.551 337.036 686.392 340.155 690.552C337.528 690.59 332.977 690.073 330.64 691.004C328.524 688.189 326.871 684.508 325.121 681.429L309.572 652.077Z"/>
	<path fill="#66A11F" transform="scale(0.5 0.5)" d="M295.113 584.867C298.115 584.979 301.086 584.995 304.012 585.751L311.479 587.797C313.945 589.004 316.268 590.315 318.41 592.048C318.807 592.401 319.187 592.869 319.7 593.026C320.358 593.503 321.303 593.992 321.666 594.72L327.582 602.645L330.101 611.364C330.023 614.353 330.137 615.069 328.254 617.547L327.1 617.891L323.482 617.15L305.857 614.748C304.899 613.953 294.906 613.955 292.891 613.84L291.934 611.019C278.487 612.425 265.404 613.166 251.956 611.501C254.177 603.283 256.979 597.872 263.95 592.911L265.568 592.107C270.925 589.647 273.868 590.629 279.04 592.471L279.617 592.436C280.109 592.104 280.439 591.816 280.786 591.33L281.551 590.298C284.482 586.806 290.754 585.255 295.113 584.867Z"/>
	<path fill="#378818" transform="scale(0.5 0.5)" d="M304.012 585.751L311.479 587.797C313.945 589.004 316.268 590.315 318.41 592.048C318.807 592.401 319.187 592.869 319.7 593.026C320.358 593.503 321.303 593.992 321.666 594.72L327.582 602.645L330.101 611.364C330.023 614.353 330.137 615.069 328.254 617.547L327.1 617.891L323.482 617.15L305.857 614.748C304.899 613.953 294.906 613.955 292.891 613.84L291.934 611.019L291.911 610.416C291.95 607.781 293.105 604.942 294.042 602.5C296.457 596.214 299.104 590.454 304.012 585.751Z"/>
	<path fill="#007654" transform="scale(0.5 0.5)" d="M321.666 594.72L327.582 602.645L330.101 611.364C330.023 614.353 330.137 615.069 328.254 617.547L327.1 617.891L323.482 617.15L324.794 613.822C326.073 609.424 325.056 603.221 323.02 599.228L321.28 595.75L321.666 594.72Z"/>
	<defs>
		<linearGradient id="gradient_2" gradientUnits="userSpaceOnUse" x1="431.53452" y1="689.69037" x2="430.12216" y2="753.28088">
			<stop offset="0" stop-color="#008B95"/>
			<stop offset="1" stop-color="#00BDB6"/>
		</linearGradient>
	</defs>
	<path fill="url(#gradient_2)" transform="scale(0.5 0.5)" d="M353.193 690.475L449.291 690.35L475.834 690.231C480.972 690.193 486.446 689.802 491.537 690.54C496.039 691.192 499.586 693.271 502.797 696.425C506.504 700.068 509.315 704.93 509.45 710.25C509.61 716.52 507.282 722.379 502.859 726.81C497.343 732.334 489.527 735.017 482.873 738.854C477.982 741.674 473.654 745.253 469.368 748.896L468.811 748.429L462.875 754.375L462.607 753.857L466.199 749.483L465.664 748.871C471.909 740.092 481.101 732.869 490.836 728.394C496.552 725.767 500 722.748 502.731 717.041C502.334 714.533 501.95 712.132 500.817 709.825C498.867 705.853 495.879 702.275 491.527 700.93L490.903 700.75L490.277 700.558C485.529 699.236 478.856 700.005 473.903 700.009L441.864 700.047L362.539 699.944C361.802 699.966 361.292 700.179 360.665 700.543L360.27 699.974L357.537 696.107L356.902 695.452C355.501 693.876 354.346 692.238 353.193 690.475Z"/>
	<defs>
		<linearGradient id="gradient_3" gradientUnits="userSpaceOnUse" x1="430.8696" y1="695.75928" x2="430.65399" y2="711.51685">
			<stop offset="0" stop-color="#00B9BA"/>
			<stop offset="1" stop-color="#00D7D0"/>
		</linearGradient>
	</defs>
	<path fill="url(#gradient_3)" transform="scale(0.5 0.5)" d="M357.537 696.107C364.058 695.431 371.068 695.993 377.645 696.012L415.849 695.996L462.942 695.961C470.81 695.955 479.1 695.435 486.928 696.087C490.528 696.387 494.578 697.413 497.45 699.689C500.648 702.224 502.892 705.542 503.378 709.647C503.665 712.074 503.461 714.721 502.731 717.041C502.334 714.533 501.95 712.132 500.817 709.825C498.867 705.853 495.879 702.275 491.527 700.93L490.903 700.75L490.277 700.558C485.529 699.236 478.856 700.005 473.903 700.009L441.864 700.047L362.539 699.944C361.802 699.966 361.292 700.179 360.665 700.543L360.27 699.974L357.537 696.107Z"/>
	<path fill="#008498" transform="scale(0.5 0.5)" d="M552.306 690.934C516.87 691.149 531.315 667.604 507.945 662.102C502.548 660.831 496.46 661.341 490.941 661.386L464.813 661.585C460.955 661.61 456.543 662.01 452.76 661.231C450.052 660.674 447.291 659.068 445.201 657.297C441.599 654.246 438.662 649.576 438.455 644.76C438.268 640.423 441.021 635.82 443.943 632.8C446.449 630.21 449.745 628.221 453.325 627.63C456.751 627.065 460.829 627.452 464.326 627.456L487.519 627.502L571.275 627.596L568.28 638.166L567.682 638.214C557.947 638.923 547.829 638.389 538.056 638.379L482.14 638.37L464.736 638.382C461.681 638.382 458.26 638.062 455.25 638.456C453.368 638.702 451.534 639.938 450.335 641.381C448.874 643.14 448.184 645.076 448.483 647.36C448.752 649.414 450.39 651.502 452.038 652.708C453.233 653.582 454.367 654.079 455.84 654.308C460.169 654.98 465.214 654.502 469.611 654.506L499.138 654.507C504.455 654.507 510.355 653.913 515.414 655.75C521.337 657.901 525.013 661.633 528.324 666.815C532.071 671.953 534.24 678.216 540.5 680.976L541.158 681.27C545.052 682.863 550.664 682.324 554.836 682.177L554.035 685.337L552.306 690.934Z"/>
	<defs>
		<linearGradient id="gradient_4" gradientUnits="userSpaceOnUse" x1="547.58173" y1="687.44861" x2="535.28851" y2="668.13403">
			<stop offset="0" stop-color="#00AEB7"/>
			<stop offset="1" stop-color="#00CCD4"/>
		</linearGradient>
	</defs>
	<path fill="url(#gradient_4)" transform="scale(0.5 0.5)" d="M528.324 666.815C532.071 671.953 534.24 678.216 540.5 680.976L541.158 681.27C545.052 682.863 550.664 682.324 554.836 682.177L554.035 685.337C549.82 685.203 545.055 685.937 541.038 684.634C534.275 682.44 532.028 677.413 528.963 671.5C528.047 669.734 528.058 668.798 528.324 666.815Z"/>
	<path fill="#32E7F4" transform="scale(0.5 0.5)" d="M528.324 666.815C525.013 661.633 521.337 657.901 515.414 655.75C510.355 653.913 504.455 654.507 499.138 654.507L469.611 654.506C465.214 654.502 460.169 654.98 455.84 654.308C454.367 654.079 453.233 653.582 452.038 652.708C450.39 651.502 448.752 649.414 448.483 647.36C448.184 645.076 448.874 643.14 450.335 641.381C451.534 639.938 453.368 638.702 455.25 638.456C458.26 638.062 461.681 638.382 464.736 638.382L482.14 638.37L538.056 638.379C547.829 638.389 557.947 638.923 567.682 638.214L568.28 638.166L554.836 682.177C550.664 682.324 545.052 682.863 541.158 681.27L540.5 680.976C534.24 678.216 532.071 671.953 528.324 666.815Z"/>
	<path fill="#008498" transform="scale(0.5 0.5)" d="M575.93 611.886L529.132 611.902L449.118 611.829L414.1 611.919C408.49 611.931 402.301 612.46 396.755 611.683L396 611.566C393.607 611.213 391.387 610.532 389.25 609.386C385.265 607.248 381.906 603.314 380.75 598.923C379.48 594.1 380.491 588.65 383.042 584.421C386.078 579.389 391.305 575.885 396.965 574.484L397.83 574.281C401.667 573.363 405.566 573.571 409.484 573.573L425.735 573.618L475.058 573.66L475.014 578.879L474.989 583.034L474.947 606.162L475.609 607.32L531.587 607.047L567.121 606.841L577.395 606.918L575.93 611.886Z"/>
	<path fill="#00C2C4" transform="scale(0.5 0.5)" d="M392.933 604.434C391.984 604.277 390.803 604.296 390.061 603.677C388.145 602.08 386.392 599.856 386.269 597.25C386.046 592.536 387.877 588.293 391.051 584.871C393.589 582.135 396.895 580.436 400.541 579.75C406.719 578.587 414.37 579.256 420.688 579.177L475.014 578.879L474.989 583.034L423.243 582.829L409.121 582.838C406.527 582.858 403.487 582.657 400.962 583.177C398.489 583.686 396.053 585.249 394.25 586.974C391.42 589.681 389.313 593.527 389.354 597.509C389.385 600.433 391.104 602.344 392.933 604.434Z"/>
	<path fill="#32E7F4" transform="scale(0.5 0.5)" d="M392.933 604.434C391.104 602.344 389.385 600.433 389.354 597.509C389.313 593.527 391.42 589.681 394.25 586.974C396.053 585.249 398.489 583.686 400.962 583.177C403.487 582.657 406.527 582.858 409.121 582.838L423.243 582.829L474.989 583.034L474.947 606.162C471.537 604.706 464.635 605.591 460.845 605.599L419.745 605.637L403.684 605.624C400.043 605.617 396.352 605.903 392.933 604.434Z"/>
	<path fill="#80C828" transform="scale(0.5 0.5)" d="M442.07 531.48C448.241 531.864 455.3 532.249 461.229 533.951C463.816 534.728 472.279 536.615 474.564 535.75C474.556 534.685 474.526 533.689 474.795 532.647L474.976 532.075L475.02 541.355L475.11 560.006L394.808 559.895C387.341 557.73 377.112 560.851 370.512 564.467C360.891 569.736 353.879 577.491 350.804 588.126C349.311 593.288 349.276 598.261 350.409 603.5L350.582 604.336C351.066 606.611 353.402 611.431 352.576 613.455L348.412 612.444C345.07 610.307 340.564 608.943 336.901 607.218C333.796 605.755 330.848 603.684 327.582 602.645L321.666 594.72C321.303 593.992 320.358 593.503 319.7 593.026C319.187 592.869 318.807 592.401 318.41 592.048C318.797 590.816 320.282 589.188 321.072 588.156C323.978 584.36 327.074 581.019 330.507 577.697C333.178 575.461 338.083 571.703 339.614 568.604L347.828 562.227L362.719 552.347L366.652 550.285L384.842 541.186L387.299 540.372C390.068 539.872 393.011 538.999 395.509 537.701C397.388 536.627 400.85 536.041 402.994 535.4C416.291 532.143 428.437 531.403 442.07 531.48Z"/>
	<path fill="#378818" transform="scale(0.5 0.5)" d="M442.07 531.48C448.241 531.864 455.3 532.249 461.229 533.951C463.816 534.728 472.279 536.615 474.564 535.75C474.556 534.685 474.526 533.689 474.795 532.647L474.976 532.075L475.02 541.355C467.758 539.817 460.495 537.932 453.14 536.903C436.578 534.586 421.235 536.225 405.043 540.058C397.315 541.887 389.463 543.842 382.082 546.816L370.5 552.021C369.462 552.534 366.648 554.332 365.648 554.321C356.19 560.1 345.508 566.64 337.434 574.311L325.092 586.854C323.263 588.84 321.623 591.169 319.7 593.026C319.187 592.869 318.807 592.401 318.41 592.048C318.797 590.816 320.282 589.188 321.072 588.156C323.978 584.36 327.074 581.019 330.507 577.697C333.178 575.461 338.083 571.703 339.614 568.604L347.828 562.227L362.719 552.347L366.652 550.285L384.842 541.186L387.299 540.372C390.068 539.872 393.011 538.999 395.509 537.701C397.388 536.627 400.85 536.041 402.994 535.4C416.291 532.143 428.437 531.403 442.07 531.48Z"/>
	<path fill="#339F53" transform="scale(0.5 0.5)" d="M362.719 552.347L366.652 550.285L366.342 550.715C365.166 552.29 364.266 552.883 362.583 553.804C357.548 556.559 352.657 560.206 348.031 563.606C345.475 565.485 342.861 567.071 340.627 569.357L340.75 570C341.412 569.672 341.742 569.28 342.25 568.755L343 568.75L343.492 568.227C344.134 567.585 344.535 567.467 345.25 567L347.086 565.47C348.362 564.339 346.736 565.748 348.5 564.5L349.062 563.986C349.818 563.315 349.433 563.558 350.5 563.25L351.75 561.755L352.5 561.75L352.945 561.276C353.778 560.448 353.21 560.968 354.375 560.375C355.513 559.796 356.641 558.909 357.609 558.082C358.219 557.562 358.728 557.473 359.5 557.25L359.828 556.891C360.375 556.344 360.162 556.529 361 556.25L361.75 555.255L362.5 555.25C363.747 555.03 364.118 554.272 365.648 554.321C356.19 560.1 345.508 566.64 337.434 574.311L325.092 586.854C323.263 588.84 321.623 591.169 319.7 593.026C319.187 592.869 318.807 592.401 318.41 592.048C318.797 590.816 320.282 589.188 321.072 588.156C323.978 584.36 327.074 581.019 330.507 577.697C333.178 575.461 338.083 571.703 339.614 568.604L347.828 562.227L362.719 552.347Z"/>
	<path fill="#32E7F4" transform="scale(0.5 0.5)" d="M360.665 700.543C361.292 700.179 361.802 699.966 362.539 699.944L441.864 700.047L473.903 700.009C478.856 700.005 485.529 699.236 490.277 700.558L490.903 700.75L491.527 700.93C495.879 702.275 498.867 705.853 500.817 709.825C501.95 712.132 502.334 714.533 502.731 717.041C500 722.748 496.552 725.767 490.836 728.394C481.101 732.869 471.909 740.092 465.664 748.871L466.199 749.483L462.607 753.857L462.875 754.375L468.811 748.429L469.368 748.896C457.427 761.176 448.278 775.861 448.498 793.557C448.554 798.122 449.469 802.667 450.671 807.059C454.744 818.858 460.444 827.999 468.557 837.463C471.407 840.788 474.242 844.273 477.787 846.881L474.638 848.872L467.5 853.276C465.641 851.061 462.606 848.95 460.391 847.008C453.956 841.366 447.259 835.792 441.346 829.604C441.687 826.932 440.178 825.795 439.331 823.417C438.544 821.207 437.892 818.891 437.31 816.621C433.38 801.301 431.507 785.222 426.07 770.308C425.045 773.976 426.811 781.407 427.22 785.299L415.006 767.954L414.075 767.353L412.525 765.173C419.11 764.883 426.715 766.109 433.088 764.403C439.212 762.764 444.196 757.901 447.25 752.502C450.875 746.094 451.486 738.752 449.06 731.841C448.218 729.442 446.885 727.376 446.239 724.88L446.128 724.432C445.776 723.634 444.551 722.579 443.889 721.919C440.632 718.671 436.262 716.722 431.786 715.841C426.245 714.751 419.281 715.43 413.597 715.433L375.165 715.514C374.303 713.654 372.207 706.432 370.91 705.75C371.695 708.265 373.671 712.257 373.591 714.832L373.552 715.498L371.25 715.411C367.129 712.198 363.514 705.03 360.665 700.543Z"/>
	<path fill="#00C2C4" transform="scale(0.5 0.5)" d="M446.128 724.432C450.5 728.477 453.284 733.847 453.502 739.89C453.789 747.868 451.816 754.714 446.14 760.64C439.939 767.114 433.548 767.981 425.023 767.99L415.006 767.954L414.075 767.353L412.525 765.173C419.11 764.883 426.715 766.109 433.088 764.403C439.212 762.764 444.196 757.901 447.25 752.502C450.875 746.094 451.486 738.752 449.06 731.841C448.218 729.442 446.885 727.376 446.239 724.88L446.128 724.432Z"/>
	<path fill="#008498" transform="scale(0.5 0.5)" d="M465.664 748.871L466.199 749.483L462.607 753.857L462.875 754.375L468.811 748.429L469.368 748.896C457.427 761.176 448.278 775.861 448.498 793.557C448.554 798.122 449.469 802.667 450.671 807.059C454.744 818.858 460.444 827.999 468.557 837.463C471.407 840.788 474.242 844.273 477.787 846.881L474.638 848.872C463.179 838.891 454.233 823.115 449.016 809.036C447.489 804.917 446.653 799.472 446.495 795.069C445.859 777.405 453.698 761.577 465.664 748.871Z"/>
	<path fill="#66A11F" transform="scale(0.5 0.5)" d="M577.395 606.918C580.197 599.792 581.443 591.385 583.57 583.964C584.187 581.81 584.57 579.181 585.673 577.25L586.27 579.864C588.758 588.701 590.529 598.08 593.885 606.62L595.542 612.523L600.107 627.517L602.192 634.404L616.867 681.833L619.622 691.635L628.409 720.009C626.247 721.05 624.039 721.995 622.085 723.404C610.869 719.933 598.17 719.336 586.499 719.481C577.588 720.092 568.798 720.639 559.966 722.071C553.84 723.065 547.795 724.751 541.725 726.045C542.268 724.347 543.048 722.342 542.507 720.588C544.328 719.066 550.782 695.796 552.306 690.934L554.035 685.337L554.836 682.177L568.28 638.166L571.275 627.596L575.93 611.886L577.395 606.918Z"/>
	<path fill="#266507" transform="scale(0.5 0.5)" d="M586.499 719.481L586.439 683.243L586.027 628.035C585.983 612.184 584.368 595.587 586.27 579.864C588.758 588.701 590.529 598.08 593.885 606.62L595.542 612.523L600.107 627.517L602.192 634.404L616.867 681.833L619.622 691.635L628.409 720.009C626.247 721.05 624.039 721.995 622.085 723.404C610.869 719.933 598.17 719.336 586.499 719.481Z"/>
	<path fill="#FEB939" transform="scale(0.5 0.5)" d="M523.94 531.517C525.937 531.504 528.132 531.682 530.099 531.386L531.616 531.765L546.645 531.809C548.251 531.827 550.974 531.484 552.464 531.938L563.625 531.83C564.077 531.825 566.431 531.624 566.75 531.799C567.043 531.961 567.23 532.266 567.469 532.5L567.467 536.958L567.399 558.985L567.121 606.841L531.587 607.047L475.609 607.32L474.947 606.162L474.989 583.034L475.014 578.879L475.058 573.66L475.11 560.006L475.02 541.355L474.976 532.075L478.129 531.838L484.011 531.902L504.4 531.64L520.835 531.608L523.94 531.517Z"/>
	<path fill="white" transform="scale(0.5 0.5)" d="M497.594 580.25C498.837 580.147 500.232 580.362 501.181 581.25C502.244 582.245 502.331 583.408 502.472 584.75C501.722 586.592 501.589 586.976 499.954 588.25L497.75 588.53C497.067 588.217 496.44 587.936 495.957 587.332C495.143 586.313 494.734 584.788 495.008 583.5C495.373 581.786 496.301 581.199 497.594 580.25Z"/>
	<path fill="white" transform="scale(0.5 0.5)" d="M496.607 547.75C497.48 547.487 498.34 547.511 499.25 547.464C500.001 547.787 500.616 548.079 501.166 548.708C503.18 551.014 502.576 554.202 502.568 557.067L502.4 568.537C502.252 570.982 502.146 572.424 500.25 574.097C499.619 574.292 498.9 574.386 498.25 574.514C497.168 574.214 496.463 573.985 495.684 573.137C495.263 572.679 494.82 572.105 494.644 571.501C494.114 569.69 494.441 566.897 494.431 564.954C494.41 560.478 494.096 555.698 494.489 551.25C494.649 549.434 495.373 548.911 496.607 547.75Z"/>
	<path fill="#FC643D" transform="scale(0.5 0.5)" d="M552.464 531.938L563.625 531.83C564.077 531.825 566.431 531.624 566.75 531.799C567.043 531.961 567.23 532.266 567.469 532.5L567.467 536.958L567.399 558.985L567.121 606.841L531.587 607.047L531.616 531.765L546.645 531.809C548.251 531.827 550.974 531.484 552.464 531.938Z"/>
</svg>
