<?xml version="1.0" encoding="utf-8" ?>
<svg xmlns="http://www.w3.org/2000/svg" xmlns:xlink="http://www.w3.org/1999/xlink" width="512" height="512">
	
	<path fill="#64B8C3" transform="scale(0.5 0.5)" d="M613.939 860.637C611.13 856.209 612.153 849.866 612.17 844.763L767.958 844.055L769.74 858.789C765.864 861.169 762.299 864.798 758.782 867.719L743.61 879.308C718.698 897.218 692.664 912.192 664.492 924.379C573.875 963.58 467.119 965.503 375.293 929.071C333.208 912.374 291.335 887.854 258.374 856.606L250.791 849.398C249.441 848.103 247.776 846.86 247.022 845.116L409.872 844.547L409.944 860.52L613.939 860.637Z"/>
	<path fill="#001E54" transform="scale(0.5 0.5)" d="M409.944 860.52L613.939 860.637L614.392 860.712C618.477 861.341 622.738 861.263 626.864 861.447C628.488 861.519 630.509 861.258 631.87 862.25L631.829 863.79L620.368 864.408L634.862 864.463L634.801 886.8L394.001 886.654L394.063 864.25L394.961 863.361L396.008 863.532C396.399 862.827 396.488 861.886 396.657 861.096C399.19 859.651 406.798 860.53 409.944 860.52Z"/>
	<path fill="white" transform="scale(0.5 0.5)" d="M409.944 860.52L613.939 860.637L614.392 860.712C618.477 861.341 622.738 861.263 626.864 861.447C628.488 861.519 630.509 861.258 631.87 862.25L631.829 863.79L620.368 864.408L396.766 864.522L396.008 863.532C396.399 862.827 396.488 861.886 396.657 861.096C399.19 859.651 406.798 860.53 409.944 860.52Z"/>
	<path fill="#001A4D" transform="scale(0.5 0.5)" d="M474.74 74.0353C483.424 71.6078 492.047 69.2449 501 68.0017C529.553 64.037 556.475 68.2761 583.387 78.1405C585.659 78.0429 587.35 78.1871 589.535 78.798C593.106 79.7963 596.872 80.2528 600.5 81.0428L615.691 85.0395C629.501 89.0124 642.775 93.9402 656.079 99.3442C665.431 103.143 674.874 107.098 683.798 111.827C686.388 113.2 690.065 114.67 692.142 116.709C706.586 111.912 721.112 111.635 734.957 118.494C748.044 124.977 759.7 137.767 764.277 151.716C765.07 154.133 765.573 156.818 765.778 159.35L765.814 159.363L766.25 158.085C775.687 165.147 784.009 173.116 792.354 181.406C802.535 191.52 812.551 202.212 821.47 213.469C829.388 204.748 839.114 198.168 851.25 197.494C861.823 196.906 872.67 200.769 880.556 207.852C887.466 214.057 892.125 223.805 892.714 233.066C895.369 231.778 897.848 230.536 900.75 229.906L901.346 229.764C908.327 228.241 916.721 230.761 922.518 234.693C929.787 239.623 933.557 246.827 935.216 255.298C935.96 259.099 935.56 263.289 934.581 267C932.537 274.755 928.387 281.577 921.377 285.827C916.849 288.573 912.405 290.063 907.076 290.084L879.17 290.38L898.898 320.48C913.096 344.591 924.716 370.522 933.231 397.164L941.831 427.888C955.459 439.869 964.245 452.829 965.421 471.414C966.43 487.347 960.741 501.428 950.128 513.187L949.389 513.985C950.144 522.006 949.237 530.453 948.639 538.469L943.788 581.316L953.356 589.488L946.218 596.592C944.82 594.431 942.995 592.779 941.144 591.02L940.913 601.654L940.497 601.927L940.224 602.568C939.133 611.426 936.343 620.509 934.437 629.265L919.716 692.791C929.999 696.389 937.326 700.326 944.924 708.311L938.526 714.723C932.041 708.576 925.588 704.355 917.224 701.175L913.773 710.622C920.231 712.433 926.5 716.219 930.922 721.291C929.085 723.42 927.307 725.453 925.168 727.291C921.568 723.965 918.466 721.245 914.037 719.079L911.518 727.313C914.133 729.672 916.458 731.946 916.55 735.728C916.622 738.669 915.367 741.071 913.25 743.062C911.881 744.35 910.35 744.996 908.591 745.574L908.121 745.684C906.4 746.063 904.995 746.068 903.25 745.894C901.951 749.656 901.254 753.643 900.211 757.487L893.983 777.219C892.846 780.311 891.733 783.897 890.06 786.732C894.181 790.876 898.527 794.971 902.142 799.57C911.855 811.926 916.516 826.439 916.501 842.079C916.482 861.712 908.265 882.167 894.34 896.093C880.569 909.866 861.9 918.331 842.313 918.194C822.745 918.059 803.572 910.826 789.942 896.536C779.964 886.074 773.144 872.777 769.74 858.789L767.958 844.055L612.17 844.763C612.153 849.866 611.13 856.209 613.939 860.637L409.944 860.52L409.872 844.547L247.022 845.116C246.738 845.494 246.308 845.798 246.17 846.25C246.004 846.791 246.174 848.285 246.175 848.909L246.193 857.093L246.323 895.388C246.347 902.074 247.121 909.697 245.844 916.219C245.13 919.867 243.518 923.247 240.951 925.94C236.988 930.096 232.472 932.021 226.75 932.127L188.238 932.214C181.813 932.213 173.655 933.071 167.415 931.682C164.203 930.967 161.373 929.256 159.072 926.926C156.224 924.042 153.937 920.182 153.274 916.147C152.688 912.577 152.981 908.589 152.979 904.959L152.997 886.196L152.98 817.287C141.373 803.712 131.371 789.975 122.43 774.49C120.38 770.938 117.918 767.341 116.419 763.522L111.364 762.694C98.5454 760.325 88.4392 751.271 81.3269 740.813C77.9108 735.009 75.8696 729.325 74.7588 722.682C73.1154 712.855 76.3204 700.94 82.176 692.983C89.833 682.578 100.768 676.858 113.341 674.911L94.7853 625.75C93.4177 621.136 87.2937 600.068 88.8568 597.192C78.0636 595.492 67.0326 587.768 60.3999 579.296C52.5196 569.23 48.6099 555.613 50.3088 542.916L50.4405 542C52.3191 528.315 58.633 519.526 68.1281 509.932C67.7841 505.192 68.4543 500.059 68.777 495.305C69.9108 478.601 72.4444 462.52 75.2098 446.039C68.345 442.958 62.6776 439.157 58.5752 432.683C54.0734 425.578 52.3651 417.263 54.2257 409.021C56.2881 399.885 61.4892 392.075 69.5381 387.118C78.1688 381.803 87.4789 380.992 97.1365 383.315C98.5564 381.781 98.9262 378.119 99.4784 376L102.94 364.434C108.237 348.507 114.626 333.002 121.833 317.844C123.471 314.401 125.023 309.807 127.609 307.039C126.692 303.38 125.322 299.873 124.525 296.171C121.624 282.687 121.64 268.598 124.222 255.058C128.657 231.796 141.848 209.803 161.661 196.466C177.972 185.488 197.3 179.679 217 180.064C224.332 180.208 231.142 181.413 238.31 182.802C240.913 179.251 244.689 175.961 247.883 172.919C260.748 160.666 275.242 149.686 290.054 139.909C338.038 108.236 392.278 86.8617 448.902 77.0678L464.75 74.5393C468.069 74.0584 471.407 73.356 474.74 74.0353Z"/>
	<path fill="#008498" transform="scale(0.5 0.5)" d="M251.861 774.413C253.004 776.213 253.508 778.059 254.386 779.976C255.948 783.39 257.651 786.661 258.725 790.281L258.419 791.079L246.739 774.072L251.861 774.413Z"/>
	<path fill="white" transform="scale(0.5 0.5)" d="M199.519 905.417C202.595 905.818 205.005 906.42 206.96 909.035C208.507 911.104 208.85 913.482 208.337 915.995C207.894 918.166 206.301 920.101 204.448 921.258C203.094 922.104 201.537 922.28 199.994 922.539C198.582 922.216 197.282 921.802 196.021 921.065C194.102 919.943 192.538 917.952 192.096 915.75C191.629 913.421 192.081 911.438 193.338 909.463C194.831 907.118 196.904 906.083 199.519 905.417Z"/>
	<path fill="white" transform="scale(0.5 0.5)" d="M432.745 814.25L433.374 814.015C435.518 813.489 438.954 813.904 441.241 813.907L461.653 813.962L549.887 814.172L582.198 814.198C585.099 814.199 590.818 813.404 593.25 814.69L593.297 817.25L592.69 817.955L433 818.061C432.229 816.808 432.628 815.684 432.745 814.25Z"/>
	<path fill="white" transform="scale(0.5 0.5)" d="M416.349 837.25C421.024 836.318 426.819 836.99 431.639 836.988L466.876 836.993L571.529 836.908L597.361 836.891C601.059 836.891 605.977 836.298 609.489 837.25C609.966 838.551 610.159 839.516 610.25 840.899C606.707 841.696 602.008 841.172 598.344 841.171L572.571 841.149L466.622 841.086L433.938 841.146C428.426 841.18 421.417 842.067 416.06 840.927C415.771 839.544 416.02 838.582 416.349 837.25Z"/>
	<path fill="#01366B" transform="scale(0.5 0.5)" d="M160.854 778.623C160.458 773.434 160.602 767.519 163.663 763.106C168.569 756.034 178.494 753.879 186.457 752.312C190.661 751.484 194.804 751.441 199.072 751.343L199.255 777.928L199.314 778.655L160.854 778.623Z"/>
	<path fill="#01366B" transform="scale(0.5 0.5)" d="M160.893 896.082L199.327 896.306L199.519 905.417C196.904 906.083 194.831 907.118 193.338 909.463C192.081 911.438 191.629 913.421 192.096 915.75C192.538 917.952 194.102 919.943 196.021 921.065C197.282 921.802 198.582 922.216 199.994 922.539C199.832 924.266 199.871 924.43 198.75 925.728L166.5 925.914C164.327 925.661 162.911 924.486 161.589 922.838C159.297 919.98 160.172 915.034 160.271 911.613C160.42 906.447 160.203 901.212 160.893 896.082Z"/>
	<path fill="#008498" transform="scale(0.5 0.5)" d="M773.297 775.34L773.923 774.653C776.955 771.235 779.167 766.86 782.084 763.25C789.683 753.846 799.101 746.212 808.913 739.25L807.998 776.927C807.156 777.76 805.209 778.512 804.13 779.127C801.918 780.388 799.747 781.771 797.679 783.257C785.041 792.338 778.173 803.01 771.75 816.866L769.87 812.625C765.705 800.52 767.844 786.733 773.297 775.34Z"/>
	<path fill="#008498" transform="scale(0.5 0.5)" d="M269.566 707.903C276.414 711.703 279.928 720.462 282.69 727.359C281.991 728.417 281.424 729.219 281.045 730.448L282.11 733.247C285.144 743.865 286.216 755.244 284.482 766.226L278.043 791.464L270.205 746.5C269.288 755.186 270.125 763.798 270.69 772.479C271.535 785.474 272.362 798.813 270.878 811.791C267.361 805.677 263.69 799.206 261.426 792.509L259.25 792.263L258.419 791.079L258.725 790.281C257.651 786.661 255.948 783.39 254.386 779.976C253.508 778.059 253.004 776.213 251.861 774.413C248.508 764.165 246.461 752.735 247.745 741.943C248.934 731.945 251.875 719.067 259.287 711.712C262.585 708.441 265.131 707.972 269.566 707.903Z"/>
	<defs>
		<linearGradient id="gradient_0" gradientUnits="userSpaceOnUse" x1="280.23584" y1="744.8158" x2="248.07077" y2="743.3963">
			<stop offset="0" stop-color="#022E59"/>
			<stop offset="1" stop-color="#004B60"/>
		</linearGradient>
	</defs>
	<path fill="url(#gradient_0)" transform="scale(0.5 0.5)" d="M269.566 707.903C276.414 711.703 279.928 720.462 282.69 727.359C281.991 728.417 281.424 729.219 281.045 730.448L276.25 719.417C274.859 716.743 271.964 711.695 268.922 710.794C267.138 710.266 264.835 710.861 263.293 711.842C256.678 716.053 252.866 728.128 251.522 735.5L250.781 740.919C248.5 758.136 255.298 776.714 261.426 792.509L259.25 792.263L258.419 791.079L258.725 790.281C257.651 786.661 255.948 783.39 254.386 779.976C253.508 778.059 253.004 776.213 251.861 774.413C248.508 764.165 246.461 752.735 247.745 741.943C248.934 731.945 251.875 719.067 259.287 711.712C262.585 708.441 265.131 707.972 269.566 707.903Z"/>
	<defs>
		<linearGradient id="gradient_1" gradientUnits="userSpaceOnUse" x1="822.71881" y1="388.88043" x2="888.42627" y2="334.00385">
			<stop offset="0" stop-color="#003A68"/>
			<stop offset="1" stop-color="#004D6F"/>
		</linearGradient>
	</defs>
	<path fill="url(#gradient_1)" transform="scale(0.5 0.5)" d="M829.157 325.064L863.334 324.602C868.255 324.602 874.011 324.124 878.823 325.1C881.002 325.542 883.083 326.607 884.698 328.143C885.729 329.122 887.436 331.23 887.897 332.515C888.17 333.277 887.973 334.903 887.996 335.79L888.089 344.282L887.922 382.75C887.853 387.361 887.873 391.365 884.435 394.854C883.387 395.917 880.96 398.084 879.541 398.449C877.047 399.09 872.715 398.566 870.071 398.592L834.302 398.425C832.341 398.383 830.534 398.295 828.62 397.808L827.862 397.619L827.411 397.486C829.647 395.878 831.655 394.214 833.37 392.043C841.533 381.708 846.535 366.181 844.809 353.062C843.393 342.304 837.727 331.691 829.157 325.064Z"/>
	<path fill="#EBA43D" transform="scale(0.5 0.5)" d="M863.004 342.552C864.584 342.444 866.687 342.165 868.207 342.617C870.582 343.324 872.596 345.62 873.503 347.844C874.349 349.919 874.461 352.682 873.532 354.75C872.161 357.801 870.07 358.987 867.026 360.073C865.552 360.101 863.997 360.193 862.547 359.883C860.108 359.361 858.063 357.874 856.812 355.687C855.667 353.687 855.759 351.123 856.462 349C857.564 345.674 859.999 344.075 863.004 342.552Z"/>
	<path fill="#EBA43D" transform="scale(0.5 0.5)" d="M861.962 365.589C863.835 365.346 865.978 365.225 867.84 365.54C870.061 365.917 872.246 367.683 873.353 369.598C874.603 371.76 874.692 374.395 874.05 376.75C873.197 379.881 871.145 381.357 868.417 382.869C866.563 383.102 864.584 383.256 862.75 382.793C860.793 382.299 858.723 380.915 857.673 379.175C856.326 376.943 855.784 374.025 856.509 371.5C857.387 368.444 859.358 367.145 861.962 365.589Z"/>
	<path fill="#008498" transform="scale(0.5 0.5)" d="M747.67 718.418C752.393 710.387 758.24 702.832 764.288 695.751C766.261 703.752 770.088 711.336 772.327 719.329C772.818 721.083 773.808 723.792 773.777 725.581L773.509 726.196C772.91 727.684 773.185 729.864 773.17 731.454C773.144 734.284 772.903 737.081 772.567 739.89C771.842 745.93 770.629 751.964 768.9 757.801C766.193 766.944 761.047 775.282 757.177 783.967C753.316 792.63 751.13 801.622 749.12 810.856C744.911 796.321 737.862 779.902 724.736 771.228L729.989 813.633C723.102 804.597 716.56 794.837 707.434 787.841C705.348 781.728 703.393 775.706 702.266 769.329C699.756 758.249 701.611 745.508 703.884 734.551C713.142 738.398 721.688 744.501 728.523 751.782C731.695 755.161 734.403 758.955 737.33 762.542C738.064 746.873 741.577 732.782 747.67 718.418Z"/>
	<path fill="#EBA43D" transform="scale(0.5 0.5)" d="M867.088 782.744C883.625 790.279 896.12 803.733 902.478 820.75C908.546 836.991 907.581 854.281 900.343 869.97C893.049 885.78 879.901 898.303 863.537 904.251C857.039 906.614 850.345 907.704 843.491 908.382L843.777 893.312L846.682 892.547C847.755 892.232 848.71 891.804 849.692 891.262C852.533 889.694 855.151 886.978 855.822 883.69C856.582 879.964 857.013 866.307 855.037 863.484L854.419 856.239C860.798 854.306 866.237 848.338 869.265 842.558C873.421 834.625 873.849 825.956 870.987 817.5C868.565 810.343 863.584 804.74 856.855 801.39C860.833 795.896 864.095 788.854 867.088 782.744Z"/>
	<path fill="#008498" transform="scale(0.5 0.5)" d="M827.411 397.486L781.294 397.629L767.13 397.629C764.665 397.614 761.864 397.81 759.463 397.335C757.321 396.912 755.331 395.667 753.788 394.161C752.296 392.705 751.025 390.831 750.433 388.81C749.646 386.124 750 382.674 749.994 379.885L749.966 363.491L749.977 344.105C749.985 340.853 749.607 337.057 750.33 333.899C750.839 331.672 751.964 329.797 753.652 328.25C755.506 326.552 758.295 325.576 760.75 325.255C768.237 324.276 776.607 324.976 784.176 324.969L829.157 325.064C837.727 331.691 843.393 342.304 844.809 353.062C846.535 366.181 841.533 381.708 833.37 392.043C831.655 394.214 829.647 395.878 827.411 397.486Z"/>
	<path fill="white" transform="scale(0.5 0.5)" d="M815.287 347.148C817.01 347.266 819.006 347.286 820.577 348.061C823.493 349.501 825.832 352.309 826.67 355.445C827.542 358.71 827.053 362.264 825.25 365.12C823.287 368.228 820.232 369.521 816.811 370.358C814.896 370.303 813.106 370.008 811.346 369.205C808.444 367.88 806.29 365.369 805.364 362.329C804.427 359.248 804.698 355.339 806.419 352.57C808.536 349.166 811.548 347.918 815.287 347.148Z"/>
	<path fill="white" transform="scale(0.5 0.5)" d="M778.513 347.539C780.618 347.31 782.958 347.228 784.98 347.947C787.932 348.996 790.306 351.382 791.603 354.194C792.828 356.848 792.834 359.778 791.783 362.492C790.263 366.418 787.22 368.143 783.565 369.685C781.437 369.944 779.312 370.162 777.25 369.41C773.992 368.221 771.177 365.252 769.869 362.074C769.124 360.264 769.273 357.125 770.01 355.334C771.626 351.408 774.823 349.23 778.513 347.539Z"/>
	<path fill="#008498" transform="scale(0.5 0.5)" d="M589.068 768.992L683.798 769.552L702.266 769.329C703.393 775.706 705.348 781.728 707.434 787.841C704.879 786.31 702.726 783.848 700.335 782.025C695.208 778.119 688.922 775.568 682.971 773.203L680.033 772.313L680.466 772.761C681.553 773.826 683.078 774.421 684.347 775.25C687.062 777.021 689.873 779.085 692.289 781.25C701.605 789.599 710.105 799.925 715.015 811.5C718.032 818.611 719.852 826.191 721.92 833.614L644.081 833.769L621.982 833.936C618.561 833.961 614.663 834.395 611.336 833.75L610.25 832.533L597.303 832.822L597.303 809.435L589.041 809.487L589.03 803.978L588.923 769.315L589.068 768.992Z"/>
	<path fill="#FDCC74" transform="scale(0.5 0.5)" d="M589.068 768.992L683.798 769.552L702.266 769.329C703.393 775.706 705.348 781.728 707.434 787.841C704.879 786.31 702.726 783.848 700.335 782.025C695.208 778.119 688.922 775.568 682.971 773.203L680.033 772.313L679 771.632L678.5 772.25C682.037 783.471 686.058 793.344 691.194 803.898L589.03 803.978L588.923 769.315L589.068 768.992Z"/>
	<path fill="#008498" transform="scale(0.5 0.5)" d="M433.5 565.023C436.537 564.009 441.068 564.588 444.302 564.606L465.464 564.67L556.596 564.581L579.482 564.603C581.872 564.607 586.385 564.06 588.497 564.974C589.846 568.264 588.989 575.049 588.989 578.813L588.963 611.33L589.043 714.25L589.068 768.992L588.923 769.315C588.533 769.71 587.948 769.98 587.755 770.5C587.427 771.382 587.754 774.221 587.754 775.27C587.753 778.721 588.561 795.035 587.255 797C587.251 798.056 587.379 798.061 586.755 799L586.535 802.13L586.565 809.807L574.122 809.73L574.011 580.281L446.681 580.051L446.815 807.771L434.428 807.68L434.439 799.419C433.996 801.07 433.837 802.545 433.758 804.25L433.25 804.255L433.018 798.937C432.348 796.228 432.878 792.404 432.887 789.516L432.971 765.692L433.159 722.785L433.177 687.431L433.206 617.559L433.144 581.617C433.138 576.568 432.318 569.893 433.5 565.023Z"/>
	<path fill="#000921" transform="scale(0.5 0.5)" d="M433.159 722.785L433.386 721.839C433.878 719.623 433.67 717.049 433.688 714.767L433.75 701.755C435.57 704.231 433.781 731.795 434.604 737.696L434.439 799.419C433.996 801.07 433.837 802.545 433.758 804.25L433.25 804.255L433.018 798.937C432.348 796.228 432.878 792.404 432.887 789.516L432.971 765.692L433.159 722.785Z"/>
	<path fill="#01366B" transform="scale(0.5 0.5)" d="M588.497 564.974C589.846 568.264 588.989 575.049 588.989 578.813L588.963 611.33L589.043 714.25L589.068 768.992L588.923 769.315C588.533 769.71 587.948 769.98 587.755 770.5C587.427 771.382 587.754 774.221 587.754 775.27C587.753 778.721 588.561 795.035 587.255 797C587.251 798.056 587.379 798.061 586.755 799L586.535 802.13L586.495 771.309L586.585 713.828L586.427 610.038L586.396 581.066C586.396 576.831 585.639 570.763 587.028 566.776C587.643 566.955 587.266 566.902 588.17 566.748L588.497 564.974Z"/>
	<path fill="#001E54" transform="scale(0.5 0.5)" d="M433.5 565.023C436.537 564.009 441.068 564.588 444.302 564.606L465.464 564.67L556.596 564.581L579.482 564.603C581.872 564.607 586.385 564.06 588.497 564.974L588.17 566.748C587.266 566.902 587.643 566.955 587.028 566.776L435.75 566.81C434.696 567.928 435.012 570.227 434.962 571.788L434.604 737.696C433.781 731.795 435.57 704.231 433.75 701.755L433.688 714.767C433.67 717.049 433.878 719.623 433.386 721.839L433.159 722.785L433.177 687.431L433.206 617.559L433.144 581.617C433.138 576.568 432.318 569.893 433.5 565.023Z"/>
	<path fill="#FDCC74" transform="scale(0.5 0.5)" d="M843.491 908.382C838.149 908.576 832.529 907.914 827.346 906.631C809.79 902.288 795.497 891.441 786.25 875.919C777.553 861.32 774.882 843.117 779.21 826.627C782.91 812.528 789.666 801.503 801.25 792.515C815.979 781.087 832.184 776.193 850.75 778.474C856.51 779.182 861.711 780.611 867.088 782.744C864.095 788.854 860.833 795.896 856.855 801.39C863.584 804.74 868.565 810.343 870.987 817.5C873.849 825.956 873.421 834.625 869.265 842.558C866.237 848.338 860.798 854.306 854.419 856.239L855.037 863.484C857.013 866.307 856.582 879.964 855.822 883.69C855.151 886.978 852.533 889.694 849.692 891.262C848.71 891.804 847.755 892.232 846.682 892.547L843.777 893.312L843.491 908.382Z"/>
	<path fill="white" transform="scale(0.5 0.5)" d="M855.037 863.484C857.013 866.307 856.582 879.964 855.822 883.69C855.151 886.978 852.533 889.694 849.692 891.262C848.71 891.804 847.755 892.232 846.682 892.547C841.723 892.519 836.005 892.646 832.219 888.75C831.389 887.896 829.726 886.076 829.499 884.913C829.115 882.943 829.373 880.344 829.371 878.321L829.537 863.487L855.037 863.484Z"/>
	<path fill="#001E54" transform="scale(0.5 0.5)" d="M840.649 876.75L841.156 876.688C842.814 876.581 845.321 876.395 846.492 877.5L846.163 879.25C844.435 879.547 842.506 879.355 840.75 879.335C840.104 878.078 840.231 878.122 840.649 876.75Z"/>
	<path fill="#001E54" transform="scale(0.5 0.5)" d="M840.484 866.75C842.15 866.33 844.039 866.597 845.75 866.689L846.328 867.75L845.755 869.25C844.249 869.528 842.539 869.4 841 869.41L840.217 868.384L840.484 866.75Z"/>
	<path fill="#001E54" transform="scale(0.5 0.5)" d="M841.756 871.25C843.357 871.159 845.053 871.058 846.345 872.03L846.345 873.75L844.75 874.331C843.056 874.336 841.728 874.622 840.25 873.755L840.562 871.75L841.756 871.25Z"/>
	<path fill="#001E54" transform="scale(0.5 0.5)" d="M840.902 882.25C842.763 882.125 844.411 882.023 846.25 882.374C846.611 883.723 846.453 883.672 845.75 884.905C843.981 885.554 842.772 885.592 841 884.968C840.447 883.662 840.517 883.629 840.902 882.25Z"/>
	<path fill="white" transform="scale(0.5 0.5)" d="M840.841 856.103C837.248 856.146 831.37 856.936 828.151 855.564C821.72 852.823 815.965 846.079 813.237 839.762C810.298 832.956 810.011 824.887 812.784 817.974C815.923 810.151 821.679 804.06 829.481 800.81C838.551 797.03 847.915 797.734 856.855 801.39C863.584 804.74 868.565 810.343 870.987 817.5C873.849 825.956 873.421 834.625 869.265 842.558C866.237 848.338 860.798 854.306 854.419 856.239L855.037 863.484L829.537 863.487C830.067 861.636 829.641 858.39 829.657 856.383C832.937 856.412 836.861 856.836 840.059 856.256L840.841 856.103Z"/>
	<path fill="#001A4D" transform="scale(0.5 0.5)" d="M841.118 814.75C842.33 814.408 843.261 814.485 844.5 814.532C845.656 815.466 846.405 815.86 846.481 817.5C846.556 819.102 845.535 819.741 844.528 820.75C843.302 821.403 843.113 821.574 841.75 821.456C840.496 820.538 839.845 820.064 839.368 818.5C839.599 816.359 839.598 816.263 841.118 814.75Z"/>
	<path fill="#001E54" transform="scale(0.5 0.5)" d="M841.46 856.121L841.479 834.289C841.488 831.383 841.045 827.772 841.951 824.997L842.796 824.707C843.982 826.502 843.435 830.785 843.434 833L843.341 856.148L854.419 856.239L855.037 863.484L829.537 863.487C830.067 861.636 829.641 858.39 829.657 856.383C832.937 856.412 836.861 856.836 840.059 856.256L840.841 856.103L841.46 856.121Z"/>
	<path fill="white" transform="scale(0.5 0.5)" d="M199.314 778.655L226.967 778.67C229.845 778.668 235.52 777.959 238.06 778.963L238.324 896.441L199.327 896.306L160.893 896.082L160.854 778.623L199.314 778.655Z"/>
	<path fill="#008498" transform="scale(0.5 0.5)" d="M194.175 840.031L205.546 840.02L205.527 852.937L194.216 852.931L194.175 840.031Z"/>
	<path fill="#008498" transform="scale(0.5 0.5)" d="M194.293 798.895L205.378 798.876L205.409 812.195L194.278 812.217L194.293 798.895Z"/>
	<path fill="#008498" transform="scale(0.5 0.5)" d="M194.168 819.05L205.674 819.049L205.641 832.416L194.226 832.442L194.168 819.05Z"/>
	<path fill="#008498" transform="scale(0.5 0.5)" d="M194.003 859.991L205.926 859.977L205.932 872.997L194.007 872.987L194.003 859.991Z"/>
	<path fill="#03C4CD" transform="scale(0.5 0.5)" d="M170.581 840.047L184.906 840.032L184.904 852.857L170.562 852.856L170.581 840.047Z"/>
	<path fill="#03C4CD" transform="scale(0.5 0.5)" d="M170.591 819.506L184.981 819.496L184.942 832.347L170.558 832.287L170.591 819.506Z"/>
	<path fill="#008498" transform="scale(0.5 0.5)" d="M170.561 799.029L184.809 799.019L184.803 812.069L170.563 812.077L170.561 799.029Z"/>
	<path fill="#03C4CD" transform="scale(0.5 0.5)" d="M170.595 860.05L184.939 860.063L184.935 873.103L170.587 873.078L170.595 860.05Z"/>
	<path fill="#008498" transform="scale(0.5 0.5)" d="M213.611 859.927L228.053 859.931L228.049 873.048L213.747 873.047L213.611 859.927Z"/>
	<path fill="#008498" transform="scale(0.5 0.5)" d="M213.658 799.126L228.076 799.073C228.074 801.94 228.97 810.544 227.25 812.343L213.928 812.328C213.41 811.241 213.678 809.392 213.675 808.182L213.658 799.126Z"/>
	<path fill="#008498" transform="scale(0.5 0.5)" d="M213.448 839.943L228.469 839.916L228.449 852.994L213.479 853.022L213.448 839.943Z"/>
	<path fill="#008498" transform="scale(0.5 0.5)" d="M213.477 819.024L228.252 819.02L228.151 832.429L213.498 832.515L213.477 819.024Z"/>
	<path fill="#008498" transform="scale(0.5 0.5)" d="M287.941 766.36C288.646 764.768 290.362 762.9 291.424 761.477C295.382 756.168 300.11 751.184 305.488 747.296C310.018 744.022 316.802 740.472 322.547 741.672C324.393 742.057 325.748 742.894 326.714 744.524C329.974 750.022 327.143 759.969 325.327 765.612C329.254 766.335 333.561 765.985 337.565 765.974L358.276 765.895L432.971 765.692L432.887 789.516C432.878 792.404 432.348 796.228 433.018 798.937L432.486 801.488L432.518 813.257L427.438 813.252L427.056 832.816L315.966 833.042C317.006 830.407 320.759 827.363 322.791 825.239C328.283 819.495 334.165 813.848 338.882 807.441C338.436 806.585 338.731 806.899 338.082 806.426C330.374 808.245 325.683 812.766 319.712 817.58C316.255 820.367 312.674 822.839 308.865 825.122C306.934 826.279 304.624 827.86 302.448 828.45L304.699 824.228C305.891 821.745 307.483 819.461 308.613 816.96C310.601 812.558 311.943 808.025 314.211 803.706C317.43 797.576 321.235 792.077 325.224 786.438C317.429 791.059 313.655 797.779 307.719 804.211C309.26 799.104 312.985 793.928 315.435 789.147L314.836 788.751C313.552 788.174 311.664 788.854 310.374 789.183C309.536 789.886 308.841 790.051 307.791 790.313C304.868 793.917 301.471 797.147 298.282 800.517C295.036 803.946 291.888 807.614 288.308 810.698C288.972 790.578 304.444 772.082 313.802 755.075C309.936 758.445 306.578 763.521 303.732 767.768C298.115 776.149 293.267 784.475 288.976 793.618C288.949 785.298 288.591 776.597 289.799 768.364C289.314 767.221 288.901 767.097 287.941 766.36Z"/>
	<defs>
		<linearGradient id="gradient_2" gradientUnits="userSpaceOnUse" x1="331.98279" y1="796.17896" x2="335.5087" y2="800.41101">
			<stop offset="0" stop-color="#014E65"/>
			<stop offset="1" stop-color="#006A7C"/>
		</linearGradient>
	</defs>
	<path fill="url(#gradient_2)" transform="scale(0.5 0.5)" d="M344.67 777.714C346.219 781.157 345.679 784.477 344.35 787.886C342.359 792.991 338.815 797.577 335.176 801.616L334.355 802.063C331.296 805.085 328.387 808.255 324.756 810.59C321.198 812.878 318.379 816.006 314.998 818.48C312.421 820.366 309.269 823.903 306.301 824.942L305.786 823.918L313.053 818.383L313.637 817.902L316.25 815.755C322.099 810.357 327.548 804.623 332.862 798.709C337.014 794.088 341.424 789.465 343.734 783.583C344.485 781.672 344.573 779.737 344.67 777.714Z"/>
	<path fill="#01366B" transform="scale(0.5 0.5)" d="M287.941 766.36C288.646 764.768 290.362 762.9 291.424 761.477C295.382 756.168 300.11 751.184 305.488 747.296C310.018 744.022 316.802 740.472 322.547 741.672C324.393 742.057 325.748 742.894 326.714 744.524C329.974 750.022 327.143 759.969 325.327 765.612L322.219 772.354C321.738 771.451 321.628 770.456 321.426 769.46C324.407 763.04 326.922 755.508 326.14 748.321C326.01 747.127 325.435 745.552 324.401 744.844C321.942 743.161 319.134 743.644 316.417 744.348C305.932 747.065 294.942 759.334 289.799 768.364C289.314 767.221 288.901 767.097 287.941 766.36Z"/>
	<path fill="#FDCC74" transform="scale(0.5 0.5)" d="M325.327 765.612C329.254 766.335 333.561 765.985 337.565 765.974L358.276 765.895L432.971 765.692L432.887 789.516C432.878 792.404 432.348 796.228 433.018 798.937L432.486 801.488L335.176 801.616C338.815 797.577 342.359 792.991 344.35 787.886C345.679 784.477 346.219 781.157 344.67 777.714L343.966 776.965C342.352 775.391 340.729 774.637 338.432 774.635C329.05 774.627 321.352 782.342 313.579 786.201L322.219 772.354L325.327 765.612Z"/>
	<path fill="#008498" transform="scale(0.5 0.5)" d="M455.14 697.871L455.053 587.578L567.117 587.344L567.464 809.621L495.277 809.415L454.667 809.046L454.913 770.767L455.14 697.871Z"/>
	<path fill="#001E54" transform="scale(0.5 0.5)" d="M457.24 691.334L457.296 691.364C458.413 689.209 459.548 687.291 461.471 685.75C464.493 683.328 467.955 682.591 471.76 683.21C476.858 684.04 479.369 687.188 482.169 691.111C482.701 693.96 482.693 696.36 482.489 699.226C481.093 701.867 479.678 704.461 477.275 706.344C474.701 708.362 471.739 709.207 468.484 708.808C464.568 708.329 461.436 706.695 459.094 703.481C456.191 699.495 456.522 695.94 457.24 691.334Z"/>
	<path fill="white" transform="scale(0.5 0.5)" d="M467.508 685.609C469.44 685.459 471.396 685.534 473.25 686.156C475.759 686.997 477.885 688.649 479.082 691.021C480.348 693.529 480.655 696.38 479.625 699.03C478.136 702.863 475.628 704.382 471.987 705.872C470.255 706.043 468.734 705.949 467.042 705.502C464.261 704.768 461.702 702.727 460.388 700.151C459.215 697.851 458.939 694.863 459.907 692.438C461.401 688.697 463.938 687.073 467.508 685.609Z"/>
	<path fill="#001E54" transform="scale(0.5 0.5)" d="M468.715 692.75L470.007 692.515C471.541 693.431 471.587 693.49 472.278 695.139C471.994 696.77 471.941 697.015 470.857 698.25L469.25 698.465C467.79 697.48 467.73 697.401 467.115 695.75C467.438 694.071 467.5 693.952 468.715 692.75Z"/>
	<path fill="#03C4CD" transform="scale(0.5 0.5)" d="M482.169 691.111L482.254 690.54C483.352 682.453 482.766 673.645 482.819 665.463L483.102 618.75L483.164 608.461C483.171 607.389 482.926 605.394 483.436 604.503L563.974 604.387L564.485 805.666L508.177 805.928L492.039 805.892C489.243 805.881 486.227 805.623 483.473 806.004C482.072 803.217 482.979 789.569 482.985 785.624L483.232 723.095L483.154 708.266C483.118 705.247 483.298 702.152 482.489 699.226C482.693 696.36 482.701 693.96 482.169 691.111Z"/>
	<path fill="#64B8C3" transform="scale(0.5 0.5)" d="M765.814 159.363L766.25 158.085C775.687 165.147 784.009 173.116 792.354 181.406C802.535 191.52 812.551 202.212 821.47 213.469C829.388 204.748 839.114 198.168 851.25 197.494C861.823 196.906 872.67 200.769 880.556 207.852C887.466 214.057 892.125 223.805 892.714 233.066C895.369 231.778 897.848 230.536 900.75 229.906L901.346 229.764C908.327 228.241 916.721 230.761 922.518 234.693C929.787 239.623 933.557 246.827 935.216 255.298C935.96 259.099 935.56 263.289 934.581 267C932.537 274.755 928.387 281.577 921.377 285.827C916.849 288.573 912.405 290.063 907.076 290.084L879.17 290.38L898.898 320.48C913.096 344.591 924.716 370.522 933.231 397.164L941.831 427.888C955.459 439.869 964.245 452.829 965.421 471.414C966.43 487.347 960.741 501.428 950.128 513.187L949.389 513.985C950.144 522.006 949.237 530.453 948.639 538.469L943.788 581.316L953.356 589.488L946.218 596.592C944.82 594.431 942.995 592.779 941.144 591.02L940.913 601.654L940.497 601.927L940.224 602.568C939.133 611.426 936.343 620.509 934.437 629.265L919.716 692.791C929.999 696.389 937.326 700.326 944.924 708.311L938.526 714.723C932.041 708.576 925.588 704.355 917.224 701.175L913.773 710.622C920.231 712.433 926.5 716.219 930.922 721.291C929.085 723.42 927.307 725.453 925.168 727.291C921.568 723.965 918.466 721.245 914.037 719.079L911.518 727.313C914.133 729.672 916.458 731.946 916.55 735.728C916.622 738.669 915.367 741.071 913.25 743.062C911.881 744.35 910.35 744.996 908.591 745.574L908.121 745.684C906.4 746.063 904.995 746.068 903.25 745.894C901.951 749.656 901.254 753.643 900.211 757.487L893.983 777.219C892.846 780.311 891.733 783.897 890.06 786.732L884.842 782.629C866.376 769.834 847.017 766.946 825.138 770.927C824.562 768.185 824.956 764.746 824.953 761.936L824.944 744.362L824.952 673.508L824.904 406.967L861.501 406.968C867.708 406.96 874.631 407.552 880.75 406.497C883.362 406.046 885.991 405.028 888.126 403.445C892.019 400.557 895.589 396.029 896.147 391.093C896.561 387.425 896.33 383.513 896.33 379.815L896.315 360.881L896.27 342.311C896.257 338.61 896.534 334.449 895.768 330.82C895.167 327.97 893.499 325.127 891.567 322.961C887.898 318.85 882.609 317.173 877.25 317.046L798.977 316.834L772.65 316.745C767.506 316.732 761.871 316.297 756.799 317.186C753.012 317.85 749.85 319.77 747.146 322.443C740.2 329.309 740.69 338.191 740.645 347.211L740.582 373.406C740.58 379.211 740.033 385.621 741.582 391.25C742.515 394.64 744.501 397.814 747.016 400.25C749.997 403.135 753.827 405.14 757.891 405.998C763.873 407.261 771.351 406.492 777.504 406.506L815.549 406.567L815.52 773.781L807.998 776.927L808.913 739.25C799.101 746.212 789.683 753.846 782.084 763.25C779.167 766.86 776.955 771.235 773.923 774.653L773.297 775.34C777.527 758.868 776.872 742.184 773.777 725.581C773.808 723.792 772.818 721.083 772.327 719.329C770.088 711.336 766.261 703.752 764.288 695.751C758.24 702.832 752.393 710.387 747.67 718.418L747.594 619.512C748.172 615.534 747.815 611.015 747.848 606.985L747.97 580.203L747.917 490.555L765.136 487.295C766.324 487.54 769.318 486.65 770.571 486.414L783.579 484.126C784.034 484.284 784.499 484.333 784.974 484.41L800.943 460.716C799.733 459.293 797.888 458.357 796.326 457.353L786.544 451.166L763.755 436.462L711.212 402.476L711.399 235.02C711.393 233.129 711.032 220.572 711.617 220.006C711.678 219.947 714.429 219.87 714.871 219.846C719.018 219.62 722.993 219.255 727.016 218.144C736.104 215.633 744.891 210.788 751.309 203.809C763.251 190.824 766.59 176.567 765.814 159.363Z"/>
	<path fill="white" transform="scale(0.5 0.5)" d="M908.591 745.574C906.732 745.623 904.796 745.707 902.953 745.407C900.933 745.077 899.41 744.119 898.25 742.458C896.607 740.105 894.962 737.934 895.598 734.955C896.262 731.848 898.929 728.88 901.656 727.376C905.085 725.483 908.022 726.234 911.518 727.313C914.133 729.672 916.458 731.946 916.55 735.728C916.622 738.669 915.367 741.071 913.25 743.062C911.881 744.35 910.35 744.996 908.591 745.574Z"/>
	<path fill="white" transform="scale(0.5 0.5)" d="M911.282 604.547C913.776 604.445 916.041 604.714 918.323 605.804C920.713 606.945 922.922 609.292 923.744 611.833C924.535 614.28 923.987 617.198 922.831 619.445C921.299 622.424 918.489 624.066 915.398 625.007C913.18 625.068 911.268 625.128 909.185 624.29C906.395 623.169 903.915 620.674 902.91 617.828C902.097 615.524 902.169 612.56 903.367 610.402C905.182 607.132 907.825 605.626 911.282 604.547Z"/>
	<path fill="white" transform="scale(0.5 0.5)" d="M914.037 719.079C911.235 718.051 907.818 717.87 904.879 718.249L904 718.374C895.709 719.511 890.734 724.76 885.302 730.486L879.08 723.679C882.37 720.192 885.647 716.715 889.764 714.2C896.899 709.841 905.687 708.732 913.773 710.622C920.231 712.433 926.5 716.219 930.922 721.291C929.085 723.42 927.307 725.453 925.168 727.291C921.568 723.965 918.466 721.245 914.037 719.079Z"/>
	<path fill="white" transform="scale(0.5 0.5)" d="M940.224 602.568L933.922 607.958L932.102 605.763C927.664 600.834 920.909 597.432 914.25 597.176C908.101 596.939 902.175 599.634 897.822 603.889C896.185 605.49 894.919 607.395 893.211 608.923L886.106 602.77L891.901 596.401C897.373 590.862 904.796 588.415 912.457 588.449C924.782 588.503 932.131 593.432 940.497 601.927L940.224 602.568Z"/>
	<path fill="white" transform="scale(0.5 0.5)" d="M740.594 246.114C743.424 246.163 745.916 246.486 748.434 247.851C751.899 249.73 754.549 253.222 755.552 257.016C756.51 260.641 755.542 264.729 753.62 267.893C751.223 271.838 747.648 273.744 743.309 274.825C739.9 274.783 736.834 274.304 733.932 272.389C730.75 270.288 728.324 266.793 727.587 263.038C726.839 259.23 727.361 255.278 729.652 252.094C732.466 248.181 736.051 246.972 740.594 246.114Z"/>
	<path fill="white" transform="scale(0.5 0.5)" d="M855.813 660.548C857.17 660.49 858.588 660.383 859.938 660.56C864.103 661.105 868.094 663.534 870.541 666.926C872.642 669.838 873.894 674.042 873.217 677.604L873.08 678.25C872.893 679.171 872.706 680.045 872.341 680.918C870.239 685.944 866.191 688.435 861.367 690.326C858.108 690.532 855.538 690.736 852.49 689.289C848.522 687.405 845.582 684.197 844.138 680.046C842.861 676.375 843.442 672.481 845.111 669.043C847.373 664.383 851.08 662.161 855.813 660.548Z"/>
	<path fill="white" transform="scale(0.5 0.5)" d="M917.224 701.175C913.394 700.231 909.204 699.909 905.282 700.321C892.943 701.618 881.913 708.064 874.241 717.671C872.179 715.104 869.944 712.999 867.458 710.844C872.023 705.574 877.563 700.854 883.624 697.376C895.064 690.81 907.015 689.428 919.716 692.791C929.999 696.389 937.326 700.326 944.924 708.311L938.526 714.723C932.041 708.576 925.588 704.355 917.224 701.175Z"/>
	<path fill="white" transform="scale(0.5 0.5)" d="M941.144 591.02L940.96 590.801C932.554 583.496 920.417 580.202 909.476 581.051C897.531 581.979 888.125 588.39 880.488 597.211L872.138 590.245C879.567 582.615 888.655 575.971 899.056 573.178C915.396 568.791 929.646 573.233 943.788 581.316L953.356 589.488L946.218 596.592C944.82 594.431 942.995 592.779 941.144 591.02Z"/>
	<path fill="#EBA43D" transform="scale(0.5 0.5)" d="M747.594 619.512C748.172 615.534 747.815 611.015 747.848 606.985L747.97 580.203L747.917 490.555L765.136 487.295C765.13 510.082 766.06 692.439 764.288 695.751C758.24 702.832 752.393 710.387 747.67 718.418L747.594 619.512Z"/>
	<path fill="#001A4D" transform="scale(0.5 0.5)" d="M949.389 513.985C941.497 521.877 930.687 528.215 919.764 530.677C904.827 534.045 889.318 531.231 876.438 523.014C864.61 515.467 855.003 502.468 852.032 488.66C848.642 472.909 851.151 456.588 859.921 442.972C867.947 430.512 881.812 421.258 896.273 418.235C912.947 414.75 927.777 418.644 941.831 427.888C955.459 439.869 964.245 452.829 965.421 471.414C966.43 487.347 960.741 501.428 950.128 513.187L949.389 513.985Z"/>
	<path fill="#6B275A" transform="scale(0.5 0.5)" d="M937.624 455.484C943.551 459.568 948.756 464.988 952.677 471.029C954.155 473.307 955.108 475.855 956.594 478.133L956.874 478.57C955.269 491.683 949.15 503.976 938.645 512.186C929.391 519.418 918.392 523.862 906.572 524.081C906.582 520.045 907.521 507.022 905.982 504.102C906.494 504.116 906.641 504.152 907.2 503.982C909.253 503.358 911.718 501.409 913.466 500.163C921.153 494.685 928.218 487.812 933.283 479.804C938.553 471.473 939.766 464.953 937.624 455.484Z"/>
	<path fill="#B06385" transform="scale(0.5 0.5)" d="M906.572 524.081L903 523.865C889.905 522.419 877.202 515.306 869.108 504.931C860.77 494.246 857.816 480.446 859.688 467.125C861.448 454.601 868.842 442.682 878.777 434.982C888.952 427.096 901.796 423.962 914.5 425.442C925.935 426.774 936.904 433.083 944.648 441.517C954.361 452.094 957.559 464.406 956.874 478.57L956.594 478.133C955.108 475.855 954.155 473.307 952.677 471.029C948.756 464.988 943.551 459.568 937.624 455.484C939.766 464.953 938.553 471.473 933.283 479.804C928.218 487.812 921.153 494.685 913.466 500.163C911.718 501.409 909.253 503.358 907.2 503.982C906.641 504.152 906.494 504.116 905.982 504.102C907.521 507.022 906.582 520.045 906.572 524.081Z"/>
	<path fill="#001A4D" transform="scale(0.5 0.5)" d="M874.468 461.683C874.859 456.916 877.187 452.823 880.613 449.586C885.729 444.751 894.668 443.552 901.148 446.153C902.483 446.689 905.321 448.833 906.488 448.955C906.901 448.998 911.684 445.931 912.75 445.552C915.337 444.631 918.221 444.411 920.948 444.498C926.735 444.685 930.873 447.469 934.666 451.537L937.624 455.484C939.766 464.953 938.553 471.473 933.283 479.804C928.218 487.812 921.153 494.685 913.466 500.163C911.718 501.409 909.253 503.358 907.2 503.982C906.641 504.152 906.494 504.116 905.982 504.102C903.772 503.287 901.597 501.655 899.637 500.333C893.947 496.496 888.743 491.907 884.257 486.71C878.149 479.635 873.777 471.268 874.468 461.683Z"/>
	<path fill="white" transform="scale(0.5 0.5)" d="M876.168 461.96C876.522 461.101 876.424 461.461 876.584 460.684C877.239 457.516 878.513 454.692 880.75 452.317C884.161 448.696 888.372 446.984 893.332 446.963C899.296 446.939 902.435 449.284 906.527 453.247L907.941 451.515C910.688 448.328 914.613 446.992 918.73 446.731C924.779 446.349 928.738 449.025 933.01 452.85C935.651 456.411 937.417 460.389 936.842 464.922L936.578 466.5L936.459 467.274C934.378 479.866 922.129 491.717 912.184 498.66L906.402 502.303C894.945 494.504 879.23 483.257 876.687 468.498C876.324 466.39 876.103 464.1 876.168 461.96Z"/>
	<path fill="white" transform="scale(0.5 0.5)" d="M821.47 213.469C829.388 204.748 839.114 198.168 851.25 197.494C861.823 196.906 872.67 200.769 880.556 207.852C887.466 214.057 892.125 223.805 892.714 233.066C895.369 231.778 897.848 230.536 900.75 229.906L901.346 229.764C908.327 228.241 916.721 230.761 922.518 234.693C929.787 239.623 933.557 246.827 935.216 255.298C935.96 259.099 935.56 263.289 934.581 267C932.537 274.755 928.387 281.577 921.377 285.827C916.849 288.573 912.405 290.063 907.076 290.084C896.43 289.319 885.169 289.969 874.469 290.1L828.053 290.278C819.356 290.312 810.227 290.971 801.598 289.945C794.867 289.144 787.537 284.302 783.394 279.09C778.509 272.946 775.619 263.896 776.68 256.078C777.812 247.734 781.637 240.73 788.307 235.577C795.855 229.747 804.027 228.163 813.359 229.366C815.45 223.427 817.842 218.632 821.47 213.469Z"/>
	<path fill="white" transform="scale(0.5 0.5)" d="M511.969 305.971L512.984 305.651L783.579 484.126L770.571 486.414C769.318 486.65 766.324 487.54 765.136 487.295L747.917 490.555L747.97 580.203L747.848 606.985C747.815 611.015 748.172 615.534 747.594 619.512L747.67 718.418C741.577 732.782 738.064 746.873 737.33 762.542C734.403 758.955 731.695 755.161 728.523 751.782C721.688 744.501 713.142 738.398 703.884 734.551C701.611 745.508 699.756 758.249 702.266 769.329L683.798 769.552L589.068 768.992L589.043 714.25L588.963 611.33L588.989 578.813C588.989 575.049 589.846 568.264 588.497 564.974C586.385 564.06 581.872 564.607 579.482 564.603L556.596 564.581L465.464 564.67L444.302 564.606C441.068 564.588 436.537 564.009 433.5 565.023C432.318 569.893 433.138 576.568 433.144 581.617L433.206 617.559L433.177 687.431L433.159 722.785L432.971 765.692L358.276 765.895L337.565 765.974C333.561 765.985 329.254 766.335 325.327 765.612C327.143 759.969 329.974 750.022 326.714 744.524C325.748 742.894 324.393 742.057 322.547 741.672C316.802 740.472 310.018 744.022 305.488 747.296C300.11 751.184 295.382 756.168 291.424 761.477C290.362 762.9 288.646 764.768 287.941 766.36L287.413 766.418L284.482 766.226C286.216 755.244 285.144 743.865 282.11 733.247L281.045 730.448C281.424 729.219 281.991 728.417 282.69 727.359C279.928 720.462 276.414 711.703 269.566 707.903L269.495 496.445L269.328 464.57L325.003 427.892L440.812 351.876L482.121 324.768L501.256 312.276C504.656 310.095 508.194 307.388 511.969 305.971Z"/>
	<path fill="#01366B" transform="scale(0.5 0.5)" d="M282.11 733.247C282.844 733.274 283.475 733.334 284.196 733.17C285.204 736.635 286.116 739.91 286.546 743.5L287.413 766.418L284.482 766.226C286.216 755.244 285.144 743.865 282.11 733.247Z"/>
	<path fill="#03C4CD" transform="scale(0.5 0.5)" d="M605.8 506.427L605.876 506.248C606.948 495.41 611.036 484.419 618.053 475.967C628.654 463.196 642.563 456.76 658.898 455.153L658.792 506.506L605.8 506.427Z"/>
	<path fill="#03C4CD" transform="scale(0.5 0.5)" d="M664.493 455.068C681.418 457.421 696.355 463.428 706.858 477.473C711.596 483.809 715.017 491.519 716.547 499.278C716.979 501.466 716.893 504.5 717.604 506.506L664.488 506.509L664.493 455.068Z"/>
	<path fill="#03C4CD" transform="scale(0.5 0.5)" d="M407.22 511.87L415.233 511.933C413.609 527.599 407.571 541.247 395.13 551.373C385.233 559.428 373.989 563.077 361.498 564.759L361.463 511.922L407.22 511.87Z"/>
	<path fill="#03C4CD" transform="scale(0.5 0.5)" d="M361.551 453.082C378.028 455.049 392.958 461.343 403.434 474.75C410.723 484.078 414.102 494.803 415.558 506.396L361.487 506.43L361.551 453.082Z"/>
	<path fill="#03C4CD" transform="scale(0.5 0.5)" d="M302.394 506.479C304.315 494.138 308 483.078 315.884 473.205C326.233 460.247 340.397 454.706 356.393 452.917L356.448 506.506L302.394 506.479Z"/>
	<path fill="#03C4CD" transform="scale(0.5 0.5)" d="M307.063 511.601L356.442 511.886L356.342 543.57C356.33 547.595 355.67 552.897 356.402 556.791L356.162 564.616C343.775 564.154 331.243 559.48 321.753 551.444C310.482 541.899 304.113 529.144 302.803 514.528C302.682 513.173 302.349 512.837 303.25 511.758L307.063 511.601Z"/>
	<path fill="#03C4CD" transform="scale(0.5 0.5)" d="M605.869 512.043L658.851 512.038C658.825 517.76 658.142 524.343 658.899 529.962C658.375 533.793 658.724 538.123 658.704 542.02L658.592 566.47C646.444 565.312 636.061 562.106 626.437 554.369C613.022 543.584 607.6 528.596 605.869 512.043Z"/>
	<path fill="#03C4CD" transform="scale(0.5 0.5)" d="M664.343 560.214L664.47 512.027L717.834 512.023C716.628 528.365 711.148 541.701 698.532 552.551C688.238 561.405 677.693 564.676 664.527 566.651L664.343 560.214Z"/>
	<path fill="#AEAD6E" transform="scale(0.5 0.5)" d="M565.563 401.64C568.074 402.491 569.948 404.142 572.011 405.75C579.945 411.935 585.972 420.298 590.422 429.255C599.27 447.063 601.244 467.602 594.811 486.494C587.971 506.582 574.074 522.744 555.007 532.132C538.064 540.473 517.973 541.208 500.207 535.024C488.633 530.996 477.938 523.892 469.693 514.867C467.218 512.157 464.426 508.986 462.718 505.723C462.42 505.153 462.292 504.664 462.135 504.045C465.229 505.999 468.072 508.532 471.136 510.586C479.253 516.027 488.984 519.775 498.634 521.318C517.688 524.366 536.515 520.191 552.148 508.805C568.351 497.005 578.942 479.88 581.985 460.037C585.395 437.801 578.54 419.446 565.563 401.64Z"/>
	<path fill="#FDCC74" transform="scale(0.5 0.5)" d="M511.969 305.971L512.984 305.651L783.579 484.126L770.571 486.414C769.318 486.65 766.324 487.54 765.136 487.295L747.917 490.555L747.97 580.203L747.848 606.985C747.815 611.015 748.172 615.534 747.594 619.512C747.12 614.799 747.491 609.701 747.496 604.953L747.529 577.909L747.485 490.532L721.101 472.874L589.687 387.073L544.095 357.784L521.304 343.169C518.24 341.285 515.27 339.111 512.045 337.523L511.969 305.971Z"/>
	<path fill="#AEAD6E" transform="scale(0.5 0.5)" d="M269.328 464.57L325.003 427.892L440.812 351.876L482.121 324.768L501.256 312.276C504.656 310.095 508.194 307.388 511.969 305.971L512.045 337.523C498.807 347.385 484.167 356.078 470.358 365.158L378.26 425.385L299.386 477.66C289.77 483.837 279.785 491.538 269.495 496.445L269.328 464.57Z"/>
	<path fill="#001E54" transform="scale(0.5 0.5)" d="M616.761 591.146L720.597 591.152L720.508 709.013L730.132 709.014L730.043 730.211L711.625 730.093L597.938 729.802L609.654 718.19C611.605 716.239 615.767 712.847 616.764 710.339C617.14 709.395 616.764 706.628 616.764 705.478L616.765 687.675L616.761 591.146Z"/>
	<path fill="white" transform="scale(0.5 0.5)" d="M622.601 706.07L622.513 655.092L656.161 655.254C658.989 655.269 665.007 654.58 667.423 655.75L667.438 658.888L667.078 659.022L626.401 658.981L626.396 700.915C625.313 702.876 624.395 704.666 622.601 706.07Z"/>
	<path fill="white" transform="scale(0.5 0.5)" d="M675.366 709.145L672.25 709.023C671.998 708.765 671.601 708.594 671.494 708.25C671.27 707.529 671.494 705.69 671.494 704.874L671.493 696.612L671.488 655.05C677.376 655.189 713.787 654.185 715.814 655.612L715.813 658.958L675.377 658.951L675.372 693.99C675.364 698.736 674.726 704.515 675.366 709.145Z"/>
	<path fill="white" transform="scale(0.5 0.5)" d="M716.247 647.028L715.75 650.182C713.26 651.481 677.25 650.595 671.314 650.59L671.279 597.494L703.974 597.523C706.654 597.525 713.805 596.779 715.86 598.075L716.09 601.085L675.05 601.083L675.213 632.224C675.24 636.387 674.714 641.475 675.548 645.514L675.774 646.911C680.336 647.477 685.182 647.118 689.788 647.108L716.247 647.028Z"/>
	<path fill="white" transform="scale(0.5 0.5)" d="M667.685 647.03L667.422 650C667.198 650.207 667.028 650.495 666.75 650.622C665.465 651.207 627.507 650.553 622.483 650.544L622.534 597.546L655.053 597.486C657.912 597.483 665.13 596.674 667.396 598L667.6 601.223L626.103 601.274C626.153 606.719 625.484 645.339 626.54 646.932L667.685 647.03Z"/>
	<path fill="#64B8C3" transform="scale(0.5 0.5)" d="M626.396 700.915L626.401 658.981L667.078 659.022L644.098 682.598C638.346 688.601 632.777 695.622 626.396 700.915Z"/>
	<path fill="#03C4CD" transform="scale(0.5 0.5)" d="M716.031 605.981L716.042 634.606C716.045 638.42 715.472 643.345 716.247 647.028L689.788 647.108C685.182 647.118 680.336 647.477 675.774 646.911L675.548 645.514C678.063 644.525 681.305 640.099 683.292 637.991L704.817 615.887C708.072 612.646 711.865 607.901 716.031 605.981Z"/>
	<path fill="#64B8C3" transform="scale(0.5 0.5)" d="M626.54 646.932L626.678 645.082L667.366 603.323L667.496 634.11C667.499 638.123 666.946 643.157 667.685 647.03L626.54 646.932Z"/>
	<path fill="#B1E3E2" transform="scale(0.5 0.5)" d="M626.54 646.932C625.484 645.339 626.153 606.719 626.103 601.274L667.6 601.223L667.366 603.323L626.678 645.082L626.54 646.932Z"/>
	<path fill="#64B8C3" transform="scale(0.5 0.5)" d="M675.548 645.514C674.714 641.475 675.24 636.387 675.213 632.224L675.05 601.083L716.09 601.085L716.031 605.981C711.865 607.901 708.072 612.646 704.817 615.887L683.292 637.991C681.305 640.099 678.063 644.525 675.548 645.514Z"/>
	<path fill="#03C4CD" transform="scale(0.5 0.5)" d="M667.078 659.022L667.438 658.888L667.603 709.061L636.961 709.142C632.561 709.15 627.01 709.785 622.75 708.866C622.639 707.881 622.521 707.058 622.601 706.07C624.395 704.666 625.313 702.876 626.396 700.915C632.777 695.622 638.346 688.601 644.098 682.598L667.078 659.022Z"/>
	<path fill="#03C4CD" transform="scale(0.5 0.5)" d="M675.366 709.145C674.726 704.515 675.364 698.736 675.372 693.99L675.377 658.951L715.813 658.958L715.915 709.077L675.366 709.145Z"/>
	<path fill="#001E54" transform="scale(0.5 0.5)" d="M282.69 727.359C288.33 720.326 294.892 713.114 302.013 707.522L302.124 592.596L377.661 592.557L398.365 592.498C400.772 592.492 404.236 592.013 406.504 592.753L406.452 685.316L406.481 704.227C406.485 705.945 406.059 709.137 406.496 710.727C406.786 711.783 411.549 716.03 412.504 716.989C417.744 722.254 423.095 728.087 428.956 732.629L326.007 732.818L298.602 732.835C294.042 732.838 288.633 732.291 284.196 733.17C283.475 733.334 282.844 733.274 282.11 733.247L281.045 730.448C281.424 729.219 281.991 728.417 282.69 727.359Z"/>
	<path fill="white" transform="scale(0.5 0.5)" d="M309.351 707.713C308.312 707.537 307.695 707.474 306.902 706.75L306.809 655.607L400.092 655.498L400.005 700.692L399.84 700.15C398.647 695.856 398.935 690.766 398.808 686.301L398.458 659.013L360.202 659.017L360.182 707.403L356.037 707.446L355.998 668.924C356 666.777 356.647 661.604 356.007 659.75C355.89 659.409 355.502 659.236 355.25 658.979L350.922 658.982L309.966 658.957L310.18 706.514L309.351 707.713Z"/>
	<path fill="#64B8C3" transform="scale(0.5 0.5)" d="M310.18 706.514L309.966 658.957L350.922 658.982L311.111 704.206C310.466 704.923 310.378 705.603 310.18 706.514Z"/>
	<path fill="#03C4CD" transform="scale(0.5 0.5)" d="M350.922 658.982L355.25 658.979C355.502 659.236 355.89 659.409 356.007 659.75C356.647 661.604 356 666.777 355.998 668.924L356.037 707.446L309.351 707.713L310.18 706.514C310.378 705.603 310.466 704.923 311.111 704.206L350.922 658.982Z"/>
	<path fill="#03C4CD" transform="scale(0.5 0.5)" d="M360.182 707.403L360.202 659.017L398.458 659.013L398.808 686.301C398.935 690.766 398.647 695.856 399.84 700.15L400.005 700.692C400.068 702.551 400.631 705.861 399.932 707.509L360.182 707.403Z"/>
	<path fill="white" transform="scale(0.5 0.5)" d="M400.169 646.478C400.211 647.811 400.414 649.121 399.75 650.33L307.007 650.439L307.078 598.527L380.028 598.424C383.602 598.42 398.458 597.691 400.25 598.927L400.234 603.117L400.169 646.478Z"/>
	<path fill="#03C4CD" transform="scale(0.5 0.5)" d="M360.582 647.346C360.721 646.908 360.743 646.412 361 646.03C361.598 645.14 363.072 644.099 363.871 643.309C365.478 641.718 366.932 639.965 368.423 638.266L391.051 611.778C393.248 609.233 394.943 606.331 397.66 604.284L397.439 647.455C393.933 647.098 390.228 647.377 386.69 647.394L360.582 647.346Z"/>
	<path fill="#64B8C3" transform="scale(0.5 0.5)" d="M360.582 647.346C359.383 645.622 360.008 607.581 360.003 602.038L386.731 602.033C389.746 602.028 395.643 601.303 398.264 602.685L397.66 604.284C394.943 606.331 393.248 609.233 391.051 611.778L368.423 638.266C366.932 639.965 365.478 641.718 363.871 643.309C363.072 644.099 361.598 645.14 361 646.03C360.743 646.412 360.721 646.908 360.582 647.346Z"/>
	<path fill="#64B8C3" transform="scale(0.5 0.5)" d="M339.224 647.583C335.968 648.056 332.341 647.773 329.045 647.803L310.211 647.965L310.052 602.131L338.576 602.121C343.357 602.125 348.74 601.659 353.418 602.472L355.5 602.386C356.719 604.494 355.991 611.04 355.988 613.692L355.952 647.6L339.224 647.583Z"/>
	<path fill="#03C4CD" transform="scale(0.5 0.5)" d="M353.418 602.472L355.5 602.386C356.719 604.494 355.991 611.04 355.988 613.692L355.952 647.6L339.224 647.583C331.382 646.543 322.395 647.394 314.438 647.389L353.418 602.472Z"/>
	<path fill="#001A4D" transform="scale(0.5 0.5)" d="M462.135 504.045C447.484 489.25 438.694 472.435 438.463 451.295C438.246 431.552 445.347 413.09 459.322 398.961C473.737 384.387 491.66 376.839 512.093 376.872C528.808 376.899 543.141 382.182 556.135 392.684C559.488 395.395 562.514 398.595 565.563 401.64C578.54 419.446 585.395 437.801 581.985 460.037C578.942 479.88 568.351 497.005 552.148 508.805C536.515 520.191 517.688 524.366 498.634 521.318C488.984 519.775 479.253 516.027 471.136 510.586C468.072 508.532 465.229 505.999 462.135 504.045Z"/>
	<path fill="white" transform="scale(0.5 0.5)" d="M503.667 382.183L503.714 382.168C520.61 380.253 536.766 384.774 550.519 394.672C564.441 404.693 574.61 421.513 577.315 438.428C580.199 456.466 575.142 475.135 564.455 489.802C553.291 505.122 537.227 513.909 518.768 516.875C500.666 518.684 484.097 514.107 469.486 503.108C454.746 492.013 446.32 475.885 443.889 457.808C441.557 440.464 447.202 421.895 457.812 408.09C469.238 393.223 485.302 384.663 503.667 382.183Z"/>
	<path fill="#001A4D" transform="scale(0.5 0.5)" d="M513.505 390.421C526.789 391.119 540.635 396.556 550.406 405.672C561.366 415.897 568.136 429.977 568.614 444.966L529.043 444.994C527.325 444.994 521.033 445.631 519.726 444.993C518.964 444.621 518.297 441.182 517.184 440.363C516.137 439.592 514.536 439.023 513.348 438.457L513.505 390.421Z"/>
	<path fill="#03C4CD" transform="scale(0.5 0.5)" d="M518.901 396.936C525.92 398.173 532.42 400.429 538.528 404.122C551.639 412.046 559.019 424.919 562.49 439.459L518.906 439.495L518.901 396.936Z"/>
	<path fill="#001E54" transform="scale(0.5 0.5)" d="M506.8 390.693C507.958 390.564 507.747 390.359 508.75 391.153L508.913 438C505.66 439.67 504.222 440.953 502.569 444.288L502.269 444.909L454.875 445.124C453.957 445.114 453.317 444.973 452.436 444.75C452.189 434.83 457.613 422.197 463.61 414.417C475.004 399.634 488.672 393.1 506.8 390.693Z"/>
	<path fill="#03C4CD" transform="scale(0.5 0.5)" d="M500.385 397.25L502.5 396.947C503.892 399.6 502.653 433.061 502.546 439.323L460.875 439.538L459.5 439.457L458.974 438.75C460.207 432.685 462.567 426.849 465.741 421.534C473.53 408.49 485.979 400.954 500.385 397.25Z"/>
	<path fill="#001A4D" transform="scale(0.5 0.5)" d="M519.741 450.25C523.577 449.179 529.881 450.019 533.946 450.018L569.429 450.031C568.171 468.134 562.194 481.972 548.804 494.441C538.833 502.935 526.915 507.763 513.909 508.742L513.65 456.582C514.573 456.073 514.245 456.199 515.011 455.924L516.705 455.25C518.461 454.343 518.842 452.764 519.469 451.018L519.741 450.25Z"/>
	<path fill="#03C4CD" transform="scale(0.5 0.5)" d="M519.185 455.526L563.096 455.47C561.249 468.265 557.097 478.041 548.252 487.599C539.543 495.89 530.798 499.791 519.104 502.225L519.185 455.526Z"/>
	<path fill="#001E54" transform="scale(0.5 0.5)" d="M451.805 450.023L501.962 450.02L502.388 451.026C503.819 454.3 505.007 455.428 508.329 456.695L508.924 456.914L509.065 508.543C495.107 508.556 482.563 503.403 471.996 494.349C458.451 482.743 453.12 467.306 451.805 450.023Z"/>
	<path fill="#03C4CD" transform="scale(0.5 0.5)" d="M457.215 455.497L486.684 455.533C491.467 455.544 497.372 454.92 502 455.969C502.281 456.312 502.645 456.603 502.844 457C503.682 458.68 503.029 465.041 503.03 467.259L503.014 503.081C493.835 501.285 485.841 497.953 478.252 492.437C466.279 483.734 459.476 469.849 457.215 455.497Z"/>
	<path fill="#64B8C3" transform="scale(0.5 0.5)" d="M474.74 74.0353C483.424 71.6078 492.047 69.2449 501 68.0017C529.553 64.037 556.475 68.2761 583.387 78.1405C585.659 78.0429 587.35 78.1871 589.535 78.798C593.106 79.7963 596.872 80.2528 600.5 81.0428L615.691 85.0395C629.501 89.0124 642.775 93.9402 656.079 99.3442C665.431 103.143 674.874 107.098 683.798 111.827C686.388 113.2 690.065 114.67 692.142 116.709C706.586 111.912 721.112 111.635 734.957 118.494C748.044 124.977 759.7 137.767 764.277 151.716C765.07 154.133 765.573 156.818 765.778 159.35L765.814 159.363C766.59 176.567 763.251 190.824 751.309 203.809C744.891 210.788 736.104 215.633 727.016 218.144C722.993 219.255 719.018 219.62 714.871 219.846C714.429 219.87 711.678 219.947 711.617 220.006C711.032 220.572 711.393 233.129 711.399 235.02L711.212 402.476L763.755 436.462L786.544 451.166L796.326 457.353C797.888 458.357 799.733 459.293 800.943 460.716L784.974 484.41C784.499 484.333 784.034 484.284 783.579 484.126L512.984 305.651L511.969 305.971C508.194 307.388 504.656 310.095 501.256 312.276L482.121 324.768L440.812 351.876L325.003 427.892L269.328 464.57L269.495 496.445L269.566 707.903C265.131 707.972 262.585 708.441 259.287 711.712C251.875 719.067 248.934 731.945 247.745 741.943C246.461 752.735 248.508 764.165 251.861 774.413L246.739 774.072L246.262 773.226C245.094 770.985 245.211 768.179 244.496 765.767C242.342 758.498 235.185 753.64 228.34 751.159C224.479 749.76 220.602 748.94 216.542 748.386C215.906 745.491 216.362 741.901 216.376 738.896L216.477 717.409L216.565 637.506L206.913 637.525L206.838 746.987C190.822 746.854 170.954 746.242 158.665 758.532C156.224 760.974 154.599 763.744 153.773 767.103C152.463 772.436 153.03 778.702 153.03 784.19L152.98 817.287C141.373 803.712 131.371 789.975 122.43 774.49C120.38 770.938 117.918 767.341 116.419 763.522L111.364 762.694C98.5454 760.325 88.4392 751.271 81.3269 740.813C77.9108 735.009 75.8696 729.325 74.7588 722.682C73.1154 712.855 76.3204 700.94 82.176 692.983C89.833 682.578 100.768 676.858 113.341 674.911L94.7853 625.75C93.4177 621.136 87.2937 600.068 88.8568 597.192C78.0636 595.492 67.0326 587.768 60.3999 579.296C52.5196 569.23 48.6099 555.613 50.3088 542.916L50.4405 542C52.3191 528.315 58.633 519.526 68.1281 509.932C67.7841 505.192 68.4543 500.059 68.777 495.305C69.9108 478.601 72.4444 462.52 75.2098 446.039C68.345 442.958 62.6776 439.157 58.5752 432.683C54.0734 425.578 52.3651 417.263 54.2257 409.021C56.2881 399.885 61.4892 392.075 69.5381 387.118C78.1688 381.803 87.4789 380.992 97.1365 383.315C98.5564 381.781 98.9262 378.119 99.4784 376L102.94 364.434C108.237 348.507 114.626 333.002 121.833 317.844C123.471 314.401 125.023 309.807 127.609 307.039C126.692 303.38 125.322 299.873 124.525 296.171C121.624 282.687 121.64 268.598 124.222 255.058C128.657 231.796 141.848 209.803 161.661 196.466C177.972 185.488 197.3 179.679 217 180.064C224.332 180.208 231.142 181.413 238.31 182.802C240.913 179.251 244.689 175.961 247.883 172.919C260.748 160.666 275.242 149.686 290.054 139.909C338.038 108.236 392.278 86.8617 448.902 77.0678L464.75 74.5393C468.069 74.0584 471.407 73.356 474.74 74.0353Z"/>
	<path fill="#008498" transform="scale(0.5 0.5)" d="M208.414 603.117L212.527 602.962L212.589 611.25L211.364 611.967L208.866 612.269C207.837 610.147 208.41 605.588 208.414 603.117Z"/>
	<path fill="#001A4D" transform="scale(0.5 0.5)" d="M209.304 585.402L214.25 585.461C215.335 587.239 214.696 592.388 214.683 594.659C212.571 594.34 210.495 594.583 208.377 594.738C207.392 592.512 207.946 587.961 207.935 585.416L209.304 585.402Z"/>
	<path fill="white" transform="scale(0.5 0.5)" d="M211.364 611.967C216.513 611.837 220.106 614.285 224.096 617.193L217.979 622.822C216.647 621.558 214.969 619.649 213 619.578C210.085 619.474 208.046 621.235 206.08 623.133L205.515 623.684L200.455 618.332C203.035 615.402 205.259 613.766 208.866 612.269L211.364 611.967Z"/>
	<path fill="white" transform="scale(0.5 0.5)" d="M654.08 324.19L654.832 324.226C661.972 324.632 666 328.168 670.529 333.258L664.415 339.22C662.019 335.777 660.375 333.769 656.53 331.871L655.887 331.56L653.783 331.497C649.935 331.614 646.951 335.684 644.6 338.318L638.203 332.552C643.009 327.503 647.231 325.154 654.08 324.19Z"/>
	<path fill="white" transform="scale(0.5 0.5)" d="M208.377 594.738C210.495 594.583 212.571 594.34 214.683 594.659L215.074 594.804C222.379 597.431 228.073 598.072 234.059 603.697L228.774 609.899L228.034 609.236C223.31 605.04 218.832 603.422 212.527 602.962L208.414 603.117C202.166 604.46 198.597 606.928 193.674 610.865L188.313 605.496C193.174 600.761 198.033 597.523 204.688 595.854L207.522 595.047L208.377 594.738Z"/>
	<path fill="white" transform="scale(0.5 0.5)" d="M651.119 307.142L654.317 307.018C665.81 307.112 674.373 312.369 682.228 320.36C679.901 321.92 678.037 323.765 676.062 325.734C671.574 320.337 666.648 317.023 659.947 314.907C659.181 314.689 658.516 314.549 657.716 314.511C647.362 314.021 641.196 318.425 633.796 325.013L628.321 320.432C633.762 313.217 642.39 308.742 651.119 307.142Z"/>
	<path fill="white" transform="scale(0.5 0.5)" d="M598.207 234.083C600.873 233.905 603.452 233.648 605.943 234.814C609.108 236.295 611.853 239.153 612.934 242.506C613.912 245.54 613.728 249.189 612.246 252.031C610.394 255.581 607.294 257.725 603.573 258.97C600.986 259.402 598.969 259.516 596.491 258.525C593.25 257.229 590.354 254.362 589.094 251.091C587.951 248.122 588.266 243.642 589.658 240.838C591.507 237.112 594.488 235.461 598.207 234.083Z"/>
	<path fill="white" transform="scale(0.5 0.5)" d="M292.364 360.565C294.651 360.455 297.019 360.622 299.181 361.431C302.44 362.649 304.983 365.369 306.25 368.591C307.641 372.128 307.323 375.735 305.775 379.188C303.915 383.339 300.72 385.216 296.656 386.733C293.571 386.953 290.99 386.757 288.227 385.244C285.071 383.517 282.455 380.243 281.549 376.748C280.745 373.648 281.409 369.682 283.033 366.955C285.266 363.206 288.277 361.601 292.364 360.565Z"/>
	<path fill="white" transform="scale(0.5 0.5)" d="M167.446 655.056C170.1 655.113 172.395 655.336 174.767 656.625C177.879 658.316 180.508 661.694 181.328 665.144C182.152 668.609 181.392 672.267 179.528 675.25C177.161 679.038 174.005 680.463 169.784 681.349C167.397 681.269 164.835 681.159 162.678 680.031C159.39 678.311 156.708 674.952 155.775 671.364C154.909 668.035 155.739 664.298 157.571 661.423C159.931 657.718 163.383 656.102 167.446 655.056Z"/>
	<path fill="white" transform="scale(0.5 0.5)" d="M187.366 458.079C190.401 457.933 192.999 457.817 195.897 458.952C199.455 460.345 201.945 463.438 203.286 466.934C204.473 470.032 204.377 473.741 202.969 476.75C201.025 480.904 197.259 482.902 193.142 484.363C190.273 484.909 187.264 485.252 184.497 484.06C181.616 482.82 179.083 480.367 177.912 477.449C176.383 473.64 175.767 469.056 177.639 465.25C179.72 461.021 183.118 459.43 187.366 458.079Z"/>
	<path fill="white" transform="scale(0.5 0.5)" d="M207.188 576.532C210.295 576.345 213.283 576.196 216.391 576.476C227.894 578.443 238.922 581.457 247.38 590.102L241.381 596.207C232.924 589.328 222.537 583.938 211.227 585.101L209.304 585.402L207.935 585.416C198.176 586.944 190.765 590.128 182.732 595.872C181.581 595.842 177.741 591.49 176.695 590.455C186.128 582.93 195.405 578.832 207.188 576.532Z"/>
	<path fill="white" transform="scale(0.5 0.5)" d="M654.252 289.204L658.602 289.435C672.504 290.374 683.947 297.935 692.869 308.174L686.081 313.971L684.777 312.256C677.821 303.528 668.835 299.165 657.87 297.934C654.214 297.918 650.742 298.004 647.125 298.634C637.482 300.313 629.966 305.736 624.366 313.568C621.964 311.94 619.908 309.745 617.805 307.753C628.805 296.443 638.269 290.222 654.252 289.204Z"/>
	<path fill="white" transform="scale(0.5 0.5)" d="M524.969 210.148C527.137 210.319 529.413 210.453 531.448 211.283C535.978 213.131 539.755 217.057 541.473 221.638L541.692 222.25L542.154 223.587C543.26 227.508 542.56 232.042 540.549 235.524C537.559 240.701 532.763 243.212 527.104 244.557C523.234 244.571 519.595 244.064 516.25 241.921C512.506 239.521 509.523 235.364 508.626 230.98C507.739 226.639 508.849 220.951 511.502 217.436C514.966 212.846 519.5 210.974 524.969 210.148Z"/>
	<path fill="#B1E3E2" transform="scale(0.5 0.5)" d="M215.894 386.224C227.286 389.903 236.275 395.329 241.993 406.25C246.284 414.444 246.802 424.309 243.902 433.029C242.265 437.953 239.857 442.958 236.582 447.011L215.986 447.043L215.894 386.224Z"/>
	<path fill="#001E54" transform="scale(0.5 0.5)" d="M426.211 232.2L435.987 231.597L435.998 256.239L420.555 256.106L339.206 256.051L339.173 280.43L338.718 280.872L338.693 256.355L325.694 256.302L325.654 232.026L332.636 231.976L426.211 232.2Z"/>
	<path fill="white" transform="scale(0.5 0.5)" d="M519.764 153.695C523.092 152.752 528.82 153.681 532.316 154.084C552.048 156.362 568.866 168.617 581.05 183.751L561.224 203.116C553.391 193.201 545.08 185.26 532.679 181.718C528.731 180.688 524.671 180.443 520.628 180.964C507.041 182.715 497.18 191.471 489.163 201.926L469.88 183.091L471.683 180.754C484.127 164.915 499.887 156.088 519.764 153.695Z"/>
	<path fill="white" transform="scale(0.5 0.5)" d="M332.636 231.976L379.681 156.473L426.211 232.2L332.636 231.976Z"/>
	<path fill="white" transform="scale(0.5 0.5)" d="M519.182 109.711L525 109.558C549.341 109.923 575.091 119.459 593.911 134.788C600.955 140.525 607.083 147.328 613.33 153.901L594.393 171.816C591.161 168.093 587.979 164.103 584.367 160.75C570.487 147.864 552.931 138.715 534.121 136.086C525.161 134.652 515.646 135.464 506.799 137.187C487.003 141.041 467.527 153.821 456.32 170.508L437.038 151.759C442.566 145.655 448.251 139.359 454.601 134.093C473.413 118.497 495.087 111.418 519.182 109.711Z"/>
	<path fill="white" transform="scale(0.5 0.5)" d="M113.341 674.911C126.556 674.795 137.433 677.673 147.09 687.13C147.264 687.299 148.023 687.978 148.155 688.249C156.101 695.489 162.582 707.133 162.983 718C163.405 729.419 159.615 741.091 151.746 749.527C142.686 759.24 131.121 763.104 118.079 763.511L116.419 763.522L111.364 762.694C98.5454 760.325 88.4392 751.271 81.3269 740.813C77.9108 735.009 75.8696 729.325 74.7588 722.682C73.1154 712.855 76.3204 700.94 82.176 692.983C89.833 682.578 100.768 676.858 113.341 674.911Z"/>
	<path fill="#001E54" transform="scale(0.5 0.5)" d="M113.341 674.911C126.556 674.795 137.433 677.673 147.09 687.13C147.264 687.299 148.023 687.978 148.155 688.249L148.08 689.258L146.709 688.325C146.775 689.408 147.655 689.851 148.426 690.575L147.201 690.576C138.957 682.027 129.355 676.897 117.271 676.671C106.526 676.47 95.5531 680.786 87.902 688.343C80.1539 695.996 75.5354 706.167 75.4944 717.167C75.4831 720.199 75.9917 722.997 76.6177 725.945C77.6771 730.934 79.7164 735.421 82.2367 739.835L81.3269 740.813C77.9108 735.009 75.8696 729.325 74.7588 722.682C73.1154 712.855 76.3204 700.94 82.176 692.983C89.833 682.578 100.768 676.858 113.341 674.911Z"/>
	<path fill="#001A4D" transform="scale(0.5 0.5)" d="M147.201 690.576L148.426 690.575C147.655 689.851 146.775 689.408 146.709 688.325L148.08 689.258L148.155 688.249C156.101 695.489 162.582 707.133 162.983 718C163.405 729.419 159.615 741.091 151.746 749.527C142.686 759.24 131.121 763.104 118.079 763.511L116.419 763.522L111.364 762.694C98.5454 760.325 88.4392 751.271 81.3269 740.813L82.2367 739.835C88.8671 748.647 98.1463 754.781 109.096 756.767C119.456 758.645 131.029 756.114 139.616 750.056C148.446 743.827 154.31 734.654 156.08 724.008C158.136 711.637 154.43 700.554 147.201 690.576Z"/>
	<path fill="#008498" transform="scale(0.5 0.5)" d="M112.806 687.137C119.257 686.326 126.374 687.458 131.906 690.954C138.862 695.349 143.969 702.613 145.536 710.716C146.994 718.259 145.386 727.18 141.113 733.585C136.404 740.642 129.188 744.808 120.997 746.388C113.247 747.318 105.868 746.677 99.1689 742.195C92.991 738.062 88.5907 731.417 87.2771 724.082C85.7581 715.601 87.0372 706.274 92.1542 699.165C97.3334 691.969 104.174 688.58 112.806 687.137Z"/>
	<path fill="white" transform="scale(0.5 0.5)" d="M112.017 690.607C117.932 690.097 123.583 690.53 128.978 693.169C135.419 696.32 139.813 702.069 142.057 708.8C144.239 715.344 143.415 723.041 140.266 729.152C136.2 737.043 130.133 740.526 121.967 743.088C114.821 744.062 108.625 743.865 102.183 740.098C96.4717 736.759 92.3079 730.652 90.7437 724.288C89.0817 717.526 89.6098 709.277 93.378 703.307C97.731 696.41 104.19 692.447 112.017 690.607Z"/>
	<path fill="#001A4D" transform="scale(0.5 0.5)" d="M113.276 700.594C117.108 700.056 120.958 700.2 124.499 701.939C128.458 703.883 130.983 707.129 132.411 711.25C134.043 715.96 133.39 720.919 130.988 725.25C128.494 729.747 124.629 731.953 119.858 733.431C116.483 734.013 112.914 733.8 109.75 732.418C105.506 730.565 102.218 726.887 100.737 722.519C99.4089 718.6 99.6233 713.109 101.573 709.469C104.225 704.52 108.14 702.266 113.276 700.594Z"/>
	<path fill="white" transform="scale(0.5 0.5)" d="M474.74 74.0353C483.424 71.6078 492.047 69.2449 501 68.0017C529.553 64.037 556.475 68.2761 583.387 78.1405C602.113 86.037 619.019 97.547 633.427 111.887C637.401 115.842 640.996 120.283 644.681 124.517L626.346 142.181C620.782 135.005 614.232 128.64 607.3 122.792C579.647 99.4638 545.6 89.5089 509.75 92.667C475.857 95.6527 445.162 113.767 423.568 139.641L405.167 122.515C411.972 114.544 419.431 106.455 427.573 99.8269C441.834 88.2181 457.626 80.4439 474.74 74.0353Z"/>
	<path fill="#001A4D" transform="scale(0.5 0.5)" d="M68.1281 509.932C79.2116 500.827 91.6555 497.096 105.924 498.526C116.626 499.599 126.151 504.996 134.227 511.826C140.1 497.865 142.618 483.275 138.87 468.334C138.556 467.082 138.443 466.23 139.136 465.06C139.956 463.675 140.557 463.61 142 463.158C143.847 463.678 145.06 463.974 146.056 465.804C147.197 467.901 147.589 470.664 147.998 473C149.899 483.844 148.606 495.42 145.026 505.773L139.686 518.193C147.77 530.435 151.692 543.81 148.743 558.516C146.063 571.882 137.926 583.49 126.567 590.969C115.111 598.513 102.116 599.901 88.8568 597.192C78.0636 595.492 67.0326 587.768 60.3999 579.296C52.5196 569.23 48.6099 555.613 50.3088 542.916L50.4405 542C52.3191 528.315 58.633 519.526 68.1281 509.932Z"/>
	<path fill="#EBA43D" transform="scale(0.5 0.5)" d="M125.413 534.855L134.344 524.892C140.453 535.116 142.907 545.902 140.422 557.665C138.105 568.632 131.969 577.627 122.55 583.719C113.322 589.686 101.279 592.008 90.5312 589.539C79.5962 587.028 69.9898 580.097 64.1466 570.504C58.2299 560.79 56.5905 548.835 59.3724 537.824C62.1229 526.937 68.7677 517.994 78.4249 512.245C86.8183 507.248 97.973 504.642 107.575 507.201L108.5 507.454C116.977 509.686 123.402 513.536 130.044 519.207L121.959 528.223L106.853 544.188C103.859 547.382 100.931 550.989 97.5191 553.73L89.632 546.362L84.3533 550.826C87.8511 556.074 92.7413 560.456 97.8224 564.141C107.827 555.71 116.491 544.484 125.413 534.855Z"/>
	<path fill="white" transform="scale(0.5 0.5)" d="M125.413 534.855L126.248 535.993C129.541 541.269 130.177 548.644 128.756 554.613C126.776 562.932 122.157 569.547 114.746 573.908C108.236 577.739 99.6329 579.36 92.262 577.287L91.5 577.06C87.1264 575.786 83.3819 573.726 79.9817 570.664C73.917 565.202 70.5783 557.733 70.2645 549.599C69.919 540.646 72.9973 533.185 79.0924 526.743C84.2366 521.306 91.7345 517.806 99.25 517.681C108.539 517.527 115.565 522.043 121.959 528.223L106.853 544.188C103.859 547.382 100.931 550.989 97.5191 553.73L89.632 546.362L84.3533 550.826C87.8511 556.074 92.7413 560.456 97.8224 564.141C107.827 555.71 116.491 544.484 125.413 534.855Z"/>
	<path fill="#001A4D" transform="scale(0.5 0.5)" d="M338.718 280.872L339.173 280.43L339.206 256.051L420.555 256.106L420.547 332.548C420.174 333.202 419.825 333.637 419.2 334.068L375.479 362.654L353.815 377.093L343.733 383.907C342.346 384.826 340.785 386.124 339.19 386.579C339.197 383.04 340.059 376.807 338.913 373.626L338.718 280.872Z"/>
	<path fill="white" transform="scale(0.5 0.5)" d="M97.1365 383.315C98.5564 381.781 98.9262 378.119 99.4784 376L102.94 364.434C108.237 348.507 114.626 333.002 121.833 317.844C123.471 314.401 125.023 309.807 127.609 307.039C136.986 330.777 152.004 348.647 175.75 358.991C185.846 363.389 195.733 365.156 206.658 366.065C206.665 371.954 207.338 378.724 206.511 384.502L206.62 447.037L118.297 447.107L95.8925 447.148C91.0841 447.213 86.1447 447.598 81.3549 447.332C79.24 447.215 77.1927 446.779 75.2098 446.039C68.345 442.958 62.6776 439.157 58.5752 432.683C54.0734 425.578 52.3651 417.263 54.2257 409.021C56.2881 399.885 61.4892 392.075 69.5381 387.118C78.1688 381.803 87.4789 380.992 97.1365 383.315Z"/>
	<path fill="#64B8C3" transform="scale(0.5 0.5)" d="M97.1365 383.315C98.5564 381.781 98.9262 378.119 99.4784 376L102.94 364.434C108.237 348.507 114.626 333.002 121.833 317.844C123.471 314.401 125.023 309.807 127.609 307.039C136.986 330.777 152.004 348.647 175.75 358.991C185.846 363.389 195.733 365.156 206.658 366.065C206.665 371.954 207.338 378.724 206.511 384.502C198.116 383.92 190.756 384.575 182.864 387.575C182.384 382.258 180.069 376.518 177.27 372C171.685 362.98 162.2 356.861 151.912 354.522C141.86 352.236 131.37 354.095 122.68 359.612C112.606 366.007 106.612 374.643 104.007 386.179L97.1365 383.315Z"/>
	<path fill="#001E54" transform="scale(0.5 0.5)" d="M127.609 307.039C126.692 303.38 125.322 299.873 124.525 296.171C121.624 282.687 121.64 268.598 124.222 255.058C128.657 231.796 141.848 209.803 161.661 196.466C177.972 185.488 197.3 179.679 217 180.064C224.332 180.208 231.142 181.413 238.31 182.802C244.962 184.833 251.543 187.043 257.728 190.271C273.807 198.661 287.432 212.469 295.891 228.489C307.822 251.085 309.782 277.094 302.141 301.388C294.742 324.912 276.849 344.966 255.054 356.217C242.653 362.619 229.634 365.76 215.746 366.245L215.894 386.224L215.986 447.043L216.391 576.476C213.283 576.196 210.295 576.345 207.188 576.532L207.051 526.227L206.988 429.376L206.948 398.294C206.939 394.062 207.58 388.569 206.511 384.502C207.338 378.724 206.665 371.954 206.658 366.065C195.733 365.156 185.846 363.389 175.75 358.991C152.004 348.647 136.986 330.777 127.609 307.039Z"/>
	<path fill="#008498" transform="scale(0.5 0.5)" d="M212.427 189.713C231.446 188.936 251.633 194.893 266.5 207.047C284.868 222.062 295.066 243.426 297.231 266.805C299.185 287.901 291.635 310.006 277.947 326.095C262.665 344.058 241.069 354.99 217.625 357.045C196.991 358.852 174.813 351.46 159.029 338.09C143.48 324.92 133.112 303.577 131.59 283.303C129.831 259.875 136.249 236.208 151.832 218.324C163.583 204.837 178.174 195.675 195.629 191.769C201.115 190.541 206.838 190.113 212.427 189.713Z"/>
	<path fill="white" transform="scale(0.5 0.5)" d="M147.831 258.534L147.56 257.243C147.194 255.56 146.757 254.091 147.309 252.384C147.697 251.185 148.883 250.251 149.817 249.461C153.361 246.465 157.35 243.881 161.07 241.095L187.38 221.72C194.081 216.83 201.392 209.923 208.862 206.467C211.836 205.09 213.522 205.211 216.544 206.322C220.837 206.849 227.161 212.449 231 214.95L268.047 240.241C272.024 243.13 277.298 246.234 280.316 250.122C282.152 252.489 282.751 255.059 282.352 258.005C281.851 261.707 279.447 265.279 277.253 268.213C272.976 266.078 269.131 262.019 264.935 260.301C263.41 260.196 263.312 259.794 262.255 258.75L261.876 259.887C261.473 258.182 261.464 258.231 260.046 257.19C257.882 256.178 255.857 254.61 253.846 253.303L253.436 253.105C249.484 251.121 245.807 248.056 242.217 245.468L222.036 230.777C219.652 229.04 216.671 226.233 213.933 225.209L170.372 256.553C170.541 255.335 170.042 253.304 169.887 252.036C167.62 253.868 165.12 255.629 163.178 257.808C160.186 260.712 156.113 264.823 152 265.898L151.395 265.511C149.241 263.993 148.33 260.973 147.831 258.534Z"/>
	<path fill="#001A4D" transform="scale(0.5 0.5)" d="M216.544 206.322C220.837 206.849 227.161 212.449 231 214.95L268.047 240.241C272.024 243.13 277.298 246.234 280.316 250.122C282.152 252.489 282.751 255.059 282.352 258.005C281.851 261.707 279.447 265.279 277.253 268.213C272.976 266.078 269.131 262.019 264.935 260.301C263.41 260.196 263.312 259.794 262.255 258.75L261.876 259.887C261.473 258.182 261.464 258.231 260.046 257.19C257.882 256.178 255.857 254.61 253.846 253.303L253.436 253.105C249.484 251.121 245.807 248.056 242.217 245.468L222.036 230.777C219.652 229.04 216.671 226.233 213.933 225.209L170.372 256.553C170.541 255.335 170.042 253.304 169.887 252.036C167.62 253.868 165.12 255.629 163.178 257.808C160.186 260.712 156.113 264.823 152 265.898L151.395 265.511C149.241 263.993 148.33 260.973 147.831 258.534L150.58 259.75C151.989 259.573 152.985 259.247 154.224 258.538C161.889 254.148 168.962 248.031 176.069 242.794L211.837 216.752L213.25 218.057C217.101 221.21 221.447 223.937 225.524 226.8L245.009 240.739C253.837 247.055 262.937 254.869 272.445 260.046C273.183 260.447 273.676 260.507 274.5 260.421C276.977 258.521 277.437 256.779 277.876 253.75C277.539 251.953 276.943 250.947 275.603 249.701C271.212 245.616 265.289 242.072 260.438 238.477L216.544 206.322Z"/>
	<path fill="#75671B" transform="scale(0.5 0.5)" d="M169.887 252.036L197.076 231.424C202.193 227.747 207.269 223.721 212.698 220.523C227.149 230.776 240.62 243.003 255.848 252.106C257.727 253.229 258.787 254.531 260.084 256.272L260.046 257.19C257.882 256.178 255.857 254.61 253.846 253.303L253.436 253.105C249.484 251.121 245.807 248.056 242.217 245.468L222.036 230.777C219.652 229.04 216.671 226.233 213.933 225.209L170.372 256.553C170.541 255.335 170.042 253.304 169.887 252.036Z"/>
	<path fill="#EBA43D" transform="scale(0.5 0.5)" d="M170.372 256.553L213.933 225.209C216.671 226.233 219.652 229.04 222.036 230.777L242.217 245.468C245.807 248.056 249.484 251.121 253.436 253.105L253.846 253.303C255.857 254.61 257.882 256.178 260.046 257.19C261.464 258.231 261.473 258.182 261.876 259.887L262.255 258.75C263.312 259.794 263.41 260.196 264.935 260.301L264.94 334.053L198.283 334.206L181.027 334.317C176.983 334.371 172.965 334.693 169 333.978C167.173 333.648 165.623 334.101 164.04 333C163.531 331.755 163.193 330.726 162.977 329.384L162.967 263.117L163.178 257.808C165.12 255.629 167.62 253.868 169.887 252.036C170.042 253.304 170.541 255.335 170.372 256.553Z"/>
	<path fill="white" transform="scale(0.5 0.5)" d="M169.887 252.036C170.042 253.304 170.541 255.335 170.372 256.553L170.264 257.176L170.386 329.425L162.977 329.384L162.967 263.117L163.178 257.808C165.12 255.629 167.62 253.868 169.887 252.036Z"/>
	<path fill="#AEAD6E" transform="scale(0.5 0.5)" d="M169.887 252.036C170.042 253.304 170.541 255.335 170.372 256.553L170.264 257.176L162.967 263.117L163.178 257.808C165.12 255.629 167.62 253.868 169.887 252.036Z"/>
	<path fill="white" transform="scale(0.5 0.5)" d="M186.437 329.471L186.518 265.468L235.999 265.551L236.099 329.539L228.954 329.537L228.988 274.688L194.503 274.663L194.386 329.501L186.437 329.471Z"/>
	<path fill="#001E54" transform="scale(0.5 0.5)" d="M253.846 253.303C255.857 254.61 257.882 256.178 260.046 257.19C261.464 258.231 261.473 258.182 261.876 259.887L262.255 258.75C263.312 259.794 263.41 260.196 264.935 260.301L264.94 334.053L198.283 334.206L181.027 334.317C176.983 334.371 172.965 334.693 169 333.978C167.173 333.648 165.623 334.101 164.04 333C163.531 331.755 163.193 330.726 162.977 329.384L170.386 329.425L186.437 329.471L194.386 329.501L194.503 274.663L228.988 274.688L228.954 329.537L236.099 329.539L252.996 329.563L253.846 253.303Z"/>
	<path fill="white" transform="scale(0.5 0.5)" d="M253.846 253.303C255.857 254.61 257.882 256.178 260.046 257.19C261.464 258.231 261.473 258.182 261.876 259.887L261.815 260.497L261.572 329.567L252.996 329.563L253.846 253.303Z"/>
	<path fill="#01366B" transform="scale(0.5 0.5)" d="M217.383 282.751C218.487 282.724 219.302 282.789 220.364 283.099C220.995 288.177 220.565 293.743 220.558 298.876L220.499 329.658L208.375 329.64C207.351 329.709 206.721 329.644 205.75 329.312L205.441 282.879L217.383 282.751Z"/>
	<path fill="#001E54" transform="scale(0.5 0.5)" d="M692.142 116.709C706.586 111.912 721.112 111.635 734.957 118.494C748.044 124.977 759.7 137.767 764.277 151.716C765.07 154.133 765.573 156.818 765.778 159.35L765.814 159.363C766.59 176.567 763.251 190.824 751.309 203.809C744.891 210.788 736.104 215.633 727.016 218.144C722.993 219.255 719.018 219.62 714.871 219.846C714.429 219.87 711.678 219.947 711.617 220.006C711.032 220.572 711.393 233.129 711.399 235.02L711.212 402.476L763.755 436.462L786.544 451.166L796.326 457.353C797.888 458.357 799.733 459.293 800.943 460.716L784.974 484.41C784.499 484.333 784.034 484.284 783.579 484.126L512.984 305.651L511.969 305.971C508.194 307.388 504.656 310.095 501.256 312.276L482.121 324.768L440.812 351.876L325.003 427.892L269.328 464.57L237.298 485.659L228.189 470.218C226.658 467.615 224.622 464.763 223.652 461.926L338.655 386.672L338.877 374.052L338.913 373.626C340.059 376.807 339.197 383.04 339.19 386.579C340.785 386.124 342.346 384.826 343.733 383.907L353.815 377.093L375.479 362.654L419.2 334.068C419.825 333.637 420.174 333.202 420.547 332.548L513.036 272.032L702.328 397.502L702.093 219.119C698.734 218.685 695.574 217.933 692.404 216.72C678.722 211.484 668.406 201.213 662.59 187.803C656.945 174.788 656.752 159.688 661.996 146.5C667.546 132.542 678.55 122.608 692.142 116.709Z"/>
	<path fill="white" transform="scale(0.5 0.5)" d="M706.238 122.654C717.704 121.359 729.609 124.703 738.837 131.622C748.11 138.576 754.666 149.112 756.276 160.642C757.929 172.49 754.515 184.499 747.289 194.002C740.365 203.108 730.264 208.497 719.022 209.979C708.892 211.429 697.01 209.651 688.259 204.156C678.429 197.984 671.058 187.84 668.549 176.476L667.887 173.328C665.831 161.982 669.355 149.636 675.966 140.364C683.188 130.235 694.181 124.595 706.238 122.654Z"/>
	<path fill="#001E54" transform="scale(0.5 0.5)" d="M695.661 138.246C699.283 136.018 703.044 134.945 707.25 134.431L708.213 134.307C716.922 133.26 725.972 135.762 732.8 141.272C739.098 146.354 743.208 154.383 743.999 162.406C744.866 171.207 742.406 180.594 736.685 187.419C731.182 193.984 723.399 198.297 714.805 198.965C705.976 199.651 697.68 197.237 690.915 191.398C687.389 188.354 682.418 182.017 681.617 177.296L681.628 176.771C678.996 170.967 679.019 163.987 680.65 157.93C682.953 149.375 688 142.676 695.661 138.246Z"/>
	<path fill="#01366B" transform="scale(0.5 0.5)" d="M695.661 138.246L695.265 139C694.201 140.869 691.673 141.885 690.245 143.75C691.25 143.422 691.326 143.13 692.125 142.502L694.456 141.035L695.072 141.379L694.66 141.766C687.899 147.923 682.558 153.718 681.994 163.476C681.848 165.987 682.019 168.264 682.407 170.75L682.827 173.66L682.174 174.351C681.98 173.636 681.899 172.94 681.75 172.245L681.495 171.536C681.174 170.568 681.455 170.485 681.375 169.625L681 168.5C680.56 166.685 680.442 163.818 681.5 162.25L681.346 161.625C681.155 160.455 681.479 159.869 681.755 158.75L681.879 158.095L682.755 154.75L681.77 157.356L681.492 158.097C680.419 161.21 680.279 166.828 680.828 170.109C681.208 172.383 681.839 174.423 681.628 176.771C678.996 170.967 679.019 163.987 680.65 157.93C682.953 149.375 688 142.676 695.661 138.246Z"/>
	<path fill="white" transform="scale(0.5 0.5)" d="M695.072 141.379L699.32 139.321C706.811 135.957 715.461 135.948 723.068 138.944C730.811 141.994 736.63 147.766 739.816 155.432C742.771 162.54 742.598 171.001 739.566 178.049C736.567 185.02 730.449 191.736 723.25 194.455L719.5 195.551L718.539 195.802C710.824 197.773 702.589 196.009 695.901 191.898C689.123 187.732 685.405 180.918 682.827 173.66L682.407 170.75C682.019 168.264 681.848 165.987 681.994 163.476C682.558 153.718 687.899 147.923 694.66 141.766L695.072 141.379Z"/>
	<path fill="#001A4D" transform="scale(0.5 0.5)" d="M710.656 149.129C714.701 148.905 719.06 149.907 722.457 152.119C726.179 154.541 728.662 158.798 729.39 163.141C730.169 167.795 728.95 173.251 726.147 177.061C722.94 181.418 718.616 182.991 713.507 183.87C709.754 184.178 706.237 183.552 702.992 181.586C698.833 179.066 695.567 174.613 694.664 169.797C693.766 165.008 694.718 159.892 697.733 156.008C701.086 151.688 705.38 149.911 710.656 149.129Z"/>
</svg>
