<?xml version="1.0" encoding="utf-8" ?>
<svg xmlns="http://www.w3.org/2000/svg" xmlns:xlink="http://www.w3.org/1999/xlink" width="1024" height="1024">
	<path transform="scale(1.6 1.6)" d="M141.248 171.187C144.557 145.854 159.346 119.855 179.603 104.167C187.026 98.4182 195.066 93.2694 203.743 89.6304C221.003 82.3916 240.287 79.9418 258.805 82.4482C284.66 85.9477 309.986 98.6804 326.027 119.698C337.821 135.151 345.879 153.035 348.022 172.47C348.445 176.304 348.266 180.404 348.264 184.265C348.263 188.298 348.533 192.742 347.941 196.727C347.284 201.147 346.68 205.723 345.579 210.057C341.061 227.854 331.997 244.293 319.386 257.59C315.846 261.323 312.018 265.231 307.847 268.245L301.871 272.772L302.644 274.809L308.642 296.557L309.184 298.32C311.026 296.428 312.779 294.151 314.726 292.416C319.602 288.069 325.641 285.198 332.264 285.107C340.971 284.988 348.557 288.967 354.621 295.007C357.476 297.851 360.397 301.072 362.462 304.555C363.723 306.682 364.623 308.871 366.002 310.971C372.078 304.825 380.522 299.625 389.42 299.568C396.814 299.521 403.999 303.278 409.122 308.425C412.696 312.015 415.854 316.496 417.988 321.094C418.976 323.221 419.716 325.674 420.967 327.651C424.911 322.748 430.204 318.382 436.699 317.595C439.141 317.299 441.978 317.329 444.365 317.921L444.973 318.066C447.36 318.648 449.479 319.669 451.531 321.006C457.07 324.613 460.534 329.299 463.638 335.069C464.399 336.483 465.472 338.168 465.865 339.725L465.859 339.87C469.08 346.78 471.189 354.146 473.438 361.406C477.126 373.31 480.405 385.649 482.306 397.969L485.714 417.532C486.888 425.79 487.135 434.403 487.089 442.732C487.057 448.351 486.979 454.219 485.957 459.751C486.193 463.174 484.578 467.553 483.828 470.944L480.688 488.471C479.989 493.029 478.62 499.263 480.012 503.75C481.275 507.822 484.621 510.631 486.375 514.413L486.569 514.844L487.101 516.094C488.289 518.991 488.666 521.954 487.655 525.009L487.497 525.469C486.155 529.545 482.687 532.176 479.084 534.225C471.603 538.481 463.178 540.738 455.156 543.756L419.96 556.406L391.632 566.641L378.099 571.444C375.781 572.195 373.529 573.017 371.098 573.336C366.203 573.979 361.591 572.965 357.641 569.985L357.188 569.638C352.902 566.45 349.85 562.157 346.966 557.739L338.347 543.594C336.321 540.088 334.005 536.025 331.276 533.034C323.232 524.217 312.605 518.463 302.866 511.759C294.156 505.763 286.498 499.074 279.447 491.174C276.49 487.861 273.872 484.288 271.161 480.781C259.495 465.693 249.834 449.316 240.331 432.812L226.004 408.369C220.034 399.139 211.511 391.576 204.879 382.826C198.828 374.843 192.512 365.495 193.737 355C194.181 351.198 195.454 348.919 197.507 345.781L198.838 343.906C204.182 337.889 211.58 334.811 219.538 334.49C231.536 334.007 242.997 340.231 252.433 346.945C253.92 348.002 255.464 348.91 256.889 350.067C259.549 352.225 261.882 354.89 264.424 357.206L257.373 332.555L251.094 311.121C249.281 305.019 247.005 298.7 246.422 292.347C240.692 291.324 234.654 291.658 228.848 290.885C212.334 288.688 195.141 281.497 182.11 271.094C160.67 253.978 144.299 229.003 141.206 201.319C140.907 199.938 140.649 198.635 140.599 197.215C140.12 194.868 140.128 192.152 140.064 189.756C139.945 185.274 139.918 180.62 140.594 176.179C140.311 174.855 140.969 172.536 141.248 171.187ZM467.15 505.975C465.735 500.766 466.341 493.653 467.142 488.341L472.353 458.467C472.901 455.811 473.002 452.882 473.277 450.172C476.188 421.58 468.155 393.046 459.9 365.948C457.376 357.661 455.319 349.083 451.489 341.267L451.293 340.854C449.687 337.547 446.691 332.772 443.125 331.472C441.518 330.886 439.586 330.814 438.054 331.634C434.653 333.452 431.855 336.866 430.83 340.568C428.835 347.772 430.491 354.602 432.782 361.513C433.425 363.455 433.592 367.219 433.164 369.219L433.094 369.564C432.815 370.775 431.961 372.052 430.894 372.703C429.516 373.544 427.809 373.624 426.287 373.177C422.814 372.157 421.227 368.954 419.723 365.961C414.965 356.489 412.647 345.76 409.008 335.831C406.373 328.641 403.491 320.525 396.719 316.221L396.346 315.981C393.722 314.319 390.211 313.102 387.084 313.823C382.212 314.947 379.303 317.292 376.798 321.56C374.116 326.129 372.889 331.093 374.291 336.273L381.478 356.232C382.701 359.461 384.41 363.375 383.35 366.875L383.218 367.324C382.713 368.907 381.649 370.045 380.142 370.745C378.555 371.482 375.925 371.41 374.316 370.772C371.525 369.665 370.026 366.502 369.004 363.863L360.017 337.525C356.381 326.228 353.758 311.06 344.055 303.197C340.793 300.553 337.079 298.994 332.812 299.341C328.723 299.674 324.248 302.076 321.719 305.351L319.533 308.81C317.524 312.187 316.356 318.95 317.27 322.805L317.717 324.062C318.034 325.027 318.1 326.066 318.401 327.031C318.93 328.73 319.711 330.387 320.288 332.079L326.14 349.531C327.654 354.007 330.218 358.794 330.967 363.438C331.22 365.005 330.921 366.315 330.16 367.693C329.299 369.251 327.804 370.413 326.097 370.899C324.277 371.418 322.175 371.163 320.547 370.178C319.13 369.321 318.051 367.87 317.292 366.42C315.253 362.524 313.87 358.07 312.495 353.906L306.832 336.674L296.542 305L288.454 275.781L282.821 255.046C280.277 245.536 278.133 233.82 271.886 225.938C268.501 221.666 263.912 220.683 258.749 221.149C255.884 221.407 252.386 223.66 250.696 225.875L249.844 227.132L249.563 227.527C248.59 228.94 248.494 230.28 248.068 231.875C247.112 235.457 246.691 239.351 247.428 243.031C247.86 245.191 247.988 247.401 248.427 249.531L253.073 267.969L256.406 280.871L261.476 297.812C262.059 299.714 262.78 301.529 263.213 303.48L266.309 313.465L286.259 383.339L288.281 390.937C289.207 394.145 290.681 397.11 291.345 400.421C291.434 400.862 291.598 401.25 291.752 401.67C292.287 403.133 292.175 404.684 292.574 406.201C293.156 408.411 292.972 411.459 291.863 413.525C290.839 415.433 289.323 416.26 287.344 416.854C283.454 416.148 281.053 413.245 278.903 410.108C275.087 404.54 272.278 397.838 269.257 391.795C259.782 372.84 247.755 353.238 225.235 348.898C220.926 348.067 217.433 348.635 213.317 350.019C211.787 350.533 209.358 352.041 208.65 353.524C207.093 356.788 207.051 359.154 208.444 362.5C210.932 368.48 215.28 373.163 219.402 377.995C224.65 384.147 230.214 390.33 234.795 396.991C243.01 408.939 249.977 421.497 257.174 434.062L261.365 440.66L263.652 444.949C273.795 461.883 285.477 477.748 299.496 491.661C302.128 494.274 305.135 496.293 308.125 498.458C319.049 506.365 331.829 512.447 340.826 522.709C344.354 526.733 347.098 531.087 349.893 535.636L354.527 544.036C356.414 547.29 358.539 550.348 360.75 553.386C362.175 555.344 364.102 558.258 366.452 559.127C368.134 559.75 369.716 559.504 371.402 559.042C375.68 557.868 379.797 556.191 383.951 554.66L397.973 549.567L427.652 538.866L454.901 528.983C460.093 527.169 465.778 525.633 470.707 523.192C471.908 522.597 472.93 522.004 473.545 520.781C473.197 518.579 470.867 516.023 469.826 513.94C468.599 511.484 467.681 508.668 467.15 505.975ZM189.343 142.22L182.972 152.374L177.78 164.798C177.29 166.63 176.613 168.466 176.215 170.312C175.831 172.09 175.703 173.966 175.392 175.767C174.007 184.947 174.407 194.269 176.381 203.338C176.878 205.618 177.724 207.82 178.262 210.075C178.604 211.512 179.421 212.867 180.007 214.219L183.956 222.46L187.578 227.773C198.305 243.363 216.643 253.223 235.002 256.65C234.839 253.254 234.051 250.017 233.704 246.642C232.81 237.946 233.612 227.913 237.27 219.846C238.268 217.645 239.247 215.793 240.864 213.965C245.155 209.115 250.661 206.63 257.031 206.204C260.702 205.959 264.529 206.46 267.977 207.751C275.781 210.67 282.933 217.263 287.007 224.468C289.104 228.175 290.622 232.208 292.394 236.075C294.383 234.314 295.865 232.346 297.547 230.312C306.853 219.059 312.563 206.092 313.674 191.406C315.165 171.699 309.1 151.943 295.924 137.069C285.161 124.919 269.513 116.628 253.184 115.65C234.546 114.533 215.472 118.648 200.83 130.85C198.356 132.912 195.98 135.099 193.794 137.467C192.446 138.927 191.138 140.736 189.625 142.004L189.343 142.22ZM232.915 102.727C234.149 102.25 235.796 102.244 237.118 102.081C243.342 101.314 249.8 101.229 256.018 102.125C262.984 102.856 269.849 104.772 276.35 107.342C295.272 114.823 312.494 131.229 320.465 150.054C322.949 155.92 325.312 162.439 326.542 168.701C327.095 171.516 327.151 174.146 327.389 176.981C328.57 191.003 326.818 204.981 321.46 218.072C317.816 226.974 313.073 236.519 305.956 243.147C302.931 245.962 299.528 248.084 295.888 250.008L297.868 258.099C307.275 250.163 315.48 242.361 322.254 231.98C323.247 230.458 323.965 228.69 324.832 227.085C334.675 208.857 336.931 186.626 332.603 166.475C327.432 142.404 313.09 121.604 292.297 108.446C271.757 95.4476 246.49 92.1614 222.935 97.6381C199.895 102.995 180.014 118.761 167.782 138.75C154.212 160.924 150.441 187.804 157.399 212.812C157.65 213.715 157.999 214.56 158.203 215.479C158.947 218.832 160.999 222.111 162.227 225.32C163.085 227.566 164.528 229.706 165.759 231.76C166.813 233.518 167.752 235.373 168.896 237.073C173.268 243.57 178.888 249.438 184.668 254.696C186.693 256.538 188.728 258.52 190.93 260.146C196.582 264.32 203.602 267.914 210.009 270.698C218.454 274.367 227.469 276.617 236.589 277.689C238.02 277.857 239.456 278.204 240.895 278.259C240.639 275.962 240.411 273.625 239.811 271.389C237.336 270.682 234.663 270.565 232.126 270.123C228.158 269.434 224.143 268.468 220.274 267.347C199.15 261.229 181.771 246.268 171.216 227.188L166.445 216.776C163.272 210.04 162.146 202.46 161.256 195.156C160.559 189.43 160.245 183.96 160.794 178.184C161.198 173.925 162.283 169.848 162.919 165.657C163.354 162.788 164.387 159.53 165.469 156.846C167.832 150.983 170.399 145.374 173.906 140.086C182.733 126.776 195.804 115.748 210.462 109.363C215.48 107.177 220.795 105.316 226.109 104.004C228.287 103.466 230.67 102.828 232.915 102.727ZM465.859 339.87C465.402 340.721 465.226 341.207 465.469 342.162C465.862 342.566 465.923 342.521 466.024 343.106C466.221 344.253 466.441 345.071 467 346.103C467.254 346.573 467.124 346.87 467.213 347.344C467.289 347.745 467.588 348.145 467.779 348.496C468.006 348.915 468.02 349.195 468.118 349.64C468.414 350.978 469.135 352.24 469.489 353.594L470.233 355.996L471.135 359.062C471.395 360.027 472.506 363.607 473.099 364.219L473.175 364.72C473.295 365.49 473.362 366.196 473.752 366.881C474.214 367.695 474.264 368.742 474.462 369.654C474.588 370.233 474.937 370.695 475.071 371.25C475.374 372.496 475.433 373.484 475.885 374.714C476.816 377.242 476.766 380.285 477.825 382.8C478.448 384.278 478.181 385.868 478.848 387.315C479.56 388.859 479.272 390.711 479.898 392.395C480.416 393.789 480.233 395.387 480.783 396.877C481.414 398.586 481.095 400.254 481.786 402.034C482.568 404.048 481.974 406.4 482.907 408.408C483.528 409.746 483.262 411.626 483.463 413.105C483.596 414.081 484.102 414.963 484.245 415.938C484.443 417.293 484.291 418.693 484.445 420.054C484.617 421.567 485.001 423.051 485.151 424.569C485.307 426.161 485.217 427.777 485.29 429.375L485.794 445.781C485.802 447.66 485.823 449.563 485.674 451.436C485.497 453.667 484.538 457.716 485.865 459.591L485.957 459.751C486.979 454.219 487.057 448.351 487.089 442.732C487.135 434.403 486.888 425.79 485.714 417.532L482.306 397.969C480.405 385.649 477.126 373.31 473.438 361.406C471.189 354.146 469.08 346.78 465.859 339.87ZM174.384 174.318C173.957 176.599 173.8 178.608 173.906 180.926L173.57 181.094C173.442 185.414 173.086 190.028 173.351 194.325C173.419 195.423 174 196.392 174.179 197.464C174.353 198.509 174.216 199.581 174.327 200.625C174.476 202.041 175.03 203.225 175.126 204.718C175.178 205.543 175.533 206.272 175.889 207.001C176.204 207.648 176.138 208.211 176.097 208.906L176.409 209.375L176.722 210.469C176.991 211.374 177.528 212.445 177.989 213.281C177.98 213.763 177.834 214.069 178.175 214.431C178.717 215.004 178.995 215.324 179.222 216.094C179.407 216.72 179.274 216.492 179.847 216.875C179.847 217.757 179.977 217.832 180.472 218.574C180.857 219.152 181.036 219.661 181.252 220.311C182.718 221.191 181.901 222.747 183.956 222.46L180.007 214.219C179.421 212.867 178.604 211.512 178.262 210.075C177.724 207.82 176.878 205.618 176.381 203.338C174.407 194.269 174.007 184.947 175.392 175.767L174.975 174.545L174.384 174.318ZM141.248 171.187C140.969 172.536 140.311 174.855 140.594 176.179C139.918 180.62 139.945 185.274 140.064 189.756C140.128 192.152 140.12 194.868 140.599 197.215C140.649 198.635 140.907 199.938 141.206 201.319L141.367 199.85C142.054 197.165 141.471 194.514 141.324 191.78L141.255 183.626L141.726 174.177C141.162 173.482 141.285 172.076 141.248 171.187ZM232.915 102.727L233.046 102.808C233.743 102.783 234.423 102.696 235.083 102.946L235.469 103.097C236.074 103.247 237.155 103.237 237.654 102.83C238.424 102.201 253.101 102.797 256.018 102.125C249.8 101.229 243.342 101.314 237.118 102.081C235.796 102.244 234.149 102.25 232.915 102.727ZM467.15 505.975L467.38 504.06C467.922 501.597 467.551 498.66 467.557 496.1C467.561 494.452 467.792 492.473 467.508 490.859L467.142 488.341C466.341 493.653 465.735 500.766 467.15 505.975ZM174.384 174.318L174.975 174.545L175.392 175.767C175.703 173.966 175.831 172.09 176.215 170.312C176.613 168.466 177.29 166.63 177.78 164.798L177.165 164.667L176.719 164.534C176.236 165.478 176.075 165.988 176.037 167.046L175.472 167.344C175.026 169.517 174.322 172.099 174.384 174.318Z"/>
	<path transform="scale(1.6 1.6)" d="M174.384 174.318C174.322 172.099 175.026 169.517 175.472 167.344L176.037 167.046C176.075 165.988 176.236 165.478 176.719 164.534L177.165 164.667L177.78 164.798C177.29 166.63 176.613 168.466 176.215 170.312C175.831 172.09 175.703 173.966 175.392 175.767L174.975 174.545L174.384 174.318Z"/>
	<path transform="scale(1.6 1.6)" d="M467.15 505.975C465.735 500.766 466.341 493.653 467.142 488.341L467.508 490.859C467.792 492.473 467.561 494.452 467.557 496.1C467.551 498.66 467.922 501.597 467.38 504.06L467.15 505.975Z"/>
	<path transform="scale(1.6 1.6)" d="M232.915 102.727C234.149 102.25 235.796 102.244 237.118 102.081C243.342 101.314 249.8 101.229 256.018 102.125C253.101 102.797 238.424 102.201 237.654 102.83C237.155 103.237 236.074 103.247 235.469 103.097L235.083 102.946C234.423 102.696 233.743 102.783 233.046 102.808L232.915 102.727Z"/>
	<path transform="scale(1.6 1.6)" d="M141.248 171.187C141.285 172.076 141.162 173.482 141.726 174.177L141.255 183.626L141.324 191.78C141.471 194.514 142.054 197.165 141.367 199.85L141.206 201.319C140.907 199.938 140.649 198.635 140.599 197.215C140.12 194.868 140.128 192.152 140.064 189.756C139.945 185.274 139.918 180.62 140.594 176.179C140.311 174.855 140.969 172.536 141.248 171.187ZM140.594 176.179C139.918 180.62 139.945 185.274 140.064 189.756C140.128 192.152 140.12 194.868 140.599 197.215L140.817 194.211C141.158 191.954 140.96 189.653 140.934 187.376C140.892 183.592 140.96 179.957 140.594 176.179Z"/>
	<path transform="scale(1.6 1.6)" d="M140.594 176.179C140.96 179.957 140.892 183.592 140.934 187.376C140.96 189.653 141.158 191.954 140.817 194.211L140.599 197.215C140.12 194.868 140.128 192.152 140.064 189.756C139.945 185.274 139.918 180.62 140.594 176.179Z"/>
	<path transform="scale(1.6 1.6)" d="M174.384 174.318L174.975 174.545L175.392 175.767C174.007 184.947 174.407 194.269 176.381 203.338C176.878 205.618 177.724 207.82 178.262 210.075C178.604 211.512 179.421 212.867 180.007 214.219L183.956 222.46C181.901 222.747 182.718 221.191 181.252 220.311C181.036 219.661 180.857 219.152 180.472 218.574C179.977 217.832 179.847 217.757 179.847 216.875C179.274 216.492 179.407 216.72 179.222 216.094C178.995 215.324 178.717 215.004 178.175 214.431C177.834 214.069 177.98 213.763 177.989 213.281C177.528 212.445 176.991 211.374 176.722 210.469L176.409 209.375L176.097 208.906C176.138 208.211 176.204 207.648 175.889 207.001C175.533 206.272 175.178 205.543 175.126 204.718C175.03 203.225 174.476 202.041 174.327 200.625C174.216 199.581 174.353 198.509 174.179 197.464C174 196.392 173.419 195.423 173.351 194.325C173.086 190.028 173.442 185.414 173.57 181.094L173.906 180.926C173.8 178.608 173.957 176.599 174.384 174.318Z"/>
	<path transform="scale(1.6 1.6)" d="M465.859 339.87C469.08 346.78 471.189 354.146 473.438 361.406C477.126 373.31 480.405 385.649 482.306 397.969L485.714 417.532C486.888 425.79 487.135 434.403 487.089 442.732C487.057 448.351 486.979 454.219 485.957 459.751L485.865 459.591C484.538 457.716 485.497 453.667 485.674 451.436C485.823 449.563 485.802 447.66 485.794 445.781L485.29 429.375C485.217 427.777 485.307 426.161 485.151 424.569C485.001 423.051 484.617 421.567 484.445 420.054C484.291 418.693 484.443 417.293 484.245 415.938C484.102 414.963 483.596 414.081 483.463 413.105C483.262 411.626 483.528 409.746 482.907 408.408C481.974 406.4 482.568 404.048 481.786 402.034C481.095 400.254 481.414 398.586 480.783 396.877C480.233 395.387 480.416 393.789 479.898 392.395C479.272 390.711 479.56 388.859 478.848 387.315C478.181 385.868 478.448 384.278 477.825 382.8C476.766 380.285 476.816 377.242 475.885 374.714C475.433 373.484 475.374 372.496 475.071 371.25C474.937 370.695 474.588 370.233 474.462 369.654C474.264 368.742 474.214 367.695 473.752 366.881C473.362 366.196 473.295 365.49 473.175 364.72L473.099 364.219C472.506 363.607 471.395 360.027 471.135 359.062L470.233 355.996L469.489 353.594C469.135 352.24 468.414 350.978 468.118 349.64C468.02 349.195 468.006 348.915 467.779 348.496C467.588 348.145 467.289 347.745 467.213 347.344C467.124 346.87 467.254 346.573 467 346.103C466.441 345.071 466.221 344.253 466.024 343.106C465.923 342.521 465.862 342.566 465.469 342.162C465.226 341.207 465.402 340.721 465.859 339.87Z"/>
</svg>
