<?xml version="1.0" encoding="utf-8" ?>
<svg xmlns="http://www.w3.org/2000/svg" xmlns:xlink="http://www.w3.org/1999/xlink" width="1024" height="1024">
	<path transform="scale(1.6 1.6)" d="M328.986 462.722L304.713 462.59C274.279 460.981 246.029 452.132 238.863 418.333L236.196 402.742C232.285 383.67 224.241 365.966 211.454 351.174L196.656 334.938C173.097 307.231 164.475 264.685 168.497 228.914C177.062 152.744 237.277 95.0946 313.053 89.8204L314.266 89.6944C322.269 89.6079 330.304 89.4608 338.27 90.333C439.162 101.38 500.289 209.088 462.143 303.553C457.579 314.856 451.822 325.466 443.937 334.822L428.957 351.749C416.877 366.293 408.911 382.554 405.08 401.049C403.66 407.9 402.835 414.893 401.035 421.663C391.917 455.95 360.962 462.66 328.986 462.722ZM318.832 101.393C245.134 101.968 185.884 163.026 179.787 234.604C177.32 263.57 184.093 298.196 201.286 321.625C208.029 330.815 216.576 338.561 223.786 347.36C235.03 361.082 242.384 378.321 246.542 395.446C250.237 410.667 249.691 425.34 261.675 437.159C273.443 448.764 281.983 445.662 294.512 449.252L293.6 433.281C292.446 400.1 292.198 365.029 279.42 333.809C270.745 312.614 243.535 282.128 263.45 260.419C274.552 248.317 290.188 246.156 302.344 258.061C303.528 259.221 304.596 260.56 305.865 261.621L306.104 261.213C309.348 255.748 315.681 253.939 321.689 254.15C327.227 254.687 330.947 256.052 334.605 260.469C351.75 240.905 382.848 252.123 383.949 277.29C384.943 300.005 367.63 316.089 360.124 336.019C352.941 355.091 350.991 374.428 349.207 394.599L347.616 413.554L346.307 450.035C361.16 447.344 374.406 444.797 383.503 431.692C390.94 420.977 391.117 408.443 393.906 396.217C398.594 375.672 408.473 357.435 422.316 341.588C443.155 317.732 453.687 304.856 459.374 271.094C460.027 267.217 460.271 263.009 461.205 259.225C463.75 248.916 461.912 229.327 459.735 217.897C448.174 157.193 397.65 108.319 335.459 101.866C329.994 101.299 324.325 101.475 318.832 101.393ZM282.431 262.261C262.548 266.119 267.921 286.826 274.936 300.041L285.175 318.589C300.943 349.108 303.679 383.255 304.844 417.067C305.231 428.305 305.199 439.648 306.575 450.827L334.124 450.899L335.11 426.562C335.19 424.366 335.649 422.198 335.741 419.989L339.499 374.706C342.208 354.388 346.21 335.692 356.057 317.542C363.101 304.556 378.154 285.754 369.87 270.516C360.863 258.506 342.621 260.354 341.275 273.281L341.112 277.356C349.723 276.824 359.071 268.91 363.54 273.032C366.381 275.651 366.271 280.341 363.505 282.947C357.495 288.607 343.972 287.439 341.593 289.147C337.899 291.801 337.572 401.344 320.641 400.309C310.048 399.662 306.785 358.145 305.953 350.328L301.592 288.987C301.557 288.367 301.463 288.529 300.772 288.457C293.46 287.693 277.312 289.278 275.572 279.375L275.489 278.946C273.65 268.535 287.959 274.589 291.263 275.363C293.989 276.002 296.908 276.014 299.697 276.144C298.878 266.831 292.056 261.543 282.756 262.227L282.431 262.261ZM317.797 266.006C307.849 270.296 313.565 292.522 314.128 300.789L320.231 370.759L320.907 366.801C325.095 343.448 326.935 319.673 328.385 296.007C328.97 286.458 333.826 265.026 317.797 266.006Z"/>
	<path transform="scale(1.6 1.6)" d="M207.166 215.498C206.258 220.795 203.797 232.894 195.931 226.074C191.722 222.425 195.464 213.615 196.687 209.305C211.916 155.623 259.821 116.518 316.289 115.178L326.327 115.158C331.771 115.241 342.589 115.204 340.581 123.594C339.574 127.799 335.263 127.395 331.937 127.289C314.073 126.723 296.172 128.095 279.268 134.317C243.806 147.369 216.218 178.952 207.166 215.498Z"/>
	<path transform="scale(1.6 1.6)" d="M385.302 481.03C355.801 500.58 295.329 497.578 264.784 485.758C259.217 483.604 245.091 476.306 254.347 469.635L256.36 468.462L256.912 468.447C260.191 468.347 262.996 471.119 265.698 472.656C291.786 487.492 353.772 486.819 377.831 471.364C388.374 464.591 393.256 474.203 385.302 481.03Z"/>
	<path transform="scale(1.6 1.6)" d="M370.065 536.412C365.461 544.752 358.071 550.499 348.724 552.076C344.232 552.834 345.798 552.42 343.941 556.3C337.825 569.078 329.631 569.26 317.532 568.895C307.69 568.599 303.056 566.636 297.783 557.524L295.474 553.455C293.424 549.804 268.639 551.461 267.454 520.416C257.905 517.686 244.579 504.879 256.925 498.184C261.799 497.66 262.25 500.68 264.737 504.218C271.028 513.167 305.591 516.321 318.225 516.332C334.49 516.347 349.212 515.761 364.903 510.501C371.679 508.23 374.108 508.062 378.211 501.784C385.893 490.029 399.381 511.738 374.153 519.865C373.722 525.923 372.763 530.902 370.065 536.412ZM278.79 523.604C284.076 543.617 293.509 536.361 301.699 541.898C309.786 547.365 302.913 555.83 318.024 557.021C328.809 557.871 330.379 555.782 335.409 546.218C338.449 540.437 341.708 540.488 347.745 539.625C355.521 538.009 360.175 531.884 362.18 524.578C335.36 528.556 305.151 531.538 278.79 523.604Z"/>
</svg>
