<svg xmlns="http://www.w3.org/2000/svg" width="512" height="512">
  <path fill="#64B8C3" d="M30.162 291.921c2.408-.055 5.585-.488 7.903-.007.226 2.055.33 4.406.938 6.38l-.005.125c-2.39-.65-4.915.252-7.046-1.578-1.56-1.34-1.647-3.001-1.79-4.92Z"/>
  <path fill="#00093B" d="M163.536 423.125c.803-.203 1.639-.148 2.464-.152.412.647.255 1.385.254 2.142l-.009 6.215c1.465-.001 7.246-.418 8.126.295l-.08 2.25c-.138.12-.243.298-.416.361-.326.119-1.296.002-1.667.004l-5.952.01-.015 7.26-2.949.124-.013-7.31c-1.344.001-7.009.363-7.782-.324l-.018-2.706 7.93-.006c-.018-2.667-.252-5.525.127-8.163ZM114.704 460.311c1.12 0 2.223.168 3.246.654 1.772.842 2.941 2.534 3.487 4.37.463 1.56.049 3.167-.746 4.543-1.145 1.983-2.7 2.79-4.806 3.371-1.186-.018-2.288-.122-3.367-.662-1.6-.801-3.126-2.344-3.626-4.099-.49-1.716.008-3.709.934-5.188 1.153-1.84 2.858-2.551 4.878-2.989Z"/>
  <path fill="#fff" d="M114.746 463.048c.653.09 1.406.152 2.004.442.907.442 1.66 1.213 1.998 2.17.331.938.225 2.047-.22 2.934-.572 1.138-1.68 1.572-2.819 1.952-.865-.043-1.68-.154-2.459-.565-.745-.394-1.292-1.11-1.514-1.914-.305-1.099-.273-2.317.337-3.31.632-1.029 1.553-1.414 2.673-1.709Z"/>
  <path fill="#00093B" d="M441.876 75.272c1.187-.052 2.283-.149 3.421.27 1.788.66 3.47 2.389 4.189 4.14a6.776 6.776 0 0 1 .002 5.068c-.891 2.183-2.643 3.218-4.71 4.058-1.259.183-2.46.197-3.674-.25-1.734-.639-3.498-2.098-4.207-3.829-.757-1.846-.565-3.836.255-5.624 1.006-2.198 2.57-3.028 4.724-3.833Z"/>
  <path fill="#fff" d="M442.526 78.006c.603-.026 1.293-.095 1.878.076 1.176.342 2.032 1.148 2.547 2.257.406.873.504 2.406.097 3.286-.61 1.324-1.73 1.92-3.035 2.42-.573.008-1.137.02-1.701-.103-1.059-.23-1.927-.816-2.488-1.745-.56-.925-.757-2.263-.413-3.297.514-1.547 1.726-2.249 3.115-2.894Z"/>
  <path fill="#00093B" d="M335.948 434.8c1.117-.056 2.13.048 3.194.418 1.642.572 3.197 2.088 3.877 3.686.855 2.015.861 3.983-.052 5.971-1.073 2.334-2.9 3.428-5.218 4.208-1.276.108-2.554.006-3.746-.486-1.849-.762-3.231-2.522-3.914-4.356-.688-1.851-.486-4.135.44-5.866 1.118-2.087 3.263-2.99 5.419-3.575Z"/>
  <path fill="#fff" d="M336.385 437.531c.706.053 1.478.084 2.14.348.933.37 1.775 1.277 2.1 2.222.421 1.224.475 2.738-.182 3.899-.808 1.428-1.914 1.852-3.417 2.307-.76-.114-1.561-.202-2.252-.555-1.124-.576-1.941-1.498-2.256-2.738-.27-1.066-.171-2.363.409-3.309.809-1.32 2.022-1.804 3.458-2.174Z"/>
  <path fill="#008498" d="M347.857 62.254c-2.086-.46-4.612-1.853-6.622-2.661l-12.295-4.675c-10.538-3.845-21.354-6.547-32.327-8.831l.151-2.987c18.395 3.301 35.672 9.59 52.811 16.836-.545.781-1.067 1.62-1.718 2.318ZM126.123 437.125c.25-.025.506-.129.752-.075.588.13 2.417 1.936 3.01 2.385l7.516 5.279c13.454 9.233 27.51 15.828 42.75 21.535-.24.906-.458 1.776-.86 2.626l-.666-.024c-20.059-6.837-37.57-17.563-54.439-30.166.607-.609 1.226-1.075 1.936-1.56Z"/>
  <path fill="#00093B" d="M70.013 168.875c.81-.105 1.74-.319 2.423.271 1.122.968 1.828 2.978 2.816 4.161 1.328 1.59 4.66 2.926 4.995 4.943-.596 2.167-3.418 3.205-4.899 4.782-1.306 1.39-1.77 3.264-3.231 4.593l-.742.308c-.765-.04-1.104-.163-1.75-.526-.75-1.234-1.455-2.702-2.388-3.796-1.44-1.687-4.969-3.417-5.255-5.611 1.255-2.196 3.889-3.167 5.415-5.11.886-1.128 1.453-3.318 2.615-4.015Z"/>
  <path fill="#F9949F" d="M71.008 172.305c1.746 2.32 3.425 4.122 5.7 5.928-2.618 1.956-4.086 3.445-5.593 6.414-1.64-2.93-3.095-4.282-5.715-6.346.718-.83 1.874-1.339 2.725-2.051 1.154-.965 2.053-2.685 2.883-3.945Z"/>
  <path fill="#008498" d="M38.065 291.914c1.064.123 2.094.083 3.147-.096l.783 6.442.102.406c3.25 17.899 8.289 35.713 16.346 52.084.873 1.774 1.691 4.164 2.78 5.748l.29 5.53c-3.273-4.54-5.648-9.903-7.872-15.022-4.07-9.365-7.522-18.837-10.193-28.698l-4.45-19.889.005-.125c-.608-1.974-.712-4.325-.938-6.38ZM41.314 210.809c3.673-18.718 10.043-36.912 18.886-53.819l5.474-9.69c1.289-2.13 2.695-4.173 3.81-6.4l2.854 1.401c-11.775 16.99-19.634 35.985-25.206 55.82-1.173 4.177-2.472 8.443-3.326 12.69l-2.492-.002ZM210.388 42.544l.612-.037c.657.596.499 2.074.564 2.973-4.99.638-10.024 2.237-14.814 3.734-18.386 5.747-36.252 14.004-52.048 25.067l-1.843-2c1.703-2.13 5.343-3.95 7.711-5.406 18.183-11.179 38.998-19.621 59.818-24.331Z"/>
  <path fill="#00093B" d="M140.134 41.305c1.977-.011 3.348-.142 5.221.755 1.984.95 3.631 2.644 4.375 4.73.806 2.26.703 4.8-.39 6.95-1.352 2.659-3.309 3.953-6.091 4.79-1.69.243-3.448.072-5.026-.604-2.173-.929-3.903-2.566-4.692-4.823-.82-2.347-.548-5.131.592-7.318 1.288-2.47 3.467-3.662 6.011-4.48Z"/>
  <path fill="#05E7D4" d="M139.96 44.06c1.083-.149 2.157-.241 3.236.011 1.597.374 2.888 1.604 3.662 3.014.743 1.354 1.085 3.101.553 4.587-.718 2.009-2.18 3.11-4.007 4.025-1 .143-2.345.269-3.318-.026-1.463-.441-2.643-1.278-3.412-2.618-.934-1.63-1.027-3.365-.444-5.131.647-1.961 1.934-3.005 3.73-3.863Z"/>
  <path fill="#00093B" d="M472.443 227.81c1.797-.114 3.512.025 5.151.828 1.901.931 3.534 2.998 4.155 4.987.714 2.288.417 4.769-.701 6.886-1.454 2.752-3.653 3.847-6.501 4.697-2.368.087-4.059.01-6.124-1.335-1.971-1.284-3.033-3.474-3.475-5.72-.455-2.313.303-4.808 1.622-6.726 1.551-2.255 3.274-3.112 5.873-3.617Z"/>
  <path fill="#05E7D4" d="M472.267 230.285c1.021-.042 2.22-.183 3.204.137 1.5.487 2.871 1.642 3.541 3.078.746 1.6.712 3.497.065 5.126-.843 2.129-2.409 3.125-4.389 4.031-.913.078-1.77.14-2.669-.086-1.629-.41-2.929-1.273-3.758-2.757-.88-1.574-.968-3.598-.396-5.29.755-2.232 2.378-3.319 4.401-4.24Z"/>
  <path fill="#008498" d="m438.574 131.827 5.938 9.173c12.6 21.431 21.392 44.603 26.272 68.972l1.584 8.867c.275 1.617.798 3.473.555 5.105-.67.105-1.473-.111-2.048-.504-.13-.089-.442-.376-.514-.565-.243-.636-.256-1.671-.365-2.382l-.839-5.316-2.851-13.434c-5.117-20.823-13.267-41.254-24.468-59.575-.319-.522-2.758-4.575-3.1-4.579l-.014 13.879c-.005 2.043.279 4.627-.188 6.589l.038-26.23ZM471.986 292.48l3.593-.423-.613 5.143c-.075.352-.123.314-.362.637-.563.762-.683 1.994-.879 2.913l-1.391 6.254-3.712 14.116c-5.012 16.666-11.946 32.418-20.623 47.48-3.712 6.442-7.682 12.923-12.478 18.619l-1.346-2.726c4.107-4.985 7.375-10.575 10.64-16.118l6.498-11.274c9.287-17.925 15.988-37.36 19.844-57.17l.829-7.451Z"/>
  <path fill="#00093B" d="M301.505 446.125c.42-.123.811-.125 1.245-.151 1.343.897 1.991 4.459 2.88 6.001 2.242 3.886 5.427 4.938 9.495 6.044.591.66.655.734.786 1.606-.936 1.14-2.191 1.15-3.536 1.627-1.575.56-3.182 1.394-4.352 2.608-1.506 1.56-2.806 3.792-3.516 5.83-.495 1.42-.707 2.95-1.632 4.166l-.75.233c-.235-.086-.498-.115-.703-.257-.949-.655-1.249-3.668-1.698-4.839-.5-1.302-1.162-2.649-2.062-3.72-1.65-1.964-3.692-3.07-6.052-3.952-1.06-.396-2.149-.663-3.027-1.4l-.083-1.046c.853-1.274 2.871-1.419 4.279-1.985 1.39-.559 2.707-1.291 3.805-2.32 1.336-1.252 2.488-2.728 3.185-4.436.54-1.327.687-2.988 1.736-4.009Z"/>
  <path fill="#F9949F" d="M302.334 451.007c1.925 3.991 3.692 6.038 7.56 8.209-3.832 2.51-5.543 4.484-7.57 8.581-2.146-4.147-3.911-6.333-8.092-8.493 4.076-1.991 6.131-4.31 8.101-8.297Z"/>
  <path fill="#008498" d="M388.022 436.604c.953.278 1.825.567 2.72.997-8.985 7.273-19.407 13.34-29.644 18.668-18.074 9.406-37.118 16.928-57.026 21.44-13.452 3.05-27.198 4.596-40.933 5.571l-.005-3.027c13.107-.233 26.434-2.323 39.186-5.233 19.538-4.457 39.11-11.33 56.815-20.789l19.272-11.26 9.615-6.367Z"/>
  <path fill="#64B8C3" d="m41.212 291.818 37.236-.026c.21 2.218.4 4.599 1.012 6.745-3.843-.266-36.078-.594-37.363.13l-.102-.407-.783-6.442Z"/>
  <path fill="#00093B" d="M61.045 307.063c1.88.022 3.76.323 5.392 1.313 2.186 1.325 3.679 3.565 4.154 6.062.428 2.246-.08 4.853-1.375 6.75-1.626 2.382-3.915 3.466-6.652 4.009-2.27.08-4.436-.251-6.337-1.618-1.971-1.417-2.857-3.421-3.25-5.743-.401-2.365.2-5.169 1.674-7.083 1.662-2.16 3.712-3.287 6.394-3.69Z"/>
  <path fill="#64B8C3" d="M60.928 310.012c1.096-.047 2.21-.096 3.227.382 1.601.753 2.867 2.142 3.429 3.823.504 1.51.32 3.328-.427 4.72-.98 1.828-2.537 2.691-4.432 3.318-1.43.036-2.56.041-3.857-.628-1.35-.699-2.272-1.93-2.72-3.37-.542-1.744-.495-3.63.407-5.252.967-1.736 2.584-2.407 4.373-2.993ZM433.841 292.509l38.144-.029-.828 7.451-.243-.398c-1.019-.345-2.366-.147-3.434-.127l-7.03.097-27.967.058 1.358-7.052Z"/>
  <path fill="#00093B" d="M204.161 89.293c-2.024-4.189-3.144-8.51-2.519-13.205l.066-.463c.357-2.713 1.212-5.428 2.65-7.773 2.916-4.756 7.046-7.55 12.413-8.863-.261-3.764-.188-7.352.673-11.042 1.625-6.969 6.494-13.054 12.508-16.769 6.165-3.807 13.485-4.713 20.471-3.069 7.848 1.847 13.063 7.183 17.179 13.797 1.498-.533 3.155-.971 4.726-1.202 4.04-.595 8.18.474 11.408 2.99 4.092 3.189 5.71 7.548 6.314 12.544 4.491.57 8.091 1.643 11.707 4.505 4.02 3.182 6.983 8.202 7.5 13.34.538 5.35-.483 9.43-3.245 14.022-3.353 4.436-7.449 7.7-13.082 8.557-4.237.645-8.908.275-13.203.271l-23.877-.002-27.056.017c-4.573.001-9.579.36-14.109-.203-2.188-.272-4.421-1.282-6.168-2.61-1.74-1.32-3.094-3.078-4.356-4.842Z"/>
  <path fill="#64B8C3" d="M225.006 94.302c-4.572.042-10.25.801-14.219-1.837-3.192-2.122-5.375-6.249-6.091-9.946-.913-4.702-.201-10.092 2.56-14.09 3.12-4.515 7.251-6.15 12.462-7.132-.261-2.49-.513-5.175-.374-7.676.369-6.612 3.576-13.159 8.51-17.567 5.104-4.558 11.352-6.271 18.1-5.801 5.898.41 11.716 3.695 15.577 8.054l-1.803-.225c-6.418-.83-13.264.963-18.346 5.007-4.653 3.704-8.023 8.967-8.673 14.929-.507 4.652.23 8.722 1.711 13.123-1.43-.583-2.626-.994-4.17-1.178l-.5-.063c-3.196-.374-6.873.68-9.41 2.68-2.721 2.145-4.194 4.741-4.524 8.199-.328 3.441.874 6.882 3.154 9.475.916 1.041 2.067 1.878 3.287 2.528 1.019.543 1.926.645 2.749 1.52Z"/>
  <path fill="#fff" d="M225.006 94.302c-.823-.876-1.73-.977-2.749-1.52-1.22-.65-2.371-1.487-3.287-2.528-2.28-2.594-3.482-6.034-3.154-9.475.33-3.458 1.803-6.053 4.524-8.2 2.537-2 6.214-3.052 9.41-2.679l.5.063c1.544.184 2.74.596 4.17 1.178-1.48-4.401-2.218-8.47-1.711-13.123.65-5.962 4.02-11.225 8.673-14.929 5.082-4.044 11.928-5.836 18.346-5.007l1.803.225c2.133 2.468 3.586 4.875 4.963 7.82 3.318-2.199 6.26-3.345 10.27-2.52 3.226.666 6.281 2.7 8.049 5.483 1.075 1.691 1.684 3.432 1.982 5.41l.066.422c.215 1.461.123 2.928.062 4.398 5.334-.093 9.95.568 13.983 4.423 3.424 3.275 5.595 7.564 5.666 12.358.074 4.99-1.493 9.27-4.98 12.86-2.249 2.316-5.486 4.207-8.658 4.871-2.234.468-4.702.351-6.975.365l-60.953.105Z"/>
  <path fill="#00093B" d="M89.847 332.43c5.222-1.709 10.617-4.354 14.996-7.666 1.198-.906 2.368-1.892 3.428-2.957 1.008-1.016 2.47-3.471 3.758-3.925 1.058-.373 2.06 1.354 2.64 2.065 4.288 5.254 10.68 9.224 16.833 11.919 6.493 2.736 13.115 4.383 20.184 4.47 1.17.014 6.564-.59 7.101-.138.18.151.292.368.438.552.408 4.247.109 8.731.084 13.014-.078 12.913-1.036 25.983-5 38.354-1.917 5.982-4.577 11.682-7.406 17.276-8.142 13.747-20.562 26.943-35.721 32.781-5.038-2.19-10.017-5.636-14.284-9.057-5.063-4.058-9.831-8.42-14.036-13.377-9.252-10.908-15.878-24.495-19.067-38.406-1.157-5.05-1.722-10.165-2.282-15.307l-.29-5.53.03-12.796c.01-2.906-.184-5.75.664-8.568 2.023.323 4.043.786 6.091.897 7.401.402 14.876-1.197 21.839-3.601Z"/>
  <path fill="#008498" d="M111.285 434.965c-1.992-.85-3.853-2.07-5.694-3.21-5.437-3.37-10.778-7.678-15.316-12.189-15.473-15.382-24.224-35.703-25.882-57.313-.604-7.863-.303-15.935-.305-23.819 2.194.218 4.45.515 6.657.491 10.57-.111 20.902-3.457 30.262-8.154l1.932 6.62c-6.86 3.927-15.263 6.17-23.107 6.794-1.789.143-3.662.137-5.457.069-.797-.03-1.852-.283-2.625-.183-.642.083-.882.322-1.001.929-.161.815-.024 1.943-.024 2.784l.02 5.706c.139 22.019 8.718 44.464 23.37 60.848 4.746 5.306 10.742 10.887 17.346 13.688-.656 1.861-.204 4.929-.175 6.939Z"/>
  <path fill="#64B8C3" d="M101.007 330.77c4.39-2.433 7.956-5.513 11.297-9.228 1.849 2.047 3.724 4.177 5.876 5.91 6.11 4.92 13.892 8.194 21.438 10.156 2.753.716 5.787 1.457 8.632 1.598l8.373-.05c-.046 7.674.142 15.46-.411 23.113-.518 7.165-1.522 14.6-3.435 21.541-3.968 14.396-11.81 27.994-22.426 38.503-4.578 4.531-9.98 8.331-15.65 11.367-.832.445-2.22 1.38-3.184 1.325l-.231-.04c-.029-2.01-.481-5.077.175-6.939.329-.06.563-.127.872-.251 1.811-.731 3.656-2.087 5.272-3.201 10.197-7.026 18.607-17.495 23.52-28.828 6.042-13.936 8.222-28.531 8.333-43.611.016-2.157.484-5.61-.262-7.51-.67-.245-1.408-.096-2.102-.014-.518.06-.996.118-1.522.098-10.032-.377-20.915-3.893-28.779-10.258-1.746-1.413-3.277-3.192-4.816-4.828-1.049 1.05-1.883 2.28-2.953 3.322-1.823 1.779-3.917 3.129-6.085 4.447l-1.931-6.621Z"/>
  <path fill="#00093B" d="M102.94 337.392c2.167-1.318 4.26-2.668 6.085-4.447 1.069-1.043 1.903-2.272 2.952-3.322 1.539 1.637 3.07 3.415 4.816 4.828 7.864 6.365 18.747 9.881 28.78 10.258.525.02 1.003-.038 1.52-.098.695-.082 1.433-.23 2.103.014.746 1.9.278 5.353.262 7.51-.111 15.08-2.291 29.675-8.333 43.611-4.913 11.333-13.323 21.802-23.52 28.828-1.617 1.114-3.461 2.47-5.272 3.201a4.086 4.086 0 0 1-.872.251c-6.605-2.8-12.6-8.382-17.346-13.688-14.652-16.384-23.231-38.83-23.37-60.849l-.02-5.704c0-.842-.137-1.97.024-2.785.119-.606.359-.846 1.001-.929.773-.1 1.828.152 2.625.183 1.794.068 3.668.074 5.457-.069 7.844-.625 16.247-2.867 23.108-6.793Z"/>
  <path fill="#CCCDD2" d="M99.589 415.93c-12.998-12.646-21.924-30.684-24.742-48.555-1.058-6.706-1.22-13.462-1.348-20.234 7.614.227 14.754-1.053 21.933-3.517.025 2.462.582 6.654-.395 8.901-.362.832-1.184 1.701-1.809 2.35-.928.963-1.944 2.143-3.337 2.193l-.532-.03c-1.031.61-1.882 1.142-3.108.818l-.482-.139c-.684.548-.592.737-.68 1.618-.358 3.537.148 6.629 1.342 9.963.32.892.569 1.877 1.058 2.688-1.54 7.125-.809 13.61 3.18 19.824 3.132 4.88 8.785 8.8 14.459 10.11a38.158 38.158 0 0 1-2.591 7c-1.076 2.212-2.485 4.577-2.948 7.01Z"/>
  <path fill="#00093B" d="M85.769 357.717c-.735-.755-1.211-1.499-1.164-2.592.031-.726.415-1.481 1.02-1.894.488-.333 1.145-.39 1.716-.291a2.536 2.536 0 0 1 1.646 1.065c.704 1.033.635 1.859.372 3.034-1.031.609-1.882 1.14-3.108.817l-.482-.139Z"/>
  <path fill="#fff" d="M95.432 343.624c6.287-2.401 11.495-5.215 16.745-9.506 8.301 8.261 22.242 13.409 33.924 13.404l.646-.004-.094 11.66c-1.171 20.656-7.458 41.298-22.36 56.207-2.865 2.866-6.06 5.598-9.48 7.778-1.06.674-2.252 1.498-3.47 1.822-4.492-2.408-8.079-5.567-11.754-9.055.463-2.433 1.873-4.798 2.948-7.01a38.158 38.158 0 0 0 2.59-7c5.26 1.366 10.907.983 15.83-1.325 6.117-2.867 10.926-7.9 13.188-14.326 2.105-5.982 1.401-13.297-1.308-18.964-2.754-5.759-7.775-9.889-13.77-11.971-5.963-2.073-13.116-1.608-18.77 1.195-6.484 3.214-10.501 8.755-12.808 15.457-.49-.811-.739-1.796-1.058-2.688-1.194-3.334-1.7-6.426-1.343-9.963.09-.881-.002-1.07.681-1.618l.482.14c1.225.322 2.077-.209 3.108-.819l.532.03c1.392-.05 2.409-1.23 3.337-2.193.626-.649 1.447-1.519 1.809-2.35.977-2.246.42-6.438.395-8.901Z"/>
  <path fill="#00093B" d="M111.357 345.875c.303-.101.418-.155.768-.183.738-.059 1.603.132 2.122.683.533.567.556 1.515.451 2.25-.135.938-.6 1.495-1.323 2.058-.441.135-.928.298-1.394.245-.573-.065-1.194-.41-1.538-.883-.511-.7-.585-1.45-.444-2.295.15-.887.68-1.348 1.358-1.875ZM111.784 409.875c.453-.09.744-.102 1.207-.014.65.125 1.338.538 1.665 1.125.428.767.45 1.841.105 2.639-.338.783-.925.957-1.636 1.277-.332.046-.663.101-1 .065-.95-.1-1.47-.635-2.036-1.342-.29-.942-.33-1.416-.086-2.375.556-.78.887-1.038 1.781-1.375ZM134.43 352.875c.427-.106 1.009-.204 1.445-.153.746.087 1.376.529 1.84 1.1.48.591.706 1.36.517 2.118-.247.993-1.027 1.584-1.857 2.075-.535.183-.944.175-1.5.185-.551-.257-1.009-.445-1.363-.959-.563-.82-.786-1.898-.522-2.866.228-.834.772-1.055 1.44-1.5ZM87.489 371.986c2.306-6.702 6.323-12.243 12.808-15.457 5.654-2.803 12.806-3.268 18.77-1.195 5.995 2.082 11.016 6.212 13.77 11.971 2.71 5.667 3.413 12.982 1.308 18.964-2.262 6.426-7.071 11.459-13.188 14.327-4.923 2.308-10.57 2.69-15.83 1.324-5.673-1.31-11.326-5.23-14.459-10.11-3.988-6.214-4.719-12.699-3.179-19.825Z"/>
  <path fill="#fff" d="M108.975 356.429c5.979-.48 11.675 1.297 16.284 5.196 3.593 3.04 5.787 6.868 7.021 11.375l.12.426c1.46 5.477.272 11.506-2.598 16.292-2.841 4.74-8.034 8.69-13.427 10.024-.695.172-1.371.28-2.084.335l-.215-.203.802-.249c.486-.202.794-.103 1.248-.274.3-.112.556-.173.874-.226.148-.024.484-.057.625-.125.42-.203.37-.371.907-.461l.343-.039.002-.375c.112-.693.229-1.014.197-1.749-1.226.212-2.748 1.352-3.957 1.102l-.437-.11c3.409-1.078 6.541-2.37 9.21-4.836 3.684-3.402 5.95-8.207 6.095-13.231.155-5.366-1.567-10.576-5.324-14.476-3.964-4.117-8.839-5.66-14.457-5.725l-.761-.295-.468-2.376Z"/>
  <defs>
    <linearGradient id="a" x1="179.652" x2="245.111" y1="748.331" y2="763.206" gradientUnits="userSpaceOnUse">
      <stop offset="0" stop-color="#C9C8D0"/>
      <stop offset="1" stop-color="#EEEDEF"/>
    </linearGradient>
  </defs>
  <path fill="url(#a)" d="m228.582 800.154-.311.213c-11.294 1.137-22.423-1.201-31.8-7.769-9.209-6.451-15.864-17.398-17.712-28.463-1.856-11.124.859-23.245 7.449-32.425 7.857-10.946 18.689-16.627 31.742-18.852l.935 4.752 1.524.59c-11.924 1.17-21.525 6.059-29.172 15.451-6.296 7.73-8.597 17.768-7.58 27.56 1.067 10.26 7.027 20.204 15.073 26.544 7.405 5.836 17.393 8.727 26.748 7.612l3.828-.655.054.023.873.22c2.418.5 5.463-1.78 7.915-2.203.063 1.471-.171 2.111-.393 3.498l-.005.75-.685.078c-1.075.18-.976.516-1.815.922-.282.136-.954.201-1.25.25a8.715 8.715 0 0 0-1.749.453c-.906.341-1.524.144-2.496.547l-1.603.498.43.406Z" transform="scale(.5)"/>
  <path fill="#00093B" d="M110.204 359.1c5.618.065 10.493 1.608 14.458 5.724 3.756 3.901 5.478 9.11 5.323 14.476-.146 5.025-2.41 9.83-6.095 13.232-2.669 2.466-5.801 3.758-9.21 4.836l-.027-.012-1.914.327c-4.678.558-9.672-.887-13.374-3.805-4.023-3.17-7.003-8.142-7.536-13.272-.509-4.897.642-9.916 3.79-13.78 3.823-4.697 8.624-7.141 14.585-7.726Z"/>
  <path fill="#008498" d="M109.263 391.43c1.95 1.137 3.14 1.748 5.456 1.829 1.008.036 2.095-.064 3.076.179-3.082 2.108-7.751 1.95-11.267 1.438l2.735-3.446Z"/>
  <path fill="#fff" d="m108.063 383.23 5.898-7.73c.847-1.123 1.96-3.1 3.164-3.747.811.142 1.536.357 2.005 1.092.214.335.231.769.162 1.155-.237 1.322-2.008 3.192-2.828 4.258-2.382 3.104-4.753 6.29-7.358 9.213l-5.277 6.322-2.886-1.894 7.12-8.668Z"/>
  <path fill="#008498" d="m106.802 380.71-7.664 9.43c-1.766-1.92-3.345-4.234-4.077-6.765-1.253-4.33-.623-9.642 1.602-13.558 2.07-3.644 5.434-6.17 9.442-7.308-1.237 4.572-.939 10.622-.047 15.256.179.933.274 2.125.743 2.946Z"/>
  <path fill="#64B8C3" d="M106.105 362.509c4.73-1.21 8.937-1.16 13.252 1.364 3.723 2.178 6.469 5.817 7.495 10.017 1.075 4.403.614 9.17-1.785 13.077-1.606 2.615-4.264 5.528-7.272 6.471-.981-.243-2.068-.143-3.076-.179-2.316-.081-3.506-.692-5.456-1.829l8.95-11.408c1.13-1.513 3.206-3.786 3.533-5.657.206-1.182-.178-2.253-.932-3.166-1-1.211-2.168-1.707-3.689-1.896-2.239.556-3.667 3.156-5.055 4.857l-5.268 6.55c-.47-.82-.565-2.012-.745-2.945-.891-4.634-1.19-10.683.048-15.256Z"/>
  <path fill="#00093B" d="M349.575 59.936c8.49-9.173 19.202-15.546 31.928-16.155 11.899-.569 23.045 3.495 31.814 11.589 7.984 7.369 12.604 17.141 14.024 27.836.315 2.371.195 4.837.189 7.227l-.034 11.026c3.832.574 6.747 1.936 9.04 5.171 2.307 3.252 1.949 6.97 1.957 10.733.011 4.696-.407 9.817.08 14.464l-.037 26.23c-.589 3.493-2.383 6.661-5.283 8.736-3.012 2.155-6.445 1.94-9.948 1.947l-7.812.002-71.807-.095c-1.69-.053-3.623.016-5.26-.395-3.042-.764-5.776-2.706-7.34-5.462a11.256 11.256 0 0 1-1.457-4.628c-.208-2.311-.094-4.703-.097-7.024l.009-12.41.022-18.722c.008-3.254-.488-7.603.432-10.717 1.106-3.745 4.243-6.551 8.005-7.462.998-.242 2.041-.194 2.959-.702l.036-1.362-.038-11.006c-.005-2.45-.132-4.998.194-7.428.943-7.059 2.996-12.972 6.706-19.075.651-.698 1.173-1.537 1.718-2.318Z"/>
  <path fill="#B4D4DC" d="M377.776 58.087c-3.642 1.12-6.883 2.163-10.151 4.237-6.933 4.398-11.104 11.062-12.925 18.926-.668 2.882-.52 5.832-.524 8.773l.005 11.474-10.136-.016.087-19.321c.841-10.19 5.437-19.18 13.241-25.787 7.663-6.487 18.197-10.53 28.305-9.725-1.683.929-2.918 3.047-3.985 4.591-1.275 1.847-3.184 4.249-3.839 6.418l-.078.43Z"/>
  <path fill="#fff" d="M385.678 46.648c11.346.816 21.443 5.448 28.933 14.18 4.813 5.609 8.344 12.943 9.492 20.279 1.04 6.641.59 13.68.582 20.386l-11.396-.027-.018-11.135c-.007-2.446.077-4.901-.227-7.331-.933-7.465-4.699-14.076-10.59-18.773-6.79-5.415-14.476-7.367-23.075-6.386l-1.603.245.078-.43c.655-2.168 2.564-4.57 3.839-6.416 1.067-1.545 2.303-3.663 3.986-4.592Z"/>
  <path fill="#64B8C3" d="m381.911 60.348 1.984-.073c6.793-.026 13.896 3.099 18.68 7.869 3.502 3.491 6.243 8.087 7.332 12.937.657 2.926.563 5.922.575 8.901l.01 11.555-24.367-.001-29.138-.02-.003-11.404c.006-2.64-.12-5.316.379-7.92.839-4.383 2.894-8.468 5.67-11.933 4.686-5.849 11.555-9.062 18.878-9.911Z"/>
  <path fill="#F9949F" d="m347.528 104.456 54.146-.026 17.175-.078c2.935-.008 6.125-.24 9.027.102 2.036.239 3.794 1.068 5.249 2.518 1.175 1.169 1.821 2.427 2.175 4.028l.072.313c.448 2.089.216 4.641.22 6.791l.021 12.742.024 18.478c-.014 2.881.19 6.013-.164 8.867a8.624 8.624 0 0 1-1.396 3.72c-1.185 1.776-3.172 3.439-5.313 3.809-2.737.473-5.784.22-8.57.223l-15.715-.01-57.13-.13c-4.219 0-8.872.651-12.263-2.39-1.857-1.666-2.589-3.656-2.643-6.098l-.08-32.914.031-8.899c.007-1.66-.13-3.5.22-5.123.305-1.417 1.181-2.805 2.2-3.815 3.063-3.034 8.68-2.112 12.714-2.108Z"/>
  <path fill="#00093B" d="m347.538 144.493 16.407-.007c2.159.002 5.7-.457 7.68.312.423.5.475.754.526 1.402-.307.562-.361.895-1.026 1.07l-10.242.043-21.508-.091c-.663-.638-.738-.637-.87-1.597.24-.44.363-.67.803-.947.526-.332 1.423-.176 2.048-.177l6.183-.008ZM347.505 120.547H390.034c1.113 0 2.513-.185 3.591.028.317.062.489.193.75.373.432.641.358.719.296 1.503-.443.616-.47.813-1.255.945-1.33.224-2.939.061-4.296.063l-8.845-.005-32.804-.007-7.346.072c-.777-.06-.99-.331-1.513-.88-.1-.855-.163-.937.263-1.67 1.731-.963 6.478-.42 8.63-.422ZM347.435 132.519l30.721.006c4.89-.008 10.111-.396 14.969-.002.817.066 1.059.284 1.627.852.089.79.096.917-.233 1.635-.298.195-.53.369-.894.422-1.33.193-2.98.016-4.336.007l-9.039-.053-32.717.089-7.612.018c-.832-.08-.825-.173-1.334-.797-.05-.853-.167-1.054.334-1.777 1.649-.95 6.46-.42 8.514-.4Z"/>
  <path fill="#EB5C7A" d="M347.35 165.803c-4.22 0-8.873.651-12.264-2.39-1.857-1.666-2.589-3.656-2.643-6.098l-.08-32.914.031-8.899c.007-1.66-.13-3.5.22-5.123.305-1.417 1.181-2.805 2.2-3.815 3.063-3.034 8.68-2.112 12.714-2.108l-.024 16.091c-2.151.002-6.898-.541-8.629.422-.426.733-.363.816-.263 1.67.523.549.736.82 1.513.88l7.346-.072-.036 9.072c-2.053-.02-6.865-.55-8.514.4-.501.722-.383.923-.334 1.777.51.624.502.717 1.334.797l7.612-.018.005 9.018-6.182.008c-.625.001-1.522-.155-2.048.177-.44.276-.563.507-.803.947.132.96.207.96.87 1.597l21.508.091-.223.035c-4.19.587-8.939.15-13.192.15l-.119 18.305Z"/>
  <path fill="#00093B" d="M99.692 165.827c-5.667-3.978-10.575-9.55-14.003-15.563-6.149-10.782-7.856-23.95-4.442-35.909 3.589-12.572 11.868-22.595 23.296-28.867 11.144-6.114 24.046-7.077 36.164-3.488 11.774 3.487 21.607 11.993 27.382 22.709 5.974 12.269 7.394 25.423 2.91 38.462-4.067 11.826-13.406 21.853-24.635 27.259-3.674 1.77-7.526 2.828-11.456 3.852l-.013 102.821 25.754.012 6.02.03c.547.007 1.73-.033 2.206.192.213.101.565.553.75.733.753 3.95-.026 8.495.298 12.555-.357.762-.673 1.04-1.421 1.408l-90.054-.241-37.236.026a11.025 11.025 0 0 1-3.147.096c-2.318-.481-5.495-.048-7.903.007-.748-.267-1.478-.575-2.157-.993-1.332-.82-2.228-2.05-2.564-3.577-.31-1.409-.492-4.943.115-6.226.328-.693 1.156-1.555 1.274-2.276.145-.884.016-1.991.018-2.906l.01-5.877-.069-39.474-.02-12.113c-.003-1.971-.148-4.069.029-6.03.051-.565.177-.855.478-1.324 1.084-.626 2.755-.352 4.008-.355l10.03.038 2.492.004 39.07-.043c.527-3.1 1.908-6.528 2.867-9.545 2.221-6.987 4.523-13.981 7.37-20.743l6.579-14.654Z"/>
  <path fill="#fff" d="m123.642 174.684 8.397.07-.028 102.4-8.244-.046-.125-102.424ZM125.701 82.737c3.27.04 6.466.134 9.69.764 8.548 1.675 16.92 6.305 22.995 12.517 8.294 8.483 12.566 20.349 12.374 32.107-.191 11.587-5.103 22.959-13.385 31.03-7.807 7.607-18.441 13.02-29.533 12.797a49.366 49.366 0 0 1-7.909-.79c1.194-1.088 8.553-1.448 10.586-1.835 3.7-.703 8.147-1.608 11.339-3.646 2.994-1.911 5.802-5.093 6.601-8.604.24-.487 1.727-1.503 2.189-1.926 7.668-7.027 12.147-16.096 12.585-26.526.41-9.765-2.766-19.258-9.5-26.444-5.317-5.675-12.376-9.897-20.048-11.426-2.661-.53-5.322-.62-8.027-.695l.043-7.323Z"/>
  <path fill="#CCCDD2" d="m119.933 171.162-.087.014c-2.65-.276-5.371-1.176-7.846-2.13-6.023-2.322-11.255-5.478-15.954-9.935-8.783-8.331-13.416-19.99-13.714-31.982-.273-11.004 4.405-22.446 11.999-30.352 8.299-8.64 19.352-13.772 31.37-14.04l-.043 7.323c-10.655.702-19.79 4.577-26.903 12.78-6.549 7.553-9.752 17.001-8.939 26.988.796 9.795 5.91 19.312 13.465 25.547 7.938 6.551 17.713 9.422 27.937 8.363 6.194-.643 12.107-3.226 17.241-6.661-.799 3.511-3.607 6.693-6.601 8.604-3.192 2.038-7.638 2.943-11.339 3.646-2.032.387-9.392.747-10.586 1.835Z"/>
  <path fill="#fff" d="M30.092 280.125c1.648-.25 3.368-.136 5.034-.137l8.05-.001 28.038.012 95.742-.014.014 6.712c0 .76.174 1.803-.278 2.428l-1.13.055-89.035-.125-30.309.037c-5.084.007-10.405.344-15.468-.072-.863-.071-1.318-.345-1.957-.895-.71-1.314-.78-3.026-.666-4.499.133-1.723.662-2.41 1.965-3.501Z"/>
  <path fill="#F9949F" d="m29.847 258.547 69.867-.019-.009 18.714-69.846.006-.012-18.701Z"/>
  <path fill="#00093B" d="m88.815 265.375 1.06-.135c.707.048 1.27.401 1.694.953.605.791.69 1.468.614 2.432-.413.892-.763 1.256-1.558 1.825-.272.087-.7.257-1 .258-.695.003-1.396-.458-1.835-.98-.56-.666-.647-1.513-.498-2.353.156-.877.855-1.49 1.523-2ZM38.303 263.755c.656-.011 1.307.06 1.945.216 1.036.253 1.899.972 2.428 1.889.611 1.056.675 2.37.283 3.515-.503 1.467-1.666 2.065-3.002 2.64-.554.012-1.096.023-1.642-.084-1.14-.224-2.259-.947-2.836-1.975-.567-1.009-.599-2.466-.2-3.534.584-1.569 1.573-2.029 3.024-2.668Z"/>
  <path fill="#194064" d="M38.693 266.125c.204-.043.35-.084.567-.075.481.02.8.203 1.136.523.482.462.331 1.033.355 1.677-.327.79-.671 1.108-1.343 1.625l-.428.049c-.358-.032-.8-.269-1.049-.523-.5-.515-.573-1.065-.466-1.776.115-.758.678-1.071 1.228-1.5Z"/>
  <path fill="#64B8C3" d="m29.844 236.482 69.892.044-.053 19.149-69.703.043c-.468-1.128-.145-3.805-.145-5.118l.009-14.118Z"/>
  <path fill="#00093B" d="M89.33 243.125c.516-.15.868-.242 1.416-.205.99.067 1.899.849 2.434 1.632.532.78.552 1.565.311 2.453-.309 1.14-1.14 1.909-2.116 2.499-.504.16-.977.179-1.5.22-.965-.343-1.811-.82-2.371-1.713-.468-.745-.669-1.797-.421-2.653.33-1.141 1.258-1.715 2.246-2.233ZM38.035 242.262c.863-.031 1.633-.072 2.465.196 1.073.345 1.994 1.183 2.462 2.21.45.987.387 2.213-.021 3.201-.54 1.303-1.704 2.052-2.934 2.61-.697.03-1.445.052-2.129-.104-.992-.226-1.966-1.123-2.46-1.983-.623-1.087-.763-2.118-.358-3.3.509-1.488 1.645-2.143 2.974-2.83Z"/>
  <path fill="#1E433D" d="M38.221 244.625c.678-.155.996-.101 1.654.112.618.65.806 1.07.648 2.013-.117.696-.64.946-1.148 1.356-.383.046-.743-.024-1.125-.069-.647-.576-.983-.865-.96-1.787.018-.778.406-1.127.931-1.625Z"/>
  <path fill="#fff" d="m29.77 213.589 69.973.137.014 20.005-69.98-.093-.007-20.049Z"/>
  <path fill="#00093B" d="M89.242 221.375c.225-.046.532-.122.76-.103.719.058 1.366.52 1.778 1.103.39.552.44 1.279.293 1.922-.264 1.147-.802 1.701-1.77 2.328-.405.084-.767.18-1.18.055-.663-.2-1.343-.877-1.665-1.488-.338-.64-.302-1.55-.03-2.209.365-.887.974-1.23 1.814-1.608ZM38.603 220.008l1.772.266c1.047.286 2.133 1.423 2.582 2.385.446.958.423 2.492.015 3.466-.593 1.417-1.647 1.995-2.983 2.599-.903.026-1.785.097-2.617-.313-.927-.456-1.697-1.168-2.004-2.18-.401-1.327-.29-3.117.435-4.326.67-1.12 1.59-1.554 2.8-1.897Z"/>
  <path fill="#194064" d="M38.553 222.625c.561-.08 1.084-.135 1.57.25.578.458.722.931.853 1.625-.261.958-.353.964-1.101 1.54-.526.224-.834.11-1.375-.02-.58-.494-1.01-.685-1.075-1.52-.072-.922.536-1.32 1.128-1.875Z"/>
  <path fill="#64B8C3" d="M99.692 165.827c4.612 3.185 9.461 5.548 14.847 7.122 1.376.402 2.77.698 4.175.977.688.137 1.487.178 2.081.552l.038 102.672-18.143-.031-.013-44.274-.01-14.416c-.005-2.065.367-5.139-.317-7.024-.19-.134-.653-.555-.85-.601-1.311-.31-3.48-.04-4.86-.04l-13.764.005c.527-3.1 1.908-6.528 2.867-9.545 2.221-6.987 4.523-13.981 7.37-20.743l6.579-14.654Z"/>
  <path fill="#00093B" d="M125.658 90.06c2.705.075 5.366.165 8.027.695 7.672 1.529 14.73 5.75 20.048 11.426 6.734 7.186 9.91 16.679 9.5 26.444-.439 10.43-4.917 19.499-12.585 26.526-.462.423-1.948 1.44-2.189 1.926-5.134 3.435-11.047 6.018-17.241 6.66-10.224 1.06-19.999-1.811-27.937-8.362-7.555-6.235-12.669-15.752-13.465-25.547-.813-9.987 2.39-19.434 8.94-26.988 7.112-8.203 16.247-12.078 26.902-12.78Z"/>
  <path fill="#EB5C7A" d="M155.944 143.825c-1.751 3.441-4.623 6.601-7.414 9.225-5.935 5.579-14.116 8.345-22.211 8.018-9.841-.396-18.504-4.514-25.1-11.804-6.04-6.673-8.901-15.569-8.424-24.5.487-9.13 4.67-17.277 11.486-23.339 6.272-5.578 14.75-9.058 23.243-8.539l-1.299.239c-.047.25-.036.519-.143.75-.054.115-.615.511-.715.59-1.193.935-2.493 1.675-3.619 2.706-1.206 1.103-2.329 2.474-3.235 3.841-2.392 3.612-3.784 7.669-4.31 11.958-.147 1.195-.028 2.978-.519 4.037l-.876-.399c-1.284.707-2.41 1.99-3.483 2.997l-5.909 5.632 18.544 18.304 5.114-4.958a10.975 10.975 0 0 0 2.926 3.379l.306.24c4.779 3.687 11.613 4.806 17.466 3.965 2.895-.417 5.395-1.554 8.172-2.343Z"/>
  <path fill="#F9949F" d="M127.524 92.886c9.6.677 18.036 4.385 24.453 11.7 6.047 6.892 9.118 15.73 8.432 24.914-.334 4.484-1.754 10.617-4.422 14.293l-.043.031c-2.776.789-5.276 1.926-8.172 2.343-5.853.841-12.687-.278-17.465-3.965l-.307-.24a10.975 10.975 0 0 1-2.927-3.38l-5.112 4.959-18.544-18.304 5.908-5.632c1.073-1.008 2.199-2.29 3.483-2.997l.876.399c.491-1.06.373-2.842.519-4.037.526-4.289 1.918-8.346 4.31-11.957.906-1.368 2.029-2.739 3.235-3.842 1.126-1.03 2.426-1.77 3.618-2.706.101-.079.662-.475.716-.59.107-.231.096-.5.144-.75l1.298-.239Z"/>
  <path fill="#00093B" d="m113.684 117.007 9.6 9.977 19.365-18.457 7.144 8.173-22.72 21.883-5.112 4.958-18.544-18.304 5.908-5.632c1.073-1.008 2.199-2.29 3.483-2.997l.876.399Z"/>
  <path fill="#64B8C3" d="m142.341 112.484 3.524 4.103-23.954 23.08-10.48-10.542-3.709-3.796c1.088-1.645 3.409-3.512 4.965-4.79l10.762 10.326 18.892-18.38ZM204.161 89.293c1.262 1.764 2.617 3.522 4.356 4.842 1.747 1.328 3.98 2.338 6.168 2.61 4.53.563 9.536.204 14.109.203l27.056-.016 23.877.001c4.296.004 8.966.374 13.203-.271 5.633-.858 9.729-4.121 13.082-8.557 9.139 1.915 17.973 4.656 26.686 8.001 2.818 1.083 5.448 2.679 8.297 3.657l-.036 1.362c-.918.508-1.961.46-2.959.702-3.762.911-6.9 3.717-8.005 7.462-.92 3.114-.424 7.463-.433 10.718l-.022 18.721-.008 12.41c.004 2.321-.111 4.713.097 7.024.15 1.659.631 3.172 1.457 4.628 1.563 2.756 4.298 4.698 7.34 5.462 1.637.41 3.57.341 5.26.394l71.808.097 1.801 4.754 4.361 13.918 2.337 9.335c.488 2.246.722 5.528 1.829 7.502l2.058-2.014c2.675 1.257 5.305 3.494 7.567 5.387 1.364 1.142 2.863 2.289 4.045 3.615-1.266 1.623-3.312 3.675-4.083 5.534l1.91 2.575 6.736-2.248c2.044 4.323 3.286 8.879 4.791 13.404l-7.085 2.393.11 7.131c1.818.625 5.146.966 6.557 2.033-.197 3.109-1.601 6.23-2.573 9.155-.37 1.111-.764 2.951-1.519 3.798-.903-.07-1.844-.111-2.723-.338-.779-.201-3.386-1.33-3.988-1.187-.192.046-.334.213-.5.32-.222.435-.538.777-.403 1.267.236.851 1.129 1.678 1.665 2.364.717.92 1.26 1.849 1.79 2.886l-3.566 3.248 16.64.158c-.567-2.896-.879-5.308.814-7.95 1.018-1.59 2.559-2.845 4.435-3.233 1.978-.409 4.168 0 5.811 1.191 1.76 1.276 2.776 3.136 3.096 5.259.25 1.664-.057 3.223-.665 4.772 5.93-.051 10.527-.217 15.068 4.236 2.907 2.85 4.137 6.486 4.14 10.492.003 3.798-1.856 7.624-4.553 10.233-1.693 1.638-3.582 2.633-5.818 3.324l-3.594.423-38.144.029-1.358 7.051-.074.195-2.067 8.375c-.447 1.726-1.026 3.565-1.184 5.344.841.012 1.99-.195 2.584.401l.003 45.281.012 13.67c.002 2.233-.19 4.66.026 6.876.147 1.495 1.589 3.525 2.392 4.791l1.346 2.726c3.45 10.23 4.392 20.641-.513 30.636-4.448 9.063-12.194 16.236-21.818 19.48-4.851 1.636-10.373 2.142-15.44 1.569-2.348-.266-4.682-.88-7.007-1.303-.897-.43-1.768-.72-2.721-.997-8.628-3.171-16.21-10.914-20.139-19.087-5.693 5.378-15.815 5.921-23.298 5.72-3.19-.085-6.374-.538-9.54-.92-.859-.104-2.47-.53-3.226-.392-.766.137-1.64.695-2.324 1.076l-5.176 3.01-6.849 3.475c-14.107 6.537-28.961 10.971-44.47 12.488-5.696.557-11.349.55-17.061.543l-.056 24.098c-.01 3.484.426 7.543-.198 10.942-.219 1.19-.791 2.41-1.616 3.298-1.176 1.264-2.928 2.327-4.694 2.38l-37.465.02-13.106-.008c-1.91-.006-4.134.2-6.01-.076-1.383-.202-2.611-.749-3.596-1.751-1.073-1.093-1.815-2.386-2.073-3.904-.309-1.82-.118-3.901-.114-5.752l.024-10.682.042-37.812c-10.317-2.932-20.466-8.084-30.079-12.812-3.347-1.646-6.56-3.866-10.095-5.064 2.829-5.594 5.489-11.294 7.406-17.276 3.964-12.371 4.922-25.441 5-38.354.025-4.283.324-8.767-.084-13.014-.146-.184-.258-.401-.438-.552-.537-.452-5.93.152-7.1.138-7.07-.087-13.692-1.735-20.185-4.47-6.153-2.695-12.546-6.665-16.833-11.918-.58-.712-1.582-2.44-2.64-2.066-1.287.454-2.75 2.91-3.758 3.925-1.06 1.065-2.23 2.051-3.428 2.957-4.38 3.312-9.775 5.957-14.996 7.666-2.118-4.846-3.761-9.762-5.391-14.788-2.015-6.212-3.933-12.65-4.996-19.105-.611-2.147-.802-4.527-1.011-6.745l90.053.24c.748-.366 1.064-.644 1.42-1.407-.323-4.06.456-8.604-.297-12.555-.185-.18-.537-.632-.75-.733-.476-.225-1.659-.185-2.206-.192l-6.02-.03-25.754-.012.013-102.82c3.93-1.024 7.782-2.083 11.456-3.853 11.229-5.406 20.567-15.434 24.635-27.259 4.484-13.039 3.064-26.193-2.91-38.462 8.918-4.98 18.738-8.727 28.173-12.63 1.552-.642 3.138-1.277 4.751-1.753 1.084-.32 2.151-.463 3.148-1.032Z"/>
  <path fill="#00093B" d="M194.441 105.125c.652-.076.723.05 1.296.393.974 1.31.456 4.879.422 6.545 1.983-.029 5.227-.556 6.775.733.165.865.172.807-.309 1.546-1.518.856-4.832.409-6.614.4l-.075 6.231-.811.587c-.625-.04-.7-.103-1.213-.474-.8-1.483-.385-4.624-.382-6.346-2.081.013-5.219.513-6.916-.604-.129-.861-.054-.858.413-1.608 1.135-.774 5.041-.314 6.527-.303-.006-2.081-.505-5.518.887-7.1ZM184.99 146.625c.81-.103.88-.223 1.528.25.778 1.414.313 5.329.319 7.05 1.388-.007 5.864-.379 6.84.364.083.704.198 1.197-.19 1.836-1.285.846-5.001.37-6.618.352l.024 6.023c-.054.817-.156.986-.768 1.526l-.75.209-.75-.53c-.866-1.758-.382-5.256-.37-7.258-1.942.023-5.445.592-6.88-.767-.13-.838-.143-.78.345-1.474 1.632-.864 4.684-.421 6.545-.396l.008-4.964c.006-.275-.053-1.258.05-1.471.145-.302.445-.5.667-.75ZM162.537 178.375c1.197.065 4.104 3.442 5.13 4.43 1.333-1.38 3.364-3.954 5.208-4.487.68.274.785.491 1.225 1.057-.245 1.845-3.135 3.976-4.481 5.262 1.004 1.654 4.364 3.462 4.34 5.46-.007.573-.202.582-.584.963l-.629.17c-1.835-.759-3.813-3.149-5.294-4.522-1.287 1.408-2.928 3.653-4.577 4.544-.833-.127-.85-.145-1.436-.752-.028-1.934 2.942-4.272 4.247-5.633-1.364-1.37-3.811-3.373-4.297-5.242.325-.732.474-.795 1.148-1.25ZM186.105 334.125c.75-.099 1.053-.046 1.733.287.324.69.214 1.467.212 2.212l-.027 5.597 5.142.026c.82.005 1.584-.168 2.26.312.096.766.095 1.285-.05 2.043-1.23.843-5.77.307-7.407.289l.003 5.3c-.002.594.096 1.79-.152 2.309-.125.262-.403.416-.605.625l-.379.072c-.636.04-1.018-.342-1.46-.719-.626-2.084-.179-5.386-.172-7.612-1.79.031-5.274.538-6.828-.205-.353-.793-.363-1.22-.25-2.074 1.115-.897 5.525-.373 7.135-.364l.033-7.598.812-.5ZM155.46 250.028c1.423-.072 2.77.016 4.072.65 1.735.846 3.097 2.259 3.681 4.118.513 1.632.434 3.933-.401 5.461-1.149 2.102-2.764 3.13-5.028 3.746-1.866.045-3.381.056-5.034-.982-1.305-.821-2.554-2.284-2.903-3.819-.484-2.134-.268-4.089.899-5.98 1.147-1.86 2.646-2.667 4.714-3.195Z"/>
  <path fill="#fff" d="M155.214 253.125c.817-.177 1.459-.23 2.288-.078 1.089.198 2.088.75 2.668 1.72.65 1.089.745 2.466.364 3.666-.466 1.467-1.363 2.02-2.687 2.676l-.191.017c-.915.1-1.815.233-2.711-.058-.891-.288-1.683-1.027-2.07-1.875-.501-1.1-.58-2.602-.121-3.73.452-1.112 1.4-1.857 2.46-2.338Z"/>
  <path fill="#00093B" d="M341.819 182.035c1.4-.164 2.767-.124 4.087.418 1.924.79 3.512 2.325 4.212 4.305.67 1.9.608 4.032-.313 5.831-.992 1.94-2.62 2.968-4.627 3.661-1.56.256-3.058.313-4.553-.299-1.695-.694-3.095-2.288-3.73-3.986-.69-1.843-.568-4.058.227-5.84 1.016-2.276 2.489-3.215 4.697-4.09Z"/>
  <path fill="#fff" d="M342.92 184.74a5.547 5.547 0 0 1 2.205.481c1.192.52 2.071 1.547 2.47 2.782.332 1.033.192 2.299-.327 3.247-.739 1.353-1.93 1.864-3.347 2.268-.75.01-1.385-.058-2.097-.315-1.04-.376-2.024-1.365-2.428-2.392-.47-1.2-.453-2.502.157-3.65.724-1.359 1.962-1.975 3.368-2.421Z"/>
  <path fill="#00093B" d="M305.333 106.293c1.196-.051 2.52-.21 3.671.167 1.843.604 3.491 1.959 4.336 3.719.906 1.885 1.115 4.005.315 5.955-.946 2.309-2.901 3.57-5.123 4.459-1.162.277-2.794.254-3.917-.166-2.081-.78-3.668-2.087-4.492-4.194-.635-1.627-.575-3.889.119-5.483 1.075-2.472 2.696-3.482 5.091-4.457Z"/>
  <path fill="#fff" d="M305.736 109.04c.798-.063 1.53-.063 2.315.122 1.193.282 2.206 1.137 2.827 2.183.535.899.757 2.09.475 3.109-.45 1.623-1.76 2.467-3.14 3.254-.756.105-1.582.195-2.338.048-1.061-.207-2.169-1.231-2.705-2.132-.624-1.047-.748-2.21-.426-3.374.438-1.585 1.638-2.423 2.991-3.21Z"/>
  <path fill="#00093B" d="M305.736 339.559c1.524-.04 3 .03 4.351.809 1.704.983 3.261 2.71 3.674 4.671.411 1.953.068 4.062-1.037 5.736-1.204 1.824-2.813 2.716-4.885 3.213-1.772.057-3.312.071-4.898-.856-1.817-1.061-2.883-2.689-3.361-4.707-.477-2.018-.002-4.086 1.153-5.789 1.251-1.847 2.865-2.662 5.002-3.077Z"/>
  <path fill="#fff" d="M305.558 342.28c.704-.027 1.488-.098 2.175.074a4.614 4.614 0 0 1 2.988 2.39c.514 1.028.664 2.031.303 3.131-.557 1.695-1.712 2.517-3.25 3.287l-.237.018c-.731.058-1.537.178-2.258-.003-1.037-.26-1.94-1.07-2.45-1.99-.574-1.04-.767-2.392-.432-3.541.532-1.817 1.589-2.52 3.161-3.365Z"/>
  <path fill="#00093B" d="M160.159 307.765c1.715-.063 3.037-.071 4.601.78 1.884 1.025 3.072 2.816 3.67 4.842a7.512 7.512 0 0 1-.716 5.98c-1.143 1.957-2.904 3.066-5.048 3.66-1.404.115-2.98.096-4.297-.454-1.927-.804-3.401-2.5-4.103-4.448-.725-2.012-.497-4.366.526-6.25 1.214-2.236 3.023-3.303 5.367-4.11Z"/>
  <path fill="#008498" d="M160.241 310.375c.746-.16 1.654-.035 2.384.171 1.344.379 2.506 1.745 3.055 2.978.472 1.061.542 3.031.056 4.101-.647 1.429-1.71 2.116-3.129 2.663-1.17.007-2.394.141-3.47-.384-1.051-.512-1.898-1.664-2.232-2.77-.458-1.51-.13-3.257.635-4.606.623-1.098 1.507-1.802 2.701-2.153ZM343.686 168.647l71.808.096 1.801 4.754-73.349.017c-.464-1.27-.23-3.471-.26-4.868ZM78.448 291.792l90.054.24c-.822 2.644-1.728 4.548-3.732 6.515l-28.876.015-56.434-.025c-.611-2.147-.802-4.527-1.011-6.745ZM342.972 281.477c1.663 4.805 4.425 7.662 7.978 11.147 1.993.363 4.575-.067 6.632-.103l13.14-.04 40.995-.012 22.124.04-1.358 7.051-.074.195c-2.699.282-5.66.085-8.39.09l-17.295-.011-54.767.041-5.567-6.877c-1.857-2.772-4.067-8.197-3.418-11.521ZM172.711 213.533l.435 10.949h8.139l.06 28.998c-.022 7.391-.356 14.883.463 22.237 1.849 16.614 10.485 33.04 22.266 44.724 5.07 5.029 10.49 9.596 16.477 13.505 6.84 4.464 14.192 7.997 21.612 11.367 4.362 1.982 8.954 4.194 13.535 5.562l.296.103c.867.288 1.711-.122 2.53-.4l.401-.133c4.161-1.417 8.28-3.445 12.321-5.193 5.818-2.516 11.71-5.154 17.22-8.288 15.532-8.839 29.425-21.352 37.273-37.606 2.475-5.123 4.485-10.531 5.873-16.053.572-2.276.867-4.569 1.36-6.839-.08 12.597-3.31 24.69-9.402 35.723-11.705 21.196-32.695 35.274-54.436 44.738-4.194 1.825-8.441 3.807-12.839 5.082-3.486-1.214-6.903-2.832-10.289-4.305-16.042-6.975-32.2-15.867-44.724-28.26-14.234-14.087-24.03-32.16-25.787-52.298-.525-6.014-.16-12.223-.156-18.26l-.062-28.578-3.039-.075.205-9.822c.037-2.242-.135-4.673.268-6.878Z"/>
  <path fill="#00093B" d="M187.077 423.27c.002-4.054-.81-8.869 2.349-11.993 2.151-2.127 4.486-1.831 7.308-1.81l-.056-16.495c-.01-3.632-.327-7.578.123-11.177a23.781 23.781 0 0 1 6.665-13.711c4.65-4.703 10.64-7.327 17.282-7.34 6.4-.012 12.524 2.49 17.02 7.054 3.937 3.995 6.252 9.115 6.797 14.696.275 2.814.122 5.75.127 8.578l.009 13.131c0 1.197-.346 4.091.144 5.102 3.157.01 6.386-.4 8.843 2.007.87.852 1.726 2.286 1.97 3.477.542 2.652.198 5.962.212 8.699l.069 19.029-.056 24.098c-.01 3.484.426 7.543-.198 10.942-.219 1.19-.791 2.41-1.616 3.298-1.176 1.264-2.928 2.327-4.694 2.38l-37.465.02-13.106-.008c-1.91-.006-4.134.2-6.01-.076-1.383-.202-2.611-.749-3.596-1.751-1.073-1.093-1.815-2.386-2.073-3.904-.309-1.82-.118-3.901-.114-5.752l.024-10.682.042-37.812Z"/>
  <path fill="#EB5C7A" d="m189.833 473.103 63.191.132c-.01 2.333.063 4.09-1.205 6.149-.95.672-1.678 1.022-2.856 1.089-3.49.198-7.089.025-10.588.027l-20.02.002-16.313-.012c-2.744-.003-5.653.19-8.381-.04-1.068-.09-1.929-.463-2.711-1.201-1.472-1.39-1.09-4.276-1.117-6.147Z"/>
  <path fill="#fff" d="M220.268 363.606c1.828-.014 3.802.026 5.571.509l.411.118c3.635 1.013 6.918 2.878 9.575 5.575 6.737 6.841 6.03 15.215 6.036 24.097l-.004 15.376-6.875-.009-.047-17.97c-.01-3.11.303-6.619-.262-9.662-.357-1.927-1.274-3.988-2.501-5.515-2.905-3.613-6.565-5.331-11.138-5.758-4.022.171-7.727 1.344-10.605 4.255-1.877 1.897-3.358 4.184-3.973 6.811-.667 2.853-.276 6.495-.28 9.434l.002 18.455-6.644.006c-.288-.548-.165-1.504-.166-2.133l-.016-4.949-.025-12.69c-.003-3.068-.238-6.327.525-9.322l.125-.484c.801-3.158 2.303-6.101 4.462-8.554 4.236-4.812 9.496-7.189 15.83-7.59Z"/>
  <path fill="#64B8C3" d="M208.994 386.906c.044-4.224.326-7.259 3.471-10.349 2.376-2.334 5.599-3.37 8.881-3.306 3.03.059 6.108 1.865 8.139 4.022 1.162 1.234 2.138 2.87 2.498 4.536.553 2.561.186 5.892.193 8.542l.04 18.912-23.224.026.002-15.91-.023-3.357.023-3.116Z"/>
  <path fill="#008498" d="M208.994 386.906c3.404-2.724 6.34-4.213 10.599-5.088 2.262-.464 4.012-.754 6.072-1.88-3.149 5.091-6.689 9.427-12.241 12.013-.85-.051-1.113.027-1.842.438-.755.425-1.733.825-2.588.99l-.023-3.357.023-3.116Z"/>
  <path fill="#64B8C3" d="M208.971 390.022c1.561.486 2.983 1.226 4.453 1.929-.85-.051-1.113.027-1.842.438-.755.425-1.733.825-2.588.99l-.023-3.357Z"/>
  <path fill="#EB5C7A" d="m249.777 470.284-59.903-.044-.018-32.958.005-13.388c0-2.791-.479-6.598.616-9.16.407-.951 1.375-2.129 2.398-2.441 1.552-.475 3.957-.199 5.586-.202l13.071.007 35.99.04c.922.032 2.106-.034 2.929.439 1.386.795 2.085 1.918 2.506 3.423l.073 54.319-3.253-.035Z"/>
  <path fill="#00093B" d="m205.968 422.313 1.752.25c.125.313.232.546.26.884l.008 31.515.002 5.695c0 .293.102 1.219 0 1.468-.068.166-.244.263-.365.394l-2.125-.034c-.093-.12-.22-.22-.279-.36-.126-.301-.001-1.48-.002-1.883l-.004-5.806-.002-20.269.079-11.542.675-.312ZM216.733 434.107l.006-11.232c.656-.63 1.876-.38 2.782-.385l.204 17.214-.04 16.884c-.002 1.393.378 4.806-.31 5.892l-2.375-.01c-.631-.847-.266-25.065-.267-28.363Z"/>
  <path fill="#F9949F" d="m205.968 422.313-.593-.162c-.157-.481-.114-.29-.197-.752l-1.232-5.352 39.669.012 9.342-.059.073 54.319-3.253-.035c-1.635-1.741-3.797-2.728-5.378-4.591-.546-.518-1.471-.94-2.124-1.344-4.516-2.238-8.06-5.017-11.34-8.843l.059 6.744c-.601.527-1.805.344-2.619.357-.108-.119-.257-.211-.325-.357-.13-.28-.007-1.597-.008-2.004l-.028-7.158c-1.013-.775-1.46-1.71-2.139-2.75-1.561-2.392-3.001-4.785-4.326-7.317-.6-1.147-.972-2.314-1.824-3.317l-.204-17.214c-.905.005-2.126-.245-2.782.385l-.006 11.232-.358.998c-.76-.488-1.354-1.507-1.91-2.23-1.293-1.68-2.543-3.351-3.669-5.152-.907-1.45-1.657-3.006-2.816-4.276-.028-.338-.135-.572-.26-.884l-1.752-.25Z"/>
  <path fill="#00093B" d="m228.014 453.088-.002-30.795 2.637.064c.844 1.59-.175 28.409.286 33.149l.059 6.744c-.601.527-1.805.344-2.619.357-.108-.119-.257-.211-.325-.357-.13-.28-.007-1.597-.008-2.004l-.028-7.158Z"/>
  <path fill="#fff" d="M245.912 416.597c.942.696 2.105 1.403 2.287 2.653.206 1.397-.022 3.032-.051 4.455l-.093 8.939-.053 19.588c0 3.228.259 6.703-.062 9.908-.09.898-.273 1.714-.883 2.41-.68.777-1.692.962-2.658 1.143-.546-.518-1.471-.94-2.124-1.344l.022-33.506.021-8.816c.003-1.084-.22-2.687.307-3.647.677-1.23 2.043-1.471 3.287-1.783Z"/>
  <path fill="#00093B" d="M342.972 281.477c-.181-.881-.209-1.726-.224-2.624-.089-5.556 2.625-10.022 6.409-13.892.796-.815 1.585-1.692 2.769-1.879 3.306-.522 7.28-.153 10.645-.173l24.717-.106c-2.322-2.815-4.273-5.424-6.043-8.626-1.776.058-4.09 1.018-5.786 1.635l-.308.113-4.562-14.922 7.074-1.27.318-5.659-7.605-3.023c1.947-4.623 3.42-9.523 5.883-13.897l6.166 2.957 4.234-5.678-4.152-5.907c4.359-3.097 8.798-6.521 13.524-9.02l3.98 6.407 4.87-1.603c.433-.746.379-1.743.469-2.595l.606-3.899c.877-.323 2.561-.11 3.541-.106 3.387.016 6.77-.034 10.142.339l.07 6.754 4.242 1.844 1.87-2.394 2.058-2.015c2.676 1.257 5.306 3.494 7.568 5.387 1.364 1.142 2.863 2.289 4.045 3.615-1.266 1.623-3.312 3.675-4.083 5.534l1.91 2.575 6.736-2.248c2.044 4.323 3.286 8.879 4.791 13.404l-7.085 2.393.11 7.131c1.818.625 5.146.966 6.557 2.033-.197 3.109-1.601 6.23-2.573 9.155-.37 1.111-.764 2.951-1.519 3.798-.903-.07-1.844-.111-2.723-.338-.779-.201-3.386-1.33-3.988-1.187-.192.046-.334.213-.5.32-.222.435-.538.777-.403 1.267.236.851 1.129 1.678 1.665 2.364.717.92 1.26 1.849 1.79 2.886l-3.566 3.248 16.64.158c-.567-2.896-.879-5.308.814-7.95 1.018-1.59 2.559-2.845 4.435-3.233 1.978-.409 4.168 0 5.811 1.191 1.76 1.276 2.776 3.136 3.096 5.259.25 1.664-.057 3.223-.665 4.772 5.93-.051 10.527-.217 15.068 4.236 2.907 2.85 4.137 6.486 4.14 10.492.003 3.798-1.856 7.624-4.553 10.233-1.693 1.638-3.582 2.633-5.818 3.324l-3.594.423-38.144.029-22.124-.04-40.994.012-13.142.04c-2.056.036-4.638.466-6.63.102-3.555-3.484-6.317-6.341-7.979-11.146Z"/>
  <path fill="#64B8C3" d="m459.625 255.054.223.027c.938.097 1.861.118 2.671.659 1.233.823 2.063 1.989 2.313 3.458.204 1.196-.109 2.81-.888 3.768-.655.805-1.743.664-2.697.743a25.79 25.79 0 0 1-3.872-.282c-.48-.33-1.021-.675-1.296-1.206-.512-.986-.693-3.428-.203-4.481.738-1.585 2.147-2.317 3.749-2.686Z"/>
  <path fill="#fff" d="m351.279 267.125.572-.06c3.081 3.413 6.81 7.055 9.204 10.967-1.96 3.404-4.858 6.632-7.257 9.769l-1.472 1.96c-1.46-1.03-2.956-2.58-4.002-4.028-1.884-2.606-3.273-5.72-2.702-9.002l.066-.356c.679-3.76 2.923-6.655 5.591-9.25Z"/>
  <path fill="#F7C1C6" d="m400.587 263.085-7.45-.03c-.797-.004-2.269.202-2.848-.305l.051-.776c-3.357-3.598-5.69-6.694-7.762-11.18l-5.903 1.643-2.644-9.086 6.636-1.508-.074-.425c-.542-3.192.09-6.341.27-9.543l-7.068-2.617 3.808-8.56 5.491 2.384.661.238c1.165-2.212 2.427-4.141 4.117-5.99.561-.616 2.224-1.657 2.505-2.28l-3.76-5.741 5.727-4.346c.846-.593 1.923-1.432 2.922-1.678l3.549 5.988.298-.15c2.814-1.382 5.353-1.888 8.473-2.059l.469-6.55 8.72-.004.273 6.853c2.978.513 5.174 1.483 7.6 3.305l3.682-5.007 7.442 5.557-3.916 5.136 4.324 6.396 6.565-2.45c1.056 2.747 2.194 5.758 2.645 8.674-2.017.552-4.876.964-6.638 2.036l.053.242c.632 2.983.938 7.493-.083 10.396l6.642 2.472c-.612 2.157-1.444 6.374-2.942 8.006l-6.063-2.053-3.445 5.132 4.036 4.851c-1.255 1.538-3.004 3.254-5.095 3.423l-15.703-.19c.283-.267.533-.507.878-.697l4.18-2.202a13.347 13.347 0 0 0 1.967-.988c5.791-3.565 10.053-9.926 11.612-16.505 1.654-6.98.103-14.014-3.673-20.022-3.702-5.892-8.253-9.574-15.137-11.138-6.506-1.48-13.133-.004-18.727 3.546-6.495 4.12-10.382 11.026-12.101 18.342-.475 2.022-.539 4.054-.396 6.125.567 8.178 3.673 14.406 10.226 19.392 1.74 1.324 3.807 2.348 5.425 3.78l.18.163Z"/>
  <path fill="#fff" d="m400.587 263.085-.181-.163c-1.618-1.432-3.685-2.456-5.425-3.78-6.553-4.986-9.659-11.214-10.226-19.392-.143-2.071-.079-4.103.396-6.125 1.719-7.316 5.606-14.221 12.101-18.343 5.594-3.549 12.221-5.025 18.727-3.546 6.884 1.565 11.435 5.248 15.137 11.139 3.776 6.007 5.327 13.042 3.673 20.022-1.558 6.579-5.821 12.94-11.612 16.505-.643.396-1.272.702-1.967.988l-4.18 2.202c-.345.19-.595.43-.878.697l-15.565-.204Z"/>
  <path fill="#00093B" d="m408.624 220.04 3.599-.012c3.93.362 7.457 2.391 9.902 5.465 3.884 4.883 3.54 11.225.828 16.544-1.24 2.43-2.866 4.658-4.002 7.147-1.388 3.041-2.192 6.091-2.55 9.409l-3.601-.118-8.153-.129c-.322-5.399-2.215-9.444-4.98-14.023-1.305-2.162-2.68-4.325-3.263-6.816-.873-3.728.018-8.003 2.113-11.171 2.334-3.528 6.072-5.461 10.107-6.296Z"/>
  <path fill="#64B8C3" d="M409.58 222.56c2.227-.115 4.259-.048 6.295.982 2.795 1.412 5.162 4.073 6.096 7.07 2.212 7.102-3.26 12.827-5.967 18.86-.49 1.093-.964 2.222-1.267 3.383-.246.943-.342 1.953-.795 2.823l-1.38.078-5.214-.02c-.547-3.296-1.603-6.595-3.302-9.486-1.894-3.222-4.127-5.947-5.019-9.661-.667-2.782-.075-5.899 1.464-8.293 2.177-3.384 5.284-4.967 9.09-5.736Z"/>
  <path fill="#00093B" d="M409.567 226.269c1.26-.044 2.409-.154 3.6.342 1.67.695 3.23 2.335 3.906 4.006.732 1.809.821 3.695-.02 5.486-1.062 2.26-2.77 3.418-5.045 4.227-1.325.113-2.755.06-3.994-.456-1.565-.653-3.04-1.92-3.702-3.503-.781-1.865-.726-3.627.063-5.49 1.04-2.452 2.853-3.615 5.192-4.612Z"/>
  <path fill="#fff" d="M410.653 228.777c.527.074 1.052.157 1.546.363 1.377.573 2.221 1.567 2.738 2.954.425 1.138.238 2.176-.336 3.229-.804 1.475-2.151 2.036-3.682 2.472-.786-.055-1.498-.144-2.209-.508-1.127-.577-1.913-1.606-2.284-2.806-.309-1-.068-2.207.439-3.106.882-1.562 2.105-2.186 3.788-2.598ZM354.366 265.743l56.957.108 25.159.53 25.452-.074c3.858-.008 7.951-.28 11.781.073 1.963.182 3.884.983 5.36 2.295 2.802 2.489 4.305 5.679 4.404 9.443.079 2.983-1.267 6.046-3.336 8.162-1.727 1.767-4.194 3.052-6.634 3.436-3.226.508-7.052.136-10.337.13l-21.834-.043-77.213-.043-8.336-.002 7.974-10.506 110.987.207c.565-.536.418-1.673.457-2.459-.11-.1-.2-.23-.332-.3-.67-.356-62.977-.022-67.827-.027l-43.594-.214-9.088-10.716Z"/>
  <path fill="#00093B" d="M367.883 417.517c-.029-.093-.413-.863-.484-.914-.584-.427-68.592-.082-75.774-.067-4.567.01-9.358.358-13.9.028-.448-.033-.704-.167-1.05-.439-.273-.48-.291-.825-.305-1.363l.013-31.367-.043-15.039c-.006-2.505-.17-5.118-.007-7.606.065-.998.113-1.269.792-1.986l51.77-.165-.063-26.299-.003-6.567c0-.977-.132-2.183.048-3.14.105-.564.27-.786.618-1.218 1.334-.634 3.392-.327 4.873-.329l11.577.022c-.011-2.017-.52-5.694.68-7.284 1.164-.435 2.428-.287 3.656-.289l6.006-.005 22.81.01 50.06-.026c.843.012 1.992-.195 2.586.401l.002 45.281.012 13.67c.002 2.233-.19 4.66.026 6.876.147 1.495 1.589 3.525 2.392 4.791l1.346 2.726c3.45 10.23 4.392 20.641-.513 30.636-4.448 9.063-12.194 16.236-21.818 19.48-4.851 1.636-10.373 2.142-15.44 1.569-2.348-.266-4.682-.88-7.007-1.303-.897-.43-1.768-.72-2.721-.997-8.628-3.171-16.21-10.914-20.139-19.087Z"/>
  <path fill="#008498" d="m346.789 405.274 17.754-.035c.257 2.983.926 5.84 1.954 8.648l-12.872-.102-20.135-.012 13.299-8.499Z"/>
  <path fill="#B4D4DC" d="M381.24 373.755c1.285 3.257 3.747 5.53 6.268 7.825-5.2 4.476-9.221 9.615-9.775 16.706-.597 7.644 1.474 14.058 6.518 19.795 4.029 4.583 10.432 7.764 16.54 8.129 3.166.189 5.942-.195 8.926-1.235 1.08 2.433 1.839 5.044 3.282 7.286.4.623.775 1.334 1.446 1.688-5.546 2.022-10.555 2.722-16.445 2.272-8.64-.661-17.2-5.642-22.73-12.171-6.002-7.087-8.815-16.168-7.938-25.423.957-10.09 6.183-18.487 13.909-24.872Z"/>
  <path fill="#fff" d="M381.24 373.755c8.275-5.718 16.75-8.225 26.812-6.415 8.175 1.471 16.374 6.81 21.043 13.659 5.507 8.078 8.051 18.054 6.182 27.744-1.495 7.75-5.207 13.533-10.825 18.925-3.046 2.563-6.219 4.925-10.007 6.281-.671-.353-1.046-1.065-1.446-1.688-1.443-2.242-2.203-4.853-3.282-7.286 2.292-.78 4.167-2.026 6.301-3.088 1.752-1.408 3.425-3.005 4.799-4.788 4.203-5.455 5.997-12.358 5.043-19.188l-.062-.411a24.145 24.145 0 0 0-4.805-11.368c-3.935-5.084-9.647-8.305-15.993-9.204-6.481-.918-12.236.944-17.492 4.651-2.521-2.295-4.983-4.567-6.267-7.824Z"/>
  <path fill="#64B8C3" d="m343.916 323.87 1.904.044-.044 78.634-12.879 7.949-.608.344-.28-.091c-.383-2.786-.14-5.89-.146-8.71l-.02-17.256.015-60.822 12.058-.092Z"/>
  <path fill="#00093B" d="M387.508 381.58c5.256-3.708 11.011-5.57 17.492-4.652 6.346.899 12.058 4.12 15.993 9.204a24.145 24.145 0 0 1 4.805 11.368l.062.411c.954 6.83-.84 13.733-5.043 19.188-1.374 1.783-3.048 3.38-4.799 4.788-2.134 1.062-4.009 2.308-6.301 3.088-2.984 1.04-5.76 1.424-8.926 1.235-6.108-.365-12.512-3.546-16.54-8.129-5.043-5.738-7.115-12.15-6.518-19.796.554-7.09 4.575-12.229 9.775-16.706Z"/>
  <path fill="#008498" d="M406.192 423.163c-.36.185-1.25.141-1.665.169-2.36.159-4.923.22-7.217-.418l-.435-.126c-5.118-1.423-9.41-4.623-12.446-8.978-3.37-4.836-4.773-10.976-3.692-16.802.977-5.276 4.317-10.429 8.761-13.442l-.05.374c-.17.97-1.118 1.908-1.577 2.795-1.084 2.089-1.79 4.194-2.152 6.515l-.065.374c-.854 5.207.809 11.429 3.873 15.677.841 1.166 3.795 4.82 5.187 5.185l-.079.358a6.144 6.144 0 0 1-.343 1.031c.602 1.202 1.995 1.88 3.235 2.279 2.816.904 6.528.169 9.48.39l-.36.113c-.593.175-1.202.173-1.815.19.08.71.963 3.988 1.36 4.317Z"/>
  <path fill="#64B8C3" d="M389.498 383.566c4.216-3.32 9.437-4.68 14.76-4.014 5.905.74 11.2 3.884 14.839 8.586 3.591 4.64 5.043 10.524 4.278 16.307-.803 6.072-4.126 11.481-8.974 15.141-2.537 1.914-5.122 2.9-8.209 3.577-.397-.329-1.28-3.606-1.36-4.316.613-.017 1.222-.014 1.815-.19l.36-.113c-2.952-.221-6.664.514-9.48-.39-1.24-.399-2.633-1.077-3.235-2.279.148-.349.256-.659.344-1.031l.078-.358c-1.392-.365-4.346-4.019-5.187-5.185-3.064-4.248-4.727-10.47-3.873-15.677l.065-.374c.362-2.321 1.068-4.426 2.151-6.515.46-.887 1.408-1.826 1.579-2.795l.05-.374Z"/>
  <path fill="#00093B" d="M394.714 414.486c.033-1.308.35-11.09.043-11.727-.262-.543-1.072-1.248-1.461-1.762-.748-.987-1.195-1.951-1.567-3.122l-.124-.372c-.797-2.512-.285-5.47.922-7.765 1.32-2.512 3.514-4.248 6.223-5.046 2.687-.79 5.235-.522 7.678.86 2.438 1.377 4.319 3.87 5.043 6.573.724 2.695.067 5.793-1.293 8.193-.641 1.13-1.837 1.936-2.419 2.964-.17.3-.003 2.292-.004 2.726l-.015 11.058c-.002.804.137 1.171-.733 1.478-2.952-.221-6.664.514-9.48-.39-1.24-.399-2.633-1.077-3.235-2.279.148-.349.256-.659.344-1.031l.078-.358Z"/>
  <path fill="#fff" d="m401.041 386.797.863.029c2.332.204 4.159 1.176 5.589 3.049 1.411 1.848 1.863 4.31 1.423 6.57-.468 2.399-1.735 3.615-3.632 4.942l-.011 14.546-2.958.012-4.813-.168c-.011-1.584.19-13.989.034-14.335-.066-.147-.7-.623-.834-.747-1.216-1.125-2.072-2.173-2.462-3.814-.515-2.17-.425-4.608.879-6.506 1.475-2.147 3.454-3.07 5.922-3.578Z"/>
  <path fill="#B4D4DC" d="m279.026 361.458 49.868.007.072 52.24-49.809.05-.131-52.297Z"/>
  <path fill="#fff" d="m402.09 316.125 27.069.075.015 60.536c-4.228-4.649-8.524-7.916-14.414-10.168-8.844-3.38-19.664-3.31-28.207 1.014-.534.27-.942.56-1.553.649-2.226.323-4.937-.04-7.21-.044l-19.682.02c-1.03.022-1.508-.19-2.233.568-.123.716-.165 1.025.118 1.725 1.096.65 4.901.227 6.268.226l18.547-.041c-3.08 2.36-5.531 4.952-8.106 7.827-2.44.381-5.166.171-7.642.195l-5.933.035c-1.072.006-2.059-.171-3.002.377-.286.721-.327.969-.126 1.756.208.194.369.459.626.582.4.19 2.32-.005 2.868-.006l11.121-.014c-1.695 2.637-2.926 5.425-4.131 8.313l-9.858.027-.572.723c-.044.716-.147.992.219 1.625 1.274.417 2.662.272 3.991.268l5.611.06c-.899 3.304-1.157 6.624-1.4 10.024l-15.745-.02.018-86.12c1.056-.39 2.942-.155 4.101-.154h9.277l39.966-.058Z"/>
  <path fill="#00093B" d="M357.04 336.875c2.221-.257 4.688-.051 6.933-.052l14.66-.003 42.367.156c.575.46.531.543.695 1.274-.462.798-.443.767-1.32 1.059-2.512.256-5.214.067-7.747.063l-15.334-.012-40.514.034c-.662-.454-.593-.474-.768-1.269.266-.806.306-.788 1.028-1.25ZM357.11 357.625l50.163-.14 10.667.006c.668.007 2.241-.166 2.81.036.238.084.416.284.625.425.214.775.348.909.026 1.673l-.826.25c-1.471.276-3.142.128-4.649.139l-8.913.065-38.264-.002-9.23-.052c-.71-.01-2.164.15-2.769-.05-.226-.075-.41-.243-.615-.365-.09-.769-.174-1.011.146-1.735l.83-.25ZM377.014 326.625l42.959.022c.844.057 1.147.009 1.689.65.063.768.182.943-.27 1.594-2.137.643-5.043.312-7.296.318l-13.221.015-44.25.01-.5-.51c-.116-.68-.196-1.125.043-1.8 1.071-.601 4.092-.265 5.397-.269l15.449-.03ZM356.954 347.125l.557-.048 10.808-.041 22.243-.019 19.383.01c3.265.004 6.622-.147 9.875.031.9.05 1.091.043 1.756.651.172.719.173.85-.034 1.558l-.736.358-64.181.078-.5-.516c-.096-.814-.14-1.026.175-1.812l.654-.25ZM205.07 152.726c2.375-5.73 5.147-11.226 9.005-16.123 5.681-7.21 13.895-13.006 22.324-16.508 13.821-5.742 28.89-5.027 42.594.645 12.908 5.342 24.136 16.871 29.409 29.785 1.973 4.831 3.458 9.797 4.152 14.978.592 4.411.383 9 .391 13.446l.012 20.458 12.403.02c1.964-.006 4.335-.262 6.257.043.654.104.88.367 1.374.78.417.977.25 2.304.251 3.362l-.019 7.525c2.153-.029 7.246-.739 8.902.564.62 1.121.432 2.651.438 3.913.014 2.388.444 5.757-.188 8.028-1.005.994-1.908.79-3.247.782l-5.808-.037-.349 52.079c-.492 2.27-.787 4.563-1.359 6.839-1.388 5.522-3.399 10.93-5.873 16.053-7.848 16.254-21.741 28.767-37.273 37.606-5.51 3.135-11.402 5.772-17.22 8.288-4.041 1.748-8.16 3.776-12.321 5.193l-.401.133c-.819.278-1.663.688-2.53.4l-.296-.103c-4.58-1.368-9.173-3.58-13.535-5.562-7.42-3.37-14.772-6.902-21.612-11.368-5.987-3.909-11.407-8.476-16.477-13.504-11.781-11.683-20.417-28.11-22.267-44.724-.818-7.354-.483-14.846-.462-22.237l-.06-28.998h-8.138l-.436-10.949.133-.44c.3-.568.733-.684 1.285-.885.66-.127 1.332-.086 1.996-.177.034-.004.706-.12.736-.156.031-.036.083-1.038.09-1.12.133-1.436.186-3.608 1.154-4.733.712-.828 2.123-.757 3.142-.828-.019-1.754-.427-4.108.684-5.523 1.301-.594 3.388-.296 4.809-.289l9.53.091c.292-2.733.04-5.746.036-8.506-.016-9.813-1.02-20.218 3.18-29.381 1.399-3.052 3.585-6.16 5.585-8.86Z"/>
  <path fill="#008498" d="m181.246 205.194.035 7.02-7.153-.006c.661-.127 1.333-.086 1.997-.177.034-.004.706-.12.736-.156.031-.036.083-1.038.09-1.12.133-1.436.186-3.608 1.154-4.733.712-.828 2.123-.757 3.142-.828Z"/>
  <path fill="#fff" d="m175.923 215.024 5.271-.021.004 6.729-5.261.01-.014-6.718ZM333.277 213.976l6.58-.006.036 7.626-6.606.03-.01-7.65Z"/>
  <path fill="#008498" d="M196.27 199.473c.292-2.733.04-5.746.036-8.506-.016-9.813-1.02-20.218 3.18-29.381 1.399-3.052 3.585-6.16 5.585-8.86-1.197 4.454-2.25 8.833-2.73 13.429-.398 3.818-.15 7.838-.139 11.681l.045 21.701-5.977-.064ZM222.55 180.626c-.093-4.63-.455-9.485.034-14.09.788-7.405 4.48-14.526 9.59-19.862 5.544-5.788 12.77-9.207 20.701-10.186 9.673-1.194 18.827 1.72 26.502 7.587 7.63 5.83 12.474 15.038 13.758 24.483.489 3.594.243 7.507.261 11.138l.085 19.804-5.564-.02.132-15.393c.026-3.606.198-7.364-.225-10.947-.666-5.633-2.925-11.378-6.368-15.885-5.13-6.718-13.274-11.305-21.667-12.38-8.48-1.086-16.95 1.714-23.634 6.89-9.343 7.236-12.21 17.684-13.606 28.862Z"/>
  <path fill="#fff" d="m254.849 118.856 1.786-.057c13.673-.025 28.019 5.887 37.647 15.585 7.632 7.688 13.399 18.526 15.199 29.241.94 5.594.748 11.253.743 16.9l-.03 18.877-14.058.05-.021-17.967c-.017-4.108.188-8.354-.183-12.44-.684-7.525-3.77-14.888-8.392-20.83-6.755-8.685-16.274-13.357-27.014-14.684l-3.526-.19c-10.225-.02-19.745 4.17-26.914 11.401-5.59 5.639-9.583 13.941-10.345 21.873-.419 4.363-.128 8.921-.122 13.311l.029 19.59-14.486.023.032-20.855c.01-4.356-.191-8.841.131-13.184.756-10.192 5.02-20.321 11.71-28.023 9.731-11.205 23.057-17.62 37.814-18.621Z"/>
  <path fill="#64B8C3" d="M222.55 180.626c1.395-11.177 4.262-21.626 13.605-28.86 6.684-5.177 15.155-7.977 23.634-6.891 8.393 1.075 16.536 5.662 21.667 12.38 3.442 4.507 5.702 10.251 6.368 15.885.423 3.583.251 7.341.225 10.947l-.132 15.394-65.426.038.058-18.893Z"/>
  <path fill="#fff" d="m184.143 202.336 146.333-.101-.151 70.755c-1.291 19.08-11.578 36.772-25.751 49.214-13.62 12.132-31.048 19.577-47.855 26.156-2.815-.887-5.644-2.37-8.396-3.498-15.566-6.377-29.997-14.067-41.967-26.096-11.695-11.751-20.181-27.348-21.933-43.989-.992-9.414-.432-19.311-.435-28.798l.155-43.643Z"/>
  <path fill="#00093B" d="M254.79 230.838c2.086-.154 4.594.082 6.561.764 4.587 1.591 8.224 4.831 10.34 9.208 2.009 4.153 2.314 9.09.83 13.44-.684 2.002-1.726 3.991-3.095 5.613-.64.759-1.347 1.403-2.1 2.046-.117.1-.852.67-.88.74-.032.079.105 1.01.122 1.168l.595 4.291 3.801 22.917 1.13 6.85c.151.91.437 1.757.031 2.636-1.376.852-3.488.518-5.104.51l-8.709-.055-14.812-.014c-.928-.09-1.167-.368-1.72-1.077.022-1.266.393-2.453.593-3.698l1.215-7.427 4.466-25.459-.982-.726c-4.223-3.233-7.202-7.738-7.792-13.099-.476-4.322.788-8.873 3.503-12.288 3.115-3.92 7.124-5.732 12.007-6.34Z"/>
  <path fill="#fff" d="M257.476 233.595c4.334.716 7.809 2.66 10.408 6.268 2.267 3.149 3.215 6.995 2.594 10.838-.25 1.543-.746 2.906-1.357 4.33-.407-2.742-.053-5.642-.746-8.329l-.121-.452c-1.079-4.16-3.407-6.895-6.917-9.23-.968-.645-2.76-1.244-3.402-2.145-.2-.281-.335-.935-.459-1.28ZM262.175 264.679l1.313-.569c.294.402.28.277.356.685l3.81 23.457c.474 2.934 1.613 6.584 1.536 9.486-.568.27-1.1.252-1.714.269l-3.88-22.709c-.547-3.54-1.306-7.03-1.421-10.619Z"/>
  <path fill="#64B8C3" d="m267.476 298.007-22.588.045 5.748-33.499c4.1 1.226 7.404 1.523 11.539.126.115 3.59.874 7.08 1.421 10.619l3.88 22.709ZM269.121 255.031a12.446 12.446 0 0 1-2.626 3.757c-2.392 2.36-6.421 4.132-9.783 4.084-3.962-.055-7.98-2.082-10.662-4.945-2.584-2.758-4.219-6.896-4.03-10.688.2-4.007 1.772-7.476 4.796-10.154 3.15-2.788 6.521-3.758 10.66-3.49.124.345.259.999.459 1.28.642.901 2.434 1.5 3.402 2.144 3.51 2.336 5.838 5.071 6.917 9.231l.121.452c.693 2.687.339 5.587.746 8.33Z"/>
  <defs>
    <linearGradient id="b" x1="391.57" x2="650.749" y1="590.398" y2="429.777" gradientUnits="userSpaceOnUse">
      <stop offset="0" stop-color="#B2C9D4"/>
      <stop offset="1" stop-color="#EEEAE8"/>
    </linearGradient>
  </defs>
  <path fill="url(#b)" d="m377.499 419.453 23.535-.029-.034 82.477c-.012 15.452-1.163 31.67.975 46.974 1.47 10.519 4.6 20.468 8.974 30.125 19.732 43.561 59.343 66.332 102.343 82.534 11.462-4.032 22.44-8.979 33.282-14.442 15.542-7.832 30.372-16.849 42.766-29.252 18.992-19.005 31.765-47.065 33.997-73.775.526-6.287.26-12.805.27-19.116l-.018-31.771-.194-73.24 22.887-.06-.102 23.332-.154 54.929.42 36.369c.006 9.711.027 19.071-1.42 28.698-1.464 9.736-4.557 19.516-8.394 28.561-4.111 9.692-10.676 18.595-17.319 26.695-5.859 7.145-12.002 14.142-18.986 20.226-7.844 6.834-16.386 12.396-25.281 17.726-8.773 5.257-17.819 10.414-27.07 14.796l-33.617 14.146c-5.265-.681-11.28-3.91-16.215-5.951-26.808-11.085-54.708-25.122-75.396-45.863-18.282-18.328-31.097-39.079-39.046-63.626-2.785-8.599-5.187-17.643-6.068-26.666-.581-5.948-.33-12.117-.332-18.094l.041-29.013.156-76.69Z" transform="scale(.5)"/>
</svg>