<?xml version="1.0" encoding="utf-8" ?>
<svg xmlns="http://www.w3.org/2000/svg" xmlns:xlink="http://www.w3.org/1999/xlink" width="512" height="512">
	
	<path fill="#64B8C3" transform="scale(0.5 0.5)" d="M60.3246 583.843C65.14 583.732 71.4935 582.866 76.1301 583.829C76.5812 587.938 76.7905 592.639 78.006 596.587L77.996 596.838C73.2176 595.537 68.1653 597.343 63.9043 593.682C60.7848 591.003 60.6102 587.68 60.3246 583.843Z"/>
	<path fill="#00093B" transform="scale(0.5 0.5)" d="M327.072 846.25C328.677 845.844 330.35 845.954 332 845.946C332.825 847.239 332.51 848.717 332.508 850.23L332.49 862.66C335.421 862.658 346.983 861.823 348.742 863.25L348.582 867.75C348.305 867.991 348.095 868.347 347.75 868.473C347.099 868.71 345.158 868.477 344.417 868.479L332.512 868.501L332.482 883.02L326.584 883.267L326.557 868.647C323.871 868.651 312.54 869.373 310.993 868L310.958 862.588L326.819 862.575C326.782 857.242 326.313 851.526 327.072 846.25Z"/>
	<path fill="#00093B" transform="scale(0.5 0.5)" d="M229.408 920.622C231.647 920.621 233.854 920.957 235.899 921.929C239.445 923.614 241.783 926.998 242.874 930.67C243.8 933.789 242.971 937.004 241.381 939.757C239.092 943.723 235.982 945.335 231.771 946.498C229.399 946.462 227.193 946.254 225.037 945.175C221.835 943.572 218.785 940.485 217.784 936.977C216.805 933.545 217.8 929.559 219.652 926.601C221.957 922.919 225.368 921.498 229.408 920.622Z"/>
	<path fill="white" transform="scale(0.5 0.5)" d="M229.491 926.097C230.798 926.275 232.304 926.4 233.5 926.981C235.315 927.863 236.819 929.406 237.495 931.32C238.159 933.197 237.947 935.415 237.056 937.189C235.913 939.464 233.695 940.331 231.419 941.092C229.688 941.007 228.057 940.784 226.5 939.961C225.01 939.174 223.916 937.743 223.471 936.134C222.863 933.937 222.927 931.499 224.146 929.514C225.409 927.457 227.253 926.686 229.491 926.097Z"/>
	<path fill="#00093B" transform="scale(0.5 0.5)" d="M883.752 150.545C886.126 150.44 888.318 150.246 890.594 151.085C894.17 152.403 897.533 155.862 898.972 159.364C900.288 162.566 900.283 166.301 898.977 169.5C897.194 173.867 893.69 175.935 889.556 177.615C887.039 177.983 884.635 178.01 882.208 177.117C878.74 175.839 875.211 172.92 873.793 169.459C872.279 165.766 872.665 161.786 874.303 158.209C876.316 153.814 879.443 152.155 883.752 150.545Z"/>
	<path fill="white" transform="scale(0.5 0.5)" d="M885.053 156.012C886.259 155.959 887.638 155.822 888.809 156.163C891.161 156.848 892.872 158.46 893.902 160.677C894.715 162.424 894.91 165.489 894.097 167.25C892.875 169.898 890.635 171.09 888.026 172.089C886.879 172.106 885.751 172.131 884.623 171.885C882.507 171.424 880.77 170.252 879.647 168.393C878.529 166.543 878.134 163.868 878.822 161.8C879.851 158.706 882.275 157.302 885.053 156.012Z"/>
	<path fill="#00093B" transform="scale(0.5 0.5)" d="M671.896 869.601C674.13 869.488 676.156 869.695 678.284 870.436C681.567 871.581 684.679 874.612 686.037 877.809C687.748 881.838 687.761 885.775 685.934 889.75C683.788 894.419 680.133 896.607 675.498 898.166C672.947 898.382 670.391 898.178 668.007 897.195C664.308 895.67 661.544 892.151 660.178 888.481C658.801 884.779 659.205 880.213 661.059 876.75C663.295 872.575 667.584 870.771 671.896 869.601Z"/>
	<path fill="white" transform="scale(0.5 0.5)" d="M672.77 875.062C674.181 875.168 675.725 875.231 677.051 875.758C678.915 876.499 680.599 878.312 681.25 880.202C682.093 882.65 682.2 885.677 680.886 888C679.269 890.857 677.058 891.704 674.051 892.614C672.533 892.386 670.93 892.211 669.548 891.503C667.3 890.352 665.666 888.509 665.036 886.027C664.495 883.896 664.694 881.302 665.854 879.411C667.472 876.771 669.897 875.802 672.77 875.062Z"/>
	<path fill="#008498" transform="scale(0.5 0.5)" d="M695.714 124.507C691.543 123.587 686.49 120.802 682.47 119.186L657.881 109.836C636.805 102.146 615.171 96.7427 593.227 92.173L593.529 86.1994C630.319 92.8021 664.872 105.38 699.151 119.872C698.06 121.434 697.016 123.112 695.714 124.507Z"/>
	<path fill="#008498" transform="scale(0.5 0.5)" d="M252.245 874.25C252.747 874.2 253.258 873.992 253.75 874.101C254.927 874.36 258.584 877.972 259.769 878.869L274.801 889.428C301.711 907.893 329.822 921.084 360.302 932.498C359.823 934.31 359.387 936.051 358.583 937.75L357.25 937.701C317.133 924.028 282.111 902.575 248.373 877.371C249.587 876.152 250.825 875.219 252.245 874.25Z"/>
	<path fill="#00093B" transform="scale(0.5 0.5)" d="M140.025 337.75C141.645 337.54 143.506 337.112 144.873 338.292C147.116 340.228 148.529 344.248 150.505 346.614C153.16 349.793 159.824 352.466 160.493 356.5C159.303 360.833 153.657 362.91 150.696 366.064C148.084 368.845 147.155 372.593 144.234 375.25L142.75 375.865C141.22 375.787 140.542 375.54 139.25 374.813C137.75 372.346 136.34 369.41 134.473 367.222C131.593 363.848 124.536 360.387 123.964 356C126.474 351.608 131.742 349.666 134.794 345.781C136.567 343.524 137.699 339.144 140.025 337.75Z"/>
	<path fill="#F9949F" transform="scale(0.5 0.5)" d="M142.017 344.611C145.507 349.25 148.866 352.854 153.417 356.466C148.18 360.377 145.244 363.355 142.231 369.294C138.949 363.434 136.04 360.729 130.801 356.602C132.236 354.941 134.548 353.924 136.25 352.5C138.558 350.57 140.356 347.131 142.017 344.611Z"/>
	<path fill="#008498" transform="scale(0.5 0.5)" d="M76.1301 583.829C78.2582 584.074 80.3189 583.994 82.4238 583.637L83.9897 596.52L84.1943 597.333C90.6926 633.13 100.772 668.758 116.885 701.499C118.631 705.048 120.268 709.829 122.445 712.996L123.026 724.056C116.48 714.976 111.731 704.25 107.281 694.012C99.1405 675.281 92.2383 656.337 86.8969 636.615L77.996 596.838L78.006 596.587C76.7905 592.639 76.5812 587.938 76.1301 583.829Z"/>
	<path fill="#008498" transform="scale(0.5 0.5)" d="M82.6273 421.617C89.9737 384.183 102.714 347.794 120.399 313.981L131.349 294.599C133.926 290.34 136.739 286.255 138.969 281.799L144.676 284.603C121.125 318.581 105.407 356.572 94.2647 396.242C91.9179 404.596 89.3208 413.128 87.611 421.623L82.6273 421.617Z"/>
	<path fill="#008498" transform="scale(0.5 0.5)" d="M420.776 85.0881L422 85.0136C423.315 86.2069 422.998 89.1626 423.127 90.9606C413.149 92.2365 403.08 95.4347 393.5 98.4286C356.729 109.921 320.995 126.436 289.403 148.561L285.719 144.562C289.125 140.301 296.405 136.661 301.14 133.75C337.505 111.392 379.135 94.5077 420.776 85.0881Z"/>
	<path fill="#00093B" transform="scale(0.5 0.5)" d="M280.268 82.6092C284.221 82.5875 286.964 82.3255 290.71 84.1193C294.679 86.0196 297.972 89.4082 299.459 93.5792C301.071 98.0995 300.865 103.179 298.679 107.48C295.975 112.798 292.063 115.385 286.497 117.059C283.119 117.546 279.602 117.204 276.446 115.853C272.101 113.994 268.64 110.72 267.062 106.206C265.421 101.512 265.967 95.9432 268.246 91.5707C270.823 86.6283 275.18 84.2464 280.268 82.6092Z"/>
	<path fill="#05E7D4" transform="scale(0.5 0.5)" d="M279.921 88.1182C282.087 87.8225 284.235 87.6376 286.391 88.1421C289.586 88.8897 292.168 91.349 293.717 94.1705C295.203 96.8786 295.887 100.372 294.823 103.345C293.387 107.361 290.463 109.564 286.807 111.393C284.807 111.681 282.117 111.932 280.172 111.343C277.246 110.459 274.886 108.786 273.349 106.106C271.481 102.847 271.294 99.3753 272.46 95.8438C273.754 91.9211 276.328 89.8349 279.921 88.1182Z"/>
	<path fill="#00093B" transform="scale(0.5 0.5)" d="M944.887 455.619C948.48 455.392 951.909 455.67 955.188 457.276C958.99 459.138 962.255 463.271 963.498 467.25C964.927 471.826 964.333 476.788 962.096 481.021C959.188 486.527 954.79 488.716 949.094 490.415C944.358 490.589 940.976 490.437 936.846 487.746C932.904 485.177 930.781 480.798 929.896 476.306C928.985 471.68 930.501 466.69 933.14 462.854C936.242 458.343 939.687 456.63 944.887 455.619Z"/>
	<path fill="#05E7D4" transform="scale(0.5 0.5)" d="M944.533 460.569C946.576 460.485 948.975 460.205 950.941 460.843C953.943 461.817 956.684 464.128 958.024 467C959.516 470.199 959.447 473.994 958.155 477.253C956.468 481.509 953.336 483.503 949.376 485.315C947.55 485.471 945.836 485.594 944.038 485.142C940.781 484.323 938.18 482.597 936.522 479.628C934.763 476.48 934.587 472.432 935.731 469.047C937.239 464.584 940.486 462.411 944.533 460.569Z"/>
	<path fill="#008498" transform="scale(0.5 0.5)" d="M877.147 263.654L889.023 282C914.224 324.863 931.808 371.206 941.568 419.945L944.737 437.677C945.286 440.912 946.333 444.624 945.846 447.888C944.507 448.098 942.901 447.665 941.75 446.881C941.489 446.703 940.865 446.127 940.722 445.75C940.237 444.478 940.21 442.408 939.991 440.986L938.314 430.354L932.612 403.485C922.378 361.839 906.079 320.979 883.676 284.337C883.038 283.293 878.161 275.186 877.477 275.179L877.448 302.935C877.439 307.022 878.006 312.191 877.072 316.114L877.147 263.654Z"/>
	<path fill="#008498" transform="scale(0.5 0.5)" d="M943.971 584.96L951.157 584.113L949.932 594.4C949.782 595.104 949.686 595.027 949.208 595.674C948.081 597.197 947.842 599.662 947.45 601.5L944.668 614.008L937.244 642.24C927.22 675.571 913.353 707.076 895.998 737.199C888.575 750.084 880.634 763.046 871.041 774.438L868.351 768.986C876.564 759.016 883.099 747.837 889.63 736.75L902.625 714.202C921.2 678.351 934.601 639.481 942.314 599.862L943.971 584.96Z"/>
	<path fill="#00093B" transform="scale(0.5 0.5)" d="M603.011 892.25C603.849 892.004 604.632 891.999 605.5 891.947C608.186 893.742 609.483 900.866 611.261 903.95C615.744 911.723 622.113 913.826 630.25 916.038C631.433 917.359 631.56 917.507 631.823 919.25C629.95 921.531 627.44 921.549 624.75 922.505C621.601 923.624 618.386 925.293 616.046 927.719C613.035 930.84 610.434 935.304 609.014 939.381C608.025 942.221 607.599 945.281 605.75 947.713L604.25 948.179C603.781 948.007 603.255 947.947 602.844 947.664C600.946 946.354 600.346 940.327 599.449 937.987C598.449 935.382 597.124 932.689 595.324 930.547C592.023 926.618 587.939 924.406 583.219 922.642C581.1 921.85 578.923 921.315 577.166 919.842L577 917.75C578.706 915.202 582.742 914.912 585.558 913.78C588.339 912.662 590.972 911.198 593.168 909.14C595.84 906.636 598.145 903.684 599.538 900.267C600.618 897.615 600.912 894.291 603.011 892.25Z"/>
	<path fill="#F9949F" transform="scale(0.5 0.5)" d="M604.667 902.014C608.517 909.996 612.052 914.091 619.789 918.432C612.123 923.451 608.703 927.4 604.648 935.594C600.357 927.3 596.826 922.928 588.464 918.608C596.617 914.626 600.726 909.989 604.667 902.014Z"/>
	<path fill="#008498" transform="scale(0.5 0.5)" d="M776.044 873.209C777.95 873.763 779.693 874.342 781.485 875.202C763.514 889.748 742.67 901.883 722.195 912.539C686.049 931.351 647.961 946.395 608.144 955.419C581.239 961.517 553.748 964.61 526.277 966.56L526.269 960.506C552.483 960.039 579.137 955.859 604.641 950.04C643.716 941.125 682.86 927.381 718.271 908.462L756.813 885.942L776.044 873.209Z"/>
	<path fill="#64B8C3" transform="scale(0.5 0.5)" d="M82.4238 583.637L156.897 583.584C157.316 588.019 157.697 592.781 158.92 597.074C151.234 596.542 86.763 595.885 84.1943 597.333L83.9897 596.52L82.4238 583.637Z"/>
	<path fill="#00093B" transform="scale(0.5 0.5)" d="M122.09 614.126C125.851 614.17 129.611 614.772 132.875 616.752C137.245 619.401 140.232 623.881 141.183 628.876C142.038 633.368 141.023 638.583 138.432 642.376C135.179 647.139 130.602 649.307 125.127 650.393C120.589 650.554 116.256 649.892 112.454 647.158C108.511 644.324 106.74 640.316 105.953 635.671C105.152 630.942 106.355 625.334 109.301 621.507C112.627 617.187 116.727 614.931 122.09 614.126Z"/>
	<path fill="#64B8C3" transform="scale(0.5 0.5)" d="M121.855 620.023C124.048 619.93 126.275 619.833 128.31 620.789C131.512 622.294 134.045 625.072 135.168 628.435C136.175 631.453 135.808 635.09 134.314 637.875C132.353 641.53 129.239 643.257 125.449 644.511C122.589 644.582 120.329 644.592 117.737 643.253C115.035 641.857 113.193 639.393 112.297 636.514C111.213 633.026 111.305 629.253 113.11 626.011C115.043 622.539 118.277 621.195 121.855 620.023Z"/>
	<path fill="#64B8C3" transform="scale(0.5 0.5)" d="M867.682 585.018L943.971 584.96L942.314 599.862L941.829 599.065C939.79 598.377 937.096 598.772 934.96 598.812L920.901 599.006L864.966 599.121L867.682 585.018Z"/>
	<path fill="#00093B" transform="scale(0.5 0.5)" d="M408.322 178.587C404.273 170.208 402.033 161.567 403.284 152.177L403.416 151.25C404.13 145.825 405.84 140.394 408.717 135.703C414.549 126.193 422.808 120.604 433.543 117.979C433.02 110.449 433.165 103.273 434.887 95.8931C438.138 81.9565 447.876 69.7867 459.905 62.3567C472.234 54.7413 486.874 52.9302 500.846 56.2181C516.542 59.9119 526.972 70.5846 535.204 83.8112C538.2 82.7465 541.514 81.8698 544.655 81.4073C552.736 80.2177 561.016 82.3557 567.472 87.3875C575.656 93.7657 578.893 102.485 580.099 112.476C589.083 113.616 596.282 115.762 603.513 121.485C611.555 127.85 617.479 137.891 618.513 148.166C619.59 158.865 617.549 167.026 612.024 176.21C605.318 185.082 597.126 191.609 585.859 193.324C577.387 194.614 568.045 193.874 559.454 193.867L511.7 193.863L457.588 193.896C448.442 193.898 438.43 194.617 429.371 193.49C424.995 192.946 420.528 190.925 417.033 188.271C413.555 185.63 410.847 182.114 408.322 178.587Z"/>
	<path fill="#64B8C3" transform="scale(0.5 0.5)" d="M450.012 188.604C440.868 188.688 429.513 190.207 421.575 184.93C415.191 180.686 410.825 172.432 409.391 165.039C407.566 155.634 408.99 144.855 414.513 136.859C420.753 127.828 429.014 124.557 439.435 122.595C438.913 117.614 438.409 112.244 438.688 107.241C439.426 94.0189 445.839 80.925 455.709 72.1089C465.917 62.9913 478.413 59.566 491.908 60.5059C503.704 61.3274 515.339 67.8956 523.062 76.6148L519.456 76.1648C506.62 74.5058 492.927 78.0895 482.764 86.1787C473.459 93.5854 466.718 104.111 465.418 116.036C464.403 125.341 465.879 133.48 468.84 142.283C465.98 141.117 463.588 140.294 460.5 139.925L459.501 139.8C453.107 139.053 445.754 141.159 440.681 145.159C435.238 149.451 432.293 154.642 431.633 161.558C430.977 168.44 433.379 175.321 437.941 180.508C439.772 182.59 442.074 184.264 444.515 185.565C446.552 186.65 448.366 186.853 450.012 188.604Z"/>
	<path fill="white" transform="scale(0.5 0.5)" d="M450.012 188.604C448.366 186.853 446.552 186.65 444.515 185.565C442.074 184.264 439.772 182.59 437.941 180.508C433.379 175.321 430.977 168.44 431.633 161.558C432.293 154.642 435.238 149.451 440.681 145.159C445.754 141.159 453.107 139.053 459.501 139.8L460.5 139.925C463.588 140.294 465.98 141.117 468.84 142.283C465.879 133.48 464.403 125.341 465.418 116.036C466.718 104.111 473.459 93.5854 482.764 86.1787C492.927 78.0895 506.62 74.5058 519.456 76.1648L523.062 76.6148C527.329 81.5494 530.234 86.3637 532.988 92.2556C539.625 87.857 545.508 85.5633 553.527 87.2156C559.98 88.5452 566.09 92.6151 569.626 98.181C571.775 101.563 572.994 105.044 573.59 109L573.723 109.844C574.152 112.766 573.968 115.7 573.846 118.64C584.513 118.453 593.746 119.776 601.811 127.487C608.661 134.036 613.002 142.614 613.144 152.202C613.291 162.182 610.159 170.742 603.184 177.923C598.686 182.554 592.213 186.337 585.868 187.665C581.401 188.6 576.464 188.366 571.918 188.394L450.012 188.604Z"/>
	<path fill="#00093B" transform="scale(0.5 0.5)" d="M179.693 664.859C190.137 661.442 200.927 656.152 209.686 649.529C212.082 647.717 214.423 645.745 216.542 643.613C218.559 641.583 221.483 636.671 224.059 635.763C226.174 635.017 228.177 638.472 229.338 639.895C237.913 650.402 250.699 658.342 263.004 663.732C275.99 669.203 289.234 672.498 303.373 672.671C305.713 672.7 316.499 671.491 317.574 672.396C317.934 672.698 318.158 673.132 318.45 673.5C319.266 681.993 318.668 690.963 318.617 699.528C318.462 725.354 316.546 751.494 308.617 776.237C304.784 788.2 299.463 799.6 293.806 810.789C277.521 838.282 252.681 864.675 222.363 876.351C212.288 871.97 202.331 865.078 193.797 858.237C183.671 850.121 174.133 841.397 165.724 831.483C147.22 809.666 133.968 782.491 127.59 754.67C125.275 744.57 124.146 734.339 123.026 724.056L122.445 712.996L122.507 687.403C122.526 681.591 122.137 675.903 123.834 670.268C127.88 670.915 131.921 671.839 136.016 672.062C150.818 672.866 165.768 669.667 179.693 664.859Z"/>
	<path fill="#008498" transform="scale(0.5 0.5)" d="M222.571 869.93C218.585 868.23 214.863 865.791 211.183 863.51C200.308 856.771 189.625 848.155 180.549 839.132C149.604 808.367 132.102 767.725 128.786 724.507C127.579 708.781 128.179 692.637 128.175 676.868C132.564 677.305 137.076 677.898 141.489 677.851C162.63 677.628 183.295 670.936 202.015 661.541L205.879 674.783C192.158 682.637 175.352 687.121 159.663 688.371C156.086 688.656 152.339 688.644 148.75 688.508C147.155 688.447 145.047 687.943 143.5 688.142C142.216 688.308 141.736 688.787 141.497 690C141.176 691.629 141.449 693.886 141.449 695.569L141.491 706.979C141.768 751.017 158.925 795.909 188.23 828.676C197.721 839.289 209.713 850.451 222.922 856.052C221.609 859.775 222.514 865.91 222.571 869.93Z"/>
	<path fill="#64B8C3" transform="scale(0.5 0.5)" d="M202.015 661.541C210.794 656.674 217.925 650.513 224.608 643.083C228.306 647.178 232.057 651.437 236.361 654.904C248.579 664.745 264.144 671.292 279.235 675.217C284.742 676.649 290.809 678.13 296.5 678.412L313.246 678.312C313.154 693.661 313.529 709.231 312.423 724.537C311.388 738.868 309.381 753.737 305.554 767.62C297.618 796.412 281.933 823.608 260.702 844.626C251.547 853.689 240.742 861.288 229.401 867.359C227.738 868.249 224.962 870.121 223.034 870.011L222.571 869.93C222.514 865.91 221.609 859.775 222.922 856.052C223.579 855.932 224.048 855.799 224.666 855.55C228.288 854.088 231.977 851.376 235.21 849.148C255.603 835.096 272.424 814.157 282.25 791.492C294.334 763.62 298.694 734.43 298.917 704.269C298.948 699.956 299.884 693.049 298.391 689.25C297.051 688.761 295.576 689.059 294.187 689.222C293.152 689.343 292.196 689.457 291.145 689.418C271.08 688.665 249.315 681.632 233.587 668.902C230.095 666.075 227.032 662.519 223.954 659.247C221.856 661.347 220.187 663.805 218.049 665.889C214.401 669.447 210.214 672.148 205.879 674.783L202.015 661.541Z"/>
	<path fill="#00093B" transform="scale(0.5 0.5)" d="M205.879 674.783C210.214 672.148 214.401 669.447 218.049 665.889C220.187 663.805 221.856 661.347 223.954 659.247C227.032 662.519 230.095 666.075 233.587 668.902C249.315 681.632 271.08 688.665 291.145 689.418C292.196 689.457 293.152 689.343 294.187 689.222C295.576 689.059 297.051 688.761 298.391 689.25C299.884 693.049 298.948 699.956 298.917 704.269C298.694 734.43 294.334 763.62 282.25 791.492C272.424 814.157 255.603 835.096 235.21 849.148C231.977 851.376 228.288 854.088 224.666 855.55C224.048 855.799 223.579 855.932 222.922 856.052C209.713 850.451 197.721 839.289 188.23 828.676C158.925 795.909 141.768 751.017 141.491 706.979L141.449 695.569C141.449 693.886 141.176 691.629 141.497 690C141.736 688.787 142.216 688.308 143.5 688.142C145.047 687.943 147.155 688.447 148.75 688.508C152.339 688.644 156.086 688.656 159.663 688.371C175.352 687.121 192.158 682.637 205.879 674.783Z"/>
	<path fill="#CCCDD2" transform="scale(0.5 0.5)" d="M199.178 831.859C173.181 806.569 155.331 770.492 149.694 734.75C147.578 721.338 147.254 707.827 146.998 694.282C162.226 694.737 176.505 692.176 190.864 687.248C190.913 692.173 192.029 700.557 190.073 705.05C189.35 706.713 187.707 708.452 186.456 709.75C184.6 711.676 182.567 714.036 179.781 714.136L178.718 714.077C176.656 715.296 174.953 716.359 172.503 715.713L171.538 715.434C170.171 716.529 170.355 716.907 170.177 718.67C169.461 725.744 170.475 731.928 172.862 738.596C173.501 740.379 173.999 742.35 174.978 743.971C171.898 758.222 173.361 771.191 181.337 783.619C187.602 793.381 198.907 801.221 210.255 803.839C209.026 808.586 207.219 813.428 205.074 817.839C202.923 822.264 200.104 826.995 199.178 831.859Z"/>
	<path fill="#00093B" transform="scale(0.5 0.5)" d="M171.538 715.434C170.069 713.923 169.116 712.436 169.21 710.25C169.272 708.798 170.041 707.288 171.25 706.463C172.226 705.796 173.541 705.683 174.683 705.879C176.01 706.106 177.217 706.901 177.973 708.01C179.382 710.076 179.244 711.728 178.718 714.077C176.656 715.296 174.953 716.359 172.503 715.713L171.538 715.434Z"/>
	<path fill="white" transform="scale(0.5 0.5)" d="M190.864 687.248C203.439 682.445 213.855 676.819 224.355 668.237C240.957 684.758 268.838 695.053 292.202 695.045L293.494 695.036L293.307 718.357C290.963 759.669 278.389 800.952 248.587 830.77C242.857 836.502 236.467 841.965 229.626 846.325C227.507 847.675 225.121 849.321 222.686 849.969C213.703 845.155 206.529 838.835 199.178 831.859C200.104 826.995 202.923 822.264 205.074 817.839C207.219 813.428 209.026 808.586 210.255 803.839C220.774 806.573 232.067 805.807 241.915 801.191C254.148 795.456 263.766 785.391 268.29 772.538C272.5 760.574 271.093 745.944 265.674 734.611C260.166 723.093 250.123 714.833 238.134 710.667C226.207 706.522 211.902 707.451 200.594 713.058C187.625 719.487 179.591 730.569 174.978 743.971C173.999 742.35 173.501 740.379 172.862 738.596C170.475 731.928 169.461 725.744 170.177 718.67C170.355 716.907 170.171 716.529 171.538 715.434L172.503 715.713C174.953 716.359 176.656 715.296 178.718 714.077L179.781 714.136C182.567 714.036 184.6 711.676 186.456 709.75C187.707 708.452 189.35 706.713 190.073 705.05C192.029 700.557 190.913 692.173 190.864 687.248Z"/>
	<path fill="#00093B" transform="scale(0.5 0.5)" d="M222.714 691.75C223.32 691.548 223.55 691.44 224.25 691.384C225.726 691.266 227.456 691.647 228.494 692.75C229.56 693.883 229.607 695.781 229.396 697.25C229.125 699.127 228.195 700.239 226.75 701.366C225.868 701.635 224.894 701.963 223.962 701.857C222.815 701.726 221.575 701.035 220.885 700.09C219.863 698.69 219.715 697.19 219.999 695.5C220.297 693.725 221.358 692.805 222.714 691.75Z"/>
	<path fill="#00093B" transform="scale(0.5 0.5)" d="M223.569 819.75C224.475 819.571 225.056 819.546 225.983 819.723C227.283 819.971 228.658 820.798 229.312 821.971C230.168 823.506 230.212 825.655 229.522 827.25C228.845 828.816 227.672 829.163 226.25 829.805C225.586 829.895 224.923 830.007 224.25 829.935C222.351 829.734 221.309 828.665 220.178 827.25C219.598 825.367 219.517 824.419 220.006 822.5C221.119 820.939 221.78 820.424 223.569 819.75Z"/>
	<path fill="#00093B" transform="scale(0.5 0.5)" d="M268.861 705.75C269.715 705.538 270.878 705.343 271.75 705.444C273.242 705.618 274.502 706.501 275.43 707.644C276.39 708.827 276.842 710.364 276.464 711.881C275.97 713.865 274.41 715.049 272.75 716.03C271.68 716.395 270.862 716.379 269.75 716.399C268.648 715.887 267.732 715.511 267.025 714.482C265.899 712.843 265.451 710.686 265.981 708.75C266.437 707.083 267.523 706.64 268.861 705.75Z"/>
	<path fill="#00093B" transform="scale(0.5 0.5)" d="M174.978 743.971C179.591 730.569 187.625 719.487 200.594 713.058C211.902 707.451 226.207 706.522 238.134 710.667C250.123 714.833 260.166 723.093 265.674 734.611C271.093 745.944 272.5 760.574 268.29 772.538C263.766 785.391 254.148 795.456 241.915 801.191C232.067 805.807 220.774 806.573 210.255 803.839C198.907 801.221 187.602 793.381 181.337 783.619C173.361 771.191 171.898 758.222 174.978 743.971Z"/>
	<path fill="white" transform="scale(0.5 0.5)" d="M217.95 712.858C229.907 711.898 241.299 715.452 250.518 723.25C257.705 729.33 262.091 736.985 264.56 746L264.801 746.853C267.721 757.806 265.343 769.863 259.604 779.436C253.921 788.915 243.535 796.816 232.75 799.484C231.361 799.828 230.007 800.045 228.582 800.154L228.152 799.748L229.755 799.25C230.727 798.847 231.345 799.044 232.251 798.703C232.851 798.478 233.364 798.355 234 798.25C234.296 798.201 234.968 798.136 235.25 798C236.089 797.594 235.99 797.258 237.065 797.078L237.75 797L237.755 796.25C237.977 794.863 238.211 794.223 238.148 792.752C235.696 793.175 232.651 795.455 230.233 794.955L229.36 794.735C236.178 792.58 242.442 789.996 247.781 785.064C255.149 778.259 259.679 768.651 259.97 758.601C260.281 747.869 256.836 737.45 249.323 729.649C241.394 721.416 231.644 718.331 220.409 718.2L218.885 717.61L217.95 712.858Z"/>
	<defs>
		<linearGradient id="gradient_0" gradientUnits="userSpaceOnUse" x1="179.65193" y1="748.33136" x2="245.11107" y2="763.20581">
			<stop offset="0" stop-color="#C9C8D0"/>
			<stop offset="1" stop-color="#EEEDEF"/>
		</linearGradient>
	</defs>
	<path fill="url(#gradient_0)" transform="scale(0.5 0.5)" d="M228.582 800.154L228.271 800.367C216.977 801.504 205.848 799.166 196.471 792.598C187.262 786.147 180.607 775.2 178.759 764.135C176.903 753.011 179.618 740.89 186.208 731.71C194.065 720.764 204.897 715.083 217.95 712.858L218.885 717.61L220.409 718.2C208.485 719.37 198.884 724.259 191.237 733.651C184.941 741.381 182.64 751.419 183.657 761.211C184.724 771.471 190.684 781.415 198.73 787.755C206.135 793.591 216.123 796.482 225.478 795.367L229.306 794.712L229.36 794.735L230.233 794.955C232.651 795.455 235.696 793.175 238.148 792.752C238.211 794.223 237.977 794.863 237.755 796.25L237.75 797L237.065 797.078C235.99 797.258 236.089 797.594 235.25 798C234.968 798.136 234.296 798.201 234 798.25C233.364 798.355 232.851 798.478 232.251 798.703C231.345 799.044 230.727 798.847 229.755 799.25L228.152 799.748L228.582 800.154Z"/>
	<path fill="#00093B" transform="scale(0.5 0.5)" d="M220.409 718.2C231.644 718.331 241.394 721.416 249.323 729.649C256.836 737.45 260.281 747.869 259.97 758.601C259.679 768.651 255.149 778.259 247.781 785.064C242.442 789.996 236.178 792.58 229.36 794.735L229.306 794.712L225.478 795.367C216.123 796.482 206.135 793.591 198.73 787.755C190.684 781.415 184.724 771.471 183.657 761.211C182.64 751.419 184.941 741.381 191.237 733.651C198.884 724.259 208.485 719.37 220.409 718.2Z"/>
	<path fill="#008498" transform="scale(0.5 0.5)" d="M218.526 782.86C222.426 785.135 224.806 786.356 229.438 786.518C231.454 786.589 233.627 786.39 235.589 786.876C229.427 791.093 220.088 790.776 213.057 789.752L218.526 782.86Z"/>
	<path fill="white" transform="scale(0.5 0.5)" d="M216.126 766.461L227.922 751C229.615 748.753 231.842 744.801 234.25 743.507C235.872 743.79 237.322 744.219 238.26 745.69C238.687 746.36 238.722 747.228 238.583 748C238.109 750.645 234.567 754.383 232.929 756.516C228.164 762.724 223.422 769.095 218.212 774.941L207.658 787.585L201.885 783.798L216.126 766.461Z"/>
	<path fill="#008498" transform="scale(0.5 0.5)" d="M213.603 761.421L198.276 780.28C194.744 776.441 191.586 771.811 190.122 766.75C187.616 758.091 188.877 747.465 193.327 739.633C197.467 732.346 204.194 727.293 212.21 725.017C209.735 734.163 210.332 746.262 212.115 755.53C212.474 757.395 212.664 759.78 213.603 761.421Z"/>
	<path fill="#64B8C3" transform="scale(0.5 0.5)" d="M212.21 725.017C221.67 722.597 230.084 722.698 238.715 727.747C246.16 732.103 251.651 739.381 253.703 747.78C255.855 756.585 254.933 766.121 250.133 773.934C246.922 779.163 241.605 784.99 235.589 786.876C233.627 786.39 231.454 786.589 229.438 786.518C224.806 786.356 222.426 785.135 218.526 782.86L236.427 760.045C238.685 757.017 242.838 752.471 243.491 748.729C243.903 746.367 243.136 744.224 241.628 742.398C239.629 739.976 237.292 738.984 234.25 738.606C229.772 739.718 226.916 744.917 224.139 748.32L213.603 761.421C212.664 759.78 212.474 757.395 212.115 755.53C210.332 746.262 209.735 734.163 212.21 725.017Z"/>
	<path fill="#00093B" transform="scale(0.5 0.5)" d="M699.151 119.872C716.129 101.525 737.554 88.7792 763.006 87.5622C786.804 86.4243 809.095 94.5521 826.634 110.739C842.603 125.477 851.843 145.022 854.683 166.412C855.313 171.154 855.071 176.087 855.06 180.866L854.991 202.919C862.656 204.066 868.486 206.791 873.073 213.26C877.686 219.763 876.97 227.199 876.987 234.725C877.008 244.118 876.171 254.36 877.147 263.654L877.072 316.114C875.895 323.1 872.306 329.436 866.507 333.585C860.483 337.896 853.617 337.466 846.609 337.48L830.987 337.485L687.372 337.293C683.991 337.187 680.127 337.325 676.852 336.503C670.768 334.977 665.299 331.092 662.172 325.58C660.521 322.669 659.558 319.642 659.258 316.324C658.842 311.702 659.071 306.919 659.064 302.276L659.081 277.456L659.125 240.013C659.142 233.505 658.149 224.807 659.989 218.578C662.201 211.088 668.476 205.476 676 203.654C677.996 203.171 680.083 203.266 681.917 202.25L681.989 199.525L681.914 177.515C681.904 172.614 681.65 167.519 682.301 162.658C684.189 148.54 688.295 136.713 695.714 124.507C697.016 123.112 698.06 121.434 699.151 119.872Z"/>
	<path fill="#B4D4DC" transform="scale(0.5 0.5)" d="M755.552 116.173C748.269 118.413 741.786 120.501 735.25 124.648C721.385 133.443 713.042 146.772 709.399 162.5C708.064 168.264 708.359 174.163 708.352 180.046L708.362 202.993L688.089 202.963L688.264 164.32C689.946 143.941 699.138 125.959 714.746 112.746C730.073 99.7723 751.139 91.6842 771.357 93.2952C767.991 95.154 765.519 99.3905 763.386 102.479C760.836 106.171 757.017 110.976 755.709 115.313L755.552 116.173Z"/>
	<path fill="white" transform="scale(0.5 0.5)" d="M771.357 93.2952C794.048 94.9282 814.242 104.192 829.223 121.655C838.847 132.874 845.91 147.542 848.206 162.214C850.285 175.496 849.387 189.574 849.37 202.985L826.579 202.932L826.542 180.661C826.527 175.77 826.695 170.859 826.088 166C824.223 151.07 816.69 137.849 804.908 128.453C791.327 117.624 775.957 113.721 758.759 115.683L755.552 116.173L755.709 115.313C757.017 110.976 760.836 106.171 763.386 102.479C765.519 99.3905 767.991 95.154 771.357 93.2952Z"/>
	<path fill="#64B8C3" transform="scale(0.5 0.5)" d="M763.823 120.696L767.79 120.549C781.375 120.499 795.582 126.748 805.15 136.288C812.154 143.271 817.636 152.462 819.814 162.162C821.128 168.015 820.939 174.006 820.963 179.964L820.985 203.074L772.25 203.072L713.974 203.032L713.968 180.223C713.979 174.945 713.728 169.591 714.725 164.384C716.404 155.617 720.513 147.448 726.066 140.518C735.439 128.82 749.176 122.394 763.823 120.696Z"/>
	<path fill="#F9949F" transform="scale(0.5 0.5)" d="M695.056 208.911L803.348 208.861L837.698 208.705C843.567 208.687 849.947 208.224 855.752 208.907C859.823 209.386 863.339 211.044 866.25 213.943C868.6 216.282 869.892 218.797 870.599 222L870.745 222.626C871.641 226.804 871.176 231.909 871.185 236.208L871.226 261.693L871.275 298.648C871.246 304.41 871.654 310.674 870.946 316.382C870.617 319.043 869.643 321.595 868.155 323.823C865.784 327.374 861.81 330.7 857.529 331.44C852.055 332.386 845.96 331.88 840.387 331.886L808.959 331.866L694.699 331.605C686.261 331.605 676.954 332.909 670.172 326.826C666.458 323.495 664.995 319.514 664.886 314.63L664.725 248.802L664.788 231.004C664.803 227.684 664.529 224.004 665.228 220.757C665.837 217.924 667.59 215.148 669.628 213.128C675.755 207.059 686.987 208.903 695.056 208.911Z"/>
	<path fill="#00093B" transform="scale(0.5 0.5)" d="M695.077 288.986L727.891 288.971C732.208 288.975 739.291 288.058 743.25 289.596C744.096 290.596 744.2 291.104 744.302 292.4C743.688 293.523 743.58 294.19 742.25 294.539L721.766 294.627L678.75 294.444C677.425 293.169 677.273 293.171 677.01 291.25C677.49 290.369 677.737 289.909 678.615 289.356C679.667 288.693 681.463 289.004 682.712 289.003L695.077 288.986Z"/>
	<path fill="#00093B" transform="scale(0.5 0.5)" d="M695.009 241.094L762.963 241.094L780.068 241.095C782.294 241.094 785.094 240.724 787.25 241.149C787.885 241.274 788.228 241.536 788.75 241.896C789.614 243.178 789.467 243.334 789.341 244.902C788.456 246.134 788.402 246.528 786.833 246.792C784.172 247.24 780.954 246.914 778.239 246.917L760.55 246.907L694.942 246.894L680.25 247.038C678.696 246.918 678.27 246.376 677.224 245.279C677.024 243.569 676.897 243.404 677.75 241.939C681.213 240.011 690.706 241.097 695.009 241.094Z"/>
	<path fill="#00093B" transform="scale(0.5 0.5)" d="M694.869 265.038L756.313 265.05C766.092 265.033 776.535 264.258 786.25 265.045C787.884 265.177 788.368 265.614 789.505 266.75C789.682 268.33 789.697 268.584 789.039 270.019C788.441 270.41 787.978 270.758 787.25 270.864C784.589 271.25 781.291 270.895 778.578 270.878L760.5 270.772L695.066 270.95L679.842 270.985C678.177 270.826 678.193 270.639 677.173 269.393C677.075 267.685 676.84 267.283 677.842 265.838C681.14 263.939 690.763 264.998 694.869 265.038Z"/>
	<path fill="#EB5C7A" transform="scale(0.5 0.5)" d="M694.699 331.605C686.261 331.605 676.954 332.909 670.172 326.826C666.458 323.495 664.995 319.514 664.886 314.63L664.725 248.802L664.788 231.004C664.803 227.684 664.529 224.004 665.228 220.757C665.837 217.924 667.59 215.148 669.628 213.128C675.755 207.059 686.987 208.903 695.056 208.911L695.009 241.094C690.706 241.097 681.213 240.011 677.75 241.939C676.897 243.404 677.024 243.569 677.224 245.279C678.27 246.376 678.696 246.918 680.25 247.038L694.942 246.894L694.869 265.038C690.763 264.998 681.14 263.939 677.842 265.838C676.84 267.283 677.075 267.685 677.173 269.393C678.193 270.639 678.177 270.826 679.842 270.985L695.066 270.95L695.077 288.986L682.712 289.003C681.463 289.004 679.667 288.693 678.615 289.356C677.737 289.909 677.49 290.369 677.01 291.25C677.273 293.171 677.425 293.169 678.75 294.444L721.766 294.627L721.32 294.696C712.941 295.871 703.442 294.997 694.937 294.995L694.699 331.605Z"/>
	<path fill="#00093B" transform="scale(0.5 0.5)" d="M199.384 331.654C188.049 323.698 178.234 312.553 171.377 300.528C159.08 278.964 155.665 252.627 162.493 228.711C169.672 203.566 186.229 183.52 209.086 170.977C231.374 158.747 257.179 156.822 281.414 164C304.961 170.975 324.627 187.985 336.177 209.417C348.125 233.955 350.966 260.264 341.997 286.342C333.863 309.993 315.186 330.048 292.728 340.86C285.379 344.399 277.676 346.517 269.817 348.565L269.79 554.207L321.299 554.231L333.338 554.289C334.432 554.304 336.799 554.224 337.75 554.675C338.175 554.876 338.88 555.78 339.25 556.141C340.756 564.041 339.198 573.13 339.845 581.25C339.132 582.775 338.499 583.331 337.004 584.065L156.897 583.584L82.4238 583.637C80.3189 583.994 78.2582 584.074 76.1301 583.829C71.4935 582.866 65.14 583.732 60.3246 583.843C58.8279 583.308 57.3688 582.693 56.0103 581.857C53.3458 580.217 51.5546 577.755 50.8825 574.703C50.2619 571.885 49.8975 564.815 51.1118 562.25C51.768 560.864 53.4231 559.141 53.6595 557.698C53.949 555.93 53.6918 553.715 53.6956 551.886L53.7158 540.132L53.5784 461.184L53.5368 436.959C53.5314 433.016 53.2426 428.82 53.596 424.899C53.6979 423.769 53.9498 423.188 54.5519 422.25C56.7199 420.997 60.0628 421.546 62.5672 421.541L82.6273 421.617L87.611 421.623L165.751 421.539C166.807 415.339 169.568 408.482 171.486 402.448C175.928 388.473 180.531 374.486 186.225 360.962L199.384 331.654Z"/>
	<path fill="white" transform="scale(0.5 0.5)" d="M247.284 349.368L264.077 349.508L264.022 554.307L247.534 554.216L247.284 349.368Z"/>
	<path fill="white" transform="scale(0.5 0.5)" d="M251.402 165.474C257.943 165.553 264.335 165.741 270.782 167.003C287.878 170.352 304.623 179.613 316.771 192.036C333.36 209.002 341.905 232.733 341.519 256.25C341.138 279.423 331.313 302.168 314.75 318.309C299.136 333.524 277.867 344.35 255.684 343.904C250.341 343.796 245.121 343.283 239.866 342.325C242.254 340.148 256.973 339.427 261.038 338.654C268.439 337.248 277.331 335.438 283.716 331.362C289.705 327.54 295.32 321.176 296.918 314.154C297.399 313.181 300.372 311.148 301.295 310.302C316.632 296.248 325.589 278.111 326.466 257.25C327.287 237.72 320.935 218.734 307.467 204.362C296.831 193.011 282.715 184.567 267.371 181.51C262.047 180.449 256.727 180.271 251.316 180.12L251.402 165.474Z"/>
	<path fill="#CCCDD2" transform="scale(0.5 0.5)" d="M239.866 342.325L239.693 342.353C234.392 341.799 228.949 339.999 224 338.091C211.954 333.447 201.49 327.136 192.091 318.221C174.526 301.56 165.261 278.241 164.664 254.257C164.117 232.25 173.474 209.366 188.661 193.554C205.26 176.273 227.366 166.011 251.402 165.474L251.316 180.12C230.006 181.524 211.736 189.274 197.511 205.68C184.412 220.787 178.006 239.682 179.632 259.657C181.225 279.246 191.453 298.28 206.562 310.75C222.438 323.852 241.988 329.593 262.436 327.475C274.824 326.191 286.65 321.023 296.918 314.154C295.32 321.176 289.705 327.54 283.716 331.362C277.331 335.438 268.439 337.248 261.038 338.654C256.973 339.427 242.254 340.148 239.866 342.325Z"/>
	<path fill="white" transform="scale(0.5 0.5)" d="M60.1832 560.25C63.4796 559.75 66.9199 559.978 70.2529 559.976L86.3509 559.974L142.428 559.998L333.911 559.971L333.939 573.395C333.939 574.914 334.288 576.999 333.384 578.25L331.125 578.359L153.055 578.109L92.4369 578.185C82.2688 578.197 71.6269 578.871 61.5 578.039C59.774 577.897 58.8632 577.35 57.5854 576.25C56.1655 573.622 56.0263 570.197 56.2534 567.252C56.5193 563.806 57.5786 562.431 60.1832 560.25Z"/>
	<path fill="#F9949F" transform="scale(0.5 0.5)" d="M59.6945 517.094L199.429 517.057L199.41 554.484L59.718 554.496L59.6945 517.094Z"/>
	<path fill="#00093B" transform="scale(0.5 0.5)" d="M177.63 530.75L179.75 530.481C181.164 530.576 182.29 531.283 183.137 532.387C184.349 533.968 184.518 535.321 184.365 537.25C183.54 539.033 182.84 539.762 181.25 540.9C180.706 541.074 179.851 541.413 179.25 541.416C177.859 541.422 176.458 540.501 175.58 539.456C174.461 538.125 174.287 536.43 174.585 534.75C174.895 532.997 176.293 531.769 177.63 530.75Z"/>
	<path fill="#00093B" transform="scale(0.5 0.5)" d="M76.6056 527.509C77.9177 527.488 79.2201 527.63 80.4965 527.942C82.5684 528.448 84.2938 529.887 85.3527 531.719C86.5749 533.832 86.7023 536.46 85.9174 538.75C84.9115 541.685 82.586 542.881 79.9138 544.031C78.8067 544.054 77.7228 544.076 76.6304 543.861C74.3492 543.413 72.1123 541.968 70.958 539.912C69.8249 537.894 69.761 534.98 70.5567 532.845C71.7269 529.706 73.7049 528.787 76.6056 527.509Z"/>
	<path fill="#194064" transform="scale(0.5 0.5)" d="M77.3869 532.25C77.7932 532.164 78.0856 532.081 78.5193 532.099C79.482 532.14 80.1218 532.506 80.7918 533.146C81.7562 534.069 81.454 535.212 81.5029 536.5C80.8484 538.08 80.1592 538.715 78.8156 539.75L77.9594 539.848C77.2442 539.784 76.3585 539.31 75.8627 538.801C74.8601 537.772 74.7151 536.671 74.9301 535.25C75.1596 533.734 76.2867 533.108 77.3869 532.25Z"/>
	<path fill="#64B8C3" transform="scale(0.5 0.5)" d="M59.6873 472.964L199.471 473.052L199.365 511.35L59.9606 511.436C59.0235 509.18 59.6697 503.825 59.67 501.2L59.6873 472.964Z"/>
	<path fill="#00093B" transform="scale(0.5 0.5)" d="M178.659 486.25C179.691 485.951 180.396 485.766 181.491 485.84C183.471 485.974 185.29 487.537 186.36 489.103C187.425 490.663 187.465 492.233 186.983 494.009C186.364 496.29 184.703 497.827 182.75 499.008C181.742 499.327 180.797 499.365 179.75 499.449C177.821 498.763 176.128 497.807 175.007 496.021C174.072 494.532 173.671 492.427 174.166 490.717C174.826 488.434 176.682 487.286 178.659 486.25Z"/>
	<path fill="#00093B" transform="scale(0.5 0.5)" d="M76.069 484.524C77.7965 484.461 79.3365 484.38 81 484.915C83.1457 485.606 84.9888 487.281 85.9235 489.335C86.8223 491.309 86.6983 493.763 85.8811 495.738C84.803 498.343 82.4747 499.842 80.014 500.959C78.6204 501.018 77.1236 501.062 75.7565 500.75C73.7728 500.298 71.8231 498.504 70.8365 496.783C69.5905 494.611 69.3105 492.548 70.119 490.185C71.1373 487.209 73.4108 485.899 76.069 484.524Z"/>
	<path fill="#1E433D" transform="scale(0.5 0.5)" d="M76.4423 489.25C77.7971 488.939 78.434 489.047 79.75 489.474C80.9858 490.775 81.363 491.615 81.0454 493.5C80.8111 494.891 79.7642 495.393 78.75 496.211C77.9836 496.304 77.2633 496.164 76.5 496.075C75.2065 494.922 74.5344 494.343 74.5783 492.5C74.6154 490.945 75.3927 490.245 76.4423 489.25Z"/>
	<path fill="white" transform="scale(0.5 0.5)" d="M59.5402 427.178L199.485 427.453L199.513 467.461L59.5529 467.277L59.5402 427.178Z"/>
	<path fill="#00093B" transform="scale(0.5 0.5)" d="M178.483 442.75C178.935 442.658 179.548 442.506 180.004 442.543C181.442 442.659 182.735 443.585 183.559 444.75C184.34 445.854 184.441 447.308 184.145 448.594C183.618 450.887 182.542 451.996 180.606 453.25C179.796 453.419 179.071 453.609 178.247 453.36C176.919 452.959 175.56 451.606 174.916 450.384C174.24 449.104 174.313 447.285 174.855 445.967C175.585 444.192 176.803 443.505 178.483 442.75Z"/>
	<path fill="#00093B" transform="scale(0.5 0.5)" d="M77.2055 440.017L80.75 440.548C82.845 441.121 85.0163 443.395 85.9131 445.318C86.8066 447.233 86.7602 450.301 85.9445 452.25C84.758 455.085 82.6506 456.24 79.9777 457.447C78.1725 457.5 76.4075 457.642 74.7432 456.823C72.8903 455.911 71.3494 454.485 70.7368 452.462C69.9331 449.807 70.1577 446.229 71.6058 443.811C72.9474 441.57 74.7856 440.702 77.2055 440.017Z"/>
	<path fill="#194064" transform="scale(0.5 0.5)" d="M77.105 445.25C78.2283 445.091 79.2739 444.98 80.245 445.75C81.4016 446.667 81.6901 447.613 81.9514 449C81.4295 450.916 81.245 450.927 79.75 452.081C78.6976 452.528 78.0812 452.3 77 452.041C75.8412 451.053 74.9794 450.67 74.8498 449C74.7069 447.157 75.922 446.359 77.105 445.25Z"/>
	<path fill="#64B8C3" transform="scale(0.5 0.5)" d="M199.384 331.654C208.608 338.024 218.306 342.751 229.078 345.898C231.83 346.702 234.618 347.295 237.428 347.853C238.804 348.125 240.403 348.208 241.59 348.955L241.667 554.3L205.38 554.237L205.354 465.691L205.334 436.857C205.325 432.729 206.068 426.58 204.699 422.811C204.319 422.542 203.394 421.7 203 421.607C200.378 420.988 196.039 421.527 193.279 421.527L165.751 421.539C166.807 415.339 169.568 408.482 171.486 402.448C175.928 388.473 180.531 374.486 186.225 360.962L199.384 331.654Z"/>
	<path fill="#00093B" transform="scale(0.5 0.5)" d="M251.316 180.12C256.727 180.271 262.047 180.449 267.371 181.51C282.715 184.567 296.831 193.011 307.467 204.362C320.935 218.734 327.287 237.72 326.466 257.25C325.589 278.111 316.632 296.248 301.295 310.302C300.372 311.148 297.399 313.181 296.918 314.154C286.65 321.023 274.824 326.191 262.436 327.475C241.988 329.593 222.438 323.852 206.562 310.75C191.453 298.28 181.225 279.246 179.632 259.657C178.006 239.682 184.412 220.787 197.511 205.68C211.736 189.274 230.006 181.524 251.316 180.12Z"/>
	<path fill="#EB5C7A" transform="scale(0.5 0.5)" d="M311.887 287.649C308.386 294.532 302.643 300.852 297.06 306.1C285.19 317.258 268.828 322.79 252.638 322.137C232.956 321.344 215.631 313.107 202.437 298.529C190.357 285.183 184.635 267.39 185.589 249.528C186.565 231.267 194.931 214.973 208.563 202.85C221.107 191.694 238.063 184.734 255.048 185.772L252.451 186.25C252.355 186.75 252.377 187.288 252.163 187.75C252.056 187.981 250.934 188.773 250.733 188.931C248.348 190.801 245.749 192.281 243.496 194.342C241.084 196.548 238.838 199.291 237.027 202.025C232.241 209.247 229.459 217.362 228.406 225.94C228.113 228.33 228.35 231.895 227.368 234.014L225.617 233.216C223.048 234.631 220.797 237.195 218.65 239.21L206.833 250.474L243.921 287.081L254.147 277.165C255.689 279.886 257.533 282.009 260 283.924L260.613 284.405C270.17 291.778 283.838 294.017 295.544 292.334C301.335 291.501 306.335 289.226 311.887 287.649Z"/>
	<path fill="#F9949F" transform="scale(0.5 0.5)" d="M255.048 185.772C274.247 187.125 291.119 194.542 303.954 209.172C316.048 222.956 322.19 240.632 320.818 259C320.149 267.968 317.31 280.233 311.973 287.586L311.887 287.649C306.335 289.226 301.335 291.501 295.544 292.334C283.838 294.017 270.17 291.778 260.613 284.405L260 283.924C257.533 282.009 255.689 279.886 254.147 277.165L243.921 287.081L206.833 250.474L218.65 239.21C220.797 237.195 223.048 234.631 225.617 233.216L227.368 234.014C228.35 231.895 228.113 228.33 228.406 225.94C229.459 217.362 232.241 209.247 237.027 202.025C238.838 199.291 241.084 196.548 243.496 194.342C245.749 192.281 248.348 190.801 250.733 188.931C250.934 188.773 252.056 187.981 252.163 187.75C252.377 187.288 252.355 186.75 252.451 186.25L255.048 185.772Z"/>
	<path fill="#00093B" transform="scale(0.5 0.5)" d="M227.368 234.014L246.569 253.969L285.299 217.053L299.586 233.4L254.147 277.165L243.921 287.081L206.833 250.474L218.65 239.21C220.797 237.195 223.048 234.631 225.617 233.216L227.368 234.014Z"/>
	<path fill="#64B8C3" transform="scale(0.5 0.5)" d="M284.683 224.969L291.73 233.174L243.823 279.334L222.862 258.25L215.445 250.658C217.619 247.368 222.261 243.633 225.374 241.078L246.898 261.73L284.683 224.969Z"/>
	<path fill="#64B8C3" transform="scale(0.5 0.5)" d="M408.322 178.587C410.847 182.114 413.555 185.63 417.033 188.271C420.528 190.925 424.995 192.946 429.371 193.49C438.43 194.617 448.442 193.898 457.588 193.896L511.7 193.863L559.454 193.867C568.045 193.874 577.387 194.614 585.859 193.324C597.126 191.609 605.318 185.082 612.024 176.21C630.302 180.04 647.969 185.522 665.396 192.213C671.032 194.377 676.292 197.57 681.989 199.525L681.917 202.25C680.083 203.266 677.996 203.171 676 203.654C668.476 205.476 662.201 211.088 659.989 218.578C658.149 224.807 659.142 233.505 659.125 240.013L659.081 277.456L659.064 302.276C659.071 306.919 658.842 311.702 659.258 316.324C659.558 319.642 660.521 322.669 662.172 325.58C665.299 331.092 670.768 334.977 676.852 336.503C680.127 337.325 683.991 337.187 687.372 337.293L830.987 337.485L834.591 346.993L843.312 374.831L847.986 393.5C848.962 397.993 849.43 404.556 851.643 408.505L855.759 404.475C861.111 406.991 866.371 411.463 870.894 415.25C873.622 417.534 876.621 419.828 878.984 422.481C876.452 425.725 872.361 429.831 870.818 433.547L874.637 438.697L888.111 434.201C892.199 442.848 894.681 451.96 897.692 461.01L883.522 465.795L883.743 480.058C887.378 481.308 894.034 481.991 896.855 484.124C896.461 490.342 893.654 496.585 891.71 502.434C890.971 504.657 890.181 508.336 888.673 510.03C886.867 509.889 884.985 509.807 883.226 509.354C881.668 508.952 876.454 506.695 875.25 506.98C874.865 507.072 874.583 507.406 874.25 507.619C873.806 508.491 873.173 509.174 873.444 510.155C873.916 511.856 875.702 513.509 876.773 514.882C878.209 516.723 879.293 518.579 880.353 520.654L873.223 527.15L906.503 527.466C905.368 521.674 904.744 516.85 908.129 511.567C910.166 508.387 913.248 505.876 917 505.1C920.956 504.283 925.336 505.101 928.622 507.483C932.143 510.035 934.175 513.754 934.814 518C935.315 521.329 934.7 524.445 933.484 527.545C945.345 527.442 954.539 527.11 963.621 536.016C969.434 541.717 971.894 548.988 971.9 557C971.906 564.595 968.187 572.248 962.794 577.465C959.407 580.742 955.631 582.733 951.157 584.113L943.971 584.96L867.682 585.018L864.966 599.121L864.819 599.51L860.683 616.259C859.789 619.711 858.632 623.39 858.315 626.949C859.999 626.973 862.297 626.559 863.485 627.75L863.491 718.312L863.514 745.653C863.519 750.119 863.133 754.973 863.567 759.404C863.86 762.394 866.743 766.454 868.351 768.986L871.041 774.438C877.942 794.898 879.827 815.72 870.016 835.71C861.12 853.835 845.628 868.182 826.379 874.671C816.678 877.942 805.633 878.954 795.5 877.807C790.804 877.276 786.137 876.048 781.485 875.202C779.693 874.342 777.95 873.763 776.044 873.209C758.787 866.866 743.623 851.38 735.766 835.033C724.379 845.79 704.137 846.876 689.169 846.475C682.79 846.304 676.421 845.398 670.089 844.634C668.372 844.426 665.15 843.575 663.639 843.849C662.107 844.125 660.358 845.24 658.991 846.002L648.638 852.023L634.941 858.973C606.726 872.046 577.018 880.915 546 883.948C534.608 885.061 523.303 885.049 511.877 885.034L511.765 933.229C511.745 940.198 512.618 948.317 511.369 955.114C510.932 957.493 509.788 959.935 508.138 961.71C505.786 964.238 502.282 966.363 498.75 966.47L423.819 966.511L397.608 966.493C393.789 966.482 389.34 966.893 385.587 966.343C382.822 965.938 380.366 964.844 378.396 962.839C376.25 960.654 374.766 958.069 374.251 955.033C373.633 951.392 374.014 947.23 374.021 943.528L374.07 922.164L374.153 846.54C353.52 840.676 333.222 830.372 313.996 820.916C307.302 817.624 300.877 813.185 293.806 810.789C299.463 799.6 304.784 788.2 308.617 776.237C316.546 751.494 318.462 725.354 318.617 699.528C318.668 690.963 319.266 681.993 318.45 673.5C318.158 673.132 317.934 672.698 317.574 672.396C316.499 671.491 305.713 672.7 303.373 672.671C289.234 672.498 275.99 669.203 263.004 663.732C250.699 658.342 237.913 650.402 229.338 639.895C228.177 638.472 226.174 635.017 224.059 635.763C221.483 636.671 218.559 641.583 216.542 643.613C214.423 645.745 212.082 647.717 209.686 649.529C200.927 656.152 190.137 661.442 179.693 664.859C175.457 655.167 172.172 645.336 168.912 635.285C164.882 622.861 161.046 609.983 158.92 597.074C157.697 592.781 157.316 588.019 156.897 583.584L337.004 584.065C338.499 583.331 339.132 582.775 339.845 581.25C339.198 573.13 340.756 564.041 339.25 556.141C338.88 555.78 338.175 554.876 337.75 554.675C336.799 554.224 334.432 554.304 333.338 554.289L321.299 554.231L269.79 554.207L269.817 348.565C277.676 346.517 285.379 344.399 292.728 340.86C315.186 330.048 333.863 309.993 341.997 286.342C350.966 260.264 348.125 233.955 336.177 209.417C354.014 199.457 373.655 191.965 392.523 184.158C395.628 182.873 398.8 181.604 402.027 180.652C404.195 180.012 406.329 179.725 408.322 178.587Z"/>
	<path fill="#00093B" transform="scale(0.5 0.5)" d="M388.883 210.25C390.186 210.099 390.328 210.35 391.473 211.036C393.421 213.656 392.385 220.793 392.318 224.126C396.284 224.069 402.772 223.014 405.868 225.591C406.197 227.323 406.212 227.206 405.25 228.685C402.214 230.395 395.586 229.501 392.022 229.485L391.873 241.946L390.25 243.12C388.999 243.039 388.851 242.913 387.824 242.172C386.224 239.205 387.055 232.923 387.06 229.48C382.898 229.505 376.622 230.506 373.228 228.272C372.97 226.55 373.121 226.557 374.055 225.056C376.324 223.509 384.136 224.429 387.108 224.451C387.095 220.288 386.099 213.414 388.883 210.25Z"/>
	<path fill="#00093B" transform="scale(0.5 0.5)" d="M369.98 293.25C371.601 293.044 371.74 292.804 373.036 293.75C374.591 296.578 373.662 304.408 373.674 307.849C376.45 307.836 385.401 307.093 387.353 308.578C387.52 309.986 387.751 310.971 386.974 312.25C384.403 313.943 376.971 312.989 373.738 312.955L373.785 325C373.678 326.635 373.473 326.972 372.25 328.053L370.75 328.47L369.25 327.411C367.518 323.894 368.485 316.899 368.51 312.895C364.625 312.94 357.621 314.078 354.75 311.361C354.489 309.685 354.464 309.8 355.44 308.412C358.705 306.684 364.807 307.57 368.53 307.62L368.545 297.692C368.558 297.141 368.44 295.176 368.646 294.75C368.937 294.147 369.535 293.75 369.98 293.25Z"/>
	<path fill="#00093B" transform="scale(0.5 0.5)" d="M325.075 356.75C327.468 356.879 333.282 363.634 335.335 365.61C338.001 362.85 342.063 357.703 345.75 356.637C347.109 357.184 347.32 357.618 348.199 358.75C347.709 362.441 341.93 366.701 339.237 369.275C341.246 372.582 347.967 376.198 347.918 380.193C347.904 381.341 347.515 381.358 346.75 382.12L345.492 382.461C341.822 380.942 337.867 376.162 334.904 373.415C332.33 376.232 329.049 380.722 325.75 382.505C324.085 382.25 324.051 382.213 322.877 381C322.823 377.133 328.762 372.456 331.372 369.733C328.644 366.994 323.749 362.989 322.778 359.25C323.429 357.787 323.727 357.66 325.075 356.75Z"/>
	<path fill="#00093B" transform="scale(0.5 0.5)" d="M372.21 668.25C373.711 668.053 374.316 668.159 375.676 668.824C376.324 670.203 376.104 671.758 376.1 673.247L376.046 684.442L386.33 684.495C387.97 684.504 389.497 684.159 390.851 685.118C391.042 686.651 391.041 687.688 390.75 689.204C388.291 690.889 379.21 689.818 375.935 689.782L375.942 700.383C375.937 701.569 376.134 703.963 375.638 705C375.387 705.523 374.832 705.833 374.429 706.25L373.67 706.395C372.399 706.473 371.635 705.71 370.75 704.956C369.497 700.788 370.393 694.184 370.406 689.733C366.825 689.795 359.858 690.808 356.75 689.321C356.043 687.737 356.023 686.883 356.25 685.175C358.48 683.381 367.301 684.427 370.519 684.445L370.586 669.25L372.21 668.25Z"/>
	<path fill="#00093B" transform="scale(0.5 0.5)" d="M310.92 500.055C313.766 499.912 316.459 500.088 319.064 501.357C322.534 503.047 325.258 505.874 326.427 509.592C327.453 512.856 327.294 517.457 325.624 520.514C323.326 524.718 320.097 526.773 315.569 528.007C311.836 528.096 308.805 528.118 305.5 526.041C302.889 524.4 300.393 521.474 299.695 518.405C298.725 514.137 299.159 510.227 301.492 506.445C303.787 502.725 306.784 501.11 310.92 500.055Z"/>
	<path fill="white" transform="scale(0.5 0.5)" d="M310.429 506.25C312.063 505.897 313.345 505.791 315.005 506.094C317.182 506.491 319.18 507.593 320.34 509.534C321.641 511.712 321.83 514.467 321.068 516.865C320.135 519.8 318.342 520.905 315.694 522.218L315.312 522.252C313.483 522.452 311.683 522.717 309.89 522.136C308.108 521.559 306.523 520.082 305.75 518.387C304.747 516.187 304.589 513.181 305.507 510.925C306.411 508.703 308.309 507.212 310.429 506.25Z"/>
	<path fill="#00093B" transform="scale(0.5 0.5)" d="M683.638 364.07C686.439 363.742 689.172 363.823 691.812 364.906C695.661 366.486 698.837 369.555 700.236 373.517C701.577 377.317 701.452 381.58 699.611 385.179C697.626 389.058 694.37 391.113 690.357 392.5C687.237 393.011 684.24 393.125 681.25 391.902C677.86 390.515 675.06 387.325 673.79 383.931C672.411 380.244 672.653 375.814 674.244 372.25C676.276 367.697 679.222 365.819 683.638 364.07Z"/>
	<path fill="white" transform="scale(0.5 0.5)" d="M685.841 369.48C687.386 369.492 688.833 369.826 690.25 370.443C692.635 371.483 694.392 373.536 695.189 376.007C695.855 378.071 695.574 380.604 694.537 382.5C693.058 385.206 690.677 386.228 687.842 387.035C686.343 387.057 685.071 386.921 683.648 386.406C681.569 385.653 679.599 383.675 678.793 381.622C677.852 379.223 677.887 376.618 679.107 374.323C680.554 371.604 683.031 370.372 685.841 369.48Z"/>
	<path fill="#00093B" transform="scale(0.5 0.5)" d="M610.666 212.586C613.058 212.484 615.706 212.167 618.009 212.921C621.694 214.127 624.991 216.838 626.68 220.357C628.491 224.129 628.909 228.369 627.31 232.268C625.417 236.886 621.508 239.408 617.063 241.185C614.739 241.74 611.475 241.695 609.23 240.854C605.068 239.294 601.893 236.68 600.247 232.466C598.975 229.212 599.096 224.689 600.484 221.5C602.634 216.557 605.876 214.536 610.666 212.586Z"/>
	<path fill="white" transform="scale(0.5 0.5)" d="M611.471 218.079C613.068 217.954 614.532 217.954 616.102 218.325C618.488 218.889 620.513 220.599 621.756 222.69C622.825 224.488 623.271 226.87 622.706 228.907C621.805 232.153 619.185 233.841 616.427 235.416C614.914 235.625 613.262 235.805 611.75 235.512C609.628 235.099 607.412 233.05 606.339 231.247C605.092 229.154 604.844 226.829 605.488 224.5C606.364 221.331 608.765 219.654 611.471 218.079Z"/>
	<path fill="#00093B" transform="scale(0.5 0.5)" d="M611.471 679.118C614.521 679.039 617.471 679.177 620.174 680.736C623.581 682.702 626.696 686.157 627.522 690.079C628.345 693.984 627.658 698.202 625.448 701.549C623.039 705.198 619.821 706.982 615.678 707.975C612.134 708.09 609.054 708.118 605.882 706.265C602.248 704.142 600.115 700.887 599.159 696.849C598.205 692.814 599.156 688.679 601.465 685.272C603.968 681.579 607.197 679.948 611.471 679.118Z"/>
	<path fill="white" transform="scale(0.5 0.5)" d="M611.116 684.561C612.523 684.505 614.092 684.364 615.466 684.707C618.049 685.353 620.259 687.125 621.442 689.488C622.47 691.544 622.77 693.55 622.047 695.75C620.934 699.139 618.623 700.783 615.547 702.324L615.074 702.359C613.612 702.477 611.999 702.716 610.558 702.354C608.484 701.833 606.677 700.214 605.659 698.373C604.51 696.293 604.123 693.589 604.795 691.292C605.858 687.657 607.972 686.251 611.116 684.561Z"/>
	<path fill="#00093B" transform="scale(0.5 0.5)" d="M320.317 615.531C323.747 615.403 326.392 615.388 329.52 617.09C333.288 619.14 335.663 622.723 336.86 626.775C338.059 630.833 337.566 635.079 335.429 638.735C333.143 642.647 329.621 644.867 325.331 646.054C322.524 646.285 319.371 646.247 316.737 645.146C312.885 643.537 309.936 640.147 308.532 636.25C307.082 632.226 307.538 627.517 309.584 623.75C312.013 619.279 315.63 617.143 320.317 615.531Z"/>
	<path fill="#008498" transform="scale(0.5 0.5)" d="M320.482 620.75C321.974 620.431 323.791 620.68 325.25 621.092C327.937 621.849 330.262 624.582 331.36 627.049C332.304 629.17 332.444 633.11 331.473 635.25C330.177 638.108 328.053 639.482 325.214 640.575C322.875 640.59 320.426 640.858 318.273 639.808C316.172 638.783 314.479 636.48 313.809 634.268C312.895 631.249 313.55 627.754 315.08 625.056C316.326 622.86 318.094 621.453 320.482 620.75Z"/>
	<path fill="#008498" transform="scale(0.5 0.5)" d="M687.372 337.293L830.987 337.485L834.591 346.993L687.893 347.029C686.965 344.488 687.432 340.086 687.372 337.293Z"/>
	<path fill="#008498" transform="scale(0.5 0.5)" d="M156.897 583.584L337.004 584.065C335.361 589.352 333.548 593.161 329.54 597.094L271.788 597.125L158.92 597.074C157.697 592.781 157.316 588.019 156.897 583.584Z"/>
	<path fill="#008498" transform="scale(0.5 0.5)" d="M685.944 562.954C689.269 572.563 694.793 578.277 701.901 585.247C705.886 585.975 711.05 585.114 715.163 585.043L741.445 584.961L823.434 584.937L867.682 585.018L864.966 599.121L864.819 599.51C859.42 600.074 853.497 599.68 848.039 599.691L813.449 599.668L703.914 599.751L692.78 585.997C689.066 580.451 684.646 569.603 685.944 562.954Z"/>
	<path fill="#008498" transform="scale(0.5 0.5)" d="M345.422 427.066L346.293 448.964L362.569 448.965L362.689 506.96C362.647 521.742 361.978 536.726 363.615 551.435C367.314 584.662 384.586 617.515 408.148 640.882C418.288 650.939 429.128 660.073 441.102 667.891C454.783 676.821 469.485 683.886 484.326 690.627C493.05 694.59 502.235 699.014 511.396 701.75L511.987 701.956C513.722 702.532 515.41 701.712 517.047 701.156L517.85 700.89C526.173 698.056 534.41 693.999 542.492 690.504C554.128 685.473 565.912 680.197 576.932 673.927C607.996 656.251 635.782 631.224 651.478 598.717C656.427 588.469 660.448 577.653 663.224 566.609C664.368 562.057 664.958 557.473 665.943 552.932C665.785 578.127 659.324 602.312 647.139 624.378C623.73 666.771 581.751 694.926 538.268 713.854C529.88 717.505 521.386 721.468 512.59 724.017C505.618 721.59 498.785 718.355 492.012 715.409C459.927 701.459 427.611 683.675 402.565 658.888C374.096 630.715 354.505 594.568 350.99 554.291C349.94 542.264 350.67 529.846 350.679 517.771L350.554 460.617L344.476 460.466L344.886 440.823C344.96 436.339 344.617 431.476 345.422 427.066Z"/>
	<path fill="#00093B" transform="scale(0.5 0.5)" d="M374.153 846.54C374.158 838.432 372.533 828.802 378.852 822.555C383.155 818.299 387.824 818.892 393.467 818.934L393.355 785.943C393.337 778.679 392.702 770.788 393.601 763.589C394.89 753.271 399.628 743.552 406.931 736.168C416.233 726.762 428.211 721.514 441.496 721.489C454.297 721.465 466.543 726.469 475.536 735.596C483.41 743.587 488.04 753.825 489.13 764.988C489.68 770.616 489.374 776.488 489.384 782.144L489.402 808.406C489.401 810.8 488.71 816.588 489.689 818.61C496.004 818.631 502.462 817.809 507.376 822.624C509.115 824.328 510.828 827.196 511.315 829.579C512.4 834.882 511.712 841.501 511.74 846.975L511.877 885.034L511.765 933.229C511.745 940.198 512.618 948.317 511.369 955.114C510.932 957.493 509.788 959.935 508.138 961.71C505.786 964.238 502.282 966.363 498.75 966.47L423.819 966.511L397.608 966.493C393.789 966.482 389.34 966.893 385.587 966.343C382.822 965.938 380.366 964.844 378.396 962.839C376.25 960.654 374.766 958.069 374.251 955.033C373.633 951.392 374.014 947.23 374.021 943.528L374.07 922.164L374.153 846.54Z"/>
	<path fill="#EB5C7A" transform="scale(0.5 0.5)" d="M379.667 946.205L506.049 946.469C506.027 951.136 506.173 954.649 503.638 958.767C501.737 960.112 500.282 960.811 497.925 960.945C490.947 961.342 483.748 960.996 476.751 961L436.71 961.004L404.085 960.981C398.596 960.974 392.778 961.36 387.322 960.9C385.186 960.72 383.464 959.974 381.9 958.498C378.956 955.719 379.719 949.946 379.667 946.205Z"/>
	<path fill="white" transform="scale(0.5 0.5)" d="M440.537 727.211C444.192 727.183 448.139 727.263 451.679 728.229L452.5 728.466C459.77 730.492 466.337 734.222 471.649 739.616C485.123 753.299 483.711 770.046 483.722 787.81L483.714 818.561L469.963 818.544L469.869 782.604C469.851 776.383 470.475 769.367 469.347 763.281C468.632 759.426 466.798 755.305 464.343 752.25C458.533 745.023 451.215 741.588 442.067 740.734C434.023 741.077 426.614 743.423 420.857 749.243C417.104 753.038 414.142 757.612 412.912 762.867C411.577 768.571 412.36 775.855 412.353 781.734L412.355 818.644L399.068 818.656C398.492 817.56 398.737 815.648 398.735 814.389L398.705 804.492L398.653 779.112C398.648 772.976 398.178 766.458 399.704 760.468L399.955 759.5C401.556 753.184 404.56 747.298 408.878 742.392C417.349 732.769 427.871 728.015 440.537 727.211Z"/>
	<path fill="#64B8C3" transform="scale(0.5 0.5)" d="M417.989 773.811C418.076 765.364 418.639 759.294 424.931 753.115C429.683 748.447 436.128 746.375 442.693 746.502C448.751 746.619 454.909 750.233 458.97 754.546C461.295 757.014 463.246 760.285 463.966 763.618C465.071 768.741 464.338 775.403 464.352 780.703L464.431 818.526L417.984 818.577L417.988 786.759L417.943 780.045L417.989 773.811Z"/>
	<path fill="#008498" transform="scale(0.5 0.5)" d="M417.989 773.811C424.796 768.365 430.667 765.386 439.185 763.637C443.709 762.708 447.21 762.128 451.329 759.876C445.032 770.058 437.952 778.73 426.848 783.902C425.147 783.8 424.622 783.956 423.164 784.777C421.653 785.628 419.698 786.429 417.988 786.759L417.943 780.045L417.989 773.811Z"/>
	<path fill="#64B8C3" transform="scale(0.5 0.5)" d="M417.943 780.045C421.065 781.015 423.909 782.495 426.848 783.902C425.147 783.8 424.622 783.956 423.164 784.777C421.653 785.628 419.698 786.429 417.988 786.759L417.943 780.045Z"/>
	<path fill="#EB5C7A" transform="scale(0.5 0.5)" d="M499.554 940.569L379.747 940.479L379.712 874.564L379.721 847.787C379.723 842.206 378.764 834.592 380.954 829.468C381.768 827.565 383.705 825.21 385.75 824.585C388.853 823.636 393.663 824.188 396.922 824.182L423.064 824.197L495.043 824.277C496.887 824.34 499.255 824.209 500.901 825.153C503.674 826.743 505.073 828.99 505.914 832.001L506.059 940.638L499.554 940.569Z"/>
	<path fill="#00093B" transform="scale(0.5 0.5)" d="M411.935 844.626L415.439 845.127C415.689 845.751 415.904 846.218 415.96 846.894L415.977 909.924L415.98 921.313C415.98 921.899 416.185 923.751 415.98 924.25C415.844 924.582 415.493 924.776 415.25 925.039L411 924.969C410.814 924.729 410.559 924.53 410.442 924.25C410.191 923.647 410.439 921.29 410.438 920.484L410.43 908.872L410.426 868.334L410.584 845.25L411.935 844.626Z"/>
	<path fill="#00093B" transform="scale(0.5 0.5)" d="M433.466 868.214L433.478 845.75C434.79 844.49 437.231 844.991 439.042 844.98L439.45 879.407L439.369 913.176C439.366 915.962 440.126 922.788 438.75 924.961L434 924.94C432.737 923.246 433.468 874.811 433.466 868.214Z"/>
	<path fill="#F9949F" transform="scale(0.5 0.5)" d="M411.935 844.626L410.75 844.302C410.435 843.339 410.521 843.722 410.356 842.799L407.893 832.094L487.23 832.118L505.914 832.001L506.059 940.638L499.554 940.569C496.283 937.085 491.96 935.112 488.798 931.386C487.707 930.35 485.855 929.505 484.55 928.697C475.519 924.222 468.429 918.664 461.871 911.012L461.987 924.5C460.786 925.554 458.377 925.189 456.75 925.214C456.533 924.976 456.235 924.792 456.1 924.5C455.84 923.94 456.087 921.306 456.084 920.492L456.028 906.176C454.002 904.626 453.108 902.755 451.75 900.675C448.628 895.893 445.747 891.106 443.098 886.041C441.898 883.748 441.155 881.414 439.45 879.407L439.042 844.98C437.231 844.991 434.79 844.49 433.478 845.75L433.466 868.214L432.75 870.21C431.231 869.234 430.042 867.195 428.93 865.75C426.343 862.39 423.844 859.047 421.592 855.445C419.778 852.545 418.277 849.435 415.96 846.894C415.904 846.218 415.689 845.751 415.439 845.127L411.935 844.626Z"/>
	<path fill="#00093B" transform="scale(0.5 0.5)" d="M456.028 906.176L456.024 844.586L461.298 844.714C462.985 847.895 460.948 901.532 461.871 911.012L461.987 924.5C460.786 925.554 458.377 925.189 456.75 925.214C456.533 924.976 456.235 924.792 456.1 924.5C455.84 923.94 456.087 921.306 456.084 920.492L456.028 906.176Z"/>
	<path fill="white" transform="scale(0.5 0.5)" d="M491.825 833.194C493.709 834.586 496.033 835.999 496.399 838.5C496.809 841.295 496.354 844.564 496.296 847.41L496.111 865.287L496.005 904.464C496.003 910.921 496.522 917.871 495.88 924.28C495.7 926.075 495.333 927.707 494.114 929.1C492.755 930.654 490.73 931.024 488.798 931.386C487.707 930.35 485.855 929.505 484.55 928.697L484.594 861.686L484.636 844.054C484.643 841.886 484.195 838.68 485.251 836.76C486.603 834.301 489.336 833.817 491.825 833.194Z"/>
	<path fill="#00093B" transform="scale(0.5 0.5)" d="M685.944 562.954C685.581 561.191 685.526 559.501 685.497 557.706C685.319 546.594 690.747 537.663 698.314 529.922C699.906 528.293 701.484 526.539 703.852 526.165C710.464 525.121 718.413 525.858 725.142 525.819L774.576 525.607C769.931 519.976 766.031 514.758 762.49 508.354C758.939 508.469 754.311 510.39 750.917 511.624L750.303 511.851L741.178 482.007L755.326 479.467L755.962 468.148L740.752 462.103C744.645 452.856 747.592 443.056 752.517 434.308L764.849 440.222L773.318 428.866L765.014 417.052C773.732 410.858 782.61 404.01 792.063 399.013L800.021 411.826L809.762 408.621C810.627 407.128 810.519 405.135 810.7 403.431L811.913 395.632C813.666 394.985 817.035 395.411 818.994 395.42C825.767 395.451 832.535 395.352 839.278 396.098L839.419 409.605L847.902 413.293L851.643 408.505L855.759 404.475C861.111 406.991 866.371 411.463 870.894 415.25C873.622 417.534 876.621 419.828 878.984 422.481C876.452 425.725 872.361 429.831 870.818 433.547L874.637 438.697L888.111 434.201C892.199 442.848 894.681 451.96 897.692 461.01L883.522 465.795L883.743 480.058C887.378 481.308 894.034 481.991 896.855 484.124C896.461 490.342 893.654 496.585 891.71 502.434C890.971 504.657 890.181 508.336 888.673 510.03C886.867 509.889 884.985 509.807 883.226 509.354C881.668 508.952 876.454 506.695 875.25 506.98C874.865 507.072 874.583 507.406 874.25 507.619C873.806 508.491 873.173 509.174 873.444 510.155C873.916 511.856 875.702 513.509 876.773 514.882C878.209 516.723 879.293 518.579 880.353 520.654L873.223 527.15L906.503 527.466C905.368 521.674 904.744 516.85 908.129 511.567C910.166 508.387 913.248 505.876 917 505.1C920.956 504.283 925.336 505.101 928.622 507.483C932.143 510.035 934.175 513.754 934.814 518C935.315 521.329 934.7 524.445 933.484 527.545C945.345 527.442 954.539 527.11 963.621 536.016C969.434 541.717 971.894 548.988 971.9 557C971.906 564.595 968.187 572.248 962.794 577.465C959.407 580.742 955.631 582.733 951.157 584.113L943.971 584.96L867.682 585.018L823.434 584.937L741.445 584.961L715.163 585.043C711.05 585.114 705.886 585.975 701.901 585.247C694.793 578.277 689.269 572.563 685.944 562.954Z"/>
	<path fill="#64B8C3" transform="scale(0.5 0.5)" d="M919.25 510.107L919.695 510.162C921.572 510.356 923.419 510.397 925.038 511.479C927.505 513.126 929.164 515.458 929.664 518.396C930.071 520.788 929.446 524.015 927.888 525.932C926.579 527.542 924.402 527.26 922.494 527.417C919.836 527.412 917.378 527.248 914.75 526.854C913.791 526.194 912.708 525.503 912.157 524.442C911.134 522.47 910.772 517.585 911.752 515.48C913.227 512.31 916.045 510.846 919.25 510.107Z"/>
	<path fill="white" transform="scale(0.5 0.5)" d="M702.558 534.25L703.703 534.13C709.864 540.956 717.322 548.24 722.11 556.064C718.19 562.871 712.393 569.327 707.596 575.601L704.652 579.521C701.731 577.463 698.741 574.363 696.647 571.466C692.881 566.255 690.103 560.027 691.244 553.461L691.377 552.75C692.734 545.231 697.222 539.44 702.558 534.25Z"/>
	<path fill="#F7C1C6" transform="scale(0.5 0.5)" d="M801.173 526.17L786.274 526.109C784.68 526.102 781.737 526.515 780.578 525.5L780.68 523.949C773.966 516.752 769.301 510.561 765.156 501.587L753.349 504.875L748.062 486.703L761.334 483.685L761.186 482.836C760.103 476.451 761.366 470.153 761.725 463.75L747.59 458.516L755.206 441.397L766.189 446.164L767.51 446.639C769.84 442.217 772.364 438.358 775.743 434.659C776.866 433.429 780.192 431.347 780.753 430.101L773.234 418.618L784.689 409.926C786.38 408.74 788.534 407.062 790.532 406.569L797.63 418.545L798.226 418.247C803.854 415.481 808.932 414.47 815.171 414.128L816.11 401.029L833.549 401.02L834.095 414.725C840.053 415.753 844.444 417.693 849.295 421.336L856.66 411.323L871.544 422.436L863.713 432.708L872.359 445.5L885.49 440.601C887.603 446.094 889.878 452.116 890.78 457.948C886.745 459.051 881.027 459.875 877.503 462.019L877.611 462.504C878.875 468.471 879.485 477.491 877.444 483.296L890.728 488.24C889.504 492.554 887.84 500.988 884.844 504.253L872.719 500.146L865.827 510.411L873.9 520.112C871.39 523.189 867.892 526.619 863.71 526.957L832.304 526.579C832.869 526.044 833.37 525.563 834.06 525.185L842.42 520.779C843.81 520.207 845.068 519.595 846.354 518.804C857.936 511.673 866.461 498.951 869.578 485.793C872.885 471.834 869.783 457.765 862.233 445.75C854.829 433.967 845.726 426.602 831.959 423.473C818.946 420.515 805.692 423.467 794.504 430.565C781.513 438.807 773.74 452.617 770.302 467.25C769.352 471.294 769.224 475.357 769.511 479.5C770.645 495.855 776.856 508.312 789.963 518.284C793.443 520.932 797.576 522.98 800.812 525.844L801.173 526.17Z"/>
	<path fill="white" transform="scale(0.5 0.5)" d="M801.173 526.17L800.812 525.844C797.576 522.98 793.443 520.932 789.963 518.284C776.856 508.312 770.645 495.855 769.511 479.5C769.224 475.357 769.352 471.294 770.302 467.25C773.74 452.617 781.513 438.807 794.504 430.565C805.692 423.467 818.946 420.515 831.959 423.473C845.726 426.602 854.829 433.967 862.233 445.75C869.783 457.765 872.885 471.834 869.578 485.793C866.461 498.951 857.936 511.673 846.354 518.804C845.068 519.595 843.81 520.207 842.42 520.779L834.06 525.185C833.37 525.563 832.869 526.044 832.304 526.579L801.173 526.17Z"/>
	<path fill="#00093B" transform="scale(0.5 0.5)" d="M817.248 440.08L824.445 440.055C832.307 440.779 839.36 444.838 844.25 450.986C852.017 460.752 851.331 473.435 845.906 484.074C843.427 488.935 840.173 493.39 837.902 498.367C835.126 504.45 833.517 510.55 832.802 517.186L825.599 516.95L809.295 516.692C808.651 505.894 804.863 497.805 799.333 488.646C796.724 484.323 793.975 479.997 792.808 475.015C791.061 467.557 792.844 459.008 797.034 452.672C801.701 445.617 809.179 441.75 817.248 440.08Z"/>
	<path fill="#64B8C3" transform="scale(0.5 0.5)" d="M819.161 445.119C823.613 444.89 827.677 445.025 831.75 447.084C837.34 449.909 842.074 455.231 843.941 461.224C848.365 475.427 837.422 486.878 832.008 498.944C831.028 501.13 830.08 503.388 829.474 505.71C828.982 507.596 828.79 509.616 827.885 511.356L825.125 511.511L814.697 511.472C813.603 504.879 811.491 498.281 808.092 492.5C804.303 486.056 799.838 480.605 798.055 473.178C796.72 467.614 797.903 461.38 800.983 456.591C805.335 449.824 811.55 446.658 819.161 445.119Z"/>
	<path fill="#00093B" transform="scale(0.5 0.5)" d="M819.135 452.538C821.655 452.45 823.952 452.23 826.333 453.222C829.673 454.612 832.794 457.893 834.145 461.233C835.609 464.851 835.788 468.623 834.106 472.205C831.982 476.727 828.567 479.043 824.016 480.661C821.365 480.886 818.506 480.781 816.028 479.748C812.899 478.443 809.949 475.907 808.624 472.742C807.062 469.011 807.172 465.487 808.75 461.763C810.829 456.858 814.456 454.532 819.135 452.538Z"/>
	<path fill="white" transform="scale(0.5 0.5)" d="M821.306 457.554C822.36 457.702 823.41 457.867 824.399 458.279C827.152 459.425 828.841 461.414 829.875 464.187C830.724 466.463 830.351 468.54 829.203 470.646C827.594 473.596 824.9 474.719 821.838 475.591C820.266 475.479 818.843 475.302 817.42 474.574C815.166 473.421 813.593 471.363 812.852 468.961C812.234 466.961 812.715 464.548 813.73 462.75C815.494 459.626 817.94 458.378 821.306 457.554Z"/>
	<path fill="white" transform="scale(0.5 0.5)" d="M708.733 531.485L822.646 531.702L872.964 532.763L923.869 532.613C931.585 532.598 939.77 532.055 947.431 532.761C951.355 533.123 955.197 534.725 958.151 537.35C963.754 542.328 966.76 548.708 966.958 556.237C967.116 562.201 964.424 568.327 960.286 572.56C956.831 576.094 951.897 578.664 947.017 579.432C940.566 580.448 932.914 579.704 926.344 579.693L882.676 579.606L728.25 579.52L711.579 579.516L727.526 558.504L949.5 558.919C950.629 557.846 950.336 555.573 950.414 554C950.193 553.8 950.014 553.54 949.75 553.4C948.409 552.689 823.796 553.355 814.096 553.345L726.908 552.918L708.733 531.485Z"/>
	<path fill="#00093B" transform="scale(0.5 0.5)" d="M735.766 835.033C735.708 834.848 734.939 833.309 734.798 833.206C733.63 832.353 597.614 833.043 583.25 833.072C574.116 833.091 564.533 833.787 555.449 833.128C554.554 833.063 554.043 832.794 553.349 832.25C552.805 831.289 552.767 830.601 552.739 829.523L552.766 766.79L552.68 736.712C552.668 731.702 552.339 726.477 552.665 721.5C552.796 719.505 552.892 718.962 554.25 717.527L657.789 717.199L657.664 664.6L657.658 651.467C657.657 649.512 657.394 647.101 657.753 645.185C657.964 644.059 658.294 643.615 658.989 642.75C661.658 641.482 665.775 642.096 668.737 642.093L691.89 642.135C691.868 638.103 690.849 630.748 693.25 627.567C695.578 626.698 698.107 626.993 700.562 626.99L712.574 626.979L758.194 626.999L858.315 626.949C859.999 626.973 862.297 626.559 863.485 627.75L863.491 718.312L863.514 745.653C863.519 750.119 863.133 754.973 863.567 759.404C863.86 762.394 866.743 766.454 868.351 768.986L871.041 774.438C877.942 794.898 879.827 815.72 870.016 835.71C861.12 853.835 845.628 868.182 826.379 874.671C816.678 877.942 805.633 878.954 795.5 877.807C790.804 877.276 786.137 876.048 781.485 875.202C779.693 874.342 777.95 873.763 776.044 873.209C758.787 866.866 743.623 851.38 735.766 835.033Z"/>
	<path fill="#008498" transform="scale(0.5 0.5)" d="M693.578 810.548L729.085 810.478C729.599 816.444 730.939 822.157 732.995 827.773L707.25 827.57L666.981 827.547L693.578 810.548Z"/>
	<path fill="#B4D4DC" transform="scale(0.5 0.5)" d="M762.481 747.51C765.05 754.025 769.974 758.569 775.016 763.159C764.615 772.112 756.574 782.39 755.466 796.571C754.272 811.861 758.415 824.687 768.502 836.162C776.559 845.328 789.366 851.69 801.582 852.42C807.914 852.798 813.465 852.031 819.434 849.95C821.593 854.815 823.112 860.038 825.998 864.523C826.799 865.768 827.548 867.191 828.891 867.898C817.799 871.943 807.781 873.343 795.999 872.441C778.721 871.12 761.601 861.158 750.541 848.099C738.536 833.926 732.911 815.764 734.665 797.254C736.578 777.073 747.031 760.28 762.481 747.51Z"/>
	<path fill="white" transform="scale(0.5 0.5)" d="M762.481 747.51C779.031 736.074 795.979 731.06 816.104 734.68C832.455 737.622 848.853 748.301 858.191 761.998C869.204 778.154 874.292 798.107 870.554 817.486C867.564 832.986 860.139 844.551 848.905 855.337C842.813 860.462 836.467 865.186 828.891 867.898C827.548 867.191 826.799 865.768 825.998 864.523C823.112 860.038 821.593 854.815 819.434 849.95C824.018 848.389 827.767 845.898 832.036 843.774C835.539 840.958 838.886 837.763 841.633 834.199C850.04 823.287 853.628 809.483 851.719 795.823L851.597 795C850.417 786.726 847.11 778.884 841.985 772.263C834.117 762.096 822.691 755.653 810 753.856C797.038 752.021 785.527 755.743 775.016 763.159C769.974 758.569 765.05 754.025 762.481 747.51Z"/>
	<path fill="#64B8C3" transform="scale(0.5 0.5)" d="M687.833 647.74L691.64 647.828L691.551 805.096L665.795 820.994L664.579 821.683L664.018 821.5C663.252 815.928 663.737 809.72 663.727 804.08L663.686 769.569L663.717 647.924L687.833 647.74Z"/>
	<path fill="#00093B" transform="scale(0.5 0.5)" d="M775.016 763.159C785.527 755.743 797.038 752.021 810 753.856C822.691 755.653 834.117 762.096 841.985 772.263C847.11 778.884 850.417 786.726 851.597 795L851.719 795.823C853.628 809.483 850.04 823.287 841.633 834.199C838.886 837.763 835.539 840.958 832.036 843.774C827.767 845.898 824.018 848.389 819.434 849.95C813.465 852.031 807.914 852.798 801.582 852.42C789.366 851.69 776.559 845.328 768.502 836.162C758.415 824.687 754.272 811.861 755.466 796.571C756.574 782.39 764.615 772.112 775.016 763.159Z"/>
	<path fill="#008498" transform="scale(0.5 0.5)" d="M812.385 846.327C811.664 846.695 809.883 846.608 809.054 846.664C804.333 846.982 799.208 847.105 794.619 845.829L793.75 845.575C783.513 842.73 774.93 836.33 768.858 827.619C762.118 817.948 759.312 805.669 761.473 794.016C763.429 783.463 770.109 773.158 778.997 767.132L778.897 767.88C778.556 769.819 776.661 771.696 775.741 773.469C773.574 777.647 772.162 781.858 771.438 786.5L771.307 787.248C769.599 797.663 772.926 810.106 779.054 818.602C780.737 820.935 786.643 828.241 789.428 828.972L789.271 829.688C789.095 830.432 788.88 831.052 788.584 831.75C789.788 834.155 792.574 835.51 795.053 836.307C800.686 838.117 808.109 836.646 814.014 837.087L813.294 837.313C812.108 837.665 810.89 837.661 809.663 837.694C809.825 839.115 811.59 845.669 812.385 846.327Z"/>
	<path fill="#64B8C3" transform="scale(0.5 0.5)" d="M778.997 767.132C787.429 760.491 797.869 757.772 808.515 759.104C820.326 760.583 830.917 766.872 838.194 776.276C845.377 785.557 848.28 797.323 846.75 808.89C845.144 821.033 838.498 831.853 828.801 839.172C823.728 843.001 818.559 844.972 812.385 846.327C811.59 845.669 809.825 839.115 809.663 837.694C810.89 837.661 812.108 837.665 813.294 837.313L814.014 837.087C808.109 836.646 800.686 838.117 795.053 836.307C792.574 835.51 789.788 834.155 788.584 831.75C788.88 831.052 789.095 830.432 789.271 829.688L789.428 828.972C786.643 828.241 780.737 820.935 779.054 818.602C772.926 810.106 769.599 797.663 771.307 787.248L771.438 786.5C772.162 781.858 773.574 777.647 775.741 773.469C776.661 771.696 778.556 769.819 778.897 767.88L778.997 767.132Z"/>
	<path fill="#00093B" transform="scale(0.5 0.5)" d="M789.428 828.972C789.493 826.356 790.129 806.793 789.513 805.518C788.989 804.432 787.371 803.023 786.592 801.995C785.096 800.021 784.201 798.092 783.458 795.75L783.21 795.007C781.616 789.981 782.641 784.065 785.054 779.475C787.693 774.453 792.081 770.979 797.5 769.385C802.874 767.805 807.969 768.341 812.857 771.104C817.732 773.858 821.493 778.845 822.943 784.25C824.389 789.641 823.077 795.837 820.355 800.636C819.074 802.896 816.682 804.508 815.518 806.564C815.179 807.163 815.512 811.147 815.511 812.016L815.479 834.132C815.477 835.739 815.753 836.474 814.014 837.087C808.109 836.646 800.686 838.117 795.053 836.307C792.574 835.51 789.788 834.155 788.584 831.75C788.88 831.052 789.095 830.432 789.271 829.688L789.428 828.972Z"/>
	<path fill="white" transform="scale(0.5 0.5)" d="M802.082 773.594L803.807 773.652C808.473 774.061 812.125 776.005 814.986 779.75C817.809 783.446 818.713 788.371 817.831 792.891C816.896 797.687 814.362 800.121 810.567 802.775L810.546 831.865L804.63 831.889L795.004 831.555C794.982 828.385 795.384 803.576 795.072 802.883C794.94 802.589 793.671 801.638 793.404 801.391C790.973 799.14 789.261 797.043 788.481 793.762C787.45 789.422 787.629 784.545 790.238 780.75C793.189 776.457 797.147 774.609 802.082 773.594Z"/>
	<path fill="#B4D4DC" transform="scale(0.5 0.5)" d="M558.052 722.916L657.789 722.931L657.932 827.409L558.314 827.51L558.052 722.916Z"/>
	<path fill="white" transform="scale(0.5 0.5)" d="M804.181 632.25L858.318 632.4L858.348 753.472C849.891 744.174 841.3 737.641 829.519 733.137C811.832 726.375 790.191 726.516 773.107 735.163C772.038 735.704 771.221 736.284 770 736.461C765.547 737.108 760.127 736.381 755.581 736.373L716.216 736.414C714.155 736.459 713.2 736.034 711.75 737.55C711.505 738.983 711.42 739.599 711.986 741C714.178 742.3 721.788 741.454 724.522 741.451L761.616 741.37C755.455 746.091 750.554 751.273 745.403 757.025C740.525 757.786 735.073 757.367 730.12 757.414L718.253 757.484C716.11 757.496 714.136 757.142 712.25 758.238C711.679 759.68 711.595 760.176 711.998 761.75C712.415 762.138 712.736 762.668 713.25 762.913C714.05 763.293 717.891 762.904 718.987 762.902L741.228 762.874C737.838 768.149 735.375 773.725 732.966 779.5L713.25 779.555L712.107 781C712.017 782.433 711.812 782.984 712.543 784.25C715.093 785.084 717.868 784.793 720.526 784.786L731.748 784.906C729.951 791.514 729.434 798.154 728.948 804.953L697.458 804.914L697.494 632.673C699.607 631.894 703.378 632.363 705.696 632.365L724.25 632.366L804.181 632.25Z"/>
	<path fill="#00093B" transform="scale(0.5 0.5)" d="M714.08 673.75C718.523 673.235 723.457 673.647 727.945 673.646L757.267 673.64L842 673.953C843.151 674.872 843.062 675.038 843.391 676.5C842.466 678.095 842.504 678.035 840.75 678.618C835.727 679.13 830.323 678.752 825.256 678.745L794.588 678.721L713.56 678.787C712.235 677.881 712.373 677.841 712.024 676.25C712.556 674.638 712.636 674.675 714.08 673.75Z"/>
	<path fill="#00093B" transform="scale(0.5 0.5)" d="M714.221 715.25L814.547 714.971L835.881 714.983C837.217 714.995 840.362 714.651 841.5 715.054C841.975 715.223 842.333 715.621 842.75 715.904C843.178 717.454 843.446 717.722 842.803 719.25L841.151 719.75C838.207 720.301 834.865 720.007 831.853 720.027L814.026 720.159L737.497 720.155L719.037 720.05C717.617 720.03 714.71 720.35 713.5 719.951C713.048 719.801 712.681 719.464 712.271 719.221C712.089 717.682 711.921 717.198 712.562 715.75L714.221 715.25Z"/>
	<path fill="#00093B" transform="scale(0.5 0.5)" d="M754.027 653.25L839.945 653.295C841.634 653.407 842.239 653.311 843.324 654.594C843.45 656.131 843.688 656.48 842.784 657.783C838.509 659.069 832.699 658.406 828.192 658.419L801.75 658.449L713.25 658.468L712.25 657.449C712.017 656.087 711.858 655.197 712.336 653.847C714.478 652.646 720.521 653.318 723.129 653.31L754.027 653.25Z"/>
	<path fill="#00093B" transform="scale(0.5 0.5)" d="M713.907 694.25L715.022 694.154L736.639 694.072L781.125 694.034L819.891 694.055C826.42 694.062 833.134 693.761 839.641 694.117C841.44 694.216 841.822 694.203 843.152 695.418C843.497 696.855 843.498 697.117 843.085 698.534L841.611 699.25L713.25 699.406L712.25 698.374C712.058 696.746 711.97 696.321 712.601 694.75L713.907 694.25Z"/>
	<path fill="#00093B" transform="scale(0.5 0.5)" d="M410.141 305.452C414.889 293.992 420.433 283 428.149 273.206C439.512 258.785 455.939 247.194 472.797 240.19C500.44 228.707 530.578 230.136 557.987 241.48C583.802 252.163 606.258 275.222 616.804 301.051C620.749 310.712 623.719 320.645 625.108 331.007C626.291 339.828 625.873 349.006 625.89 357.898L625.915 398.814L650.72 398.855C654.649 398.841 659.39 398.329 663.235 398.94C664.542 399.148 664.994 399.674 665.983 400.5C666.816 402.454 666.483 405.107 666.484 407.224L666.447 422.273C670.752 422.217 680.938 420.796 684.25 423.401C685.49 425.645 685.113 428.704 685.127 431.228C685.153 436.004 686.013 442.743 684.75 447.283C682.739 449.271 680.934 448.864 678.257 448.848L666.639 448.775L665.943 552.932C664.958 557.473 664.368 562.057 663.224 566.609C660.448 577.653 656.427 588.469 651.478 598.717C635.782 631.224 607.996 656.251 576.932 673.927C565.912 680.197 554.128 685.473 542.492 690.504C534.41 693.999 526.173 698.056 517.85 700.89L517.047 701.156C515.41 701.712 513.722 702.532 511.987 701.956L511.396 701.75C502.235 699.014 493.05 694.59 484.326 690.627C469.485 683.886 454.783 676.821 441.102 667.891C429.128 660.073 418.288 650.939 408.148 640.882C384.586 617.515 367.314 584.662 363.615 551.435C361.978 536.726 362.647 521.742 362.689 506.96L362.569 448.965L346.293 448.964L345.422 427.066L345.688 426.187C346.287 425.05 347.153 424.817 348.257 424.416C349.578 424.162 350.922 424.244 352.25 424.063C352.317 424.054 353.661 423.822 353.722 423.75C353.784 423.677 353.888 421.673 353.903 421.511C354.168 418.637 354.275 414.294 356.21 412.043C357.634 410.387 360.456 410.529 362.493 410.388C362.456 406.88 361.64 402.171 363.863 399.342C366.465 398.155 370.639 398.75 373.48 398.764L392.54 398.946C393.124 393.481 392.62 387.454 392.612 381.935C392.581 362.309 390.572 341.498 398.972 323.172C401.77 317.068 406.143 310.851 410.141 305.452Z"/>
	<path fill="#008498" transform="scale(0.5 0.5)" d="M362.493 410.388L362.563 424.429L348.257 424.416C349.578 424.162 350.922 424.244 352.25 424.063C352.317 424.054 353.661 423.822 353.722 423.75C353.784 423.677 353.888 421.673 353.903 421.511C354.168 418.637 354.275 414.294 356.21 412.043C357.634 410.387 360.456 410.529 362.493 410.388Z"/>
	<path fill="white" transform="scale(0.5 0.5)" d="M351.847 430.049L362.388 430.006L362.395 443.463L351.874 443.485L351.847 430.049Z"/>
	<path fill="white" transform="scale(0.5 0.5)" d="M666.555 427.953L679.713 427.941L679.787 443.192L666.573 443.251L666.555 427.953Z"/>
	<path fill="#008498" transform="scale(0.5 0.5)" d="M392.54 398.946C393.124 393.481 392.62 387.454 392.612 381.935C392.581 362.309 390.572 341.498 398.972 323.172C401.77 317.068 406.143 310.851 410.141 305.452C407.748 314.36 405.642 323.117 404.683 332.31C403.886 339.946 404.383 347.985 404.404 355.673L404.494 399.074L392.54 398.946Z"/>
	<path fill="#008498" transform="scale(0.5 0.5)" d="M445.099 361.253C444.915 351.992 444.19 342.282 445.169 333.072C446.744 318.262 454.128 304.02 464.348 293.349C475.437 281.771 489.888 274.934 505.75 272.976C525.095 270.589 543.403 276.417 558.754 288.149C574.014 299.81 583.702 318.227 586.27 337.115C587.248 344.304 586.755 352.129 586.792 359.393L586.962 399.001L575.834 398.961L576.098 368.173C576.15 360.962 576.494 353.446 575.647 346.279C574.316 335.013 569.797 323.524 562.912 314.51C552.651 301.075 536.363 291.9 519.579 289.75C502.619 287.578 485.678 293.178 472.309 303.531C453.625 318.001 447.891 338.898 445.099 361.253Z"/>
	<path fill="white" transform="scale(0.5 0.5)" d="M509.697 237.712L513.27 237.597C540.616 237.548 569.308 249.372 588.563 268.768C603.827 284.144 615.362 305.819 618.961 327.25C620.841 338.438 620.457 349.756 620.447 361.051L620.389 398.805L592.272 398.904L592.23 362.97C592.195 354.754 592.606 346.262 591.864 338.091C590.496 323.039 584.324 308.313 575.08 296.43C561.57 279.06 542.533 269.716 521.053 267.062L514 266.682C493.551 266.642 474.51 275.022 460.172 289.485C448.993 300.761 441.006 317.366 439.483 333.23C438.645 341.956 439.227 351.073 439.239 359.853L439.295 399.033L410.324 399.077L410.389 357.367C410.408 348.657 410.006 339.685 410.65 331C412.162 310.615 420.691 290.357 434.069 274.954C453.532 252.544 480.184 239.713 509.697 237.712Z"/>
	<path fill="#64B8C3" transform="scale(0.5 0.5)" d="M445.099 361.253C447.891 338.898 453.625 318.001 472.309 303.531C485.678 293.178 502.619 287.578 519.579 289.75C536.363 291.9 552.651 301.075 562.912 314.51C569.797 323.524 574.316 335.013 575.647 346.279C576.494 353.446 576.15 360.962 576.098 368.173L575.834 398.961L444.981 399.038L445.099 361.253Z"/>
	<path fill="white" transform="scale(0.5 0.5)" d="M368.286 404.672L660.951 404.47L660.65 545.981C658.068 584.14 637.494 619.524 609.147 644.407C581.908 668.673 547.053 683.563 513.439 696.72C507.808 694.947 502.149 691.98 496.646 689.725C465.514 676.97 436.652 661.589 412.712 637.533C389.322 614.03 372.35 582.837 368.846 549.555C366.863 530.725 367.982 510.932 367.976 491.958L368.286 404.672Z"/>
	<path fill="#00093B" transform="scale(0.5 0.5)" d="M509.58 461.675C513.752 461.368 518.768 461.84 522.703 463.205C531.875 466.386 539.149 472.866 543.382 481.619C547.4 489.925 548.01 499.801 545.041 508.5C543.675 512.505 541.59 516.483 538.852 519.726C537.572 521.243 536.158 522.532 534.653 523.818C534.419 524.018 532.949 525.159 532.893 525.297C532.829 525.455 533.102 527.319 533.136 527.633L534.326 536.217L541.928 582.05L544.189 595.75C544.49 597.57 545.062 599.265 544.25 601.022C541.498 602.727 537.275 602.058 534.041 602.041L516.625 601.931L487 601.903C485.144 601.723 484.667 601.167 483.561 599.75C483.604 597.218 484.346 594.844 484.745 592.354L487.175 577.5L496.107 526.583L494.144 525.131C485.698 518.665 479.741 509.655 478.56 498.932C477.608 490.288 480.136 481.187 485.566 474.355C491.796 466.517 499.813 462.891 509.58 461.675Z"/>
	<path fill="white" transform="scale(0.5 0.5)" d="M514.952 467.191C523.619 468.623 530.57 472.51 535.768 479.727C540.303 486.023 542.199 493.717 540.955 501.401C540.456 504.487 539.464 507.214 538.242 510.063C537.427 504.578 538.137 498.778 536.75 493.404L536.508 492.5C534.35 484.18 529.694 478.71 522.675 474.039C520.738 472.75 517.153 471.552 515.869 469.75C515.469 469.188 515.2 467.881 514.952 467.191Z"/>
	<path fill="white" transform="scale(0.5 0.5)" d="M524.35 529.358L526.975 528.22C527.564 529.024 527.535 528.774 527.689 529.59L535.309 576.504C536.256 582.372 538.533 589.673 538.381 595.477C537.244 596.015 536.18 595.981 534.953 596.013L527.193 550.596C526.098 543.517 524.58 536.537 524.35 529.358Z"/>
	<path fill="#64B8C3" transform="scale(0.5 0.5)" d="M534.953 596.013L489.777 596.104L501.272 529.107C509.471 531.557 516.08 532.152 524.35 529.358C524.58 536.537 526.098 543.517 527.193 550.596L534.953 596.013Z"/>
	<path fill="#64B8C3" transform="scale(0.5 0.5)" d="M538.242 510.063C536.959 512.896 535.207 515.388 532.989 517.577C528.207 522.296 520.147 525.839 513.425 525.745C505.5 525.635 497.463 521.581 492.099 515.855C486.932 510.339 483.662 502.063 484.04 494.478C484.44 486.463 487.583 479.527 493.632 474.171C499.931 468.594 506.674 466.654 514.952 467.191C515.2 467.881 515.469 469.188 515.869 469.75C517.153 471.552 520.738 472.75 522.675 474.039C529.694 478.71 534.35 484.18 536.508 492.5L536.75 493.404C538.137 498.778 537.427 504.578 538.242 510.063Z"/>
	<defs>
		<linearGradient id="gradient_1" gradientUnits="userSpaceOnUse" x1="391.57025" y1="590.39777" x2="650.74896" y2="429.77655">
			<stop offset="0" stop-color="#B2C9D4"/>
			<stop offset="1" stop-color="#EEEAE8"/>
		</linearGradient>
	</defs>
	<path fill="url(#gradient_1)" transform="scale(0.5 0.5)" d="M377.499 419.453L401.034 419.424L401 501.901C400.988 517.353 399.837 533.571 401.975 548.875C403.445 559.394 406.575 569.343 410.949 579C430.681 622.561 470.292 645.332 513.292 661.534C524.754 657.502 535.732 652.555 546.574 647.092C562.116 639.26 576.946 630.243 589.34 617.84C608.332 598.835 621.105 570.775 623.337 544.065C623.863 537.778 623.597 531.26 623.607 524.949L623.589 493.178L623.395 419.938L646.282 419.878L646.18 443.21L646.026 498.139L646.446 534.508C646.452 544.219 646.473 553.579 645.026 563.206C643.562 572.942 640.469 582.722 636.632 591.767C632.521 601.459 625.956 610.362 619.313 618.462C613.454 625.607 607.311 632.604 600.327 638.688C592.483 645.522 583.941 651.084 575.046 656.414C566.273 661.671 557.227 666.828 547.976 671.21L514.359 685.356C509.094 684.675 503.079 681.446 498.144 679.405C471.336 668.32 443.436 654.283 422.748 633.542C404.466 615.214 391.651 594.463 383.702 569.916C380.917 561.317 378.515 552.273 377.634 543.25C377.053 537.302 377.304 531.133 377.302 525.156L377.343 496.143L377.499 419.453Z"/>
</svg>
