<?xml version="1.0" encoding="utf-8" ?>
<svg xmlns="http://www.w3.org/2000/svg" xmlns:xlink="http://www.w3.org/1999/xlink" width="512" height="512">
	<path fill="white" transform="scale(0.5 0.5)" d="M515.113 825.418L519.361 825.696C519.961 826.486 520.169 826.887 520.272 827.878L520.3 858.158L511.122 856.946L511.213 833.055C511.171 831.004 510.621 827.438 511.603 825.657L515.113 825.418Z"/>
	<path fill="white" transform="scale(0.5 0.5)" d="M512.507 162.569L515.949 162.299L515.944 166.793L515.787 211.888L515.897 229.751L515.89 291.595L513.409 291.45L513.162 239.871L512.73 212.017C512.176 206.705 512.565 201.011 512.556 195.661L512.507 162.569Z"/>
	<path fill="#9BA2A8" transform="scale(0.5 0.5)" d="M764.968 622.026C764.92 625.49 765.517 632.705 763.948 635.662L733.066 635.493L732.585 634.79L732.598 622.042L764.968 622.026Z"/>
	<path fill="#64B8C3" transform="scale(0.5 0.5)" d="M843.129 515.129C850.092 516.173 858.048 515.081 865.132 515.154C864.219 518.94 864.084 523.189 865.128 526.973L839.051 527.044C835.849 527.06 830.946 526.561 827.973 527.635L765.409 527.961C765.024 524.022 765.466 519.664 765.579 515.68L843.129 515.129Z"/>
	<path fill="white" transform="scale(0.5 0.5)" d="M569.459 742.044L586.066 742.178L586.142 767.494L586.419 767.65L586.5 817.507L573.868 817.59L569.75 817.699C569.524 817.466 569.207 817.295 569.072 817C568.469 815.681 569.044 810.247 569.041 808.591L569.078 768.031L569.389 767.621L569.459 742.044Z"/>
	<path fill="white" transform="scale(0.5 0.5)" d="M484.265 742.039L501.494 742.101L501.516 767.403L501.589 817.917L487.92 817.967L484.5 817.75C483.222 815.362 484.051 808.491 484.045 805.656L484.114 767.944L484.023 767.653C484.938 759.377 484.263 750.396 484.265 742.039Z"/>
	<path fill="white" transform="scale(0.5 0.5)" d="M526.027 742.077C531.442 742.042 538.223 741.252 543.48 742.163L543.473 767.943L543.412 786.775L543.542 817.754L536.35 817.848C535.842 817.434 527.298 817.682 525.976 817.661L525.919 767.726L526.077 766.924L526.027 742.077Z"/>
	<path fill="#FD4952" transform="scale(0.5 0.5)" d="M865.132 515.154L865.233 514.709C866.557 509.597 869.603 505.135 874.175 502.416C879.706 499.126 885.327 499.02 891.375 500.706C898.162 502.598 901.814 507.488 905.072 513.304C905.546 516.196 905.989 518.813 905.578 521.75L905.479 522.497C904.636 528.221 901.127 533.353 896.549 536.791C891.92 540.267 886.126 541.869 880.388 540.88C875.214 539.989 870.242 536.108 867.491 531.75L865.128 526.973C864.084 523.189 864.219 518.94 865.132 515.154Z"/>
	<path fill="#DE0035" transform="scale(0.5 0.5)" d="M881.086 511.58C882.737 511.501 884.622 511.283 886.229 511.668C888.896 512.307 891.42 514.054 892.851 516.408C894.105 518.473 894.595 521.223 893.828 523.572C892.727 526.944 890.252 528.856 887.19 530.416C886.033 530.681 884.779 531.012 883.586 530.901C880.667 530.629 877.985 528.793 876.283 526.473C874.741 524.37 874.091 521.657 874.669 519.094C875.52 515.318 877.942 513.536 881.086 511.58Z"/>
	<path fill="#64B8C3" transform="scale(0.5 0.5)" d="M764.968 622.026L866.474 622.312C864.531 626.863 863.695 631.012 863.658 635.968L764.006 635.931L763.948 635.662C765.517 632.705 764.92 625.49 764.968 622.026Z"/>
	<path fill="#FD4952" transform="scale(0.5 0.5)" d="M864.139 397.995C865.643 393.499 868.596 389.463 872.627 386.942C877.683 383.779 883.475 382.862 889.25 384.311C896.224 386.06 899.939 390.462 903.344 396.43C905.149 403.019 905.101 409.614 901.505 415.691C898.597 420.606 893.271 424.29 887.75 425.524C882.648 426.664 877.586 425.769 873.158 422.982C870.302 421.185 868.233 418.865 866.145 416.234L864.238 412.062C863.026 407.211 862.871 402.862 864.139 397.995Z"/>
	<path fill="#DE0035" transform="scale(0.5 0.5)" d="M881.058 395.048C882.869 394.907 885.223 394.716 886.963 395.255C889.477 396.032 891.977 398.675 893.004 401.053C893.908 403.143 893.802 405.898 892.993 408C891.616 411.574 888.853 413.345 885.508 414.85C883.958 414.978 882.541 414.975 881.014 414.615C878.251 413.963 875.684 411.961 874.25 409.526C873.048 407.484 872.726 405.255 873.445 403C874.835 398.633 877.168 397.145 881.058 395.048Z"/>
	<path fill="white" transform="scale(0.5 0.5)" d="M440.335 742.061C446.233 742.012 452.594 741.486 458.443 742.185L458.553 768.04L458.437 770.35L458.491 817.994L448.978 818.001C446.31 818.02 442.565 818.472 440.046 817.799L440.051 767.561L440.335 742.061Z"/>
	<path fill="#FD4952" transform="scale(0.5 0.5)" d="M866.474 622.312C868.449 619.384 870.592 616.819 873.609 614.916C879.044 611.486 884.051 610.773 890.187 612.14L895.034 614.541C899.654 618.575 902.253 621.824 904.556 627.543C905.802 633.772 905.913 638.982 902.292 644.607C899.094 649.576 894.117 653.102 888.302 654.277C882.976 655.353 877.012 653.71 872.631 650.615C869.407 648.336 866.854 645.192 865.114 641.667L863.658 635.968C863.695 631.012 864.531 626.863 866.474 622.312Z"/>
	<path fill="#DE0035" transform="scale(0.5 0.5)" d="M881.598 624.083C884.03 623.945 886.202 623.715 888.5 624.751C890.271 625.55 892.239 627.612 892.965 629.421L893.15 629.922C893.995 632.119 894.286 634.118 893.517 636.406C892.294 640.041 889.457 642.108 886.163 643.762C884.625 643.938 882.982 644.165 881.464 643.766C879.111 643.146 876.794 641.466 875.545 639.365C874.144 637.011 873.625 634.629 874.413 631.987C875.63 627.909 877.993 626.004 881.598 624.083Z"/>
	<path fill="#FD4952" transform="scale(0.5 0.5)" d="M613.496 860.311C618.826 858.132 624.352 857.705 629.996 858.488C636.079 860.645 639.507 863.332 642.927 868.745L643.81 871.03C645.349 877.687 645.647 883.726 641.891 889.761C638.661 894.949 632.639 899.092 626.626 900.216C621.967 901.087 617.834 899.343 613.636 897.621C609.105 893.863 604.608 889.791 603.059 883.867L602.908 883.25C602.161 880.343 602.241 876.851 602.959 873.938C604.498 867.69 608.181 863.681 613.496 860.311Z"/>
	<path fill="#DE0035" transform="scale(0.5 0.5)" d="M622.513 865.131C624.713 865.073 626.998 865.34 629.041 866.202C632.148 867.515 635.109 871.025 636.313 874.166C637.567 877.439 637.393 881.595 635.821 884.72C633.722 888.893 629.894 890.774 625.669 892.084C623.116 892.094 620.619 892.103 618.25 891.021C615.034 889.554 612.339 887.091 611.086 883.732L610.856 883.08L610.256 881.2C609.564 877.966 610.334 874.419 612.096 871.65C614.664 867.616 617.932 866.036 622.513 865.131Z"/>
	<path fill="#FD4952" transform="scale(0.5 0.5)" d="M127.746 540.189C123.859 537.741 120.399 535.034 118.088 530.957C115.398 526.213 114.568 520.577 116.156 515.324C118.012 509.183 121.58 504.348 127.386 501.404C132.649 498.736 139.052 498.528 144.614 500.411C150.446 502.386 153.72 506.605 156.26 511.947C157.269 516.124 157.749 519.69 157.489 523.986L156.622 527.644C154.11 533.482 151.002 537.347 144.925 539.797C139.333 542.052 133.45 541.871 127.746 540.189Z"/>
	<path fill="#DE0035" transform="scale(0.5 0.5)" d="M133.975 511.038C135.871 511.017 138.472 510.788 140.181 511.697C141.634 512.469 143.422 514.299 143.961 515.89L144.14 516.472C144.583 517.858 145.48 519.862 145.053 521.285L143.989 524.75C142.947 527.385 141.186 528.269 138.7 529.33C136.959 529.431 135.13 529.34 133.424 528.969C131.011 528.446 129.327 526.829 128.183 524.705C127.158 522.801 127.047 518.765 127.773 516.762C128.937 513.548 131.036 512.368 133.975 511.038Z"/>
	<path fill="#FD4952" transform="scale(0.5 0.5)" d="M137.992 608.965C144.054 609.604 147.259 611.195 151.993 615.089L155.803 620.042C157.773 624.605 157.584 628.494 157.575 633.383L156.759 637.237C155.01 642.62 151.71 646.313 146.75 648.98C140.707 652.229 135.178 652.019 128.629 650.588L124.662 648.183C119.814 644.764 116.295 639.422 115.366 633.518C114.521 628.153 116.514 621.856 119.777 617.598C124.163 611.875 131.175 609.811 137.992 608.965Z"/>
	<path fill="#DE0035" transform="scale(0.5 0.5)" d="M133.483 621.623C136.127 621.457 138.213 621.419 140.643 622.655C142.838 623.771 144.33 625.88 144.882 628.273C145.369 630.386 145.128 633.391 143.944 635.204L143.563 635.75C142.177 637.803 140.614 638.72 138.525 639.934L133.75 639.913C131.629 639.606 129.357 637.751 128.289 635.922C126.884 633.514 126.36 629.937 127.318 627.236C128.403 624.173 130.72 622.97 133.483 621.623Z"/>
	<path fill="#FD4952" transform="scale(0.5 0.5)" d="M397.993 161.391C393.699 159.297 390.481 156.073 388.11 151.945C385.398 147.222 384.681 141.557 386.161 136.303C387.727 130.746 391.615 125.761 396.75 123.076C402.448 120.097 408.63 119.6 414.688 121.682C421.039 123.866 424.414 129.29 427.138 135.029C428.654 142.016 428.382 147.892 424.339 154.13C421.852 157.967 418.295 160.947 413.901 162.337C408.356 163.558 403.401 162.861 397.993 161.391Z"/>
	<path fill="#DE0035" transform="scale(0.5 0.5)" d="M404.604 129.161C407.349 128.927 409.963 129.106 412.519 130.18C415.16 131.29 417.846 133.968 418.838 136.67C420.008 139.86 419.968 143.417 418.48 146.5C416.62 150.352 413.563 152.251 409.68 153.708C406.88 154.017 404.213 153.737 401.625 152.579C398.279 151.081 396.02 148.331 394.873 144.883C393.78 141.597 394.489 137.968 396.177 135.036C398.09 131.716 401.074 130.224 404.604 129.161Z"/>
	<path fill="#FD4952" transform="scale(0.5 0.5)" d="M491.85 139.708L493.009 134.096C494.693 128.539 499.068 123.846 504.253 121.306C508.798 119.079 515.472 118.599 520.243 120.337C527.316 122.913 530.577 127.947 533.633 134.416C534.697 138.621 534.976 142.362 533.674 146.568L533.453 147.297C531.618 153.074 527.256 157.975 521.838 160.64C519.866 161.61 518.127 162.092 515.949 162.299L512.507 162.569C510.12 162.297 507.524 162.057 505.286 161.135C498.439 158.31 495.564 152.869 492.844 146.42L491.85 139.708Z"/>
	<path fill="#DE0035" transform="scale(0.5 0.5)" d="M509.963 128.597C512.79 128.228 515.668 128.183 518.376 129.2C521.144 130.239 523.776 132.962 524.847 135.721C525.964 138.598 526.049 142.009 524.801 144.853C523.029 148.888 519.984 151.109 516.045 152.7L515.567 152.748C513.389 152.985 511.358 153.172 509.25 152.415C506.231 151.332 503.285 148.735 501.966 145.782C500.663 142.866 500.422 139.004 501.556 136C503.082 131.959 506.257 130.221 509.963 128.597Z"/>
	<path fill="#FD4952" transform="scale(0.5 0.5)" d="M126.303 423.292C121.779 419.782 118.402 416.39 116.505 410.863C114.636 405.419 115.512 399.578 118.066 394.5C120.672 389.317 125.447 385.596 130.936 383.849C136.376 382.117 142.384 383.008 147.381 385.652C152.531 388.378 155.532 392.434 157.292 397.825C157.512 402.135 157.936 406.691 157.063 410.957C156.365 413.206 155.678 415.263 154.527 417.337C150.317 422.025 145.318 425.79 138.759 426.078C134.318 426.273 130.312 425.123 126.303 423.292Z"/>
	<path fill="#DE0035" transform="scale(0.5 0.5)" d="M134.613 394.541C135.959 394.551 137.454 394.655 138.75 395.021C141.01 395.658 143.583 397.694 144.73 399.741C145.956 401.931 146.584 404.944 145.845 407.386C144.794 410.863 141.637 413.11 138.548 414.595C136.929 414.624 135.362 414.661 133.832 414.057C130.758 412.843 128.5 410.67 127.346 407.575C126.548 405.432 126.607 402.309 127.632 400.25C129.105 397.293 131.567 395.584 134.613 394.541Z"/>
	<path fill="#FD4952" transform="scale(0.5 0.5)" d="M398.054 857.702C403.155 856.885 408.034 856.512 412.974 858.378C418.847 861.686 423.935 865.47 425.777 872.382C427.368 878.347 426.681 884.925 423.483 890.25C420.768 894.77 416.461 897.946 411.5 899.59L410.749 899.846C407.035 901.05 402.924 900.714 399.14 900.026C393.773 897.96 389.392 895.021 386.484 889.925C383.614 884.896 382.58 878.464 384.207 872.861L384.471 872L384.971 870.359C387.214 863.856 392.18 860.566 398.054 857.702Z"/>
	<path fill="#DE0035" transform="scale(0.5 0.5)" d="M401.589 865.12C403.85 865.014 406.457 864.694 408.635 865.421C412.325 866.653 415.806 869.657 417.368 873.25C418.769 876.474 418.825 879.506 417.495 882.75C415.572 887.438 412.071 890.003 407.562 891.919C405.098 892.388 402.587 892.383 400.188 891.563C396.79 890.402 394.001 887.722 392.469 884.504C390.816 881.032 390.848 876.792 392.318 873.258C394.166 868.815 397.333 866.803 401.589 865.12Z"/>
	<path fill="#FD4952" transform="scale(0.5 0.5)" d="M604.663 133.058C607.583 127.415 611.25 122.549 617.528 120.427C623.274 118.484 629.715 118.736 635.154 121.509C640.703 124.337 643.941 129.496 645.765 135.272C647.114 141.579 646.286 147.515 642.825 153.051C639.857 157.8 635.529 160.839 630.112 162.136C625.144 162.992 620.923 162.32 616.112 160.979C612.247 159.541 609.642 156.983 606.964 153.965L606.137 152.436C602.545 145.395 602.248 140.575 604.663 133.058Z"/>
	<path fill="#DE0035" transform="scale(0.5 0.5)" d="M621.016 128.583C623.374 128.411 625.706 128.2 628 128.895C631.388 129.922 634.404 132.187 635.975 135.417C637.447 138.441 637.497 142.171 636.259 145.294C634.619 149.434 631.839 151.469 627.886 153.278C625.614 153.658 622.778 153.73 620.635 152.855C617.087 151.408 614.195 148.83 612.74 145.242C611.537 142.278 611.425 138.596 612.756 135.656C614.488 131.831 617.283 130.122 621.016 128.583Z"/>
	<path fill="#FD4952" transform="scale(0.5 0.5)" d="M511.122 856.946L520.3 858.158C526.003 860.447 529.763 863.684 533.059 868.868L534.129 871.411C535.65 878.506 536.051 884.26 531.914 890.664C528.844 895.418 524.217 899.028 518.626 900.232C514.757 901.065 510.73 900.564 506.91 899.773C504.78 898.902 502.658 897.931 500.716 896.687C496.052 893.7 492.694 888.554 491.608 883.169C490.444 877.397 491.821 871.215 495.135 866.358C499.028 860.652 504.529 858.142 511.122 856.946Z"/>
	<path fill="#DE0035" transform="scale(0.5 0.5)" d="M512.395 865.143C514.849 865.05 517.448 865.545 519.63 866.692C523.266 868.603 525.594 871.872 526.75 875.732C527.585 878.52 527.329 881.779 525.923 884.323C523.494 888.721 519.802 890.875 515.089 892.228C511.504 892.137 508.691 891.928 505.568 889.917C502.533 887.963 500.518 884.69 499.879 881.161C499.228 877.565 500.207 873.222 502.433 870.309C504.941 867.028 508.406 865.721 512.395 865.143Z"/>
	<path fill="white" transform="scale(0.5 0.5)" d="M765.409 527.961L827.973 527.635C830.634 529.536 833.42 531.492 833.943 535C834.313 537.478 834.085 540.22 832.346 542.162C829.05 545.842 822.263 544.999 817.769 545.014L805.153 545.011L765.329 544.898L732.491 544.665L732.443 528.014L765.409 527.961Z"/>
	<path fill="white" transform="scale(0.5 0.5)" d="M765.377 487.847L805.03 487.588C811.85 487.59 819.781 486.804 826.489 487.821C828.414 488.113 830.101 488.637 831.596 489.93C832.598 490.797 833.427 491.809 834.182 492.891C834.905 495.773 835.279 498.46 833.707 501.156C832.518 503.195 830.354 504.696 828.038 505.115C821.639 506.273 813.587 505.082 806.976 505.05L765.402 504.936L732.542 504.481L732.283 502.484L732.401 488.088L765.377 487.847Z"/>
	<path fill="white" transform="scale(0.5 0.5)" d="M397.848 742.077L412.963 742.127L413.039 767.385L412.974 858.378C408.034 856.512 403.155 856.885 398.054 857.702L398.014 811.027L397.976 767.385L397.848 742.077Z"/>
	<path fill="white" transform="scale(0.5 0.5)" d="M480.939 198.928L499.69 198.923L499.808 240.755L499.653 291.544L480.976 291.509L480.99 239.774L480.925 234.695L480.939 198.928Z"/>
	<path fill="white" transform="scale(0.5 0.5)" d="M537.372 198.942L544.679 198.909L544.526 212.063L544.542 239.23L544.751 291.94C538.678 291.972 532.079 292.467 526.08 291.648L525.994 240.073L526.003 211.664L526.065 198.921L537.372 198.942Z"/>
	<path fill="white" transform="scale(0.5 0.5)" d="M450.458 827.619C453.157 826.477 457.317 826.975 460.262 826.986L460.44 892.235C465.757 893.797 469.14 895.763 472.684 900.069C473.897 902.48 474.711 904.906 475.791 907.341C476.249 913.261 475.588 918.566 471.491 923.251C468.192 927.025 463.184 929.639 458.153 929.966C455.341 930.149 452.827 929.89 450.112 929.157C448.343 928.286 446.56 927.407 444.987 926.204C439.99 922.382 438.228 917.684 437.349 911.712C437.626 906.201 439.122 902.644 442.11 898.14C443.541 896.918 445.124 895.601 446.783 894.705C448.168 893.957 449.889 893.437 451.038 892.367L451.055 847.488L451.036 835.871C451.031 833.087 451.291 830.301 450.458 827.619Z"/>
	<path fill="white" transform="scale(0.5 0.5)" d="M551.442 901.508C554.764 896.45 557.974 894.294 563.587 892.202L563.667 826.129L573.28 826.135C572.501 833.657 572.99 841.529 572.989 849.111L573.008 892.07L573.645 892.261C579.012 893.927 583.173 896.857 585.735 901.968L586.256 903.068L587.161 905.534C588.539 910.955 588.131 915.427 585.229 920.307C582.485 924.921 578.035 928.025 572.859 929.239C568.693 930.216 563.815 929.445 559.956 927.711C558.107 926.432 556.19 925.061 554.662 923.403C550.021 918.368 549.313 913.533 549.561 906.987L551.442 901.508Z"/>
	<path fill="#64B8C3" transform="scale(0.5 0.5)" d="M181.708 397.828L290.921 397.197L290.888 410.175L290.409 410.958L157.063 410.957C157.936 406.691 157.512 402.135 157.292 397.825L181.708 397.828Z"/>
	<path fill="white" transform="scale(0.5 0.5)" d="M203.439 503.371C200.039 503.414 194.589 504.222 191.455 503.223L191.492 485.399L291.001 484.995L290.964 502.915L290.685 503.11L203.439 503.371Z"/>
	<path fill="white" transform="scale(0.5 0.5)" d="M200.706 619.912L290.567 619.701L290.596 633.323L203.951 633.418L157.575 633.383C157.584 628.494 157.773 624.605 155.803 620.042L200.706 619.912Z"/>
	<path fill="white" transform="scale(0.5 0.5)" d="M616.112 160.979C620.923 162.32 625.144 162.992 630.112 162.136L630.132 240.027L630.02 291.887L616.872 291.96C616.664 291.695 616.141 291.055 616.075 290.75C615.846 289.691 616.077 287.942 616.078 286.824L616.083 277.955L616.106 240.014L616.112 160.979Z"/>
	<path fill="#64B8C3" transform="scale(0.5 0.5)" d="M765.137 397.512L864.139 397.995C862.871 402.862 863.026 407.211 864.238 412.062L765.059 412.429L732.466 412.103L732.477 397.695L765.137 397.512Z"/>
	<path fill="white" transform="scale(0.5 0.5)" d="M613.372 742.017L629.953 742.119L630.022 767.413L629.996 858.488C624.352 857.705 618.826 858.132 613.496 860.311L613.379 767.407L613.372 742.017Z"/>
	<path fill="white" transform="scale(0.5 0.5)" d="M397.993 161.391C403.401 162.861 408.356 163.558 413.901 162.337L413.992 240.224L413.997 291.711L397.176 291.763L397.55 241.025L397.993 161.391Z"/>
	<path fill="white" transform="scale(0.5 0.5)" d="M190.038 527.487L290.981 527.603L290.868 548.536L208.118 548.503L190.093 548.335L190.053 541.847L190.038 527.487Z"/>
	<path fill="#64B8C3" transform="scale(0.5 0.5)" d="M290.685 503.11L290.964 502.915L291 512.449L290.991 523.6L157.489 523.986C157.749 519.69 157.269 516.124 156.26 511.947L203.427 511.968L203.439 503.371L290.685 503.11Z"/>
	<path fill="#008498" transform="scale(0.5 0.5)" d="M290.685 503.11L290.964 502.915L291 512.449L209.217 512.124L209.125 503.492L267.181 503.529L282.472 503.522C285.169 503.521 288.076 503.826 290.685 503.11Z"/>
	<path fill="white" transform="scale(0.5 0.5)" d="M130.367 598.282C124.457 595.874 120.225 592.379 117.45 586.528C115.088 581.549 115.027 576.609 116.974 571.5C118.831 566.63 122.885 562.935 127.669 561.03C132.602 559.065 138.415 559.239 143.269 561.343C148.225 563.491 151.029 567.111 153.067 571.969L290.537 571.915L290.594 584.194L290.444 585.496L204.732 585.48L153.918 585.615C153.078 586.034 152.784 585.996 152.335 586.852C149.712 591.859 145.581 596.331 140.028 598.071C136.975 599.028 133.483 598.687 130.367 598.282Z"/>
	<path fill="white" transform="scale(0.5 0.5)" d="M128.558 478.751C125.363 477.239 122.694 475.744 120.436 472.94C117.163 468.874 115.297 463.73 115.926 458.5C116.587 452.997 119.226 448.462 123.707 445.173C128.052 441.983 133.288 441.044 138.517 441.971C144.257 442.99 147.991 445.831 151.242 450.563L151.636 451.148L212.262 451.034L290.94 451.046L290.94 465.237L201.914 465.381L170.866 465.385C165.327 465.383 159.496 465.746 153.992 465.177C150.861 471.38 147.194 476.62 140.25 478.921C136.47 480.173 132.345 479.675 128.558 478.751Z"/>
	<path fill="white" transform="scale(0.5 0.5)" d="M129.403 357.244C124.65 355.515 121.029 353.301 118.507 348.709C115.674 343.552 115.116 338.114 116.89 332.484C118.39 327.724 121.857 323.706 126.385 321.57C131.521 319.147 137.61 319.287 142.863 321.272C148.46 323.385 151.329 327.567 153.655 332.763L188.904 333.016C193.204 335.377 195.949 339.981 199.171 343.566L212.652 361.392L213.098 361.962C216.209 362.635 219.709 362.253 222.869 362.128L234.886 362.056L290.991 361.98L290.973 375.923L208.345 375.986C204.184 373.204 200.431 367.394 197.233 363.544C192.373 357.744 187.936 351.356 182.356 346.232C179.518 345.808 176.442 346.094 173.576 346.128L158.926 346.317C157.936 346.33 153.591 346.006 152.899 346.399C152.249 346.768 150.99 349.587 150.494 350.342C149.358 352.074 147.77 353.65 146.042 354.79C140.674 358.332 135.459 358.435 129.403 357.244Z"/>
	<path fill="white" transform="scale(0.5 0.5)" d="M328.056 140.118C325.965 137.936 324.044 135.789 322.735 133.018C320.386 128.043 320.498 122.2 322.355 117.078C324.043 112.424 327.831 108.88 332.338 106.96C336.923 105.007 343.068 104.906 347.668 106.789C354.077 109.412 356.834 114.256 359.353 120.333C359.819 126.337 359.203 131.521 355.245 136.351C352.684 139.477 349.746 141.308 346.041 142.794L345.991 174.586C345.987 177.48 345.356 182.268 345.983 184.981C346.141 185.66 349.514 188.675 350.15 189.342L364.172 204.079C366.06 205.93 369.301 208.458 370.345 210.887C370.835 212.027 370.686 214.894 370.801 216.243L371.059 240.668L371.125 274.579C371.133 280.123 371.559 286.044 370.992 291.539L357.382 291.585L357.465 240.092L357.497 219.036C357.464 217.973 357.673 215.693 357.365 214.75C357.179 214.18 355.156 212.586 354.564 212.008L343.204 201.092L333.513 191.704C332.171 190.585 333.57 150.087 332.763 143.937L332.631 143.002C331.392 141.871 329.505 141 328.056 140.118Z"/>
	<path fill="white" transform="scale(0.5 0.5)" d="M807.497 361.056L811.5 360.889C813.312 359.201 814.568 356.804 815.879 354.719L822.872 343.497C824.193 341.349 825.503 338.762 827.25 336.941C829.002 335.115 831.451 333.999 833.882 333.387C837.419 332.496 841.767 332.897 845.426 332.882L867.511 332.829C869.538 328.875 872.233 325.82 876.117 323.595C880.123 321.3 885.687 320.448 890.173 321.834C896.612 323.823 900.24 328.822 903.148 334.505C904.364 340.138 904.194 345.326 901.059 350.395C898.378 354.728 894.297 357.79 889.328 358.965C884.459 360.116 878.817 359.445 874.633 356.614C871.967 354.811 869.8 352.124 868.002 349.5L866.524 347.409L846.853 347.188C843.926 347.188 840.409 346.829 837.578 347.41C830.568 356.321 825.168 373.731 812.467 375.418C807.847 376.032 802.703 375.623 798.02 375.662L764.918 375.718L764.327 375.517L732.407 375.814L732.361 361.358L760.797 361.129L765.764 361.108L807.497 361.056Z"/>
	<path fill="white" transform="scale(0.5 0.5)" d="M765.427 571.072L866.79 571.323C869.136 566.106 872.523 561.034 878.116 558.917C883.285 556.961 889.982 557.003 894.935 559.55C899.724 562.013 902.334 565.983 904.753 570.601C906.447 576.382 906.561 581.242 903.61 586.661C900.85 591.728 896.336 595.601 890.726 597.123C885.181 598.629 879.521 597.495 874.646 594.605C873.234 593.768 871.987 592.653 870.726 591.611C869.303 590.092 868.132 588.351 866.91 586.67L765.009 586.364L732.815 586.192C732.001 581.491 732.568 575.864 732.543 571.051L765.427 571.072Z"/>
	<path fill="white" transform="scale(0.5 0.5)" d="M655.04 240.05L655.027 235.934C654.992 223.786 652.793 210.625 663.081 201.751C666.494 198.808 670.828 196.914 673.935 193.618C675.331 192.137 676.457 190.477 676.889 188.461C677.684 184.746 677.138 179.69 677.151 175.834L677.024 142.6C672.858 140.311 669.711 138.052 667.25 133.91C664.417 129.141 663.661 123.551 665.173 118.226C666.571 113.303 670.412 109.039 674.958 106.76C679.607 104.43 685.889 104.377 690.699 106.23C695.155 107.946 698.876 111.907 700.676 116.288C702.502 120.73 702.342 125.225 701.344 129.811C699.624 133.875 697.584 137.234 693.797 139.726C693.166 140.142 690.941 141.282 690.59 141.833C690.384 142.158 690.907 148.251 690.943 148.997L690.851 176.998C690.822 182.162 691.388 188.668 690.022 193.628C688.984 197.395 686.811 201.045 684.079 203.806C677.819 210.132 668.606 210.458 668.542 221.482L668.598 240.233C668.657 243.295 668.465 246.662 668.93 249.679L668.899 291.899L655.028 291.904L655.04 240.05Z"/>
	<path fill="white" transform="scale(0.5 0.5)" d="M204.827 661.118L210.555 654.91L290.451 654.547L290.963 655.795C290.923 657.112 290.715 658.703 290.887 659.993L290.624 669.003L234.191 668.965L222.029 668.955C221.018 668.956 219.226 668.713 218.28 669.004C217.626 669.206 217.442 669.324 217.031 669.74C213.828 672.981 211.018 676.678 207.975 680.078L197.576 691.182C195.112 693.9 192.575 697.415 189.602 699.553L157.35 699.588L152.75 699.485C152.232 700.165 152.002 700.729 151.715 701.515C150.219 705.611 146.027 709.535 142.094 711.348C138.024 713.223 132.956 713.122 128.702 711.898C124.658 710.076 121.131 707.61 118.75 703.796C115.808 699.083 114.915 693.564 116.411 688.219C117.95 682.721 121.741 678.211 126.75 675.514C130.999 673.225 136.177 672.953 140.772 674.262C146.966 676.026 149.985 680.503 152.816 685.919L182.904 685.743L204.827 661.118Z"/>
	<path fill="white" transform="scale(0.5 0.5)" d="M368.32 741.952L369.931 742.75L370.085 767.394C371.314 777.884 370.433 789.693 370.346 800.316C370.33 802.248 370.713 807.515 370.033 809.061C370.018 809.095 369.378 809.907 369.29 810.019C364.327 816.273 358.374 821.951 352.84 827.715C351.843 828.753 348.888 831.143 348.509 832.221C348.274 832.892 348.511 834.731 348.512 835.561L348.519 844.665L348.633 893.042C354.085 896.677 357.816 900.21 359.53 906.75L359.715 907.43C360.831 911.874 359.596 916.987 357.25 920.806C354.392 925.459 349.878 928.781 344.484 929.834C340.999 930.515 337.365 930.025 333.957 929.214C331.777 928.305 329.509 927.181 327.786 925.539C323.902 921.836 321.429 916.621 321.297 911.25C321.142 904.997 323.997 898.908 329.19 895.257C329.993 894.692 334.825 892.342 334.969 891.88C335.172 891.226 334.968 889.379 334.967 888.62L334.964 880.425L334.948 837.522C334.947 834.705 334.254 829.743 334.944 827.128C335.108 826.504 337.032 824.771 337.607 824.129L349.952 811.139L350.253 810.848C351.257 809.866 355.489 806.221 355.922 805.081C356.635 803.205 356.02 798.197 356.017 796.101L356.071 763.052L355.921 762.379L355.903 742.265L368.32 741.952Z"/>
	<path fill="white" transform="scale(0.5 0.5)" d="M732.564 655.676L813.271 655.475L845.72 687.418L846.466 687.335C853.363 686.602 860.966 688.045 867.669 686.939C871.005 681.323 874.665 677.463 881.183 675.688C886.171 674.33 890.974 674.7 895.457 677.417C899.678 679.975 902.305 683.389 904.768 687.56C906.485 693.178 906.838 698.525 904.037 703.932C901.541 708.751 896.174 712.796 891.03 714.298C886.413 715.646 881.31 715.414 877.051 713.098C874.656 711.795 872.606 710.019 870.768 708.023L866.805 701.49L846.952 701.427L840.145 701.451L808.177 670.401L765.664 670.497L732.487 670.501L732.564 655.676Z"/>
	<path fill="white" transform="scale(0.5 0.5)" d="M885.373 438.945C889.565 439.364 892.678 440.379 896.446 442.305C900.232 445.578 902.607 448.287 904.694 452.919C906.227 458.605 905.919 464.249 902.883 469.431C900.146 474.1 894.833 478.145 889.487 479.297C883.395 480.609 877.917 479.208 872.842 475.67C868.365 472.55 866.828 468.196 865.453 463.243C865.413 463.1 865.065 462.036 865.043 462.027C864.417 461.766 861.857 462.014 861.081 462.011L845.736 461.981L765.204 461.97L732.509 461.968L732.46 446L765.108 445.933L868.792 446.272C870.299 446.43 874.662 442.391 876.307 441.52C879.18 439.998 882.215 439.499 885.373 438.945Z"/>
	<path fill="white" transform="scale(0.5 0.5)" d="M654.479 742.039L668.574 742.115L668.647 767.508L668.859 767.575L668.989 805.833L681.347 816.974C684.298 819.862 689.207 823.658 691.007 827.327L691.029 844.409L691.122 892.188C693.312 893.348 695.465 894.448 697.422 895.987L701.57 901.012C703.874 906.939 704.564 912.486 701.847 918.514C699.576 923.554 694.976 927.367 689.766 929.075C686.301 930.21 682.801 930.156 679.216 929.799C673.618 927.507 669.675 924.758 666.647 919.384C664.114 914.89 663.367 910.374 664.914 905.406C666.762 899.472 670.656 895.664 676.002 892.723L676.615 892.391C677.463 886.513 676.784 879.585 676.792 873.606L676.902 832.862L664.117 820.821C662.712 819.399 654.782 811.913 654.417 810.687C653.532 807.714 654.25 802.183 654.269 798.945L654.48 767.516L654.479 742.039Z"/>
	<path fill="white" transform="scale(0.5 0.5)" d="M442.083 240.094L441.991 198.487L449.684 198.441L449.373 143.054C445.835 140.964 442.682 138.355 440.334 134.957C437.49 130.839 436.087 124.45 437.225 119.481C438.365 114.501 441.905 110.03 446.247 107.407C450.483 104.847 455.864 104.13 460.652 105.349C465.506 106.584 469.807 109.855 472.306 114.184C473.514 116.275 474.169 118.563 474.793 120.878C474.96 127.046 473.944 132.617 469.493 137.25C467.439 139.389 464.646 141.134 461.969 142.385L461.966 161.462L461.963 193.48C461.957 198.836 462.987 207.177 461.121 212.133C459.974 213.814 460.521 217.763 460.513 219.786L460.485 239.931L460.469 291.807L442.175 291.716L442.083 240.094Z"/>
	<path fill="white" transform="scale(0.5 0.5)" d="M568.016 240.042L567.902 211.75L566.5 211.075C565.575 209.663 565.961 207.614 565.962 205.934L565.967 194.806L565.881 142.263C561.829 140.763 558.412 138.562 555.753 135.122C552.542 130.969 551.218 125.955 551.934 120.777C552.639 115.673 555.515 111.054 559.75 108.11C564.282 104.96 569.665 104.117 575.018 104.982C579.872 105.766 584.454 108.838 587.166 112.915C588.286 114.599 589.018 116.501 589.757 118.373C590.82 124.23 590.532 129.681 587.063 134.798C585.847 136.59 584.256 138.165 582.451 139.363C581.783 139.807 579.077 141.109 578.744 141.61C578.254 142.345 578.835 193.519 578.877 198.669C581.08 199.362 584.554 198.964 586.921 198.965L586.943 212.292L587.012 239.48L586.963 291.938L567.974 291.756L568.016 240.042Z"/>
	<path fill="#00366C" transform="scale(0.5 0.5)" d="M480.976 291.509L499.653 291.544L513.409 291.45L515.89 291.595L526.08 291.648C532.079 292.467 538.678 291.972 544.751 291.94L557.854 291.647C561.156 291.636 564.708 291.362 567.974 291.756L586.963 291.938L602.017 291.881L616.872 291.96L630.02 291.887L646.063 291.886L655.028 291.904L668.899 291.899L683.502 291.511C697.047 292.071 708.781 297.921 717.983 307.812C725.033 315.389 729.061 323.991 731.795 333.9C733.199 342.819 732.446 352.342 732.361 361.358L732.407 375.814L732.469 392.527L732.477 397.695L732.466 412.103L732.509 415.881L732.343 431.508L732.46 446L732.509 461.968L731.897 488C731.872 492.742 731.535 497.634 732.001 502.353L732.283 502.484L732.542 504.481L765.402 504.936C765.304 508.047 766.017 512.633 765.159 515.463L732.312 515.166L732.376 527.495L732.443 528.014L732.491 544.665C732.347 549.22 732.824 554.546 732.141 558.971C731.868 560.74 732.252 562.779 732.428 564.556L732.543 571.051C732.568 575.864 732.001 581.491 732.815 586.192C732.609 593.102 733.454 600.794 732.455 607.55L732.598 622.042L732.585 634.79L732.564 655.676L732.487 670.501L732.485 681.031C732.525 684.46 732.745 688.098 732.309 691.498C730.671 704.254 724.694 716.747 715.75 725.961C707.523 734.435 694.012 741.77 682.063 742.121L668.574 742.115L654.479 742.039L643.923 742.052L629.953 742.119L613.372 742.017L599.516 742.064L586.066 742.178L569.459 742.044L557.299 742.045L543.48 742.163C538.223 741.252 531.442 742.042 526.027 742.077L515.134 742.086L501.494 742.101L484.265 742.039L471.945 742.058L458.443 742.185C452.594 741.486 446.233 742.012 440.335 742.061L427.928 742.052L412.963 742.127L397.848 742.077L385.017 742.033L368.32 741.952L355.903 742.265C347.346 742.52 339.782 741.85 331.42 740.126C329.598 738.835 326.977 738.126 324.923 737.184C320.092 734.969 315.464 731.922 311.557 728.323C300.245 717.903 291.52 703.042 290.906 687.387L290.887 659.993C290.715 658.703 290.923 657.112 290.963 655.795C291.577 651.254 290.884 645.896 290.906 641.25L290.815 600.396C290.752 595.079 291.401 589.423 290.594 584.194L290.537 571.915L290.606 571.576C291.364 569.341 290.874 565.762 290.855 563.404L290.868 548.536L290.981 527.603L290.991 523.6L291 512.449L290.964 502.915L291.001 484.995L291.023 480.673L290.94 465.237L290.94 451.046L290.953 431.862L290.888 410.175L290.921 397.197L290.955 390.071L290.973 375.923L290.991 361.98C290.896 354.06 290.155 345.304 291.199 337.465C292.733 325.941 298.285 315.092 306.437 306.85C313.029 300.186 322.823 294.4 332.092 292.615C337.897 291.497 343.73 291.719 349.61 291.798L370.935 291.891L386.478 291.655L397.176 291.763L413.997 291.711L428.932 291.534C433.257 291.558 437.894 291.23 442.175 291.716L460.469 291.807L472.891 291.637L475.392 291.443L480.976 291.509Z"/>
	<defs>
		<linearGradient id="gradient_0" gradientUnits="userSpaceOnUse" x1="518.56201" y1="671.9657" x2="517.34064" y2="732.3446">
			<stop offset="0" stop-color="#AEA6A5"/>
			<stop offset="1" stop-color="#9AAAB5"/>
		</linearGradient>
	</defs>
	<path fill="url(#gradient_0)" transform="scale(0.5 0.5)" d="M719.027 670.933C719.61 674.485 719.526 678.072 719.535 681.661C719.564 693.497 717.447 702.591 710.392 712.327C703.97 721.19 693.144 727.964 682.3 729.663C677.613 730.397 672.442 730.009 667.691 730.017L641.594 730.029L550.249 730.015L411.733 729.997L368.901 729.99C361.736 729.99 354.192 730.503 347.084 729.802C338.578 728.963 330.328 726.453 323.471 721.209C319.669 718.302 315.223 714.349 313.163 709.974C315.378 710.969 317.069 712.586 319.101 713.858C321.383 715.286 324.052 716.468 326.617 717.314C328.917 718.072 331.338 718.474 333.758 718.534L393.97 718.145L515.84 718.097L620.028 718.144L674 718.007C679.554 717.748 685.511 715.69 690.448 713.192C701.371 707.665 709.295 697.988 713.952 686.808C716.096 681.66 717.323 676.223 719.027 670.933Z"/>
	<path fill="white" transform="scale(0.5 0.5)" d="M313.163 709.974C308.864 704.942 305.58 698.579 304.258 692.079C303.225 687.002 303.529 681.83 303.545 676.678L303.617 655.3L303.545 588.719L303.564 424.341L303.605 370.367C303.617 360.942 303.147 351.211 303.827 341.817C304.335 334.794 306.622 328.087 310.557 322.25C316.226 313.84 325.999 307.228 336.007 305.346C340.651 304.472 345.882 304.877 350.607 304.864L375.899 304.815L471.688 304.83L615.788 304.787L660.197 304.718C668.332 304.696 676.744 304.251 684.844 304.813C690.559 305.21 696.575 307.804 701.237 311.107C710.023 317.332 716.755 327.657 718.703 338.25C719.541 342.807 719.287 347.303 719.23 351.915L719.155 369.083L719.201 431.266L719.217 581.224L719.027 670.933C717.323 676.223 716.096 681.66 713.952 686.808C709.295 697.988 701.371 707.665 690.448 713.192C685.511 715.69 679.554 717.748 674 718.007L620.028 718.144L515.84 718.097L393.97 718.145L333.758 718.534C331.338 718.474 328.917 718.072 326.617 717.314C324.052 716.468 321.383 715.286 319.101 713.858C317.069 712.586 315.378 710.969 313.163 709.974Z"/>
	<path fill="#00366C" transform="scale(0.5 0.5)" d="M367.868 690.871C364.664 691.909 355.783 692.097 352.563 691.207L352 691.036C348.712 690.066 345.723 688.528 343.131 686.266C338.6 682.313 335.225 675.93 334.936 669.88L334.98 648.179L335.001 608.983L334.865 483.072L334.683 402.148L334.686 378.424C334.695 373.668 334.438 368.716 335.035 364C335.931 356.925 339.382 350.047 344.25 344.864C351.293 337.367 359.534 333.489 369.845 333.255L431.711 333.166L559.127 333.29L628.103 333.338L648.273 333.355C652.01 333.362 655.957 333.107 659.656 333.626C666.051 334.523 671.705 337.754 676.293 342.2C682.313 348.034 684.03 354.617 684.136 362.772C684.153 364.075 684.031 365.331 683.792 366.613C680.032 356.809 672.978 349.321 663.365 345.042C659.54 343.339 655.269 342.234 651.082 342.038L629.607 341.954L590.291 341.971L471.486 342.005L402.068 342.003L381.518 342.018C377.191 342.024 372.79 341.795 368.5 342.391L367.595 342.511C360.185 343.572 353.215 348.061 348.802 354.039C345.293 358.793 343.625 364.451 343.193 370.276C342.618 378.039 343.055 386.141 343.064 393.935L343.205 440.776L343.442 572.952L343.405 641.667L343.381 659.724C343.379 662.789 343.066 666.245 343.661 669.25C345.088 676.448 350.735 682.852 356.888 686.586C360.341 688.682 364 689.821 367.868 690.871Z"/>
	<path fill="#64B8C3" transform="scale(0.5 0.5)" d="M533.532 672.581C528.335 673.455 521.845 672.849 516.525 672.879L477.456 672.948L409.683 672.971C398.039 672.989 386.11 673.594 374.5 672.996C373.213 672.93 372.041 672.697 370.813 672.317C366.8 671.076 363.386 667.99 361.483 664.282C360.38 662.134 359.967 660.171 359.884 657.757L359.786 617.669L359.777 516.01L359.628 424.055L359.771 376.245C359.871 373.685 360.032 371.294 360.939 368.87C362.433 364.874 365.957 361.409 369.864 359.748C371.493 359.055 373.112 358.652 374.885 358.588L424.357 358.532L522.411 358.472L603.251 358.368L646.649 358.441C649.906 358.603 653.194 359.668 656.164 360.964C661.417 364.179 664.787 368.222 666.972 374L667.284 374.799C668.372 377.838 668.057 381.384 668.038 384.579L668.019 398.789L668 442.093L668.013 601.682L668.12 638.101L668.245 650.553C668.301 653.748 668.633 656.968 667.668 660.056L667.434 660.829C665.869 665.701 662.399 669.104 658 671.486L657.377 671.829C656.353 672.345 655.378 672.502 654.242 672.586C649.599 672.929 644.719 672.626 640.051 672.617L613.673 672.557L533.532 672.581Z"/>
	<path fill="#92F1EF" transform="scale(0.5 0.5)" d="M467.427 634.26C470.625 630.14 474.831 625.447 476.731 620.612C477.047 624.919 477.98 647.481 476.044 649.534C474.81 650.843 473.248 651.188 471.5 651.01C469.846 650.843 468.658 649.426 467.654 648.25C466.531 644.939 466.83 640.341 467.242 636.873L467.592 636.592L467.427 634.26Z"/>
	<path fill="#92F1EF" transform="scale(0.5 0.5)" d="M600.288 439.143L601.176 441.75C604.088 442.595 608.536 442.035 611.647 442.028L635.844 441.982C637.817 441.982 641.607 441.476 643.25 442.463C643.654 442.706 644.369 443.524 644.633 443.957C645.568 445.491 645.447 447.894 644.837 449.52C644.377 450.745 643.528 451.282 642.5 451.969C637.247 452.93 631.241 452.402 625.873 452.401L601.58 452.296L601.58 468.46L630.226 468.436C633.962 468.438 638.718 467.901 642.333 468.538C643.35 468.717 644.214 469.001 644.966 469.75C646.078 470.857 646.374 472.488 646.143 474C645.912 475.519 645.198 476.334 644.25 477.458C640.663 479.574 632.728 478.58 628.494 478.624L601.447 478.89L601.467 496.021L630.416 495.983C634.415 495.987 640.869 495.182 644.465 496.75C645.767 498.247 646.143 499.033 645.998 501.08C645.843 503.277 645.23 504.257 643.55 505.646C639.563 506.828 633.617 506.082 629.414 506.081L601.122 506.104L601.162 523.457C607.855 523.448 640.623 522.385 644.25 524.321C645.217 525.439 646.028 526.412 645.898 528C645.761 529.667 644.718 531.353 643.328 532.269C640.583 534.077 606.942 533.024 601.507 533.015L601.53 549.427L631.27 549.441C634.755 549.447 639.328 548.916 642.701 549.546C643.677 549.729 644.345 550.033 645.049 550.75C646.01 551.728 646.435 553.147 646.375 554.5C646.293 556.313 645.356 557.479 644.172 558.75C640.593 560.666 633.88 559.822 629.8 559.841L601.211 559.93L601.385 576.153L631.485 576.254C634.832 576.269 640.419 575.607 643.5 576.604C643.937 576.745 644.749 577.552 645.153 577.858C646.141 579.585 646.27 581.288 645.86 583.25C645.53 584.834 644.578 585.605 643.25 586.366C637.901 587.175 632.311 586.877 626.904 586.891L600.803 586.924C599.531 592.897 597.797 598.187 592.47 601.777C589.899 603.51 587.053 604.182 584.13 605.062L584.079 634.459C584.083 638.757 584.434 643.409 584.035 647.665C583.94 648.676 583.599 649.64 582.875 650.374C581.734 651.53 580.057 651.829 578.484 651.75C576.844 651.667 575.876 650.669 574.862 649.519C573.385 645.541 574.208 638.812 574.216 634.492L574.26 604.888L557.043 604.862L557.211 635.648C557.235 639.116 557.861 643.379 557.412 646.75C557.291 647.656 557.005 648.22 556.61 649.032C555.387 650.224 554.555 650.994 552.725 651.04C551.168 651.079 549.531 650.416 548.488 649.243C546.279 646.759 547.388 610.989 547.391 604.933L530.824 604.96L530.721 636.866C530.707 640.122 531.41 645.82 530.414 648.75C530.279 649.149 529.71 650.058 529.383 650.389C528.18 651.606 526.37 651.747 524.75 651.503C523.386 651.298 521.958 650.306 521.25 649.16C519.792 646.801 520.523 639.779 520.519 636.853L520.53 604.973L504.126 604.997L504.168 635.402C504.172 639.341 504.701 644.258 504.024 648.098C503.865 649.001 503.548 649.489 502.902 650.14C501.934 651.114 500.639 651.537 499.281 651.482C497.605 651.414 496.306 650.771 495.215 649.506C493.183 647.149 494.051 610.859 494.028 604.954L485.844 605.018C487.176 602.017 489.428 599.004 491.125 596.147C488.501 595.352 483.926 595.928 481.096 595.926L457.662 595.887C453.289 595.876 448.725 596.131 444.388 595.608L443.89 595.541L477.255 595.371C481.301 595.375 487.932 594.531 491.677 595.754L493.745 595.989L515.755 596.012L559.248 596.006L578.191 595.958C579.82 595.943 582.756 596.317 584.263 595.892C585.436 595.561 587.267 593.967 588.12 593.119C590.099 591.156 591.359 588.168 591.719 585.435C592.296 581.056 591.913 576.145 591.916 571.719L591.9 545.104L591.929 445.492L592.068 444.479L593.79 443.845C595.663 443.046 599.532 440.904 600.288 439.143Z"/>
	<path fill="white" transform="scale(0.5 0.5)" d="M467.427 634.26C466.036 625.145 466.949 614.803 466.923 605.543L450.785 605.507L450.915 637.742C450.922 640.776 451.665 646.851 450.495 649.5C449.912 650.82 448.486 651.646 447.134 652.016C445.355 652.501 443.347 652.234 441.75 651.351C440.982 650.506 440.428 649.863 440.199 648.718C439.432 644.871 439.991 639.77 439.979 635.798L439.94 605.368L438 605.04C435.091 604.58 432.493 603.409 430.102 601.685C424.931 597.958 423.272 593.301 422.26 587.295L402.647 587.462C398.966 587.473 394.823 587.896 391.25 586.968C389.611 585.603 388.705 584.287 388.569 582.095C388.473 580.534 388.842 579.261 389.942 578.1C390.909 577.08 391.879 576.687 393.25 576.467C396.99 575.868 400.89 576.065 404.669 576.055L422.146 576.045L422.134 559.856C421.274 559.231 418.123 559.566 416.943 559.568L397.916 559.58C395.829 559.577 392.109 559.999 390.341 558.971C389.061 558.227 388.389 556.416 388.319 555C388.233 553.284 388.595 551.591 389.892 550.392C390.633 549.708 391.554 549.182 392.553 549.001C395.413 548.485 398.987 548.87 401.906 548.871L422.333 548.915L422.359 532.503L403.719 532.546C400.028 532.544 392.93 533.502 389.951 531.074C388.858 530.183 388.093 528.661 388.059 527.25C388.024 525.811 388.681 524.236 389.727 523.25C390.603 522.424 391.723 521.905 392.903 521.692C395.959 521.142 399.621 521.504 402.734 521.497L422.58 521.504L422.574 505.592L400.177 505.622C397.441 505.622 392.663 506.293 390.351 504.75C389.121 503.93 388.272 502.477 388.2 501C388.103 499.031 388.695 497.409 390.107 496.051C392.855 493.408 417.372 494.653 422.48 494.668L422.478 479.162C417.216 479.214 393.461 480.59 390.478 478.262C388.978 477.091 388.215 475.174 388.069 473.309C387.969 472.034 388.432 470.837 389.325 469.929C390.328 468.911 391.585 468.429 392.957 468.15C395.801 467.571 399.509 467.996 402.427 467.988L422.263 467.968L422.237 451.545C417.99 451.781 394.143 452.784 391.412 451.384C390.122 450.722 388.85 449.509 388.438 448.08C388.048 446.73 388.269 445.114 388.941 443.893C389.651 442.602 390.544 441.676 391.982 441.25C393.886 440.686 396.51 440.979 398.493 440.975L414.453 440.953C416.848 440.951 419.991 441.347 422.296 440.726C422.989 437.941 423.637 435.25 425.116 432.75C428.954 426.265 433.821 423.755 440.855 421.945C441.47 415.069 439.573 383.446 441.896 380.047C442.797 378.727 444.092 377.775 445.722 377.609C447.313 377.448 448.829 377.922 449.989 379.016C450.738 379.723 451.316 380.63 451.515 381.648C452.267 385.504 451.824 390.359 451.848 394.303L451.921 422.271L467.932 422.287C467.928 416.628 467.099 383.03 468.424 380.5C469.153 379.107 470.493 378.179 472 377.868C473.318 377.597 474.965 377.937 476.02 378.75C476.436 379.071 477.167 380.087 477.383 380.5C478.387 382.421 477.881 387.696 477.894 389.856L477.714 422.06L494.105 422.039C494.109 415.939 493.373 382.153 495.364 379.633C496.442 378.268 497.963 377.183 499.75 377.089C501.075 377.02 502.389 377.507 503.317 378.456C506.042 381.24 504.88 415.786 504.873 422.025L519.218 422.012L519.398 394.385C519.426 390.436 518.901 385.551 519.818 381.721L519.94 381.25C520.134 380.425 520.047 380.5 520.405 379.75C521.013 378.479 522.323 377.251 523.75 377.024C525.49 376.748 527.077 376.847 528.399 378.096C529.154 378.809 529.452 379.412 529.632 380.425C530.388 384.69 529.908 389.762 529.917 394.129L529.93 421.972L545.616 421.971L545.591 391.281C545.595 388.436 544.847 381.61 546.598 379.492C547.753 378.097 549.1 377.447 550.908 377.457C552.428 377.465 553.85 377.942 554.879 379.112C557.014 381.538 555.969 416.252 555.967 422.062L571.968 422.065L571.964 393.843C571.967 389.836 571.448 385.147 572.136 381.25C572.289 380.384 572.599 379.929 573.168 379.25C574.037 378.211 575.615 377.304 577 377.323C578.946 377.349 579.602 378.045 580.977 379.25C582.879 383.722 582 390.594 582.009 395.48L582.024 422.668C584.449 422.928 586.782 423.222 589.053 424.171C594.737 426.548 597.517 430.914 599.755 436.39L600.288 439.143C599.532 440.904 595.663 443.046 593.79 443.845L592.068 444.479C591.23 440.518 590.471 436.416 586.889 433.949C585.842 433.228 584.699 432.835 583.5 432.452L582.987 432.285C578.924 431.084 572.496 431.872 568.165 431.878L535.386 431.934L472.254 432.044L444 431.995C442.268 432.037 440.744 432.388 439.21 433.219C436.529 434.671 433.427 438.121 432.747 441.185C431.805 445.43 432.474 451.224 432.479 455.634L432.53 489.095L432.545 552.202L432.565 583.75C432.665 585.842 433.455 588.146 434.647 589.867C436.338 592.305 440.322 595.332 443.354 595.56L443.89 595.541L444.388 595.608C448.725 596.131 453.289 595.876 457.662 595.887L481.096 595.926C483.926 595.928 488.501 595.352 491.125 596.147C489.428 599.004 487.176 602.017 485.844 605.018L485.377 605.298L476.975 605.318C477.006 609.699 476.68 614.417 477.317 618.743L476.731 620.612C474.831 625.447 470.625 630.14 467.427 634.26Z"/>
	<path fill="#64B8C3" transform="scale(0.5 0.5)" d="M443.89 595.541L443.354 595.56C440.322 595.332 436.338 592.305 434.647 589.867C433.455 588.146 432.665 585.842 432.565 583.75L432.545 552.202L432.53 489.095L432.479 455.634C432.474 451.224 431.805 445.43 432.747 441.185C433.427 438.121 436.529 434.671 439.21 433.219C440.744 432.388 442.268 432.037 444 431.995L472.254 432.044L535.386 431.934L568.165 431.878C572.496 431.872 578.924 431.084 582.987 432.285L583.5 432.452C584.699 432.835 585.842 433.228 586.889 433.949C590.471 436.416 591.23 440.518 592.068 444.479L591.929 445.492L591.9 545.104L591.916 571.719C591.913 576.145 592.296 581.056 591.719 585.435C591.359 588.168 590.099 591.156 588.12 593.119C587.267 593.967 585.436 595.561 584.263 595.892C582.756 596.317 579.82 595.943 578.191 595.958L559.248 596.006L515.755 596.012L493.745 595.989L491.677 595.754C487.932 594.531 481.301 595.375 477.255 595.371L443.89 595.541Z"/>
	<path fill="white" transform="scale(0.5 0.5)" d="M558.225 573.536L454.863 573.348L454.982 451.104L553.482 451.132C557.714 451.252 561.051 451.221 563.976 454.708C565.834 456.923 565.431 460.211 565.446 462.908L565.443 477.832L565.473 547.141L565.495 562C565.493 563.578 565.835 566.326 565.431 567.782C565.241 568.469 563.825 570.215 563.25 570.807C561.855 572.243 560.211 573.219 558.225 573.536Z"/>
</svg>
