<svg xmlns="http://www.w3.org/2000/svg" width="512" height="512">
  <path fill="#fff" d="m257.557 412.709 2.123.139c.3.395.404.595.456 1.091l.014 15.14-4.589-.606.046-11.946c-.022-1.025-.297-2.808.195-3.698l1.755-.12ZM256.253 81.284l1.721-.135-.002 2.248-.078 22.547.055 8.931-.004 30.923-1.24-.073-.124-25.79-.216-13.927c-.277-2.655-.082-5.502-.087-8.177l-.025-16.547Z"/>
  <path fill="#9BA2A8" d="M382.484 311.013c-.024 1.732.275 5.34-.51 6.818l-15.441-.084-.24-.352.006-6.374 16.185-.008Z"/>
  <path fill="#64B8C3" d="M421.565 257.565c3.481.522 7.459-.024 11.001.012-.456 1.893-.524 4.017-.002 5.91l-13.038.035c-1.601.008-4.053-.241-5.54.296l-31.281.163c-.193-1.97.028-4.149.084-6.141l38.776-.275Z"/>
  <path fill="#fff" d="m284.73 371.022 8.303.067.038 12.658.138.078.041 24.928-6.316.042-2.059.054c-.113-.116-.272-.202-.339-.349-.301-.66-.014-3.377-.015-4.204l.018-20.28.156-.206.034-12.788ZM242.132 371.02l8.615.03.011 12.651.036 25.257-6.834.025-1.71-.108c-.639-1.194-.225-4.63-.227-6.047l.034-18.856-.045-.145c.457-4.139.12-8.629.12-12.808ZM263.014 371.038c2.707-.017 6.097-.412 8.726.043l-.004 12.89-.03 9.416.065 15.49-3.596.047c-.254-.207-4.526-.083-5.187-.094l-.029-24.967.08-.401-.025-12.423Z"/>
  <path fill="#FD4952" d="m432.566 257.577.05-.223c.663-2.555 2.185-4.786 4.471-6.146 2.766-1.645 5.577-1.698 8.6-.855 3.394.946 5.22 3.391 6.849 6.299.237 1.446.459 2.755.253 4.223l-.05.373c-.421 2.863-2.175 5.428-4.464 7.148-2.315 1.738-5.212 2.538-8.081 2.044-2.587-.445-5.073-2.386-6.449-4.565l-1.181-2.389c-.522-1.892-.454-4.016.002-5.909Z"/>
  <path fill="#DE0035" d="M440.543 255.79c.825-.04 1.768-.148 2.572.044 1.333.32 2.595 1.193 3.31 2.37.627 1.032.873 2.407.489 3.582-.55 1.686-1.788 2.642-3.319 3.422-.579.132-1.206.298-1.802.242-1.46-.135-2.8-1.053-3.651-2.214-.772-1.051-1.096-2.407-.808-3.689.426-1.888 1.637-2.779 3.209-3.757Z"/>
  <path fill="#64B8C3" d="m382.484 311.013 50.753.143c-.972 2.276-1.39 4.35-1.408 6.828l-49.826-.018-.029-.135c.785-1.478.486-5.086.51-6.818Z"/>
  <path fill="#FD4952" d="M432.07 198.998c.752-2.248 2.228-4.266 4.243-5.527 2.529-1.582 5.425-2.04 8.312-1.316 3.487.875 5.344 3.076 7.047 6.06.902 3.294.878 6.592-.92 9.63-1.454 2.458-4.117 4.3-6.877 4.917-2.551.57-5.082.123-7.296-1.271-1.428-.899-2.463-2.059-3.507-3.374l-.953-2.086c-.606-2.425-.684-4.6-.05-7.034Z"/>
  <path fill="#DE0035" d="M440.529 197.524c.906-.07 2.082-.166 2.952.103 1.257.389 2.507 1.71 3.021 2.9.452 1.044.399 2.422-.005 3.473-.689 1.787-2.07 2.673-3.743 3.425-.775.064-1.483.063-2.247-.118-1.382-.325-2.665-1.326-3.382-2.544-.601-1.021-.762-2.136-.402-3.263.695-2.184 1.861-2.928 3.806-3.976Z"/>
  <path fill="#fff" d="M220.167 371.03c2.95-.024 6.13-.287 9.054.063l.055 12.927-.058 1.155.028 23.822-4.757.003c-1.334.01-3.207.236-4.466-.1l.002-25.12.142-12.75Z"/>
  <path fill="#FD4952" d="M433.237 311.156c.987-1.464 2.059-2.747 3.567-3.698 2.718-1.715 5.222-2.072 8.29-1.388l2.423 1.2c2.31 2.018 3.61 3.642 4.761 6.502.623 3.114.678 5.719-1.132 8.531-1.599 2.485-4.088 4.248-6.995 4.836-2.663.537-5.645-.284-7.836-1.832-1.611-1.139-2.888-2.711-3.758-4.474l-.728-2.849c.019-2.478.436-4.552 1.408-6.828Z"/>
  <path fill="#DE0035" d="M440.799 312.041c1.216-.068 2.302-.183 3.451.334.885.4 1.87 1.431 2.233 2.336l.092.25c.423 1.099.568 2.098.184 3.242-.612 1.818-2.03 2.851-3.678 3.678-.769.088-1.59.202-2.349.002-1.177-.31-2.335-1.15-2.96-2.2-.7-1.178-.96-2.368-.565-3.69.608-2.038 1.79-2.991 3.592-3.952Z"/>
  <path fill="#FD4952" d="M306.748 430.156c2.665-1.09 5.428-1.303 8.25-.912 3.041 1.078 4.755 2.422 6.466 5.128l.441 1.143c.77 3.329.919 6.348-.96 9.365-1.615 2.594-4.625 4.666-7.632 5.228-2.33.435-4.396-.437-6.495-1.298-2.265-1.878-4.514-3.914-5.288-6.877l-.076-.308c-.374-1.454-.334-3.2.025-4.656.77-3.124 2.612-5.128 5.269-6.813Z"/>
  <path fill="#DE0035" d="M311.257 432.565c1.1-.029 2.242.105 3.264.536 1.553.656 3.034 2.411 3.635 3.982.627 1.636.54 3.714-.245 5.277-1.05 2.087-2.964 3.027-5.077 3.682-1.276.005-2.524.01-3.709-.531-1.608-.734-2.955-1.966-3.582-3.645l-.115-.326-.3-.94c-.346-1.617.039-3.39.92-4.775 1.284-2.017 2.918-2.807 5.209-3.26Z"/>
  <path fill="#FD4952" d="M63.873 270.094c-1.944-1.224-3.673-2.577-4.829-4.615-1.345-2.373-1.76-5.19-.966-7.817.928-3.07 2.712-5.488 5.615-6.96 2.632-1.334 5.833-1.438 8.614-.496 2.916.987 4.553 3.097 5.823 5.768.505 2.088.745 3.871.615 6.019l-.434 1.829c-1.256 2.919-2.81 4.851-5.849 6.077-2.796 1.127-5.737 1.036-8.589.195Z"/>
  <path fill="#DE0035" d="M66.987 255.519c.949-.01 2.249-.125 3.104.33.726.386 1.62 1.3 1.89 2.096l.089.291c.222.693.67 1.695.457 2.406l-.532 1.733c-.522 1.317-1.402 1.76-2.645 2.29-.87.05-1.785.005-2.638-.18-1.207-.262-2.049-1.07-2.62-2.132-.513-.952-.569-2.97-.206-3.972.583-1.607 1.632-2.197 3.101-2.862Z"/>
  <path fill="#FD4952" d="M68.996 304.483c3.031.319 4.633 1.115 7 3.062l1.906 2.476c.984 2.281.89 4.226.885 6.67l-.408 1.928c-.874 2.691-2.524 4.537-5.004 5.871-3.022 1.625-5.786 1.52-9.06.804l-1.984-1.202c-2.424-1.71-4.184-4.381-4.648-7.333-.422-2.683.574-5.831 2.206-7.96 2.192-2.861 5.699-3.893 9.107-4.316Z"/>
  <path fill="#DE0035" d="M66.742 310.812c1.322-.084 2.364-.103 3.58.515 1.097.558 1.843 1.613 2.119 2.81.243 1.056.123 2.558-.469 3.465l-.19.273c-.694 1.026-1.475 1.485-2.52 2.092l-2.387-.01c-1.06-.154-2.197-1.082-2.73-1.996-.703-1.204-.965-2.993-.486-4.343.542-1.531 1.701-2.133 3.083-2.806Z"/>
  <path fill="#FD4952" d="M198.996 80.695c-2.147-1.046-3.756-2.658-4.941-4.722a10.197 10.197 0 0 1-.975-7.822c.783-2.778 2.727-5.27 5.295-6.613 2.849-1.49 5.94-1.738 8.969-.697 3.175 1.092 4.863 3.804 6.225 6.673.758 3.494.622 6.432-1.4 9.551-1.243 1.919-3.022 3.409-5.219 4.103-2.772.611-5.25.262-7.953-.473Z"/>
  <path fill="#DE0035" d="M202.302 64.58c1.373-.117 2.68-.027 3.958.51 1.32.555 2.663 1.894 3.159 3.245.585 1.595.565 3.374-.179 4.915-.93 1.926-2.459 2.876-4.4 3.604-1.4.154-2.733.014-4.028-.564-1.673-.75-2.802-2.125-3.376-3.849-.546-1.642-.192-3.457.653-4.923.956-1.66 2.448-2.406 4.213-2.938Z"/>
  <path fill="#FD4952" d="m245.925 69.854.58-2.806c.841-2.779 3.029-5.125 5.621-6.395 2.273-1.114 5.61-1.353 7.996-.484 3.536 1.288 5.166 3.805 6.695 7.039.531 2.103.671 3.973.02 6.076l-.11.364c-.918 2.889-3.099 5.34-5.808 6.672a7.969 7.969 0 0 1-2.945.83l-1.72.134c-1.194-.136-2.492-.256-3.611-.717-3.423-1.412-4.861-4.132-6.221-7.357l-.497-3.356Z"/>
  <path fill="#DE0035" d="M254.982 64.299c1.413-.185 2.852-.208 4.206.301 1.384.52 2.7 1.881 3.236 3.26.558 1.439.6 3.144-.023 4.567-.887 2.017-2.409 3.127-4.379 3.923l-.238.024c-1.09.119-2.105.212-3.159-.166-1.51-.542-2.982-1.84-3.642-3.317-.651-1.458-.772-3.389-.205-4.891.763-2.02 2.35-2.89 4.204-3.701Z"/>
  <path fill="#FD4952" d="M63.151 211.646c-2.262-1.755-3.95-3.451-4.899-6.214-.934-2.722-.496-5.643.781-8.182 1.303-2.591 3.69-4.452 6.435-5.326 2.72-.865 5.724-.42 8.222.902 2.576 1.363 4.076 3.391 4.956 6.087.11 2.154.322 4.432-.115 6.565-.349 1.125-.692 2.153-1.268 3.19-2.105 2.344-4.604 4.227-7.884 4.371-2.22.098-4.223-.477-6.228-1.393Z"/>
  <path fill="#DE0035" d="M67.306 197.27c.674.005 1.421.057 2.069.24 1.13.319 2.416 1.337 2.99 2.36.613 1.095.927 2.602.558 3.823-.526 1.738-2.105 2.862-3.649 3.605-.81.014-1.593.032-2.358-.27-1.537-.606-2.666-1.693-3.243-3.24-.399-1.072-.37-2.633.143-3.663.736-1.478 1.968-2.333 3.49-2.855Z"/>
  <path fill="#FD4952" d="M199.027 428.851c2.55-.409 4.99-.595 7.46.338 2.936 1.654 5.48 3.546 6.401 7.002.796 2.983.452 6.272-1.147 8.934-1.357 2.26-3.51 3.848-5.991 4.67l-.375.128c-1.857.602-3.913.434-5.805.09-2.683-1.033-4.874-2.502-6.328-5.05-1.435-2.515-1.952-5.731-1.138-8.533l.131-.43.25-.82c1.122-3.252 3.605-4.897 6.542-6.329Z"/>
  <path fill="#DE0035" d="M200.794 432.56c1.131-.053 2.434-.213 3.523.15 1.845.617 3.586 2.119 4.367 3.915.7 1.612.728 3.128.064 4.75-.962 2.344-2.712 3.627-4.967 4.584-1.232.235-2.488.233-3.687-.178-1.699-.58-3.094-1.92-3.86-3.529-.826-1.736-.81-3.856-.075-5.623.924-2.221 2.508-3.228 4.636-4.069Z"/>
  <path fill="#FD4952" d="M302.332 66.529c1.46-2.821 3.293-5.254 6.432-6.315 2.873-.972 6.094-.846 8.813.54 2.774 1.415 4.394 3.994 5.305 6.882.675 3.154.261 6.121-1.47 8.89-1.483 2.374-3.647 3.894-6.356 4.542-2.484.428-4.594.092-7-.578-1.933-.72-3.235-1.998-4.574-3.507l-.414-.765c-1.796-3.52-1.944-5.93-.736-9.689Z"/>
  <path fill="#DE0035" d="M310.508 64.291c1.179-.085 2.345-.191 3.492.157 1.694.513 3.202 1.646 3.988 3.26.736 1.513.76 3.377.142 4.939-.82 2.07-2.21 3.087-4.187 3.992-1.136.19-2.554.226-3.625-.212-1.774-.723-3.22-2.012-3.948-3.806-.601-1.482-.658-3.323.008-4.793.866-1.913 2.264-2.767 4.13-3.537Z"/>
  <path fill="#FD4952" d="m255.561 428.473 4.589.606c2.852 1.144 4.732 2.763 6.38 5.355l.535 1.271c.76 3.548.96 6.425-1.108 9.627-1.535 2.377-3.849 4.182-6.644 4.784-1.935.417-3.948.166-5.858-.23-1.065-.435-2.126-.92-3.097-1.543-2.332-1.493-4.011-4.066-4.554-6.759-.582-2.885.107-5.976 1.763-8.405 1.947-2.853 4.697-4.108 7.994-4.706Z"/>
  <path fill="#DE0035" d="M256.197 432.572c1.228-.047 2.527.2 3.618.774 1.818.955 2.982 2.59 3.56 4.52.418 1.394.29 3.024-.413 4.296-1.215 2.199-3.061 3.276-5.417 3.952-1.793-.046-3.2-.15-4.761-1.155-1.517-.978-2.525-2.614-2.844-4.379-.326-1.797.163-3.969 1.276-5.425 1.254-1.641 2.987-2.294 4.981-2.583Z"/>
  <path fill="#fff" d="m382.704 263.98 31.282-.163c1.331.951 2.724 1.929 2.986 3.683.185 1.239.07 2.61-.799 3.581-1.648 1.84-5.041 1.418-7.288 1.426l-6.308-.002-19.913-.056-16.418-.117-.024-8.325 16.483-.026ZM382.688 243.923l19.827-.129c3.41.001 7.375-.392 10.73.117.962.145 1.805.407 2.553 1.054.501.434.916.94 1.293 1.48.361 1.442.548 2.785-.238 4.133a4.223 4.223 0 0 1-2.834 1.98c-3.2.579-7.226-.017-10.531-.033l-20.787-.057-16.43-.227-.13-.999.06-7.198 16.487-.12ZM198.924 371.038l7.558.025.037 12.63-.032 45.496c-2.47-.933-4.91-.747-7.46-.338l-.02-23.337-.019-21.822-.064-12.654ZM240.47 99.464l9.375-.002.059 20.915-.077 25.395-9.339-.017.007-25.868-.032-2.54.007-17.883ZM268.686 99.471l3.654-.017-.077 6.578.008 13.583.104 26.355c-3.036.016-6.336.263-9.335-.146l-.043-25.788.005-14.204.03-6.371 5.654.01ZM225.229 413.81c1.35-.572 3.43-.322 4.902-.317l.089 32.625c2.659.78 4.35 1.764 6.122 3.916.606 1.206 1.013 2.419 1.553 3.637.23 2.96-.101 5.612-2.15 7.954-1.649 1.887-4.153 3.195-6.668 3.358a11.904 11.904 0 0 1-4.021-.404c-.885-.436-1.776-.875-2.563-1.477-2.498-1.911-3.379-4.26-3.819-7.246.139-2.755.887-4.534 2.381-6.786.715-.611 1.507-1.27 2.337-1.717.692-.375 1.553-.635 2.127-1.17l.008-22.439-.009-5.809c-.002-1.392.127-2.784-.289-4.125ZM275.721 450.754c1.661-2.529 3.266-3.607 6.072-4.653l.04-33.036 4.807.002c-.39 3.762-.145 7.697-.145 11.488l.009 21.48.318.095c2.684.834 4.764 2.298 6.046 4.854l.26.55.452 1.233c.69 2.71.486 4.947-.965 7.387-1.373 2.307-3.598 3.858-6.185 4.466-2.084.488-4.522.103-6.452-.764-.925-.64-1.883-1.325-2.647-2.154-2.32-2.518-2.675-4.935-2.55-8.209l.94-2.739Z"/>
  <path fill="#64B8C3" d="m90.854 198.914 54.606-.315-.016 6.489-.24.391H78.531c.437-2.134.225-4.412.115-6.567l12.208.002Z"/>
  <path fill="#fff" d="M101.72 251.685c-1.7.022-4.425.426-5.992-.073l.018-8.912 49.754-.202-.018 8.96-.14.097-43.623.13ZM100.353 309.956l44.93-.106.015 6.811-43.323.048-23.188-.017c.005-2.445.1-4.39-.886-6.671l22.452-.065ZM308.056 80.49c2.406.67 4.516 1.006 7 .578l.01 38.945-.056 25.93-6.574.037c-.104-.132-.365-.452-.398-.605-.115-.53 0-1.404.001-1.963l.002-4.435.012-18.97.003-39.517Z"/>
  <path fill="#64B8C3" d="m382.568 198.756 49.502.242c-.635 2.433-.557 4.608.049 7.033l-49.59.183-16.296-.162.005-7.204 16.33-.092Z"/>
  <path fill="#fff" d="m306.686 371.009 8.29.05.035 12.647-.013 45.538c-2.822-.392-5.585-.178-8.25.911l-.058-46.451-.004-12.695ZM198.996 80.695c2.704.736 5.182 1.084 7.954.474l.046 38.943.002 25.744-8.41.025.187-25.368.221-39.818ZM95.019 263.743l50.471.058-.056 10.467-41.375-.016-9.013-.084-.02-3.245-.007-7.18Z"/>
  <path fill="#64B8C3" d="m145.343 251.555.139-.097.018 4.766-.005 5.576-66.75.193c.13-2.148-.11-3.931-.615-6.02l23.584.011.005-4.299 43.624-.13Z"/>
  <path fill="#008498" d="m145.343 251.555.139-.097.018 4.766-40.891-.162-.046-4.316 29.027.018 7.646-.003c1.349 0 2.802.152 4.107-.206Z"/>
  <path fill="#fff" d="M65.183 299.141c-2.955-1.204-5.07-2.952-6.458-5.877-1.181-2.49-1.212-4.96-.238-7.514.928-2.435 2.956-4.283 5.347-5.235 2.467-.982 5.373-.895 7.8.156 2.478 1.075 3.88 2.885 4.9 5.314l68.734-.028.029 6.14-.075.651-42.856-.008-25.407.067c-.42.21-.567.191-.791.619-1.312 2.504-3.378 4.74-6.154 5.61-1.526.478-3.272.308-4.83.105ZM64.279 239.375c-1.597-.756-2.932-1.503-4.061-2.905-1.637-2.033-2.57-4.605-2.255-7.22.33-2.751 1.65-5.019 3.89-6.663 2.173-1.595 4.791-2.065 7.405-1.601 2.87.509 4.738 1.93 6.363 4.296l.197.292 30.313-.057 39.339.006v7.096l-44.513.071-15.524.002c-2.77 0-5.685.181-8.437-.103-1.566 3.101-3.399 5.721-6.871 6.871-1.89.626-3.953.377-5.846-.085ZM64.701 178.622c-2.376-.865-4.186-1.972-5.447-4.268-1.417-2.578-1.696-5.297-.809-8.112a9.08 9.08 0 0 1 4.748-5.457c2.567-1.212 5.612-1.142 8.239-.149 2.798 1.056 4.233 3.148 5.395 5.745l17.625.127c2.15 1.18 3.523 3.482 5.133 5.275l6.741 8.913.223.285c1.555.337 3.305.145 4.885.083l6.009-.036 28.052-.038-.008 6.971-41.314.032c-2.081-1.391-3.957-4.296-5.556-6.221-2.43-2.9-4.649-6.094-7.439-8.656-1.419-.212-2.957-.069-4.39-.052l-7.325.095c-.495.006-2.667-.156-3.013.04-.326.185-.955 1.594-1.203 1.972a7.963 7.963 0 0 1-2.226 2.224c-2.684 1.771-5.291 1.822-8.32 1.227ZM164.028 70.059c-1.046-1.091-2.006-2.165-2.66-3.55-1.175-2.487-1.119-5.409-.19-7.97.844-2.327 2.738-4.099 4.991-5.059 2.292-.976 5.365-1.027 7.665-.085 3.204 1.311 4.583 3.733 5.843 6.771.233 3.003-.076 5.594-2.054 8.01-1.281 1.563-2.75 2.478-4.602 3.221l-.025 15.896c-.002 1.447-.318 3.841-.005 5.197.08.34 1.766 1.848 2.084 2.181l7.011 7.368c.944.926 2.564 2.19 3.087 3.404.244.57.17 2.004.227 2.678l.13 12.213.032 16.956c.004 2.772.218 5.732-.066 8.48l-6.805.022.041-25.746.017-10.528c-.017-.531.088-1.671-.066-2.143-.094-.285-1.105-1.082-1.401-1.371l-5.68-5.458-4.846-4.694c-.67-.56.029-20.809-.375-23.883l-.066-.468c-.619-.566-1.563-1.001-2.287-1.442ZM403.748 180.528l2.002-.083c.906-.844 1.534-2.043 2.19-3.085l3.496-5.612c.66-1.073 1.316-2.367 2.189-3.278.876-.912 2.1-1.47 3.316-1.776 1.769-.446 3.943-.245 5.772-.253l11.042-.026c1.014-1.977 2.361-3.505 4.303-4.617 2.004-1.148 4.786-1.574 7.029-.881 3.219.994 5.033 3.494 6.487 6.335.608 2.817.523 5.411-1.045 7.945-1.34 2.167-3.38 3.698-5.865 4.285-2.435.576-5.255.24-7.347-1.175-1.334-.901-2.417-2.245-3.316-3.557l-.739-1.046-9.836-.11c-1.463 0-3.221-.18-4.637.111-3.505 4.456-6.205 13.16-12.555 14.004-2.31.307-4.882.102-7.224.122l-16.551.028-.296-.1-15.96.148-.022-7.228 14.218-.114 2.483-.011 20.866-.026ZM382.714 285.536l50.681.125c1.173-2.608 2.867-5.144 5.663-6.202 2.584-.978 5.933-.957 8.41.316 2.394 1.232 3.699 3.216 4.909 5.526.846 2.89.904 5.32-.572 8.03-1.38 2.533-3.637 4.47-6.442 5.23-2.772.754-5.603.187-8.04-1.258-.706-.419-1.33-.976-1.96-1.498-.712-.759-1.297-1.63-1.908-2.47l-50.95-.153-16.097-.086c-.408-2.35-.124-5.164-.137-7.57l16.442.01ZM327.52 120.025l-.006-2.058c-.018-6.074-1.118-12.654 4.026-17.091 1.707-1.472 3.874-2.419 5.427-4.067.699-.74 1.262-1.57 1.478-2.578.397-1.858.124-4.386.13-6.314l-.063-16.617c-2.083-1.144-3.656-2.274-4.887-4.345-1.416-2.385-1.795-5.18-1.038-7.842.699-2.462 2.619-4.593 4.892-5.733 2.325-1.165 5.466-1.192 7.87-.265 2.228.858 4.089 2.838 4.989 5.029.913 2.221.833 4.468.334 6.762-.86 2.031-1.88 3.711-3.774 4.957-.315.208-1.428.778-1.603 1.053-.103.163.159 3.21.176 3.583l-.046 14c-.014 2.582.269 5.835-.414 8.315-.519 1.884-1.606 3.709-2.972 5.089-3.13 3.163-7.736 3.326-7.768 8.838l.028 9.376c.03 1.53-.066 3.214.166 4.722l-.015 21.11-6.936.003.006-25.927ZM102.413 330.559l2.865-3.104 39.948-.181.256.623c-.02.659-.125 1.454-.038 2.1l-.132 4.505-28.217-.02-6.08-.005c-.506.001-1.402-.12-1.875.025-.327.101-.419.16-.624.368-1.602 1.62-3.007 3.469-4.529 5.169l-5.199 5.552c-1.232 1.359-2.5 3.116-3.987 4.185l-16.126.018-2.3-.051c-.259.34-.374.622-.517 1.014-.749 2.048-2.845 4.01-4.811 4.917-2.035.938-4.569.887-6.696.275-2.022-.911-3.785-2.144-4.976-4.051-1.471-2.357-1.917-5.116-1.17-7.788.77-2.75 2.666-5.005 5.17-6.353 2.124-1.144 4.713-1.28 7.011-.626 3.097.882 4.607 3.12 6.022 5.829l15.044-.088 10.962-12.313ZM184.16 370.976l.805.399.077 12.322c.615 5.245.174 11.15.131 16.461-.008.966.184 3.6-.156 4.373-.008.017-.328.423-.372.478-2.482 3.127-5.458 5.966-8.225 8.849-.498.519-1.976 1.714-2.165 2.252-.118.336 0 1.255.001 1.67l.004 4.553.056 24.188c2.726 1.817 4.592 3.584 5.449 6.854l.093.34c.558 2.222-.06 4.779-1.233 6.688-1.429 2.326-3.686 3.987-6.383 4.514-1.742.34-3.56.096-5.263-.31-1.09-.455-2.225-1.017-3.086-1.838-1.942-1.851-3.179-4.459-3.244-7.144-.078-3.127 1.35-6.171 3.946-7.997.401-.282 2.817-1.457 2.89-1.688.101-.327-.001-1.25-.002-1.63l-.001-4.098-.008-21.451c0-1.409-.347-3.89-.002-5.197.082-.312 1.044-1.179 1.332-1.5l6.172-6.495.15-.145c.502-.491 2.618-2.313 2.835-2.883.356-.938.049-3.442.047-4.49l.028-16.525-.076-.337-.008-10.057 6.208-.156ZM366.282 327.838l40.353-.1 16.225 15.971.373-.041c3.449-.367 7.25.354 10.601-.199 1.668-2.808 3.498-4.738 6.757-5.625 2.495-.679 4.896-.494 7.137.865 2.111 1.279 3.424 2.986 4.656 5.071.858 2.809 1.035 5.483-.365 8.186-1.248 2.41-3.932 4.432-6.504 5.183-2.308.674-4.86.558-6.99-.6-1.197-.651-2.222-1.54-3.141-2.537l-1.982-3.267-9.926-.031-3.404.012L404.09 335.2l-21.257.048-16.589.002.039-7.412ZM442.687 219.472c2.096.21 3.652.718 5.536 1.68 1.893 1.637 3.08 2.992 4.124 5.308.767 2.843.613 5.665-.905 8.255-1.369 2.335-4.026 4.357-6.699 4.934-3.046.655-5.784-.045-8.322-1.814-2.238-1.56-3.007-3.737-3.695-6.214-.02-.071-.193-.603-.204-.608-.313-.13-1.594-.006-1.981-.007l-7.673-.016-40.266-.005-16.347-.001-.025-7.984 16.324-.034 51.842.17c.753.079 2.935-1.94 3.757-2.376 1.437-.761 2.954-1.01 4.534-1.287ZM327.24 371.02l7.047.038.037 12.696.106.034.065 19.128 6.178 5.571c1.476 1.444 3.93 3.342 4.83 5.176l.012 8.541.046 23.89c1.095.58 2.172 1.13 3.15 1.9l2.074 2.512c1.152 2.964 1.497 5.737.138 8.751-1.135 2.52-3.435 4.426-6.04 5.28-1.732.568-3.482.541-5.275.363-2.799-1.147-4.77-2.521-6.284-5.208-1.267-2.247-1.64-4.505-.867-6.989.924-2.967 2.871-4.871 5.544-6.341l.307-.167c.423-2.938.084-6.402.088-9.392l.055-20.372-6.393-6.02c-.702-.712-4.667-4.454-4.85-5.067-.442-1.487-.083-4.252-.074-5.871l.106-15.715V371.02ZM221.042 120.047l-.047-20.803 3.847-.023-.156-27.694c-1.769-1.045-3.345-2.35-4.519-4.049-1.422-2.058-2.124-5.253-1.554-7.737.57-2.49 2.34-4.726 4.51-6.038 2.119-1.28 4.809-1.638 7.203-1.029a9.532 9.532 0 0 1 5.827 4.418c.604 1.046.931 2.19 1.244 3.347.083 3.084-.425 5.87-2.65 8.186-1.028 1.07-2.424 1.942-3.763 2.567l-.001 9.539-.001 16.009c-.004 2.678.512 6.849-.422 9.327-.573.84-.3 2.815-.304 3.826l-.013 10.073-.008 25.938-9.148-.046-.045-25.811ZM284.008 120.021l-.057-14.146-.701-.338c-.462-.706-.27-1.73-.269-2.57l.002-5.564-.043-26.272c-2.026-.75-3.734-1.85-5.063-3.57-1.606-2.077-2.268-4.584-1.91-7.173.353-2.551 1.79-4.861 3.908-6.333 2.266-1.575 4.957-1.996 7.634-1.564 2.427.392 4.718 1.928 6.074 3.967.56.842.926 1.793 1.295 2.729.532 2.928.388 5.654-1.346 8.212a8.468 8.468 0 0 1-2.306 2.282c-.334.222-1.688.874-1.854 1.124-.245.367.046 25.954.066 28.53 1.102.346 2.839.147 4.023.148l.01 6.663.035 13.594-.024 26.229-9.495-.091.021-25.857Z"/>
  <path fill="#00366C" d="m240.488 145.755 9.339.017 6.877-.047 1.241.073 5.095.026c3 .41 6.299.162 9.335.146l6.552-.147c1.651-.005 3.427-.142 5.06.055l9.494.091 7.528-.029 7.427.04 6.574-.036 8.022-.001 4.482.009 6.935-.002 7.302-.194c6.773.28 12.64 3.204 17.24 8.15 3.526 3.788 5.54 8.09 6.906 13.044.702 4.46.326 9.221.284 13.729l.023 7.228.03 8.356.005 2.584-.006 7.204.022 1.89-.084 7.813.059 7.246.024 7.984L365.95 244c-.013 2.371-.182 4.817.051 7.177l.142.065.129.999 16.43.227c-.049 1.556.308 3.849-.122 5.263l-16.423-.148.032 6.164.034.26.024 8.325c-.072 2.278.166 4.941-.175 7.154-.137.884.055 1.904.143 2.792l.058 3.248c.012 2.406-.272 5.22.136 7.57-.103 3.455.319 7.301-.18 10.679l.071 7.246-.006 6.374-.011 10.443-.038 7.412-.002 5.265c.02 1.715.13 3.534-.088 5.234-.818 6.378-3.807 12.624-8.279 17.231-4.113 4.237-10.869 7.905-16.844 8.08l-6.744-.002-7.047-.038-5.279.006-6.985.034-8.29-.051-6.928.023-6.725.057-8.304-.067h-6.08l-6.909.06c-2.629-.456-6.019-.061-8.726-.043l-5.447.004-6.82.007-8.615-.03-6.16.009-6.75.063c-2.925-.349-6.106-.086-9.055-.061l-6.203-.005-7.482.037-7.558-.024-6.416-.022-8.348-.041-6.208.156c-4.279.128-8.061-.207-12.242-1.069-.911-.645-2.222-1-3.249-1.471a25.913 25.913 0 0 1-6.683-4.43c-5.655-5.21-10.018-12.641-10.325-20.469l-.01-13.696c-.086-.646.018-1.441.038-2.1.308-2.27-.039-4.949-.028-7.272l-.046-20.427c-.031-2.659.293-5.486-.11-8.101l-.029-6.14.035-.169c.379-1.118.134-2.907.125-4.086l.006-7.434.056-10.466.005-2.002.005-5.576-.018-4.766.018-8.96.012-2.161-.042-7.718v-7.096l.006-9.592-.032-10.844.017-6.488.016-3.563.01-7.075.008-6.971c-.047-3.96-.418-8.338.105-12.258.767-5.762 3.543-11.186 7.619-15.307 3.296-3.332 8.192-6.225 12.827-7.118 2.903-.558 5.819-.447 8.759-.408l10.662.047 7.772-.119 5.349.054 8.41-.025 7.468-.089c2.162.012 4.481-.152 6.621.091l9.148.046 6.21-.085 1.251-.097 2.792.032Z"/>
  <defs>
    <linearGradient id="a" x1="518.562" x2="517.341" y1="671.966" y2="732.345" gradientUnits="userSpaceOnUse">
      <stop offset="0" stop-color="#AEA6A5"/>
      <stop offset="1" stop-color="#9AAAB5"/>
    </linearGradient>
  </defs>
  <path fill="url(#a)" d="M719.027 670.933c.583 3.552.499 7.139.508 10.728.029 11.836-2.088 20.93-9.143 30.666-6.422 8.863-17.248 15.637-28.092 17.336-4.687.734-9.858.346-14.609.354l-26.097.012-91.345-.014-138.516-.018-42.832-.007c-7.165 0-14.709.513-21.817-.188-8.506-.839-16.756-3.349-23.613-8.593-3.802-2.907-8.248-6.86-10.308-11.235 2.215.995 3.906 2.612 5.938 3.884 2.282 1.428 4.951 2.61 7.516 3.456 2.3.758 4.721 1.16 7.141 1.22l60.212-.389 121.87-.048 104.188.047 53.972-.137c5.554-.259 11.511-2.317 16.448-4.815 10.923-5.527 18.847-15.204 23.504-26.384 2.144-5.148 3.371-10.585 5.075-15.875Z" transform="scale(.5)"/>
  <path fill="#fff" d="M156.582 354.987c-2.15-2.516-3.792-5.698-4.453-8.948-.516-2.538-.364-5.124-.356-7.7l.036-10.689-.036-33.29.009-82.19.02-26.986c.007-4.713-.228-9.578.112-14.275a20.018 20.018 0 0 1 3.365-9.784c2.834-4.205 7.72-7.511 12.725-8.452 2.322-.437 4.937-.234 7.3-.241l12.645-.024 47.895.007 72.05-.022 22.204-.034c4.068-.011 8.274-.234 12.324.047 2.857.199 5.865 1.496 8.196 3.148 4.394 3.112 7.76 8.274 8.733 13.571.42 2.279.293 4.526.264 6.833l-.038 8.584.024 31.091.007 74.979-.094 44.854c-.853 2.645-1.466 5.364-2.538 7.938-2.329 5.59-6.29 10.428-11.752 13.192-2.469 1.249-5.447 2.278-8.224 2.407l-26.986.069-52.094-.024-60.935.024-30.106.195c-1.21-.03-2.42-.231-3.57-.61-1.283-.423-2.618-1.014-3.758-1.728-1.016-.636-1.862-1.444-2.97-1.942Z"/>
  <path fill="#00366C" d="M183.934 345.435c-1.602.52-6.042.613-7.653.168l-.281-.085c-1.644-.485-3.138-1.254-4.435-2.385-2.265-1.976-3.952-5.168-4.097-8.193l.022-10.85.01-19.599-.067-62.955-.091-40.462.001-11.862c.005-2.378-.124-4.854.175-7.212.447-3.537 2.173-6.976 4.607-9.568 3.522-3.748 7.642-5.688 12.798-5.804l30.933-.045 63.707.062 34.488.024 10.086.008c1.868.004 3.841-.123 5.691.136 3.198.449 6.025 2.064 8.319 4.287 3.01 2.917 3.868 6.209 3.921 10.286a9.674 9.674 0 0 1-.172 1.92c-1.88-4.901-5.407-8.645-10.214-10.785-1.912-.851-4.048-1.404-6.141-1.502l-10.738-.042-19.657.008-59.403.017h-34.709l-10.275.007c-2.163.003-4.364-.111-6.509.187l-.452.06c-3.706.53-7.19 2.774-9.397 5.763-1.755 2.377-2.589 5.207-2.805 8.119-.287 3.881-.069 7.933-.064 11.83l.07 23.42.119 66.088-.019 34.358-.012 9.028c0 1.532-.157 3.26.14 4.763.714 3.599 3.537 6.801 6.614 8.668 1.727 1.048 3.556 1.618 5.49 2.142Z"/>
  <path fill="#64B8C3" d="M266.766 336.29c-2.599.438-5.844.135-8.504.15l-19.534.034-33.887.012c-5.822.009-11.786.311-17.591.012a7.362 7.362 0 0 1-1.844-.34c-2.006-.62-3.713-2.163-4.665-4.017-.551-1.074-.758-2.055-.799-3.263l-.049-20.043-.005-50.83-.074-45.977.072-23.905c.05-1.28.13-2.476.584-3.688.746-1.998 2.508-3.73 4.462-4.561.815-.346 1.624-.548 2.51-.58l24.737-.028 49.026-.03 40.42-.052 21.7.036c1.628.082 3.272.614 4.757 1.262 2.627 1.607 4.312 3.629 5.404 6.518l.156.4c.544 1.519.387 3.292.377 4.89l-.01 7.105-.009 21.651.007 79.795.053 18.21.063 6.226c.028 1.597.194 3.207-.289 4.751l-.117.386c-.782 2.437-2.517 4.138-4.717 5.329l-.312.171c-.512.259-.999.337-1.567.379-2.321.171-4.761.02-7.095.015l-13.19-.03-40.07.012Z"/>
  <path fill="#92F1EF" d="M233.714 317.13c1.599-2.06 3.702-4.406 4.651-6.824.159 2.154.625 13.435-.343 14.461-.617.654-1.398.827-2.272.738-.827-.084-1.421-.792-1.923-1.38-.561-1.656-.412-3.954-.206-5.688l.175-.141-.082-1.166Z"/>
  <path fill="#92F1EF" d="m300.144 219.571.444 1.304c1.456.423 3.68.143 5.236.139l12.098-.023c.986 0 2.881-.253 3.703.24.202.122.56.531.692.748.467.766.406 1.968.101 2.781-.23.613-.654.881-1.168 1.225-2.627.48-5.63.216-8.313.215l-12.147-.052v8.082l14.323-.012c1.868.001 4.246-.267 6.053.051.509.09.941.231 1.317.606.556.554.704 1.369.589 2.125-.116.76-.473 1.167-.947 1.729-1.793 1.058-5.761.561-7.878.583l-13.524.133.01 8.566 14.475-.02c2 .002 5.226-.4 7.024.384.651.749.84 1.142.767 2.165-.078 1.099-.384 1.589-1.224 2.283-1.993.591-4.966.218-7.068.218l-14.146.011.02 8.677c3.346-.005 19.73-.536 21.544.432.483.558.889 1.045.824 1.839-.069.834-.59 1.676-1.285 2.135-1.373.904-18.193.377-20.91.373l.011 8.206 14.87.007c1.743.002 4.029-.263 5.716.052.488.091.822.243 1.173.602.481.489.693 1.199.663 1.875-.04.906-.509 1.49-1.101 2.125-1.79.958-5.146.536-7.186.546l-14.294.044.087 8.112 15.05.05c1.673.007 4.466-.324 6.007.175.219.07.625.474.827.627.493.864.558 1.715.353 2.696-.165.792-.641 1.178-1.305 1.558-2.675.404-5.47.255-8.173.262l-13.05.017c-.637 2.987-1.503 5.632-4.167 7.427-1.286.866-2.709 1.202-4.17 1.642l-.026 14.698c.002 2.15.178 4.476-.022 6.603-.047.506-.217.988-.58 1.355-.57.578-1.409.727-2.195.688-.82-.041-1.304-.54-1.811-1.115-.738-1.99-.327-5.354-.323-7.514l.022-14.802-8.608-.013.084 15.393c.012 1.734.325 3.865.1 5.551-.06.453-.204.735-.401 1.141-.612.596-1.028.981-1.942 1.004-.779.02-1.598-.312-2.119-.898-1.105-1.243-.55-19.127-.549-22.156l-8.283.014-.051 15.953c-.007 1.628.344 4.477-.154 5.942-.067.2-.352.654-.515.82-.602.608-1.507.678-2.317.557-.682-.103-1.396-.599-1.75-1.172-.729-1.18-.363-4.69-.365-6.154l.005-15.94-8.202.012.021 15.203c.002 1.97.267 4.428-.072 6.348-.08.452-.238.696-.561 1.021-.484.487-1.131.699-1.81.671-.838-.034-1.488-.356-2.034-.988-1.016-1.178-.582-19.323-.593-22.276l-4.092.032c.666-1.5 1.792-3.007 2.64-4.435-1.312-.398-3.599-.11-5.014-.111l-11.717-.02c-2.186-.005-4.468.123-6.637-.139l-.249-.033 16.683-.086c2.023.002 5.338-.42 7.21.192l1.035.118 11.005.011 21.746-.003 9.471-.024c.815-.007 2.283.18 3.036-.033.587-.166 1.503-.963 1.929-1.387.99-.981 1.62-2.475 1.8-3.842.288-2.189.096-4.644.098-6.857l-.008-13.308.014-49.806.07-.507.861-.316c.937-.4 2.871-1.471 3.249-2.352Z"/>
  <path fill="#fff" d="M233.714 317.13c-.696-4.558-.24-9.728-.252-14.358l-8.07-.019.066 16.118c.003 1.517.375 4.555-.21 5.879-.292.66-1.005 1.073-1.681 1.258a3.684 3.684 0 0 1-2.692-.332c-.384-.423-.661-.744-.775-1.317-.384-1.923-.105-4.474-.11-6.46l-.02-15.215-.97-.164c-1.454-.23-2.754-.815-3.949-1.678-2.585-1.863-3.415-4.191-3.921-7.195l-9.806.084c-1.841.005-3.913.217-5.699-.247-.82-.683-1.273-1.34-1.34-2.436-.048-.781.136-1.418.686-1.998.483-.51.969-.707 1.654-.817 1.87-.299 3.82-.2 5.71-.206l8.738-.005-.006-8.094c-.43-.313-2.006-.145-2.596-.144l-9.513.006c-1.043-.002-2.904.21-3.787-.305-.64-.372-.976-1.277-1.011-1.985-.043-.858.138-1.704.786-2.304.37-.342.831-.605 1.33-.696 1.43-.257 3.218-.065 4.677-.065l10.214.022.012-8.205-9.32.021c-1.845-.001-5.394.478-6.883-.736-.547-.445-.93-1.207-.946-1.912a2.78 2.78 0 0 1 .833-2 3.112 3.112 0 0 1 1.589-.779c1.528-.275 3.358-.094 4.915-.098l9.923.004-.003-7.956-11.198.015c-1.369 0-3.757.335-4.913-.436-.615-.41-1.04-1.137-1.076-1.875-.048-.984.248-1.796.954-2.475 1.374-1.321 13.632-.698 16.186-.691l-.001-7.753c-2.631.026-14.508.714-16-.45-.75-.585-1.132-1.544-1.204-2.476a2.146 2.146 0 0 1 .627-1.69c.502-.51 1.13-.75 1.816-.89 1.422-.29 3.276-.077 4.736-.081l9.917-.01-.012-8.212c-2.124.119-14.048.62-15.413-.08-.645-.331-1.281-.938-1.487-1.652-.195-.675-.084-1.483.251-2.094.356-.645.802-1.108 1.521-1.321.952-.282 2.264-.136 3.255-.137l7.98-.012c1.198 0 2.77.197 3.922-.113.346-1.393.67-2.738 1.41-3.988 1.919-3.243 4.353-4.498 7.87-5.403.307-3.438-.642-19.249.52-20.948.45-.66 1.098-1.137 1.913-1.22.796-.08 1.554.157 2.133.704.375.353.664.807.763 1.316.376 1.928.155 4.355.167 6.327l.036 13.984 8.006.008c-.002-2.829-.417-19.628.246-20.893.365-.696 1.035-1.16 1.788-1.316.659-.136 1.482.035 2.01.441.208.16.573.668.681.875.502.96.25 3.598.256 4.678l-.09 16.102 8.196-.01c.001-3.05-.367-19.944.629-21.204.539-.682 1.3-1.225 2.193-1.272a2.328 2.328 0 0 1 1.784.684c1.362 1.392.781 18.665.778 21.784l7.172-.006.09-13.814c.014-1.974-.249-4.417.21-6.332l.061-.235c.097-.412.053-.375.232-.75.305-.636.96-1.25 1.673-1.363.87-.138 1.663-.089 2.325.536.377.357.526.658.616 1.165.378 2.132.138 4.668.143 6.852l.006 13.921h7.843l-.012-15.345c.002-1.423-.373-4.836.503-5.895.578-.698 1.251-1.023 2.155-1.018.76.004 1.471.243 1.986.828 1.067 1.213.545 18.57.543 21.475l8.001.001-.002-14.11c.001-2.004-.258-4.349.086-6.297.077-.433.232-.66.516-1 .435-.52 1.224-.973 1.916-.964.973.013 1.301.362 1.988.964.952 2.236.512 5.672.517 8.115l.007 13.594c1.212.13 2.379.277 3.514.751 2.842 1.189 4.233 3.372 5.351 6.11l.267 1.376c-.378.881-2.313 1.952-3.249 2.352l-.861.316c-.419-1.98-.798-4.031-2.59-5.264-.523-.361-1.095-.558-1.694-.749l-.257-.083c-2.031-.601-5.245-.207-7.41-.204l-16.39.028-31.566.055-14.127-.024c-.866.02-1.628.196-2.395.612-1.34.725-2.891 2.45-3.231 3.982-.471 2.123-.137 5.02-.135 7.225l.026 16.73.008 31.554.01 15.774a6.142 6.142 0 0 0 1.04 3.058c.846 1.22 2.838 2.733 4.354 2.847l.268-.01.249.034c2.169.262 4.45.134 6.637.14l11.717.019c1.415.001 3.702-.287 5.014.11-.848 1.429-1.974 2.936-2.64 4.436l-.233.14-4.201.01c.015 2.19-.148 4.55.17 6.713l-.292.934c-.95 2.418-3.054 4.764-4.653 6.824Z"/>
  <path fill="#64B8C3" d="m221.945 297.77-.268.01c-1.516-.114-3.508-1.627-4.353-2.846a6.142 6.142 0 0 1-1.042-3.059l-.01-15.774-.007-31.553-.025-16.731c-.003-2.205-.338-5.102.133-7.225.34-1.532 1.892-3.257 3.232-3.983.767-.415 1.529-.59 2.395-.612l14.127.025 31.566-.055 16.39-.028c2.165-.003 5.379-.397 7.41.204l.257.083c.6.191 1.171.388 1.695.749 1.79 1.233 2.17 3.284 2.589 5.264l-.07.507-.014 49.806.008 13.308c-.002 2.212.19 4.668-.099 6.857-.18 1.367-.81 2.861-1.799 3.843-.426.423-1.342 1.22-1.928 1.386-.754.212-2.222.025-3.036.033l-9.472.024-21.747.003-11.005-.011-1.034-.118c-1.872-.612-5.188-.19-7.21-.192l-16.683.086Z"/>
  <path fill="#fff" d="m279.113 286.768-51.681-.094.059-61.122 49.25.014c2.116.06 3.785.044 5.247 1.788.929 1.107.728 2.751.735 4.1l-.002 7.462.015 34.654.012 7.43c-.001.789.17 2.163-.032 2.891-.096.344-.803 1.216-1.091 1.512-.697.719-1.52 1.207-2.512 1.365Z"/>
</svg>