<svg xmlns="http://www.w3.org/2000/svg" width="512" height="512">
  <path fill="#008498" d="m363.69 70.666-.389-.416 2.228-3.618.2-.415.335.06c-.086 1.08.027 3.275-.689 4.009l-1.685.38ZM336.265 158.807l3.23-2.543c1.136.958 2.222 1.852 3.513 2.6-1.847.418-4.874.227-6.743-.057Z"/>
  <path fill="#64B8C3" d="M64.918 405.425c.742-3.322 1.622-6.489 3.222-9.516 2.48-4.692 7.049-8.981 12.163-10.534-1.039 1.537-2.14 3.01-2.962 4.68-6.367 4.359-10.268 9.112-12.232 16.695l-.19-1.325Z"/>
  <path fill="#CECDCB" d="M315.493 297.498c.029-3.832 1.72-7.349 3.754-10.498l.53-.795c2.994-3.844 7.078-6.12 11.896-6.615-.702 1.429-1.284 2.742-1.699 4.285l-.121.44c-1.098 4.096-.612 8.99-.6 13.219l-13.76-.036Z"/>
  <path fill="#B8EAF2" d="m77.34 390.055-.013 39.509c-3.08-1.458-5.832-4.175-7.79-6.93-3.038-4.277-5.545-11.897-4.619-17.209l.19 1.325c1.965-7.583 5.865-12.336 12.233-16.695Z"/>
  <path fill="#F7524D" d="M161.998 351.846c1.475-4.176 3.161-7.877 6.288-11.089 4.191-4.304 9.231-6.27 15.215-6.377l.065 17.375c.008 2.264.333 5.075-.042 7.267l-.041.278c-1.546.011-6.21-.385-7.344.4l-.018.004c-.445-1.823-1.225-3.829-2.496-5.237-3.093-3.425-7.472-2.425-11.627-2.621Z"/>
  <path fill="#008498" d="m219.206 224.544 29.511-.066 9.542-.004c1.375 0 3.068-.192 4.396.149.878.225 1.887 1.004 2.333 1.794.461.817.476 2.387.178 3.246-.462 1.325-1.632 2.075-2.798 2.702l-11.694.12-19.294.013-8.266-.005c-1.153-.001-2.662.198-3.757-.094-1.185-.316-2.159-.976-2.696-2.119-.465-.99-.625-2.502-.162-3.518.575-1.263 1.482-1.691 2.707-2.218ZM219.439 281.824l27.404-.055 10.259-.016c1.542 0 3.84-.288 5.273.248 1.053.394 2.305 1.218 2.731 2.31.339.869.233 2.083-.1 2.939-.548 1.404-1.582 2.091-2.903 2.691l-28.338.049-9.428-.009c-1.579-.003-3.32.158-4.867-.145-1.196-.233-2.246-.911-2.855-1.988-.507-.9-.538-2.698-.155-3.654.532-1.324 1.726-1.9 2.979-2.37ZM219.193 337.812c3.642-.24 7.377-.119 11.029-.12l18.939.015 8.58.019c1.387.003 3.033-.163 4.384.146 1.108.252 2.342 1.118 2.924 2.106.517.876.468 1.95.222 2.897-.379 1.454-1.397 2.202-2.643 2.926-3.348.377-6.927.148-10.298.144l-18.825-.04-9.95-.057c-1.24-.018-2.86.14-4.065-.141-1.11-.258-2.21-.93-2.767-1.957-.569-1.048-.526-2.325-.129-3.42.487-1.341 1.346-1.941 2.599-2.518Z"/>
  <path fill="#DE362F" d="M183.501 334.38c6.607.524 11.883 2.84 16.207 7.995 2.414 2.878 3.806 6.228 4.685 9.836.527 2.16.437 4.543.268 6.749l-21.137.062c.375-2.192.05-5.003.042-7.267l-.065-17.375Z"/>
  <path fill="#FEA44C" d="m183.524 359.022 21.137-.062c-1.094 6.114-4.431 11.95-9.591 15.502-1.591 1.096-3.488 2.229-5.351 2.741-2.01.487-4.112 1.05-6.189 1.083-2.352.18-4.704.259-6.988-.46-1.478-.465-2.954-1.36-4.33-2.078l.056-.182 1.364-.604.252-.111c1.134-.594 1.99-1.448 2.354-2.69.3-1.025.155-2.525-.458-3.404-.95-1.368-2.304-1.623-3.829-1.883.206-.246.103-.168.377-.324l2.412-1.598c1.148-1.651 1.425-3.266 1.399-5.252 1.135-.784 5.798-.389 7.344-.4l.041-.279Z"/>
  <path fill="#CA772C" d="M183.506 364.766c1.957 4.424 3.284 8.472 6.213 12.437-2.01.487-4.112 1.05-6.189 1.083l-.024-13.52Z"/>
  <path fill="#008498" d="M176.139 359.7c1.135-.784 5.798-.389 7.344-.4l.023 5.466.024 13.52c-2.352.18-4.704.259-6.988-.46-1.478-.465-2.954-1.36-4.33-2.078l.056-.182 1.364-.604.252-.111c1.134-.594 1.99-1.448 2.354-2.69.3-1.025.155-2.525-.458-3.404-.95-1.368-2.304-1.623-3.829-1.883.206-.246.103-.168.377-.324l2.412-1.598c1.148-1.651 1.425-3.266 1.399-5.252ZM183.264 298l13.915 6.608c2.208 1.055 5.012 2.122 6.945 3.606-1.969 5.579-5.971 10.22-11.35 12.805-5.565 2.673-11.706 2.796-17.483.758-5.579-1.966-9.981-6.218-12.481-11.538l-.74-1.676L183.266 298Z"/>
  <path fill="#FEA44C" d="m143.758 351.686 14.19.098c.879.006 3.326-.26 4.05.062 4.155.196 8.534-.804 11.627 2.621 1.272 1.408 2.052 3.414 2.496 5.237l.018-.004c.026 1.986-.251 3.601-1.399 5.252l-2.412 1.599c-.274.156-.172.077-.377.323-.74.547-1.588.493-2.471.544-8.708.496-17.652.087-26.383.084l-9.502.004c-1.413 0-3.076.164-4.465-.02-.28-.037-.358-.08-.592-.17l-.026-2.56-.022-11.112c1.775-.365 4.364-.654 5.755-1.873l.215-.091 9.298.006Z"/>
  <path fill="#F97642" d="m128.512 364.756 32.363.029 8.49-.026c1.751-.006 3.661-.162 5.375.193l-2.412 1.599c-.274.156-.172.077-.377.323-.74.547-1.588.493-2.471.544-8.708.496-17.652.087-26.383.084l-9.502.004c-1.413 0-3.076.164-4.465-.02-.28-.037-.358-.08-.592-.17l-.026-2.56Z"/>
  <path fill="#64B8C3" d="m329.25 367.147.013 7.348-13.76.003-75.916-.024-15.955.011c-1.154 0-3.85.298-4.827-.053-.261-.094-.675-.384-.91-.557-.898-.667-1.52-1.7-1.612-2.827-.075-.938.194-2.043.842-2.749.59-.642 1.525-.957 2.375-1.008 2.857-.171 5.89.094 8.767.096l21.11-.014 66.094-.186.03-.108 13.75.067ZM315.507 312.015l13.753.02.002 7.422-13.764.045-65.876-.059-19.995.02c-3.174.007-6.571.248-9.721-.022-.938-.08-1.65-.391-2.362-1.013-.717-.627-1.029-1.281-1.082-2.232-.066-1.16.168-2.256 1.03-3.086.48-.462 1.258-.793 1.913-.866 3.181-.356 6.802-.044 10.02-.059l22.172-.044 63.91-.126ZM183.287 278.703c6.451.753 13.017 3.099 17.148 8.39 2.079 2.661 3.497 5.644 4.349 8.907l.117.432c.961 3.682.681 8.258-.778 11.782-1.931-1.484-4.736-2.55-6.944-3.606L183.264 298l-21.194 10.563c-.625-2.03-1.153-4.007-1.304-6.138-.424-5.925 1.675-11.886 5.65-16.303 4.5-5.002 10.274-7.102 16.871-7.419Z"/>
  <path fill="#64B8C3" d="m329.248 352.613-.008 7.527.01 7.007-13.748-.068-.014-7.061-63.923-.011-20.33-.002-11.031-.041c-.809-.041-1.565-.222-2.249-.67a2.828 2.828 0 0 1-1.272-2.044c-.138-1.11.076-2.594.89-3.426.549-.56 1.397-.983 2.177-1.05 3.036-.261 6.306-.037 9.358-.007l19.522.212 66.896-.438 13.722.072Z"/>
  <path fill="#CECDCB" d="m315.488 360.018 13.752.122.01 7.007-13.748-.068-.014-7.061Z"/>
  <path fill="#64B8C3" d="m218.667 240.518 127.878-.123c-.014 1.581.438 6.136-.345 7.268l-1.637.032-92.426-.113-22.934-.013c-3.17-.002-7.279.466-10.323-.194-.935-.202-1.752-.92-2.215-1.746a3.58 3.58 0 0 1-.289-2.707c.364-1.209 1.26-1.791 2.291-2.404ZM218.725 254.875c2.459-.644 6.073-.125 8.651-.122l20.765.015 98.432.199c-.005 1.547.443 5.797-.337 6.963l-2.111.058-94.527-.001-21.535-.013-6.003-.02c-1.007-.005-2.22.088-3.185-.212-.922-.286-1.649-1.11-2.088-1.941-.4-.76-.577-1.839-.291-2.664.384-1.108 1.235-1.736 2.228-2.262ZM315.493 297.498l13.76.036.002 7.525.005 6.976-13.753-.02-.036-6.988-23.934-.052h-45.786l-17.138.016c-2.853.001-5.82.168-8.662-.023-.92-.062-1.636-.283-2.317-.922-.728-.682-1.111-1.442-1.128-2.447-.018-1.113.254-2.428 1.101-3.224.649-.608 1.319-.767 2.192-.822 3.579-.22 7.257-.05 10.849-.046l20.043.03 64.802-.039Z"/>
  <path fill="#CECDCB" d="m315.47 305.027 13.785.032.005 6.976-13.753-.02-.036-6.988Z"/>
  <path fill="#008498" d="M163.8 236.342c.466-1.22 1.639-2.501 2.516-3.467 4.301-4.74 9.808-7.026 16.172-7.374 6.352.352 11.346 1.993 16.149 6.349 3.03 3.309 4.667 6.775 5.78 11.085 1.218 4.707-.215 10.11-2.65 14.193-3.299 5.53-8.92 9.56-15.142 11.12-1.1.276-2.229.522-3.364.572-4.922.033-8.912-.72-13.023-3.51-4.542-3.084-8.013-7.824-9.01-13.298-.976-5.357-.433-11 2.572-15.67Z"/>
  <path fill="#FEDBB2" d="M163.8 236.342c.466-1.22 1.639-2.501 2.516-3.467 4.301-4.74 9.808-7.026 16.172-7.374 6.352.352 11.346 1.993 16.149 6.349-3.61 5.494-7.191 10.519-11.682 15.358-1.345 1.449-2.692 3.087-4.288 4.26l-.184-.123c-1.429-.8-2.776-2.157-4.069-3.192l-6.705-5.457c-2.538-2.188-5.08-4.552-7.909-6.354Z"/>
  <path fill="#F7524D" d="M182.488 225.501c6.352.352 11.346 1.993 16.149 6.349-3.61 5.494-7.191 10.519-11.682 15.358-1.345 1.449-2.692 3.087-4.288 4.26l-.184-.123.005-25.844Z"/>
  <path fill="#FEB78B" d="m109.84 351.542 2.615.015c2.63-.01 5.387-.215 7.965.332l.263.048c2.344 1.246 5.127 2.127 7.807 1.707l.022 11.112.026 2.56c.233.09.312.133.591.17 1.39.184 3.053.02 4.466.02l9.502-.004c8.731.003 17.675.412 26.382-.084.884-.05 1.732.003 2.472-.544 1.525.26 2.879.514 3.83 1.882.612.88.756 2.38.457 3.405-.364 1.242-1.22 2.096-2.354 2.69l-.251.111-1.365.604-.056.183 1.078 2.482-.048 2.644c-.252.177-.425.255-.737.261l-25.649-.296-12.106.03c-2.034.002-4.252.168-6.267-.075l-28.838.007-8.363-.029c-1.797-.012-3.841.187-5.537-.482-2.062-.813-2.886-2.103-3.718-4.04l-.104-.477.097-1.189c-.343.07-.358.086-.769.088-1.004.007-1.882-.208-2.626-.887-.985-.898-1.579-1.804-1.606-3.17-.02-1.032.307-1.869 1.047-2.592 1.306-1.279 2.828-1.339 4.537-1.354l-2.097-1.56c-.738-.379-1.516-1.111-1.984-1.792-1.197-1.743-1.259-3.738-.841-5.749.582-1.434 1.173-2.603 2.272-3.706 1.016-1.02 2.254-1.795 3.688-2.053 2.423-.433 5.292-.185 7.78-.207l18.418-.061Z"/>
  <path fill="#F97642" d="M128.49 373.969c2.95-.474 6.278-.192 9.268-.193l19.511.091 9.481.087c1.64.012 3.506-.153 5.125.077.585.084 1.071.358 1.529.721l.228.21-1.364.604c-.214.194-.12.075-.273.436l-.12.299-1.125.132c-3.826.192-7.733-.007-11.569-.04l-19.854-.051-8.335.07c-.41.005-1.833.16-2.117.033-.144-.065-.234-.214-.351-.32l-.034-2.156Z"/>
  <path fill="#FEDBB2" d="m82.027 376.251 46.44.176.016 4.368-28.838.007-8.363-.029c-1.797-.012-3.841.187-5.537-.482-2.062-.813-2.886-2.103-3.718-4.04Z"/>
  <path fill="#FEA44C" d="M171.951 366.874c1.525.26 2.879.514 3.83 1.882.612.88.756 2.38.457 3.405-.364 1.242-1.22 2.096-2.354 2.69l-.251.111-.229-.21c-.458-.363-.944-.637-1.529-.72-1.62-.231-3.486-.066-5.125-.078l-9.48-.087-19.512-.091c-2.99 0-6.319-.28-9.268.193l-.004-6.505.052-.149c.233.091.312.134.591.171 1.39.184 3.053.02 4.466.02l9.502-.004c8.731.003 17.675.412 26.382-.084.884-.05 1.732.003 2.472-.544Z"/>
  <path fill="#FEDBB2" d="M82.02 374.585c-.343.07-.358.086-.769.088-1.004.007-1.882-.208-2.626-.887-.985-.898-1.579-1.804-1.606-3.17-.02-1.032.307-1.869 1.047-2.592 1.306-1.279 2.828-1.339 4.537-1.354 1.484.618 3.57.455 5.178.484l9.954.073 30.751.238.005 6.504-30.648.03c-4.846-.002-9.888-.288-14.707.082-.471.036-.78.186-1.116.504Z"/>
  <path fill="#FEDBB2" d="m109.84 351.542 2.615.015c2.63-.01 5.387-.215 7.965.332l.263.048c2.344 1.246 5.127 2.127 7.807 1.707l.022 11.112.026 2.56-.052.149-30.751-.238-9.954-.072c-1.608-.03-3.695.133-5.178-.485l-2.097-1.56c-.738-.379-1.516-1.111-1.984-1.792-1.197-1.743-1.259-3.738-.841-5.749.582-1.434 1.173-2.603 2.272-3.706 1.016-1.02 2.254-1.795 3.688-2.053 2.423-.433 5.292-.185 7.78-.207l18.418-.061Z"/>
  <path fill="#FEB78B" d="M80.506 365.11c5.237-.733 11.07-.28 16.365-.286l31.641-.068.026 2.56-.052.149-30.751-.238-9.954-.072c-1.608-.03-3.695.133-5.178-.485l-2.097-1.56Z"/>
  <path fill="#008498" d="m128.32 384.238.118.046 28.952-.019 7.853.005c1.525-.001 3.248-.135 4.751.103 1.577.248 3.21 1.183 4.341 2.281 2.774 2.694 2.58 5.536 2.605 9.108l.035 6.425.029 11.957c-.002 1.827.249 4.203-.264 5.966-.346 1.186-1.219 2.082-2.071 2.935l-1.895 1.602-.764.605c.212 1.904.804 3.199 1.821 4.816 1.324 1.587 2.663 2.528 4.529 3.415-.412.108-.874.282-1.296.305-1.624-.808-2.855-2.077-4.142-3.324-1.918 1.146-6.406 2.653-8.663 2.587l-.013.114-.298.317c-1.115-.15-2.32-.096-3.448-.129l-31.817-.123-.129.035c-3.54-.203-7.165-.06-10.713-.072l-19.647-.047c-4.046.011-8.514.438-12.499-.226-2.112-.351-4.203-1.241-6.21-1.977-.79-.381-1.453-.86-2.157-1.379l.013-39.51c.822-1.67 1.923-3.142 2.962-4.679.996-.521 2.035-.787 3.145-.915 4.53-.658 9.762-.177 14.386-.178l30.486-.044Z"/>
  <path fill="#FEDBB2" d="M163.077 417.014c2.444.618 4.564 1.003 7.084 1.073l.071 3.742 1.778 3.423c.212 1.904.804 3.199 1.821 4.816 1.324 1.587 2.663 2.528 4.529 3.415-.412.108-.874.282-1.296.305-1.624-.808-2.855-2.077-4.142-3.324-1.918 1.146-6.406 2.653-8.663 2.587-1.988-4.688-3.122-11.178-1.182-16.037Z"/>
  <path fill="#DE362F" d="m170.232 421.829 1.778 3.423c.212 1.904.804 3.199 1.821 4.816 1.324 1.587 2.663 2.528 4.529 3.415-.412.108-.874.282-1.296.305-1.624-.808-2.855-2.077-4.142-3.324-1.827-2.373-2.609-5.69-2.69-8.635Z"/>
  <path fill="#fff" d="m128.285 395.322 3.718-.019-.016 9.683 9.708.028c.562 1.863.19 5.114.115 7.128l-9.908.094-.042 10.276-3.349.009-3.52-.008-.003-10.488-9.706-.012.034-6.845 9.632.013.036-9.726 3.3-.133Z"/>
  <path fill="#64B8C3" d="m86.305 386.27 10.982-.016 22.903.068 5.301.017c.866-.011 1.915-.16 2.742.075l.052 8.908-3.301.133-.035 9.726-9.633-.013-.034 6.844 9.706.012.002 10.489 3.521.008.03 6.81c.013 1.267-.099 2.656.142 3.9l-.129.034c-3.54-.203-7.165-.06-10.713-.072l-19.647-.047c-4.046.011-8.514.438-12.499-.226-2.112-.351-4.203-1.241-6.21-1.977l.052-28.494c-.01-3.687-.479-8.144.164-11.754.193-1.085.747-2.173 1.531-2.952 1.547-1.536 3.046-1.534 5.073-1.473Z"/>
  <path fill="#008498" d="m360.697 160.578.161-.255c-1.896-.785-3.843-1.337-5.706-2.218-10.081-4.763-17.832-12.419-22.109-22.777-4.22-10.22-4.165-21.952.091-32.148 3.946-9.453 11.848-18 21.411-21.929 10.091-4.144 21.668-4.507 31.79-.249 10.076 4.24 18.841 12.867 22.96 23.029 4.175 10.301 4.534 20.901.166 31.232-4.392 10.39-12.48 18.877-22.985 23.101-5.118 2.058-10.982 3.469-16.535 3.349-1.997-.044-3.953-.387-5.952-.394l-3.292-.741Z"/>
  <path fill="#fff" d="M368.322 88.096c3.224-.54 7.077.07 10.235.76 8.216 1.799 15.076 7.303 19.52 14.333 4.062 6.426 6.088 15.46 4.303 22.952-1.071 4.498-2.62 8.561-5.435 12.286-5.743 7.597-13.316 11.722-22.636 13.002-2.923.365-6.272.087-9.153-.537-8.368-1.811-15.97-7.046-20.54-14.296-4.217-6.69-6.358-15.298-4.515-23.113 1.2-5.09 3.13-9.877 6.42-13.996 5.454-6.829 13.24-10.41 21.801-11.391Z"/>
  <path fill="#008498" d="M368.225 93.596c6.307-.418 12.048.694 17.37 4.226 6.198 4.113 10.062 10.607 11.43 17.867 1.275 6.774-.638 13.62-4.493 19.227-4.047 5.887-10.628 9.483-17.534 10.784-7.154.673-14.37-.951-20.065-5.505-5.387-4.308-8.83-10.633-9.574-17.482-.767-7.05 1.083-14.409 5.593-19.945 4.378-5.374 10.446-8.41 17.273-9.172Z"/>
  <path fill="#fff" d="M368.615 102.803c4.18-.355 7.706.222 11.363 2.293 3.796 2.147 6.877 6.002 8 10.23 1.141 4.303.281 8.834-1.9 12.65-2.673 4.678-6.252 7.155-11.408 8.566-4.416.714-9.028.1-12.846-2.304-3.855-2.429-6.402-6.645-7.354-11.039-.926-4.273.015-9.444 2.417-13.093 2.743-4.169 6.95-6.359 11.728-7.303Z"/>
  <path fill="#01284A" d="M368.954 108.304c2.95-.332 5.849-.053 8.434 1.507 2.702 1.631 4.56 4.36 5.276 7.42.719 3.073.204 6.402-1.539 9.046-1.942 2.944-4.592 4.491-7.973 5.186-2.941.288-5.616-.034-8.18-1.611-2.659-1.636-4.635-4.179-5.335-7.255-.718-3.152.01-6.602 1.724-9.319 1.809-2.864 4.378-4.272 7.594-4.974Z"/>
  <path fill="#008498" d="m371.115 111.828.076.01c.895.067 1.804.07 2.657.38 2.08.758 3.755 2.319 4.6 4.379.713 1.739.696 4.364-.046 6.087l-.145.316c-.656 1.463-2.026 3.002-3.473 3.737l-.287.138c-1.049.516-2.043.674-3.185.85-1.483-.14-2.978-.373-4.264-1.19-1.666-1.061-3.167-3.105-3.591-5.03-.445-2.015-.05-4.52 1.195-6.213 1.668-2.269 3.762-3.07 6.463-3.465Z"/>
  <path fill="#64B8C3" d="M128.125 448.676c-2.61-.547-6.127.012-8.841.026l-24.914.079c-4.077.012-8.6.436-12.604-.187-8.219-1.279-15.184-4.748-20.947-10.797-6.306-6.62-9.819-16.328-9.549-25.422.195-6.579 2.729-13.666 6.738-18.88 1.621-2.108 3.52-3.88 5.449-5.696-4.023 6.194-6.843 11.94-6.828 19.529.018 9.49 3.616 17.647 10.377 24.308 4.246 4.183 9.114 6.874 14.899 8.298 6.666 1.64 14.2.913 21.063.895l25.794-.083 40.164-.2c-2.022-2.178-4.04-4.168-4.978-7.063l.298-.318.012-.114c2.258.066 6.746-1.441 8.664-2.587 1.287 1.248 2.518 2.517 4.143 3.325.422-.024.883-.198 1.294-.306-1.865-.887-3.204-1.828-4.528-3.415 1.191-.554 2.14-1.522 3.121-2.382l.283-.274c4.598-4.552 4.737-9.016 4.761-15.065l8.545.115c1.782-.697 3.218-2.7 4.452-4.123 1.34 1.289 2.389 2.63 3.452 4.154l.294.117 130.343-.108.109 11.02c.012 2.642-.249 5.544.464 8.103l.115.427c1.209 4.33 4.22 8.17 8.163 10.347 1.95 1.077 3.982 1.753 6.204 1.941 3.428.29 6.985.106 10.428.093l18.708-.081 29.45-.055 10.315-.038c2.45-.014 5.003.17 7.374-.541 3.151-.946 5.419-2.78 7.962-4.756-1.601 6.648-4.736 12.029-10.732 15.673-2.023 1.229-4.392 2.054-6.727 2.432-3.757.608-8.039.251-11.859.269l-23.39.113c-1.707.008-5.067-.46-6.541.23-3.46 2.422-7.98 4.404-11.813 6.194-18.466 8.625-37.7 14.402-57.65 18.404-11.051 2.218-22.302 3.228-33.546 3.734-48.913 2.204-97.114-10.14-137.99-37.335Z"/>
  <path fill="#fff" d="M266.245 460.286c1.524-.082 2.983-.093 4.402.57 2.246 1.048 4.107 3.142 4.846 5.519.59 1.895.409 4.209-.6 5.921-1.563 2.652-3.336 4.043-6.335 4.814-1.853.167-3.39-.031-5.053-.907-2.101-1.106-3.803-2.948-4.452-5.265-.625-2.236-.209-4.71 1.024-6.668 1.408-2.24 3.68-3.378 6.168-3.984Z"/>
  <path fill="#F7524D" d="M230.832 452.656c-.036 1.231-.232 2.301-.707 3.446-.974 2.351-3.053 4.171-5.41 5.069-2.081.793-4.319.77-6.34-.197-2.137-1.022-3.843-2.846-4.582-5.104-.68-2.082-.362-4.71.695-6.627 1.066-1.93 3.04-3.527 5.132-4.169l.38-.11c1.363-.404 3.31-.397 4.668.02.921.284 1.799.77 2.644 1.229 1.787 1.411 3.067 2.643 3.396 5.04l.124 1.403Z"/>
  <path fill="#fff" d="M220.821 447.298c.934-.011 1.929-.195 2.846.04 1.568.4 2.912 1.545 3.703 2.935.715 1.256 1.112 2.556.679 3.977-.697 2.284-2.22 3.396-4.248 4.409-.941.149-2.097.264-3.024-.005a6.11 6.11 0 0 1-3.739-3.029c-.654-1.233-.763-2.964-.33-4.294.698-2.139 2.226-3.086 4.113-4.033Z"/>
  <path fill="#FE856D" d="M190.541 412.462c1.782-.697 3.218-2.7 4.452-4.123 1.34 1.289 2.389 2.63 3.452 4.154l.294.117c3.131 4.922 4.007 9.115 3.797 14.958-.745 3.975-1.911 7.337-4.56 10.49-1.156 1.377-2.516 2.481-3.772 3.753-2.882 1.618-5.542 2.88-8.846 3.363-6.014.877-11.649-1.052-16.432-4.628-2.022-2.178-4.04-4.168-4.978-7.063l.298-.318.012-.114c2.258.066 6.746-1.441 8.664-2.587 1.287 1.248 2.518 2.517 4.143 3.325.422-.024.883-.198 1.294-.306-1.865-.887-3.204-1.828-4.528-3.415 1.191-.554 2.14-1.522 3.121-2.382l.283-.274c4.598-4.552 4.737-9.016 4.761-15.065l8.545.115Z"/>
  <path fill="#F13836" d="m191.692 426.538 1.133-.139c-.992 3.037-2.685 6.344-5.7 7.832-2.61 1.288-5.354 1.44-8.096.452-.664-.24-1.364-.522-1.964-.894.422-.024.883-.198 1.294-.306 2.56.904 4.838.979 7.422.046 2.732-.986 4.4-3.317 5.581-5.838l.33-1.153Z"/>
  <path fill="#DE362F" d="M190.541 412.462c1.782-.697 3.218-2.7 4.452-4.123 1.34 1.289 2.389 2.63 3.452 4.154l-1.069-.45-.256-.365-.403.056-1.817-2.104c-1.852 2.065-3.939 3.303-5.918 5.129 2.724 3.387 4.417 6.53 3.924 11.019l-.08.621-1.133.139.024-.247c.322-4.255-.926-7.848-3.685-11.107-.312-.369-.263-.165-.233-.568l2.742-2.154Z"/>
  <path fill="#F13836" d="m196.717 411.734.403-.056.256.365 1.069.45.294.117c3.131 4.922 4.007 9.115 3.797 14.958-.745 3.975-1.911 7.337-4.56 10.49-1.156 1.377-2.516 2.481-3.772 3.753-2.882 1.618-5.542 2.88-8.846 3.363-6.014.877-11.649-1.052-16.432-4.628-2.022-2.178-4.04-4.168-4.978-7.063l.298-.318c.918.251.82.313 1.333 1.08 3.063 4.584 7.382 8.291 12.95 9.306 5.051.921 10.232.095 14.474-2.907 4.095-2.9 7.07-7.474 7.897-12.435 1.009-6.047-.745-11.569-4.183-16.475Z"/>
  <path fill="#64B8C3" d="m181.996 412.346 8.545.115-2.742 2.155c-.03.403-.079.199.233.568 2.759 3.26 4.007 6.851 3.685 11.107l-.025.247-.33 1.153c-1.18 2.522-2.849 4.853-5.581 5.839-2.584.932-4.862.857-7.422-.047-1.865-.887-3.204-1.828-4.528-3.415 1.191-.554 2.14-1.522 3.121-2.382l.283-.274c4.598-4.552 4.737-9.016 4.761-15.065ZM419.365 100.185c.959-.816 2.541-1.895 2.696-3.227.154-1.317-.794-2.986-1.623-3.939-.591-.68-1.256-1.239-2.198-1.223-1.969.032-4.172 1.292-5.951 2.075l-.135-.259c-1.813-3.433-4.294-6.442-7.06-9.144 1.142-1.55 2.94-3.535 3.572-5.343l.177 1.281.195.105c1.916 1.08 3.558 2.907 5.136 4.429l9.122 9.248c26.35 28.233 45.276 62.565 55.158 99.939 12.864 48.66 10.256 100.255-7.529 147.33-4.166 11.03-9.096 22.052-15.057 32.238-4.914 8.4-10.13 16.868-15.9 24.713l-6.407 7.979.129-43.103-.176-24.798.07-1.43c-.23-1.997-.075-4.17-.079-6.185l.05-12.073.013-1.218.031-18.201c.019-4.188.556-9.254-.396-13.312-.826-3.52-2.462-6.624-5.034-9.182-4.195-4.173-8.881-5.632-14.718-5.623-1.353.222-2.86.121-4.236.135-.301.004-1.123.097-1.373.014-.163-.055-.77-.738-.918-.873-.903-.824-1.553-1.437-2.799-1.493-8.249-.368-16.556.395-24.808.14l.277-1.195c-.127-.615-.091-.952.07-1.558.201-1.231.021-2.754.017-4.026l-.022-8.602-.031-19.375c-.002-2.577.445-5.919-.127-8.381.193-2.481.044-5.08.043-7.576l.004-14.413.036-14.916c.005-3.25.209-6.625-.354-9.834l-.964-3.537c.974-.102 1.972-.022 2.74-.647.844-2.471.868-5.102 1.027-7.685.811-.279 7.574-2.565 7.665-2.526.156.068.776.97.922 1.152 1.204 1.497 2.608 3.67 4.426 4.39l.21.076c.73.02 1.284-.055 1.921-.444 1.683-1.028 2.339-2.306 2.794-4.163-.297-1.865-.716-3.585-1.375-5.352 2.745-1.839 5.109-3.82 7.52-6.07.909.54 1.748 1.245 2.593 1.881 1.086.564 2.197 1.209 3.37 1.57 1.015.313 1.868.43 2.832-.124a4.528 4.528 0 0 0 2.224-3.113c.268-1.365-.683-2.524-1.377-3.612l-4.193-3.837c.902-1.267 1.772-2.575 2.524-3.938.65-1.181 1.291-3.143 2.388-3.83 2.226-.047 4.309.849 6.62.47.805-.132 1.596-.705 2.054-1.367.743-1.073 1.001-2.547.538-3.787-.836-2.238-4.938-3.714-7.072-4.441.079-1.215.446-2.462.704-3.653.482-1.774.481-3.563.537-5.388l.67-.383c2.012-.777 4.345-.418 6.203-1.836.91-.694 1.172-1.759 1.216-2.865.044-1.099-.38-2.275-1.139-3.067-1.79-1.869-4.904-1.814-7.317-1.964l-1.571-5.73-1.363-3.697 2.808-1.607Z"/>
  <path fill="#fff" d="M395.067 192.019c.738-.02 1.599.037 2.308.249.941.28 1.678 1.017 2.107 1.878.64 1.281.854 2.889.271 4.229-.584 1.344-1.745 1.947-3.04 2.466-.778-.014-1.674.033-2.418-.215-1.036-.344-1.933-1.223-2.363-2.214-.547-1.258-.607-2.8.011-4.046.649-1.308 1.83-1.853 3.124-2.347ZM458.883 278.873c.744 1.063 1.273 2.442 1.853 3.608.5 1.007.962 2.01 1.798 2.788 1.526 1.422 4.445 2.315 6.377 3.159l-5.286 2.076c-.54.228-1.488.53-1.855.984-1.212 1.503-2.012 4.757-2.753 6.603-.98-1.891-1.805-4.952-3.167-6.508-.323-.369-1.335-.729-1.805-.938l-5.125-2.286c1.923-.932 4.65-1.767 6.271-3.115 1.565-1.303 2.75-4.52 3.692-6.372Z"/>
  <path fill="#F97642" d="M446.301 171.795c1.746-.057 3.619.407 5.134 1.293 2.063 1.206 3.711 3.637 4.201 5.943.557 2.621-.187 5.343-1.744 7.485-1.731 2.383-3.91 3.23-6.685 3.713-1.752-.122-3.279-.386-4.836-1.23-2.122-1.15-3.842-3.327-4.48-5.658-.655-2.395-.154-5.009 1.148-7.091 1.685-2.693 4.274-3.817 7.262-4.455Z"/>
  <path fill="#fff" d="M445.81 175.281c.971-.054 1.88-.06 2.815.247 1.45.475 2.836 1.701 3.442 3.106.565 1.307.557 2.645.022 3.967-.786 1.941-2.243 2.935-4.103 3.73-1.048.125-2.296.096-3.306-.23-1.327-.428-2.397-1.593-2.93-2.857-.606-1.442-.608-3.193.07-4.619.878-1.844 2.187-2.625 3.99-3.344Z"/>
  <path fill="#F97642" d="M451.22 239.57c1.89.056 3.562.188 5.263 1.124 2.151 1.183 4.046 3.29 4.604 5.735.506 2.219.032 4.882-1.129 6.821-1.499 2.502-3.505 3.795-6.274 4.52-2.413.163-4.93.075-7.038-1.244-1.749-1.094-2.721-3.007-3.179-4.966-.611-2.62-.245-5.814 1.252-8.066 1.595-2.398 3.757-3.4 6.502-3.924Z"/>
  <path fill="#fff" d="M450.5 243.304c1.058-.142 2.153-.245 3.192.053 1.685.483 2.853 1.559 3.601 3.126.608 1.27.649 2.846.154 4.161-.736 1.95-1.935 2.653-3.743 3.508-1.127.088-2.195.168-3.3-.124-1.347-.356-2.457-1.307-3.132-2.508-.813-1.449-.909-3.25-.367-4.813.612-1.761 2.015-2.614 3.596-3.403Z"/>
  <path fill="#008498" d="m433.555 318.798.433-.115c1.66-.462 3.356-1.363 5.012-1.94 4.943-1.724 9.821-2.812 15.048-3.142 1.62-.102 3.585-.33 5.075.444.587.304.815.634 1.112 1.205.355 4.55-1.735 9.175-3.483 13.295-4.308 10.148-9.685 19.784-16.875 28.201l-6.187 6.538-.176-24.798.07-1.43c-.23-1.997-.075-4.17-.079-6.185l.05-12.073Z"/>
  <path fill="#003F55" d="m449.358 323.776 5.999-5.275c.812-.753 1.966-2.124 3.018-2.454l.589.453c-.157.83-1.159 1.451-1.781 2.017l-6.892 6.095-11.049 9.345c-1.869 1.537-3.7 3.205-5.728 4.529l.07-1.43 15.774-13.28Z"/>
  <path fill="#008498" d="M424.964 198.532c.798 1.26.762 4.417.847 5.966.396 7.219.548 14.703.024 21.915-.351 4.827-.841 9.928-1.877 14.648l-.101.446-.32 1.443c-1.222 5.657-2.715 11.334-4.806 16.738-1.538 3.972-3.452 7.736-5.28 11.575-1.353.221-2.86.12-4.236.135-.301.002-1.123.096-1.373.013-.163-.055-.77-.738-.918-.873-.903-.824-1.553-1.437-2.799-1.493-8.249-.368-16.556.395-24.808.14l.277-1.195c-.127-.615-.091-.952.07-1.558.201-1.231.021-2.754.017-4.026l-.022-8.602-.031-19.375c-.002-2.577.445-5.919-.127-8.381l.276.45c.63-.008 1.264-.8 1.74-1.213l4.915-4.222c8.294-6.948 18.382-12.918 28.102-17.65 2.945-1.434 5.906-2.97 8.983-4.097l1.447-.784Z"/>
  <path fill="#003F55" d="M424.964 198.532c-.135 1.625-1.875 3.775-2.74 5.175l-8.544 13.5-18.077 28.145-9.774 15.569 9.017-4.55.017-.05 28.994-14.814-.32 1.443-29.01 14.708c-3.042 2.154-6.722 3.624-9.919 5.584l-5.014 4.748c-.127-.615-.091-.952.07-1.558 3.505-3.677 5.935-7.727 8.586-12.032l6.591-10.407 28.676-44.677 1.447-.784Z"/>
  <path fill="#008498" d="m394.526 257.658 29.01-14.708c-1.221 5.657-2.714 11.334-4.805 16.738-1.538 3.972-3.452 7.736-5.28 11.575-1.353.221-2.86.12-4.236.135-.301.002-1.123.096-1.373.013-.163-.055-.77-.738-.918-.873-.903-.824-1.553-1.437-2.799-1.493-8.249-.368-16.556.395-24.808.14l.277-1.195 5.014-4.748c3.197-1.96 6.877-3.43 9.918-5.584ZM379.501 226.048l.276.45c.63-.008 1.264-.8 1.74-1.213l4.915-4.222c8.294-6.948 18.382-12.918 28.102-17.65 2.945-1.434 5.906-2.97 8.983-4.097l-28.675 44.677-6.592 10.407c-2.65 4.305-5.081 8.355-8.587 12.032.202-1.231.022-2.754.018-4.026l-.022-8.602-.031-19.375c-.002-2.577.445-5.919-.127-8.381Z"/>
  <path fill="#004770" d="m246.321 158.551 11.065-.038c1.33.011 3.064-.179 4.336.206l.165.251c.956.184 1.774.458 2.661-.073l.397.056 65.307-.036c1.93.17 4.114.297 6.013-.11 1.869.285 4.896.475 6.743.058 1.292.072 2.125.374 3.216 1.062.315.198 1.02.794 1.336.877.973.257 3.211-.161 4.29-.203 2.921-.117 5.926-.175 8.846-.023l3.292.741c6.301 2.412 11.043 7.002 13.756 13.181l.522 1.272.964 3.537c.563 3.209.36 6.584.353 9.834l-.036 14.916-.003 14.413c.001 2.496.15 5.095-.043 7.576.572 2.462.125 5.804.127 8.381l.031 19.375.022 8.602c.004 1.272.184 2.795-.017 4.026-.161.606-.197.943-.07 1.558l-.277 1.195c8.252.255 16.559-.508 24.808-.14 1.246.056 1.896.669 2.799 1.493.148.135.755.818.918.873.25.083 1.072-.01 1.374-.014 1.375-.014 2.882.087 4.235-.135 5.837-.01 10.522 1.45 14.718 5.623 2.572 2.558 4.208 5.662 5.034 9.183.952 4.057.415 9.123.397 13.311l-.032 18.201-.013 1.218-.05 12.073c.005 2.014-.151 4.188.079 6.185l-.07 1.43.176 24.798-.129 43.103-.05 14.214c.001 2.789.163 5.637-.24 8.399l-.057.43c-.521 3.67-2.452 6.782-4.84 9.532-2.543 1.976-4.811 3.81-7.962 4.756-2.371.712-4.923.527-7.374.541l-10.315.038-29.45.055-18.709.08c-3.442.013-7 .197-10.428-.092-2.221-.188-4.252-.864-6.203-1.941-3.943-2.177-6.954-6.017-8.163-10.347l-.115-.427c-.713-2.559-.452-5.46-.464-8.103l-.11-11.02-130.342.108-.294-.117c-1.063-1.524-2.112-2.865-3.452-4.154-1.234 1.423-2.67 3.426-4.452 4.123l-8.545-.115-.008-13.159 5.122-.147 128.522-.02-.129-24.523 13.76-.003-.012-7.349-.011-7.006.008-7.527-13.722-.072-.028-33.039 13.764-.045-.002-7.421-.005-6.977-.002-7.526c-.012-4.228-.498-9.123.6-13.218l.121-.44c.415-1.543.997-2.856 1.699-4.286.855-1.255 1.712-2.425 2.792-3.5 5.474-5.451 12.424-4.58 19.483-4.579.589-.522.962-1.375 1.354-2.063 3.973.537 8.212.26 12.224.255l.09-33.138-.039-25.317-223.704-.004-.115 140.443-9.298-.006c3.347-1.81 5.693-4.89 6.915-8.469 2.137-6.259-.609-11.778-3.367-17.301l-4.49-9.026-.208-43.136.084-89.43a27.906 27.906 0 0 1 10.297-18.965c3.721-2.985 8.34-5.165 13.066-5.925 4.984-.802 10.447-.393 15.507-.41l27.118-.109 30.208-.065c4.803-.003 9.946-.383 14.714.105l.576.274c.726-.152.882-.193 1.441-.672Z"/>
  <path fill="#CECDCB" d="m315.503 374.498 13.76-.003-.034 24.552-13.596-.026-.13-24.523ZM315.498 319.502l13.764-.045-.014 33.156-13.722-.072-.028-33.039Z"/>
  <path fill="#008498" d="m335.474 205.741-191.477.018.008-11.907c.009-5.237-.497-10.623 2.21-15.352 2.477-4.326 6.266-7.167 11.035-8.545 1.65-.477 3.229-.516 4.937-.546l41.36-.028 91.319.032 41.059-.071 10.255.073c2.164.02 4.52-.094 6.646.337 4.614.933 8.623 4.201 11.227 8.026 1.623 2.245 2.555 4.46 3.344 7.1.845 2.829.596 6.01.594 8.932l-.034 12.219-21.732.016c-3.474-.016-7.33.28-10.751-.304Z"/>
  <path fill="#fff" d="M228.837 181.782c2.856-.03 7.4-.574 10.002.524 1.424.602 2.425 1.703 2.964 3.15.629 1.689.603 3.698-.175 5.33-.855 1.794-2.138 2.62-3.947 3.312l-5.906.144c-1.204.014-2.508.153-3.65-.295-1.623-.636-2.856-1.764-3.52-3.382-.667-1.628-.791-3.819.003-5.42.898-1.809 2.406-2.696 4.228-3.363ZM200.529 181.804c1.661-.078 8.512-.465 9.631.141 1.654.897 3.02 2.323 3.599 4.133.558 1.743.331 3.915-.574 5.505-.913 1.603-2.096 2.186-3.844 2.62-2.962.151-8.409.727-10.841-.958-1.172-.811-1.992-1.984-2.24-3.394l-.056-.351c-.234-1.375-.209-2.66.292-3.984.712-1.88 2.256-2.951 4.032-3.712Z"/>
  <path fill="#003F55" d="M171.639 181.052c3.034-.086 7.211-.608 10.118.128l.243.066c.553.143.351.067.875.268 1.494.572 2.632 2.083 3.19 3.536.848 2.207.5 4.902-.485 7.007-.789 1.687-2.229 2.526-3.916 3.127l-6.767.061c-1.433.014-3.035.196-4.365-.424-1.877-.874-2.859-2.197-3.498-4.126-.699-2.111-.294-5.032.799-6.954.849-1.494 2.205-2.266 3.806-2.69Z"/>
  <path fill="#fff" d="M172.345 181.8c2.8-.118 7.496-.535 10.04.622 1.377.626 2.335 1.843 2.819 3.252.655 1.91.529 4.17-.46 5.951-.83 1.491-2.125 2.179-3.704 2.646-2.719.261-7.508.745-10.04-.291-1.44-.589-2.714-1.727-3.251-3.207-.649-1.785-.518-4.001.347-5.702.958-1.88 2.327-2.623 4.249-3.271Z"/>
  <path fill="#64B8C3" d="m273.835 179.282 35.277-.058 16.217.051c3.24.015 8.055-.544 11.06.614 2.219.855 3.745 2.608 4.682 4.767.897 2.069.905 4.477.045 6.563-1.157 2.805-3.106 4.341-5.852 5.461-3.519.298-7.123.142-10.653.13l-16.849-.072-19.556-.116-12.131.06c-1.171-.04-2.341-.174-3.435-.614-2.147-.866-3.998-2.593-4.806-4.788-.81-2.198-.494-5.129.469-7.227 1.115-2.431 3.058-3.889 5.532-4.77Z"/>
  <path fill="#fff" d="m344.821 276.048 6.942.067c.115 2.512.355 5.124 2.079 7.114 1.475 1.702 3.51 2.861 5.783 2.946l9.113-.043 18.322.002 10.217.037c1.981.022 4.09.216 6.051.02 1.056-.104 2.195-.575 2.948-1.33 1.747-1.757 1.175-5.928 1.182-8.24 3.487-.126 7.857-.541 11.245.353 3.425.904 6.225 3.064 7.98 6.135 1.094 1.912 1.735 4.147 1.856 6.34.262 4.761.017 9.671.009 14.443l-.012 28.625-.026 66.009-.015 18.82c-.007 3.964.571 9.226-.584 13.005l-.131.399c-.694 2.174-1.842 3.664-3.36 5.327-1.462 1.363-3.307 2.536-5.26 3.034-2.072.529-4.263.432-6.385.45l-9.425.05-36.344-.101-14.01.04c-2.372.031-4.876.315-7.23.133a12.256 12.256 0 0 1-5.326-1.707c-2.966-1.808-5.346-4.798-6.102-8.232-.353-1.604-.198-3.528-.215-5.169l.046-11.515.061-26.929-.025-68.08.052-20.315c.007-3.555-.16-7.19.048-10.736.102-1.735.775-3.754 1.712-5.213 2.107-3.284 5.077-4.963 8.804-5.74Z"/>
  <path fill="#CECDCB" d="m345.91 408.139 23.078.139.013 13.157c-.001 2.044.178 4.292-.024 6.315-.068.685-.309 1.055-.801 1.525-.225.215-.425.312-.716.411-.144-.344-.067-.274-.301-.487l-21.25-21.06Z"/>
  <path fill="#C1BDB8" d="M367.46 429.686c-2.324.323-5.166-.008-7.542.001l-8.938.036c-1.576.005-3.276.138-4.843-.018-.604-.06-1.036-.302-1.42-.782-.924-1.158-.65-17.389-.428-19.673.61-.776.61-.855 1.62-1.111l21.25 21.06c.233.213.156.143.3.487Z"/>
  <path fill="#F7524D" d="m367.038 401.218-.769.031-14.511.027c-1.886.006-4.297.286-6.133-.02-.493-.083-.761-.306-1.085-.672-.315-.356-.429-.904-.473-1.361-.409-4.233-.029-8.829-.028-13.099.001-2.399-.333-5.158-.029-7.499.1-.77.427-.917.985-1.392.515.441.276.132.469.58.649 1.512 3.254 3.584 4.437 4.836l12.104 12.964 3.697 3.76c.274.276 1.008.844 1.166 1.173.101.208.113.448.17.672ZM367.781 337.533c-.267.147-.317.194-.66.264-1.263.26-3.13.015-4.474.015L350 337.778c-.985-.005-3.536.265-4.375-.045-.308-.115-.567-.334-.85-.501-1.146-1.604-.735-4.879-.743-6.829l.012-13.824c.015-1.157.093-1.808.931-2.622.316.129.367.129.68.371.53.409 1.05 1.23 1.494 1.744l3.056 3.24 10.836 11.001 4.807 4.778c.603.622 1.5 1.376 1.851 2.18l.082.262Z"/>
  <path fill="#FE856D" d="M344.975 313.957c2.23-.76 5.998-.298 8.379-.301l9.812-.002c2.005.004 4.054-.103 6.043.156.026 3.534.551 21.524-.666 23.315l-.762.408-.082-.262c-.351-.804-1.248-1.558-1.851-2.18l-4.808-4.778-10.835-11-3.056-3.241c-.444-.514-.964-1.336-1.493-1.744-.314-.242-.365-.242-.681-.37ZM344.995 377.233c1.366-.735 4.053-.389 5.661-.39l11.998-.005c1.646 0 3.901-.309 5.471-.002.39.075.74.197.887.582.498 1.299.178 4.029.179 5.491l-.045 11.808c-.017 1.582.265 4.156-.472 5.543-.22.413-.562.689-.939.95l-.697.008c-.057-.224-.069-.464-.17-.672-.158-.329-.892-.897-1.166-1.173l-3.697-3.76-12.104-12.964c-1.183-1.252-3.788-3.324-4.437-4.837-.192-.447.046-.138-.47-.58Z"/>
  <path fill="#008498" d="M345.278 345.209c2.702-.656 6.514-.202 9.333-.204l8.989.004c1.732.004 3.672-.185 5.332.318.642.853.319 4.094.32 5.255l-.01 11.313c-.005 1.785.127 3.709-.035 5.48-.055.601-.183.964-.623 1.382-.325.286-.6.435-1.036.49-2.368.3-5.123.047-7.529.051l-14.394-.064c-.457-.255-.814-.45-1.14-.876-.346-.452-.415-1.237-.445-1.781-.251-4.615-.045-9.363-.038-13.99.003-1.86-.339-4.462.118-6.212.206-.788.486-.82 1.158-1.166ZM377.774 346.125c2.046-.466 4.751-.137 6.863-.13l15.129.063c5.052.021 10.441-.394 15.459.02 1.27.104 1.729.586 2.484 1.547.385 1.655.27 3.368.272 5.057l-.008 8.125c-.007 1.923.26 4.319-.135 6.163-.238 1.109-.807 1.633-1.713 2.25-1.921.378-4.212.135-6.176.134l-11.49.038-13.811.036c-2.022.004-4.276.208-6.276-.055-1.082-.143-1.623-.603-2.247-1.457-.392-1.692-.24-3.531-.243-5.262l.01-8.647c.005-1.634-.34-4.466.161-5.959.339-1.009.849-1.401 1.721-1.923Z"/>
  <path fill="#64B8C3" d="M381.61 351.875c1.43-.193 2.989-.087 4.441-.104l8.39-.048c6.325-.013 12.913-.388 19.207.135.25 2.202.452 5.64-.073 7.767l-.762.185-32.012-.13c-.181-.192-.231-.223-.356-.433-.666-1.121-.74-4.737-.37-5.926.242-.776.843-1.138 1.535-1.446Z"/>
  <path fill="#008498" d="M378.059 377.875c1.321-.313 3.111-.112 4.486-.113l9.726.001 15.7-.016c2.337 0 4.88-.197 7.196.04 1.16.119 1.856.569 2.567 1.463.41 1.652.253 3.483.26 5.186l.01 8.709c-.002 1.728.282 4.11-.096 5.746-.238 1.036-1.132 1.72-1.994 2.234-1.087.317-2.639.133-3.78.133l-7.588.002-26.796-.027c-.658-.384-1.11-.792-1.464-1.483-.61-1.193-.637-19.119-.046-20.5.32-.747 1.123-1.083 1.819-1.375Z"/>
  <path fill="#64B8C3" d="M381.509 383.625c2.989-.534 6.779-.128 9.862-.129l22.121.029v5.598c-.001.764.09 1.534-.209 2.252l-.72.163-31.188-.09c-.315-.248-.618-.506-.868-.823-.791-1-.625-3.399-.469-4.622.142-1.118.593-1.732 1.47-2.378Z"/>
  <path fill="#008498" d="m378.368 314.082 36.82.147c1.175.038 1.649.438 2.437 1.274.624 1.68.382 3.87.382 5.67l.012 9.4c.003 1.376.325 4.305-.232 5.463-.46.955-1.192 1.42-2.162 1.738l-28.09.046-6.548-.002c-.948.002-2.307.158-3.21-.157-.589-.204-1.17-.925-1.454-1.451-.657-1.211-.332-3.842-.336-5.276l.001-9.944c.006-1.758-.192-3.797.243-5.49.655-.78 1.2-1.041 2.137-1.418Z"/>
  <path fill="#64B8C3" d="M381.296 320.125c3.167-.524 6.829-.144 10.076-.146l22.171.004c.05 2.048.395 4.976-.166 6.923-.2.697-.411.741-1.002 1.07l-23.957.041-5.308-.031c-.263-.005-1.137.069-1.36-.031-.191-.087-.714-.467-.875-.651-.839-.955-.875-2.818-.796-4.016.088-1.356.19-2.235 1.216-3.163ZM39.613 337.053c-1.741-3.713-2.829-7.981-4.025-11.9-3.616-11.845-6.116-23.96-7.874-36.214-2.078-14.484-3.058-29.16-2.305-43.792 1.526-29.653 8.445-59.593 20.96-86.572 8.096-17.457 18.628-33.937 30.703-48.896 5.193-6.434 10.621-12.44 16.436-18.318 2.313-2.338 4.597-4.799 7.049-6.986 34.041-30.355 78.033-50.87 123.213-57.187 15.882-2.221 31.82-2.57 47.805-1.646 39.819 2.3 78.983 15.15 112.926 36.032l12.845 8.7c1.498 1.095 3.129 1.944 4.377 3.344.364-.447.771-.62 1.274-.881.959-.373 1.464-.425 2.433.032 1.491.703 2.884 2.086 3.868 3.384l-.423 2.558-.27-.086-.109-.492c-.424-1.776-1.678-3.031-3.227-3.944a11.23 11.23 0 0 0-2.018-.916l-.269.195c-1.38 1.029-2.382 2.281-3.46 3.608-.255.312-.847 1.247-1.147 1.43-.178.108-.416 0-.625 0l-1.334-.755c-1.671-1.08-3.657-1.703-5.425-2.642-.24-1.934 1.123-3.99.459-5.947-.305-.899-1.249-1.691-2.075-2.105-.962-.48-2.692-.511-3.668-.097-1.041.442-1.68 1.248-2.07 2.279l-.934 2.32c-.384.224-.691.005-1.099-.108-2.363-.65-4.606-.763-7.036-.896-.082-1.717-.488-4.308-1.287-5.816-.42-.794-1.06-1.56-1.954-1.813-1.145-.325-2.433.023-3.452.576-1.187.644-1.431 1.557-1.811 2.775l-.335-.06-.2.415-2.228 3.618.389.416-7.042 1.456c-1.811-1.806-2.625-6.363-5.773-6.336-1.644.014-3.448.877-4.52 2.118-.639.739-.9 1.489-.844 2.469.552 2.015 1.382 3.82 2.231 5.722-2.345 1.267-4.244 2.777-6.38 4.331l-1.896-1.4c-1.538-1.042-3.52-2.684-5.495-2.316-1.379.257-2.924 1.81-3.597 2.982-.482.838-.464 1.671-.303 2.597l.184.321c1.038 1.769 2.578 3.125 4.097 4.477l-4.808 6.888c-1.432-.356-2.7-.83-4.046-1.425-1.43-.305-2.854-.468-4.135.398-1.442.975-1.783 2.661-2.015 4.269l-.07.531.111.215c1.29 2.427 3.994 3.424 6.327 4.636-.658 1.927-1.355 3.861-1.877 5.831-.332 1.255-.456 2.739-1.055 3.89-1.595 1.858-5.637.385-7.431 2.555-.771.933-.024 2.349-.603 3.168.172 1.13.354 2.126 1.346 2.83 1.784 1.265 4.709.849 6.767 1.567.368 3.398.909 6.743 2.06 9.972l-3.396 2.269c-1.399 1.247-2.358 2.185-3.038 3.979.568 1.513 1.019 3.27 2.452 4.183 2.11.445 5.296-.676 7.355-1.262 1.499 2.884 3.065 5.595 5.136 8.115-1.349 1.314-4.699 4.36-4.73 6.333.308 1.209.803 1.918 1.55 2.888l-65.307.036-.397-.056c-.887.53-1.705.257-2.661.073l-.165-.251c-1.272-.385-3.006-.195-4.336-.206l-11.065.038c-.559.479-.715.52-1.441.672l-.576-.274c-4.768-.489-9.911-.108-14.714-.106l-30.208.066-27.118.109c-5.06.017-10.523-.392-15.507.41-4.726.76-9.345 2.94-13.066 5.925a27.906 27.906 0 0 0-10.297 18.964l-.084 89.431.208 43.136 4.49 9.026c2.758 5.523 5.504 11.042 3.367 17.301-1.222 3.58-3.567 6.659-6.915 8.469l-.215.09c-1.391 1.22-3.98 1.509-5.755 1.874-2.68.42-5.463-.46-7.807-1.707l-.264-.048c-2.577-.547-5.334-.342-7.963-.332l-2.617-.015-18.418.062c-2.488.021-5.357-.227-7.78.207-1.434.257-2.672 1.033-3.688 2.052-1.099 1.103-1.69 2.272-2.272 3.706-.418 2.011-.356 4.006.841 5.749.468.681 1.246 1.413 1.984 1.793l2.097 1.559c-1.709.015-3.23.075-4.537 1.353-.74.724-1.067 1.561-1.047 2.592.027 1.367.621 2.273 1.606 3.171.745.679 1.622.894 2.626.887.411-.002.425-.019.769-.088l-.097 1.189c-1.362.757-3.168.926-4.641 1.51-4.63 1.837-8.584 4.759-12.092 8.241-10.512-14.585-19.63-31.46-25.577-48.472Z"/>
  <path fill="#DE362F" d="m70.927 179.962.116-1.212c.795-.957 5.641-1.692 7.082-1.93l.392.674c-1.376 1.464-5.57 2.181-7.59 2.468Z"/>
  <path fill="#F13836" d="m78.517 177.494.755 1.466c-.563.33-.9.432-1.521.571l-2.104.6c-1.534.443-2.72 1.89-4.335 1.859-.063-.737-.159-1.326-.385-2.029 2.02-.286 6.214-1.004 7.59-2.467Z"/>
  <path fill="#DE362F" d="M105.516 222.962c.456.674.78.963.807 1.788-.953 1.533-3.342 4.935-5.073 5.347l-.711-.417c.852-2.3 3.564-4.649 4.977-6.718ZM57.694 192.234l-1.52-2.072c1.227-1.505 3.294-4.58 5.076-5.204l1.041.522c-1.092 1.806-3.602 3.33-4.004 5.395l-.209.947-.384.412ZM88.303 180.058c.427-.757.826-1.6 1.398-2.252 1.728.606 5.519 1.636 6.51 3.194l-.187 1.294c-1.552-1.127-5.853-2.228-7.72-2.237ZM52.921 208.613l-2.672-.869c.163-1.629.121-5.752 1.034-6.929l2.016-.165.076.544-.775.681c-.125 2.055-.472 4.817.321 6.738ZM110.206 205.57l1.674.305c.619 1.204-.112 5.901-.505 7.419-.278.091-.567.207-.853.264l-1.172-.183c.52-2.173.721-4.764.523-6.99-.035-.402.118-.485.333-.815ZM83.037 236.374c1.303.052 2.478.132 3.725-.334l.363-.141c1.529-.553 2.569-1.256 3.554-2.578.228-.306.4-.256.763-.34l.22 3.298c-2.451.814-4.755 1.462-7.309 1.846-.741-.38-.919-1.032-1.316-1.751ZM65.231 232.445c.788.526 1.614.703 2.45 1.121 1.935.967 3.707 2.007 5.93 2.06-.424.764-.974 1.453-1.494 2.153-1.572-.699-6.472-2.46-7.323-3.779l.437-1.555ZM54.418 217.511c.062 1.238.054 2.595.517 3.764.496 1.254 1.32 2.284 1.692 3.6l.92.829c-.684.3-1.152.535-1.922.434-1.721-2.174-2.64-4.535-3.618-7.113.705-.637 1.583-1.057 2.411-1.514ZM102.773 189.186l2.398-1.457c1.092 1.438 3.408 4.365 3.695 6.146-.45.681-.924 1.088-1.567 1.585-1.058-1.677-1.908-3.948-3.356-5.279l-1.17-.995Z"/>
  <path fill="#008498" d="M327.844 155.781c.382.038.514.052.858.248.308 1.209.803 1.918 1.55 2.888l-65.307.036c1.399-.394 3.358-.197 4.821-.2l9.49-.013 36.55-.025 7.203.03c.857.005 2.2.189 2.994 0 .642-.152 1.52-2.34 1.841-2.964Z"/>
  <path fill="#fff" d="m99.583 101.378 1.347 3.481c.98 1.9 3.902 2.435 5.772 2.979-.599.703-2.42 1.116-3.28 1.689-2.16 1.44-2.603 3.54-3.063 5.924-2.103-3.644-3.825-5.455-7.648-7.356l2.664-1.133c2.3-1.119 3.329-2.898 4.096-5.234l.112-.35ZM218.752 44.805l.926 2.634c1.416 3.042 3.872 3.77 6.772 4.817-1.018.255-2.025.51-2.983.951-2.663 1.226-3.467 3.619-4.427 6.168l-.336.11c-.264-1.025-.577-1.966-1.09-2.897-1.478-2.685-3.553-3.581-6.346-4.372l3.272-1.275c2.614-1.218 3.288-3.635 4.213-6.136ZM243.62 122.844l1.245 3.202c1.224 2.536 4.01 3.432 6.488 4.337-1.583.754-3.842 1.55-5.123 2.759-1.3 1.228-2.137 4.029-2.738 5.713-1.069-2.792-1.837-5.343-4.731-6.671-1.129-.518-2.411-.911-3.462-1.565 1.601-.707 4.064-1.468 5.372-2.612 1.249-1.091 2.238-3.638 2.95-5.163Z"/>
  <path fill="#01284A" d="m269.263 133.708 13.353-13.083.647.072.516.346c1.906 1.11 3.608 3.18 5.175 4.753.895.898 1.889 1.713 2.406 2.89.025 1.531-.89 2.332-1.885 3.362l-24.927 26.849c-.887.53-1.705.257-2.661.073l-.165-.251c.61-.239 1.194-.6 1.68-1.042 2.911-2.648 5.488-6.064 8.144-9.01l14.82-16.223-7.21-6.739-.302-.335-8.144 8.513-10.693 10.867-10.648 10.625c-.934.943-2.447 2.041-3.048 3.176-.559.479-.715.52-1.441.672l-.576-.274 24.959-25.24Z"/>
  <path fill="#fff" d="M281.707 122.712c1.43.865 2.517 2.222 3.667 3.42l4.544 4.348c-.483.5-.718.935-1.418 1.069-2.759-1.993-4.85-5.036-7.53-7.221-.457-.373-.327-.127-.395-.703l1.132-.913Z"/>
  <path fill="#DE362F" d="m283.262 120.697.517.346 4.44 4.742c.948.962 2.125 1.871 2.736 3.09-.217.733-.349 1.157-1.037 1.605l-4.544-4.348c-1.15-1.198-2.237-2.555-3.668-3.42l.067-.302c.257-.903.686-1.276 1.49-1.713Z"/>
  <path fill="#fff" d="M295.858 50.304c1.045-.051 2.205-.188 3.225.085l.292.086c.514.148 1.016.3 1.5.533 2.012.972 3.548 2.54 4.33 4.641l.12.337.225.639c.628 2.167.01 4.694-1.12 6.578-1.376 2.298-3.349 3.32-5.827 3.977-1.745.12-3.334-.063-4.93-.822-2.082-.99-3.704-2.968-4.452-5.13-.754-2.186-.495-3.927.525-5.978 1.3-2.614 3.421-4.025 6.112-4.946ZM61.559 254.074c1.466.004 2.718.151 4.066.766 2.477 1.13 4.233 3.186 5.088 5.752.772 2.319.56 4.092-.63 6.252-1.415 2.569-3.801 3.94-6.516 4.751-2.017.23-3.837.016-5.61-1.026-2.258-1.327-3.602-3.382-4.213-5.911-.589-2.439-.092-4.846 1.306-6.903 1.575-2.318 3.864-3.196 6.509-3.681Z"/>
  <path fill="#F97642" d="M88.029 129.796c2.216-.261 4.303-.177 6.346.806 2.337 1.124 4.084 2.976 4.936 5.438.833 2.41.523 5.43-.653 7.672-1.407 2.678-3.642 4.157-6.489 4.992-1.581.285-3.153.274-4.7-.202-2.442-.75-4.528-2.735-5.62-5.02-1.093-2.29-1.299-4.893-.412-7.295 1.174-3.182 3.595-5.07 6.592-6.391Z"/>
  <path fill="#fff" d="M89.9 133.545c.896-.02 1.836.094 2.666.44 1.426.594 2.59 1.876 3.168 3.3.644 1.591.569 3.183-.157 4.734-.843 1.802-2.28 2.64-4.075 3.313-1.244-.021-2.174-.05-3.322-.582-1.519-.702-2.796-2.101-3.29-3.718-.418-1.367-.212-3.104.486-4.336 1.023-1.804 2.577-2.65 4.524-3.151Z"/>
  <path fill="#008498" d="m270.71 133.883 8.144-8.513.302.335 7.21 6.739-14.82 16.223c-2.656 2.946-5.233 6.362-8.144 9.01a5.518 5.518 0 0 1-1.68 1.042c-1.272-.385-3.006-.195-4.336-.206l-11.065.038c.6-1.135 2.114-2.233 3.048-3.176l10.648-10.625 10.693-10.867Z"/>
  <path fill="#fff" d="M228.931 97.319c-.355-2.884.373-5.912 2.194-8.235 1.888-2.409 4.561-3.904 7.611-4.22l3.11-.038c.877-5.863 3.335-10.621 8.16-14.226 4.36-3.258 9.871-5.055 15.342-4.265 5.647.815 10.862 4.203 14.205 8.766 1.409 1.923 2.198 4.27 2.89 6.53 2.75-.838 5.249-1.317 8.084-.465l.441.129c3.617 1.102 6.461 3.591 8.212 6.913 1.534 2.908 1.974 6.119.997 9.285l-.458 1.202c-1.37 2.963-3.842 5.597-6.97 6.674-2.039.702-4.262.62-6.389.624l-7.291.012-19.095.011c-7.176 0-14.593.41-21.736-.064-1.313-.087-2.512-.501-3.673-1.103-3.098-1.606-4.558-4.352-5.634-7.53Z"/>
  <path fill="#F7524D" d="M79.272 178.96c.246 1.542 1.209 3.534 2.475 4.475.698.518 1.488.677 2.338.505 1.609-.325 2.871-1.572 3.684-2.931l.534-.951c1.868.008 6.169 1.11 7.721 2.237-.572 1.533-1.243 4.095-.537 5.615.42.903 1.28 2.004 2.29 2.257 1.725.433 3.476-.225 4.996-.981l1.17.995c1.448 1.331 2.298 3.602 3.356 5.28-1.385 1.171-3.09 2.445-3.248 4.404-.116 1.448.395 3.157 1.38 4.242 1.069 1.176 3.284 1.263 4.775 1.463-.215.33-.368.413-.333.815.198 2.226-.004 4.817-.523 6.99l1.172.183-.207.031c-2.858.396-4.93-.547-6.904 2.149-.678.924-1.264 2.22-.998 3.387.338 1.486 1.98 2.87 3.103 3.837-1.413 2.069-4.125 4.418-4.977 6.719-1.416-.927-3.817-2.774-5.596-2.351-1.26.3-2.59 1.716-3.155 2.84-.406.809-.413 1.924-.346 2.81-.362.085-.534.035-.763.341-.986 1.322-2.025 2.025-3.554 2.578l-.362.141c-1.248.466-2.423.386-3.726.334-.71-1.381-1.455-3.082-2.833-3.913-.804-.486-2.099-.66-3.002-.393-1.858.551-2.675 2.004-3.591 3.558-2.223-.053-3.995-1.093-5.93-2.06-.837-.418-1.662-.595-2.45-1.121.388-1.398.642-2.718.719-4.169-.615-1.314-1.4-2.954-2.86-3.497-1.919-.714-3.779.221-5.544.925l-.919-.829c-.372-1.316-1.196-2.346-1.692-3.6-.463-1.169-.455-2.526-.517-3.764 1.197-.674 2.342-1.548 2.824-2.886.369-1.025.273-2.102-.209-3.075-.868-1.756-2.331-2.39-4.112-2.938-.793-1.92-.446-4.681-.32-6.737l.774-.68-.076-.544c1.199-.101 2.541-.139 3.688-.519 1.438-.477 2.07-1.477 2.747-2.757.185-1.238-.359-2.132-.864-3.224l-1.176-1.917.384-.412.209-.947c.402-2.065 2.912-3.589 4.005-5.395.686.508 1.336 1.006 2.108 1.377l.217.086c.803.327 1.655.735 2.53.793a3.408 3.408 0 0 0 2.641-.946c1.474-1.386 1.485-2.925 1.525-4.8 1.614.031 2.8-1.416 4.334-1.859l2.104-.6c.621-.139.959-.24 1.52-.57Z"/>
  <path fill="#DE362F" d="M79.882 187.338c4.102-.544 8.922 1.061 12.235 3.417 4.634 3.294 7.922 8.464 8.735 14.117.704 4.902-.846 10.54-3.777 14.493-3.507 4.728-9.145 7.304-14.827 8.1-4.683.086-9.288-.833-13.108-3.725-4.39-3.323-7.462-8.64-8.176-14.098-.646-4.937.962-10.106 4.01-14.002 3.767-4.814 8.864-7.577 14.908-8.302Z"/>
  <path fill="#FE856D" d="M79.174 189.085c4.313-.212 8.528.508 12.166 3.016 3.855 2.658 6.792 7.1 7.7 11.691.913 4.614-.24 10.015-2.905 13.86-3.19 4.605-7.913 7.043-13.314 8.042-1.883.174-4.009.2-5.857-.237-5.076-1.203-9.112-4.16-11.775-8.681-2.188-3.716-3.206-8.835-2.081-13.049l.13-.477c.666-2.494 1.734-4.813 3.297-6.875 3.108-4.099 7.575-6.612 12.639-7.29Z"/>
  <path fill="#fff" d="M79.256 195.794c2.26-.082 4.115 0 6.195.995 3.019 1.445 5.569 4.175 6.553 7.409.876 2.875.355 5.661-1.017 8.302-1.694 3.261-4.513 4.989-7.917 6.036-2.777.543-5.231.129-7.72-1.183-2.524-1.332-4.533-3.697-5.349-6.436-.902-3.028-.802-6.507.824-9.287 1.889-3.23 4.922-4.91 8.431-5.836Z"/>
  <path fill="#008498" d="M89.779 249.22c.801-.247 1.296-.182 2.096-.053l.312.047c2.601.444 5.272 1.785 7.677 2.844 8.875 3.905 17.258 8.992 24.968 14.858l8.478 6.832.208 43.136 4.49 9.026c2.758 5.523 5.504 11.042 3.367 17.301-1.222 3.58-3.567 6.659-6.915 8.469l-.215.09c-1.391 1.22-3.98 1.509-5.755 1.874-2.68.42-5.463-.46-7.807-1.707l-.264-.048c-2.577-.547-5.334-.342-7.963-.332l-2.617-.015-18.418.062c-2.488.021-5.357-.227-7.78.207-1.434.257-2.672 1.033-3.688 2.052-1.099 1.103-1.69 2.272-2.272 3.706-1.178-1.272-2.087-2.932-2.97-4.42-5.48-10.038-9.879-19.939-13.299-30.858-1.453-4.637-2.89-9.497-3.685-14.3-.252-1.52-.416-2.771.51-4.089l.799-.634c1.715-1.04 4.858.051 6.726.51l13.996 3.911 10.258 3.965 4.947 2.332c.659.303 1.463.798 2.19.788l-3.941-12.462c-3.507-12.492-5.639-25.233-5.793-38.218l.297-9.462c.116-1.737.118-3.815 1.403-5.129l.66-.283Z"/>
  <path fill="#003F55" d="M89.779 249.22c.225.098.472.156.674.294.347.237.839 1.168 1.058 1.529l2.294 3.746 15.937 26.255c5.14 8.468 10.684 17.103 14.926 26.055l-.794 1.71c-1.414-1.258-2.437-4.135-3.384-5.812l-7.69-13.425-15.712-26.505-5.034-8.228c-1.046-1.728-2.186-3.456-2.936-5.336l.661-.283ZM59.036 303.268c1.133.686 2.033 1.959 3.034 2.843l8.157 7.134 42.228 38.312-2.615-.015c-3.026-3.168-6.324-6.024-9.519-9.019l-24.451-22.23-10.071-9.009c-2.356-2.075-6.145-4.606-7.563-7.382l.8-.634Z"/>
  <path fill="#fff" d="m124.668 307.099 1.773-4.102c2.214 4.563 4.335 9.627 7.077 13.887l4.49 9.026c2.758 5.523 5.504 11.042 3.367 17.301-1.222 3.58-3.567 6.659-6.915 8.469l-.215.09-4.745.344c-.407.486-.194.279-.625.636l-.077-.75c-.66-.377-1.314-.23-2.068-.223l-5.784-.105-.696-.196c-3.395-1.261-6.103-4.784-7.391-8.053-2.274-5.772-.131-11.079 2.184-16.407l8.83-18.207.795-1.71Z"/>
  <path fill="#01284A" d="M126.54 340.375c.63-.212 1.431-.234 2.085-.113.906.167 1.84.915 2.244 1.73.351.707.22 2.162-.078 2.877-.377.903-1.057 1.294-1.916 1.654-.502.143-.979.215-1.5.132-.88-.14-1.833-.77-2.311-1.518-.465-.728-.648-1.673-.449-2.514.264-1.118.972-1.698 1.925-2.248Z"/>
  <path fill="#008498" d="M58.236 303.902c1.418 2.776 5.207 5.307 7.563 7.382l10.07 9.009 24.453 22.23c3.194 2.994 6.492 5.851 9.517 9.019l-18.418.062c-2.488.021-5.357-.227-7.78.207-1.434.257-2.672 1.033-3.688 2.052-1.099 1.103-1.69 2.272-2.272 3.706-1.178-1.272-2.087-2.932-2.97-4.42-5.48-10.038-9.879-19.939-13.299-30.858-1.453-4.637-2.89-9.497-3.685-14.3-.252-1.52-.416-2.771.51-4.089ZM89.779 249.22c.801-.247 1.296-.182 2.096-.053l.312.047c2.601.444 5.272 1.785 7.677 2.844 8.875 3.905 17.258 8.992 24.968 14.858l8.478 6.832.208 43.136c-2.742-4.26-4.863-9.324-7.076-13.887l-1.773 4.101c-4.243-8.952-9.787-17.587-14.927-26.054L93.804 254.79l-2.293-3.747c-.219-.36-.71-1.292-1.058-1.529-.202-.138-.449-.196-.674-.294Z"/>
  <path fill="#DE362F" d="M118.748 80.515c.553-2.966 1.523-5.434 4.11-7.245.603-.423 1.215-.724 1.892-1.005l.337-.143c.662-.254 1.295-.32 1.997-.341l16.978-.02 33.36-.009 20.862-.012c3.243 0 6.72-.25 9.942.032 1.01.087 2.096.482 3.003.912 2.4 1.138 4.005 3.142 4.894 5.622.315.876.403 1.764.44 2.686l.007 32.272.065 12.413c.025 2.213.218 4.584.028 6.785-.083.961-.456 2.068-.915 2.913-.718 1.325-2.2 2.564-3.435 3.415l-.382.138c-.967.372-1.757.583-2.799.615l-18.748-.01-34.159-.013-21.06.014c-3.27.003-6.892.288-10.131-.074-1.612-.18-2.938-.825-4.098-1.97-1.107-1.091-1.863-2.483-2.088-4.026-.284-1.965-.135-4.097-.136-6.081l.004-10.347.032-36.521Z"/>
  <path fill="#FE856D" d="m126.626 73.273 15.51-.086 29.643-.037 23.721.02c4.095.007 8.294-.175 12.375.078 1.154.072 2.446.584 3.393 1.235 1.756 1.209 3.12 3.455 3.468 5.538.44 2.63.219 5.604.23 8.266l.017 15.956-.022 18.602c-.008 3.198.184 6.556-.143 9.737-.109 1.062-.495 1.979-1.148 2.825-1.19 1.54-2.603 2.025-4.458 2.32l-85.418-.267c-1.385-.892-2.389-1.764-3.004-3.335-.627-1.605-.542-3.4-.545-5.089l-.01-6.923-.01-18.996.004-14.622c.002-2.711-.124-5.493.063-8.194.055-.815.284-1.447.621-2.178 1.206-2.614 3.1-3.888 5.713-4.85Z"/>
  <path fill="#fff" d="M138.266 114.81c1.187-.16 2.529-.267 3.684.111 1.596.524 2.796 1.727 3.544 3.204.788 1.556.68 3.472.06 5.065-.721 1.854-2.155 2.843-3.92 3.595-.991.157-1.89.194-2.881-.016-1.697-.359-3.103-1.51-3.957-2.997-.83-1.445-1.078-3.19-.591-4.796.658-2.174 2.176-3.17 4.061-4.166ZM160.146 114.579c1.078.065 2.178.08 3.146.613 1.686.927 2.73 2.335 3.189 4.191.41 1.665.054 3.471-.881 4.916-1.062 1.64-2.523 2.294-4.357 2.705-1.46-.002-3.013-.273-4.233-1.129-1.293-.907-2.269-2.433-2.501-4-.247-1.66.067-3.389 1.07-4.75 1.192-1.617 2.663-2.177 4.567-2.546ZM179.546 114.545c.962-.063 1.98-.171 2.93.028 1.654.348 3.174 1.608 4.013 3.052.816 1.404 1.151 3.317.633 4.884-.698 2.112-2.459 3.318-4.383 4.202-1.118.114-2.542.223-3.609-.154-1.606-.569-2.868-1.767-3.583-3.307-.71-1.527-.7-3.32-.107-4.88.752-1.98 2.274-2.987 4.106-3.825ZM133.591 97.999 169 97.974l-.002 3.524-35.385.007-.022-3.506ZM133.477 89.599l64.25-.075-.028 3.7-64.237-.21.016-3.415ZM133.631 81.569l68.508-.105.005 3.561-68.478-.043-.035-3.413Z"/>
</svg>