<?xml version="1.0" encoding="utf-8" ?>
<svg xmlns="http://www.w3.org/2000/svg" xmlns:xlink="http://www.w3.org/1999/xlink" width="513" height="512">
	
	<path fill="white" transform="scale(0.500977 0.5)" d="M700.185 154.75C701.298 154.553 702.54 154.416 703.642 154.719C705.938 155.352 707.946 157.019 709.117 159.069C710.26 161.071 710.593 163.276 709.954 165.5C708.981 168.887 707.033 170.255 704.039 171.827C702.481 171.964 700.809 172.18 699.29 171.699C696.9 170.941 695.037 168.967 694.075 166.69C693.283 164.817 693.218 162.128 694.044 160.25C695.309 157.374 697.412 155.954 700.185 154.75Z"/>
	<path fill="white" transform="scale(0.500977 0.5)" d="M105.823 381.632C107.396 381.658 109.162 381.958 110.624 382.559C113.503 383.744 115.412 386.582 116.389 389.419C117.29 392.036 117.177 395.279 115.876 397.75C114.113 401.097 111.015 402.552 107.629 403.701C105.104 403.645 103.04 403.568 100.805 402.298C98.2594 400.852 96.3069 398.417 95.6402 395.536C94.9712 392.645 95.2858 389.642 96.9427 387.146C99.1994 383.746 101.945 382.356 105.823 381.632Z"/>
	<path fill="white" transform="scale(0.500977 0.5)" d="M856.096 319.618C859.814 319.222 863.58 319.213 867.051 320.756C870.566 322.32 872.799 325.384 874.166 328.903C875.721 332.909 875.872 337.275 874.028 341.233C871.951 345.691 868.569 347.893 864.148 349.593C861.56 350.156 858.644 350.344 856.078 349.565C852.027 348.336 848.305 345.723 846.497 341.801C844.542 337.559 844.321 333.089 846.057 328.75C847.949 324.019 851.63 321.527 856.096 319.618Z"/>
	<path fill="white" transform="scale(0.500977 0.5)" d="M282.542 145.066C287.157 144.585 291.195 144.972 295.404 147.124C300.269 149.612 304.058 154.37 305.66 159.557C307.375 165.107 306.659 171.508 303.788 176.542C300.671 182.007 295.813 184.7 289.955 186.253C284.996 186.569 280.391 186.492 275.929 183.922C271.04 181.105 267.006 175.965 265.742 170.403C264.57 165.245 265.747 159.041 268.572 154.6C271.94 149.304 276.595 146.531 282.542 145.066Z"/>
	<defs>
		<linearGradient id="gradient_0" gradientUnits="userSpaceOnUse" x1="517.62213" y1="650.13916" x2="511.31683" y2="951.6709">
			<stop offset="0" stop-color="#002245"/>
			<stop offset="1" stop-color="#004E6B"/>
		</linearGradient>
	</defs>
	<path fill="url(#gradient_0)" transform="scale(0.500977 0.5)" d="M477.986 485.035C480.303 485.958 482.408 487.49 484.631 488.634C491.218 492.025 498.54 495.391 505.808 497.002C520.126 500.175 535.318 491.953 547.083 484.444L554.542 528.398L557.801 544.232C561.036 545.861 564.484 547.423 567.475 549.47C577.141 556.085 582.239 564.892 586.129 575.594L586.154 576.016C588.94 575.821 590.835 576.872 593.473 577.496C594.374 577.708 595.907 577.844 596.682 578.304C606.466 581.675 617.335 583.489 627.466 585.744L651.044 591.826C656.841 593.389 663.2 594.829 668.578 597.523C688.46 607.54 705.913 626.979 712.873 648.223L724.418 696.833L735.414 746.25C735.222 746.548 735.082 746.923 734.776 747.1C733.908 751.557 736.097 757.678 736.965 762.154L744.684 799.675C749.152 821.246 754.233 843.182 757.305 864.995C757.897 872.86 758.382 880.997 756.642 888.75L755.875 892.445L834.25 899.715C851.472 901.655 868.841 903.667 885.589 908.308C890.555 909.684 903.203 912.884 905.38 917.554C905.958 918.794 905.953 919.478 905.564 920.75C901.839 924.721 896.275 926.573 891.18 928.169C875.032 933.23 857.586 935.158 840.869 937.401L745 945.704L528 951.508L376.049 949.462L199.107 938.948L159.009 933.762C149.421 932.201 139.376 930.38 130.25 926.999C127.27 925.895 123.111 924.535 120.75 922.389C119.006 920.804 119.079 919.932 119.049 917.75C126.943 908.822 144.507 906.483 155.75 904.34C185.955 898.581 216.936 896.038 247.577 893.75L267.25 892.264C269.96 892.083 273.563 892.398 276.047 891.444L276.806 891.131C271.408 889.101 266.84 886.633 263.75 881.545C257.733 871.635 263.812 858.005 266.496 847.684L290.759 751.292L339.89 762.811L341.425 763.149C344.123 757.772 344.864 751.069 346.347 745.25L350.099 728.503L362.854 670.253L366.207 652.859C366.741 649.898 366.774 645.329 368.363 642.86C368.926 638.949 367.374 633.147 366.886 629.137L362.811 593.171L422.306 578.959C427.249 578 433.455 575.861 438.369 576.059L438.398 575.615L439.222 573.393C444.522 559.301 453.431 550.809 466.974 544.649C467.966 542.814 468.178 539.666 468.654 537.575L473.378 514.988L477.986 485.035Z"/>
	<path fill="#008498" transform="scale(0.500977 0.5)" d="M355.43 766.494L355.867 765.57L364.123 741.131C365.007 753.212 367.069 765.03 368.854 777C369.514 781.424 370.449 785.91 370.817 790.366C371.301 796.22 370.783 802.357 370.745 808.25L370.785 845.861C370.727 845.135 370.567 844.826 370.25 844.185L334.295 844.57L334.538 843.225C334.485 841.034 335.893 837.723 336.499 835.554L341.261 817.886L349.49 786.801C351.26 780.081 352.775 772.927 355.43 766.494Z"/>
	<path fill="white" transform="scale(0.500977 0.5)" d="M352.764 907.394L351.746 900.548L669.96 900.506L667.784 907.252L352.764 907.394Z"/>
	<path fill="#64B8C3" transform="scale(0.500977 0.5)" d="M352.764 907.394L667.784 907.252C664.969 912.404 661.104 917.039 655.345 918.935L654.575 919.175C650.177 920.588 644.551 920.103 639.929 920.147L614.663 920.25L541.472 920.328L423.282 920.221L373.431 920.304C370.964 920.217 368.633 919.907 366.274 919.156C359.678 917.058 355.84 913.538 352.764 907.394Z"/>
	<path fill="#FACFBF" transform="scale(0.500977 0.5)" d="M290.759 751.292L339.89 762.811L341.425 763.149L355.43 766.494C352.775 772.927 351.26 780.081 349.49 786.801L341.261 817.886L336.499 835.554C335.893 837.723 334.485 841.034 334.538 843.225L334.295 844.57L370.25 844.185C370.567 844.826 370.727 845.135 370.785 845.861L370.864 891.07C361.727 891.064 277.852 890.466 276.806 891.131C271.408 889.101 266.84 886.633 263.75 881.545C257.733 871.635 263.812 858.005 266.496 847.684L290.759 751.292Z"/>
	<path fill="#E0466C" transform="scale(0.500977 0.5)" d="M318.19 842.999C323.111 842.996 329.819 842.246 334.538 843.225L334.295 844.57C329.499 845.219 291.409 845.737 289.25 844.5L289.179 843.67C290.854 842.478 295.315 843.063 297.377 843.053L318.19 842.999Z"/>
	<path fill="#FACFBF" transform="scale(0.500977 0.5)" d="M668.578 597.523C688.46 607.54 705.913 626.979 712.873 648.223L724.418 696.833L735.414 746.25C735.222 746.548 735.082 746.923 734.776 747.1C733.908 751.557 736.097 757.678 736.965 762.154L744.684 799.675C749.152 821.246 754.233 843.182 757.305 864.995C757.897 872.86 758.382 880.997 756.642 888.75L755.875 892.445L651.317 892.097L651.431 845.746L651.503 797.721C651.491 789.931 650.829 781.627 651.638 773.915C652.153 769.009 653.47 763.955 654.332 759.071C653.706 758.556 653.51 758.536 653.22 757.75C652.553 755.942 652.722 752.972 652.701 751.052C652.647 746.26 652.864 741.167 651.856 736.501C651.076 732.889 649.881 730.377 648.497 727.003C647.814 725.336 646.806 725.205 646.558 723.213L668.205 603.917L668.578 597.523Z"/>
	<path fill="#E0466C" transform="scale(0.500977 0.5)" d="M687.008 843.818C688.905 843.552 689.46 843.723 691.25 844.102C693.083 844.49 696.26 844.116 698.18 843.932L717.87 843.946C720.311 843.946 723.736 843.458 725.994 844.25L726.482 845.25C726.155 845.503 725.889 845.867 725.5 846.008C724.035 846.537 719.593 845.986 717.761 845.979L687.435 845.826L687.008 843.818Z"/>
	<path fill="#EFA99A" transform="scale(0.500977 0.5)" d="M682.432 764.881L682.913 764.867L690.249 843.62C692.848 843.679 695.617 843.539 698.18 843.932C696.26 844.116 693.083 844.49 691.25 844.102C689.46 843.723 688.905 843.552 687.008 843.818L672.085 769.293C675.202 767.409 679.046 766.208 682.432 764.881Z"/>
	<path fill="#008498" transform="scale(0.500977 0.5)" d="M654.332 759.071C656.181 750.799 657.862 742.47 658.351 733.989C661.225 742.971 662.947 752.576 665.306 761.733C665.912 764.083 666.544 768.829 668.25 770.516L672.085 769.293L687.008 843.818L687.435 845.826L651.431 845.746L651.503 797.721C651.491 789.931 650.829 781.627 651.638 773.915C652.153 769.009 653.47 763.955 654.332 759.071Z"/>
	<path fill="#014672" transform="scale(0.500977 0.5)" d="M668.578 597.523C688.46 607.54 705.913 626.979 712.873 648.223L724.418 696.833L735.414 746.25C735.222 746.548 735.082 746.923 734.776 747.1L682.913 764.867L682.432 764.881C679.046 766.208 675.202 767.409 672.085 769.293L668.25 770.516C666.544 768.829 665.912 764.083 665.306 761.733C662.947 752.576 661.225 742.971 658.351 733.989C657.862 742.47 656.181 750.799 654.332 759.071C653.706 758.556 653.51 758.536 653.22 757.75C652.553 755.942 652.722 752.972 652.701 751.052C652.647 746.26 652.864 741.167 651.856 736.501C651.076 732.889 649.881 730.377 648.497 727.003C647.814 725.336 646.806 725.205 646.558 723.213L668.205 603.917L668.578 597.523Z"/>
	<path fill="#002B4B" transform="scale(0.500977 0.5)" d="M668.205 603.917C669.158 607.915 668.206 612.288 667.927 616.352L667.043 632.685L665.889 688.682C665.851 695.256 665.111 702.115 665.493 708.647C665.893 715.459 669.077 723.442 671.289 729.916L679.809 755.949C680.656 758.78 682.061 761.987 682.432 764.881C679.046 766.208 675.202 767.409 672.085 769.293L668.25 770.516C666.544 768.829 665.912 764.083 665.306 761.733C662.947 752.576 661.225 742.971 658.351 733.989C657.862 742.47 656.181 750.799 654.332 759.071C653.706 758.556 653.51 758.536 653.22 757.75C652.553 755.942 652.722 752.972 652.701 751.052C652.647 746.26 652.864 741.167 651.856 736.501C651.076 732.889 649.881 730.377 648.497 727.003C647.814 725.336 646.806 725.205 646.558 723.213L668.205 603.917Z"/>
	<path fill="white" transform="scale(0.500977 0.5)" d="M384.402 724.149L385.196 724.109L436.217 723.964L541.535 724.37L602.267 724.375C612.704 724.332 623.783 723.54 634.162 724.465C637.122 724.729 640.155 726.473 642.255 728.54C644.467 730.717 646.636 734.135 646.935 737.261C647.445 742.583 646.955 748.389 646.906 753.749L646.725 786.172L646.484 895.459L638.436 895.388L376.048 895.431L376.538 729.765C378.968 727.033 380.996 725.538 384.402 724.149Z"/>
	<path fill="#CED5D7" transform="scale(0.500977 0.5)" d="M507.273 794.589C511.584 794.167 515.085 794.202 519.031 796.196C522.962 798.183 526.048 801.415 527.462 805.638L527.658 806.25L528.082 807.584C529.326 812.251 528.395 817.874 525.928 821.987C523.405 826.194 519.033 828.246 514.489 829.438C511.061 829.578 507.936 829.45 504.75 828.005C500.08 825.887 496.283 821.774 494.67 816.892C493.351 812.902 493.334 807.644 495.276 803.845C497.856 798.797 502.034 796.294 507.273 794.589Z"/>
	<path fill="#008498" transform="scale(0.500977 0.5)" d="M477.986 485.035C480.303 485.958 482.408 487.49 484.631 488.634C491.218 492.025 498.54 495.391 505.808 497.002C520.126 500.175 535.318 491.953 547.083 484.444L554.542 528.398L557.801 544.232C561.036 545.861 564.484 547.423 567.475 549.47C577.141 556.085 582.239 564.892 586.129 575.594L586.154 576.016C588.94 575.821 590.835 576.872 593.473 577.496C594.374 577.708 595.907 577.844 596.682 578.304C606.466 581.675 617.335 583.489 627.466 585.744L651.044 591.826C656.841 593.389 663.2 594.829 668.578 597.523L668.205 603.917L646.558 723.213C644.423 721.213 642.072 719.36 639.381 718.173C634.434 715.99 627.501 716.881 622.163 716.934L602.021 717.04L447.678 716.703L405.484 716.594C398.721 716.569 391.362 715.974 384.654 716.609C382.7 716.794 380.654 717.753 378.839 718.472L368.363 642.86C368.926 638.949 367.374 633.147 366.886 629.137L362.811 593.171L422.306 578.959C427.249 578 433.455 575.861 438.369 576.059L438.398 575.615L439.222 573.393C444.522 559.301 453.431 550.809 466.974 544.649C467.966 542.814 468.178 539.666 468.654 537.575L473.378 514.988L477.986 485.035Z"/>
	<path fill="white" transform="scale(0.500977 0.5)" d="M510.611 699.75C511.901 699.549 512.964 699.378 514.253 699.778C516.195 700.38 517.513 701.553 518.436 703.35C519.211 704.856 519.449 707.468 518.802 709.056C517.837 711.425 516.389 712.149 514.125 713.126C512.865 713.138 511.527 713.179 510.298 712.865C508.573 712.423 507.128 711.356 506.373 709.721C505.443 707.706 505.331 705.372 506.267 703.341C507.161 701.405 508.711 700.505 510.611 699.75Z"/>
	<path fill="white" transform="scale(0.500977 0.5)" d="M510.841 624.25C512.108 623.923 513.414 624.03 514.626 624.523C516.453 625.266 517.972 626.829 518.635 628.691C519.313 630.595 519.11 633.053 518.173 634.841C517.144 636.806 515.811 637.553 513.75 638.164C512.654 638.441 511.317 638.298 510.25 637.934C508.678 637.397 506.933 635.496 506.277 634.012C505.593 632.464 505.728 630.096 506.331 628.551C507.211 626.295 508.721 625.239 510.841 624.25Z"/>
	<path fill="white" transform="scale(0.500977 0.5)" d="M510.503 660.75C511.446 660.542 512.537 660.416 513.5 660.495C515.272 660.641 517.188 662.089 518.148 663.522C519.222 665.124 519.699 666.913 519.202 668.8C518.477 671.549 516.975 672.752 514.653 674.229C513.249 674.436 511.928 674.588 510.541 674.18C508.832 673.677 507.468 672.463 506.651 670.895C505.737 669.142 505.602 666.67 506.256 664.812C507.016 662.651 508.531 661.702 510.503 660.75Z"/>
	<path fill="white" transform="scale(0.500977 0.5)" d="M557.801 544.232C561.036 545.861 564.484 547.423 567.475 549.47C577.141 556.085 582.239 564.892 586.129 575.594L586.154 576.016C589.313 592.275 586.06 608.123 579.72 623.201C577.583 628.284 575.292 633.304 572.183 637.876C568.168 643.78 564.009 647.747 556.98 649.645C554.184 648.992 551.791 648.239 549.299 646.741C543.369 643.176 538.32 637.581 533.416 632.748L515.224 614.504C522.243 611.124 528.158 606.851 533.51 601.163C542.568 591.538 550.019 578.518 554.439 566.096C555.612 562.799 556.966 559.37 557.537 555.907C558.168 552.08 557.923 548.096 557.801 544.232Z"/>
	<path fill="white" transform="scale(0.500977 0.5)" d="M466.974 544.649L467.217 545.145C467.79 546.74 467.461 548.959 467.448 550.68C467.426 553.481 467.567 555.853 468.222 558.582C473.118 578.973 487.266 602.322 505.815 612.642C507.105 613.359 508.428 614.042 509.816 614.547C501.159 623.617 492.478 633.073 482.888 641.152C480.614 643.068 478.453 645.354 475.927 646.935C473.203 648.64 469.956 649.702 466.75 648.857C459.048 646.827 453.294 638.206 449.477 631.68C440.499 616.33 433.808 593.67 438.369 576.059L438.398 575.615L439.222 573.393C444.522 559.301 453.431 550.809 466.974 544.649Z"/>
	<path fill="#EFA99A" transform="scale(0.500977 0.5)" d="M477.986 485.035C480.303 485.958 482.408 487.49 484.631 488.634C491.218 492.025 498.54 495.391 505.808 497.002C520.126 500.175 535.318 491.953 547.083 484.444L554.542 528.398L557.801 544.232C557.923 548.096 558.168 552.08 557.537 555.907C556.966 559.37 555.612 562.799 554.439 566.096C550.019 578.518 542.568 591.538 533.51 601.163C528.158 606.851 522.243 611.124 515.224 614.504L509.816 614.547C508.428 614.042 507.105 613.359 505.815 612.642C487.266 602.322 473.118 578.973 468.222 558.582C467.567 555.853 467.426 553.481 467.448 550.68C467.461 548.959 467.79 546.74 467.217 545.145L466.974 544.649C467.966 542.814 468.178 539.666 468.654 537.575L473.378 514.988L477.986 485.035Z"/>
	<path fill="#CB7F70" transform="scale(0.500977 0.5)" d="M477.986 485.035C480.303 485.958 482.408 487.49 484.631 488.634C491.218 492.025 498.54 495.391 505.808 497.002C520.126 500.175 535.318 491.953 547.083 484.444L554.542 528.398L552.591 528.71C545.949 529.847 539.44 529.612 532.75 529.047C517.429 527.753 502.517 524.271 487.835 519.75C483.15 518.307 478.617 516.152 473.829 515.083L473.378 514.988L477.986 485.035Z"/>
	<path fill="#64B8C3" transform="scale(0.500977 0.5)" d="M298.942 302.351L328.52 294.825C328.437 281.246 329.042 268.081 331.25 254.667C338.052 213.354 358.281 172.406 387.696 142.57C419.18 110.636 461.802 87.7188 507.466 87.4766C553.261 87.2337 595.743 107.384 627.999 139.298C667 177.886 686.776 232.657 686.982 286.933L686.973 291.162L692.075 292.647C692.007 287.792 691.734 282.772 692.217 277.939C693.622 263.867 700.346 250.068 710.2 239.976C720.204 229.731 731.935 223.793 746.092 221.808C762.564 219.498 779.378 223.961 792.56 233.985C805.229 243.619 814.522 259.982 816.469 275.75C818.579 292.835 813.985 309.726 803.252 323.207C798.267 329.469 792.161 334.375 785.884 339.286C795.736 342.409 805.645 345.121 815.309 348.831C861.942 366.734 905.277 396.254 928.691 441.559C945.092 473.293 947.442 509.288 936.49 543.162C923.432 583.548 894.415 615.332 860.491 639.667C830.84 660.62 796.094 676.126 761.461 686.651C749.246 690.363 736.482 692.718 724.418 696.833L712.873 648.223C705.913 626.979 688.46 607.54 668.578 597.523C663.2 594.829 656.841 593.389 651.044 591.826L627.466 585.744C617.335 583.489 606.466 581.675 596.682 578.304C595.907 577.844 594.374 577.708 593.473 577.496C590.835 576.872 588.94 575.821 586.154 576.016L586.129 575.594C582.239 564.892 577.141 556.085 567.475 549.47C564.484 547.423 561.036 545.861 557.801 544.232L554.542 528.398L547.083 484.444C535.318 491.953 520.126 500.175 505.808 497.002C498.54 495.391 491.218 492.025 484.631 488.634C482.408 487.49 480.303 485.958 477.986 485.035L473.378 514.988L468.654 537.575C468.178 539.666 467.966 542.814 466.974 544.649C453.431 550.809 444.522 559.301 439.222 573.393L438.398 575.615L438.369 576.059C433.455 575.861 427.249 578 422.306 578.959L362.811 593.171L366.886 629.137C367.374 633.147 368.926 638.949 368.363 642.86C366.774 645.329 366.741 649.898 366.207 652.859L362.854 670.253L350.099 728.503L346.347 745.25C344.864 751.069 344.123 757.772 341.425 763.149L339.89 762.811L290.759 751.292L285.564 750.415L300.42 696.464C259.952 689.317 220.907 675.84 184.997 655.948C159.459 640.888 136.506 622.543 119.247 598.182C99.9 570.872 91.1807 540.097 97.1467 506.804C104.321 466.77 133.195 433.528 166.761 412.2L185.521 401.001C189.638 398.811 194.709 396.998 198.45 394.287L199.14 393.773C186.915 391.581 174.283 386.537 164.086 379.447C146.15 366.974 133.229 347.065 129.509 325.48C125.802 303.974 130.676 279.628 143.438 261.771C157.649 241.885 178.255 229.81 202.215 226.028C222.411 222.839 246.73 228.677 263.197 240.835C283.913 256.13 295.044 277.222 298.942 302.351Z"/>
	<path fill="white" transform="scale(0.500977 0.5)" d="M298.045 569.986C299.808 569.721 302.193 569.076 303.75 570.078C305.881 571.449 310.928 575.064 311.934 577.25C311.369 578.797 310.981 579.4 309.75 580.493C306.736 580.633 301.481 577.453 299.188 575.472L298.23 574.497C298.487 573.179 298.146 571.351 298.045 569.986Z"/>
	<path fill="#D59201" transform="scale(0.500977 0.5)" d="M684.546 354.779L693.116 355.033C692.613 364.463 690.732 374.514 683.936 381.607L684.367 374.412L684.546 354.779Z"/>
	<path fill="#F7B910" transform="scale(0.500977 0.5)" d="M684.538 325.467C691.295 333.955 693.079 344.505 693.116 355.033L684.546 354.779L684.538 325.467Z"/>
	<path fill="white" transform="scale(0.500977 0.5)" d="M675.869 317.451C679.348 319.129 682.868 321.871 684.538 325.467L684.546 354.779L684.367 374.412L683.936 381.607C681.964 383.858 679.382 386.602 676.642 387.866C677.309 383.715 676.965 379.106 677 374.892L677.006 354.304L676.98 332.924C676.963 327.692 677.18 322.563 675.869 317.451Z"/>
	<path fill="#CED5D7" transform="scale(0.500977 0.5)" d="M211.959 465.911L212.039 562.633L249.704 562.519L249.585 507.455C250.56 521.985 249.964 536.922 250.007 551.5L250.011 559.137C250.011 559.798 249.812 561.22 250.006 561.75C250.131 562.089 250.502 562.275 250.75 562.538L253.75 562.387C255.463 557.469 253.54 550.228 254.413 544.96L254.543 562.532L281.278 562.515C284.691 562.509 289.29 563.046 292.539 562.25L292.556 558.418L293.129 561.75C294.691 562.245 296.318 562.276 297.941 562.395L298.045 569.986C298.146 571.351 298.487 573.179 298.23 574.497L298.168 574.585C297.743 575.55 297.444 576.211 296.75 577.02L259.421 577.188L190.954 577.469L166.5 577.486C163.976 577.484 159.501 578.04 157.25 577.13C156.24 576.721 155.822 576.178 155.595 575.152C154.999 572.469 154.983 565.266 156.25 562.929C158.745 561.098 165.95 562.256 169.014 562.478C174.518 563.063 180.154 562.714 185.681 562.663L207.022 562.516C208.518 562.536 210.313 562.886 211.518 562L211.627 494.421C211.624 485.104 210.81 475.105 211.959 465.911Z"/>
	<path fill="white" transform="scale(0.500977 0.5)" d="M169.014 562.478L169.056 512.468L169.085 501.206C169.089 500.078 168.835 498.048 169.099 497C169.246 496.42 169.691 495.959 169.986 495.439C172.75 494.015 176.362 494.478 179.418 494.443L194.14 494.341C196.906 494.331 201.238 493.779 203.82 494.556C204.986 494.906 205.952 495.574 206.447 496.703C207.106 498.206 206.924 500.216 206.939 501.825L206.966 514.718L207.022 562.516L185.681 562.663C180.154 562.714 174.518 563.063 169.014 562.478Z"/>
	<path fill="white" transform="scale(0.500977 0.5)" d="M211.959 465.911C212.273 464.329 212.344 464.225 213.5 463.096C216.629 461.956 221.003 462.53 224.324 462.54L246.75 462.67C248.069 463.344 248.626 463.751 249.515 465L249.585 507.455L249.704 562.519L212.039 562.633L211.959 465.911Z"/>
	<path fill="white" transform="scale(0.500977 0.5)" d="M254.413 544.96L254.455 471.123L254.504 458.624C254.509 457.5 254.203 455.175 254.523 454.25C254.658 453.859 255.311 452.964 255.644 452.647C256.223 452.097 256.708 451.746 257.5 451.617C261.191 451.017 265.706 451.501 269.495 451.475C275.559 451.434 281.971 450.955 288 451.335C289.562 451.434 290.904 451.845 291.782 453.25C293.379 455.802 292.537 547.095 292.556 558.418L292.539 562.25C289.29 563.046 284.691 562.509 281.278 562.515L254.543 562.532L254.413 544.96Z"/>
	<path fill="#F7B910" transform="scale(0.500977 0.5)" d="M381.96 301.895C385.109 301.881 390.143 301.236 392.862 302.75C394.313 304.426 394.012 307.147 393.905 309.243L393.884 398.14L380.992 398.091C367.88 398.049 356.582 398.956 345.537 390.522C333.661 381.455 328.706 369.316 326.807 354.823C326.017 341.405 328.081 326.037 337.25 315.505C342.159 309.865 348.814 304.824 356.173 302.937C358.679 302.294 361.566 302.249 364.148 302.038L375.005 301.946L381.96 301.895Z"/>
	<path fill="white" transform="scale(0.500977 0.5)" d="M334.664 354.334C333.818 339.084 336.743 325.895 347.138 314.238C349.522 311.564 352.626 309.071 355.71 307.274C342.616 320.883 339.958 336.209 339.961 354.519C341.032 366.74 342.975 375.764 350.9 385.5L350.75 386.228C341.101 377.463 336.777 366.976 334.664 354.334Z"/>
	<path fill="#D59201" transform="scale(0.500977 0.5)" d="M339.961 354.519L393.703 354.64L393.843 309.874L393.905 309.243L393.884 398.14L380.992 398.091C367.88 398.049 356.582 398.956 345.537 390.522C333.661 381.455 328.706 369.316 326.807 354.823L334.664 354.334C336.777 366.976 341.101 377.463 350.75 386.228L350.9 385.5C342.975 375.764 341.032 366.74 339.961 354.519Z"/>
	<path fill="#014672" transform="scale(0.500977 0.5)" d="M364.148 302.038C364.478 289.905 365.367 278.079 368.081 266.203C374.02 240.221 387.724 215.787 406.37 196.853C433.407 169.398 470.003 154.378 508.429 154.128C547.351 153.876 584.214 168.613 611.843 196.097C634.159 218.296 648.179 248.817 651.195 280.097C651.873 287.136 651.559 294.469 651.575 301.547L641.499 301.515L640.018 301.627C638.729 290.608 637.421 279.913 634.633 269.15C627.596 241.991 611.971 216.617 589.85 199.182C562.524 177.646 528.394 167.719 493.842 171.616C460.713 175.351 430.459 194.305 410.096 220.215C395.843 238.35 387.479 259.32 383.852 281.95C382.819 288.394 381.859 295.368 381.96 301.895L375.005 301.946L364.148 302.038Z"/>
	<path fill="#E0466C" transform="scale(0.500977 0.5)" d="M375.005 301.946C374.584 296.782 375.392 290.583 375.868 285.394C379.157 249.524 396.386 214.569 424.249 191.456C454.074 166.716 488.7 157.984 526.812 161.664C560.132 164.882 591.174 182.81 612.141 208.565C628.135 228.212 637.81 253.018 640.85 278.097C641.777 285.751 642.287 293.832 641.499 301.515L640.018 301.627C638.729 290.608 637.421 279.913 634.633 269.15C627.596 241.991 611.971 216.617 589.85 199.182C562.524 177.646 528.394 167.719 493.842 171.616C460.713 175.351 430.459 194.305 410.096 220.215C395.843 238.35 387.479 259.32 383.852 281.95C382.819 288.394 381.859 295.368 381.96 301.895L375.005 301.946Z"/>
	<path fill="#014672" transform="scale(0.500977 0.5)" d="M362.811 593.171L366.886 629.137C367.374 633.147 368.926 638.949 368.363 642.86C366.774 645.329 366.741 649.898 366.207 652.859L362.854 670.253L350.099 728.503L346.347 745.25C344.864 751.069 344.123 757.772 341.425 763.149L339.89 762.811L290.759 751.292L285.564 750.415L300.42 696.464L310.712 659.001C312.887 651.146 314.598 642.944 317.743 635.411C323.637 621.297 334.502 608.383 347.553 600.39C352.373 597.438 357.599 595.316 362.811 593.171Z"/>
	<path fill="#014672" transform="scale(0.500977 0.5)" d="M646.915 403.827L650.034 403.709C650.22 412.26 650.13 420.683 656.619 427.25C661.284 431.972 667.762 434.179 674.333 433.991C681.877 433.775 689.576 430.375 694.781 424.872C698.052 421.414 699.163 417.107 700.904 412.834C703.993 421.5 705.787 429.758 701.536 438.461C696.844 448.066 687.736 453.913 677.809 457.086C672.537 458.771 667.045 459.071 661.549 459.041C665.333 462.248 669.486 464.973 673.421 467.986C685.382 477.145 691.657 485.665 693.687 500.926C694.382 506.145 694.088 511.417 693.445 516.622C691.52 532.2 680.765 547.232 668.61 556.685C656.405 566.177 642.9 571.287 627.787 573.715C632.107 571.24 635.703 568.414 639.677 565.485C644.478 560.474 648.446 555.264 650.946 548.732C654.54 539.343 653.249 531.522 649.186 522.557C648.967 526.059 649.16 529.409 648.266 532.843L648.019 533.75C645.198 544.309 638.392 552.911 630.225 559.916C621.377 568.731 608.56 574.879 596.682 578.304C595.907 577.844 594.374 577.708 593.473 577.496C590.835 576.872 588.94 575.821 586.154 576.016L586.129 575.594C582.239 564.892 577.141 556.085 567.475 549.47C564.484 547.423 561.036 545.861 557.801 544.232L554.542 528.398L547.083 484.444C558.306 476.774 568.368 468.851 577.895 459.112C587.106 448.686 594.752 438.315 601.139 425.932L601.745 426.008L605.941 426.127L606.55 426.991L607.655 425.67C609.646 425.346 611.543 425.426 613.549 425.495C614.156 425.499 613.939 425.52 614.584 425.424C623.394 424.113 632.449 420.782 638.799 414.349C641.866 411.242 644.342 407.346 646.915 403.827Z"/>
	<path fill="#64B8C3" transform="scale(0.500977 0.5)" d="M630.684 425.25C631.9 427.849 631.708 432.817 632.221 435.801C633.369 442.48 635.517 448.833 638.57 454.88C645.684 468.972 658.232 478.839 665.828 492.457C673.034 505.375 671.003 519.413 667.25 533.028L666.647 533.953C666.999 530.736 667.827 527.636 668.11 524.389C668.728 517.307 668.644 508.57 666.109 501.773C663.041 493.547 656.588 486.22 650.918 479.635C646.45 474.446 641.991 469.43 638.632 463.409C633.607 454.401 630.839 443.733 630.318 433.464C630.177 430.673 629.908 427.966 630.684 425.25Z"/>
	<path fill="#001A38" transform="scale(0.500977 0.5)" d="M606.55 426.991L607.655 425.67C609.646 425.346 611.543 425.426 613.549 425.495C608.42 439.295 601.385 454.046 607.852 468.587L608.151 469.273C620.596 497.321 668.201 510.488 653.463 548.349C650.813 555.159 646.201 560.129 641.156 565.252L639.677 565.485C644.478 560.474 648.446 555.264 650.946 548.732C654.54 539.343 653.249 531.522 649.186 522.557C648.967 526.059 649.16 529.409 648.266 532.843L648.019 533.75C645.198 544.309 638.392 552.911 630.225 559.916L629.797 558.635C632.168 554.59 635.314 551.203 637.539 547.003C641.368 539.778 643.367 531.252 640.834 523.249C638.785 516.773 636.214 509.795 632.094 504.294C629.534 500.875 626.148 498.081 623.028 495.195C613.135 486.042 602.655 476.261 599.334 462.75C597.926 457.022 598.263 450.666 599.703 444.956C601.315 438.563 603.681 432.923 606.55 426.991Z"/>
	<path fill="#014672" transform="scale(0.500977 0.5)" d="M601.139 425.932L601.745 426.008L605.941 426.127L606.55 426.991C603.681 432.923 601.315 438.563 599.703 444.956C598.263 450.666 597.926 457.022 599.334 462.75C602.655 476.261 613.135 486.042 623.028 495.195C626.148 498.081 629.534 500.875 632.094 504.294C636.214 509.795 638.785 516.773 640.834 523.249C643.367 531.252 641.368 539.778 637.539 547.003C635.314 551.203 632.168 554.59 629.797 558.635L630.225 559.916C621.377 568.731 608.56 574.879 596.682 578.304C595.907 577.844 594.374 577.708 593.473 577.496C590.835 576.872 588.94 575.821 586.154 576.016L586.129 575.594L588.25 575.405C599.178 565.052 608.603 549.8 610.75 534.797C612.853 520.105 607.455 508.497 598.976 497C592.903 488.766 584.696 483.707 581.105 473.544L580.803 472.672C579.931 470.211 579.016 467.579 578.685 464.972C578.426 462.937 578.755 461.04 577.895 459.112C587.106 448.686 594.752 438.315 601.139 425.932Z"/>
	<path fill="#001A38" transform="scale(0.500977 0.5)" d="M577.895 459.112C578.755 461.04 578.426 462.937 578.685 464.972C579.016 467.579 579.931 470.211 580.803 472.672L581.105 473.544C584.696 483.707 592.903 488.766 598.976 497C607.455 508.497 612.853 520.105 610.75 534.797C608.603 549.8 599.178 565.052 588.25 575.405L586.129 575.594C582.239 564.892 577.141 556.085 567.475 549.47C564.484 547.423 561.036 545.861 557.801 544.232L554.542 528.398L547.083 484.444C558.306 476.774 568.368 468.851 577.895 459.112Z"/>
	<path fill="white" transform="scale(0.500977 0.5)" d="M817.305 392.701C817.868 392.372 820.393 392.462 821.11 392.425C828.616 392.032 836.123 392.424 843.594 393.114C872.614 395.793 900.083 409.193 918.669 431.766C929.508 444.928 937.063 463.211 935.259 480.538C932.933 502.892 921.427 521.174 904.057 535.154C879.055 555.276 845.752 561.829 814.44 558.31C804.425 557.169 794.683 554.854 785.259 551.277L775.324 547.048C773.723 546.315 771.846 544.929 770.068 545.398C767.358 546.112 764.437 547.83 761.807 548.928L744.403 555.406C741.483 556.389 738.287 557.756 735.251 558.185L754.13 533.656L753.221 532.966C738.258 521.117 727.043 502.071 725.048 483C723.049 463.892 728.455 445.81 740.695 431.016C760.018 407.66 787.522 395.639 817.305 392.701Z"/>
	<path fill="#008498" transform="scale(0.500977 0.5)" d="M828.157 465.054C830.244 464.955 832.087 464.909 834.049 465.731C836.718 466.848 839.327 469.235 840.25 472.038C841.163 474.81 841.131 478.066 839.75 480.69C838.114 483.798 836.091 484.853 832.856 485.933C830.616 486.046 827.904 486.105 825.814 485.162C823.551 484.141 821.658 481.832 820.768 479.554C819.865 477.242 819.52 473.881 820.56 471.569C822.238 467.835 824.415 466.402 828.157 465.054Z"/>
	<path fill="#008498" transform="scale(0.500977 0.5)" d="M786.035 465.089L786.611 465.091C788.799 465.013 790.497 464.832 792.571 465.726C795.15 466.836 797.566 469.166 798.531 471.829C799.529 474.584 799.686 477.804 798.415 480.504C796.954 483.607 794.625 484.911 791.543 486.08C789.798 486.089 787.855 486.205 786.154 485.791C783.468 485.137 780.609 483.013 779.289 480.583C777.925 478.07 777.883 474.44 778.882 471.783C780.105 468.529 783.078 466.572 786.035 465.089Z"/>
	<path fill="#008498" transform="scale(0.500977 0.5)" d="M870.519 465.039C872.479 464.761 874.466 464.747 876.389 465.279C879.188 466.054 881.426 467.748 882.735 470.363C883.98 472.852 884.284 476.607 883.237 479.235C881.785 482.878 878.93 484.455 875.479 485.844L874.858 485.853C873.354 485.904 871.7 486.09 870.222 485.736C867.232 485.02 864.69 482.821 863.28 480.135C862.001 477.698 861.747 474.344 862.76 471.757C864.171 468.155 867.224 466.554 870.519 465.039Z"/>
	<defs>
		<linearGradient id="gradient_1" gradientUnits="userSpaceOnUse" x1="528.89581" y1="491.2366" x2="392.18387" y2="215.35866">
			<stop offset="0" stop-color="#004170"/>
			<stop offset="1" stop-color="#005E8B"/>
		</linearGradient>
	</defs>
	<path fill="url(#gradient_1)" transform="scale(0.500977 0.5)" d="M381.96 301.895C381.859 295.368 382.819 288.394 383.852 281.95C387.479 259.32 395.843 238.35 410.096 220.215C430.459 194.305 460.713 175.351 493.842 171.616C528.394 167.719 562.524 177.646 589.85 199.182C611.971 216.617 627.596 241.991 634.633 269.15C637.421 279.913 638.729 290.608 640.018 301.627L641.499 301.515L651.575 301.547C658.587 301.815 664.103 303.558 669.03 308.83L675.869 317.451C677.18 322.563 676.963 327.692 676.98 332.924L677.006 354.304L677 374.892C676.965 379.106 677.309 383.715 676.642 387.866C672.089 395.044 667.246 400.876 658.545 403.027C655.824 403.699 652.824 403.629 650.034 403.709L646.915 403.827C644.342 407.346 641.866 411.242 638.799 414.349C632.449 420.782 623.394 424.113 614.584 425.424C613.939 425.52 614.156 425.499 613.549 425.495C611.543 425.426 609.646 425.346 607.655 425.67L606.55 426.991L605.941 426.127L601.745 426.008L601.139 425.932C594.752 438.315 587.106 448.686 577.895 459.112C568.368 468.851 558.306 476.774 547.083 484.444C535.318 491.953 520.126 500.175 505.808 497.002C498.54 495.391 491.218 492.025 484.631 488.634C482.408 487.49 480.303 485.958 477.986 485.035L473.378 514.988L468.654 537.575C468.178 539.666 467.966 542.814 466.974 544.649C453.431 550.809 444.522 559.301 439.222 573.393L438.398 575.615L438.369 576.059C433.455 575.861 427.249 578 422.306 578.959C412.794 575.934 403.115 571.795 395.123 565.732C390.66 562.346 386.696 558.026 382.852 553.96C378.019 548.375 373.644 541.784 371.734 534.566C370.509 529.936 370.234 525.094 369.798 520.343C364.951 529.638 363.136 538.25 366.305 548.528C368.538 555.772 372.744 561.905 378.357 566.938L387.563 572.894C368.307 567.64 351.746 558.296 338.25 543.422C329.753 534.057 323.856 520.862 324.523 508.101C325.101 497.035 330.716 484.169 337.626 475.575C343.154 468.7 349.745 463.016 356.274 457.143C367.325 447.199 376.053 436.71 378.883 421.75C380.35 413.993 380.581 405.955 380.992 398.091L393.884 398.14L393.905 309.243C394.012 307.147 394.313 304.426 392.862 302.75C390.143 301.236 385.109 301.881 381.96 301.895Z"/>
	<path fill="#001A38" transform="scale(0.500977 0.5)" d="M612.752 388.586C613.357 389.69 613.533 389.477 613.167 390.772C612.612 392.734 612.443 394.688 611.804 396.656L612.064 397.79L612.625 398.125C613.184 396.821 613.043 395.601 613.5 394.25L613.75 392.755L614 392L614.125 390.05C614.579 392.346 613.959 394.698 613.606 396.985L610.891 412.43L606.432 412.728L612.752 388.586Z"/>
	<path fill="#64B8C3" transform="scale(0.500977 0.5)" d="M386.263 428.208C387.279 432.844 387.235 438.303 386.803 443.031C386.335 448.162 385.406 452.764 383.016 457.391C377.629 467.82 366.941 475.272 359.373 484.104C350.534 494.419 344.987 506.135 343.75 519.739C343.324 519.657 343.563 519.756 343.148 519.25C343.678 514.809 343.863 510.078 344.775 505.704C348.22 489.192 358.807 478.586 369.997 466.867C374.609 462.037 378.709 457.327 381.377 451.131C384.511 443.85 385.036 435.948 386.263 428.208Z"/>
	<path fill="#001A38" transform="scale(0.500977 0.5)" d="M378.357 566.938C377.744 567.37 377.818 567.549 377.176 567.377C374.426 566.642 369.334 559.742 367.725 557.318L367.314 556.686C362.655 549.68 359.833 540.095 361.339 531.704L361.473 531C363.505 519.032 371.68 510.698 380.122 502.668C393.065 490.356 410.052 477.322 414.509 459.158L414.726 458.25C416.089 452.751 415.559 447.261 414.928 441.704L410.966 415.161C410.046 407.521 409.871 400.175 410.187 392.5L410.88 398.277C411.724 402.681 413.535 407.249 415.25 411.394C415.964 413.12 418.304 417.18 418.34 418.783C417.039 422.641 418.242 428.104 418.958 432.055C420.739 441.872 423.383 452.071 420.334 461.91C415.776 476.623 405.036 485.398 394.539 495.75C385.808 504.36 376.589 517.263 376.574 530C376.564 537.75 379.953 546.137 383.325 553.003L382.852 553.96C378.019 548.375 373.644 541.784 371.734 534.566C370.509 529.936 370.234 525.094 369.798 520.343C364.951 529.638 363.136 538.25 366.305 548.528C368.538 555.772 372.744 561.905 378.357 566.938Z"/>
	<path fill="#008498" transform="scale(0.500977 0.5)" d="M543.032 205.25L543.675 205.174C543.13 208.768 537.995 215.116 535.71 218.235C521.169 238.083 499.075 254.323 475.795 262.369C467.333 265.294 458.385 266.984 449.557 268.33C458.414 257.85 466.895 247.223 473.813 235.332C468.012 237.456 462.283 239.973 456.366 241.75C445.808 244.92 433.862 246.176 422.907 244.807C424.653 243.643 427.325 243.231 429.357 242.719L438.784 240.03C461.373 232.119 481.974 219.743 500.764 205.042C492.138 222.392 482.312 238.925 471.055 254.678C498.911 243.73 522.016 226.345 543.032 205.25Z"/>
	<path fill="#D59201" transform="scale(0.500977 0.5)" d="M631.953 404.063L630.651 403.342C630.368 402.943 630.213 402.789 630.095 402.25C629.448 399.298 630.066 394.665 630.067 391.569L630.113 361.752L630.082 323.112C630.073 317.156 629.412 310.263 630.366 304.422L630.575 354.25L677.006 354.304L677 374.892C676.965 379.106 677.309 383.715 676.642 387.866C672.089 395.044 667.246 400.876 658.545 403.027C655.824 403.699 652.824 403.629 650.034 403.709L646.915 403.827L639.512 403.937L631.953 404.063Z"/>
	<path fill="#F7B910" transform="scale(0.500977 0.5)" d="M651.575 301.547C658.587 301.815 664.103 303.558 669.03 308.83L675.869 317.451C677.18 322.563 676.963 327.692 676.98 332.924L677.006 354.304L630.575 354.25L630.366 304.422L630.759 303.391C633.114 301.101 636.957 301.646 640.018 301.627L641.499 301.515L651.575 301.547Z"/>
	<path fill="#014672" transform="scale(0.500977 0.5)" d="M418.34 418.783L438.121 450.049C436.9 452.302 438.497 458.121 438.54 460.898C438.584 463.726 438.266 466.262 437.672 469.017L437.496 469.884C435.225 480.714 426.572 486.271 420.561 494.729C407.158 513.59 408.41 539.589 420.719 558.63C425.155 565.491 429.983 570.209 436.25 575.406L438.398 575.615L438.369 576.059C433.455 575.861 427.249 578 422.306 578.959C412.794 575.934 403.115 571.795 395.123 565.732C390.66 562.346 386.696 558.026 382.852 553.96L383.325 553.003C379.953 546.137 376.564 537.75 376.574 530C376.589 517.263 385.808 504.36 394.539 495.75C405.036 485.398 415.776 476.623 420.334 461.91C423.383 452.071 420.739 441.872 418.958 432.055C418.242 428.104 417.039 422.641 418.34 418.783Z"/>
	<path fill="#001A38" transform="scale(0.500977 0.5)" d="M438.398 575.615L436.25 575.406C429.983 570.209 425.155 565.491 420.719 558.63C408.41 539.589 407.158 513.59 420.561 494.729C426.572 486.271 435.225 480.714 437.496 469.884L437.672 469.017C438.266 466.262 438.584 463.726 438.54 460.898C438.497 458.121 436.9 452.302 438.121 450.049C449.772 464.263 462.975 474.593 477.986 485.035L473.378 514.988L468.654 537.575C468.178 539.666 467.966 542.814 466.974 544.649C453.431 550.809 444.522 559.301 439.222 573.393L438.398 575.615Z"/>
	<path fill="#FACFBF" transform="scale(0.500977 0.5)" d="M566.001 240.994L568.561 237.163C589.895 261.824 607.865 286.223 616.021 318.406C618.12 326.686 619.928 335.728 619.301 344.284L612.752 388.586L606.432 412.728L610.891 412.43C619.793 411.354 624.83 409.793 631.953 404.063L639.512 403.937L646.915 403.827C644.342 407.346 641.866 411.242 638.799 414.349C632.449 420.782 623.394 424.113 614.584 425.424C613.939 425.52 614.156 425.499 613.549 425.495C611.543 425.426 609.646 425.346 607.655 425.67L606.55 426.991L605.941 426.127L601.745 426.008L601.139 425.932C594.752 438.315 587.106 448.686 577.895 459.112C568.368 468.851 558.306 476.774 547.083 484.444C535.318 491.953 520.126 500.175 505.808 497.002C498.54 495.391 491.218 492.025 484.631 488.634C482.408 487.49 480.303 485.958 477.986 485.035C462.975 474.593 449.772 464.263 438.121 450.049L418.34 418.783C418.304 417.18 415.964 413.12 415.25 411.394C413.535 407.249 411.724 402.681 410.88 398.277L410.534 316.582L408.002 314.998C407.085 314.514 406.444 314.305 405.755 313.5L406.75 312.255C408.173 312.305 409.518 312.671 410.629 313.577C411.137 313.991 411.04 314.049 411.633 314.177L416.25 314.755C418.47 315.1 420.86 314.71 423.158 314.744C424.485 314.764 426.254 315.109 427.5 314.877C429.984 314.416 425.583 314.763 429.133 314.562L430.25 314.5C432.448 314.205 434.532 314.235 436.75 314.255C437.894 313.111 439.98 314.296 441.5 313.755C443.032 313.21 443.793 313.313 445.5 313.377C446.693 312.777 447.341 313.17 448.5 312.877C449.399 312.651 450.438 312.749 451.25 312.5C452.033 312.26 452.635 311.862 453.5 311.877C455.669 311.916 453.858 311.786 455.25 311.255C456.115 310.925 457.484 311.473 458.54 311.074C459.257 310.803 459.775 310.9 460.5 310.755C462.118 310.432 464.627 310.238 466.047 309.611C466.745 309.302 466.992 309.426 467.75 309.5L468.25 308.755L469.25 309C470.255 308.569 469.888 308.628 470.867 308.539C471.98 308.438 471.559 307.953 472.25 307.755C472.336 307.73 473.116 308.01 473.25 308C473.789 307.958 474.753 307.365 475.203 307.096C476.02 306.609 476.097 306.823 477 307C477.911 306.393 477.471 306.551 478.391 306.367L479 306.25L479.5 305.877C480.714 305.723 482.204 305.267 483.375 304.875L484.25 304.5L485.5 304L486.002 303.502C487.001 303.499 487.722 303.322 488.453 302.596L488.75 302.255L489.875 302.375L490.75 302C491.442 301.724 491.906 301.64 492.453 301.096C493.187 300.367 493.106 301.076 493.875 300.875C494.782 300.638 495.832 299.759 496.752 299.375C497.444 299.087 497.788 298.993 498.439 298.539C499.377 297.884 500.408 298.014 501.54 297.924C504.566 297.402 509.578 293.776 512.282 292.11C525.936 283.696 538.477 273.586 549.383 261.797C555.425 255.267 560.702 248.123 566.001 240.994Z"/>
	<path fill="#002B4B" transform="scale(0.500977 0.5)" d="M572.048 340.504C574.196 344.966 574.527 351.104 572.981 355.834C572.433 357.509 571.532 359.031 570.62 360.53C570.228 359.167 570.209 356.406 570.745 355C571.518 352.972 571.24 350.742 571.245 348.5C570.54 347.439 570.032 347.304 568.926 346.701L569.155 346.557L569.415 345.25C569.695 343.999 569.923 343.022 569.94 341.724L572.048 340.504Z"/>
	<path fill="#001A38" transform="scale(0.500977 0.5)" d="M453.472 335.283C454.291 332.745 452.281 329.195 451.348 326.635C453.288 328.443 454.886 330.451 456.532 332.519C460.524 332.084 464.149 332.177 467.829 333.9C472.297 337.662 473.77 341.172 474.719 346.87L472.884 344.598L472 344.255C471.284 343.183 470.82 343.097 469.688 342.522L469.065 342.406C468.538 339.796 466.987 338.767 465.097 337.071C462.043 335.692 459.634 335.281 456.36 336.142C455.244 336.025 454.488 335.756 453.472 335.283Z"/>
	<path fill="#CB7F70" transform="scale(0.500977 0.5)" d="M515.214 377.75C515.341 378.693 515.117 379.57 514.979 380.5C514.432 384.18 513.177 387.689 512.052 391.224C510.827 395.076 508.769 401.067 510.974 404.816C513.277 408.73 520.617 409.804 524.75 410.675C523.544 411.62 521.411 411.574 519.899 411.733C517.022 411.912 513.414 411.771 510.696 410.821C508.351 410.001 506.236 408.693 505.258 406.289C502.895 400.478 509.987 390.926 512.355 385.682C513.507 383.133 514.176 380.361 515.214 377.75Z"/>
	<path fill="#002B4B" transform="scale(0.500977 0.5)" d="M469.688 342.522C470.82 343.097 471.284 343.183 472 344.255L472.884 344.598L474.719 346.87C474.8 352.76 474.356 357.785 469.934 362.136C467.228 364.799 464.535 366.173 460.716 366.026C457.355 365.897 454.145 364.052 451.912 361.57C449.848 359.275 448.89 356.737 447.896 353.882C451.231 356.02 454.098 359.458 457.714 361.02C459.505 361.794 462.654 361.823 464.405 360.968C466.696 359.849 469.294 357.036 470.062 354.593L470.305 353.75C471.079 351.714 471.161 347.629 470.503 345.498L469.688 342.522Z"/>
	<defs>
		<linearGradient id="gradient_2" gradientUnits="userSpaceOnUse" x1="552.66614" y1="362.87775" x2="563.57471" y2="343.82184">
			<stop offset="0" stop-color="#002157"/>
			<stop offset="1" stop-color="#17729D"/>
		</linearGradient>
	</defs>
	<path fill="url(#gradient_2)" transform="scale(0.500977 0.5)" d="M547.278 345.16L548.471 345.07L549.407 343.956C549.482 345.993 549.669 347.408 550.597 349.237L550.573 349.371L551.55 354.847C551.854 356.088 552.597 357.261 553.206 358.375C554.108 358.83 553.77 358.606 554.462 359.126C555.34 359.787 556.214 360.493 557.283 360.812C559.281 361.409 562.189 361.3 564.007 360.236L564.5 359.928C566.679 358.621 568.805 356.513 569.496 353.997C570.061 351.941 568.725 350.238 567.759 348.5L568.926 346.701C570.032 347.304 570.54 347.439 571.245 348.5C571.24 350.742 571.518 352.972 570.745 355C570.209 356.406 570.228 359.167 570.62 360.53C568.272 363.284 565.62 365.675 561.831 366.002C558.472 366.292 555.182 365.03 552.718 362.736C552.153 362.21 551.677 361.663 551.235 361.034L550.616 360.441C547.481 356.771 546.558 349.819 547.278 345.16Z"/>
	<path fill="#002B4B" transform="scale(0.500977 0.5)" d="M559.326 308.662C563.59 308.17 568.233 308.365 572.421 309.291C583.02 311.633 595.324 318.907 601.17 328.22C595.337 323.204 590.523 320.237 583.378 317.318C575.383 314.58 565.631 313.08 557.321 315.244L556.5 315.474C550.898 317.006 546.411 319.968 541.684 323.203C540.085 321.485 538.786 319.924 538.582 317.5C539.933 315.372 542.195 314.249 544.413 313.193C549.309 310.862 553.963 309.499 559.326 308.662Z"/>
	<path fill="#EFA99A" transform="scale(0.500977 0.5)" d="M477.128 428.46L477.041 428.452L476.347 426.75L476.75 426.05L548.5 425.832L548.98 426.5L548.312 427.967C545.579 428.415 543.427 430.258 541.433 432.09L484.695 431.995L484.479 431.251C482.591 429.781 479.513 428.746 477.128 428.46Z"/>
	<defs>
		<linearGradient id="gradient_3" gradientUnits="userSpaceOnUse" x1="454.21182" y1="327.6142" x2="452.65698" y2="313.763">
			<stop offset="0" stop-color="#012041"/>
			<stop offset="1" stop-color="#003967"/>
		</linearGradient>
	</defs>
	<path fill="url(#gradient_3)" transform="scale(0.500977 0.5)" d="M410.534 316.582L408.002 314.998C407.085 314.514 406.444 314.305 405.755 313.5L406.75 312.255C408.173 312.305 409.518 312.671 410.629 313.577C411.137 313.991 411.04 314.049 411.633 314.177L416.25 314.755C418.47 315.1 420.86 314.71 423.158 314.744C424.485 314.764 426.254 315.109 427.5 314.877C429.984 314.416 425.583 314.763 429.133 314.562L430.25 314.5C432.448 314.205 434.532 314.235 436.75 314.255C437.894 313.111 439.98 314.296 441.5 313.755C443.032 313.21 443.793 313.313 445.5 313.377C446.693 312.777 447.341 313.17 448.5 312.877C449.399 312.651 450.438 312.749 451.25 312.5C452.033 312.26 452.635 311.862 453.5 311.877C455.669 311.916 453.858 311.786 455.25 311.255C456.115 310.925 457.484 311.473 458.54 311.074C459.257 310.803 459.775 310.9 460.5 310.755C462.118 310.432 464.627 310.238 466.047 309.611C466.745 309.302 466.992 309.426 467.75 309.5L468.25 308.755L469.25 309C470.255 308.569 469.888 308.628 470.867 308.539C471.98 308.438 471.559 307.953 472.25 307.755C472.336 307.73 473.116 308.01 473.25 308C473.789 307.958 474.753 307.365 475.203 307.096C476.02 306.609 476.097 306.823 477 307C477.911 306.393 477.471 306.551 478.391 306.367L479 306.25L479.5 305.877C480.714 305.723 482.204 305.267 483.375 304.875L484.25 304.5L485.5 304L486.002 303.502C487.001 303.499 487.722 303.322 488.453 302.596L488.75 302.255L489.875 302.375L490.75 302C491.442 301.724 491.906 301.64 492.453 301.096C493.187 300.367 493.106 301.076 493.875 300.875C494.782 300.638 495.832 299.759 496.752 299.375C497.444 299.087 497.788 298.993 498.439 298.539C499.377 297.884 500.408 298.014 501.54 297.924C487.902 305.668 472.01 309.228 456.824 312.5C465.475 313.722 474.5 315.753 481.342 321.551L480.003 324C479.798 324.292 477.92 326.676 477.721 326.71C477.23 326.794 472.081 323.61 471.303 323.174C464.915 319.601 457.05 318.158 449.793 319.245L449 319.373C440.418 320.695 432.86 323.414 426.11 329.026C424.496 330.368 423.229 332.094 421.56 333.346L421.571 332.5C425.164 326.795 430.113 321.358 436.029 318.021C438.683 316.524 441.68 315.6 444.489 314.43L411.266 315.52L410.534 316.582Z"/>
	<path fill="#010B21" transform="scale(0.500977 0.5)" d="M447.137 350.938C447.012 350.398 446.511 347.393 446.25 347.111C445.165 345.939 441.488 346.464 439.75 344.817L440.027 344.25C441.238 344.136 442.125 343.944 443.25 343.48L443.583 342.5L441.498 339.25L441.75 338.458C443.124 338.703 444.422 339.125 445.75 339.544C446.751 339.041 447.064 338.726 447.61 337.75L447.43 337.377L447.142 336.75C446.423 335.212 446.155 334.209 446.053 332.5L446.75 332.001C448.586 332.839 449.816 334.111 451.25 335.493L453.472 335.283C454.488 335.756 455.244 336.025 456.36 336.142C459.634 335.281 462.043 335.692 465.097 337.071C466.987 338.767 468.538 339.796 469.065 342.406L469.688 342.522L470.503 345.498C471.161 347.629 471.079 351.714 470.305 353.75L470.062 354.593C469.294 357.036 466.696 359.849 464.405 360.968C462.654 361.823 459.505 361.794 457.714 361.02C454.098 359.458 451.231 356.02 447.896 353.882L447.137 350.938Z"/>
	<path fill="white" transform="scale(0.500977 0.5)" d="M448.653 349.592C448.263 348.715 447.989 348.015 447.927 347.044C447.775 344.672 448.237 342.558 449.88 340.777C451.49 339.032 452.828 339.085 455.025 339.005C457.138 340.749 458.486 342.183 458.773 345.008C458.974 346.985 458.221 349.298 456.846 350.75C455.763 351.894 454.494 352.173 453 352.396C450.997 351.84 450.108 351.049 448.653 349.592Z"/>
	<defs>
		<linearGradient id="gradient_4" gradientUnits="userSpaceOnUse" x1="565.15369" y1="360.48184" x2="564.91455" y2="325.504">
			<stop offset="0" stop-color="black"/>
			<stop offset="1" stop-color="#022454"/>
		</linearGradient>
	</defs>
	<path fill="url(#gradient_4)" transform="scale(0.500977 0.5)" d="M547.278 345.16L547.331 344.735C548.246 338.792 552.382 333.072 558.419 331.56C559.556 331.276 562.377 331.602 563.213 331.154C564.002 330.73 564.527 326.703 566 325.602C567.036 326.868 565.112 329.024 565.179 330.825L568.794 332.933C570.832 331.257 572.516 329.439 574.25 327.467L574.875 328C574.257 330.97 572.452 332.785 571.147 335.42C572.426 336.334 573.772 336.638 575.33 336.667C578.78 336.732 581.655 332.639 583.846 330.357C582.071 334.411 580.46 336.558 577.184 339.531C578.756 339.848 581.853 339.975 582.731 341.25L581.5 341.893C578.824 341.632 576.251 341.448 573.722 340.469C573.025 340.199 572.77 340.367 572.048 340.504L569.94 341.724C569.923 343.022 569.695 343.999 569.415 345.25L569.155 346.557L568.926 346.701L567.759 348.5C568.725 350.238 570.061 351.941 569.496 353.997C568.805 356.513 566.679 358.621 564.5 359.928L564.007 360.236C562.189 361.3 559.281 361.409 557.283 360.812C556.214 360.493 555.34 359.787 554.462 359.126C553.77 358.606 554.108 358.83 553.206 358.375C552.597 357.261 551.854 356.088 551.55 354.847L550.573 349.371L550.597 349.237C549.669 347.408 549.482 345.993 549.407 343.956L548.471 345.07L547.278 345.16Z"/>
	<path fill="white" transform="scale(0.500977 0.5)" d="M549.407 343.956C549.678 342.877 550.048 341.794 550.615 340.829C551.808 338.801 553.127 338.245 555.25 337.755C557.195 338.335 557.787 338.966 558.969 340.59C559.49 343.248 559.778 345.834 558.231 348.25C557.461 349.451 556.463 350.35 555 350.51C553.512 350.672 551.897 349.96 550.573 349.371L550.597 349.237C549.669 347.408 549.482 345.993 549.407 343.956Z"/>
	<path fill="#002B4B" transform="scale(0.500977 0.5)" d="M639.512 403.937L646.915 403.827C644.342 407.346 641.866 411.242 638.799 414.349C632.449 420.782 623.394 424.113 614.584 425.424C613.939 425.52 614.156 425.499 613.549 425.495C611.543 425.426 609.646 425.346 607.655 425.67L606.55 426.991L605.941 426.127L601.745 426.008L601.139 425.932C600.468 425.888 598.82 425.566 598.25 425.741C597.218 426.058 595.688 427.292 594.693 427.859C592.646 429.026 590.51 429.972 588.219 430.545C583.642 431.691 577.853 431.736 573.781 429.035C571.042 427.219 569.168 424.253 568.718 420.991C568.41 418.755 569.43 416.075 570.801 414.33C572.676 411.944 574.21 411.597 577.147 411.265L599.633 412.981L606.432 412.728L610.891 412.43C619.793 411.354 624.83 409.793 631.953 404.063L639.512 403.937Z"/>
	<path fill="#014672" transform="scale(0.500977 0.5)" d="M577.147 411.265L599.633 412.981C598.363 415.08 597.024 417.124 596.37 419.515L583.165 419.814C580.743 419.881 577.818 420.236 575.463 419.808C574.573 419.647 573.782 419.215 573.142 418.584C572.348 417.801 572.572 417.549 572.522 416.5C572.997 415.681 573.285 415.204 574.105 414.69C575.602 413.753 576.235 413.353 576.971 411.691L577.147 411.265Z"/>
	<defs>
		<linearGradient id="gradient_5" gradientUnits="userSpaceOnUse" x1="612.67938" y1="404.82959" x2="621.89264" y2="417.77158">
			<stop offset="0" stop-color="#636F8B"/>
			<stop offset="1" stop-color="#82849A"/>
		</linearGradient>
	</defs>
	<path fill="url(#gradient_5)" transform="scale(0.500977 0.5)" d="M631.953 404.063L639.512 403.937C637.135 406.911 634.751 409.98 631.75 412.36C626.583 416.457 619.148 418.49 612.695 419.169L596.37 419.515C597.024 417.124 598.363 415.08 599.633 412.981L606.432 412.728L610.891 412.43C619.793 411.354 624.83 409.793 631.953 404.063Z"/>
	<path fill="#EFA99A" transform="scale(0.500977 0.5)" d="M566.001 240.994C566.383 242.876 566.675 244.121 565.846 245.921C559.419 259.882 550.474 271.612 540.064 282.842C533.301 290.138 525.965 297.233 517.522 302.575C506.499 309.55 494.911 318.149 481.676 320.25C481.34 321.254 481.417 320.814 481.342 321.551C474.5 315.753 465.475 313.722 456.824 312.5C472.01 309.228 487.902 305.668 501.54 297.924C504.566 297.402 509.578 293.776 512.282 292.11C525.936 283.696 538.477 273.586 549.383 261.797C555.425 255.267 560.702 248.123 566.001 240.994Z"/>
	<path fill="#E0466C" transform="scale(0.500977 0.5)" d="M541.433 432.09C543.427 430.258 545.579 428.415 548.312 427.967C544.291 438.978 536.822 449.422 526.003 454.51C517.967 458.29 507.25 458.29 499.036 455.083C489.832 451.49 482.769 442.403 479.067 433.5L477.128 428.46C479.513 428.746 482.591 429.781 484.479 431.251L484.695 431.995L541.433 432.09Z"/>
	<path fill="white" transform="scale(0.500977 0.5)" d="M484.695 431.995L541.433 432.09C537.616 437.521 533.566 441.947 527.319 444.6C518.028 448.544 507.62 448.604 498.298 444.71C492.362 442.229 487.164 438.032 484.695 431.995Z"/>
</svg>
