<svg xmlns="http://www.w3.org/2000/svg" width="512" height="512">
  <path fill="#fff" d="M257.029 149.875c.39-.04.837-.047 1.221.059.87.24 1.184.737 1.651 1.441.08.644.184 1.307-.04 1.933-.375 1.04-1.005 1.519-1.986 1.939-.391.026-.795.05-1.178-.059-.741-.21-1.347-.864-1.641-1.56-.298-.706-.369-1.521-.04-2.212.435-.912 1.092-1.234 2.013-1.541ZM380.294 329.375c.507-.146.24-.147.796.068l.204 2.932.456.368c.301-.169.61-.332.875-.557.608-.518.797-1.069.875-1.843l.017-.218.733-.123.462.373c-.162.583-.246.932-.123 1.53l1.286.239c.147.646.205.657-.106 1.231-.617-.329-1.048-.558-1.769-.585-.591.442-1.036.648-1.332 1.335l1.287 1.688c-.044.334-.069.606.019.937.126.477.267.771.151 1.267l-.5.228c-.856-.642-.221-.513-.377-1.37-.03-.169-.724-.872-.873-1.053l-.625-.565-.425.06c-.531.878-.601 1.436-.636 2.462l-.008.346-.556.088c-.62-.814-.341-1.347-.75-2.192l-1.375.382c-.628-.291-.716-.439-1.125-1.009l.125-.519c.911-.268 1.313.454 2.375.246.601-.715.844-.784.816-1.746l-.816-.632-1.375.178-.625-.493c.028-.644.153-.692.5-1.206.702.106 1.247.385 1.875.692l.413-.236.131-2.303ZM330.326 162.668l1.877.037-.004 16.855-1.829.031-.044-16.923ZM445.032 329.125a4.693 4.693 0 0 1 1.883-.163c.712.084 1.24.487 1.647 1.065.565.802.786 2.105.52 3.051-.31 1.107-.981 1.637-1.957 2.151a4.338 4.338 0 0 1-1.758.026c-.88-.164-1.666-.787-2.13-1.541-.477-.776-.501-1.618-.229-2.472.357-1.122 1.025-1.583 2.024-2.117ZM373.428 165.625l.947-.168c.608.808.334 2.605.343 3.641.602-.77 1.12-1.748 2.032-2.113l.61.39.06.559-1.456 1.564.065.435c.89.092 2.401-.312 3.096.049.091.601.09.659-.166 1.209l-2.497.202-.248.357c.612.643 1.151 1.175 1.503 2l-.303.412-.664.061-1.93-1.737-.067 3.139-.286.558-.465-.001c-.861-1.03-.073-2.33-.877-3.143-.673.638-.947 1.09-1.875 1.249l-.462-.413c.447-.858 1.143-1.617 1.746-2.371-.978-.034-2.378.083-3.262-.333-.383-.181-.308-.327-.397-.695.925-.635 2.555-.425 3.687-.47-.689-.642-1.272-1.214-1.785-2.006l.348-.471c.921.156 1.69.792 2.452 1.307-.12-1.064-.321-2.147-.149-3.211ZM193.033 65.375l.967-.064.339.314-.101 3.553c.61-.625 1.178-1.328 2.012-1.645l.55.342.101.5-1.747 2.143c1.048-.072 2.99-.487 3.883-.026l.206.758-.368.493-3.395.073c.528.646 1.115 1.24 1.347 2.059l-.375.573-.577.029-1.722-2.11-.028 4.987-.629.147-.502-.376-.097-3.586-.326-.006-.983 1.058c-.654.169-.617.136-1.213-.195l-.022-.521 2.17-1.896c-.873-.519-2.845-.05-3.948-.371-.458-.133-.277-.018-.546-.483.438-.433.803-.72 1.471-.644l.875.196a2 2 0 0 0 1.46-.427c-.45-.522-.865-.969-1.114-1.625l.398-.5c.806.124.936.395 1.506.955l.297-.08c-.035-1.181-.195-2.477.111-3.625ZM65.766 353.625c.49-.139.854-.115 1.359-.101.224.18.542.406.707.653.66.978.25 2.93.161 4.065l3.257.001c.688.407.751.598 1.125 1.278-.07.774-.116.911-.555 1.552-1.048.59-2.468.416-3.647.426.07 1.49.389 2.908-.633 4.126-.153.106-.276.207-.468.252-.858.197-1.063 0-1.752-.445-.593-1.088-.375-2.647-.371-3.864-.673-.36-2.5-.104-3.324-.096-.55-.379-.693-.6-.93-1.222.077-.935.099-1.02.68-1.755.949-.525 2.273-.345 3.337-.336v-.939c.008-1.622-.14-2.413 1.054-3.595Z"/>
  <path fill="#008498" d="m380.656 306.436 17.635.113-.093.102c-.692 1.181-.282 4.412-.273 5.852l-16.887-.001c-.014-1.891.14-4-.319-5.836l-.063-.23Z"/>
  <path fill="#fff" d="M388.563 96.294c1.049-.069 2.15-.038 3.145.344 1.477.566 3.024 2.096 3.54 3.596.541 1.574.276 3.353-.536 4.776-.928 1.624-2.303 2.472-4.048 2.992-1.195.038-2.232.065-3.36-.373-1.315-.511-2.447-1.624-2.97-2.936-.707-1.775-.709-3.361.109-5.097.867-1.839 2.322-2.6 4.12-3.302Z"/>
  <path fill="#008498" d="M304.988 382.178c.829 2.478 1.411 5.468 1.61 8.074l-16.788.04-.033-7.827 9.125.011c2.006-.008 4.12.126 6.086-.298Z"/>
  <path fill="#fff" d="M71.647 197.016c.8-.03 1.641-.083 2.428.084 1.885.399 3.416 1.419 4.37 3.111.817 1.45 1.171 3.592.604 5.208-.758 2.161-2.53 3.377-4.504 4.301-1.36.202-2.786.22-4.071-.338-1.642-.714-2.775-1.86-3.426-3.528-.64-1.638-.45-3.785.303-5.36.938-1.958 2.33-2.786 4.296-3.478Z"/>
  <path fill="#23B0C7" d="M72.167 200.625c.788-.115 1.321-.173 2.083.113.783.293 1.126.928 1.474 1.637.056.917.165 1.773-.243 2.625-.384.805-1.067 1.106-1.856 1.406-.448.06-.85.115-1.297.022-.797-.166-1.522-.578-1.921-1.309-.44-.805-.593-2.02-.239-2.884.377-.923 1.113-1.29 1.999-1.61Z"/>
  <path fill="#fff" d="M243.21 410.784c1.34-.07 2.619.101 3.809.757 1.663.918 2.767 2.523 3.2 4.36.401 1.699.173 3.529-.776 5.012-1.161 1.816-2.553 2.594-4.582 3.099-1.59.038-3.053-.045-4.457-.887-1.519-.911-2.475-2.447-2.897-4.139-.444-1.782-.034-3.579.938-5.118 1.17-1.85 2.73-2.597 4.766-3.084Z"/>
  <path fill="#008498" d="m112.752 339.501 25.247-.008c.605 1.776.596 4.836.425 6.71-.225.175-.424.388-.674.525-1.083.592-4.195.262-5.424.263l-13.736-.004c-1.876.004-4.014-.215-5.846.038l.008-7.524Z"/>
  <path fill="#fff" d="m143 345.313 54.726-.003h12.185c1.006 0 2.774-.244 3.714 0 .167.043.274.21.41.315.013.993.238 1.865-.41 2.651l-70.767-.169.142-2.794ZM405.7 176.029c1.918-.195 3.629-.127 5.415.674 1.793.805 3.152 2.596 3.801 4.415.832 2.334.677 4.802-.482 7.007-1.118 2.127-3.039 3.318-5.246 4.06-1.781.352-3.573.3-5.255-.455-2.175-.976-3.682-2.928-4.423-5.161-.702-2.118-.258-4.834.82-6.75 1.19-2.11 3.122-3.154 5.37-3.79Z"/>
  <path fill="#23B0C7" d="M406.037 179.274c.968-.043 1.903-.085 2.838.212 1.308.415 2.235 1.274 2.813 2.514.59 1.266.732 2.751.196 4.056-.648 1.574-1.937 2.278-3.404 2.923-1.108.034-2.162.13-3.22-.275-1.137-.436-2.055-1.528-2.498-2.635-.557-1.388-.621-2.867.056-4.233.695-1.402 1.817-2.018 3.219-2.563Z"/>
  <path fill="#fff" d="m110.037 339.514 2.715-.013-.008 7.524.013 15.804 37.874.082 10.549.012c1.717.005 3.69-.171 5.38.118 1.172.2 2.303.87 3.12 1.724 2.188 2.286 1.636 5.956 1.624 8.86l-.047 7.975-2.689-.024.018-9.547c-.006-1.613.255-3.709-.922-4.98-.711-.768-1.588-1.155-2.612-1.307-1.987-.295-4.2-.147-6.217-.161l-11.257-.035-37.513-.025.013-18.557-.04-7.45Z"/>
  <path fill="#008498" d="m456.699 302.952.316 9.52-56.283.066-.035-6.007c5.377-.039 52.572.329 53.427-.173 1.398-.822 2.14-1.865 2.575-3.406Z"/>
  <path fill="#fff" d="M429.604 136.227c2.904.612 5.26 1.834 6.929 4.374 1.512 2.304 2.212 5.85 1.572 8.536-.704 2.95-2.577 5.557-5.23 7.047-2.503 1.406-5.644 1.66-8.375.79l-1.966-.827c-2.318-1.728-3.983-3.564-4.777-6.425-.757-2.722-.14-6.198 1.284-8.6 1.23-2.076 3.526-3.727 5.822-4.36l.364-.097c1.446-.393 2.889-.397 4.377-.438Z"/>
  <path fill="#64B8C3" d="m423.15 152.702-.575-.526c-1.515-1.547-2.14-3.615-2.016-5.749.117-2.017 1.064-4.016 2.617-5.317 1.84-1.542 3.971-1.911 6.31-1.691-1.282 4.708-4.138 8.97-6.335 13.283Z"/>
  <path fill="#23B0C7" d="M429.486 139.419c2.11.643 3.65 1.472 4.703 3.555.938 1.856 1.345 4.274.67 6.274-.68 2.01-2.434 3.682-4.359 4.507-1.69.725-3.538.849-5.236.108l-2.113-1.16c2.197-4.314 5.053-8.576 6.335-13.284Z"/>
  <path fill="#fff" d="m398.291 306.548 2.406-.017.035 6.007.034 27.495.013 6.077c.003.67.122 1.428-.258 2.008-3.264-.585-7.232-.168-10.567-.168l-21.684.071-2.358-.017-.912.024-60.276.115c-.354.002-.212.066-.441-.16l.012-2.905 93.913-.06-.01-38.367.094-.103Z"/>
  <path fill="#008498" d="m57.968 339.545 52.07-.03.04 7.449-34.509-.002c-5.108.005-10.349.257-15.444-.003-.834-.043-1.241-.082-1.892-.584-.665-1.855-.268-4.828-.265-6.83Z"/>
  <path fill="#fff" d="m286.949 382.445 2.562.017.042 53.496c.986.22 2.019.457 2.913.942 2.292 1.245 3.959 3.719 4.7 6.187.855 2.846.372 5.437-1.05 8.011-1.212 2.195-3.65 4.031-6.056 4.656-2.497.649-5.052.203-7.257-1.094-2.213-1.3-3.904-3.762-4.524-6.237-.654-2.608-.147-5.624 1.284-7.899 1.838-2.921 4.07-3.905 7.293-4.639l.093-53.44Z"/>
  <path fill="#23B0C7" d="M286.344 438.798c1.483-.072 2.829-.1 4.213.528 1.895.861 3.327 2.372 4.018 4.347.678 1.935.488 3.849-.485 5.648-1.067 1.975-2.624 3.01-4.719 3.682-.971.16-1.825.291-2.8.091l-.321-.07c-.429-.09-.832-.17-1.239-.344-1.876-.796-3.108-2.244-3.862-4.107-.659-1.63-.616-3.717.08-5.323 1.046-2.408 2.756-3.542 5.115-4.452Z"/>
  <path fill="#008498" d="m217.288 382.489 69.433.005c-.255 2.523-.047 5.324-.048 7.874l-42.934.113-14.791.014c-2.49 0-5.094.147-7.573-.035-.706-.052-1.393-.185-1.95-.653-2.008-1.686-2.072-4.933-2.137-7.318Z"/>
  <path fill="#fff" d="M223.036 135.49c-1.401-.329-2.899-.224-4.334-.23l-7.435-.011-25.555.01c-.344 1.15-.666 2.332-1.242 3.391-1.331 2.452-3.426 4.385-6.156 5.132-2.607.713-5.708.231-8.006-1.14-2.341-1.398-4.188-3.972-4.833-6.611-.64-2.615-.147-5.857 1.329-8.11 1.523-2.326 3.923-3.98 6.671-4.47 2.708-.483 5.787-.025 8.046 1.624 2.627 1.918 3.86 4.824 4.281 7.95l.057.435 37.417.02c2.451.612 4.385 1.913 5.678 4.145 1.675 2.891 1.088 7.032 1.082 10.275l-.001 10.076c.004 1.587-.194 3.53.204 5.072.386 1.498 2.2 3.94 3.735 4.38 1.341.385 3.327.183 4.746.19l9.917.038 26.717.061 8.172-.015c1.772-.016 3.774.035 5.501-.347-.644-.666-1.479-1.357-1.823-2.23l.296-.321c1.034-.004 2.005 1.07 2.709 1.742l.019-3.671.397-.346c.303.13.579.147.724.469.391.868.269 2.377.313 3.344l2.088-1.59.524.248.213.625c-.747.7-1.584 1.262-2.42 1.849l3.558.063.382.463-.15.607c-.97.466-2.252.382-3.317.433 1.085.877 2.275 1.656 2.875 2.948-1.553-.567-2.476-1.254-3.683-2.364l-.017 3.376-.465.418-.875-.354c-.391-.927-.197-2.364-.191-3.373-.7.717-1.377 1.48-2.184 2.077l-.541-.233-.171-.535c.555-.864 1.194-1.245 2.058-1.779l-37.683.055-11.28.005c-1.868-.002-3.901.165-5.749-.052-1.555-.183-3.198-1.214-4.279-2.304-2.395-2.418-2.019-5.67-2.024-8.78l-.008-11.64c-.002-1.928.261-4.253-.27-6.099-.698-2.428-2.434-4.482-5.017-4.916Z"/>
  <path fill="#64B8C3" d="M174.16 126.028c1.602-.069 2.911-.077 4.421.587 1.948.857 3.584 2.643 4.269 4.658.702 2.065.477 4.12-.49 6.05-1.046 2.084-2.911 3.272-5.036 4.026-1.677.175-3.215.169-4.812-.472-1.817-.729-3.382-2.38-4.073-4.202-.789-2.08-.697-4.558.315-6.55 1.16-2.284 3.084-3.335 5.406-4.097Z"/>
  <path fill="#008498" d="m421.281 416.307.375.83c.875.816.649 2.9.693 4.125.244 6.68.442 12.416-4.435 17.645-2.728 2.925-6.844 4.48-10.789 4.584l-40.666.009-15.683-.05c-3.216-.036-6.778.136-9.922-.575-6.72-1.519-12.168-5.274-15.892-11.119-1.066-1.674-1.97-3.271-2.101-5.293 3.973 4.537 8.463 7.948 14.678 8.429 4.895.379 9.988.137 14.909.142l27.631-.003 17.046-.009c3.28.002 6.878.274 10.113-.243 2.658-.425 5.371-1.749 7.387-3.531 2.642-2.337 5.151-5.274 6.034-8.772.506-2.005.517-4.112.623-6.169Z"/>
  <path fill="#64B8C3" d="M364.413 120.298c17.4-1.342 47.712-1.108 61.474 10.725 1.659 1.425 3.22 2.998 3.717 5.204-1.488.041-2.931.045-4.377.438l-.364.097c-2.296.633-4.592 2.285-5.822 4.36-1.425 2.402-2.041 5.878-1.284 8.6.794 2.861 2.459 4.697 4.776 6.425-.497.877-1.107 1.532-1.795 2.258-.1.105-.167.255-.299.314-.229.102-5.95-1.976-6.689-2.21-8.634-2.734-17.344-4.641-26.387-5.357-7.608-.601-15.212-.363-22.832-.171l-.082-6.985-.036-23.698Z"/>
  <path fill="#002F62" d="m256.171 104.264-.663.074c-1.448.033-4.127-3.35-5.16-4.405-1.145.774-2.175 1.365-3.49 1.81l-.36.12c.005 1.588.317 4.023-.447 5.451-.212.397-.492.405-.926.473-1.059.163-7.851.348-8.625-.019-.226-.106-.38-.325-.57-.487-.614-1.74-.487-3.863-.547-5.706a22.292 22.292 0 0 1-4.124-1.493l-4.162 4.148c-2.585-1.858-5.662-4.902-7.412-7.556.862-1.488 2.163-2.66 3.36-3.878-.24-1.009-.974-2.04-1.432-2.982-.185-.38-1.103-2.667-1.332-2.8-.226-.131-.523-.001-.784-.002-1.615-.007-3.593.289-4.872-.78-.541-1.936-.645-7.951 0-9.82 1.262-.778 4.146-.43 5.703-.449.466-1.643.965-3.22 1.81-4.711l.15-.26-3.277-4.259c1.866-2.619 4.72-5.249 7.219-7.282l4.285 3.401c1.5-.913 3.065-1.57 4.682-2.243l.031-4.609c.073-.619.31-.868.772-1.246 1.697-.007 8.603-.491 9.578.543.925.98.606 3.98.612 5.316a34.918 34.918 0 0 1 4.691 2.072c1.279-1.357 2.836-3.481 4.619-4.139 1.096.518 1.832 1.491 2.642 2.368 1.546 1.673 3.091 3.328 4.453 5.156l-3.812 4.625 2.025 4.709 3.974-.175c.833.195 1.57.302 2.224.896.367 1.089.234 2.336.234 3.48l-.016 6.27c-.42.638-.726.736-1.474.894-1.538.323-3.223.298-4.788.346-.733 1.815-1.933 3.687-2.493 5.511 1.671 1.272 3.038 2.382 4.097 4.24-2.023 2.487-4.76 4.647-6.395 7.398Z"/>
  <path fill="#fff" d="m237.721 56.975 6.111.032.01 5.552c2.639.56 4.938 1.593 7.383 2.688l4.278-3.72 4.255 4.414-3.893 3.905c.131 1.061.964 2.25 1.403 3.245.66 1.496 1.166 3.054 1.688 4.603 1.608.055 4.542-.131 5.978.454l.038 6.29-6.119.005c-.457 3.3-1.567 5.516-3.326 8.297 1.22 1.493 2.629 2.728 4.066 4.004l-4.718 4.757-4.409-4.102c-1.998.918-3.93 1.55-5.993 2.278l-.148 3.885c-.003.711.15 1.129-.325 1.69l-6.219.046-.28-5.675c-2.31-.502-4.167-1.428-6.233-2.526-1.232 1.555-2.802 2.857-4.265 4.19l-4.32-4.827c.818-.813 2.814-2.7 3.028-3.777-.984-1.989-2.075-3.963-2.8-6.063-.06-.17-.459-1.552-.535-1.604-.196-.134-1.684-.13-1.994-.156-1.061-.087-2.303-.069-3.257-.587-.599-1.686-.255-4.236-.241-6.041l5.24-.177c.578-2.317 1.472-4.995 2.828-6.964l.173-.245c-.49-1.521-1.958-3.108-2.953-4.342l4.172-3.932 3.747 3.142c2.377-1.952 4.659-2.666 7.607-3.27l.023-5.469Z"/>
  <path fill="#002F62" d="M240.446 68.602c2.719.116 4.953.54 7.259 2.129 2.576 1.775 4.629 5.068 5.072 8.157.48 3.332-.139 6.793-2.278 9.474-2.382 2.985-5.855 4.58-9.572 5.038-2.983-.198-5.813-.986-8.129-2.959-2.564-2.183-4.261-5.303-4.501-8.691-.218-3.061.933-6.618 2.96-8.92 2.517-2.859 5.455-3.948 9.189-4.228Z"/>
  <path fill="#23B0C7" d="M239.038 71.054c2.056-.1 4.206.027 6.087.946 2.415 1.18 4.194 3.425 5.031 5.963.845 2.557.576 5.143-.607 7.537-1.379 2.796-3.83 4.28-6.678 5.238-2.627.479-5.165.248-7.467-1.175a10.035 10.035 0 0 1-4.544-6.517c-.538-2.636.09-5.596 1.582-7.811 1.67-2.48 3.731-3.614 6.596-4.181Z"/>
  <path fill="#64B8C3" d="M139.711 389.623c-.604 2.644-.235 5.95-.234 8.67l.083 18.285c-.781.471-8.839.165-10.321.168l-29.916.024-8.224-.012c-1.734-.005-3.53.095-5.247-.178-4.844-.771-8.709-3.115-11.474-7.176-2.567-3.771-3.615-8.622-2.745-13.112.888-4.578 4.058-8.729 7.916-11.25 2.013-1.315 4.671-2.147 7.048-2.423 3.582-.417 7.416-.155 11.032-.161l19.41-.116 14.98-.135c4.088-.073 8.792-.637 12.787.151-2.29 1.337-4.021 3.152-4.799 5.767l-.296 1.498Z"/>
  <path fill="#fff" d="M118.439 391.276c1.574-.063 2.975-.021 4.455.577 1.63.658 2.922 2.142 3.534 3.772.773 2.06.736 4.132-.199 6.125-1.007 2.147-2.986 3.234-5.117 3.979-1.596.068-2.771.043-4.272-.618-1.838-.81-3.28-2.449-3.953-4.335-.663-1.865-.284-4.194.65-5.901 1.108-2.028 2.725-3.024 4.902-3.599Z"/>
  <path fill="#64B8C3" d="m400.521 348.118.116.31c2.191-.822 4.211-1.848 6.466-2.548 8.007-2.488 16.796-2.145 24.478 1.313 6.086 2.739 11.66 7.18 15.65 12.557 5.524 7.445 8.108 17 6.827 26.211-1.301 9.352-5.969 18.635-13.621 24.354-4.483 3.35-9.566 5.459-15.062 6.426-1.229.216-2.518.17-3.719.397l-.375-.831.007-19.461c-.002-2.894.342-6.368-.192-9.197-.507-2.682-1.45-5.07-3.082-7.284-2.649-3.594-6.932-6.536-11.418-7.125l-.346-.043c-5.296-.684-11.18-.202-16.538-.204l-32.606.009c1.63-9.45 5.714-17.192 11.164-24.981l21.684-.07c3.335 0 7.303-.418 10.567.167Z"/>
  <path fill="#fff" d="M427.944 354.625c.702-.1 1.398-.149 2.076.099.877.32 1.71 1.146 2.06 2.016.335.838.191 1.761-.18 2.561-.454.981-1.251 1.436-2.212 1.824-.474.082-.899.16-1.379.074a3.18 3.18 0 0 1-2.17-1.463c-.582-.936-.665-2.281-.276-3.306.378-1 1.127-1.457 2.081-1.805Z"/>
  <path fill="#64B8C3" d="m264.782 75.229 4.359-5.155c7.053-7.996 17.936-12.721 28.511-13.313 12.29-.688 24.757 3.617 33.94 11.812l-17.817.034c-2.736.008-6.361-.4-8.981.253-1.522.38-3.127 1.343-4.224 2.459-.788.801-1.324 1.668-1.791 2.681l-.156.329c-.317.73-.37 1.367-.395 2.154l.002 15.34.007 30.653-.042 21.298-.003 6.96c.007 1.689-.084 3.393.35 5.038l.084.33.058.197c-1.46.608-4.567-.023-6.136-.269-11.451-1.799-22.161-8.61-28.94-17.974-4.684-6.472-8.161-14.964-8.433-23.009-.126-3.745.403-7.117.996-10.783 1.635-2.75 4.372-4.911 6.395-7.397-1.059-1.859-2.426-2.969-4.096-4.241.558-1.825 1.758-3.697 2.492-5.511 1.565-.048 3.25-.023 4.788-.346.748-.158 1.055-.256 1.474-.894l.016-6.27c0-1.144.133-2.391-.234-3.48-.654-.594-1.391-.7-2.224-.896Z"/>
  <path fill="#fff" d="M287.177 111.821c1.038.064 2.01.14 2.981.541 1.544.639 2.499 1.868 3.056 3.416.583 1.614.442 3.466-.313 5.004-.885 1.808-2.607 2.697-4.43 3.279-1.274.004-2.308.006-3.46-.585-1.542-.79-2.723-2.343-3.136-4.025a6.385 6.385 0 0 1 .925-5.163c1.157-1.682 2.443-2.145 4.377-2.467Z"/>
  <path fill="#002F62" d="m168.568 381.576 2.69.024 19.11-.078c2.853-.005 6.47-.408 9.233.198 1.615.354 3.183 1.275 4.345 2.444 1.156 1.164 2.116 2.67 2.438 4.293.316 1.59.143 3.447.146 5.071l-.001 9.683.024 37.594 13.952-.069c1.344-.002 4.084-.351 5.12.408.852 2.598.29 7.429-.894 9.83-1.766 3.576-4.123 6.01-7.981 7.263-.764.248-1.506.426-2.31.474-4.241.251-8.64.035-12.895.04l-26.522.01-27.954-.007c-4.653-.005-9.431.213-14.072-.042-1.678-.092-3.449-.727-4.936-1.484-3.608-1.838-5.19-5.162-6.312-8.853-.576-1.896-1.682-5.366-.874-7.264 1.281-.823 16.179-.342 18.874-.33l-.038-51.158.296-1.498c.778-2.615 2.509-4.43 4.8-5.767l.818-.255c2.992-.932 6.495-.58 9.602-.584l13.341.057Z"/>
  <path fill="#64B8C3" d="m130.067 451.12 91.172.065c-1.357 1.939-2.394 2.906-4.526 3.957l-.291.097-.491.136c-2.275.641-4.956.385-7.306.385l-11.185-.003-40.623-.015-16.528.01c-2.45-.002-5.289.265-7.697-.094-3.098-.463-4.87-2.009-6.645-4.45l4.12-.088Z"/>
  <path fill="#23B0C7" d="m123.48 443.694 99.354.035c.401.985.09 3.238.062 4.369-3.573.375-7.414.123-11.019.126l-20.922.005-66.205.038c-.557-1.513-.935-2.996-1.27-4.573Z"/>
  <path fill="#fff" d="m147.558 384.526.363-.018 32.252-.053 11.601.001c1.98 0 4.174-.188 6.133.056 1.365.171 2.804.913 3.764 1.882.852.86 1.558 2.01 1.704 3.23.226 1.867.09 3.899.09 5.781l.009 10.552.025 34.829-4.624-.002-56.16.008-.02-30.686-.032-13.654c-.005-2.36-.397-5.551.425-7.752.8-2.143 2.481-3.27 4.47-4.173Z"/>
  <path fill="#002F62" d="M174.458 418.125c1.89-.295 4.156-.072 6.088-.073l13.671-.006-.009 2.952-14.551.009c-1.326 0-4.309.344-5.361-.257-.052-.926-.142-1.736.162-2.625ZM149.647 417.987l18.831.047.019 3.048-18.849.076-.001-3.171ZM150.257 426.875l17.958-.026-.001 2.776-.589.385-18.092.055.026-2.94.698-.25ZM174.365 399.837l19.841.134.025 2.915-19.847.032-.018-3.08Z"/>
  <path fill="#64B8C3" d="m149.564 397.09 18.264.032-.02 11.363-18.22.012-.024-11.408Z"/>
  <path fill="#002F62" d="m365.912 348.004 2.358.017c-5.45 7.789-9.534 15.53-11.164 24.98l32.606-.007c5.358 0 11.242-.481 16.538.203l.346.043c4.486.589 8.769 3.53 11.418 7.125 1.632 2.214 2.575 4.602 3.082 7.284.534 2.829.19 6.303.192 9.197l-.007 19.461c-.105 2.057-.116 4.163-.622 6.168-.883 3.498-3.392 6.436-6.034 8.772-2.016 1.783-4.73 3.107-7.387 3.532-3.235.517-6.832.245-10.113.243l-17.046.009-27.632.002c-4.92-.004-10.013.238-14.908-.141-6.215-.481-10.705-3.892-14.678-8.429-1.188-2.175-2.221-4.287-2.652-6.758-.396-2.267-.32-4.539-.319-6.83l-.005-9.356c0-4.665-.483-9.976.262-14.555l.06-.339c.683-4.062 2.44-7.435 5.353-10.334 5.29-5.267 10.813-5.283 17.813-5.29l11.025.011c1.164-5.46 2.748-10.675 5.25-15.682 1.294-2.589 2.778-5.046 4.359-7.467.193-.296.769-1.406 1.032-1.568.261-.161.582-.194.873-.291Z"/>
  <path fill="#fff" d="M336.635 376.053c3.548-.284 7.266-.092 10.83-.093l20.712.006 23.593-.011 9.116-.021c2.053-.001 4.197-.11 6.195.428l.419.121a14.352 14.352 0 0 1 4.328 2.045c3.246 2.288 5.625 5.666 6.274 9.627.266 1.625.121 3.443.124 5.092l.001 8.477-.028 11.484c-.009 2.227.155 4.61-.245 6.805-.382 2.105-1.277 4.217-2.558 5.923-2.623 3.489-6.029 5.449-10.325 6.025l-45.562.044-14.126.006c-2.569-.001-5.293.173-7.841-.163-4.45-.587-8.747-2.751-11.481-6.376a16.223 16.223 0 0 1-3.026-6.877c-.322-1.757-.208-3.68-.216-5.46l.012-8.921.06-9.24c.02-1.846-.06-3.81.226-5.635l.058-.339c.359-2.167 1.142-4.436 2.41-6.255 2.586-3.712 6.684-5.909 11.05-6.692Z"/>
  <path fill="#002F62" d="M357.298 417.125c.236-.102.3-.144.588-.188 1.47-.228 3.363-.02 4.88-.019l11.553.02c1.119.003 3.381-.277 4.252.312l.013 1.875-.589.363-16.257.01c-.93.001-3.325.29-4.113.003-.17-.063-.261-.25-.392-.376l.065-2ZM357.18 396.875l.216-.042c1.62-.235 3.533-.053 5.181-.055l11.075-.001c1.101.001 4.146-.306 4.973.274.056.849.098 1.507-.166 2.324-2.52.156-20.313.51-21.392-.15-.067-.85-.074-1.516.113-2.35ZM357.468 409.125c1.834-.217 20.158-.301 21.05.25.01.927.201 1.642-.393 2.392l-15.197.08c-1.377.012-4.532.406-5.652-.222-.053-.904-.122-1.64.192-2.5ZM369.118 388.878c3.103-.019 22.389-.559 23.596.122l-.012 2.125c-.15.121-.265.313-.452.363-.78.205-2.268.008-3.11.012l-9.22.036-17.002.087c-1.36.005-4.793.394-5.883-.248l-.025-2.125c.645-.627 2.77-.358 3.724-.36l8.384-.012ZM341.5 385.812a8.537 8.537 0 0 1 4.018 1.127c1.703.988 3.035 2.792 3.477 4.709.51 2.209-.024 4.623-1.337 6.477-1.457 2.055-3.108 2.712-5.454 3.197-1.63-.215-3.183-.445-4.618-1.32-1.625-.993-2.909-2.679-3.31-4.554-.491-2.294-.182-4.36 1.17-6.305 1.497-2.157 3.578-2.905 6.054-3.331Z"/>
  <path fill="#EF748E" d="M340.262 388.279c.933-.042 1.908-.126 2.822.117 1.459.388 2.51 1.182 3.204 2.542.604 1.184.747 3.043.308 4.297-.668 1.902-1.832 2.74-3.591 3.517-.828.03-1.75.106-2.56-.09-1.45-.352-2.902-1.484-3.557-2.827-.549-1.129-.524-2.793-.115-3.96.634-1.814 1.84-2.742 3.488-3.596Z"/>
  <path fill="#002F62" d="M341.539 406.572c1.663-.09 3.332.255 4.711 1.206 1.84 1.268 3.073 3.409 3.423 5.597.341 2.132-.142 4.53-1.486 6.25-1.615 2.07-3.569 2.921-6.123 3.296-1.752-.123-3.127-.334-4.642-1.296-1.867-1.187-3.224-3.353-3.617-5.519-.394-2.171.082-4.224 1.358-6.021 1.638-2.304 3.683-3.097 6.376-3.513Z"/>
  <path fill="#06DCE2" d="M340.856 408.78c1.2-.054 2.276-.048 3.397.439 1.435.622 2.492 2.153 2.974 3.599.513 1.541.387 3.332-.378 4.768-.959 1.8-2.277 2.467-4.15 3.091-1.095.07-2.282-.052-3.281-.53-1.418-.678-2.617-1.988-3.14-3.47-.53-1.501-.398-3.32.34-4.734.935-1.794 2.41-2.525 4.238-3.163Z"/>
  <path fill="#002F62" d="M396.027 400.308c3.085-.298 5.603-.089 8.358 1.469 2.77 1.567 5.169 4.581 5.93 7.673.777 3.151.357 6.749-1.332 9.55-2.005 3.327-4.945 4.962-8.603 5.902-2.945.347-5.489.195-8.159-1.24-2.877-1.546-5.126-4.07-6.002-7.258-.882-3.212-.73-7.207 1.048-10.096 2.19-3.56 4.81-4.988 8.76-6Z"/>
  <path fill="#06DCE2" d="M396.221 403.284c2.007-.16 3.942-.169 5.817.656a9.457 9.457 0 0 1 5.02 5.261c.925 2.412.716 5.32-.396 7.63-1.282 2.664-3.539 4.304-6.293 5.192-2.414.551-4.83.113-6.969-1.105-2.221-1.265-3.727-3.552-4.405-5.978-.637-2.274-.365-5.022.813-7.067 1.478-2.565 3.63-3.866 6.413-4.589Z"/>
  <path fill="#002F62" d="m331.592 68.573 16.429.028c3.217-.004 7.833-.591 10.728.774l.377.174c2.294 1.104 4.114 3.306 4.892 5.723.616 1.912.451 3.987.447 5.967l-.028 9.11-.024 29.949.036 23.698c-.275 5.668 1.116 11.53-3.544 15.827-1.418 1.308-3.137 2.255-5.03 2.667-2.883.627-6.49.246-9.457.246l-14.214-.03-1.878-.038c-5.723-.336-11.615-.044-17.356-.047-2.4-.002-5.414.284-7.72-.368-3.177-.896-5.041-3.184-6.567-5.954l-.058-.197-.083-.33c-.433-1.644-.342-3.349-.35-5.038l.003-6.96.043-21.299-.007-30.651-.003-15.341c.024-.787.078-1.424.395-2.154l.156-.329c.467-1.013 1.002-1.88 1.79-2.681 1.097-1.116 2.703-2.08 4.225-2.459 2.62-.653 6.245-.245 8.98-.254l17.818-.032Z"/>
  <path fill="#fff" d="m310.982 71.624 31.343-.006 8.96.022c1.576.004 3.281-.11 4.84.117.999.145 1.98.646 2.75 1.295 1.471 1.24 2.322 3.33 2.442 5.208.272 4.225-.031 8.63-.034 12.872l-.006 26.877-.061 22.133c-.006 4.123.291 8.517-.188 12.608-.192 1.643-.802 3.095-1.918 4.328-2.018 2.232-4.224 2.493-7.064 2.642l-30.884-.007-8.695-.025c-1.71-.007-3.531.093-5.217-.206-1.253-.221-2.324-.738-3.324-1.52-1.446-1.129-2.286-2.766-2.438-4.587-.38-4.532-.055-9.378-.056-13.94l.002-27.952-.08-23.056c-.022-3.78-.349-7.84-.024-11.596.11-1.271.553-2.52 1.452-3.456 2.141-2.231 5.379-1.725 8.2-1.75Z"/>
  <path fill="#002F62" d="M321.942 80.375c.445-.138.817-.246 1.293-.177.691.1 1.253.549 1.616 1.133.336.539.478 1.184.32 1.804-.258 1.017-.704 1.334-1.546 1.85l-.75.223c-.884-.151-1.4-.397-1.964-1.123-.445-.573-.498-1.215-.381-1.912.159-.947.679-1.302 1.412-1.798ZM313.824 80.125c.966.192 1.339.282 1.965 1.125.557.749.507 1.504.366 2.375-.505.85-.869 1.178-1.78 1.564l-1 .013c-.904-.519-1.067-.685-1.607-1.577-.068-.88-.127-1.543.172-2.382.654-.697.961-.873 1.884-1.118ZM330.377 80.375c.29-.063.692-.178.998-.166.685.028 1.26.284 1.75.763.759.743.617 1.436.62 2.403-.361.785-.665 1.097-1.37 1.59l-.303.07c-.798.124-1.654-.036-2.262-.593-.774-.707-.757-1.35-.803-2.317.355-.856.625-1.204 1.37-1.75ZM339.557 80.375c.613-.133 1.115-.194 1.718.051.58.236 1.066.701 1.306 1.282.249.603.195 1.45-.086 2.042-.389.819-.853.967-1.62 1.297-.372.078-.695.139-1.072.042-.72-.185-1.402-.627-1.743-1.305-.302-.602-.286-1.412-.043-2.034.293-.744.879-1.02 1.54-1.375ZM334.762 108.76l13.185-.006-.05 3.021-13.09.093-.046-3.108ZM334.658 102.29l19.82.017-.014 3.072c-3.641.248-7.438.035-11.096.027-2.793-.006-5.88.24-8.633-.12l-.077-2.996ZM334.678 95.611l19.593.035.037 3.296-19.622.014-.008-3.345ZM330.255 140.565c1.471-.22 2.541-.192 3.933.364a7.748 7.748 0 0 1 4.267 4.25c.644 1.563.392 3.636-.279 5.137-.946 2.12-2.667 3.086-4.745 3.838-1.034.087-1.927.149-2.931-.144-1.862-.544-3.923-1.715-4.807-3.519-.832-1.697-.828-3.819-.12-5.553.862-2.108 2.67-3.468 4.682-4.373Z"/>
  <path fill="#EF748E" d="M330.45 143.375c.688-.208 1.64-.241 2.34-.08 1.109.257 2.273 1.279 2.802 2.26.538.996.642 2.34.26 3.408-.505 1.415-1.462 2.043-2.781 2.621-.761.103-1.445.112-2.196-.083-1.067-.276-2.043-.976-2.56-1.962-.63-1.196-.68-2.34-.247-3.611.436-1.278 1.192-1.976 2.382-2.553Z"/>
  <path fill="#002F62" d="m309.975 95.056 18.783.076-.056 16.688-18.748.119.021-16.882Z"/>
  <path fill="#06DCE2" d="m313 97.984 12.942-.064-.034 11.131-12.899-.017-.009-11.05Z"/>
  <path fill="#002F62" d="m334.83 118.576 18.73-.079-.019 17.198-18.776-.2.065-16.92Z"/>
  <path fill="#06DCE2" d="m337.728 121.465 12.957-.034-.05 11.176-12.901.028-.006-11.17Z"/>
  <path fill="#002F62" d="M309.974 118.505h18.809l-.017 17.038-18.786.156-.007-17.194Z"/>
  <path fill="#06DCE2" d="m312.95 121.503 12.928-.03.017 11.27-12.934-.004-.011-11.236Z"/>
  <path fill="#002F62" d="M380.656 306.436c-.835-.39-1.724-1.09-2.173-1.911-.296-.542-.382-1.219-.412-1.827l-.04-9.478-.035-19.345-.104-45.108.074-8.921c.017-1.596-.163-3.452.322-4.971.605-.678 1.118-1.341 2.087-1.412 4.003-.29 8.191-.055 12.22-.067l25.37-.03 24.285.023c3.79.002 7.741-.264 11.514-.025.876.056 1.618.198 2.279.83.407.39.656.865.697 1.431.228 3.163.025 6.498.026 9.675l-.036 19.325-.031 58.327c-.435 1.541-1.177 2.584-2.575 3.406-.855.502-48.05.134-53.427.173l-2.406.017-17.635-.112Z"/>
  <path fill="#64B8C3" d="m426.854 216.712 26.189-.17.067 12.206-27.33-.208-2.155-.16-.056-.38c.143-.138.241-.352.431-.414.632-.206 2.163-.017 2.873-.024 3.315-.028 6.995.258 10.26-.262 1.469-.204 3.225-.02 4.72-.023l9.809-.023.069-9.454-14.345-.09c-1.196-.31-2.539-.213-3.772-.23l-6.147-.058c-.841-.009-2.247.182-2.967-.277.61-.444 1.594-.371 2.354-.434Z"/>
  <path fill="#002F62" d="m437.386 217.71 14.344.09-.068 9.454-9.81.023c-1.494.004-3.25-.18-4.718.024l-13.129-.025-.01-9.532 13.391-.034Z"/>
  <path fill="#fff" d="m426.954 220.756 3.397-.007-.025 3.756-3.386.004.014-3.753ZM442.828 220.609l5.336.042.012 3.867-5.383-.003.035-3.906ZM434.001 220.624l5.406.001-.019 3.892-5.409-.013.022-3.88Z"/>
  <path fill="#23B0C7" d="m425.78 228.54-44.542.135.002-11.93 45.614-.034c-.76.063-1.744-.01-2.354.434.72.459 2.125.268 2.966.276l6.148.059c1.233.017 2.576-.08 3.772.23l-13.391.034.01 9.531 13.129.025c-3.266.52-6.946.234-10.262.262-.71.007-2.24-.182-2.872.024-.19.061-.288.276-.431.414l.056.38 2.154.16ZM382.023 231.875l71.432-.221-.009 7.221-.571.257-71.603-.1.033-6.907.718-.25Z"/>
  <path fill="#fff" d="m381.233 242.266 72.145-.02.102 40.158-.004 12.404c-.005 2.688.084 5.394-.216 8.067-.136.117-.24.289-.408.351-.732.272-3.167-.008-4.045-.012l-15.397-.091-52.154.067-.023-60.924Z"/>
  <path fill="#002F62" d="m389.794 287.24 4.019.014.002 3.703-4.007.023-.014-3.74ZM390.447 275.375l3.407-.084.07 3.334-.549.337-3.63.015.055-3.352.647-.25ZM390.606 251.374l3.233-.052c.013 1.093.204 2.523-.157 3.553l-.87.079-3.266.018c-.01-.965-.249-2.633.204-3.472l.856-.126ZM390.524 263.375l3.474-.058c.011 1.169.104 2.386-.123 3.536l-.75.12-3.492.003c-.017-1.094-.189-2.397.115-3.443l.776-.158Z"/>
  <path fill="#06DCE2" d="m401.584 251.603 44.173.101-.017 2.806-32.634.038-8.03.024c-1.048.005-2.513.222-3.464-.148l-.028-2.82ZM401.509 263.756c5.215.076 43.135-.478 44.428.252.06.918.154 1.729-.124 2.617-1.478.218-3.218.048-4.721.048l-8.54.002-31.045.076.002-2.995ZM401.522 275.729c5.11.076 42.833-.42 44.027.271.103.907.016 1.721-.09 2.625-1.394.276-3.063.114-4.49.118l-8.156.019-31.28.055-.012-3.088ZM401.505 287.699l44.16.038-.014 3.159-44.134.091-.012-3.288Z"/>
  <path fill="#002F62" d="m139.059 239.279.821.007.065.393c-.306 3.087-.165 6.278-.172 9.382l-.025 16.088-.013 51.3.004 15.175c-.002 1.726.277 4.041-.066 5.713-.149.73-.905 1.528-1.463 1.998l-.211.158-25.247.008-2.715.014-52.069.03c-.288-.171-.59-.338-.843-.563-.575-.511-.813-1.233-.856-1.982-.285-4.921-.027-10.04-.03-14.983l.003-30.678.016-32.511.036-16.828c.05-.99.424-1.504 1.081-2.216 1.806-.979 8.68-.393 10.946-.388l19.161-.042 36.933-.006 9.937.027c1.499.003 3.26.204 4.707-.096Z"/>
  <path fill="#EF748E" d="m59.348 242.497 77.194-.028-.013 9.559-77.185.168.004-9.699Z"/>
  <path fill="#002F62" d="M128.118 244.875c.382-.091.668-.134 1.065-.054.593.121 1.136.457 1.459.98.436.706.46 1.704.113 2.449-.297.635-.791.868-1.38 1.15-.287.05-.44.089-.75.076-.76-.033-1.436-.49-1.868-1.101-.436-.618-.46-1.304-.21-2 .285-.797.856-1.138 1.57-1.5ZM119.954 244.625l.921-.144c.612-.01 1.236.445 1.618.894.629.739.522 1.595.452 2.5-.443.812-.691 1.048-1.497 1.5-.236.054-.453.118-.701.11-.607-.019-1.2-.316-1.622-.74-.564-.567-.745-1.343-.632-2.12.137-.939.707-1.506 1.461-2Z"/>
  <path fill="#fff" d="m120.132 255.112 16.599-.107-.064 81.505-60.292.005-17.043-.013-.093-81.252 60.893-.138Z"/>
  <path fill="#002F62" d="m114.752 257.375.873-.14c.73.7 1.522 1.447 2.059 2.31.383.617.508 1.113.35 1.83-.42.579-.515.687-1.159.986l-.844-.476c-1.266.547-2.434 1.554-3.555 2.359l-6.217 4.512-33.532 24.619c-.598-.16-1.113-1.193-1.48-1.724l-2.573-3.801 2.075-1.563 2.766 2.854c1.133-.418 2.484-1.769 3.466-2.534l7.237-5.46 20.355-14.539 6.255-4.425c1.081-.764 2.355-1.459 3.297-2.385l-.454-1.048c.135-.84.424-.873 1.081-1.375ZM67.474 304.452l12.914.069.044 22.38-12.981.059.023-22.507Z"/>
  <path fill="#EF748E" d="m70.391 307.462 7.306.019-.1 16.46-7.164-.032-.042-16.447Z"/>
  <path fill="#002F62" d="m83.89 293.097 13.084.13-.013 33.52-13.174-.006c.442-3.702.176-7.692.18-11.436l-.078-22.208Z"/>
  <path fill="#EF748E" d="m86.753 296.239 7.458.022-.07 27.693-7.371.024-.017-27.739Z"/>
  <path fill="#002F62" d="m100.51 279.207 12.749-.023.01 47.713-12.729.012c-.546-1.157-.107-10.032-.1-11.85l.07-35.852Z"/>
  <path fill="#EF748E" d="m103.259 282.014 7.226-.007.019 41.951-7.253-.012.008-41.932Z"/>
  <path fill="#002F62" d="m120.274 269.625 9.695-.022-.11 57.276-2.797.061-10.317.015.306-57.3 3.223-.03Z"/>
  <path fill="#EF748E" d="m119.675 272.501 7.401.049.033 51.493-7.56-.007.126-51.535Z"/>
  <path fill="#64B8C3" d="M94.763 180.929c-2.174-3.129-4.192-6.106-5.866-9.547-7.303-15.012-8.603-32.507-3.123-48.35 5.576-16.12 17.767-28.617 33.037-35.913 15.397-7.359 34.492-7.757 50.47-2.011 18.362 6.603 32.429 19.859 40.726 37.46l-10.02 10.692 15.02-.039c2.548-.002 5.821-.38 8.269.26l-37.417-.02-.057-.437c-.42-3.125-1.654-6.03-4.281-7.949-2.258-1.65-5.338-2.108-8.046-1.624-2.748.49-5.148 2.145-6.671 4.47-1.476 2.253-1.969 5.495-1.33 8.11.646 2.638 2.493 5.213 4.834 6.61 2.298 1.373 5.399 1.855 8.006 1.141 2.73-.748 4.825-2.68 6.156-5.132.576-1.06.898-2.242 1.242-3.392l25.555-.01 7.435.013c1.435.005 2.933-.1 4.334.229l-24.284-.082c-3.853 4.912-6.44 10.049-7.944 16.105 1.901 0 4.125-.226 5.968.22 8.635.706 16.765 4.734 22.403 11.338 3.759 4.403 7.291 10.557 7.663 16.434l-44.07-.016-12.646-.001c-2.29.003-4.746-.165-7.007.216-2.238.377-4.456 1.716-6.049 3.3-3.492 3.471-3.313 7.513-3.321 12.039l-.004 8.1.016 30.604.03 13.763-13.775.02-.047-7.544-.024-.307-.065-.393-.821-.007c-1.446.3-3.208.099-4.707.096l-9.938-.027-36.932.006c.195-1.646.739-3.185 1.159-4.783 4.694-14.435 10.554-28.428 19.946-40.506-5.102-3.93-9.73-8.155-13.825-13.136Z"/>
  <path fill="#fff" d="M112.04 216.125c.575.017.66.065 1.151.375l.078 2.125c.673.73 1.676.132 2.633.5l.1.875c-.632.623-1.68.475-2.552.684l-.075.334c.516.293.882.55 1.29.982l-.29.479-.875-.194-.305.215-.278 1.625-.542.18-.576-.332-.248-1.098-.176-.776c-.576.419-1.02.794-1.75.893l-.56-.53.06-.676 1.741-1.161c-1.02-.133-1.947-.179-2.833-.75l.129-.465c.423-.112.77-.224 1.175-.4l-.101-.51.264-.238 1.625.661c.788-.363.229-1.451.464-2.173.08-.244.3-.417.45-.625ZM118.341 168.875l1.034-.137c.814.909.252 1.99.73 2.659.156.218 1.834.005 2.145.15.196.09.309.302.463.453l-.063.65-2.185.475.035.328c.648.152 1.269.284 1.875.57l.115.477c-.212.6-.201.613-.74.946l-1.375-.41c-.794.754-.068 2.199-.75 3.197l-.875.062c-1.172-.736.093-2.554-.875-3.517-.82.484-1.285.739-2.25.714l-.452-.617c.394-1.177 1.581-.787 1.97-1.75-.811-.213-1.39-.256-1.847-1l.172-.5c.958-.342 1.712.306 2.683.032l.19-2.782ZM102.736 134.625l.889-.121c.66.688.358 2.516.358 3.496l.392.255 1.5-.442c.681-.032.866.266 1.303.7l-.053.536c-.855.52-2.433.491-3.435.606l2.185 1.155c.11.593.056.478-.25.942-.88.289-.938-.458-1.818-.627l-.178 3.008c-.084.593-.038.573-.504.928l-.44-.311-.121-1.188c-.022-.633.097-2.135-.314-2.542l-.677.804c-.702.212-.994.075-1.698-.089l-.193-.485c.508-.91 1.141-.924 1.943-1.522-.534-.496-2.641-.185-3.497-.353l-.124-.75c.637-.733 2.066-.375 3.066-.5-.254-.562-.425-1.01-.533-1.625l.316-.394c.911.25 1 .814 1.471 1.607l.258-.088c-.027-1.021-.085-1.996.154-3ZM138.992 151.72l-.125-32.53-.34-.138c-2.102-.877-3.62-2.124-4.48-4.302-.63-1.596-.52-3.695.198-5.243.882-1.899 2.451-3.394 4.466-4.008a6.143 6.143 0 0 1 4.938.622c1.695 1.013 2.828 2.631 3.365 4.504l.089.301c.462 1.715.117 3.608-.827 5.09-.7 1.099-1.886 2.19-3.094 2.697-.213.09-1.637.565-1.67.636-.049.103-.001 1.042-.001 1.224l-.001 4.48-.006 26.536-.007 51.415.005 30.774c.003 1.186.359 4.9-.252 5.69l-1.37-.181-.821-.008-.083-.2.016-87.359Z"/>
  <path fill="#64B8C3" d="M139.213 108.875c.672-.207 1.237-.278 1.942-.18.934.129 1.63.627 2.161 1.394.629.906.833 2.183.548 3.249-.335 1.252-1.07 1.953-2.184 2.537-.637.137-1.451.187-2.097.097-.819-.113-1.55-.709-2.026-1.36-.665-.908-.754-2.052-.527-3.132.252-1.2 1.184-2.007 2.183-2.605Z"/>
  <path fill="#002F62" d="m226.842 179.505 103.528.086 1.829-.031 13.618-.072c2.108-.005 4.647-.256 6.703.174 2.285.478 4.435 1.718 6.093 3.355 1.517 1.496 2.515 3.215 3.187 5.233l.125.356c.794 2.415.338 5.983.342 8.546l.024 16.169.036 62.216.091 22.761c.03 4.118.26 8.332.017 12.435-.152 2.572-.971 5.087-2.19 7.349-2.123 3.938-5.588 6.464-9.853 7.738-3.507 1.048-7.785.663-11.421.671l-15.197.013-45.878-.037 7.409 41.359 6.445-.063c1.515-.006 2.938-.108 4.401.362l.428.134c3.051.995 5.27 3.296 6.683 6.12 1.269 2.533 1.303 5.09 1.726 7.799-1.966.424-4.08.29-6.086.298l-9.125-.011-.266-.003-2.562-.017-.228.049-69.433-.005-3.86-.042c.066-3.117.322-6.732 1.85-9.524 2.697-4.928 7.26-5.154 12.233-5.147 1.07.002 2.442.18 3.473-.098l7.254-41.181-50.64-.004-14.515-.002c-2.814-.004-5.808.207-8.583-.255a12.64 12.64 0 0 1-6.933-3.554c-1.959-1.962-3.225-4.687-3.704-7.394-.349-1.967-.128-4.319-.13-6.33v-13.217l.058-48.23-.03-13.764-.016-30.604.004-8.1c.008-4.526-.171-8.568 3.321-12.039 1.594-1.584 3.811-2.922 6.049-3.3 2.261-.38 4.716-.213 7.007-.216l12.646.001 44.07.016Z"/>
  <path fill="#fff" d="m238.435 370.874 36.598-.034 12.631-.034c2.11-.005 4.31-.134 6.408.017 1.169.084 2.354.391 3.33 1.054 2.64 1.79 3.332 4.498 3.833 7.443l-20.86-.02-63.102.07-.03-.293c-.092-2.009.427-4.603 1.852-6.094.879-.92 2.045-1.551 3.277-1.858 1.691-.42 3.754-.221 5.489-.229l10.575-.022Z"/>
  <path fill="#23B0C7" d="m170.354 287.995 175.624.079-.087 6.33-175.502-.06-.035-6.349Z"/>
  <path fill="#fff" d="m241.364 326.488 33.351-.001 7.4 41.34-7.242-.026-40.618-.042 7.11-41.271ZM338.68 182.63l10.334-.063c3.025.004 5.244.471 7.422 2.744a9.465 9.465 0 0 1 2.585 5.359c.416 3.043.087 6.427.113 9.521l.108 21.805-.096 72.38-10.181.02-.166-78.23-.029-16.818c-.003-1.781.385-4.724-.151-6.379l-170.494-.185-10.975-.092-.123 101.593-9.934-.003c-.178-.513-.137-.274-.152-.851l-.03-21.868.06-46.7.046-23.14c.006-3.904-.321-8.122.176-11.973.232-1.8 1.127-3.486 2.422-4.751 1.269-1.241 2.995-2.106 4.769-2.255 1.936-.161 3.984-.034 5.927-.032l11.615.01 36.15.024 120.604-.116Z"/>
  <path fill="#008498" d="M322.017 224.11c.063.011.528-.332.629-.4l15.192-10.922c2.43-1.717 5.114-3.913 7.901-4.972l.02 77.231-120.841-.27c1.492-1.407 4.802-1.983 6.832-2.741 5.7-2.127 11.096-4.418 16.498-7.222 1.966-1.02 4.138-1.639 5.338-3.614l-5.33-.147-.012-3.601 12.186-.18c1.08-1.232 2.674-2.124 4.008-3.082 3.374-2.426 6.963-4.747 10.053-7.526 2.158.018 4.806.336 6.884-.214.602-.89.56-1.044.567-2.075-.427-.833-.82-1.04-1.651-1.441.769-1.564 4.197-3.257 5.719-4.279 2.988-2.007 6.112-4.086 8.861-6.413 1.677-.528 3.756-2.531 5.207-3.612l16.162-10.637c1.762-.565 4.22-2.776 5.776-3.883Z"/>
  <path fill="#fff" d="m328.9 266.871.975-.073.35.327-.012 4.134-27.194-.01c-.178-.06-.363-.111-.519-.222-.575-.406-.882-.95-.947-1.652-.08-.858.397-1.418.944-2 1.007-.421 1.938-.327 3.012-.336l5.937-.028 17.454-.14ZM260.43 267.272l21.606-.036 6.25-.012c.931.002 2.065-.117 2.964.041.346.061.543.218.823.413.398.56.506.892.592 1.572-.253.889-.425 1.238-1.165 1.803-1.515.293-3.13.172-4.67.175l-7.315.012-25.93-.04-5.329-.147-.012-3.601 12.186-.18ZM301.067 252.375l29.245.138.012 4.203-12.199-.034-19.235.017c-2.854.001-6.646.464-9.39-.221-.658-.62-.839-.915-.836-1.853.004-.95.25-1.302.851-2 1.497-.351 3.102-.238 4.635-.243l6.917-.007ZM156.887 297.54l202.329-.089.002 9.51c-.004 2.13.145 4.362-.416 6.437-.651 2.41-1.836 4.303-3.442 6.166-2.433 2.038-5.499 3.63-8.735 3.692l-40.543.026-79.775.009-41.772-.022-12.35-.014c-2.245-.002-4.604.142-6.83-.115-2.162-.25-3.98-1.363-5.492-2.87-1.369-1.363-2.329-3.167-2.738-5.055-.427-1.966-.215-4.218-.222-6.234l-.016-11.442Z"/>
  <path fill="#002F62" d="M257 304.534c.9-.04 1.913-.158 2.799.067 1.355.344 2.703 1.353 3.34 2.606.657 1.289 1.007 3.166.43 4.544-.749 1.783-2.15 2.702-3.834 3.469-.887.092-1.966.192-2.827-.054-1.42-.406-2.616-1.551-3.269-2.852-.693-1.379-.749-3.174-.182-4.603.686-1.73 1.93-2.478 3.543-3.178Z"/>
  <path fill="#008498" d="m257.796 306.875.262-.017c.985.036 1.81.402 2.382 1.238.504.737.581 1.883.387 2.733-.217.954-.65 1.397-1.452 1.905-.471.037-1.061.117-1.515-.032-.542-.178-1.115-.731-1.397-1.215-.528-.903-.593-1.962-.272-2.946.29-.888.806-1.257 1.605-1.666Z"/>
  <path fill="#23B0C7" d="m224.918 284.777-54.45.001-.017-88.778 175.21-.024.079 11.84c-2.788 1.059-5.472 3.255-7.902 4.972l-15.192 10.922c-.101.068-.567.411-.63.4-1.555 1.106-4.014 3.318-5.776 3.882l-16.162 10.638c-1.451 1.08-3.53 3.084-5.207 3.612-2.75 2.327-5.873 4.406-8.861 6.413-1.522 1.022-4.95 2.715-5.719 4.279.83.401 1.224.608 1.651 1.441-.007 1.03.035 1.185-.567 2.075-2.078.55-4.726.232-6.885.214-3.09 2.779-6.678 5.1-10.052 7.526-1.334.958-2.928 1.85-4.008 3.082l-12.186.18.012 3.601 5.33.147c-1.2 1.976-3.373 2.594-5.339 3.614-5.401 2.804-10.797 5.095-16.497 7.222-2.03.757-5.34 1.334-6.832 2.741Z"/>
  <path fill="#fff" d="m316.24 227.993-13.228-.09c-.71-.419-.805-.56-1.223-1.278-.018-.995-.08-1.278.42-2.168 1.212-.819 4.153-.443 5.625-.445 4.695-.008 9.503-.225 14.183.097-1.556 1.107-4.015 3.319-5.777 3.883ZM274.49 256.664l-26.282-.05.04-3.62 32.043-.06c.83.401 1.224.608 1.651 1.441-.007 1.03.035 1.185-.567 2.075-2.078.55-4.726.232-6.885.214ZM248.302 224.075l42.823-.001c.858.134 1.086.541 1.57 1.176.095.925.051 1.284-.344 2.125-.164.113-.308.262-.493.337-.603.243-1.94.127-2.617.13l-6.942.01-34.062-.091.065-3.686ZM294.871 242.242l-46.621.002.005-3.541 51.823-.073c-1.451 1.08-3.53 3.084-5.207 3.612ZM248.012 209.264l74.17-.089-.081 3.82-74.018-.046-.071-3.685ZM207.378 216.554c1.325-.089 2.675-.085 3.944.362 1.02.36 1.978.947 2.807 1.639 3.138 2.618 5.965 5.99 8.829 8.925l5.911 5.907c1.668 1.643 3.43 3.17 4.441 5.333.957 2.044.915 5.225.036 7.289-.93 2.187-3.15 3.958-4.815 5.618l-7.424 7.423c-2.653 2.657-5.281 5.739-8.191 8.089-.814.657-1.696 1.064-2.653 1.46-1.768.199-3.222.096-4.82-.747-2.672-1.41-5.032-4.516-7.166-6.659-4.032-4.048-8.411-8.007-11.956-12.5-1.074-1.363-2.115-2.906-2.62-4.58-.618-2.044.03-3.734 1.007-5.519 2.954-5.4 8.695-10.107 13.058-14.458 2.13-2.124 4.294-4.69 6.766-6.386.863-.593 1.853-.898 2.846-1.196Z"/>
  <path fill="#002F62" d="m202.558 232.125.363-.11c1.363.254 3.28 1.86 4.52 2.61 4.184 2.527 8.369 4.886 12.379 7.695-1.316 1.417-4.216 2.643-5.962 3.66l-11.103 6.427-.197-20.282Z"/>
  <path fill="#008498" d="M203.715 234.125c4.463 2.643 9.3 5.028 13.38 8.251l-4.328 2.84-9.11 5.009.058-16.1Z"/>
</svg>