<?xml version="1.0" encoding="utf-8" ?>
<svg xmlns="http://www.w3.org/2000/svg" xmlns:xlink="http://www.w3.org/1999/xlink" width="512" height="512">
	<path fill="white" transform="scale(0.5 0.5)" d="M514.058 299.75C514.837 299.669 515.733 299.657 516.5 299.868C518.24 300.349 518.868 301.341 519.803 302.75C519.961 304.038 520.17 305.364 519.721 306.616C518.973 308.697 517.713 309.654 515.75 310.493C514.968 310.546 514.161 310.594 513.395 310.376C511.912 309.955 510.7 308.647 510.112 307.256C509.516 305.844 509.375 304.213 510.033 302.831C510.902 301.008 512.215 300.364 514.058 299.75Z"/>
	<path fill="white" transform="scale(0.5 0.5)" d="M760.588 658.75C761.601 658.458 761.069 658.456 762.179 658.886L762.588 664.75L763.5 665.487C764.102 665.148 764.72 664.823 765.25 664.372C766.467 663.336 766.844 662.234 766.999 660.686L767.033 660.25L768.5 660.005L769.423 660.75C769.1 661.916 768.931 662.614 769.179 663.809L771.75 664.288C772.043 665.58 772.161 665.603 771.538 666.75C770.304 666.092 769.441 665.633 768 665.58C766.817 666.465 765.928 666.877 765.336 668.25L767.911 671.626C767.822 672.295 767.772 672.838 767.947 673.5C768.2 674.454 768.481 675.042 768.25 676.034L767.25 676.49C765.538 675.206 766.808 675.464 766.496 673.75C766.435 673.412 765.049 672.006 764.75 671.645L763.5 670.513L762.651 670.633C761.587 672.39 761.448 673.507 761.378 675.559L761.362 676.25L760.25 676.426C759.01 674.799 759.567 673.733 758.75 672.043L756 672.806C754.743 672.224 754.569 671.929 753.75 670.788L754.001 669.75C755.823 669.214 756.625 670.657 758.75 670.242C759.953 668.812 760.439 668.674 760.382 666.75L758.75 665.487L756 665.843L754.75 664.857C754.806 663.568 755.056 663.473 755.75 662.444C757.153 662.656 758.244 663.213 759.5 663.828L760.327 663.357L760.588 658.75Z"/>
	<path fill="white" transform="scale(0.5 0.5)" d="M660.652 325.336L664.407 325.411L664.397 359.119L660.741 359.182L660.652 325.336Z"/>
	<path fill="white" transform="scale(0.5 0.5)" d="M890.064 658.25C891.333 657.896 892.508 657.768 893.83 657.924C895.255 658.091 896.309 658.898 897.123 660.054C898.253 661.658 898.695 664.263 898.164 666.156C897.543 668.369 896.202 669.43 894.25 670.458C893.069 670.716 891.924 670.733 890.734 670.511C888.975 670.182 887.402 668.936 886.474 667.427C885.52 665.876 885.472 664.193 886.016 662.484C886.729 660.241 888.065 659.318 890.064 658.25Z"/>
	<path fill="white" transform="scale(0.5 0.5)" d="M746.856 331.25L748.75 330.914C749.966 332.53 749.417 336.123 749.436 338.196C750.641 336.656 751.676 334.701 753.5 333.97L754.721 334.75L754.839 335.867L751.928 338.996L752.058 339.865C753.839 340.05 756.86 339.242 758.25 339.964C758.433 341.167 758.43 341.282 757.917 342.382L752.925 342.787L752.427 343.5C753.652 344.786 754.73 345.851 755.434 347.5L754.827 348.325L753.5 348.447L749.639 344.972L749.505 351.25L748.933 352.365L748.004 352.364C746.282 350.305 747.858 347.703 746.25 346.077C744.904 347.353 744.356 348.258 742.5 348.576L741.575 347.75C742.469 346.033 743.862 344.517 745.068 343.007C743.111 342.94 740.312 343.173 738.543 342.341C737.777 341.98 737.927 341.687 737.75 340.953C739.6 339.682 742.859 340.101 745.123 340.011C743.746 338.729 742.58 337.583 741.554 336L742.25 335.058C744.093 335.369 745.629 336.642 747.153 337.672C746.914 335.544 746.512 333.379 746.856 331.25Z"/>
	<path fill="white" transform="scale(0.5 0.5)" d="M386.066 130.75L388 130.622L388.678 131.25L388.475 138.357C389.696 137.106 390.832 135.701 392.5 135.065L393.6 135.75L393.803 136.75L390.308 141.036C392.404 140.892 396.287 140.061 398.075 140.984L398.486 142.5L397.75 143.486L390.959 143.632C392.015 144.924 393.191 146.112 393.653 147.75L392.904 148.895L391.75 148.954L388.305 144.734L388.25 154.709L386.992 155.003L385.988 154.25L385.793 147.078L385.141 147.066L383.175 149.182C381.868 149.519 381.943 149.454 380.75 148.792L380.706 147.75L385.047 143.958C383.3 142.921 379.355 143.859 377.15 143.216C376.233 142.949 376.596 143.18 376.058 142.25C376.934 141.383 377.664 140.81 379 140.963L380.75 141.354C381.804 141.463 382.89 141.147 383.671 140.5C382.771 139.455 381.94 138.562 381.443 137.25L382.239 136.25C383.85 136.497 384.11 137.041 385.25 138.16L385.843 138C385.775 135.637 385.455 133.047 386.066 130.75Z"/>
	<path fill="white" transform="scale(0.5 0.5)" d="M131.532 707.25C132.513 706.972 133.24 707.021 134.25 707.048C134.697 707.407 135.334 707.861 135.665 708.354C136.984 710.311 136.163 714.213 135.986 716.485L142.5 716.486C143.875 717.3 144.002 717.682 144.75 719.041C144.611 720.59 144.518 720.865 143.639 722.146C141.543 723.326 138.703 722.977 136.346 722.998C136.485 725.977 137.124 728.814 135.081 731.25C134.775 731.462 134.528 731.664 134.144 731.753C132.428 732.149 132.018 731.754 130.639 730.864C129.453 728.689 129.889 725.571 129.897 723.136C128.552 722.417 124.897 722.927 123.25 722.943C122.151 722.186 121.865 721.743 121.391 720.5C121.544 718.629 121.587 718.459 122.75 716.991C124.648 715.94 127.295 716.3 129.423 716.319L129.424 714.44C129.44 711.196 129.143 709.613 131.532 707.25Z"/>
	<path fill="#008498" transform="scale(0.5 0.5)" d="M761.312 612.872L796.583 613.097L796.396 613.302C795.012 615.664 795.832 622.126 795.849 625.006L762.076 625.004C762.047 621.222 762.356 617.003 761.439 613.333L761.312 612.872Z"/>
	<path fill="white" transform="scale(0.5 0.5)" d="M777.125 192.589C779.224 192.45 781.425 192.511 783.416 193.275C786.37 194.408 789.465 197.467 790.497 200.469C791.579 203.615 791.047 207.174 789.423 210.02C787.569 213.269 784.818 214.964 781.329 216.005C778.939 216.08 776.864 216.134 774.608 215.257C771.978 214.235 769.714 212.011 768.668 209.386C767.253 205.837 767.251 202.663 768.886 199.192C770.619 195.515 773.531 193.993 777.125 192.589Z"/>
	<path fill="#008498" transform="scale(0.5 0.5)" d="M609.976 764.356C611.634 769.311 612.799 775.292 613.197 780.503L579.621 780.583L579.554 764.93L597.805 764.952C601.815 764.936 606.044 765.204 609.976 764.356Z"/>
	<path fill="white" transform="scale(0.5 0.5)" d="M143.294 394.032C144.894 393.972 146.576 393.865 148.151 394.199C151.92 394.997 154.982 397.038 156.889 400.422C158.524 403.323 159.232 407.606 158.098 410.839C156.582 415.161 153.039 417.593 149.09 419.441C146.369 419.844 143.518 419.881 140.948 418.764C137.665 417.337 135.398 415.044 134.096 411.708C132.817 408.432 133.195 404.139 134.702 400.989C136.577 397.072 139.361 395.417 143.294 394.032Z"/>
	<path fill="#23B0C7" transform="scale(0.5 0.5)" d="M144.334 401.25C145.911 401.019 146.976 400.905 148.5 401.475C150.066 402.062 150.753 403.332 151.447 404.75C151.56 406.585 151.778 408.295 150.963 410C150.194 411.61 148.827 412.211 147.25 412.813C146.355 412.931 145.551 413.042 144.656 412.856C143.061 412.524 141.613 411.699 140.814 410.238C139.933 408.628 139.629 406.198 140.336 404.47C141.091 402.625 142.563 401.89 144.334 401.25Z"/>
	<path fill="white" transform="scale(0.5 0.5)" d="M486.421 821.568C489.099 821.427 491.658 821.77 494.038 823.083C497.365 824.918 499.572 828.128 500.438 831.801C501.241 835.2 500.783 838.859 498.886 841.827C496.564 845.459 493.781 847.013 489.722 848.023C486.541 848.101 483.615 847.935 480.807 846.25C477.77 844.428 475.859 841.357 475.015 837.972C474.126 834.408 474.946 830.814 476.89 827.737C479.229 824.035 482.349 822.541 486.421 821.568Z"/>
	<path fill="#008498" transform="scale(0.5 0.5)" d="M225.504 679.002L275.998 678.986C277.207 682.539 277.19 688.657 276.849 692.406C276.399 692.756 276 693.182 275.5 693.455C273.334 694.641 267.111 693.98 264.651 693.983L237.18 693.974C233.429 693.982 229.152 693.544 225.488 694.05L225.504 679.002Z"/>
	<path fill="white" transform="scale(0.5 0.5)" d="M285.999 690.626L395.451 690.62L419.823 690.62C421.834 690.62 425.371 690.132 427.25 690.62C427.584 690.706 427.797 691.04 428.071 691.25C428.096 693.235 428.545 694.979 427.25 696.553L285.716 696.214L285.999 690.626Z"/>
	<path fill="white" transform="scale(0.5 0.5)" d="M811.401 352.058C815.236 351.668 818.658 351.804 822.23 353.407C825.816 355.016 828.534 358.598 829.832 362.236C831.497 366.904 831.186 371.839 828.868 376.25C826.632 380.505 822.79 382.886 818.376 384.371C814.813 385.074 811.229 384.969 807.866 383.46C803.516 381.507 800.502 377.604 799.021 373.138C797.617 368.901 798.503 363.47 800.661 359.639C803.039 355.419 806.904 353.329 811.401 352.058Z"/>
	<path fill="#23B0C7" transform="scale(0.5 0.5)" d="M812.074 358.547C814.01 358.462 815.879 358.377 817.75 358.971C820.365 359.802 822.22 361.519 823.376 364C824.555 366.532 824.839 369.503 823.767 372.112C822.472 375.26 819.894 376.668 816.96 377.959C814.744 378.026 812.636 378.219 810.52 377.408C808.245 376.537 806.411 374.353 805.523 372.138C804.411 369.362 804.282 366.404 805.636 363.672C807.026 360.868 809.271 359.636 812.074 358.547Z"/>
	<path fill="white" transform="scale(0.5 0.5)" d="M220.075 679.029L225.504 679.002L225.488 694.05L225.513 725.657L301.261 725.823L322.36 725.847C325.794 725.855 329.741 725.503 333.119 726.081C335.464 726.482 337.726 727.822 339.361 729.53C343.736 734.101 342.633 741.441 342.607 747.249L342.515 763.2L337.136 763.152L337.173 744.059C337.16 740.833 337.682 736.641 335.329 734.099C333.906 732.561 332.152 731.788 330.104 731.484C326.129 730.894 321.703 731.19 317.67 731.162L295.156 731.092L220.13 731.042L220.156 693.928L220.075 679.029Z"/>
	<path fill="#008498" transform="scale(0.5 0.5)" d="M913.398 605.905L914.031 624.944L801.464 625.076L801.395 613.062C812.147 612.984 906.538 613.719 908.248 612.715C911.044 611.073 912.527 608.986 913.398 605.905Z"/>
	<path fill="white" transform="scale(0.5 0.5)" d="M859.208 272.454C865.016 273.677 869.728 276.122 873.065 281.203C876.091 285.81 877.491 292.901 876.21 298.273C874.803 304.175 871.057 309.388 865.751 312.368C860.744 315.18 854.461 315.688 849 313.947L845.067 312.294C840.432 308.838 837.103 305.167 835.513 299.444C834 294.001 835.233 287.049 838.082 282.243C840.542 278.093 845.134 274.79 849.726 273.523L850.454 273.33C853.346 272.544 856.231 272.536 859.208 272.454Z"/>
	<path fill="#64B8C3" transform="scale(0.5 0.5)" d="M846.301 305.405L845.149 304.352C842.119 301.258 840.869 297.121 841.118 292.854C841.353 288.819 843.247 284.821 846.352 282.22C850.033 279.137 854.295 278.398 858.972 278.838C856.407 288.254 850.696 296.778 846.301 305.405Z"/>
	<path fill="#23B0C7" transform="scale(0.5 0.5)" d="M858.972 278.838C863.192 280.125 866.272 281.783 868.378 285.948C870.255 289.66 871.069 294.495 869.717 298.495C868.357 302.517 864.849 305.86 861 307.51C857.62 308.959 853.925 309.207 850.528 307.725L846.301 305.405C850.696 296.778 856.407 288.254 858.972 278.838Z"/>
	<path fill="white" transform="scale(0.5 0.5)" d="M796.583 613.097L801.395 613.062L801.464 625.076L801.533 680.066L801.559 692.219C801.564 693.56 801.802 695.076 801.042 696.237C794.515 695.065 786.578 695.901 779.908 695.901L736.54 696.042L731.824 696.008L730 696.057L609.447 696.286C608.74 696.29 609.025 696.418 608.566 695.966L608.591 690.156L796.416 690.035L796.396 613.302L796.583 613.097Z"/>
	<path fill="#008498" transform="scale(0.5 0.5)" d="M115.936 679.09L220.075 679.029L220.156 693.928L151.138 693.924C140.922 693.935 130.44 694.438 120.25 693.917C118.581 693.831 117.768 693.753 116.465 692.75C115.135 689.04 115.929 683.094 115.936 679.09Z"/>
	<path fill="white" transform="scale(0.5 0.5)" d="M573.898 764.89L579.022 764.923L579.107 871.916C581.079 872.357 583.144 872.831 584.931 873.801C589.516 876.29 592.849 881.237 594.332 886.174C596.042 891.866 595.075 897.047 592.232 902.196C589.808 906.586 584.932 910.258 580.119 911.508C575.127 912.806 570.016 911.915 565.605 909.321C561.18 906.719 557.798 901.796 556.558 896.846C555.251 891.629 556.265 885.598 559.126 881.049C562.802 875.206 567.267 873.238 573.713 871.77L573.898 764.89Z"/>
	<path fill="#23B0C7" transform="scale(0.5 0.5)" d="M572.689 877.595C575.653 877.453 578.346 877.396 581.113 878.652C584.905 880.374 587.767 883.396 589.15 887.346C590.506 891.217 590.125 895.043 588.18 898.642C586.045 902.593 582.932 904.662 578.742 906.007C576.8 906.325 575.092 906.588 573.142 906.189L572.5 906.047C571.642 905.868 570.836 905.707 570.022 905.361C566.271 903.769 563.806 900.872 562.299 897.146C560.98 893.887 561.065 889.711 562.459 886.5C564.55 881.684 567.969 879.416 572.689 877.595Z"/>
	<path fill="#008498" transform="scale(0.5 0.5)" d="M434.576 764.978L573.442 764.988C572.931 770.034 573.348 775.636 573.346 780.736L487.479 780.961L457.896 780.989C452.917 780.99 447.708 781.285 442.75 780.92C441.338 780.816 439.964 780.55 438.85 779.614C434.833 776.242 434.706 769.749 434.576 764.978Z"/>
	<path fill="white" transform="scale(0.5 0.5)" d="M446.072 270.98C443.269 270.322 440.274 270.532 437.404 270.521L422.534 270.497L371.424 270.517C370.735 272.817 370.092 275.181 368.941 277.3C366.278 282.204 362.088 286.069 356.628 287.564C351.414 288.991 345.212 288.027 340.616 285.283C335.934 282.488 332.24 277.339 330.949 272.062C329.67 266.832 330.657 260.349 333.608 255.843C336.654 251.191 341.455 247.882 346.95 246.901C352.365 245.935 358.525 246.851 363.041 250.15C368.295 253.987 370.763 259.797 371.604 266.049L371.718 266.921L446.552 266.961C451.454 268.184 455.322 270.787 457.909 275.25C461.259 281.032 460.083 289.314 460.073 295.8L460.069 315.953C460.078 319.126 459.683 323.013 460.478 326.096C461.251 329.091 464.878 333.975 467.948 334.856C470.631 335.626 474.601 335.222 477.441 335.237L497.274 335.313L550.709 335.434L567.051 335.404C570.596 335.372 574.599 335.473 578.055 334.71C576.765 333.378 575.096 331.995 574.407 330.25L575 329.608C577.067 329.6 579.01 331.748 580.417 333.091L580.455 325.75L581.25 325.058C581.857 325.317 582.407 325.351 582.698 325.995C583.48 327.732 583.236 330.751 583.323 332.683L587.5 329.505L588.547 330L588.974 331.25C587.48 332.65 585.806 333.773 584.134 334.947L591.25 335.074L592.013 336L591.715 337.215C589.773 338.146 587.211 337.979 585.08 338.079C587.25 339.835 589.63 341.391 590.83 343.977C587.725 342.841 585.878 341.469 583.464 339.247L583.43 346L582.5 346.837L580.75 346.128C579.968 344.274 580.356 341.4 580.368 339.382C578.969 340.816 577.613 342.341 576 343.535L574.917 343.069L574.576 342C575.686 340.272 576.964 339.51 578.691 338.442L503.327 338.553L480.765 338.562C477.03 338.557 472.964 338.892 469.269 338.458C466.158 338.092 462.871 336.031 460.71 333.85C455.92 329.014 456.672 322.511 456.662 316.29L456.646 293.009C456.642 289.155 457.169 284.504 456.107 280.813C454.71 275.956 451.237 271.849 446.072 270.98Z"/>
	<path fill="#64B8C3" transform="scale(0.5 0.5)" d="M348.319 252.055C351.523 251.919 354.143 251.902 357.162 253.23C361.058 254.943 364.329 258.516 365.699 262.546C367.103 266.676 366.654 270.786 364.719 274.645C362.629 278.814 358.898 281.189 354.648 282.698C351.294 283.047 348.218 283.036 345.024 281.754C341.389 280.296 338.26 276.995 336.878 273.351C335.3 269.189 335.484 264.234 337.507 260.25C339.827 255.683 343.675 253.581 348.319 252.055Z"/>
	<path fill="#008498" transform="scale(0.5 0.5)" d="M842.563 832.614L843.312 834.275C845.062 835.906 844.61 840.074 844.699 842.525C845.186 855.883 845.583 867.357 835.828 877.814C830.371 883.664 822.141 886.774 814.25 886.981L732.919 886.999L701.551 886.9C695.12 886.828 687.997 887.172 681.708 885.75C668.269 882.712 657.371 875.203 649.924 863.512C647.792 860.164 645.985 856.97 645.721 852.926C653.667 862 662.648 868.822 675.078 869.784C684.868 870.542 695.054 870.059 704.895 870.067L760.158 870.062L794.249 870.044C800.811 870.048 808.007 870.593 814.477 869.558C819.791 868.708 825.218 866.06 829.25 862.495C834.535 857.822 839.552 851.947 841.318 844.951C842.33 840.941 842.352 836.728 842.563 832.614Z"/>
	<path fill="#64B8C3" transform="scale(0.5 0.5)" d="M728.827 240.596C763.626 237.912 824.25 238.381 851.775 262.045C855.091 264.897 858.215 268.042 859.208 272.454C856.231 272.536 853.346 272.544 850.454 273.33L849.726 273.523C845.134 274.79 840.542 278.093 838.082 282.243C835.233 287.049 834 294.001 835.513 299.444C837.103 305.167 840.432 308.838 845.067 312.294C844.073 314.048 842.852 315.359 841.477 316.809C841.277 317.019 841.142 317.32 840.878 317.437C840.42 317.641 828.977 313.485 827.5 313.018C810.232 307.549 792.813 303.735 774.726 302.304C759.509 301.101 744.301 301.578 729.061 301.961L728.898 287.992L728.827 240.596Z"/>
	<path fill="#002F62" transform="scale(0.5 0.5)" d="M512.342 208.528L511.016 208.676C508.121 208.741 502.763 201.977 500.696 199.865C498.407 201.415 496.347 202.597 493.716 203.486L492.997 203.725C493.006 206.903 493.631 211.773 492.102 214.629C491.677 215.422 491.118 215.438 490.25 215.573C488.132 215.901 474.548 216.271 473 215.537C472.548 215.323 472.24 214.886 471.86 214.561C470.632 211.083 470.886 206.837 470.766 203.151C467.834 202.392 465.253 201.466 462.518 200.165L454.193 208.46C449.025 204.745 442.871 198.656 439.371 193.348C441.094 190.372 443.697 188.027 446.091 185.593C445.61 183.574 444.142 181.513 443.225 179.628C442.856 178.869 441.019 174.294 440.562 174.028C440.11 173.766 439.517 174.026 438.995 174.024C435.764 174.01 431.809 174.602 429.25 172.465C428.168 168.591 427.96 156.561 429.25 152.823C431.775 151.269 437.542 151.965 440.656 151.926C441.589 148.639 442.587 145.487 444.277 142.504L444.577 141.985L438.022 133.466C441.754 128.228 447.463 122.969 452.46 118.902L461.03 125.704C464.03 123.878 467.159 122.564 470.394 121.218L470.457 112C470.602 110.762 471.076 110.263 472 109.507C475.395 109.494 489.206 108.525 491.157 110.593C493.007 112.555 492.368 118.554 492.38 121.225C495.67 122.389 498.674 123.745 501.763 125.37C504.319 122.657 507.434 118.408 511 117.093C513.193 118.128 514.664 120.074 516.285 121.829C519.376 125.175 522.466 128.483 525.19 132.14L517.567 141.39L521.616 150.808L529.564 150.458C531.23 150.849 532.703 151.061 534.012 152.25C534.746 154.428 534.479 156.922 534.48 159.21L534.449 171.75C533.609 173.027 532.997 173.222 531.5 173.537C528.425 174.184 525.055 174.134 521.924 174.229C520.457 177.859 518.057 181.603 516.939 185.252C520.28 187.796 523.014 190.016 525.132 193.733C521.085 198.706 515.612 203.027 512.342 208.528Z"/>
	<path fill="white" transform="scale(0.5 0.5)" d="M475.443 113.95L487.664 114.013L487.685 125.117C492.962 126.238 497.561 128.303 502.451 130.494L511.006 123.055L519.516 131.882L511.729 139.692C511.992 141.815 513.657 144.191 514.536 146.182C515.857 149.174 516.868 152.29 517.912 155.387C521.128 155.498 526.996 155.126 529.868 156.297L529.944 168.876L517.706 168.886C516.793 175.487 514.573 179.917 511.055 185.481C513.493 188.465 516.311 190.935 519.186 193.487L509.751 203.003L500.932 194.798C496.937 196.635 493.071 197.898 488.947 199.353L488.651 207.125C488.644 208.546 488.951 209.382 488 210.504L475.563 210.595L475.001 199.245C470.381 198.243 466.668 196.391 462.536 194.193C460.072 197.303 456.933 199.908 454.006 202.575L445.365 192.92C447.002 191.295 450.993 187.521 451.421 185.366C449.454 181.389 447.272 177.441 445.821 173.241C445.703 172.901 444.905 170.137 444.753 170.033C444.361 169.765 441.384 169.771 440.765 169.72C438.642 169.546 436.159 169.582 434.25 168.546C433.053 165.174 433.741 160.074 433.768 156.463L444.247 156.11C445.404 151.476 447.193 146.12 449.905 142.183L450.251 141.692C449.27 138.65 446.333 135.476 444.344 133.009L452.687 125.145L460.182 131.429C464.936 127.524 469.499 126.096 475.396 124.889L475.443 113.95Z"/>
	<path fill="#002F62" transform="scale(0.5 0.5)" d="M480.892 137.203C486.33 137.436 490.799 138.283 495.41 141.461C500.562 145.012 504.668 151.597 505.555 157.776C506.513 164.44 505.276 171.362 500.997 176.725C496.234 182.693 489.289 185.885 481.853 186.801C475.887 186.404 470.228 184.828 465.596 180.883C460.468 176.516 457.074 170.276 456.593 163.5C456.158 157.378 458.46 150.265 462.514 145.66C467.549 139.942 473.424 137.763 480.892 137.203Z"/>
	<path fill="#23B0C7" transform="scale(0.5 0.5)" d="M478.076 142.108C482.189 141.909 486.487 142.162 490.25 144C495.08 146.36 498.638 150.851 500.313 155.925C502.003 161.04 501.463 166.211 499.099 171C496.34 176.591 491.438 179.561 485.742 181.476C480.487 182.434 475.413 181.971 470.808 179.125C466.128 176.233 462.819 171.493 461.719 166.093C460.644 160.82 461.899 154.901 464.884 150.47C468.225 145.511 472.347 143.241 478.076 142.108Z"/>
	<path fill="#64B8C3" transform="scale(0.5 0.5)" d="M279.422 779.247C278.214 784.535 278.952 791.147 278.954 796.585L279.12 833.156C277.558 834.098 261.442 833.485 258.478 833.491L198.646 833.54L182.198 833.515C178.729 833.505 175.137 833.706 171.704 833.16C162.016 831.618 154.286 826.93 148.756 818.807C143.621 811.266 141.526 801.564 143.267 792.584C145.042 783.427 151.382 775.126 159.099 770.084C163.125 767.454 168.441 765.79 173.194 765.237C180.358 764.405 188.027 764.929 195.257 764.916L234.078 764.684L264.039 764.413C272.213 764.267 281.622 763.141 289.613 764.716C285.032 767.39 281.57 771.021 280.015 776.25L279.422 779.247Z"/>
	<path fill="white" transform="scale(0.5 0.5)" d="M236.878 782.552C240.025 782.426 242.827 782.51 245.787 783.706C249.047 785.022 251.633 787.99 252.856 791.25C254.401 795.369 254.328 799.513 252.458 803.5C250.443 807.794 246.487 809.968 242.223 811.458C239.032 811.594 236.682 811.543 233.679 810.221C230.004 808.603 227.119 805.324 225.775 801.551C224.447 797.822 225.205 793.164 227.073 789.75C229.291 785.694 232.525 783.702 236.878 782.552Z"/>
	<path fill="#64B8C3" transform="scale(0.5 0.5)" d="M801.042 696.237L801.274 696.856C805.656 695.212 809.696 693.161 814.205 691.76C830.22 686.785 847.798 687.47 863.163 694.385C875.334 699.863 886.482 708.747 894.462 719.5C905.511 734.389 910.677 753.499 908.115 771.922C905.513 790.626 896.179 809.193 880.873 820.631C871.908 827.33 861.742 831.548 850.75 833.482C848.292 833.914 845.714 833.823 843.312 834.275L842.563 832.614L842.576 793.692C842.572 787.903 843.26 780.955 842.192 775.299C841.179 769.934 839.291 765.158 836.028 760.731C830.73 753.541 822.165 747.658 813.191 746.479L812.5 746.395C801.908 745.026 790.14 745.989 779.425 745.987L714.211 746.003C717.472 727.103 725.64 711.62 736.54 696.042L779.908 695.901C786.578 695.901 794.515 695.065 801.042 696.237Z"/>
	<path fill="white" transform="scale(0.5 0.5)" d="M855.888 709.25C857.292 709.051 858.685 708.952 860.04 709.447C861.794 710.089 863.461 711.74 864.159 713.48C864.83 715.156 864.542 717.002 863.8 718.603C862.891 720.564 861.297 721.474 859.376 722.25C858.428 722.414 857.578 722.57 856.618 722.398C854.806 722.074 853.258 721.047 852.278 719.472C851.113 717.599 850.948 714.91 851.725 712.86C852.483 710.86 853.981 709.945 855.888 709.25Z"/>
	<path fill="#64B8C3" transform="scale(0.5 0.5)" d="M529.564 150.458L538.282 140.148C552.388 124.155 574.154 114.706 595.305 113.522C619.883 112.146 644.817 120.756 663.185 137.147L627.549 137.213C622.077 137.229 614.827 136.414 609.588 137.72C606.545 138.479 603.333 140.406 601.139 142.637C599.563 144.24 598.492 145.975 597.558 148L597.246 148.657C596.612 150.118 596.505 151.392 596.456 152.966L596.461 183.647L596.475 244.951L596.39 287.547L596.383 301.467C596.399 304.846 596.217 308.255 597.084 311.544L597.251 312.205L597.367 312.598C594.447 313.815 588.235 312.553 585.096 312.06C562.194 308.462 540.773 294.84 527.217 276.112C517.848 263.168 510.894 246.185 510.351 230.094C510.099 222.605 511.156 215.859 512.342 208.528C515.612 203.027 521.085 198.706 525.132 193.733C523.014 190.016 520.28 187.796 516.939 185.252C518.057 181.603 520.457 177.859 521.924 174.229C525.055 174.134 528.425 174.184 531.5 173.537C532.997 173.222 533.609 173.027 534.449 171.75L534.48 159.21C534.479 156.922 534.746 154.428 534.012 152.25C532.703 151.061 531.23 150.849 529.564 150.458Z"/>
	<path fill="white" transform="scale(0.5 0.5)" d="M574.354 223.642C576.43 223.77 578.374 223.921 580.317 224.725C583.405 226.002 585.314 228.459 586.429 231.555C587.594 234.785 587.312 238.488 585.803 241.565C584.032 245.179 580.588 246.957 576.942 248.122C574.394 248.13 572.326 248.134 570.022 246.953C566.939 245.373 564.577 242.266 563.75 238.902C562.874 235.341 563.518 231.597 565.599 228.575C567.915 225.211 570.486 224.285 574.354 223.642Z"/>
	<path fill="#002F62" transform="scale(0.5 0.5)" d="M337.136 763.152L342.515 763.2L380.737 763.044C386.442 763.035 393.677 762.228 399.201 763.44C402.433 764.149 405.568 765.99 407.892 768.328C410.205 770.656 412.124 773.667 412.768 776.915C413.399 780.095 413.054 783.809 413.059 787.056L413.057 806.423L413.106 881.611L441.009 881.473C443.698 881.468 449.179 880.769 451.25 882.288C452.954 887.484 451.831 897.146 449.461 901.948C445.931 909.1 441.217 913.967 433.5 916.474C431.972 916.971 430.487 917.327 428.881 917.422C420.398 917.924 411.601 917.492 403.089 917.502L350.046 917.523L294.137 917.508C284.831 917.499 275.275 917.934 265.993 917.424C262.638 917.24 259.096 915.97 256.123 914.456C248.906 910.781 245.743 904.132 243.499 896.75C242.346 892.958 240.133 886.018 241.75 882.221C244.313 880.576 274.107 881.537 279.497 881.561L279.422 779.247L280.015 776.25C281.57 771.021 285.032 767.39 289.613 764.716L291.25 764.205C297.234 762.342 304.241 763.045 310.454 763.038L337.136 763.152Z"/>
	<path fill="#64B8C3" transform="scale(0.5 0.5)" d="M260.135 902.24L442.478 902.371C439.765 906.248 437.691 908.183 433.426 910.285L432.844 910.478L431.862 910.75C427.313 912.032 421.951 911.52 417.25 911.519L394.879 911.514L313.635 911.484L280.578 911.503C275.677 911.501 270 912.034 265.184 911.315C258.989 910.39 255.444 907.298 251.894 902.416L260.135 902.24Z"/>
	<path fill="#23B0C7" transform="scale(0.5 0.5)" d="M246.96 887.388L445.668 887.458C446.471 889.428 445.848 893.934 445.792 896.195C438.645 896.946 430.964 896.442 423.754 896.449L381.911 896.457L249.501 896.535C248.386 893.508 247.63 890.541 246.96 887.388Z"/>
	<path fill="white" transform="scale(0.5 0.5)" d="M295.115 769.053L295.841 769.016L360.346 768.911L383.549 768.912C387.509 768.911 391.897 768.537 395.815 769.025C398.544 769.366 401.423 770.85 403.342 772.788C405.046 774.507 406.457 776.808 406.751 779.247C407.201 782.982 406.929 787.046 406.929 790.81L406.948 811.914L406.997 881.572L397.75 881.569L285.431 881.584L285.39 820.212L285.325 792.905C285.317 788.183 284.533 781.802 286.176 777.4C287.776 773.114 291.138 770.861 295.115 769.053Z"/>
	<path fill="#002F62" transform="scale(0.5 0.5)" d="M348.916 836.25C352.696 835.661 357.229 836.107 361.092 836.104L388.434 836.092L388.416 841.997L359.314 842.014C356.663 842.015 350.696 842.703 348.592 841.5C348.488 839.648 348.308 838.027 348.916 836.25Z"/>
	<path fill="#002F62" transform="scale(0.5 0.5)" d="M299.294 835.974L336.956 836.069L336.994 842.165L299.297 842.315L299.294 835.974Z"/>
	<path fill="#002F62" transform="scale(0.5 0.5)" d="M300.515 853.75L336.43 853.699L336.428 859.25L335.25 860.021L299.066 860.129L299.118 854.25L300.515 853.75Z"/>
	<path fill="#002F62" transform="scale(0.5 0.5)" d="M348.731 799.675L388.412 799.941L388.462 805.772L348.768 805.837L348.731 799.675Z"/>
	<path fill="#64B8C3" transform="scale(0.5 0.5)" d="M299.128 794.179L335.656 794.243L335.615 816.971L299.176 816.995L299.128 794.179Z"/>
	<path fill="#002F62" transform="scale(0.5 0.5)" d="M731.824 696.008L736.54 696.042C725.64 711.62 717.472 727.103 714.211 746.003L779.425 745.987C790.14 745.989 801.908 745.026 812.5 746.395L813.191 746.479C822.165 747.658 830.73 753.541 836.028 760.731C839.291 765.158 841.179 769.934 842.192 775.299C843.26 780.955 842.572 787.903 842.576 793.692L842.563 832.614C842.352 836.728 842.33 840.941 841.318 844.951C839.552 851.947 834.535 857.822 829.25 862.495C825.218 866.06 819.791 868.708 814.477 869.558C808.007 870.593 800.811 870.048 794.249 870.044L760.158 870.062L704.895 870.067C695.054 870.059 684.868 870.542 675.078 869.784C662.648 868.822 653.667 862 645.721 852.926C643.346 848.577 641.28 844.353 640.417 839.41C639.626 834.875 639.778 830.332 639.781 825.75L639.77 807.038C639.771 797.708 638.803 787.085 640.295 777.928L640.413 777.25C641.779 769.127 645.295 762.381 651.12 756.583C661.701 746.048 672.745 746.016 686.745 746.002L708.796 746.024C711.125 735.103 714.291 724.675 719.296 714.66C721.884 709.483 724.853 704.568 728.014 699.726C728.401 699.133 729.551 696.914 730.078 696.589C730.6 696.267 731.242 696.202 731.824 696.008Z"/>
	<path fill="white" transform="scale(0.5 0.5)" d="M673.27 752.107C680.366 751.537 687.802 751.922 694.93 751.92L736.353 751.931L783.54 751.91L801.772 751.868C805.878 751.866 810.167 751.649 814.163 752.725L815 752.966C818.052 753.828 821.058 755.223 823.656 757.056C830.147 761.633 834.906 768.388 836.204 776.311C836.736 779.56 836.446 783.196 836.452 786.494L836.454 803.448L836.398 826.416C836.38 830.87 836.709 835.637 835.909 840.027C835.143 844.236 833.354 848.46 830.791 851.871C825.547 858.85 818.735 862.769 810.142 863.922L719.019 864.011L690.766 864.022C685.628 864.02 680.179 864.368 675.083 863.696C666.183 862.522 657.59 858.194 652.122 850.944C649.051 846.872 646.989 842.21 646.07 837.189C645.427 833.677 645.655 829.831 645.638 826.271L645.663 808.428L645.783 789.949C645.821 786.256 645.661 782.328 646.235 778.679L646.351 778C647.068 773.666 648.635 769.128 651.169 765.491C656.342 758.067 664.537 753.673 673.27 752.107Z"/>
	<path fill="#002F62" transform="scale(0.5 0.5)" d="M714.597 834.25C715.067 834.046 715.197 833.961 715.772 833.873C718.713 833.419 722.499 833.834 725.533 833.836L748.638 833.877C750.876 833.882 755.401 833.322 757.143 834.5L757.168 838.25L755.991 838.977L723.477 838.997C721.617 838.998 716.826 839.577 715.25 839.002C714.91 838.877 714.728 838.501 714.467 838.25L714.597 834.25Z"/>
	<path fill="#002F62" transform="scale(0.5 0.5)" d="M714.361 793.75L714.793 793.666C718.032 793.196 721.858 793.56 725.155 793.556L747.305 793.554C749.507 793.556 755.595 792.942 757.25 794.101C757.362 795.8 757.445 797.117 756.918 798.75C751.879 799.063 716.291 799.77 714.135 798.451C714 796.751 713.986 795.418 714.361 793.75Z"/>
	<path fill="#002F62" transform="scale(0.5 0.5)" d="M714.936 818.25C718.605 817.815 755.252 817.647 757.037 818.75C757.057 820.604 757.438 822.033 756.25 823.535L725.856 823.695C723.101 823.717 716.791 824.507 714.551 823.25C714.447 821.442 714.308 819.971 714.936 818.25Z"/>
	<path fill="#002F62" transform="scale(0.5 0.5)" d="M738.235 777.756C744.443 777.718 783.014 776.638 785.429 778L785.405 782.25C785.104 782.492 784.874 782.876 784.5 782.975C782.94 783.386 779.964 782.992 778.281 782.999L759.839 783.071L725.837 783.245C723.117 783.256 716.249 784.034 714.07 782.75L714.021 778.5C715.31 777.247 719.561 777.784 721.467 777.781L738.235 777.756Z"/>
	<path fill="#002F62" transform="scale(0.5 0.5)" d="M683 771.623C685.782 771.692 688.629 772.48 691.036 773.878C694.441 775.854 697.105 779.462 697.99 783.296C699.011 787.714 697.943 792.542 695.315 796.25C692.402 800.359 689.1 801.673 684.407 802.645C681.149 802.214 678.041 801.754 675.173 800.003C671.922 798.017 669.354 794.646 668.552 790.896C667.57 786.307 668.189 782.177 670.891 778.285C673.887 773.972 678.048 772.475 683 771.623Z"/>
	<path fill="#EF748E" transform="scale(0.5 0.5)" d="M680.523 776.558C682.391 776.474 684.34 776.306 686.167 776.792C689.085 777.569 691.188 779.156 692.577 781.876C693.785 784.243 694.07 787.963 693.191 790.47C691.857 794.274 689.529 795.951 686.009 797.503C684.354 797.565 682.51 797.716 680.89 797.323C677.991 796.62 675.085 794.356 673.776 791.669C672.678 789.412 672.728 786.083 673.545 783.75C674.814 780.122 677.227 778.266 680.523 776.558Z"/>
	<path fill="#002F62" transform="scale(0.5 0.5)" d="M683.078 813.143C686.404 812.964 689.741 813.655 692.5 815.556C696.181 818.092 698.646 822.373 699.346 826.75C700.029 831.015 699.061 835.809 696.375 839.25C693.143 843.39 689.237 845.092 684.129 845.843C680.623 845.597 677.873 845.175 674.844 843.25C671.11 840.877 668.396 836.545 667.61 832.213C666.823 827.869 667.775 823.763 670.327 820.17C673.603 815.561 677.692 813.976 683.078 813.143Z"/>
	<path fill="#06DCE2" transform="scale(0.5 0.5)" d="M681.713 817.56C684.112 817.451 686.264 817.464 688.507 818.437C691.375 819.682 693.489 822.744 694.453 825.635C695.48 828.718 695.228 832.299 693.698 835.172C691.78 838.771 689.143 840.107 685.399 841.355C683.208 841.493 680.834 841.25 678.836 840.295C676 838.939 673.603 836.318 672.557 833.354C671.497 830.352 671.76 826.714 673.235 823.886C675.107 820.297 678.055 818.836 681.713 817.56Z"/>
	<path fill="#002F62" transform="scale(0.5 0.5)" d="M792.055 800.616C798.224 800.02 803.259 800.439 808.769 803.554C814.309 806.687 819.108 812.716 820.631 818.899C822.184 825.202 821.344 832.398 817.967 838C813.956 844.655 808.076 847.925 800.76 849.805C794.871 850.498 789.782 850.194 784.443 847.324C778.689 844.231 774.19 839.185 772.439 832.807C770.674 826.384 770.978 818.393 774.533 812.616C778.915 805.496 784.155 802.641 792.055 800.616Z"/>
	<path fill="#06DCE2" transform="scale(0.5 0.5)" d="M792.443 806.568C796.455 806.249 800.326 806.23 804.076 807.879C808.689 809.908 812.311 813.701 814.115 818.402C815.966 823.227 815.549 829.043 813.324 833.663C810.759 838.99 806.246 842.271 800.738 844.046C795.91 845.148 791.078 844.272 786.801 841.836C782.358 839.306 779.346 834.733 777.99 829.881C776.717 825.331 777.26 819.837 779.616 815.746C782.572 810.616 786.877 808.013 792.443 806.568Z"/>
	<path fill="#002F62" transform="scale(0.5 0.5)" d="M663.185 137.147L696.041 137.201C702.476 137.194 711.708 136.02 717.499 138.75L718.252 139.097C722.84 141.307 726.48 145.71 728.036 150.544C729.267 154.368 728.938 158.519 728.929 162.478L728.873 180.697L728.827 240.596L728.898 287.992C728.348 299.328 731.131 311.053 721.81 319.646C718.973 322.261 715.536 324.156 711.75 324.98C705.984 326.235 698.769 325.472 692.835 325.472L664.407 325.411L660.652 325.336C649.206 324.664 637.422 325.247 625.94 325.242C621.139 325.239 615.112 325.81 610.5 324.507C604.146 322.713 600.417 318.137 597.367 312.598L597.251 312.205L597.084 311.544C596.217 308.255 596.399 304.846 596.383 301.467L596.39 287.547L596.475 244.951L596.461 183.647L596.456 152.966C596.505 151.392 596.612 150.118 597.246 148.657L597.558 148C598.492 145.975 599.563 144.24 601.139 142.637C603.333 140.406 606.545 138.479 609.588 137.72C614.827 136.414 622.077 137.229 627.549 137.213L663.185 137.147Z"/>
	<path fill="white" transform="scale(0.5 0.5)" d="M621.964 143.249L684.651 143.236L702.57 143.279C705.722 143.288 709.133 143.059 712.25 143.513C714.248 143.805 716.209 144.807 717.75 146.105C720.693 148.585 722.393 152.764 722.634 156.521C723.177 164.97 722.572 173.78 722.565 182.265L722.555 236.019L722.432 280.283C722.42 288.529 723.014 297.318 722.056 305.5C721.671 308.786 720.452 311.69 718.22 314.157C714.184 318.619 709.773 319.142 704.092 319.439L642.324 319.426L624.933 319.376C621.515 319.362 617.871 319.561 614.5 318.965C611.994 318.522 609.853 317.487 607.852 315.925C604.96 313.666 603.28 310.391 602.975 306.749C602.215 297.686 602.865 287.994 602.864 278.871L602.868 222.966L602.709 176.853C602.663 169.295 602.011 161.175 602.661 153.662C602.881 151.12 603.766 148.622 605.563 146.75C609.846 142.288 616.322 143.301 621.964 143.249Z"/>
	<path fill="#002F62" transform="scale(0.5 0.5)" d="M643.883 160.75C644.773 160.474 645.519 160.259 646.471 160.396C647.853 160.595 648.977 161.493 649.703 162.662C650.373 163.74 650.658 165.03 650.343 166.271C649.826 168.305 648.933 168.939 647.25 169.971L645.75 170.416C643.982 170.114 642.949 169.622 641.822 168.169C640.932 167.024 640.825 165.74 641.06 164.345C641.378 162.452 642.417 161.741 643.883 160.75Z"/>
	<path fill="#002F62" transform="scale(0.5 0.5)" d="M627.647 160.25C629.58 160.634 630.326 160.814 631.579 162.5C632.691 163.997 632.592 165.508 632.31 167.25C631.299 168.949 630.572 169.607 628.75 170.379L626.75 170.403C624.942 169.366 624.616 169.034 623.536 167.25C623.399 165.49 623.282 164.165 623.88 162.485C625.187 161.093 625.802 160.739 627.647 160.25Z"/>
	<path fill="#002F62" transform="scale(0.5 0.5)" d="M660.755 160.75C661.335 160.624 662.138 160.393 662.75 160.418C664.121 160.474 665.271 160.987 666.25 161.945C667.768 163.43 667.484 164.815 667.491 166.75C666.767 168.321 666.161 168.943 664.75 169.929L664.144 170.071C662.547 170.319 660.837 169.997 659.62 168.885C658.071 167.47 658.106 166.183 658.014 164.25C658.724 162.539 659.264 161.841 660.755 160.75Z"/>
	<path fill="#002F62" transform="scale(0.5 0.5)" d="M679.114 160.75C680.34 160.484 681.345 160.362 682.55 160.852C683.711 161.324 684.681 162.255 685.162 163.417C685.66 164.621 685.553 166.315 684.99 167.5C684.212 169.138 683.285 169.434 681.75 170.094C681.006 170.249 680.36 170.372 679.605 170.178C678.166 169.808 676.802 168.923 676.121 167.568C675.516 166.364 675.547 164.745 676.035 163.5C676.619 162.012 677.792 161.46 679.114 160.75Z"/>
	<path fill="#002F62" transform="scale(0.5 0.5)" d="M669.523 217.519L695.895 217.508L695.795 223.551L669.613 223.736L669.523 217.519Z"/>
	<path fill="#002F62" transform="scale(0.5 0.5)" d="M669.315 204.58L708.957 204.614L708.928 210.759C701.646 211.254 694.051 210.829 686.737 210.812C681.151 210.8 674.975 211.291 669.469 210.571L669.315 204.58Z"/>
	<path fill="#002F62" transform="scale(0.5 0.5)" d="M669.355 191.222L708.542 191.292L708.616 197.885L669.372 197.912L669.355 191.222Z"/>
	<path fill="#002F62" transform="scale(0.5 0.5)" d="M660.509 281.131C663.452 280.69 665.592 280.745 668.375 281.857C672.264 283.412 675.318 286.507 676.909 290.359C678.198 293.483 677.694 297.63 676.353 300.633C674.46 304.872 671.017 306.804 666.862 308.307C664.795 308.481 663.008 308.606 661 308.019C657.276 306.931 653.155 304.59 651.386 300.982C649.721 297.588 649.73 293.344 651.147 289.876C652.869 285.66 656.485 282.939 660.509 281.131Z"/>
	<path fill="#EF748E" transform="scale(0.5 0.5)" d="M660.901 286.75C662.275 286.335 664.181 286.268 665.58 286.591C667.798 287.103 670.126 289.148 671.184 291.109C672.26 293.102 672.467 295.789 671.704 297.926C670.694 300.755 668.779 302.013 666.142 303.169C664.62 303.374 663.253 303.393 661.75 303.003C659.617 302.449 657.665 301.051 656.629 299.079C655.37 296.686 655.27 294.398 656.137 291.856C657.008 289.301 658.52 287.903 660.901 286.75Z"/>
	<path fill="#002F62" transform="scale(0.5 0.5)" d="M619.95 190.113L657.516 190.264L657.403 223.641L619.909 223.878L619.95 190.113Z"/>
	<path fill="#06DCE2" transform="scale(0.5 0.5)" d="M626.001 195.968L651.883 195.84L651.817 218.102L626.019 218.069L626.001 195.968Z"/>
	<path fill="#002F62" transform="scale(0.5 0.5)" d="M669.659 237.151L707.12 236.994L707.083 271.39L669.531 270.991L669.659 237.151Z"/>
	<path fill="#06DCE2" transform="scale(0.5 0.5)" d="M675.455 242.93L701.369 242.863L701.27 265.213L675.467 265.27L675.455 242.93Z"/>
	<path fill="#002F62" transform="scale(0.5 0.5)" d="M619.947 237.011L657.566 237.011L657.533 271.086L619.961 271.398L619.947 237.011Z"/>
	<path fill="#06DCE2" transform="scale(0.5 0.5)" d="M625.9 243.006L651.757 242.946L651.789 265.486L625.922 265.479L625.9 243.006Z"/>
	<path fill="#002F62" transform="scale(0.5 0.5)" d="M761.312 612.872C759.642 612.092 757.865 610.692 756.967 609.05C756.373 607.965 756.203 606.612 756.142 605.396L756.061 586.439L755.992 547.75L755.783 457.534L755.932 439.692C755.966 436.499 755.607 432.788 756.575 429.75C757.786 428.394 758.813 427.067 760.75 426.926C768.757 426.346 777.132 426.815 785.189 426.792L835.931 426.733L884.5 426.779C892.079 426.782 899.983 426.249 907.528 426.729C909.28 426.84 910.764 427.124 912.085 428.388C912.901 429.169 913.399 430.117 913.481 431.25C913.937 437.577 913.531 444.245 913.532 450.601L913.461 489.25L913.398 605.905C912.527 608.986 911.044 611.073 908.248 612.715C906.538 613.719 812.147 612.984 801.395 613.062L796.583 613.097L761.312 612.872Z"/>
	<path fill="#64B8C3" transform="scale(0.5 0.5)" d="M853.708 433.423L906.086 433.084L906.219 457.496L851.559 457.079L847.25 456.76L847.138 456C847.425 455.724 847.621 455.295 848 455.172C849.264 454.76 852.325 455.138 853.745 455.125C860.376 455.069 867.737 455.641 874.267 454.601C877.204 454.193 880.715 454.561 883.705 454.554L903.324 454.508L903.461 435.6L874.772 435.42C872.38 434.801 869.694 434.994 867.228 434.96L854.933 434.843C853.251 434.826 850.44 435.208 849 434.29C850.22 433.403 852.189 433.547 853.708 433.423Z"/>
	<path fill="#002F62" transform="scale(0.5 0.5)" d="M874.772 435.42L903.461 435.6L903.324 454.508L883.705 454.554C880.715 454.561 877.204 454.193 874.267 454.601L848.01 454.551L847.99 435.487L874.772 435.42Z"/>
	<path fill="white" transform="scale(0.5 0.5)" d="M853.908 441.512L860.703 441.498L860.652 449.009L853.881 449.017L853.908 441.512Z"/>
	<path fill="white" transform="scale(0.5 0.5)" d="M885.656 441.218L896.327 441.303L896.351 449.036L885.586 449.03L885.656 441.218Z"/>
	<path fill="white" transform="scale(0.5 0.5)" d="M868.002 441.248L878.813 441.25L878.776 449.033L867.958 449.008L868.002 441.248Z"/>
	<path fill="#23B0C7" transform="scale(0.5 0.5)" d="M851.559 457.079L762.476 457.349L762.479 433.489L853.708 433.423C852.189 433.547 850.22 433.403 849 434.29C850.44 435.208 853.251 434.826 854.933 434.843L867.228 434.96C869.694 434.994 872.38 434.801 874.772 435.42L847.99 435.487L848.01 454.551L874.267 454.601C867.737 455.641 860.376 455.069 853.745 455.125C852.325 455.138 849.264 454.76 848 455.172C847.621 455.295 847.425 455.724 847.138 456L847.25 456.76L851.559 457.079Z"/>
	<path fill="#23B0C7" transform="scale(0.5 0.5)" d="M764.046 463.75L906.911 463.307L906.892 477.75L905.75 478.265L762.545 478.064L762.609 464.25L764.046 463.75Z"/>
	<path fill="white" transform="scale(0.5 0.5)" d="M762.466 484.531L906.757 484.492L906.96 564.808L906.953 589.617C906.943 594.992 907.119 600.403 906.52 605.75C906.248 605.984 906.041 606.328 905.704 606.453C904.24 606.996 899.37 606.436 897.614 606.427L866.82 606.246L762.513 606.381L762.466 484.531Z"/>
	<path fill="#002F62" transform="scale(0.5 0.5)" d="M779.588 574.479L787.625 574.508L787.631 581.915L779.615 581.96L779.588 574.479Z"/>
	<path fill="#002F62" transform="scale(0.5 0.5)" d="M780.893 550.75L787.709 550.581L787.847 557.25L786.75 557.924L779.491 557.954L779.599 551.25L780.893 550.75Z"/>
	<path fill="#002F62" transform="scale(0.5 0.5)" d="M781.212 502.748L787.679 502.644C787.704 504.83 788.086 507.69 787.363 509.75L785.625 509.908L779.092 509.944C779.073 508.015 778.594 504.677 779.5 502.999L781.212 502.748Z"/>
	<path fill="#002F62" transform="scale(0.5 0.5)" d="M781.047 526.75L787.995 526.635C788.018 528.972 788.204 531.406 787.75 533.706L786.25 533.947L779.266 533.953C779.233 531.765 778.888 529.159 779.497 527.066L781.047 526.75Z"/>
	<path fill="#06DCE2" transform="scale(0.5 0.5)" d="M803.169 503.207L891.515 503.409L891.481 509.02L826.213 509.096L810.152 509.144C808.056 509.153 805.126 509.588 803.224 508.849L803.169 503.207Z"/>
	<path fill="#06DCE2" transform="scale(0.5 0.5)" d="M803.018 527.512C813.448 527.664 889.288 526.555 891.875 528.016C891.994 529.851 892.181 531.474 891.627 533.25C888.67 533.686 885.19 533.347 882.183 533.345L865.103 533.35L803.015 533.502L803.018 527.512Z"/>
	<path fill="#06DCE2" transform="scale(0.5 0.5)" d="M803.043 551.458C813.264 551.609 888.71 550.619 891.098 552C891.305 553.814 891.13 555.442 890.918 557.25C888.13 557.802 884.793 557.478 881.938 557.485L865.625 557.523L803.065 557.633L803.043 551.458Z"/>
	<path fill="#06DCE2" transform="scale(0.5 0.5)" d="M803.009 575.397L891.329 575.474L891.301 581.791L803.035 581.975L803.009 575.397Z"/>
	<path fill="#002F62" transform="scale(0.5 0.5)" d="M278.118 478.557L279.76 478.573L279.889 479.357C279.277 485.532 279.56 491.913 279.546 498.123L279.496 530.298L279.469 632.897L279.478 663.248C279.473 666.701 280.032 671.33 279.347 674.674C279.048 676.133 277.536 677.73 276.421 678.669L275.998 678.986L225.504 679.002L220.075 679.029L115.936 679.09C115.36 678.748 114.755 678.414 114.25 677.965C113.101 676.942 112.624 675.498 112.537 674C111.968 664.157 112.483 653.92 112.477 644.033L112.483 582.679L112.516 517.656L112.588 484C112.688 482.019 113.435 480.993 114.75 479.568C118.361 477.61 132.11 478.781 136.642 478.792L174.964 478.708L248.829 478.696L268.704 478.75C271.702 478.756 275.225 479.158 278.118 478.557Z"/>
	<path fill="#EF748E" transform="scale(0.5 0.5)" d="M118.696 484.994L273.084 484.938L273.057 504.056L118.688 504.391L118.696 484.994Z"/>
	<path fill="#002F62" transform="scale(0.5 0.5)" d="M256.235 489.75C257 489.568 257.571 489.482 258.365 489.643C259.552 489.885 260.638 490.556 261.283 491.601C262.156 493.014 262.203 495.01 261.509 496.5C260.917 497.77 259.928 498.235 258.75 498.8C258.176 498.899 257.869 498.978 257.25 498.952C255.729 498.886 254.378 497.973 253.515 496.75C252.642 495.514 252.593 494.143 253.093 492.75C253.665 491.157 254.805 490.473 256.235 489.75Z"/>
	<path fill="#002F62" transform="scale(0.5 0.5)" d="M239.908 489.25L241.75 488.961C242.974 488.942 244.221 489.852 244.985 490.75C246.243 492.228 246.03 493.94 245.889 495.75C245.004 497.374 244.508 497.845 242.895 498.75C242.423 498.859 241.99 498.985 241.494 498.97C240.28 498.933 239.095 498.339 238.25 497.489C237.122 496.356 236.76 494.805 236.986 493.25C237.26 491.372 238.399 490.237 239.908 489.25Z"/>
	<path fill="white" transform="scale(0.5 0.5)" d="M240.263 510.224L273.461 510.009L273.334 673.019L152.75 673.029L118.664 673.003L118.479 510.5L240.263 510.224Z"/>
	<path fill="#002F62" transform="scale(0.5 0.5)" d="M229.504 514.75L231.25 514.471C232.711 515.87 234.294 517.363 235.368 519.091C236.134 520.324 236.383 521.317 236.067 522.75C235.228 523.908 235.038 524.123 233.75 524.722L232.062 523.77C229.531 524.863 227.193 526.878 224.953 528.488L212.518 537.513L145.453 586.75C144.259 586.43 143.228 584.363 142.494 583.303L137.349 575.7L141.499 572.574L147.03 578.282C149.296 577.446 151.997 574.744 153.963 573.215L168.435 562.295L209.145 533.216L221.655 524.365C223.819 522.838 226.367 521.449 228.25 519.595L227.341 517.5C227.613 515.821 228.19 515.755 229.504 514.75Z"/>
	<path fill="#002F62" transform="scale(0.5 0.5)" d="M134.948 608.905L160.777 609.041L160.864 653.801L134.901 653.92L134.948 608.905Z"/>
	<path fill="#EF748E" transform="scale(0.5 0.5)" d="M140.782 614.923L155.394 614.962L155.193 647.882L140.865 647.817L140.782 614.923Z"/>
	<path fill="#002F62" transform="scale(0.5 0.5)" d="M167.779 586.194L193.948 586.455L193.923 653.493L167.574 653.482C168.458 646.077 167.927 638.097 167.933 630.61L167.779 586.194Z"/>
	<path fill="#EF748E" transform="scale(0.5 0.5)" d="M173.506 592.478L188.422 592.522L188.281 647.909L173.54 647.955L173.506 592.478Z"/>
	<path fill="#002F62" transform="scale(0.5 0.5)" d="M201.02 558.414L226.518 558.368L226.539 653.794L201.08 653.819C199.988 651.504 200.866 633.753 200.879 630.119L201.02 558.414Z"/>
	<path fill="#EF748E" transform="scale(0.5 0.5)" d="M206.518 564.028L220.97 564.015L221.008 647.916L206.502 647.893L206.518 564.028Z"/>
	<path fill="#002F62" transform="scale(0.5 0.5)" d="M240.548 539.25L259.937 539.207L259.719 653.759L254.125 653.881L233.49 653.91L234.102 539.311L240.548 539.25Z"/>
	<path fill="#EF748E" transform="scale(0.5 0.5)" d="M239.351 545.002L254.153 545.1L254.218 648.086L239.099 648.072L239.351 545.002Z"/>
	<path fill="#64B8C3" transform="scale(0.5 0.5)" d="M189.525 361.857C185.179 355.6 181.143 349.646 177.795 342.765C163.187 312.741 160.589 277.75 171.548 246.063C182.699 213.824 207.083 188.831 237.623 174.237C268.415 159.521 306.605 158.723 338.562 170.215C375.287 183.422 403.42 209.934 420.015 245.136L399.973 266.52L430.013 266.442C435.111 266.438 441.656 265.681 446.552 266.961L371.718 266.921L371.604 266.049C370.763 259.797 368.295 253.987 363.041 250.15C358.525 246.851 352.365 245.935 346.95 246.901C341.455 247.882 336.654 251.191 333.608 255.843C330.657 260.349 329.67 266.832 330.949 272.062C332.24 277.339 335.934 282.488 340.616 285.283C345.212 288.027 351.414 288.991 356.628 287.564C362.088 286.069 366.278 282.204 368.941 277.3C370.092 275.181 370.735 272.817 371.424 270.517L422.534 270.497L437.404 270.521C440.274 270.532 443.269 270.322 446.072 270.98L397.504 270.817C389.798 280.639 384.624 290.913 381.617 303.026C385.418 303.026 389.866 302.574 393.552 303.465C410.821 304.877 427.082 312.935 438.358 326.142C445.876 334.947 452.941 347.256 453.684 359.009L365.544 358.978L340.252 358.976C335.671 358.982 330.76 358.647 326.237 359.409C321.762 360.163 317.327 362.84 314.14 366.008C307.156 372.95 307.515 381.034 307.497 390.086L307.491 406.287L307.521 467.494L307.581 495.021L280.032 495.06L279.937 479.971L279.889 479.357L279.76 478.573L278.118 478.557C275.225 479.158 271.702 478.756 268.704 478.75L248.829 478.696L174.964 478.708C175.354 475.416 176.441 472.338 177.281 469.143C186.671 440.272 198.39 412.287 217.174 388.13C206.971 380.271 197.714 371.819 189.525 361.857Z"/>
	<path fill="white" transform="scale(0.5 0.5)" d="M224.079 432.25C225.231 432.283 225.401 432.379 226.382 433L226.539 437.25C227.884 438.71 229.89 437.515 231.805 438.25L232.005 440C230.74 441.245 228.645 440.949 226.9 441.368L226.75 442.037C227.783 442.622 228.513 443.135 229.33 444L228.75 444.958L227 444.57L226.39 445L225.834 448.25L224.75 448.609L223.598 447.947L223.102 445.75L222.75 444.197C221.598 445.035 220.709 445.786 219.25 445.984L218.13 444.925L218.25 443.572L221.732 441.25C219.693 440.983 217.838 440.892 216.066 439.75L216.323 438.819C217.17 438.595 217.864 438.372 218.675 438.019L218.472 437L219 436.525L222.25 437.846C223.827 437.121 222.708 434.944 223.178 433.5C223.337 433.012 223.778 432.667 224.079 432.25Z"/>
	<path fill="white" transform="scale(0.5 0.5)" d="M236.683 337.75L238.75 337.477C240.379 339.293 239.254 341.455 240.211 342.794C240.522 343.229 243.879 342.803 244.5 343.093C244.892 343.275 245.118 343.698 245.427 344L245.3 345.3L240.93 346.25L241 346.907C242.297 347.21 243.537 347.474 244.75 348.045L244.979 349C244.556 350.201 244.577 350.226 243.5 350.893L240.75 350.071C239.162 351.579 240.614 354.47 239.25 356.467L237.5 356.59C235.155 355.118 237.685 351.481 235.75 349.555C234.109 350.525 233.179 351.033 231.25 350.983L230.346 349.75C231.134 347.397 233.508 348.176 234.285 346.25C232.663 345.824 231.505 345.739 230.591 344.25L230.936 343.25C232.852 342.566 234.361 343.862 236.302 343.314L236.683 337.75Z"/>
	<path fill="white" transform="scale(0.5 0.5)" d="M205.471 269.25L207.25 269.008C208.571 270.383 207.965 274.04 207.966 276L208.75 276.51L211.75 275.626C213.112 275.561 213.482 276.157 214.357 277.027L214.25 278.099C212.54 279.137 209.384 279.08 207.38 279.31L211.75 281.621C211.969 282.806 211.862 282.577 211.25 283.504C209.489 284.082 209.375 282.589 207.614 282.25L207.258 288.266C207.09 289.451 207.182 289.413 206.25 290.123L205.37 289.5L205.127 287.124C205.083 285.859 205.322 282.855 204.5 282.04L203.146 283.648C201.741 284.072 201.157 283.798 199.75 283.47L199.364 282.5C200.38 280.68 201.646 280.651 203.25 279.457C202.183 278.463 197.968 279.087 196.256 278.75L196.009 277.25C197.283 275.783 200.14 276.501 202.141 276.25C201.631 275.126 201.289 274.231 201.074 273L201.705 272.211C203.528 272.713 203.706 273.84 204.648 275.425L205.165 275.25C205.109 273.208 204.993 271.257 205.471 269.25Z"/>
	<path fill="white" transform="scale(0.5 0.5)" d="M277.984 303.441L277.734 238.38L277.055 238.104C272.85 236.351 269.813 233.856 268.094 229.5C266.834 226.309 267.054 222.109 268.491 219.014C270.255 215.216 273.392 212.227 277.423 210.999C280.742 209.988 284.331 210.467 287.297 212.241C290.687 214.267 292.954 217.504 294.029 221.25L294.206 221.852C295.129 225.283 294.441 229.068 292.552 232.032C291.152 234.229 288.78 236.413 286.364 237.426C285.937 237.605 283.089 238.555 283.023 238.698C282.926 238.905 283.022 240.783 283.022 241.146L283.02 250.105L283.008 303.177L282.993 406.008L283.004 467.556C283.01 469.927 283.722 477.355 282.5 478.937L279.76 478.573L278.118 478.557L277.952 478.158L277.984 303.441Z"/>
	<path fill="#64B8C3" transform="scale(0.5 0.5)" d="M278.426 217.75C279.77 217.337 280.9 217.193 282.309 217.389C284.178 217.647 285.57 218.644 286.633 220.178C287.889 221.99 288.299 224.545 287.728 226.675C287.057 229.18 285.587 230.582 283.361 231.75C282.086 232.024 280.458 232.124 279.167 231.945C277.529 231.717 276.065 230.526 275.113 229.224C273.784 227.407 273.605 225.119 274.06 222.959C274.565 220.561 276.429 218.947 278.426 217.75Z"/>
	<path fill="#002F62" transform="scale(0.5 0.5)" d="M453.684 359.009L660.741 359.182L664.397 359.119L691.634 358.975C695.85 358.967 700.929 358.465 705.04 359.324C709.609 360.28 713.91 362.759 717.226 366.033C720.259 369.027 722.256 372.465 723.599 376.5L723.851 377.211C725.438 382.041 724.526 389.178 724.535 394.304L724.582 426.641L724.655 551.074L724.837 596.596C724.895 604.831 725.355 613.259 724.87 621.465C724.566 626.61 722.928 631.641 720.49 636.163C716.243 644.039 709.314 649.091 700.783 651.639C693.769 653.735 685.214 652.966 677.942 652.982L647.547 653.008L555.791 652.935L570.61 735.652L583.499 735.526C586.53 735.513 589.376 735.309 592.302 736.25L593.157 736.518C599.26 738.508 603.698 743.11 606.525 748.757C609.062 753.824 609.13 758.939 609.976 764.356C606.044 765.204 601.815 764.936 597.805 764.952L579.554 764.93L579.022 764.923L573.898 764.89L573.442 764.988L434.576 764.978L426.855 764.893C426.989 758.66 427.499 751.43 430.555 745.846C435.95 735.99 445.077 735.538 455.022 735.553C457.162 735.556 459.907 735.912 461.968 735.356L476.477 652.993L375.197 652.986L346.166 652.983C340.538 652.974 334.551 653.395 329 652.472C323.711 651.592 318.938 649.169 315.135 645.364C311.216 641.441 308.684 635.99 307.726 630.577C307.029 626.642 307.47 621.938 307.465 617.916L307.466 591.483L307.581 495.021L307.521 467.494L307.491 406.287L307.497 390.086C307.515 381.034 307.156 372.95 314.14 366.008C317.327 362.84 321.762 360.163 326.237 359.409C330.76 358.647 335.671 358.982 340.252 358.976L365.544 358.978L453.684 359.009Z"/>
	<path fill="white" transform="scale(0.5 0.5)" d="M476.871 741.748L550.066 741.681L575.329 741.612C579.548 741.603 583.949 741.344 588.144 741.646C590.482 741.814 592.852 742.428 594.805 743.753C600.085 747.333 601.467 752.751 602.469 758.641L560.75 758.6L434.545 758.74L434.487 758.155C434.302 754.137 435.339 748.947 438.189 745.966C439.948 744.126 442.28 742.863 444.744 742.25C448.127 741.409 452.253 741.807 455.722 741.792L476.871 741.748Z"/>
	<path fill="#23B0C7" transform="scale(0.5 0.5)" d="M340.708 575.991L691.957 576.147L691.783 588.807L340.779 588.689L340.708 575.991Z"/>
	<path fill="white" transform="scale(0.5 0.5)" d="M482.729 652.976L549.43 652.974L564.229 735.655L549.746 735.601L468.51 735.517L482.729 652.976Z"/>
	<path fill="white" transform="scale(0.5 0.5)" d="M677.36 365.26L698.027 365.134C704.078 365.143 708.516 366.076 712.872 370.622C715.739 373.615 717.481 377.239 718.042 381.34C718.875 387.426 718.216 394.194 718.268 400.382L718.485 443.993L718.291 588.753L697.93 588.791L697.597 432.333L697.54 398.696C697.533 395.134 698.309 389.248 697.238 385.939L356.25 385.567L334.3 385.384L334.055 588.57L314.185 588.564C313.83 587.537 313.911 588.015 313.882 586.862L313.822 543.126L313.941 449.727L314.034 403.446C314.045 395.638 313.391 387.202 314.386 379.5C314.851 375.9 316.641 372.529 319.231 369.997C321.768 367.516 325.22 365.786 328.768 365.489C332.639 365.165 336.736 365.421 340.622 365.423L363.853 365.443L436.152 365.493L677.36 365.26Z"/>
	<path fill="#008498" transform="scale(0.5 0.5)" d="M644.033 448.219C644.159 448.242 645.09 447.556 645.291 447.42L675.676 425.577C680.536 422.143 685.904 417.75 691.479 415.632L691.517 570.094L449.836 569.555C452.82 566.739 459.441 565.587 463.501 564.072C474.9 559.818 485.692 555.236 496.495 549.628C500.427 547.587 504.772 546.351 507.171 542.401L496.513 542.106L496.487 534.904L520.859 534.545C523.021 532.08 526.209 530.296 528.876 528.379C535.623 523.527 542.801 518.886 548.981 513.328C553.297 513.364 558.594 514 562.75 512.901C563.954 511.119 563.869 510.811 563.885 508.75C563.03 507.084 562.243 506.67 560.582 505.868C562.12 502.74 568.977 499.353 572.019 497.31C577.995 493.295 584.243 489.138 589.742 484.483C593.096 483.427 597.253 479.421 600.156 477.26L632.479 455.985C636.003 454.856 640.921 450.433 644.033 448.219Z"/>
	<path fill="white" transform="scale(0.5 0.5)" d="M657.801 533.742L659.75 533.596L660.451 534.25L660.426 542.518L606.039 542.498C605.682 542.378 605.313 542.276 605 542.054C603.849 541.241 603.235 540.153 603.105 538.75C602.946 537.033 603.901 535.915 604.993 534.75C607.008 533.908 608.87 534.096 611.019 534.079L622.892 534.022L657.801 533.742Z"/>
	<path fill="white" transform="scale(0.5 0.5)" d="M520.859 534.545L564.072 534.473L576.573 534.449C578.435 534.452 580.703 534.214 582.5 534.53C583.191 534.652 583.585 534.966 584.146 535.356C584.942 536.477 585.157 537.139 585.33 538.5C584.824 540.278 584.479 540.975 583 542.107C579.969 542.693 576.74 542.45 573.661 542.457L559.029 542.479L507.171 542.401L496.513 542.106L496.487 534.904L520.859 534.545Z"/>
	<path fill="white" transform="scale(0.5 0.5)" d="M602.134 504.75L660.625 505.026L660.648 513.431L636.25 513.363L597.781 513.397C592.072 513.4 584.488 514.326 579 512.956C577.684 511.717 577.322 511.126 577.329 509.25C577.336 507.349 577.828 506.646 579.031 505.25C582.024 504.547 585.234 504.774 588.3 504.764L602.134 504.75Z"/>
	<path fill="white" transform="scale(0.5 0.5)" d="M313.775 595.079L718.431 594.903L718.437 613.923C718.428 618.183 718.727 622.646 717.605 626.796C716.302 631.615 713.932 635.402 710.72 639.129C705.855 643.205 699.722 646.387 693.25 646.513L612.163 646.564L452.614 646.582L369.07 646.537L344.369 646.511C339.879 646.505 335.162 646.794 330.71 646.279C326.386 645.78 322.751 643.555 319.726 640.541C316.988 637.813 315.068 634.205 314.25 630.43C313.397 626.497 313.82 621.993 313.806 617.961L313.775 595.079Z"/>
	<path fill="#002F62" transform="scale(0.5 0.5)" d="M513.999 609.067C515.801 608.988 517.826 608.752 519.598 609.202C522.307 609.89 525.004 611.909 526.279 614.413C527.593 616.992 528.293 620.745 527.137 623.502C525.641 627.068 522.839 628.905 519.47 630.439C517.695 630.625 515.537 630.825 513.817 630.333C510.975 629.52 508.585 627.229 507.278 624.628C505.893 621.87 505.781 618.28 506.914 615.423C508.287 611.963 510.775 610.466 513.999 609.067Z"/>
	<path fill="#008498" transform="scale(0.5 0.5)" d="M515.591 613.75L516.115 613.715C518.085 613.788 519.737 614.52 520.881 616.193C521.888 617.666 522.042 619.958 521.654 621.659C521.219 623.565 520.354 624.452 518.75 625.468C517.808 625.541 516.628 625.702 515.719 625.403C514.636 625.048 513.491 623.941 512.926 622.974C511.871 621.169 511.741 619.05 512.383 617.083C512.963 615.306 513.994 614.567 515.591 613.75Z"/>
	<path fill="#23B0C7" transform="scale(0.5 0.5)" d="M449.836 569.555L340.936 569.556L340.902 392.001L691.321 391.952L691.479 415.632C685.904 417.75 680.536 422.143 675.676 425.577L645.291 447.42C645.09 447.556 644.159 448.242 644.033 448.219C640.921 450.433 636.003 454.856 632.479 455.985L600.156 477.26C597.253 479.421 593.096 483.427 589.742 484.483C584.243 489.138 577.995 493.295 572.019 497.31C568.977 499.353 562.12 502.74 560.582 505.868C562.243 506.67 563.03 507.084 563.885 508.75C563.869 510.811 563.954 511.119 562.75 512.901C558.594 514 553.297 513.364 548.981 513.328C542.801 518.886 535.623 523.527 528.876 528.379C526.209 530.296 523.021 532.08 520.859 534.545L496.487 534.904L496.513 542.106L507.171 542.401C504.772 546.351 500.427 547.587 496.495 549.628C485.692 555.236 474.9 559.818 463.501 564.072C459.441 565.587 452.82 566.739 449.836 569.555Z"/>
	<path fill="white" transform="scale(0.5 0.5)" d="M632.479 455.985L606.024 455.807C604.605 454.968 604.415 454.686 603.579 453.25C603.541 451.259 603.417 450.695 604.418 448.913C606.842 447.276 612.724 448.028 615.667 448.023C625.058 448.008 634.675 447.575 644.033 448.219C640.921 450.433 636.003 454.856 632.479 455.985Z"/>
	<path fill="white" transform="scale(0.5 0.5)" d="M548.981 513.328L496.415 513.228L496.495 505.988L560.582 505.868C562.243 506.67 563.03 507.084 563.885 508.75C563.869 510.811 563.954 511.119 562.75 512.901C558.594 514 553.297 513.364 548.981 513.328Z"/>
	<path fill="white" transform="scale(0.5 0.5)" d="M496.603 448.15L582.25 448.147C583.967 448.416 584.421 449.23 585.389 450.5C585.58 452.35 585.492 453.067 584.702 454.75C584.373 454.975 584.085 455.275 583.716 455.424C582.51 455.91 579.835 455.677 578.483 455.683L564.598 455.705L496.474 455.521L496.603 448.15Z"/>
	<path fill="white" transform="scale(0.5 0.5)" d="M589.742 484.483L496.5 484.488L496.51 477.406L600.156 477.26C597.253 479.421 593.096 483.427 589.742 484.483Z"/>
	<path fill="white" transform="scale(0.5 0.5)" d="M496.024 418.529L644.364 418.351L644.202 425.99L496.166 425.899L496.024 418.529Z"/>
	<path fill="white" transform="scale(0.5 0.5)" d="M414.756 433.109C417.406 432.931 420.105 432.937 422.643 433.831C424.684 434.551 426.6 435.727 428.258 437.11C434.534 442.346 440.188 449.091 445.916 454.961L457.739 466.774C461.074 470.06 464.597 473.113 466.62 477.44C468.533 481.529 468.449 487.889 466.693 492.018C464.832 496.391 460.392 499.933 457.063 503.254L442.215 518.099C436.909 523.414 431.652 529.578 425.832 534.278C424.205 535.592 422.441 536.406 420.527 537.199C416.991 537.595 414.082 537.39 410.887 535.704C405.542 532.884 400.823 526.672 396.555 522.387C388.489 514.29 379.731 506.371 372.643 497.385C370.494 494.66 368.412 491.575 367.401 488.227C366.166 484.137 367.462 480.757 369.415 477.188C375.324 466.387 386.806 456.974 395.531 448.272C399.791 444.023 404.121 438.892 409.064 435.5C410.791 434.315 412.771 433.705 414.756 433.109Z"/>
	<path fill="#002F62" transform="scale(0.5 0.5)" d="M405.115 464.25L405.841 464.031C408.568 464.537 412.402 467.751 414.883 469.25C423.249 474.304 431.619 479.021 439.64 484.639C437.007 487.474 431.207 489.926 427.717 491.96L405.509 504.813L405.115 464.25Z"/>
	<path fill="#008498" transform="scale(0.5 0.5)" d="M407.431 468.249C416.355 473.536 426.031 478.305 434.189 484.753L425.533 490.432L407.313 500.45L407.431 468.249Z"/>
</svg>
