<?xml version="1.0" encoding="utf-8" ?>
<svg xmlns="http://www.w3.org/2000/svg" xmlns:xlink="http://www.w3.org/1999/xlink" width="512" height="512">
	
	<path fill="white" transform="scale(0.5 0.5)" d="M119.604 742.75C121.454 743.146 121.496 743.385 122.688 744.75C122.39 747.985 118.552 750.415 116.215 752.414C118.189 754.459 121.784 757.542 122.558 760.25C121.965 761.616 121.558 762.01 120.286 762.777C117.386 762.584 114.397 759.036 112.311 757.144L106.656 762.75L105.276 762.945C104.027 761.763 103.427 761.452 103.012 759.75C104.409 757.029 106.868 754.909 108.989 752.736C107.163 751.033 104.334 749.05 103.154 746.869C102.591 745.828 102.874 745.731 103.163 744.655C104.259 743.691 104.739 743.17 106.25 743.007C108.792 744.294 110.652 746.542 112.62 748.562C114.776 746.368 116.745 744.004 119.604 742.75Z"/>
	<path fill="white" transform="scale(0.5 0.5)" d="M381.274 75.25C384.295 75.3639 387.152 79.0493 389.272 81.0926C391.459 78.4894 393.223 75.8833 396.75 75.3743C398.033 75.9855 398.28 76.5563 398.937 77.75C398.454 80.9849 395.318 82.83 392.936 84.7737C395.03 86.824 398.98 89.9807 399.076 93C398.132 94.2686 397.677 94.3447 396.25 94.9304C393.731 94.3503 390.939 90.8486 388.997 89.0073C386.943 91.1588 384.717 94.0679 382 95.2898C381.592 95.1407 381.28 95.0611 380.932 94.75C379.884 93.812 379.599 92.8613 379.51 91.5C380.694 89.0582 383.399 87.1301 385.387 85.3116C383.365 83.5175 379.438 80.722 378.962 78C379.501 76.484 380.044 76.2382 381.274 75.25Z"/>
	<path fill="white" transform="scale(0.5 0.5)" d="M553.701 132.25C557.564 133.818 560.728 137.724 563.657 140.639C566.02 138.264 570.674 132.435 574.118 132.294C575.379 133.018 575.793 133.456 576.455 134.75C575.803 137.741 570.191 142.245 568.003 144.454C570.898 147.232 574.136 149.972 576.457 153.25C576.52 154.976 576.361 154.934 575.25 156.291L573.5 156.99C569.793 155.726 566.088 151.246 563.235 148.508C560.968 151.148 557.635 155.84 554.25 156.87C552.776 156.219 552.452 155.783 551.656 154.464C551.787 150.823 556.964 147.069 559.589 144.566C557.174 142.252 552.358 138.635 551.413 135.5C551.933 133.86 552.39 133.365 553.701 132.25Z"/>
	<path fill="#003F6D" transform="scale(0.5 0.5)" d="M177.923 685.162C178.388 686.697 178.489 686.964 178.097 688.5C176.703 690.036 176.072 690.242 174.25 691.034L173.437 691.5L173.589 694.227C173.767 697.267 173.245 699.805 171.159 702.178C166.835 707.097 160.127 707.351 154.034 707.529L148.659 707.435L147.766 707.476L131.981 707.286C127.678 707.297 123.05 707.512 118.799 706.837C114.993 706.232 111.206 703.6 109.142 700.385C107.334 697.568 107.109 695.273 107.847 692.069L109.359 695.587C110.568 698.478 112.317 700.701 115.29 701.935L115.896 702.172C116.483 702.408 117.035 702.633 117.663 702.748C119.99 703.175 122.64 702.922 125 702.891L138.972 702.736L158.931 702.708C160.243 702.651 162.647 702.841 163.807 702.404C164.572 702.115 165.503 701.369 166.186 700.869C168.954 698.844 169.758 695.616 170.225 692.387L170.125 691.847C170.019 690.173 170.119 689.02 171.06 687.671C172.517 687.705 173.871 687.8 175.202 687.105L176.037 686.641L177.923 685.162Z"/>
	<path fill="#008498" transform="scale(0.5 0.5)" d="M109.359 695.587C121.461 696.817 134.466 695.941 146.641 695.942C152.031 695.942 159.373 696.896 164.56 695.742C166.739 695.257 168.518 693.75 170.225 692.387C169.758 695.616 168.954 698.844 166.186 700.869C165.503 701.369 164.572 702.115 163.807 702.404C162.647 702.841 160.243 702.651 158.931 702.708L138.972 702.736L125 702.891C122.64 702.922 119.99 703.175 117.663 702.748C117.035 702.633 116.483 702.408 115.896 702.172L115.29 701.935C112.317 700.701 110.568 698.478 109.359 695.587Z"/>
	<path fill="white" transform="scale(0.5 0.5)" d="M217.51 363.116C219.897 363.09 222.498 363.375 224.621 364.544C227.35 366.047 229.643 368.692 230.447 371.732C231.348 375.137 231.233 378.953 229.365 382.019C227.086 385.761 223.774 387.395 219.753 388.538C216.873 388.602 214.202 388.482 211.643 387.008C208.481 385.186 206.834 382.152 206.032 378.684C205.246 375.282 205.726 371.55 207.665 368.605C210.016 365.035 213.569 363.962 217.51 363.116Z"/>
	<path fill="#B1AAAD" transform="scale(0.5 0.5)" d="M171.482 686.248C173.118 686.176 174.459 686.082 176.037 686.641L175.202 687.105C173.871 687.8 172.517 687.705 171.06 687.671C170.119 689.02 170.019 690.173 170.125 691.847L170.225 692.387C168.518 693.75 166.739 695.257 164.56 695.742C159.373 696.896 152.031 695.942 146.641 695.942C134.466 695.941 121.461 696.817 109.359 695.587L107.847 692.069L108.065 687.25L103.727 686.559L171.482 686.248Z"/>
	<path fill="white" transform="scale(0.5 0.5)" d="M839.956 771.523C846.781 764.358 852.44 756.189 857.931 747.981C867.579 733.56 876.264 718.333 883.621 702.619C887.264 694.839 890.21 686.856 893.312 678.853C893.767 677.679 895.103 672.989 895.876 672.31C896.614 671.661 901.708 671.74 902.897 671.677L891.399 702.041C883.772 719.658 873.75 736.987 862.919 752.811L844.294 777.698L839.965 771.911L839.956 771.523Z"/>
	<path fill="white" transform="scale(0.5 0.5)" d="M438.533 125.614C442.411 125.307 446.411 126.155 449.75 128.177C454.324 130.947 457.436 135.651 458.588 140.828C459.584 145.303 458.525 149.953 456.076 153.785C452.83 158.864 448.326 161.159 442.618 162.458C437.789 162.648 434.174 162.241 429.979 159.533C426.047 156.996 423.451 153.047 422.538 148.473C421.514 143.337 422.345 137.312 425.462 133C428.734 128.474 433.269 126.614 438.533 125.614Z"/>
	<path fill="#008498" transform="scale(0.5 0.5)" d="M437.664 131.062C440.076 130.941 442.265 130.723 444.552 131.67C448.21 133.187 451.327 136.267 452.832 139.936C453.958 142.678 453.731 145.751 452.612 148.448C450.75 152.932 447.583 154.999 443.356 156.865C440.893 157.06 438.095 157.342 435.75 156.411C432.382 155.075 429.592 152.333 428.216 148.985C426.853 145.668 427.204 141.415 428.697 138.216C430.544 134.262 433.801 132.537 437.664 131.062Z"/>
	<path fill="#003F6D" transform="scale(0.5 0.5)" d="M839.965 771.911L844.294 777.698C847.295 783.417 850.477 788.947 852.886 794.962C858.444 808.839 860.807 824.861 859.133 839.75C856.543 862.797 844.661 885.954 826.604 900.683C808.541 915.418 783.403 925.466 759.799 922.752L759 922.654C747.678 921.342 736.43 918.217 726.139 913.277C721.251 910.931 716.641 907.892 712.021 905.065C708.502 902.422 704.47 899.869 701.866 896.272L701.581 896.053C700.255 894.289 698.618 892.763 697.071 891.194C684.11 876.639 676.452 859.183 674.377 839.803C673.868 835.047 674.003 830.18 674.006 825.401C674.745 816.697 676.27 808.231 678.824 799.881C680.173 796.316 681.353 792.483 683.268 789.184L684.009 788.745C685.252 787.95 685.753 786.541 686.339 785.25L687 785.5L686.516 786.188C685.937 787.055 686.063 787.158 685.75 788L685 789.5L684.609 790.312C684.182 791.167 684.395 790.853 683.755 791.5L683.878 792.522L684.316 792.691C675.437 816.455 673.051 842.105 683.935 865.748C689.072 876.908 695.381 886.646 704.367 895.071C724.268 912.062 748.16 921.53 774.539 919.46L780.25 918.709C789.343 916.996 797.753 914.306 805.987 910.038C806.953 909.537 809.203 908.625 809.767 907.844C812.794 906.388 815.648 904.338 818.374 902.388C836.875 889.152 851.609 868.281 855.181 845.488C858.997 821.14 854.282 795.735 839.572 775.609L837.974 773.161L839.965 771.911Z"/>
	<path fill="#18B5C2" transform="scale(0.5 0.5)" d="M176.276 339.62C180.507 339.235 184.484 339.432 188.403 341.214C193.114 343.357 196.791 347.585 198.424 352.503C200.134 357.647 199.494 363.652 196.813 368.356C194.17 372.993 189.305 376.033 184.309 377.44C179.586 378.151 175.578 377.997 171.25 375.807C166.669 373.488 163.187 369.076 161.564 364.25C159.915 359.347 160.205 354.788 162.664 350.191C165.645 344.621 170.345 341.452 176.276 339.62Z"/>
	<path fill="#06D3DF" transform="scale(0.5 0.5)" d="M622.052 810.824C637.932 807.793 653.537 803.151 669.532 800.626C672.14 800.215 676.352 798.924 678.824 799.881C676.27 808.231 674.745 816.697 674.006 825.401C662.228 827.132 650.088 830.253 638.456 832.937C634.967 833.742 628.941 834.477 625.957 836.497C624.091 828.53 620.097 823.597 613.841 818.675C616.808 816.685 619.349 814.26 621.555 811.459L622.052 810.824Z"/>
	<path fill="white" transform="scale(0.5 0.5)" d="M104.567 665.03L171.241 664.796L173.389 665.488C172.381 666.349 172.195 666.406 171.878 667.671L172.611 667.71L173.541 667.333C175.175 668.239 176.573 668.857 177.549 670.5C177.85 672.036 178.104 673.32 177.243 674.75C176.944 675.246 176.538 675.57 176.123 675.948L173.374 677.924L173.307 678.649L175.278 679.302C176.554 680.192 177.609 680.808 177.923 682.5C178.07 683.291 177.923 684.249 177.839 685.046L177.923 685.162L176.037 686.641C174.459 686.082 173.118 686.176 171.482 686.248L103.727 686.559C103.189 686.39 102.479 686.197 102 685.904C101.01 685.299 100.436 684.116 100.309 683C100.151 681.609 100.594 680.898 101.442 679.891L104.475 676.75L103.503 675.552C101.763 674.77 101.253 674.377 100.257 672.75C100.032 670.848 100.05 670.694 100.934 668.997L104.741 666.089L104.567 665.03Z"/>
	<path fill="#B1AAAD" transform="scale(0.5 0.5)" d="M104.719 675.134L166.859 675.075L176.123 675.948L173.374 677.924L173.307 678.649L175.278 679.302C173.761 679.622 172.464 679.916 170.9 679.866L129.157 680.035C120.24 680.132 110.226 681.199 101.442 679.891L104.475 676.75L103.503 675.552L104.719 675.134Z"/>
	<path fill="white" transform="scale(0.5 0.5)" d="M104.567 665.03L171.241 664.796L173.389 665.488C172.381 666.349 172.195 666.406 171.878 667.671L172.611 667.71L173.541 667.333C175.175 668.239 176.573 668.857 177.549 670.5C177.85 672.036 178.104 673.32 177.243 674.75C176.944 675.246 176.538 675.57 176.123 675.948L166.859 675.075L104.719 675.134L103.503 675.552C101.763 674.77 101.253 674.377 100.257 672.75C100.032 670.848 100.05 670.694 100.934 668.997L104.741 666.089L104.567 665.03Z"/>
	<path fill="#B1AAAD" transform="scale(0.5 0.5)" d="M104.567 665.03L171.241 664.796L173.389 665.488C172.381 666.349 172.195 666.406 171.878 667.671L172.611 667.71L172.175 669.002L107.772 669.02L100.934 668.997L104.741 666.089L104.567 665.03Z"/>
	<path fill="white" transform="scale(0.5 0.5)" d="M162.287 408.148C167.938 407.724 173.292 408.921 178.128 411.934C183.408 415.224 187.273 420.948 188.569 427.002C189.915 433.292 188.625 440.721 185.046 446.04C180.672 452.54 174.204 455.507 166.709 456.885C161.041 457.276 155.724 456.124 150.897 453.039C145.775 449.764 141.885 444.183 140.674 438.233C139.237 431.169 140.316 423.97 144.595 418.029C148.9 412.052 155.215 409.256 162.287 408.148Z"/>
	<path fill="#18B5C2" transform="scale(0.5 0.5)" d="M139.243 320.811C146.516 327.133 151.257 334.043 154.306 343.187C158.064 354.458 156.318 366.221 150.988 376.603C145.79 386.728 136.118 395.355 125.265 398.85C120.017 400.54 114.846 401.048 109.369 401.047L114.581 381.725C121.039 360.848 129.279 340.258 139.243 320.811Z"/>
	<path fill="white" transform="scale(0.5 0.5)" d="M175.985 248.54C189.882 230.656 205.527 214.223 221.934 198.615C224.644 196.038 227.877 191.944 231.25 190.482C232.478 190.665 233.668 191.235 234.442 192.25C235.013 192.998 235.512 194.008 235.232 194.924C234.523 197.245 222.059 207.563 219.642 209.922C205.127 224.089 190.95 239.532 179.043 255.973L139.243 320.811C129.279 340.258 121.039 360.848 114.581 381.725L109.369 401.047C102.253 432.211 99.11 464.965 101.748 496.883L95.107 501.775C91.7583 468.667 94.9111 432.773 102.7 400.499C107.564 371.327 120.289 342.389 133.878 316.287L175.985 248.54Z"/>
	<path fill="#18B5C2" transform="scale(0.5 0.5)" d="M399.558 858.092C405.627 864.883 411.293 867.261 420.156 868.893C420.542 868.964 421.116 868.765 421.314 869.104C421.67 869.716 421.631 872.947 421.75 873.837C422.122 876.613 422.719 879.406 423.411 882.119C428.281 901.213 439.821 915.575 454.068 928.67C425.477 924.37 397.365 917.31 370.365 906.88C371.753 902.709 372.638 898.373 374.257 894.271C379.707 880.47 389.042 868.341 399.558 858.092Z"/>
	<path fill="#18B5C2" transform="scale(0.5 0.5)" d="M367.496 912.798C395.383 923.101 424.755 931.831 454.328 935.524C458.372 936.029 463.08 936.96 467.131 936.414C468.92 937.431 470.756 938.661 472.692 939.36C467.165 949.088 454.371 957.409 443.982 960.919L436 963.151L435.192 963.344C421.559 966.48 404.362 962.904 392.621 955.471C380.714 947.933 372.129 936.772 368.87 923C368.071 919.624 367.807 916.246 367.496 912.798Z"/>
	<path fill="#18B5C2" transform="scale(0.5 0.5)" d="M701.581 896.053L701.866 896.272C704.47 899.869 708.502 902.422 712.021 905.065C708.319 920.296 694.561 933.886 681.5 941.8C666.923 950.633 647.937 953.755 631.25 950.664C620.227 948.622 609.811 944.824 600.57 938.366C597.772 936.411 595.333 933.568 592.452 931.915L592.141 931.693C618.578 926.905 644.412 920.147 669.547 910.57L688.094 902.59C691.66 901.044 699.274 898.773 701.581 896.053Z"/>
	<path fill="#18B5C2" transform="scale(0.5 0.5)" d="M102.7 400.499C97.5611 399.278 92.6144 397.615 88.1039 394.802C78.509 388.818 70.9425 379.401 68.3509 368.289C65.3428 355.392 67.3171 343.076 74.3584 331.838C80.7972 321.562 91.2807 314.661 103.045 312.033L103.99 311.827C114.374 309.459 124.583 311.468 133.878 316.287C120.289 342.389 107.564 371.327 102.7 400.499Z"/>
	<path fill="white" transform="scale(0.5 0.5)" d="M345.491 123.852L377.598 110.01C478.075 71.6296 587.685 77.1283 685.474 120.861C709.245 131.358 731.907 145.281 753.119 160.204C775.583 176.007 796.678 193.036 815.891 212.712L835.073 233.315C839.914 238.994 844.421 245.243 849.615 250.583L852.235 254.215C879.023 290.718 901.094 330.017 915.379 373.099C925.249 403.38 930.462 433.862 933.319 465.51C934.121 474.397 935.266 483.739 934.81 492.652L927.637 487.359C927.424 469.935 925.415 452.324 922.781 435.108C919.769 415.428 915.884 395.904 909.223 377.098C907.587 370.332 904.665 363.457 902.107 356.988C889.023 323.893 871.037 290.981 849.155 262.905L844.98 256.962C839.676 248.712 832.357 241.303 825.916 233.907C785.646 187.663 735.882 153.49 681.242 126.466C588.989 83.9141 480.279 79.0791 384.86 114.309C373.676 118.439 361.646 122.834 351.139 128.496L333.172 137.534C328.937 139.913 324.437 143.325 319.805 144.75C319.235 144.393 319.052 144.33 318.574 143.75C317.633 142.609 317.362 140.916 317.478 139.5C319.842 137.257 322.965 135.893 325.779 134.277L345.491 123.852Z"/>
	<path fill="#18B5C2" transform="scale(0.5 0.5)" d="M852.235 254.215C867.386 247.875 881.286 242.946 898 246.392C915.861 250.075 930.182 259.837 940.392 275.007C950.219 289.608 954.39 309.511 950.838 326.772C947.609 342.463 938.98 356.847 925.993 366.401L915.379 373.099C901.094 330.017 879.023 290.718 852.235 254.215Z"/>
	<path fill="white" transform="scale(0.5 0.5)" d="M418.841 733.145L453.332 732.901L512.236 732.896L569.547 732.906L598.807 732.969C600.107 733.029 601.333 733.221 602.55 733.705L603.25 734.008C606.757 735.499 610.141 737.615 612.422 740.75C615.316 744.729 616.199 749.953 615.348 754.766C614.513 759.492 611.612 763.553 607.613 766.147C605.283 767.659 603 768.355 600.344 768.976C593.123 769.6 585.428 768.997 578.148 768.962L533.583 768.808L458.799 768.919L421 768.939C418.956 768.892 416.71 768.746 414.843 767.854C409.268 765.192 405.582 760.329 403.872 754.429C402.709 750.416 403.847 745.475 405.979 741.98C409.002 737.026 413.323 734.436 418.841 733.145Z"/>
	<path fill="white" transform="scale(0.5 0.5)" d="M452.471 777.75L552.691 777.726L584.155 777.671C589.662 777.689 595.896 777.286 601.321 778.242C604.949 778.881 608.487 781.353 611.087 783.91C614.6 787.365 616.6 791.524 616.548 796.472C616.497 801.256 614.184 805.757 610.789 809.055C608.499 811.28 605.502 812.923 602.364 813.553C598.477 814.334 594.172 813.977 590.214 813.983L568.25 813.952L464.593 813.951L433.782 813.953C428.614 813.949 422.987 814.399 417.872 813.655C414.573 813.175 411.457 811.589 409.012 809.336C405.687 806.272 403.348 801.703 403.336 797.137C403.323 792.187 404.845 787.3 408.398 783.742C410.792 781.344 414.498 779.058 417.763 778.234C421.237 777.358 425.762 777.793 429.356 777.783L452.471 777.75Z"/>
	<path fill="#18B5C2" transform="scale(0.5 0.5)" d="M674.006 825.401C674.003 830.18 673.868 835.047 674.377 839.803C676.452 859.183 684.11 876.639 697.071 891.194C698.618 892.763 700.255 894.289 701.581 896.053C699.274 898.773 691.66 901.044 688.094 902.59L669.547 910.57C644.412 920.147 618.578 926.905 592.141 931.693L563.275 935.675C559.629 936.041 555.555 936.798 551.922 936.334C556.702 933.503 561.36 929.975 566.363 927.616L586.817 925.324C586.079 920.678 583.866 915.418 582.032 911.078C591.104 898.441 595.475 884.265 597.121 868.948L602.5 868.556C609.099 867.878 616.008 863.663 620.132 858.517C625.19 852.205 626.752 844.366 625.957 836.497C628.941 834.477 634.967 833.742 638.456 832.937C650.088 830.253 662.228 827.132 674.006 825.401Z"/>
	<path fill="white" transform="scale(0.5 0.5)" d="M697.071 891.194C698.618 892.763 700.255 894.289 701.581 896.053C699.274 898.773 691.66 901.044 688.094 902.59L669.547 910.57C644.412 920.147 618.578 926.905 592.141 931.693L563.275 935.675C559.629 936.041 555.555 936.798 551.922 936.334C556.702 933.503 561.36 929.975 566.363 927.616L586.817 925.324C625.154 920.774 661.884 906.299 697.071 891.194Z"/>
	<path fill="white" transform="scale(0.5 0.5)" d="M420.29 823.198C430.782 822.313 441.801 822.927 452.348 822.927L514.313 822.932L570.45 822.872C579.896 822.864 589.966 822.193 599.347 823.141C603.26 823.536 606.51 824.92 609.634 827.284C613.417 830.145 615.797 834.473 616.367 839.174C616.927 843.789 615.406 848.979 612.503 852.603C608.807 857.218 604.608 858.684 598.973 859.297L490.317 859.28L442.853 859.462C434.975 859.495 426.853 859.972 419 859.507C416.722 859.372 414.48 858.418 412.539 857.263C408.089 854.617 405.363 850.116 404.172 845.158C403.063 840.543 403.929 835.963 406.541 831.954C409.789 826.968 414.575 824.29 420.29 823.198Z"/>
	<path fill="white" transform="scale(0.5 0.5)" d="M431.399 868.495L587.734 868.868C586.654 886.399 577.523 902.58 565.459 914.847C552.465 927.675 531.677 937.208 513.28 937.532C491.307 937.918 470.063 930.97 454.106 915.395C441.62 903.208 431.63 886.331 431.399 868.495Z"/>
	<path fill="#06D3DF" transform="scale(0.5 0.5)" d="M176.235 765.76C184.811 776.719 192.886 788.204 202.137 798.611C241.524 842.924 292.091 880.304 346.379 904.255C340.212 908.918 332.944 912.397 325.782 915.239C297.265 926.557 264.99 925.466 236.933 913.255C209.035 901.114 186.184 877.675 175.194 849.31C164.951 822.874 164.813 791.828 176.235 765.76Z"/>
	<path fill="#18B5C2" transform="scale(0.5 0.5)" d="M685.474 120.861C705.062 100.661 735.208 88.4056 763.23 88.214C788.089 88.0441 816.852 99.0133 834.397 116.75C855.906 138.494 866.993 165.923 866.544 196.488C866.254 216.238 859.005 233.597 849.615 250.583C844.421 245.243 839.914 238.994 835.073 233.315L815.891 212.712C796.678 193.036 775.583 176.007 753.119 160.204C731.907 145.281 709.245 131.358 685.474 120.861Z"/>
	<path fill="#18B5C2" transform="scale(0.5 0.5)" d="M681.242 126.466C735.882 153.49 785.646 187.663 825.916 233.907C832.357 241.303 839.676 248.712 844.98 256.962C838.917 264.469 829.504 271.373 821.027 275.981L820.972 276.337C816.724 278.508 812.68 281.065 808.274 282.924C783.195 293.505 754.345 296.663 728.178 287.989L723.715 286.469C719.679 281.945 716.773 275.872 713.275 270.865C706.269 260.838 698.369 251.419 689.831 242.666C678.517 231.56 667.058 220.999 654.069 211.854C652.366 188.133 657.72 163.542 669.76 142.978C673.162 137.166 677.308 131.911 681.242 126.466Z"/>
	<path fill="#06D3DF" transform="scale(0.5 0.5)" d="M689.831 242.666C694.159 241.163 700.104 241.131 704.726 240.794C733.194 238.721 763.176 243.506 789.026 256.043C796.579 259.706 803.605 263.515 810.631 268.119C814.179 270.445 818.08 272.923 821.027 275.981L820.972 276.337C816.724 278.508 812.68 281.065 808.274 282.924C783.195 293.505 754.345 296.663 728.178 287.989L723.715 286.469C719.679 281.945 716.773 275.872 713.275 270.865C706.269 260.838 698.369 251.419 689.831 242.666Z"/>
	<path fill="#F7535D" transform="scale(0.5 0.5)" d="M101.748 496.883C121.58 485.499 143.824 482.695 165.931 488.75C175.925 491.487 184.63 496.229 192.963 502.326C208.73 514.724 221.052 533.23 223.403 553.55C225.837 574.582 221.139 597.097 207.75 613.917L198.852 623.288C191.923 628.74 185.263 633.876 180.571 641.5C178.093 645.526 176.245 649.868 173.846 653.918L177.471 658.54C178.135 660.256 178.208 660.58 177.924 662.5C176.579 664.246 175.567 665.028 173.389 665.488L171.241 664.796L104.567 665.03C102.543 664.655 101.737 663.827 100.556 662.25C100.326 660.485 100.249 659.643 101.153 658.079C102.077 656.706 103.159 655.524 104.268 654.299C102.371 651.861 101.154 648.714 99.7898 645.95C97.882 642.084 95.8361 638.426 93.3444 634.902C89.1611 628.985 83.0104 624.615 78.5359 618.826C65.4449 601.889 59.9544 579.84 62.8092 558.641C64.9714 542.585 70.3808 528.18 80.8571 515.585C85.0963 510.489 90.0858 506.075 95.107 501.775L101.748 496.883Z"/>
	<path fill="white" transform="scale(0.5 0.5)" d="M123.718 649.605C122.281 633.11 119.096 615.967 112.753 600.589C106.781 598.208 101.497 594.572 98.8102 588.507C96.3326 582.915 95.8629 576.853 98.1437 571.125C100.138 566.115 104.546 561.626 109.5 559.515C114.489 557.39 120.096 557.805 125 559.882C131.769 562.748 136.795 568.22 139.526 575L141.38 579.693C144.044 571.567 148.995 563.992 156.969 560.16C161.831 557.823 167.135 557.708 172.182 559.541C177.728 561.556 181.765 565.158 184.17 570.562C186.558 575.929 186.664 581.958 184.472 587.423C181.987 593.621 177.763 597.084 171.846 599.782C171.486 599.946 169.777 600.542 169.576 600.796C168.511 602.145 167.655 605.896 167.08 607.559C162.045 622.135 159.237 636.298 158.364 651.688C163.223 653.679 168.649 650.738 173.846 653.918L177.471 658.54C178.135 660.256 178.208 660.58 177.924 662.5C176.579 664.246 175.567 665.028 173.389 665.488L171.241 664.796L104.567 665.03C102.543 664.655 101.737 663.827 100.556 662.25C100.326 660.485 100.249 659.643 101.153 658.079C102.077 656.706 103.159 655.524 104.268 654.299L104.507 653.96C104.89 653.493 106.185 652.239 106.75 652.068C107.688 651.784 109.774 652.068 110.805 652.068C114.956 652.066 119.271 652.329 123.383 651.853L123.718 649.605Z"/>
	<path fill="white" transform="scale(0.5 0.5)" d="M138.589 652.172C140.213 652.207 141.978 652.461 143.479 651.75L143.894 596.788L143.913 652.087C146.981 652.108 150.373 651.851 153.393 652.296C155.119 652.347 156.835 652.631 158.364 651.688C163.223 653.679 168.649 650.738 173.846 653.918L177.471 658.54C178.135 660.256 178.208 660.58 177.924 662.5C176.579 664.246 175.567 665.028 173.389 665.488L171.241 664.796L104.567 665.03C102.543 664.655 101.737 663.827 100.556 662.25C100.326 660.485 100.249 659.643 101.153 658.079C102.077 656.706 103.159 655.524 104.268 654.299L104.507 653.96C104.89 653.493 106.185 652.239 106.75 652.068C107.688 651.784 109.774 652.068 110.805 652.068C114.956 652.066 119.271 652.329 123.383 651.853L123.718 649.605L124.133 651.963C125.504 652.591 127.108 652.242 128.57 652.122C131.727 652.122 135.507 651.707 138.589 652.172Z"/>
	<path fill="#B1AAAD" transform="scale(0.5 0.5)" d="M138.589 652.172C140.213 652.207 141.978 652.461 143.479 651.75L143.894 596.788L143.913 652.087C146.981 652.108 150.373 651.851 153.393 652.296C155.119 652.347 156.835 652.631 158.364 651.688C163.223 653.679 168.649 650.738 173.846 653.918L177.471 658.54C175.987 658.49 174.43 658.217 173.113 659.019C173.036 660.834 173.218 662.663 172.056 664.16L171.991 659C169.893 657.567 160.204 658.485 157.324 658.482L123.74 658.484C116.228 658.487 108.639 658.728 101.153 658.079C102.077 656.706 103.159 655.524 104.268 654.299L104.507 653.96C104.89 653.493 106.185 652.239 106.75 652.068C107.688 651.784 109.774 652.068 110.805 652.068C114.956 652.066 119.271 652.329 123.383 651.853L123.718 649.605L124.133 651.963C125.504 652.591 127.108 652.242 128.57 652.122C131.727 652.122 135.507 651.707 138.589 652.172Z"/>
	<path fill="#F7535D" transform="scale(0.5 0.5)" d="M143.894 596.788C144.234 586.609 146.198 575.372 154.067 568.114C157.347 565.088 161.599 563.229 166.117 563.549C170.387 563.852 174.447 565.803 177.241 569.065C180.142 572.452 181.624 577.304 180.947 581.75C180.298 586.013 177.572 590.394 174.048 592.894C172.229 594.185 169.996 595.058 167.945 595.917C167.306 596.184 165.921 596.52 165.48 596.91C164.577 597.707 163.419 602.022 163.035 603.181C160.514 610.792 158.329 618.443 156.723 626.302L153.393 652.296C150.373 651.851 146.981 652.108 143.913 652.087L143.894 596.788Z"/>
	<path fill="#F7535D" transform="scale(0.5 0.5)" d="M128.57 652.122C126.939 633.391 124.213 614.358 116.929 596.876C110.388 592.972 104.555 590.805 102.212 582.544C101.116 578.679 102.317 574.02 104.404 570.671C106.533 567.253 110.193 564.455 114.156 563.611C118.5 562.685 123.17 564.059 126.75 566.523C133.015 570.834 136.384 578.548 137.673 585.838C139.057 593.669 138.422 602.307 138.454 610.241L138.589 652.172C135.507 651.707 131.727 652.122 128.57 652.122Z"/>
	<path fill="#F7535D" transform="scale(0.5 0.5)" d="M710.572 758.347C731.453 743.007 754.849 735.794 780.751 739.704C804.386 743.272 823.114 754.568 837.974 773.161L839.572 775.609C854.282 795.735 858.997 821.14 855.181 845.488C851.609 868.281 836.875 889.152 818.374 902.388C815.648 904.338 812.794 906.388 809.767 907.844C809.203 908.625 806.953 909.537 805.987 910.038C797.753 914.306 789.343 916.996 780.25 918.709L774.539 919.46C748.16 921.53 724.268 912.062 704.367 895.071C695.381 886.646 689.072 876.908 683.935 865.748C673.051 842.105 675.437 816.455 684.316 792.691L683.878 792.522L683.755 791.5C684.395 790.853 684.182 791.167 684.609 790.312L685 789.5L685.75 788C686.063 787.158 685.937 787.055 686.516 786.188L687 785.5L686.339 785.25C685.753 786.541 685.252 787.95 684.009 788.745L683.268 789.184C688.939 776.253 698.432 764.274 709.907 756.017L710.747 756.78L710.582 757.524L710.572 758.347Z"/>
	<path fill="#FE8C9D" transform="scale(0.5 0.5)" d="M687.883 792.541C689.997 789.062 691.709 785.369 693.922 781.915C700.615 771.468 708.695 763.174 719.12 756.434C738.103 744.159 761.424 739.002 783.663 743.869C803.655 748.245 823.262 758.951 834.434 776.469C837.509 783.065 838.091 787.671 838.008 794.891C833.95 790.11 830.237 784.955 825.75 780.562C811.857 766.96 792.042 757.353 772.614 755.792C754.955 754.372 732.889 761.429 719.449 772.982C701.383 788.512 691.903 808.812 690.297 832.506C690.026 836.51 690.036 840.48 690.094 844.491C690.107 845.342 690.44 848.075 690.169 848.75C690.046 849.058 689.723 849.242 689.5 849.488C688.236 849.268 687.65 849.152 686.94 848C685.412 845.523 684.852 842.183 684.249 839.352C681.639 827.089 681.24 812.736 685.031 800.725L687.883 792.541Z"/>
	<defs>
		<linearGradient id="gradient_0" gradientUnits="userSpaceOnUse" x1="755.03088" y1="918.25665" x2="762.33856" y2="739.00421">
			<stop offset="0" stop-color="#AF314A"/>
			<stop offset="1" stop-color="#FF4753"/>
		</linearGradient>
	</defs>
	<path fill="url(#gradient_0)" transform="scale(0.5 0.5)" d="M710.572 758.347C731.453 743.007 754.849 735.794 780.751 739.704C804.386 743.272 823.114 754.568 837.974 773.161L839.572 775.609C839.416 776.902 839.885 777.774 840.648 778.798L841 779.25L842.25 781.5C841.902 782.194 841.993 781.905 841.827 782.654L841.721 783.176C840.545 783.79 839.688 784.007 838.402 784.218C838.09 782.956 838.214 783.205 838.815 782.172C837.08 781.413 836.218 778.294 835.391 776.538L834.434 776.469C823.262 758.951 803.655 748.245 783.663 743.869C761.424 739.002 738.103 744.159 719.12 756.434C708.695 763.174 700.615 771.468 693.922 781.915C691.709 785.369 689.997 789.062 687.883 792.541L686.294 793.758L686.25 794.5C686.069 795.153 685.538 796.626 685.25 797.255L684.755 798L684.485 799.514C684.366 800.133 684.133 800.508 683.755 801C683.751 802.056 683.879 802.061 683.255 803C683.251 804.056 683.379 804.061 682.755 805C682.752 806.184 682.931 806.482 682.255 807.5L682.355 808.156C682.437 809.159 682.179 809.627 681.755 810.5L681.893 811.406C682.028 812.352 681.961 813.062 681.75 814L681.255 814.5L681.324 815.172C681.403 816.136 681.248 817.019 681.316 817.984C681.45 819.896 681.152 821.799 681.285 823.704C681.508 826.886 682.972 831.492 682.255 834.5L682.505 834.984C683.004 836.232 682.852 837.844 683.255 839.25L683.378 840.03C683.543 841.03 683.379 840.564 684 841.5L683.935 842.062C683.881 842.842 684.001 843.049 684.255 843.75L684.985 845.995C685.265 846.836 685.656 847.561 686.078 848.337L686.025 848.98L685.25 848.977L684.909 848.095L682.318 842.182C681.847 840.877 681.47 839.724 681.125 838.375L680.859 837.484C679.493 832.576 682.128 824.72 679.57 820.625C679.784 826.346 679.124 834.178 680.899 839.503C688.451 862.166 703.857 886.167 725.5 897.524L735 902.034L735.851 902.387C754.424 909.973 779.233 909.013 797.55 901.213C808.672 896.477 819.863 888.935 827.716 879.684C826.055 884.624 823.783 889.259 820.822 893.545C819.039 896.124 817.005 898.579 814.878 900.884C812.72 903.223 810.443 904.695 809.767 907.844C809.203 908.625 806.953 909.537 805.987 910.038C797.753 914.306 789.343 916.996 780.25 918.709L774.539 919.46C748.16 921.53 724.268 912.062 704.367 895.071C695.381 886.646 689.072 876.908 683.935 865.748C673.051 842.105 675.437 816.455 684.316 792.691L683.878 792.522L683.755 791.5C684.395 790.853 684.182 791.167 684.609 790.312L685 789.5L685.75 788C686.063 787.158 685.937 787.055 686.516 786.188L687 785.5L686.339 785.25C685.753 786.541 685.252 787.95 684.009 788.745L683.268 789.184C688.939 776.253 698.432 764.274 709.907 756.017L710.747 756.78L710.582 757.524L710.572 758.347Z"/>
	<path fill="#044F6C" transform="scale(0.5 0.5)" d="M709.907 756.017L710.747 756.78L710.582 757.524L710.572 758.347C698.871 768.422 691.17 778.934 684.316 792.691L683.878 792.522L683.755 791.5C684.395 790.853 684.182 791.167 684.609 790.312L685 789.5L685.75 788C686.063 787.158 685.937 787.055 686.516 786.188L687 785.5L686.339 785.25C685.753 786.541 685.252 787.95 684.009 788.745L683.268 789.184C688.939 776.253 698.432 764.274 709.907 756.017Z"/>
	<path fill="white" transform="scale(0.5 0.5)" d="M765.131 766.705C779.123 765.728 794.419 771.736 805.366 780.177C818.748 790.496 827.584 805.685 829.619 822.452C831.687 839.505 828.064 855.32 817.362 868.864C804.645 884.959 789.644 892.13 769.556 894.455C754.207 894.816 740.135 890.868 727.987 881.247C714.979 870.943 705.256 854.769 703.628 838.051C701.956 820.891 707.751 802.828 718.731 789.624C730.385 775.609 747.24 768.259 765.131 766.705Z"/>
	<path fill="#F7535D" transform="scale(0.5 0.5)" d="M762.278 779.654C767.665 779.07 773.142 779.447 778.399 780.729C791.81 783.999 803.31 791.894 810.507 803.75C817.127 814.654 819.935 829.584 816.812 842.045C815.08 848.953 812.606 855.103 808.438 860.956C799.939 872.889 786.672 879.519 772.478 881.95C768.364 882.362 764.366 882.425 760.25 881.942C747.113 880.403 734.703 872.792 726.58 862.491C718.159 851.813 715.464 837.784 716.947 824.5C717.927 815.719 721.52 806.435 726.797 799.314C735.218 787.951 748.568 781.773 762.278 779.654Z"/>
	<path fill="white" transform="scale(0.5 0.5)" d="M764.899 795.206C771.928 794.737 779.438 796.42 785.495 800.034C793.405 804.755 799.247 813.741 801.459 822.538L801.683 823.454L802.374 826.858C803.493 836.523 800.972 845.651 794.943 853.276C788.324 861.647 780.095 865.68 769.586 866.917C760.949 867.139 752.404 865.214 745.447 859.885C737.105 853.495 732.813 844.544 731.677 834.239C730.593 824.401 734.383 814.409 740.641 806.946C747.033 799.321 755.24 796.096 764.899 795.206Z"/>
	<path fill="#F7535D" transform="scale(0.5 0.5)" d="M764.387 813.081C768.695 812.885 772.278 813.027 776.172 815.197C780.698 817.72 783.478 822.301 784.75 827.227C786.039 832.22 784.833 837.177 782.099 841.5C779.224 846.045 775.037 848.227 769.976 849.454C767.202 849.535 764.357 849.725 761.693 848.824L761 848.572C760.133 848.265 759.313 847.962 758.5 847.523C753.99 845.09 750.996 841.098 749.57 836.216C748.218 831.587 748.881 826.309 751.245 822.117C754.087 817.077 758.987 814.441 764.387 813.081Z"/>
	<path fill="#18B5C2" transform="scale(0.5 0.5)" d="M192.963 502.326L196.366 494.781C208.755 468.63 230.096 442.899 253.475 425.827C256.081 423.923 259.51 420.681 262.389 419.65C262.748 483.665 287.922 544.653 333.523 589.774C345.64 601.763 358.623 612.94 372.925 622.257C377.888 625.489 383.062 628.857 388.421 631.382L388.416 674.697C388.435 681.647 387.75 689.079 388.444 695.956C388.766 699.15 389.701 702.382 390.777 705.401C393.321 712.541 397.977 717.819 402.981 723.34C399.938 722.479 396.548 719.032 394.022 717.015L382.5 708.453C362.637 694.829 341.077 688.762 317.636 684.722C316.472 686.355 315.018 687.924 313.511 689.25C308.934 693.277 302.615 694.617 296.678 693.959C290.272 693.248 285.884 689.234 282.162 684.391C260.667 686.602 240.98 694.379 222.74 705.822C212.705 686.488 205.921 667.437 201.845 646C200.411 638.458 199.042 630.972 198.852 623.288L207.75 613.917C221.139 597.097 225.837 574.582 223.403 553.55C221.052 533.23 208.73 514.724 192.963 502.326Z"/>
	<path fill="white" transform="scale(0.5 0.5)" d="M239.582 470.75L241.005 470.571C242.381 471.702 242.697 471.837 243.25 473.599C241.735 475.999 239.631 477.969 237.674 480.01C239.265 481.757 243.532 485.571 243.803 487.75C242.689 488.982 242.36 489.554 240.75 490.071C238.194 489.178 235.522 486.116 233.483 484.267L227.25 490.154C226.772 490.501 226.298 490.651 225.75 490.86C224.434 489.748 223.878 489.056 223.139 487.5C224.592 484.809 227.605 482.516 229.85 480.415C227.977 478.521 224.176 475.436 224.08 472.75C225.31 471.608 225.557 471.28 227.25 470.914C229.631 471.685 231.789 474.493 233.546 476.254L239.582 470.75Z"/>
	<path fill="white" transform="scale(0.5 0.5)" d="M267.741 581.484C269.443 581.468 271.088 581.725 272.609 582.516C274.795 583.652 276.796 585.881 277.371 588.319C277.933 590.699 277.528 593.659 276.25 595.742C274.58 598.464 272.373 599.612 269.379 600.417C268.236 600.308 267.029 600.225 265.922 599.906C263.745 599.277 261.609 597.274 260.648 595.25C259.542 592.923 259.156 590.001 260.178 587.591C261.657 584.1 264.461 582.832 267.741 581.484Z"/>
	<path fill="white" transform="scale(0.5 0.5)" d="M282.162 684.391C279.221 678.718 277.758 673.217 279.828 666.894C281.623 661.411 285.587 656.864 290.75 654.275C295.729 651.778 302.002 651.49 307.199 653.449C312.595 655.483 317.554 660.22 319.762 665.595C321.924 670.857 321.817 676.062 319.511 681.25L317.636 684.722C316.472 686.355 315.018 687.924 313.511 689.25C308.934 693.277 302.615 694.617 296.678 693.959C290.272 693.248 285.884 689.234 282.162 684.391Z"/>
	<path fill="#06D3DF" transform="scale(0.5 0.5)" d="M287.396 681.438L301.394 682.144C304.708 682.286 308.075 682.149 310.969 683.999L309.544 685.108C305.483 687.767 300.324 688.885 295.545 687.788C291.978 686.969 289.354 684.369 287.396 681.438Z"/>
	<path fill="#008498" transform="scale(0.5 0.5)" d="M287.396 681.438C285.244 677.464 283.804 673.725 285.167 669.161C286.402 665.025 289.133 661.66 292.981 659.662C296.463 657.854 300.717 657.331 304.497 658.535C308.674 659.865 312.212 662.673 314.049 666.723C315.769 670.518 316.023 674.86 314.443 678.75C313.617 680.782 312.479 682.427 310.969 683.999C308.075 682.149 304.708 682.286 301.394 682.144L287.396 681.438Z"/>
	<path fill="#18B5C2" transform="scale(0.5 0.5)" d="M175.985 248.54C175.091 245.34 173.495 242.149 172.363 239C169.93 232.235 168.441 225.786 167.554 218.658C164.273 192.287 172.96 164.684 189.338 143.986C207.424 121.13 235.978 106.194 264.77 102.923C287.799 100.307 310.451 104.292 331 114.965C335.995 117.559 341.075 120.336 345.491 123.852L325.779 134.277C322.965 135.893 319.842 137.257 317.478 139.5C317.362 140.916 317.633 142.609 318.574 143.75C319.052 144.33 319.235 144.393 319.805 144.75C324.437 143.325 328.937 139.913 333.172 137.534L351.139 128.496C356.978 134.188 362.771 139.827 367.9 146.181C379.982 161.147 387.057 177.935 391.305 196.608C350.223 219.07 317.395 252.532 294.082 292.969C290.129 299.825 286.882 306.987 283.387 314.072C275.475 314.574 267.825 314.273 260 312.988C234.035 308.724 209.074 295.789 192.308 275.223C187.54 269.374 183.983 262.853 179.612 256.758L179.043 255.973C190.95 239.532 205.127 224.089 219.642 209.922C222.059 207.563 234.523 197.245 235.232 194.924C235.512 194.008 235.013 192.998 234.442 192.25C233.668 191.235 232.478 190.665 231.25 190.482C227.877 191.944 224.644 196.038 221.934 198.615C205.527 214.223 189.882 230.656 175.985 248.54Z"/>
	<path fill="#FDA656" transform="scale(0.5 0.5)" d="M270.283 121.658C279.389 120.438 289.666 123.358 297.184 128.514C305.73 134.376 312.595 143.731 314.481 154.022C316.689 166.067 314.759 177.339 307.725 187.47C300.56 197.789 290.901 202.785 278.8 205.011C268.294 205.853 258.308 203.804 249.621 197.659C240.368 191.112 234.417 181.984 232.601 170.76C230.815 159.726 233.327 147.864 239.996 138.836C247.673 128.442 257.826 123.579 270.283 121.658Z"/>
	<path fill="#06D3DF" transform="scale(0.5 0.5)" d="M282.162 684.391C285.884 689.234 290.272 693.248 296.678 693.959C302.615 694.617 308.934 693.277 313.511 689.25C315.018 687.924 316.472 686.355 317.636 684.722C341.077 688.762 362.637 694.829 382.5 708.453L394.022 717.015C396.548 719.032 399.938 722.479 402.981 723.34L408.155 727.34L407.557 727.717C401.011 731.966 396.125 738.086 394.499 745.787C393.032 752.736 394.585 759.804 398.524 765.685C400.566 768.736 403.276 770.788 406.189 772.931C399.226 779.199 394.299 784.816 393.695 794.648C393.284 801.335 395.387 808.755 399.941 813.769C401.624 815.621 403.558 817.14 405.542 818.651C399.021 825.119 394.218 831.633 394.056 841.25L394.779 848.571C390.336 860.26 382.769 871.36 374.756 880.899C372.119 884.037 369.177 886.91 366.176 889.696C365.905 889.948 365.359 890.41 365.383 890.471L352.861 899.78L364.015 904.361L370.365 906.88C397.365 917.31 425.477 924.37 454.068 928.67L467.131 936.414C463.08 936.96 458.372 936.029 454.328 935.524C424.755 931.831 395.383 923.101 367.496 912.798L346.379 904.255C292.091 880.304 241.524 842.924 202.137 798.611C192.886 788.204 184.811 776.719 176.235 765.76C163.989 747.36 152.227 728.801 143.331 708.513L143.75 707.867L147.918 707.783L149.901 708.083L178.122 757.158C181.495 751.572 184.417 745.807 188.054 740.361C197.178 726.696 209.064 714.885 222.74 705.822C240.98 694.379 260.667 686.602 282.162 684.391Z"/>
	<path fill="#4BE7F5" transform="scale(0.5 0.5)" d="M353.937 818.618C355.569 818.664 357.362 818.806 358.9 819.382C362.277 820.647 365.491 823.386 366.93 826.743L367.175 827.354L367.553 828.255C368.55 831.373 368.031 835.162 366.471 838C364.401 841.767 360.777 843.376 356.851 844.523C353.796 844.603 350.849 844.57 348.137 842.975C345.098 841.188 343.044 838.148 342.286 834.725C341.503 831.186 342.001 827.263 344.098 824.25C346.475 820.835 350.088 819.541 353.937 818.618Z"/>
	<path fill="white" transform="scale(0.5 0.5)" d="M147.918 707.783L149.901 708.083L178.122 757.158L195.546 780.647C237.802 832.3 291.929 872.836 352.861 899.78L364.015 904.361L370.365 906.88C397.365 917.31 425.477 924.37 454.068 928.67L467.131 936.414C463.08 936.96 458.372 936.029 454.328 935.524C424.755 931.831 395.383 923.101 367.496 912.798L346.379 904.255C292.091 880.304 241.524 842.924 202.137 798.611C192.886 788.204 184.811 776.719 176.235 765.76C163.989 747.36 152.227 728.801 143.331 708.513L143.75 707.867L147.918 707.783Z"/>
	<path fill="#4BE7F5" transform="scale(0.5 0.5)" d="M317.625 706.188C319.976 705.636 323.807 705.938 326.185 706.278L331.662 707.211C339.498 709.171 348.133 714.793 352.319 721.755C355.061 726.314 357.018 730.162 358.189 735.429C359.11 739.575 359.348 743.976 358.738 748.192L358.612 749C357.744 754.836 355.586 760.27 352.268 765.151C346.171 774.122 337.503 778.415 327.064 780.438C316.849 781.307 307.263 779.934 298.812 773.738C291.007 768.015 285.618 758.792 284.245 749.25C282.765 738.959 285.278 728.522 291.615 720.235C298.206 711.615 307.027 707.56 317.625 706.188Z"/>
	<path fill="white" transform="scale(0.5 0.5)" d="M503.844 175.724L505.485 175.688C566.662 174.665 631.023 198.562 675.148 241.35C722.126 286.906 749.39 346.848 750.174 412.595C751.103 490.57 712.298 564.916 648.391 609.36C642.027 613.786 635.412 617.789 628.597 621.477C627.559 622.038 620.86 625.145 620.552 625.738C620.033 626.735 620.628 632.636 620.643 634.147L620.909 671.206C620.925 678.966 621.678 687.92 619.927 695.5C618.385 702.173 614.922 708.763 610.087 713.639C599.875 723.937 588.963 723.308 575.459 723.409L575.453 605.19C599.882 596.312 621.261 584.171 641.171 567.492C681.032 534.1 706.982 483.351 711.202 431.592C715.549 378.29 697.855 324.376 663.004 283.859C644.411 262.243 621.644 244.055 595.709 231.993C571.817 220.881 546.289 215.123 520.123 213.148C489.09 210.823 455.995 217.642 427.728 230.376C380.04 251.859 340.671 292.952 322.085 342.027C307.451 380.667 303.979 423.155 313.906 463.422C317.071 476.261 321.925 488.777 327.371 500.803C348.916 548.377 392.454 587.385 441.032 605.791L441.006 724.281C428.107 724.43 418.259 724.528 408.25 715.309C403.238 710.693 399.567 703.847 398.118 697.213C396.495 689.775 397.368 681.039 397.357 673.399L397.066 625.954C392.712 624.055 388.596 621.165 384.566 618.641C371.908 610.714 359.798 602.048 348.807 591.908C340.39 584.142 332.01 575.877 324.74 567.02C291.557 526.591 272.935 476.317 270.865 424.201C268.376 361.538 292.281 298.157 334.997 252.35C369.117 215.762 413.096 190.382 462.25 180.341C476.009 177.53 489.835 176.27 503.844 175.724Z"/>
	<path fill="white" transform="scale(0.5 0.5)" d="M547.419 260.717C562.763 261.371 575.277 266.658 584.463 279.322C585.073 280.164 587.325 284.602 587.852 284.902C588.317 285.166 591.736 284.953 592.5 284.995C596.183 285.194 600.033 285.945 603.55 287.035C615.311 290.682 624.916 298.115 630.625 309.16C636.724 320.958 635.929 332.742 631.941 345.011C636.597 345.611 641.069 346.282 645.477 347.95C656.524 352.13 665.57 360.572 670.364 371.397C675.324 382.597 675.238 394.715 670.783 406.062C666.278 417.538 657.586 425.644 646.393 430.494C651.255 436.867 654.437 442.464 655.795 450.462C657.816 462.367 654.794 473.682 647.71 483.362C641.187 492.274 631.194 498.386 620.233 500.015L619.25 500.157C607.905 501.857 597.758 498.726 588.319 492.516C587.339 494.399 587.211 497.196 586.528 499.275C584.631 505.049 580.784 510.396 576.752 514.877C568.161 524.424 557.512 527.813 544.995 528.395L544.992 723.591L537.228 723.591L537.037 527.322C526.487 523.313 519.741 517.201 513.165 508.174C512.163 513.053 512.998 519.772 513.008 524.816L513.072 566.153L513.023 723.467L504.957 723.438L504.987 664.75L504.533 506.887C498.071 516.152 491.645 522.656 480.984 526.887L480.824 723.615L473.479 723.657L473.446 529.084C465.296 530.508 457.327 529.652 449.855 526.055C436.905 519.82 428.121 505.51 423.636 492.373C422.297 492.28 419.312 494.269 417.947 494.855C415.846 495.756 413.587 496.409 411.347 496.86C399.802 499.186 387.261 496.652 377.484 490.132C368.054 483.844 360.564 474.253 358.481 462.913C356.168 450.318 359.008 439.598 366.299 429.22L358.461 424.014C349.901 417.12 343.705 406.116 342.504 395.178C341.131 382.668 343.813 370.919 351.793 361.066C360.229 350.65 371.168 345.515 384.247 344.14C381.842 337.311 380.957 331.288 381.612 324C382.591 313.107 388.792 302.865 397.176 296.043C406.665 288.322 418.264 286.184 430.172 287.464C432.837 280.742 438.146 274.104 443.851 269.713C452.527 263.033 463.711 259.732 474.631 261.267L480.349 262.185C494.351 265.621 502.207 274.269 509.432 286.182C511.282 282.202 513.207 278.806 516.098 275.473C524.322 265.992 535.103 261.616 547.419 260.717Z"/>
	<path fill="#06D3DF" transform="scale(0.5 0.5)" d="M580.332 298.75C581.412 298.585 581.291 298.457 582.349 299C582.577 304.653 582.216 309.48 579.851 314.737C577.653 319.624 573.888 324.1 568.75 325.982C565.421 327.202 561.044 327.713 557.75 326.15C556.392 325.236 555.624 324.325 555.11 322.774C554.045 319.563 554.809 316.517 556.411 313.607C560.836 305.576 572.011 301.42 580.332 298.75Z"/>
	<path fill="#06D3DF" transform="scale(0.5 0.5)" d="M434.486 297.558C441.649 299.733 449.264 302.075 455.226 306.793C458.553 309.426 462.121 313.824 462.493 318.2C462.767 321.427 462.396 323.012 460.379 325.505C457.672 327.224 455.191 327.811 452 327.456C446.739 326.87 441.922 323.817 438.702 319.697C433.385 312.894 433.538 305.646 434.486 297.558Z"/>
	<path fill="#008498" transform="scale(0.5 0.5)" d="M513.322 483.937C519.15 488.141 523.921 490.344 530.822 492.27C545.52 496.374 562.389 495.136 575.734 487.5C577.017 486.766 578.289 486.14 579.275 485.02L580.964 488.25C580.522 493.716 579.31 498.119 576.52 502.882C571.707 511.1 564.166 516.637 554.914 518.91L554 519.129C549.517 520.252 543.816 520.704 539.37 519.273L538.5 518.969C535.142 517.817 532.087 516.338 529.228 514.23C518.721 506.481 515.203 496.415 513.322 483.937Z"/>
	<path fill="#008498" transform="scale(0.5 0.5)" d="M432.34 487.97C433.83 489.194 436.167 489.918 437.958 490.676C445.217 493.747 452.899 495.881 460.757 496.63C476.525 498.134 491.871 493.969 504.167 483.866C503.063 494.525 497.399 506.223 489.08 513.142C481.698 519.28 472.086 522.904 462.446 521.84C453.922 520.898 446.014 514.941 440.802 508.361C436.401 502.805 432.55 495.7 431.221 488.706L432.34 487.97Z"/>
	<path fill="#06D3DF" transform="scale(0.5 0.5)" d="M421.514 295.205L427.593 295.443C426.646 299.292 425.803 303.309 426.095 307.296C426.707 315.653 430.089 323.468 436.507 328.961C442.882 334.418 448.856 336.246 457.165 335.591C456.701 341.163 455.1 346.573 451.816 351.157C445.918 359.39 438.051 362.801 428.252 364.458C419.949 364.532 410.414 361.962 403.912 356.595C396.586 350.548 390.988 341.341 390.16 331.75C389.402 322.958 391.318 314.468 397.134 307.637C403.725 299.897 411.391 296.099 421.514 295.205Z"/>
	<path fill="#06D3DF" transform="scale(0.5 0.5)" d="M589.448 292.377L590.677 292.464C601.309 293.377 612.442 298.169 619.25 306.581C624.491 313.058 627.707 323.352 626.691 331.559L626.568 332.5C625.843 338.336 623.903 343.91 620.57 348.783C614.842 357.155 606.895 361.6 597.103 363.455C588.988 364.198 581.896 363.227 574.918 358.671C566.102 352.915 562.354 345.075 560.198 335.06L566.8 334.779C573.758 333.773 580.005 329.084 583.994 323.445C590.811 313.81 591.319 303.62 589.448 292.377Z"/>
	<path fill="#06D3DF" transform="scale(0.5 0.5)" d="M627.576 352.641C632.138 352.84 636.487 353.279 640.828 354.78C649.784 357.877 657.506 363.958 661.669 372.585C666.149 381.868 667.23 391.96 663.744 401.751C660.204 411.695 652.587 418.799 643.236 423.241L642.791 423.412C629.589 428.416 620.584 425.19 608.459 419.67L608.477 368.352C616.666 364.921 622.016 359.362 627.576 352.641Z"/>
	<path fill="#06D3DF" transform="scale(0.5 0.5)" d="M383.687 352.687C384.56 352.652 389.813 352.158 390.196 352.421C390.921 352.921 392.22 355.804 392.921 356.692C396.853 361.676 402.621 365.438 408.246 368.198L408.513 420.272L405.654 422.117C396.886 427.342 387.573 427.884 377.892 425.433C373.889 424.15 370.092 422.452 366.67 419.982C358.522 414.101 352.151 403.342 350.753 393.385C349.428 383.945 352.631 373.245 358.528 365.827C364.989 357.699 373.549 353.854 383.687 352.687Z"/>
	<path fill="#06D3DF" transform="scale(0.5 0.5)" d="M513.322 483.937L513.086 447.111C520.44 459.475 529.962 468.292 544.167 471.83C556.1 474.801 569.57 472.442 579.974 466.053C587.639 461.346 593.976 453.966 596.131 445.069L596.607 442.5L596.743 441.719C597.868 434.773 595.598 427.098 591.483 421.472C587.167 415.57 580.53 410.915 573.211 409.822C567.932 409.034 562.562 410.296 558.268 413.51C553.052 417.415 550.686 422.65 549.768 428.976C549.161 433.154 550.747 437.451 553.209 440.792C555.759 444.253 559.458 447.215 563.75 447.917C565.252 447.317 566.193 447.05 567.006 445.5C567.683 444.211 567.443 443.052 566.969 441.75C565.268 439.926 563.457 439.58 561.543 438.25C558.742 436.304 557.302 432.874 557.428 429.537C557.549 426.352 559.517 423.144 561.852 421.043C564.36 418.786 567.573 417.404 571 417.675C576.294 418.094 581.539 421.539 584.741 425.65C588.168 430.049 589.814 435.93 588.86 441.452C587.536 449.112 582.912 454.759 576.606 458.981C568.84 464.181 556.423 466.35 547.326 464.386C536.194 461.983 527.373 455.449 521.342 445.808C518.621 441.458 514.797 434.522 513.97 429.484C513.118 424.292 513.718 418.121 513.727 412.857L513.822 377.768L513.72 326.176L513.704 308.881C513.729 304.401 513.607 299.942 514.642 295.55C516.704 286.795 522.736 278.54 530.485 273.987C538.611 269.212 548.671 267.949 557.751 270.455C566.522 272.875 574.178 278.585 578.648 286.565C579.359 287.835 580.075 289.04 580.444 290.458C568.377 294.286 555.467 298.374 549.22 310.379C547.055 314.54 545.605 319.972 547.165 324.528C547.779 326.325 548.654 328.166 549.806 329.68C550.53 330.631 551.938 331.923 552.327 333.002C553.205 335.433 552.899 339.061 553.566 341.75C556.357 353.002 564.855 363.104 575.338 367.939C583.399 371.657 591.57 372.363 600.264 370.945L600.334 407.68L600.35 417.245C600.358 418.665 600.186 420.992 600.694 422.328C600.94 422.972 601.77 423.908 602.25 424.38C604.419 426.511 607.704 428.018 610.452 429.259C616.897 432.173 623.998 434.69 631.178 434.145L637.462 433.312C642.898 439.422 646.321 444.771 647.582 453L647.712 453.785C649.143 462.931 646.248 471.558 640.776 478.859C635.517 485.876 626.76 491.288 618.021 492.418C607.641 493.76 599.216 489.903 590.958 484.121C589.477 483.084 586.875 480.71 585 480.647C583.41 480.594 580.838 482.67 579.925 483.844C579.502 484.386 579.523 484.435 579.275 485.02C578.289 486.14 577.017 486.766 575.734 487.5C562.389 495.136 545.52 496.374 530.822 492.27C523.921 490.344 519.15 488.141 513.322 483.937Z"/>
	<path fill="#06D3DF" transform="scale(0.5 0.5)" d="M432.34 487.97C434.681 484.568 438.174 483.055 438.483 478.363C438.627 476.173 438.201 475 436.75 473.369C433.98 472.597 432.585 475.485 430.892 477.36C425.435 483.408 416.817 487.737 408.808 489.125C399.341 490.767 388.865 488.285 381.087 482.644C373.597 477.212 367.752 468.477 366.471 459.211C365.052 448.947 368.211 440.268 374.344 432.202C378.793 433.686 383.227 434.954 387.951 435.007C398.512 435.124 408.203 430.924 415.751 423.642C416.481 417.876 415.997 411.569 415.999 405.745L415.993 370.707C424.558 372.916 432.212 372.705 440.492 369.383C452.407 364.603 461.829 354.239 464.527 341.533C465.009 339.265 465.303 337.127 465.394 334.814C465.423 334.058 465.241 332.31 465.485 331.654C466.259 329.578 468.772 327.73 469.694 325.37C471.557 320.6 470.563 314.731 468.346 310.25C462.629 298.693 449.574 293.959 438.182 290.101C443.063 282.01 447.834 275.434 456.91 271.732C465.476 268.238 475.584 268.563 484.008 272.291C492.443 276.023 499.299 283.383 502.55 291.997C503.351 294.118 503.879 296.05 503.99 298.316L504.085 321.52L504.113 365.015L504.189 405.185L504.045 428.781C503.986 429.912 503.873 430.729 503.381 431.75C500.119 438.518 497.289 444.748 492.039 450.271C482.886 459.9 471.197 465.673 457.786 465.921C449.184 466.08 439.376 462.189 433.27 456.086C428.715 451.533 425.572 444.848 425.709 438.339C425.84 432.118 428.385 426.184 432.981 421.963C436.712 418.537 441.044 417.212 446.031 417.449C450.036 417.64 453.882 419.586 456.491 422.621C458.526 424.989 460.196 428.476 459.78 431.661C459.288 435.436 457.822 437.565 454.753 439.817C453.093 441.035 451.219 442.01 450.45 444C450.481 445.825 450.427 446.155 451.459 447.75C452.623 448.496 453.328 448.723 454.68 448.627C457.913 448.398 460.367 446.052 462.409 443.736C465.898 439.779 467.873 434.269 467.396 429C466.916 423.697 463.656 418.253 459.585 414.911C454.648 410.857 448.501 409.138 442.18 409.793C435.215 410.516 429.495 413.646 425.105 419.067C420.156 425.178 416.806 433.695 417.765 441.611C418.878 450.8 423.929 459.02 431.206 464.689C440.964 472.291 452.922 474.922 465.047 473.343C480.808 471.289 495.036 460.523 504.467 448.238L504.167 483.866C491.871 493.969 476.525 498.134 460.757 496.63C452.899 495.881 445.217 493.747 437.958 490.676C436.167 489.918 433.83 489.194 432.34 487.97Z"/>
	<path fill="#18B5C2" transform="scale(0.5 0.5)" d="M844.98 256.962L849.155 262.905C871.037 290.981 889.023 323.893 902.107 356.988C904.665 363.457 907.587 370.332 909.223 377.098C915.884 395.904 919.769 415.428 922.781 435.108C925.415 452.324 927.424 469.935 927.637 487.359L934.81 492.652C937.166 495.15 938.622 496.796 938.634 500.396C938.642 502.606 937.731 503.828 936.664 505.656C934.339 509.642 931.93 513.508 928.933 517.037L932.657 524.315C937.146 523.27 950.023 518.995 953.986 521.651C957.101 523.738 964.843 545.276 965.394 549.742C965.687 552.124 964.798 554.297 963.297 556.118C960.236 559.83 952.47 562.085 948.01 564.19C947.512 564.425 945.472 565.16 945.221 565.506C944.83 566.048 945.039 572.029 945.083 573.1C950.273 575.178 962.938 578.587 965.272 583.75C965.783 584.879 965.972 586.079 965.851 587.311C965.425 591.65 963.292 596.821 961.954 601C960.607 605.208 959.521 609.675 957.686 613.699C956.986 615.233 955.925 616.771 954.25 617.327C952.038 618.061 950.008 617.908 947.75 617.597L932.32 615.346C930.913 616.969 929.164 618.596 928.478 620.661C929.952 623.865 931.686 626.945 933.446 630C935.725 633.958 938.466 637.402 936.89 642.153C935.247 647.103 926.449 651.712 922.314 654.657C918.794 657.163 915.211 660.276 911.275 662.08C909.232 663.017 907.827 663.022 905.635 662.826C900.784 659.804 897.372 654.921 893.617 650.676L887.743 653.528L885.13 666.098C884.854 667.796 884.918 670.352 884.147 671.832C883.579 672.923 882.665 673.686 881.75 674.475C872.774 677.377 862.46 674.64 853.304 675.552L860.326 676.081C852.85 696.698 841.49 715.558 829.25 733.655C825.428 739.306 820.912 744.678 817.391 750.494C797.223 737.57 770.842 733.163 747.54 738.185C735.505 740.778 724.308 745.7 714.238 752.755C712.939 753.665 710.836 754.759 709.907 756.017C698.432 764.274 688.939 776.253 683.268 789.184C681.353 792.483 680.173 796.316 678.824 799.881C676.352 798.924 672.14 800.215 669.532 800.626C653.537 803.151 637.932 807.793 622.052 810.824C623.61 807.909 625.023 804.843 625.557 801.563L625.68 800.75C626.13 798.01 626.324 795.137 625.917 792.374C624.673 783.918 619.504 778.33 612.992 773.363C616.055 770.901 619.055 768.248 621.158 764.891C624.859 758.984 626.144 751.575 624.501 744.75C622.386 735.965 616.752 731.087 609.362 726.654C619.154 719.057 626.362 710.051 629.003 697.664L629.193 696.75C631.07 688.054 630.045 678.091 629.984 669.2L629.968 631.575L631.955 630.562C643.264 624.604 653.914 616.994 663.959 609.126C704.682 577.229 734.532 534.599 749.334 484.909C764.594 433.681 762.21 376.169 743.018 326.262C737.701 312.437 730.706 299.487 723.715 286.469L728.178 287.989C754.345 296.663 783.195 293.505 808.274 282.924C812.68 281.065 816.724 278.508 820.972 276.337L821.027 275.981C829.504 271.373 838.917 264.469 844.98 256.962Z"/>
	<path fill="white" transform="scale(0.5 0.5)" d="M686.053 713.25L687.269 712.901C690.05 714.864 692.427 717.73 694.788 720.186C696.895 717.78 699.806 714.107 702.75 712.868C703.305 713.023 703.495 713.036 704.027 713.417C705.195 714.255 705.893 715.41 706.204 716.75C704.131 719.603 701.62 721.812 698.999 724.148C700.827 727.097 704.195 728.786 705.973 732C705.77 733.445 704.526 734.296 703.519 735.25L702.296 735.372C699.533 733.341 697.127 730.647 694.698 728.225L686.635 736.338L682.95 731.944L690.589 724.284L682.961 716.402L686.053 713.25Z"/>
	<path fill="white" transform="scale(0.5 0.5)" d="M784.51 415.574C788.128 415.509 791.487 415.902 794.75 417.645C799.012 419.922 801.96 424.13 803.115 428.778C804.227 433.252 803.606 437.973 801.152 441.883C798.315 446.404 794.197 448.277 789.23 449.499C785.183 449.552 781.887 449.473 778.238 447.421C774.184 445.141 771.297 441.154 770.228 436.644C769.119 431.959 769.556 427.61 772.263 423.513C775.299 418.916 779.258 416.708 784.51 415.574Z"/>
	<path fill="white" transform="scale(0.5 0.5)" d="M807.879 366.754C805.931 366.144 804.183 365.335 802.447 364.261C797.223 361.03 793.694 355.75 792.424 349.748C791.134 343.648 792.131 337.233 795.591 332C799.038 326.787 804.673 322.957 810.818 321.75C818.001 320.339 823.73 321.976 829.665 326.09C834.673 330.76 838.231 336.409 838.467 343.5C838.678 349.867 835.688 356.596 831.25 361.053C826.458 365.866 820.191 367.908 813.5 367.676C811.593 367.609 809.702 367.314 807.879 366.754Z"/>
	<path fill="#008498" transform="scale(0.5 0.5)" d="M811.518 360.051C814.794 352.217 819.18 344.672 823.516 337.387C824.461 335.8 825.149 333.665 826.644 332.547C829.508 335.645 831.799 338.88 831.721 343.284C831.641 347.751 829.52 353.1 826.129 356.068C822.738 359.036 817.51 360.691 813.019 360.291L811.518 360.051Z"/>
	<path fill="#18B5C2" transform="scale(0.5 0.5)" d="M811.518 360.051C809.305 359.35 807.037 358.443 805.094 357.165C801.698 354.932 799.729 351.361 798.937 347.439C798.102 343.309 799.338 338.48 801.748 335.063C804.103 331.725 808.154 329.067 812.253 328.543C817.787 327.835 822.244 329.043 826.644 332.547C825.149 333.665 824.461 335.8 823.516 337.387C819.18 344.672 814.794 352.217 811.518 360.051Z"/>
	<path fill="white" transform="scale(0.5 0.5)" d="M721.506 637.609C724.714 637.311 728.575 637.262 731.695 638.112L732.5 638.347C734.075 638.797 735.621 639.246 737.095 639.975C743.012 642.898 747.22 648.611 749.341 654.75C751.417 660.76 750.756 667.497 747.854 673.12C744.095 680.405 738.325 684.028 730.703 686.384C724.839 687.103 719.229 686.622 713.958 683.682C707.971 680.343 703.831 674.782 702.075 668.182C700.481 662.191 701.322 654.609 704.644 649.343C708.715 642.891 714.114 639.298 721.506 637.609Z"/>
	<path fill="#008498" transform="scale(0.5 0.5)" d="M844.98 256.962L849.155 262.905C871.037 290.981 889.023 323.893 902.107 356.988C904.665 363.457 907.587 370.332 909.223 377.098C915.884 395.904 919.769 415.428 922.781 435.108C925.415 452.324 927.424 469.935 927.637 487.359C922.062 483.196 916.492 479.156 910.225 476.086C905.921 477.519 903.713 479.026 900.548 482.263L894.7 489.384L885.906 486.625C884.457 481.58 883.879 476.111 882.961 470.932C881.084 468.88 879.821 468.676 877.131 468.068C870.658 462.488 863.165 459.275 855.118 456.704C836.183 450.653 819.283 441.197 810.022 422.74C800.742 404.247 801.596 385.919 807.879 366.754C809.702 367.314 811.593 367.609 813.5 367.676C820.191 367.908 826.458 365.866 831.25 361.053C835.688 356.596 838.678 349.867 838.467 343.5C838.231 336.409 834.673 330.76 829.665 326.09C831.561 322.952 839.718 316.822 839.465 313.394C839.204 309.842 838.358 306.146 837.787 302.621C837.145 298.659 836.676 292.952 834.698 289.453C833.532 287.391 831.304 285.586 829.579 283.988C826.77 281.386 823.966 278.725 820.972 276.337L821.027 275.981C829.504 271.373 838.917 264.469 844.98 256.962Z"/>
	<path fill="#18B5C2" transform="scale(0.5 0.5)" d="M849.155 262.905C871.037 290.981 889.023 323.893 902.107 356.988C904.665 363.457 907.587 370.332 909.223 377.098C906.258 376.312 904.924 373.957 902.951 371.791C900.291 368.871 897.408 365.855 894.35 363.363C890.234 360.007 886.152 356.891 881.408 354.443C879.384 353.399 877.288 352.542 875.168 351.713C874.775 351.56 873.295 351.15 873.102 350.918C872.605 350.319 872.138 344.345 871.989 343.318C871.033 336.74 869.666 330.283 868.04 323.839C863.156 304.486 855.622 283.064 841.969 268.109L849.155 262.905Z"/>
	<path fill="#18B5C2" transform="scale(0.5 0.5)" d="M863.821 364.718C869.502 365 874.115 365.868 879.07 368.921C884.894 372.511 889.936 379.93 891.32 386.547C892.763 393.445 891.552 401.425 887.575 407.289C882.325 415.033 875.472 418.471 866.539 420.066C859.635 420.379 852.781 419.571 846.981 415.403C841.681 411.595 838.055 405.332 836.929 398.944L836.793 398.116L836.51 396.148C835.983 388.377 837.334 380.66 842.665 374.651C848.515 368.057 855.158 365.302 863.821 364.718Z"/>
	<path fill="#003F6D" transform="scale(0.5 0.5)" d="M853.304 675.552C850.841 675.464 848.371 675.421 846.289 673.926C842.323 671.081 841.595 658.341 840.778 653.549L833.393 650.239C828.649 655.757 824.291 660.661 817.742 664.001L815.099 662.588C810.15 659.628 805.484 656.008 800.82 652.608C798.004 650.555 794.617 648.487 792.223 645.942C791.225 644.88 790.262 643.531 790.007 642.068C789.574 639.573 790.92 637.377 792.031 635.261C794.352 630.84 796.817 626.59 799.705 622.515L794.556 615.394L774.019 618.481C772.111 617.219 770.737 616.255 769.694 614.183C767.305 609.435 760.575 586.654 762.25 582.376C764.16 577.498 776.276 574.625 780.927 572.687C780.927 571.471 781.331 564.374 780.929 563.807C780.798 563.621 778.182 562.745 777.798 562.594C773.023 560.726 764.757 558.204 761.848 553.811C760.016 551.045 760.726 547.578 761.408 544.539C762.975 537.557 766.057 529.428 769.575 523.218C770.659 521.305 771.848 519.393 773.78 518.236C777.498 516.009 790.804 521.594 795.283 522.834L799.431 516.554L795.394 509.006C793.639 505.57 790.979 500.836 792.474 496.979C794.336 492.177 815.69 479.337 821.103 476.875C826.406 479.758 829.61 484.041 833.616 488.401L834.731 488.456C835.327 488.473 841.654 488.01 841.74 487.881C841.999 487.491 842.145 485.262 842.233 484.692C842.683 481.797 843.377 471.279 845.35 469.445C846.191 468.663 847.102 467.897 848.269 467.678C850.921 467.18 854.264 467.56 856.974 467.586L877.131 468.068C879.821 468.676 881.084 468.88 882.961 470.932C883.879 476.111 884.457 481.58 885.906 486.625L894.7 489.384L900.548 482.263C903.713 479.026 905.921 477.519 910.225 476.086C916.492 479.156 922.062 483.196 927.637 487.359L934.81 492.652C937.166 495.15 938.622 496.796 938.634 500.396C938.642 502.606 937.731 503.828 936.664 505.656C934.339 509.642 931.93 513.508 928.933 517.037L932.657 524.315C937.146 523.27 950.023 518.995 953.986 521.651C957.101 523.738 964.843 545.276 965.394 549.742C965.687 552.124 964.798 554.297 963.297 556.118C960.236 559.83 952.47 562.085 948.01 564.19C947.512 564.425 945.472 565.16 945.221 565.506C944.83 566.048 945.039 572.029 945.083 573.1C950.273 575.178 962.938 578.587 965.272 583.75C965.783 584.879 965.972 586.079 965.851 587.311C965.425 591.65 963.292 596.821 961.954 601C960.607 605.208 959.521 609.675 957.686 613.699C956.986 615.233 955.925 616.771 954.25 617.327C952.038 618.061 950.008 617.908 947.75 617.597L932.32 615.346C930.913 616.969 929.164 618.596 928.478 620.661C929.952 623.865 931.686 626.945 933.446 630C935.725 633.958 938.466 637.402 936.89 642.153C935.247 647.103 926.449 651.712 922.314 654.657C918.794 657.163 915.211 660.276 911.275 662.08C909.232 663.017 907.827 663.022 905.635 662.826C900.784 659.804 897.372 654.921 893.617 650.676L887.743 653.528L885.13 666.098C884.854 667.796 884.918 670.352 884.147 671.832C883.579 672.923 882.665 673.686 881.75 674.475C872.774 677.377 862.46 674.64 853.304 675.552Z"/>
	<path fill="white" transform="scale(0.5 0.5)" d="M850.545 474.201L877.097 475.016L878.977 487.771C879.23 489.441 879.249 491.56 880.092 492.996C886.141 493.122 891.131 494.859 896.549 497.385C899.87 491.911 904.679 487.482 909.162 482.975C917.134 488.152 925.546 493.59 932.556 500.042C928.633 505.77 925.388 512.077 920.836 517.35L920.503 517.728L929.369 531.278L950.571 527.306C954.616 534.893 957.208 543.791 959.735 552.005L938.585 561.015L938.485 577.01L959.975 586.048L951.363 611.738L929.094 606.755C926.505 611.81 923.285 616.274 919.739 620.697L930.943 639.614C929.626 641.372 927.299 642.861 925.569 644.245C919.892 648.788 913.828 653.191 907.533 656.842C903.178 652.453 898.51 646.92 895.116 641.761L894.868 641.376C890.051 644.391 885.588 646.016 880.077 647.329L878.578 662.378L877.992 668.637C868.702 669.643 858.949 669.102 849.6 668.994L847.435 647.825C842.112 646.514 837.598 645.173 832.783 642.446C831.418 642.537 828.906 645.865 827.883 646.932C824.571 650.39 821.259 653.755 817.661 656.918L796.363 640.682L807.327 621.967L796.856 607.243L775.125 611.578L767.947 584.922C769.12 583.818 771.64 583.159 773.17 582.543C778.003 580.597 782.959 578.937 787.645 576.654L787.551 560.45C781.045 557.614 773.401 554.129 767.456 550.242C769.678 541.529 773.384 533.108 776.684 524.761L797.063 530.635C798.674 529.374 799.874 527.386 801.1 525.75C803.27 522.854 805.436 520.019 807.875 517.342L798.512 500.052C804.545 493.772 813.582 489.316 821.01 484.752L832.92 496.993C837.544 494.562 841.76 493.268 846.92 492.685L850.545 474.201Z"/>
	<path fill="#F98440" transform="scale(0.5 0.5)" d="M892.683 517.972L895.997 520.041C907.54 527.847 916.512 540.704 919.1 554.435C920.111 559.793 920.407 565.587 919.735 571C917.208 591.365 909.826 610.962 893.672 624.569C890.392 627.332 886.925 629.452 883 631.15C875.125 634.556 866.251 635.613 857.75 634.557C843.235 632.753 830.325 623.202 821.385 612C814.748 603.683 810.294 593.454 808.225 583.031C807.607 579.917 807.483 576.823 807.08 573.69C806.621 570.121 806.801 566.078 807.159 562.503C808.156 552.557 811.907 538.981 819.253 531.803L820.137 533.018L819.5 533.745C819.212 534.224 819.07 534.785 818.76 535.251L816.997 537.997L814.497 542.497C814.024 543.685 813.677 544.892 812.997 545.997L812.622 546.5C812.48 547.633 812.589 547.264 812.268 548.216L811.245 551.5C810.929 552.53 810.635 553.424 810.466 554.497L810.245 555.75C809.799 556.962 810.002 558.264 809.497 559.279C809.186 559.906 809.219 559.598 809.217 560.372L809.233 570.25C810.745 572.021 810.938 574.385 811.68 576.536C813.792 582.656 817.62 588.496 822.644 592.631L823.322 593.179L824.665 594.276C833.991 601.598 848.51 605.771 860.312 604.235C868.574 603.16 875.562 600.805 882.429 595.987C898.513 584.702 901.193 565.274 904.314 547.397C904.996 543.491 906.77 539.075 907.059 535.25C907.201 533.366 906.194 532.689 905.003 531.497L905 530.75L898.255 524.25L897.75 524.245L896.5 522.75L895.75 522.745L895.003 521.997C894.224 520.569 895.351 521.846 894.255 520.75L893.75 521.245L892.755 520.25L892.25 520.245L891.291 518.765L892.683 517.972Z"/>
	<path fill="#FDA656" transform="scale(0.5 0.5)" d="M819.253 531.803L819.228 531.773C821.127 528.377 824.794 525.067 827.797 522.578C831.462 519.54 835.19 516.742 839.643 514.942C846.871 512.02 853.311 510.722 861 509.755C871.534 508.43 883.796 512.605 892.683 517.972L891.291 518.765L892.25 520.245L892.755 520.25L893.75 521.245L894.255 520.75C895.351 521.846 894.224 520.569 895.003 521.997L895.75 522.745L896.5 522.75L897.75 524.245L898.255 524.25L905 530.75L905.003 531.497C906.194 532.689 907.201 533.366 907.059 535.25C906.77 539.075 904.996 543.491 904.314 547.397C901.193 565.274 898.513 584.702 882.429 595.987C875.562 600.805 868.574 603.16 860.312 604.235C848.51 605.771 833.991 601.598 824.665 594.276L823.322 593.179L822.644 592.631C817.62 588.496 813.792 582.656 811.68 576.536C810.938 574.385 810.745 572.021 809.233 570.25L809.217 560.372C809.219 559.598 809.186 559.906 809.497 559.279C810.002 558.264 809.799 556.962 810.245 555.75L810.466 554.497C810.635 553.424 810.929 552.53 811.245 551.5L812.268 548.216C812.589 547.264 812.48 547.633 812.622 546.5L812.997 545.997C813.677 544.892 814.024 543.685 814.497 542.497L816.997 537.997L818.76 535.251C819.07 534.785 819.212 534.224 819.5 533.745L820.137 533.018L819.253 531.803Z"/>
	<path fill="#FEC377" transform="scale(0.5 0.5)" d="M852.777 517.688L853.144 517.612C861.21 516.751 873.16 518.637 879.75 523.636C883.4 526.405 885.453 531.514 886.082 535.942C887.359 544.923 883.494 554.746 878.476 562L878.024 562.674C871.548 572.118 860.99 576.913 850.064 578.843C846.269 579.55 842.316 579.49 838.5 579.046C835.519 578.7 832.59 578.18 829.769 577.131C824.662 575.233 819.909 572.491 817.598 567.31L817.317 566.648C816.968 565.839 816.712 565.135 816.603 564.25C815.319 553.777 822.287 538.615 828.658 530.537C835.07 522.409 842.646 518.844 852.777 517.688Z"/>
</svg>
