<svg xmlns="http://www.w3.org/2000/svg" width="512" height="512">
  <path fill="#fff" d="M66.142 266.235c-.727-19.69 1.415-39.645 6.726-58.625 7.648-27.328 22.417-53.808 41.738-74.62 4.318-4.651 8.799-9.317 13.507-13.571 14.716-13.294 32.084-24.622 50.241-32.594l14.787-5.752c2.316-.793 5.556-1.306 7.636-2.454.887-.49 2.286-3.5 2.949-4.479.723-1.068 1.561-2.075 2.38-3.072 11.905-14.491 29.348-23.23 48.099-23.994 16.147-.657 34.204 6.465 45.954 17.455 3.027 2.831 5.743 5.948 8.231 9.258.757 1.008 2.098 3.581 3.081 4.22.49.32 1.516.506 2.117.71l5.64 1.956 9.654 3.777c10.123 4.105 19.716 9.194 29.006 14.932 39.616 24.47 69.746 65.023 81.871 109.985 3.643 13.512 5.555 27.725 5.938 41.702l-.125 19.104c-1.632 21.166-6.562 41.924-15.291 61.307-1.629 3.614-3.226 7.337-5.194 10.782-.342.6-1.291 1.872-1.39 2.495-.011.072.092.113.138.171.674.839 1.364 1.667 1.976 2.553 3.707 5.424 6.308 10.805 8.295 17.075.613 1.937.873 4.678 1.814 6.402l-5.097-.108-21.207.118c-6.473 8.044-13.169 15.624-20.723 22.685-15.482 14.471-34.122 26.78-53.487 35.371-16.329 7.245-33.837 12.118-51.471 14.872l-6.502.869c-.634.074-2.087.049-2.507.482-.365.376-.748 1.385-1.033 1.87l-1.986 3.017-8.594 12.657-7.163 10.567-19.67-28.328c-7.202-.618-14.425-1.941-21.49-3.451-41.01-8.768-79.382-31.423-106.437-63.568l-5.337-6.507-23.854.094c-1.12.085-2.621.404-3.635-.13.254-1.824 1.063-3.75 1.7-5.47 2.251-6.074 5.319-11.495 8.947-16.829l1.349-1.58c.151-.177.987-1.029 1.006-1.178.013-.104-.685-1.233-.754-1.357l-2.725-5.169c-11.276-22.715-18.21-48.26-19.108-73.65Z"/>
  <path fill="#64B8C3" d="m346.896 328.776 10.581-6.541.174.356c.635 1.213 2.378 2.423 3.42 3.362l8.512 7.6c.832.738 2.19 1.641 2.745 2.583l-.323.261c-3.534 2.896-6.543 6.738-9.76 9.998l-15.35-17.618ZM391.079 321.977l7 4.053c1.114.68 2.474 1.357 3.429 2.234l-15.603 18.445c-1.103-1.402-2.605-2.646-3.869-3.913l-6.298-6.544c.551-.962 2.261-2.024 3.135-2.755 1.897-1.584 11.663-9.165 12.133-11.14l.073-.38ZM138.566 340.724c2.298.009 6.324-.287 8.39.706l7.137 61.046-2.995-2.148-17.685-14.046 3.468-31.23c.513-4.702.61-9.733 1.685-14.328ZM373.572 337.894c1.267 1.615 2.147 3.904 3.026 5.767 1.421 3.019 3.28 6.553 4.113 9.753.714 2.738.882 5.863 1.251 8.685l2.515 18.804c-5.171 5.453-11.465 10.263-17.359 14.897l-6.722 5.248 4.264-33.187 1.232-9.27c.23-1.704.317-3.603.788-5.25.478-1.668 1.329-3.278 2.036-4.864l4.856-10.582Z"/>
  <path fill="#008498" d="m302.55 331.82 21.886 11.521 8.311 4.449c2.233 1.19 4.676 2.3 6.767 3.717 3.654 2.48 6.315 6.084 7.75 10.243l.632 2.16c.663 2.36.534 5.065.544 7.504l.01 10.809.075 26.142c-10.309 6.594-22.007 11.515-33.591 15.355-13.759 4.561-27.395 7.677-41.836 9.063-1.184-5.035-1.595-10.42-2.413-15.538l-5.101-32.373-1.68-11.843c-.334-2.163-.567-4.44-1.16-6.548l5.446-8.113 9.974 10.778 24.386-37.326Z"/>
  <path fill="#64B8C3" d="m252.488 65.605.41-.052c11.128-.977 22.831 3.189 31.41 10.16 9.758 7.93 15.149 18.449 16.315 30.928 1.115 11.947-2.592 23.59-10.348 32.747-7.575 8.945-19.022 14.887-30.713 15.855-11.333.718-22.83-2.621-31.758-9.766-9.076-7.263-15.33-18.21-16.591-29.811-1.264-11.624 1.893-24.096 9.333-33.241 8.322-10.228 18.98-15.54 31.942-16.82Z"/>
  <path fill="#fff" d="m276.248 113.832 10.798 5.047-6.441 12.037c-.093.23-.322.447-.48.64-1.555-.67-3.074-1.969-4.504-2.9l-5.046-3.009c2.792-3.938 4.541-7.123 5.673-11.815ZM249.269 129.686c4.416 1.603 9.337 1.412 13.8.177l-.202 11.012.017.518c-.128.113-.218.299-.384.34-.869.209-2.426-.007-3.354-.01l-9.947-.027.07-12.01ZM235.333 114.125l.344-.084c.15-.005.333-.042.448.055.314.261 1.051 3.411 1.286 4.034 1.138 3.003 2.877 4.91 5.119 7.151l-9.887 5.844c-.262.055-.502.07-.768.086-2.595-3.875-4.727-8.157-6.591-12.424l10.05-4.662ZM279.035 88.12c2.276 2.594 4.166 6.29 5.793 9.322.588 1.095 1.447 2.345 1.733 3.552l-9.686 5.088c-.45.159-.202.117-.75.084l-.356-1.041c-1.361-4.032-3.784-7.064-6.665-10.129.251-.566 1.706-1.3 2.269-1.681l7.662-5.195ZM233.137 88.374l10.404 6.457c-3.504 3.46-5.79 6.598-7.32 11.287l-10.959-5.086 7.875-12.657ZM249.347 79.375l14.13.011-.212 7.991c-.041 1.19.087 2.7-.31 3.803l-.929-.055c-4.604-.85-8.672-.803-13.17.587l-.242-12.087.733-.25ZM254.571 92.828c3.993-.258 7.924.543 11.338 2.684 3.837 2.406 7.293 7.269 8.194 11.715.957 4.725-.233 9.68-2.914 13.648-3.052 4.519-7.074 6.853-12.377 7.883-4.722.332-9.074-.452-12.993-3.19-4.106-2.87-6.748-7.064-7.605-12.002-.863-4.966.524-9.683 3.482-13.676 3.166-4.273 7.73-6.291 12.875-7.063Z"/>
  <path fill="#008498" d="m227.942 322.281.124 2.404c.786.591 1.781.901 2.62 1.449 2.691 1.962 5.603 3.626 8.417 5.403l9.884 6.464c2.258 1.473 4.654 2.848 6.733 4.567l.283.237 17.08-11.069c3.145-2.029 6.59-3.885 9.456-6.291 1.093-.596 2.255-1.579 3.179-2.41l16.832 8.785-24.386 37.326-9.974-10.778-5.447 8.113c.594 2.108.827 4.385 1.16 6.548l1.68 11.843 5.101 32.373c.82 5.118 1.23 10.503 2.414 15.538-11.494.95-23.3 1.758-34.773.09-26.284-2.699-52.643-11.12-75.281-24.897l-.067-20.005-.138-14.192c-.035-3.328-.417-7.048.513-10.287 1.194-4.155 3.908-8.16 7.481-10.63 2.278-1.573 4.867-2.699 7.297-4.014l11.724-6.372c2.335-.862 4.567-2.365 6.75-3.568l12.929-6.928 18.409-9.699Z"/>
  <path fill="#64B8C3" d="M249.561 366.25c2.177.272 4.377.072 6.564.088l6.618.143c.594 2.108.827 4.385 1.16 6.548l1.68 11.843 5.101 32.373c.82 5.118 1.23 10.503 2.414 15.538-11.494.95-23.3 1.758-34.773.09l.547-.114c.994-2.724 1.18-6.357 1.683-9.259l3.995-24 3.047-18.976c.784-4.63 1.968-9.578 1.964-14.274Z"/>
  <path fill="#003957" d="m227.942 322.281.124 2.404c.786.591 1.781.901 2.62 1.449 2.691 1.962 5.603 3.626 8.417 5.403l9.884 6.464c2.258 1.473 4.654 2.848 6.733 4.567l.283.237 17.08-11.069c3.145-2.029 6.59-3.885 9.456-6.291 1.093-.596 2.255-1.579 3.179-2.41l16.832 8.785-24.386 37.326-9.974-10.778-5.447 8.113-6.618-.143c-2.187-.016-4.387.184-6.564-.088-2.166-2.14-3.927-5.569-5.623-8.113-1.383.991-2.602 2.632-3.767 3.883-2.282 2.448-4.568 4.771-6.663 7.393l-23.975-37.433 18.409-9.699Z"/>
  <path fill="#fff" d="m243.938 358.137 8.422-8.964c1.182-1.259 2.607-2.415 3.645-3.781l12.185 12.976-5.447 8.113-6.618-.143c-2.187-.016-4.387.184-6.564-.088-2.166-2.14-3.927-5.569-5.623-8.113Z"/>
  <path fill="#64B8C3" d="M319.471 116.698c.541-8.226-.226-15.291-2.243-23.251 5.231 1.808 10.329 4.255 15.325 6.625 37.083 17.582 66.873 47.802 84.712 84.66 13.285 27.447 18.151 57.752 15.558 88.018-.339 3.952-.666 7.944-1.298 11.862-1.943 12.034-5.258 23.697-8.966 35.29l3.622 1.177c-.791 1.195-1.888 2.422-3.028 3.291-1.617 1.232-4.453 2.22-5.199 4.158l-3.502 7.243c-2.204-1.039-4.092-3.002-6.368-4.137l-6.576-3.37c-.954-.877-2.315-1.555-3.428-2.234l-7.001-4.053-.151-6.84c-4.307 3.02-8.765 5.837-13.913 7.163-1.537.396-3.428.756-5.009.486-1.345-.229-2.801-.885-4.053-1.428-3.607-1.564-6.966-3.659-10.197-5.882-.016 2.046.315 4.826-.279 6.759l-10.581 6.541-5.351 2.138c-6.877 3.097-12.437 6.267-17.109 12.427l-21.886-11.52-16.832-8.786c-.924.831-2.087 1.814-3.179 2.41-2.865 2.406-6.31 4.262-9.456 6.291l-17.08 11.069-.283-.237c-2.079-1.719-4.475-3.094-6.733-4.567l-9.884-6.464c-2.814-1.777-5.726-3.441-8.418-5.403-.838-.548-1.833-.858-2.619-1.449l-.124-2.404-18.409 9.699-12.93 6.928c-2.182 1.203-4.413 2.706-6.75 3.568-5.18-6.555-12.621-11.274-20.204-14.57-5.022 4.86-9.29 11.085-13.554 16.617-.918-.339-2.086-1.572-2.893-2.202l-10.335-8.454-11.637 11.097-15.759-17.36c-3.615 1.676-7.288 3.219-10.733 5.237-2.341 1.371-4.459 3-6.591 4.671l-8.298-18.567c-15.965-41.577-14.946-89.428 3.344-130.13 13.162-29.288 33.804-54.643 60.084-73.174 3.375-2.38 6.817-4.858 10.365-6.967 9.75-5.794 20.255-10.559 30.844-14.585-2.629 8.746-2.949 17.124-1.875 26.142 2.084 10.809 6.056 20.401 12.92 29.104 10.392 13.18 26.038 21.938 42.72 23.854 16.942 1.946 34.292-2.48 47.732-13.184 13.575-10.814 21.523-26.133 23.488-43.307Z"/>
  <path fill="#fff" d="M390.533 184.234c.684 1.093 1.131 2.34 1.806 3.451 2.089 3.436 4.954 4.934 8.575 6.415-1.977.91-4.185 1.757-5.853 3.175-2.09 1.779-3.183 4.482-4.29 6.92-1.06-2.04-2.108-4.291-3.717-5.97-1.82-1.9-4.51-2.993-6.873-4.029 2.159-.901 4.543-1.876 6.239-3.533 1.704-1.664 2.936-4.353 4.113-6.429ZM123.164 184.971c1.34 1.894 2.468 4.071 4.123 5.713 1.63 1.62 3.964 2.855 5.888 4.131-1.4.812-2.989 1.5-4.279 2.47-2.191 1.647-3.757 4.06-5.21 6.34l-.507.524c-.844-1.096-1.442-2.358-2.186-3.524-1.798-2.818-4.374-4.238-7.147-5.947 2.513-1.532 4.891-3.01 6.704-5.387 1.005-1.318 1.791-2.883 2.614-4.32ZM210.436 278.051l-.345.122c-1.47-.206-3.11-1.489-4.216-2.445-4.925-4.261-6.969-9.435-7.416-15.853-.157-2.258.043-4.337 1.624-6.07 1.709-1.875 3.512-2.264 5.922-2.405.707 9.11 2.138 17.797 4.431 26.651ZM305.546 251.786c2.291-.032 3.995.082 5.716 1.823 1.642 1.662 2.308 4.278 2.23 6.573-.192 5.515-2.245 10.976-6.35 14.755-1.712 1.577-3.647 2.527-5.825 3.318 1.313-4.791 2.483-9.653 3.174-14.577.555-3.954.733-7.916 1.055-11.892ZM335.4 159.238l15.158 15.06-15.339 15.254-15.39-15.323 15.57-14.99ZM177.769 158.625l.643-.036 10.131 10.286c1.56 1.526 3.951 3.211 5.132 5.004l-15.3 15.576-.5.099-15.177-15.767 15.071-15.162Z"/>
  <path fill="#008498" d="M319.471 116.698c.474 1.629.156 3.383.014 5.052-.684 7.998-2.975 16.413-6.859 23.478-8.647 15.724-22.2 26.481-39.438 31.41-16.26 4.65-33.647 2.303-48.355-5.89-14.406-8.026-25.726-21.55-30.208-37.537-1.007-3.592-1.399-6.908-1.972-10.569-.121-.777-.057-1.626-.042-2.411 2.084 10.809 6.056 20.401 12.92 29.104 10.392 13.18 26.038 21.938 42.72 23.854 16.942 1.946 34.292-2.48 47.732-13.184 13.575-10.814 21.523-26.133 23.488-43.307ZM104.86 265.47c-.491-1.038-.478-2.144-.525-3.275-.162-3.955.588-7.951 1.904-11.665 3.64-10.263 11.126-17.236 20.825-21.819 9.543-4.508 20.418-5.086 30.36-1.477 9.632 3.498 17.582 11.245 21.825 20.516 2.71 5.922 3.234 12.557 3.327 18.981 1.936 2.055 3.487 4.298 3.417 7.252-.064 2.681-.9 4.584-2.249 6.825.002 1.709-.851 3.37-2.069 4.567-1.632 1.607-3.582 1.568-5.756 1.564-1.845 6.078-4.342 12.267-7.99 17.502-1.638 2.352-3.611 4.584-5.679 6.567-.382.365-2.163 1.713-2.294 2.094-.147.429-.007 1.591-.01 2.083l-.025 5.676c-.002.362.112 1.471-.008 1.764-.19.457-1.029.935-1.422 1.149-.534 1.28-13.192 7.251-15.354 8.196-2.61-1.341-13.93-6.935-15.35-8.979-.593-.421-1.832-1.376-2.21-1.974-.074-.117-.03-1.15-.035-1.327l-.116-4.487c-.006-.237.055-1.018-.03-1.227-.235-.577-1.182-1.418-1.611-1.901l-3.66-4.33c-4.68-5.837-7.955-12.207-10.274-19.295-1.058-.07-2.181-.101-3.216-.337-2.822-.644-6.006-3.153-7.401-5.69-1.165-2.118-1.645-4.748-.944-7.098.422-.972.288-2.704.664-3.864 1.06-3.273 3.018-4.53 5.906-5.99Z"/>
  <path fill="#fff" d="M183.744 280.808c-2.249 2.128-4.112 2.832-7.115 3.408l2.657-19.286a16.54 16.54 0 0 1 3.29 1.801c1.936 2.055 3.487 4.298 3.417 7.252-.064 2.681-.9 4.584-2.249 6.825ZM98.29 275.325c.422-.972.288-2.704.664-3.864 1.06-3.273 3.018-4.53 5.906-5.99.496 4.078 1.007 8.099 2.015 12.09.585 2.317 1.751 4.77 2.011 7.109-3.062-.358-5.956-1.242-7.971-3.755-1.368-1.704-2.026-3.524-2.625-5.59ZM127.787 322.991l.004-8.651c5.271 3.818 11.45 6.16 18.041 5.13 4.37-.684 8.191-2.457 11.98-4.661.123 2.826-.046 6.236.68 8.964-.535 1.28-13.193 7.252-15.355 8.197-2.61-1.341-13.93-6.935-15.35-8.979Z"/>
  <path fill="#fff" d="M162.242 245.332c5.108 4.766 8.756 9.942 11.764 16.254.886 1.856 1.982 4.121 2.281 6.171.29 1.984-.208 4.577-.516 6.548-1.476 9.464-4.312 19.251-9.813 27.205-4.69 6.781-11.645 13.225-20.083 14.642-6.294 1.057-11.683-1.452-16.728-4.958a42.27 42.27 0 0 1-7.324-6.87c-9.453-11.255-13.153-25.714-11.89-40.175 5.671.095 11.192-.041 16.784-1.082 13.087-2.438 25.377-9.341 35.525-17.736Z"/>
  <path fill="#64B8C3" d="M126.874 267.784c1.142-.125 2.439-.205 3.544.151 1.811.584 3.338 2.038 4.097 3.769.786 1.793.855 3.777.024 5.566-1.018 2.191-2.708 3.137-4.867 3.92-1.388.067-2.514.127-3.841-.375-1.912-.722-3.248-2.216-4.005-4.091-.645-1.599-.606-3.056.075-4.631 1.029-2.381 2.645-3.45 4.973-4.31ZM155.745 267.541c1.374-.172 2.845-.233 4.15.299 1.895.771 3.203 2.152 3.959 4.044.635 1.591.596 3.535-.155 5.07-1.059 2.165-2.56 3.302-4.803 4.087-1.373.214-2.601.187-3.925-.293-1.58-.574-2.945-1.995-3.625-3.513-.723-1.613-1.025-3.55-.364-5.235.893-2.273 2.63-3.505 4.763-4.459Z"/>
  <path fill="#008498" d="M341.545 330.914c-1.041-.613-2.776-.346-3.993-.592-3.087-.625-5.847-1.459-8.63-2.999-5.268-2.915-7.888-7.13-9.522-12.753.555.567 1.12 1.168 1.773 1.625 1.98 1.382 4.192 1.678 6.527 1.152 2.603-.586 4.808-2.188 5.617-4.814.909-2.953-.269-7.848-.771-10.853l-1.3-8.822c-.73-6.147-1.498-12.737-.93-18.922.249-2.7.999-6.72 2.992-8.671.493-.482 1.784-1.075 2.103-1.548.116-.172.132-1.54.162-1.866.174-1.925.417-3.807.799-5.702 1.085-5.37 3.044-10.197 6.038-14.798 5.303-8.15 13.953-13.848 23.423-15.84 10.717-2.255 22.047-.038 31.164 6.045 10.825 7.223 16.8 19.161 18.9 31.74.759 4.543.913 9.071 1.052 13.663.176 5.841.215 11.683-.344 17.508-.254 2.652-.758 5.308-1.264 7.923-.459 2.367-1.053 5.087-.51 7.49 1.107 4.908 3.639 7.469 7.728 10.022l3.622 1.177c-.791 1.195-1.888 2.422-3.028 3.291-1.617 1.232-4.453 2.22-5.199 4.158l-3.502 7.243c-2.204-1.039-4.092-3.002-6.368-4.137l-6.576-3.37c-.954-.877-2.315-1.555-3.428-2.234l-7.001-4.053-.151-6.84c-4.307 3.02-8.765 5.837-13.913 7.163-1.537.396-3.428.756-5.009.486-1.345-.229-2.801-.885-4.053-1.428-3.607-1.564-6.966-3.659-10.197-5.882-.016 2.046.315 4.826-.279 6.759l-10.581 6.541-5.351 2.138Z"/>
  <path fill="#fff" d="M409.906 268.625c.522-.107 1.063-.148 1.594-.057 1.331.23 2.703 1.925 3.378 2.998 1.214 1.926 1.187 4.209.708 6.366-.476 2.138-1.293 4.544-3.216 5.762-1.587.637-3.223.965-4.896 1.272.46-2.264.999-4.544 1.324-6.83l.602-6.115c.085-1.146.02-2.338.506-3.396ZM335.526 265.375l.56.063 3.723 18.818-2.786-.332c-.945-.211-1.815-.428-2.71-.799-1.725-2.09-2.261-5.637-2.308-8.294-.065-3.671.938-6.796 3.52-9.456ZM364.666 269.661c3.113-1.112 6.189-2.383 8.953-4.223 5.524-3.676 9.074-9.156 11.884-15.063l1.887-4.615c2.927 6.335 6.531 12.425 11.879 17.041a22.428 22.428 0 0 0 5.733 3.594c.174.076 1.727.657 1.757.712.17.312.088 1.942.103 2.368.244 6.563-.29 13.66-2.554 19.867-4.251 11.653-11.63 22.596-23.16 27.953-3.625 1.683-7.416 2.77-11.286 1.348-11.424-4.198-19.686-14.047-24.612-24.893-3.228-7.107-5.87-15.805-5.981-23.652 4.905 1.142 9.556 1.657 14.608 1.652-1.061 1.88-1.062 3.861-.62 5.923.371 1.73 1.916 3.428 3.406 4.296 1.383.805 3.613 1.094 5.175.632 1.8-.533 3.587-1.786 4.496-3.452.973-1.783 1.274-3.976.656-5.928l-.115-.344c-.438-1.403-1.22-2.176-2.209-3.216Z"/>
  <path fill="#008498" d="M387.601 269.308c1.372-.127 2.959-.178 4.267.291 2.131.764 3.685 1.925 4.61 4.048.752 1.727.56 4.038-.219 5.735-1.025 2.238-2.449 3.24-4.687 4.038-1.642.33-3.122.314-4.7-.31-2.082-.822-3.51-2.379-4.315-4.445-.69-1.769-.389-4.085.392-5.769.91-1.959 2.696-2.927 4.652-3.588ZM206.005 251.4l-1.248-43.33c12.292-13.083 28.319-23.007 46.677-23.588 11.864-.375 26.128 2.014 35.023 10.596.903.871 1.925 2.773 2.845 3.374.276.18 1.52.239 1.948.326 1.323.268 2.67.626 3.924 1.129 8.48 3.395 11.795 12.086 11.84 20.639l-1.468 31.24c-.322 3.976-.5 7.938-1.055 11.892-.691 4.924-1.861 9.786-3.174 14.577l-1.791 5.218c-2.26 5.749-5.118 11.605-8.596 16.719-1.66 2.438-3.514 4.724-5.465 6.933-.5.566-2.161 2.046-2.297 2.762-.118.626.457 2.412.58 3.113l1.47 9.625c.396.38.208.274.5.41-.924.831-2.087 1.814-3.179 2.41-2.865 2.406-6.31 4.262-9.456 6.291l-17.08 11.069-.283-.237c-2.079-1.719-4.475-3.094-6.733-4.567l-9.884-6.464c-2.814-1.777-5.726-3.441-8.418-5.403-.838-.548-1.833-.858-2.619-1.449l-.124-2.404c-.146-.989.193-2.264.358-3.26l1.514-7.584c-9.224-8.851-15.659-21.266-19.377-33.386-2.294-8.854-3.726-17.541-4.432-26.65Z"/>
  <path fill="#fff" d="m230.685 326.134 2.499-12.418c5.267 4.015 10.987 6.69 17.532 7.757 10.784 1.758 20.512-2.423 29.037-8.68.79 4.227 1.211 8.631 2.786 12.651-2.865 2.406-6.31 4.263-9.456 6.292l-17.08 11.069-.283-.237c-2.079-1.719-4.475-3.094-6.733-4.567l-9.884-6.464c-2.814-1.777-5.726-3.441-8.418-5.403Z"/>
  <path fill="#fff" d="M283.844 218.803c2.455 1.18 4.96 2.349 7.17 3.957 4.358 3.17 7.555 8.792 8.342 14.106 3.18 21.458-.46 45.518-13.732 63.149-6.227 8.271-15.593 15.998-26.137 17.456-9.243 1.279-17.178-2.577-24.36-8.019L232 306.748c-12.29-11.65-18.567-30.157-20.583-46.623-.622-5.077-.754-10.135-.885-15.24 4.742.16 9.497.393 14.236.035 22.033-1.663 42.677-11.603 59.076-26.117Z"/>
  <path fill="#008498" d="M274.738 253.3c1.933-.11 3.692.252 5.387 1.22a8.203 8.203 0 0 1 3.881 5.227c.51 2.24-.07 4.481-1.344 6.378-1.393 2.074-3.356 3.08-5.724 3.616-1.823.049-3.41-.075-5.07-.9-2.009-.999-3.455-2.611-4.129-4.763-.699-2.235-.557-4.262.534-6.337 1.415-2.694 3.71-3.652 6.465-4.441ZM235.266 253.074c1.732.04 3.192.28 4.736 1.115 2.058 1.114 3.63 3.296 4.255 5.524.66 2.349.285 4.786-.929 6.877-1.532 2.641-3.989 3.815-6.837 4.513-1.818-.047-3.594-.07-5.169-1.12-2.349-1.567-4.026-4.1-4.447-6.897-.347-2.309.114-4.25 1.516-6.11 1.816-2.408 3.957-3.464 6.875-3.902Z"/>
</svg>