<?xml version="1.0" encoding="utf-8" ?>
<svg xmlns="http://www.w3.org/2000/svg" xmlns:xlink="http://www.w3.org/1999/xlink" width="512" height="512">
	<path fill="white" transform="scale(0.5 0.5)" d="M132.284 532.47C130.83 493.091 135.113 453.18 145.736 415.221C161.033 360.564 190.57 307.605 229.212 265.979C237.847 256.677 246.809 247.346 256.227 238.838C285.659 212.25 320.395 189.594 356.708 173.65L386.283 162.147C390.913 160.559 397.395 159.533 401.553 157.237C403.327 156.258 406.126 150.239 407.452 148.28C408.898 146.144 410.575 144.13 412.212 142.137C436.022 113.154 470.908 95.6756 508.409 94.1487C540.704 92.8338 576.818 107.077 600.319 129.058C606.372 134.72 611.803 140.954 616.78 147.575C618.295 149.591 620.976 154.736 622.942 156.015C623.923 156.653 625.974 157.027 627.176 157.433L638.455 161.345L657.764 168.9C678.011 177.111 697.197 187.288 715.776 198.764C795.008 247.705 855.267 328.811 879.518 418.734C886.805 445.757 890.629 474.184 891.394 502.138L891.143 540.345C887.879 582.679 878.021 624.194 860.561 662.96C857.305 670.188 854.11 677.634 850.175 684.525C849.49 685.724 847.592 688.267 847.395 689.513C847.372 689.657 847.578 689.741 847.67 689.856C849.017 691.534 850.397 693.19 851.622 694.961C859.035 705.81 864.237 716.571 868.211 729.112C869.439 732.986 869.957 738.468 871.84 741.916L861.646 741.701L819.231 741.937C806.286 758.024 792.894 773.185 777.786 787.307C746.822 816.249 709.541 840.865 670.812 858.049C638.155 872.539 603.139 882.285 567.869 887.792L554.865 889.53C553.598 889.677 550.693 889.628 549.852 890.494C549.122 891.246 548.357 893.265 547.786 894.234L543.813 900.269L526.627 925.583L512.299 946.716L472.96 890.06C458.555 888.824 444.109 886.178 429.979 883.158C347.959 865.622 271.217 820.311 217.107 756.022L206.432 743.008L158.723 743.196C156.483 743.366 153.481 744.003 151.453 742.937C151.963 739.289 153.579 735.437 154.855 731.996C159.357 719.848 165.491 709.005 172.749 698.338L175.446 695.178C175.748 694.824 177.421 693.12 177.458 692.821C177.484 692.613 176.088 690.357 175.95 690.108L170.499 679.77C147.947 634.339 134.08 583.249 132.284 532.47Z"/>
	<path fill="#64B8C3" transform="scale(0.5 0.5)" d="M693.791 657.553L714.954 644.47L715.302 645.183C716.571 647.608 720.059 650.028 722.143 651.906L739.167 667.107C740.831 668.581 743.547 670.388 744.656 672.272L744.009 672.794C736.941 678.585 730.925 686.27 724.489 692.789L693.791 657.553Z"/>
	<path fill="#64B8C3" transform="scale(0.5 0.5)" d="M782.158 643.954L796.159 652.06C798.387 653.419 801.107 654.774 803.016 656.528L771.81 693.418C769.604 690.614 766.599 688.127 764.072 685.592L751.475 672.504C752.578 670.581 755.998 668.455 757.745 666.995C761.54 663.825 781.071 648.665 782.012 644.713L782.158 643.954Z"/>
	<path fill="#64B8C3" transform="scale(0.5 0.5)" d="M277.132 681.449C281.729 681.465 289.78 680.873 293.912 682.859L308.185 804.952L302.195 800.656L266.826 772.564L273.761 710.104C274.789 700.7 274.981 690.638 277.132 681.449Z"/>
	<path fill="#64B8C3" transform="scale(0.5 0.5)" d="M747.143 675.789C749.677 679.019 751.438 683.595 753.195 687.323C756.038 693.359 759.755 700.427 761.423 706.829C762.85 712.304 763.186 718.555 763.924 724.197L768.954 761.806C758.612 772.712 746.024 782.333 734.236 791.6L720.792 802.096L729.321 735.723L731.784 717.182C732.244 713.774 732.418 709.977 733.36 706.683C734.315 703.346 736.018 700.127 737.431 696.954L747.143 675.789Z"/>
	<path fill="#008498" transform="scale(0.5 0.5)" d="M605.1 663.641L648.872 686.682L665.494 695.58C669.96 697.959 674.846 700.18 679.027 703.015C686.337 707.973 691.657 715.183 694.528 723.5L695.793 727.821C697.119 732.539 696.859 737.95 696.881 742.828L696.9 764.446L697.049 816.73C676.432 829.918 653.035 839.76 629.868 847.44C602.351 856.563 575.078 862.795 546.197 865.565C543.829 855.496 543.007 844.725 541.369 834.49L531.167 769.743L527.807 746.059C527.14 741.733 526.674 737.177 525.487 732.962L536.381 716.736L556.328 738.292L605.1 663.641Z"/>
	<path fill="#64B8C3" transform="scale(0.5 0.5)" d="M504.977 131.209L505.795 131.106C528.052 129.153 551.458 137.483 568.615 151.425C588.132 167.285 598.913 188.324 601.245 213.282C603.477 237.175 596.062 260.462 580.55 278.777C565.399 296.666 542.507 308.551 519.124 310.485C496.458 311.922 473.463 305.244 455.608 290.955C437.457 276.428 424.947 254.534 422.425 231.332C419.898 208.084 426.211 183.14 441.092 164.85C457.736 144.393 479.052 133.769 504.977 131.209Z"/>
	<path fill="white" transform="scale(0.5 0.5)" d="M552.496 227.664L574.092 237.757L561.21 261.831C561.025 262.292 560.566 262.726 560.25 263.111C557.141 261.773 554.103 259.175 551.242 257.313L541.149 251.295C546.734 243.418 550.233 237.049 552.496 227.664Z"/>
	<path fill="white" transform="scale(0.5 0.5)" d="M498.538 259.373C507.371 262.579 517.213 262.197 526.139 259.726L525.735 281.75L525.767 282.786C525.512 283.012 525.332 283.384 525 283.465C523.262 283.884 520.147 283.451 518.292 283.446L498.398 283.392L498.538 259.373Z"/>
	<path fill="white" transform="scale(0.5 0.5)" d="M470.667 228.25L471.354 228.083C471.655 228.071 472.019 227.998 472.25 228.191C472.877 228.715 474.352 235.015 474.823 236.26C477.098 242.266 480.576 246.079 485.06 250.563L465.285 262.25C464.763 262.36 464.281 262.389 463.75 262.422C458.559 254.673 454.295 246.108 450.567 237.574L470.667 228.25Z"/>
	<path fill="white" transform="scale(0.5 0.5)" d="M558.07 176.24C562.622 181.428 566.402 188.821 569.657 194.884C570.832 197.074 572.55 199.573 573.121 201.987L553.75 212.163C552.85 212.481 553.346 212.397 552.25 212.332L551.537 210.25C548.816 202.186 543.97 196.122 538.208 189.993C538.71 188.861 541.619 187.391 542.745 186.63L558.07 176.24Z"/>
	<path fill="white" transform="scale(0.5 0.5)" d="M466.273 176.749L487.082 189.661C480.074 196.582 475.502 202.858 472.441 212.235L450.525 202.064L466.273 176.749Z"/>
	<path fill="white" transform="scale(0.5 0.5)" d="M498.695 158.75L526.953 158.773L526.531 174.754C526.448 177.133 526.703 180.153 525.91 182.359L524.052 182.25C514.844 180.55 506.708 180.644 497.711 183.424L497.228 159.25L498.695 158.75Z"/>
	<path fill="white" transform="scale(0.5 0.5)" d="M509.142 185.655C517.128 185.139 524.991 186.742 531.819 191.024C539.492 195.836 546.404 205.562 548.206 214.454C550.121 223.905 547.739 233.813 542.378 241.75C536.274 250.787 528.23 255.455 517.624 257.516C508.18 258.181 499.477 256.612 491.638 251.135C483.425 245.396 478.143 237.009 476.428 227.132C474.703 217.199 477.477 207.767 483.393 199.78C489.724 191.233 498.853 187.198 509.142 185.655Z"/>
	<path fill="#008498" transform="scale(0.5 0.5)" d="M455.884 644.563L456.132 649.371C457.705 650.552 459.695 651.172 461.371 652.268C466.754 656.191 472.578 659.52 478.206 663.074L497.974 676.002C502.49 678.948 507.282 681.698 511.439 685.136L512.006 685.61L546.166 663.473C552.457 659.414 559.347 655.701 565.078 650.889C567.263 649.698 569.588 647.733 571.436 646.071L605.1 663.641L556.328 738.292L536.381 716.736L525.487 732.962C526.674 737.177 527.14 741.733 527.807 746.059L531.167 769.743L541.369 834.49C543.007 844.725 543.829 855.496 546.197 865.565C523.208 867.467 499.595 869.083 476.651 865.747C424.081 860.348 371.363 843.505 326.087 815.952L325.954 775.941L325.678 747.557C325.609 740.902 324.844 733.462 326.704 726.984C329.091 718.674 334.52 710.665 341.667 705.725C346.221 702.579 351.399 700.326 356.26 697.696L379.707 684.953C384.379 683.228 388.842 680.222 393.207 677.816L419.066 663.96L455.884 644.563Z"/>
	<path fill="#64B8C3" transform="scale(0.5 0.5)" d="M499.123 732.501C503.475 733.044 507.876 732.644 512.25 732.676L525.487 732.962C526.674 737.177 527.14 741.733 527.807 746.059L531.167 769.743L541.369 834.49C543.007 844.725 543.829 855.496 546.197 865.565C523.208 867.467 499.595 869.083 476.651 865.747L477.743 865.518C479.733 860.071 480.104 852.804 481.111 847L489.1 799L495.195 761.047C496.761 751.787 499.13 741.892 499.123 732.501Z"/>
	<path fill="#003957" transform="scale(0.5 0.5)" d="M455.884 644.563L456.132 649.371C457.705 650.552 459.695 651.172 461.371 652.268C466.754 656.191 472.578 659.52 478.206 663.074L497.974 676.002C502.49 678.948 507.282 681.698 511.439 685.136L512.006 685.61L546.166 663.473C552.457 659.414 559.347 655.701 565.078 650.889C567.263 649.698 569.588 647.733 571.436 646.071L605.1 663.641L556.328 738.292L536.381 716.736L525.487 732.962L512.25 732.676C507.876 732.644 503.475 733.044 499.123 732.501C494.791 728.22 491.268 721.362 487.876 716.273C485.109 718.256 482.671 721.539 480.341 724.04C475.778 728.936 471.206 733.582 467.016 738.825L419.066 663.96L455.884 644.563Z"/>
	<path fill="white" transform="scale(0.5 0.5)" d="M487.876 716.273L504.72 698.346C507.085 695.828 509.934 693.516 512.01 690.784L536.381 716.736L525.487 732.962L512.25 732.676C507.876 732.644 503.475 733.044 499.123 732.501C494.791 728.22 491.268 721.362 487.876 716.273Z"/>
	<path fill="#64B8C3" transform="scale(0.5 0.5)" d="M638.943 233.395C640.025 216.943 638.491 202.814 634.457 186.893C644.918 190.511 655.113 195.405 665.107 200.144C739.272 235.309 798.852 295.748 834.53 369.463C861.099 424.357 870.832 484.969 865.645 545.5C864.968 553.404 864.314 561.388 863.049 569.224C859.164 593.291 852.533 616.618 845.118 639.805L852.362 642.158C850.78 644.547 848.586 647.002 846.306 648.74C843.073 651.204 837.4 653.181 835.909 657.056L828.904 671.543C824.497 669.464 820.72 665.538 816.168 663.267L803.016 656.528C801.107 654.774 798.387 653.419 796.159 652.06L782.158 643.954L781.855 630.274C773.242 636.314 764.326 641.948 754.031 644.6C750.956 645.392 747.174 646.112 744.012 645.573C741.321 645.114 738.409 643.802 735.905 642.717C728.691 639.588 721.973 635.399 715.511 630.951C715.48 635.043 716.141 640.604 714.954 644.47L693.791 657.553L683.089 661.828C669.335 668.022 658.216 674.361 648.872 686.682L605.1 663.641L571.436 646.071C569.588 647.733 567.263 649.698 565.078 650.889C559.347 655.701 552.457 659.414 546.166 663.473L512.006 685.61L511.439 685.136C507.282 681.698 502.49 678.948 497.974 676.002L478.206 663.074C472.578 659.52 466.754 656.191 461.371 652.268C459.695 651.172 457.705 650.552 456.132 649.371L455.884 644.563L419.066 663.96L393.207 677.816C388.842 680.222 384.379 683.228 379.707 684.953C369.345 671.841 354.463 662.403 339.297 655.812C329.254 665.533 320.717 677.983 312.19 689.046C310.354 688.368 308.018 685.902 306.404 684.643L285.733 667.735L262.459 689.929L230.942 655.207C223.711 658.56 216.367 661.645 209.477 665.681C204.794 668.424 200.559 671.682 196.293 675.024L179.698 637.89C147.769 554.736 149.806 459.034 186.387 377.63C212.71 319.053 253.994 268.343 306.553 231.282C313.304 226.522 320.187 221.566 327.284 217.349C346.785 205.761 367.794 196.231 388.971 188.179C383.714 205.671 383.074 222.425 385.221 240.461C389.39 262.079 397.335 281.264 411.061 298.67C431.847 325.031 463.138 342.546 496.501 346.378C530.386 350.269 565.087 341.418 591.965 320.009C619.117 298.382 635.012 267.743 638.943 233.395Z"/>
	<path fill="white" transform="scale(0.5 0.5)" d="M781.066 368.468C782.435 370.655 783.329 373.148 784.679 375.37C788.855 382.242 794.586 385.237 801.828 388.2C797.873 390.02 793.459 391.713 790.122 394.551C785.942 398.108 783.756 403.514 781.542 408.39C779.421 404.31 777.325 399.807 774.108 396.45C770.467 392.651 765.089 390.465 760.361 388.392C764.679 386.589 769.447 384.64 772.84 381.326C776.248 377.998 778.712 372.619 781.066 368.468Z"/>
	<path fill="white" transform="scale(0.5 0.5)" d="M246.328 369.942C249.007 373.73 251.265 378.084 254.573 381.368C257.835 384.607 262.503 387.078 266.35 389.631C263.55 391.254 260.373 392.629 257.792 394.57C253.409 397.864 250.278 402.689 247.372 407.25L246.359 408.299C244.669 406.106 243.473 403.582 241.985 401.25C238.389 395.614 233.238 392.774 227.691 389.356C232.719 386.292 237.475 383.336 241.101 378.582C243.111 375.946 244.683 372.815 246.328 369.942Z"/>
	<path fill="white" transform="scale(0.5 0.5)" d="M420.873 556.103L420.182 556.346C417.243 555.935 413.961 553.368 411.75 551.455C401.9 542.934 397.813 532.585 396.919 519.75C396.604 515.234 397.004 511.077 400.165 507.609C403.583 503.86 407.19 503.082 412.01 502.801C413.423 521.02 416.286 538.394 420.873 556.103Z"/>
	<path fill="white" transform="scale(0.5 0.5)" d="M611.093 503.573C615.675 503.507 619.081 503.735 622.523 507.218C625.809 510.543 627.141 515.773 626.983 520.364C626.601 531.395 622.495 542.316 614.285 549.875C610.861 553.027 606.989 554.928 602.634 556.511C605.259 546.928 607.6 537.204 608.983 527.356C610.093 519.447 610.447 511.523 611.093 503.573Z"/>
	<path fill="white" transform="scale(0.5 0.5)" d="M670.799 318.477L701.116 348.597L670.438 379.104L639.657 348.457L670.799 318.477Z"/>
	<path fill="white" transform="scale(0.5 0.5)" d="M355.538 317.25L356.824 317.177L377.086 337.75C380.207 340.802 384.989 344.172 387.35 347.758L356.75 378.91L355.75 379.108L325.396 347.575L355.538 317.25Z"/>
	<path fill="#008498" transform="scale(0.5 0.5)" d="M638.943 233.395C639.891 236.653 639.255 240.161 638.969 243.5C637.602 259.495 633.021 276.327 625.252 290.456C607.959 321.905 580.852 343.418 546.375 353.277C513.857 362.575 479.081 357.883 449.665 341.495C420.854 325.443 398.215 298.397 389.249 266.421C387.235 259.239 386.453 252.607 385.306 245.284C385.063 243.73 385.192 242.031 385.221 240.461C389.39 262.079 397.335 281.264 411.061 298.67C431.847 325.031 463.138 342.546 496.501 346.378C530.386 350.269 565.087 341.418 591.965 320.009C619.117 298.382 635.012 267.743 638.943 233.395Z"/>
	<path fill="#008498" transform="scale(0.5 0.5)" d="M209.719 530.941C208.738 528.865 208.763 526.652 208.67 524.39C208.346 516.48 209.845 508.487 212.478 501.061C219.757 480.533 234.731 466.589 254.129 457.423C273.213 448.406 294.965 447.25 314.847 454.469C334.113 461.464 350.012 476.958 358.497 495.5C363.917 507.344 364.966 520.614 365.152 533.463C369.023 537.571 372.126 542.059 371.986 547.965C371.859 553.329 370.186 557.135 367.489 561.617C367.492 565.033 365.785 568.355 363.351 570.75C360.086 573.964 356.186 573.886 351.839 573.878C348.148 586.034 343.155 598.412 335.859 608.882C332.582 613.586 328.636 618.05 324.5 622.015C323.736 622.747 320.174 625.442 319.912 626.203C319.617 627.062 319.898 629.386 319.893 630.37L319.841 641.723C319.838 642.446 320.066 644.665 319.825 645.25C319.447 646.165 317.769 647.12 316.983 647.547C315.914 650.107 290.598 662.05 286.274 663.94C281.053 661.258 258.413 650.07 255.573 645.982C254.388 645.14 251.91 643.23 251.154 642.035C251.006 641.8 251.093 639.734 251.083 639.38L250.852 630.406C250.84 629.932 250.961 628.37 250.791 627.951C250.322 626.798 248.428 625.115 247.57 624.15L240.25 615.489C230.889 603.817 224.34 591.076 219.702 576.901C217.585 576.76 215.34 576.697 213.27 576.225C207.626 574.939 201.259 569.92 198.468 564.847C196.138 560.611 195.178 555.351 196.58 550.651C197.424 548.705 197.156 545.242 197.908 542.922C200.028 536.376 203.944 533.861 209.719 530.941Z"/>
	<path fill="white" transform="scale(0.5 0.5)" d="M367.489 561.617C362.99 565.872 359.264 567.28 353.258 568.431L358.573 529.86C361.01 530.87 362.988 531.954 365.152 533.463C369.023 537.571 372.126 542.059 371.986 547.965C371.859 553.329 370.186 557.135 367.489 561.617Z"/>
	<path fill="white" transform="scale(0.5 0.5)" d="M196.58 550.651C197.424 548.705 197.156 545.242 197.908 542.922C200.028 536.376 203.944 533.861 209.719 530.941C210.713 539.098 211.733 547.139 213.75 555.122C214.92 559.755 217.253 564.663 217.772 569.339C211.648 568.624 205.86 566.857 201.829 561.831C199.095 558.423 197.778 554.783 196.58 550.651Z"/>
	<path fill="white" transform="scale(0.5 0.5)" d="M255.573 645.982L255.583 628.679C266.124 636.316 278.483 641 291.664 638.939C300.403 637.573 308.046 634.027 315.623 629.618C315.871 635.27 315.532 642.091 316.983 647.547C315.914 650.107 290.598 662.05 286.274 663.94C281.053 661.258 258.413 650.07 255.573 645.982Z"/>
	<path fill="white" transform="scale(0.5 0.5)" d="M324.483 490.663C334.7 500.196 341.995 510.547 348.013 523.172C349.783 526.885 351.976 531.414 352.574 535.515C353.153 539.483 352.159 544.667 351.543 548.609C348.589 567.537 342.918 587.112 331.915 603.021C322.537 616.582 308.625 629.47 291.75 632.304C279.161 634.418 268.385 629.401 258.294 622.388C252.828 618.344 248.022 613.857 243.646 608.647C224.74 586.138 217.34 557.22 219.867 528.298C231.208 528.488 242.25 528.216 253.435 526.133C279.607 521.259 304.187 507.452 324.483 490.663Z"/>
	<path fill="#64B8C3" transform="scale(0.5 0.5)" d="M253.748 535.567C256.031 535.318 258.625 535.158 260.837 535.87C264.459 537.037 267.511 539.946 269.03 543.408C270.602 546.993 270.739 550.962 269.077 554.54C267.042 558.922 263.661 560.814 259.343 562.381C256.568 562.513 254.315 562.634 251.661 561.631C247.838 560.186 245.167 557.197 243.652 553.447C242.361 550.25 242.44 547.335 243.801 544.186C245.859 539.424 249.093 537.285 253.748 535.567Z"/>
	<path fill="#64B8C3" transform="scale(0.5 0.5)" d="M311.49 535.082C314.239 534.738 317.18 534.617 319.79 535.68C323.581 537.222 326.197 539.984 327.708 543.767C328.979 546.951 328.9 550.838 327.399 553.908C325.281 558.238 322.278 560.512 317.792 562.081C315.045 562.509 312.589 562.455 309.942 561.495C306.783 560.348 304.053 557.507 302.692 554.47C301.246 551.243 300.642 547.37 301.965 544C303.749 539.454 307.224 536.99 311.49 535.082Z"/>
	<path fill="#008498" transform="scale(0.5 0.5)" d="M683.089 661.828C681.008 660.601 677.538 661.135 675.105 660.643C668.93 659.394 663.41 657.727 657.844 654.646C647.309 648.816 642.069 640.385 638.8 629.139C639.909 630.274 641.039 631.477 642.346 632.389C646.305 635.154 650.731 635.746 655.401 634.694C660.605 633.522 665.016 630.319 666.633 625.066C668.451 619.16 666.096 609.371 665.092 603.36L662.491 585.717C661.032 573.421 659.495 560.242 660.633 547.872C661.129 542.473 662.629 534.431 666.616 530.53C667.601 529.566 670.183 528.379 670.823 527.433C671.055 527.09 671.087 524.354 671.146 523.701C671.493 519.853 671.979 516.088 672.744 512.298C674.914 501.557 678.833 491.905 684.82 482.703C695.427 466.401 712.726 455.006 731.666 451.022C753.1 446.513 775.761 450.945 793.994 463.112C815.644 477.558 827.594 501.435 831.794 526.592C833.311 535.677 833.62 544.734 833.897 553.917C834.25 565.601 834.328 577.284 833.211 588.934C832.702 594.238 831.694 599.55 830.682 604.779C829.765 609.513 828.577 614.953 829.662 619.761C831.876 629.576 836.94 634.698 845.118 639.805L852.362 642.158C850.78 644.547 848.586 647.002 846.306 648.74C843.073 651.204 837.4 653.181 835.909 657.056L828.904 671.543C824.497 669.464 820.72 665.538 816.168 663.267L803.016 656.528C801.107 654.774 798.387 653.419 796.159 652.06L782.158 643.954L781.855 630.274C773.242 636.314 764.326 641.948 754.031 644.6C750.956 645.392 747.174 646.112 744.012 645.573C741.321 645.114 738.409 643.802 735.905 642.717C728.691 639.588 721.973 635.399 715.511 630.951C715.48 635.043 716.141 640.604 714.954 644.47L693.791 657.553L683.089 661.828Z"/>
	<path fill="white" transform="scale(0.5 0.5)" d="M819.812 537.25C820.857 537.036 821.938 536.954 823 537.137C825.662 537.597 828.406 540.985 829.757 543.131C832.184 546.984 832.13 551.549 831.171 555.863C830.221 560.141 828.585 564.953 824.741 567.389C821.567 568.662 818.295 569.319 814.948 569.931C815.867 565.405 816.946 560.844 817.596 556.271L818.8 544.041C818.97 541.75 818.84 539.367 819.812 537.25Z"/>
	<path fill="white" transform="scale(0.5 0.5)" d="M671.051 530.75L672.171 530.876L679.618 568.512L674.046 567.848C672.157 567.426 670.416 566.992 668.626 566.25C665.176 562.069 664.104 554.977 664.01 549.662C663.881 542.32 665.885 536.071 671.051 530.75Z"/>
	<path fill="white" transform="scale(0.5 0.5)" d="M729.332 539.322C735.559 537.098 741.71 534.556 747.238 530.877C758.287 523.523 765.386 512.563 771.006 500.75L774.781 491.52C780.633 504.191 787.843 516.371 798.538 525.603C802.006 528.597 805.813 530.957 810.004 532.789C810.353 532.942 813.459 534.104 813.518 534.213C813.857 534.838 813.694 538.099 813.725 538.95C814.213 552.077 813.144 566.27 808.616 578.684C800.113 601.99 785.356 623.876 762.297 634.589C755.047 637.957 747.464 640.13 739.725 637.286C716.876 628.89 700.353 609.192 690.501 587.5C684.044 573.286 678.76 555.891 678.537 540.195C688.348 542.48 697.651 543.511 707.753 543.501C705.632 547.26 705.63 551.222 706.514 555.347C707.256 558.806 710.347 562.202 713.327 563.937C716.093 565.548 720.551 566.125 723.676 565.201C727.276 564.137 730.851 561.63 732.668 558.298C734.613 554.732 735.217 550.346 733.98 546.441L733.75 545.755C732.875 542.948 731.311 541.402 729.332 539.322Z"/>
	<path fill="#008498" transform="scale(0.5 0.5)" d="M775.203 538.616C777.946 538.362 781.12 538.259 783.737 539.198C787.998 540.727 791.105 543.048 792.955 547.293C794.461 550.748 794.075 555.37 792.519 558.763C790.468 563.239 787.62 565.243 783.145 566.841C779.861 567.499 776.9 567.468 773.743 566.221C769.581 564.577 766.725 561.462 765.114 557.33C763.735 553.793 764.337 549.16 765.899 545.792C767.717 541.874 771.29 539.938 775.203 538.616Z"/>
	<path fill="#008498" transform="scale(0.5 0.5)" d="M412.01 502.801L409.515 416.141C434.098 389.974 466.152 370.126 502.868 368.964C526.597 368.213 555.124 372.993 572.913 390.156C574.719 391.899 576.765 395.702 578.604 396.903C579.156 397.264 581.643 397.382 582.5 397.556C585.146 398.092 587.839 398.808 590.348 399.813C607.307 406.604 613.938 423.986 614.028 441.092L611.093 503.573C610.447 511.523 610.093 519.447 608.983 527.356C607.6 537.204 605.259 546.928 602.634 556.511L599.051 566.945C594.531 578.444 588.816 590.156 581.859 600.384C578.541 605.261 574.832 609.833 570.93 614.25C569.929 615.382 566.608 618.341 566.336 619.773C566.099 621.026 567.251 624.598 567.496 626L570.436 645.25C571.228 646.011 570.852 645.799 571.436 646.071C569.588 647.733 567.263 649.698 565.078 650.889C559.347 655.701 552.457 659.414 546.166 663.473L512.006 685.61L511.439 685.136C507.282 681.698 502.49 678.948 497.974 676.002L478.206 663.074C472.578 659.52 466.754 656.191 461.371 652.268C459.695 651.172 457.705 650.552 456.132 649.371L455.884 644.563C455.592 642.584 456.27 640.034 456.6 638.042L459.628 622.875C441.18 605.171 428.31 580.343 420.873 556.103C416.286 538.394 413.423 521.02 412.01 502.801Z"/>
	<path fill="white" transform="scale(0.5 0.5)" d="M461.371 652.268L466.368 627.432C476.901 635.462 488.341 640.812 501.433 642.946C522.999 646.462 542.457 638.099 559.507 625.586C561.085 634.04 561.928 642.848 565.078 650.889C559.347 655.701 552.457 659.414 546.166 663.473L512.006 685.61L511.439 685.136C507.282 681.698 502.49 678.948 497.974 676.002L478.206 663.074C472.578 659.52 466.754 656.191 461.371 652.268Z"/>
	<path fill="white" transform="scale(0.5 0.5)" d="M567.689 437.606C572.598 439.965 577.607 442.304 582.029 445.52C590.745 451.859 597.139 463.104 598.713 473.731C605.072 516.648 597.791 564.768 571.248 600.03C558.795 616.572 540.062 632.026 518.975 634.942C500.488 637.499 484.618 629.788 470.255 618.904L464 613.496C439.421 590.197 426.866 553.181 422.833 520.25C421.59 510.095 421.326 499.98 421.064 489.769C430.549 490.091 440.058 490.555 449.537 489.84C493.602 486.514 534.89 466.634 567.689 437.606Z"/>
	<path fill="#008498" transform="scale(0.5 0.5)" d="M549.477 506.6C553.343 506.381 556.859 507.104 560.25 509.039C564.13 511.254 567.021 515.144 568.012 519.494C569.032 523.974 567.871 528.457 565.323 532.25C562.538 536.397 558.611 538.409 553.875 539.482C550.229 539.58 547.056 539.332 543.735 537.681C539.718 535.684 536.825 532.46 535.478 528.156C534.08 523.686 534.364 519.631 536.545 515.481C539.377 510.093 543.967 508.177 549.477 506.6Z"/>
	<path fill="#008498" transform="scale(0.5 0.5)" d="M470.532 506.148C473.996 506.227 476.915 506.707 480.004 508.379C484.12 510.606 487.265 514.969 488.515 519.426C489.833 524.124 489.083 528.998 486.657 533.18C483.591 538.462 478.678 540.81 472.982 542.206C469.346 542.112 465.794 542.066 462.644 539.965C457.946 536.832 454.591 531.765 453.75 526.171C453.056 521.554 453.979 517.671 456.782 513.953C460.414 509.136 464.696 507.025 470.532 506.148Z"/>
</svg>
