<svg xmlns="http://www.w3.org/2000/svg" width="512" height="512">
  <path fill="#fff" d="M59.802 371.375c.925.198.946.317 1.542 1-.149 1.618-2.068 2.832-3.236 3.832.986 1.022 2.784 2.564 3.171 3.918-.297.683-.5.88-1.136 1.264-1.45-.097-2.944-1.871-3.987-2.817l-2.828 2.803-.69.098c-.624-.591-.924-.747-1.132-1.598.699-1.36 1.928-2.42 2.989-3.507-.913-.851-2.328-1.843-2.918-2.933-.282-.521-.14-.57.005-1.108.547-.481.788-.742 1.543-.824 1.271.644 2.201 1.768 3.185 2.778 1.078-1.097 2.063-2.279 3.492-2.906ZM190.637 37.625c1.51.057 2.939 1.9 3.999 2.921 1.094-1.301 1.976-2.604 3.739-2.859.642.306.765.591 1.094 1.188-.242 1.617-1.81 2.54-3.001 3.512 1.047 1.025 3.022 2.603 3.07 4.113-.472.634-.7.672-1.413.965-1.26-.29-2.655-2.04-3.626-2.961-1.028 1.075-2.14 2.53-3.499 3.14-.204-.074-.36-.113-.534-.269-.524-.469-.667-.944-.711-1.625.592-1.22 1.945-2.185 2.939-3.094-1.011-.897-2.975-2.295-3.213-3.656.27-.758.541-.88 1.156-1.375ZM276.85 66.125c1.932.784 3.514 2.737 4.978 4.195 1.182-1.188 3.509-4.102 5.231-4.173.63.362.837.581 1.168 1.228-.325 1.496-3.131 3.748-4.225 4.852 1.447 1.389 3.066 2.759 4.226 4.398.032.863-.048.842-.603 1.52l-.875.35c-1.853-.632-3.706-2.872-5.132-4.241-1.134 1.32-2.8 3.666-4.493 4.181-.737-.326-.899-.544-1.297-1.203.066-1.82 2.654-3.698 3.967-4.949-1.208-1.157-3.616-2.966-4.089-4.533.26-.82.489-1.067 1.144-1.625Z"/>
  <path fill="#003F6D" d="M88.962 342.581c.232.767.282.901.087 1.669-.698.768-1.013.871-1.924 1.267l-.406.233.076 1.363c.088 1.52-.172 2.79-1.216 3.976-2.161 2.46-5.515 2.587-8.562 2.675l-2.688-.047-.446.021-7.892-.095c-2.152.006-4.466.113-6.591-.224-1.904-.303-3.797-1.619-4.829-3.226-.904-1.409-1.017-2.556-.648-4.159l.756 1.76c.605 1.445 1.48 2.557 2.966 3.173l.303.119c.294.118.57.23.883.288 1.164.213 2.489.087 3.669.071l6.986-.077 9.98-.014c.656-.029 1.858.067 2.438-.152.382-.144.847-.517 1.189-.767 1.384-1.013 1.786-2.627 2.02-4.242l-.05-.27c-.053-.837-.004-1.413.467-2.087.728.017 1.406.064 2.071-.284l.418-.232.942-.739Z"/>
  <path fill="#008498" d="M54.68 347.793c6.05.615 12.553.178 18.64.178 2.696 0 6.367.477 8.96-.1 1.09-.243 1.979-.996 2.832-1.678-.233 1.615-.635 3.229-2.019 4.242-.342.25-.807.623-1.19.767-.58.219-1.782.123-2.438.152l-9.979.014-6.986.077c-1.18.016-2.505.142-3.669-.071-.314-.058-.59-.17-.883-.288l-.303-.119c-1.487-.616-2.361-1.728-2.966-3.173Z"/>
  <path fill="#fff" d="M108.755 181.558c1.194-.013 2.494.13 3.556.714 1.364.752 2.51 2.074 2.912 3.594.451 1.702.394 3.61-.54 5.143-1.14 1.872-2.796 2.689-4.807 3.26-1.44.032-2.775-.028-4.055-.765-1.58-.911-2.404-2.428-2.805-4.162-.393-1.701-.153-3.567.816-5.04 1.176-1.784 2.953-2.321 4.923-2.744Z"/>
  <path fill="#B1AAAD" d="M85.741 343.124c.818-.036 1.489-.083 2.278.196l-.418.233c-.665.347-1.343.3-2.071.283-.47.674-.52 1.25-.468 2.087l.05.27c-.853.682-1.742 1.435-2.832 1.678-2.594.577-6.264.1-8.96.1-6.087 0-12.59.438-18.64-.178l-.757-1.759.11-2.409-2.17-.346 33.878-.155Z"/>
  <path fill="#fff" d="M419.978 385.762c3.412-3.583 6.242-7.668 8.988-11.772 4.823-7.21 9.166-14.824 12.844-22.68 1.822-3.89 3.295-7.882 4.846-11.884.228-.587.895-2.931 1.282-3.271.369-.325 2.916-.285 3.51-.316L445.7 351.02c-3.814 8.808-8.825 17.472-14.24 25.385l-9.313 12.443-2.164-2.894-.005-.193ZM219.267 62.807c1.939-.154 3.939.27 5.608 1.281 2.287 1.386 3.843 3.738 4.419 6.326.498 2.237-.032 4.563-1.256 6.478-1.623 2.54-3.875 3.688-6.729 4.337-2.415.095-4.222-.108-6.32-1.463-1.965-1.268-3.263-3.243-3.72-5.53-.512-2.568-.096-5.58 1.462-7.736 1.636-2.263 3.904-3.193 6.536-3.693Z"/>
  <path fill="#008498" d="M218.832 65.531c1.206-.06 2.3-.17 3.444.304 1.829.759 3.387 2.299 4.14 4.133.563 1.371.45 2.907-.11 4.256-.931 2.242-2.514 3.275-4.628 4.209-1.232.097-2.63.238-3.803-.228a6.853 6.853 0 0 1-3.767-3.712c-.681-1.659-.506-3.785.24-5.385.924-1.977 2.552-2.84 4.484-3.577Z"/>
  <path fill="#003F6D" d="m419.983 385.955 2.164 2.894c1.5 2.86 3.091 5.625 4.296 8.632 2.779 6.939 3.96 14.95 3.124 22.394-1.296 11.524-7.237 23.102-16.265 30.466-9.031 7.368-21.6 12.392-33.403 11.035l-.399-.049c-5.661-.656-11.285-2.219-16.43-4.688-2.445-1.173-4.75-2.693-7.06-4.106-1.759-1.322-3.775-2.599-5.077-4.397l-.142-.11c-.663-.882-1.482-1.644-2.255-2.429-6.481-7.277-10.31-16.005-11.348-25.695-.254-2.378-.186-4.812-.185-7.202.37-4.351 1.132-8.584 2.409-12.76.675-1.782 1.264-3.699 2.222-5.348l.37-.22c.622-.397.873-1.101 1.166-1.747l.33.125-.242.344c-.29.433-.226.485-.383.906l-.375.75-.195.406c-.214.428-.108.27-.428.594l.062.511.219.084c-4.44 11.882-5.632 24.707-.19 36.529 2.568 5.58 5.722 10.449 10.215 14.661 9.951 8.496 21.897 13.23 35.087 12.195l2.855-.376c4.546-.856 8.752-2.201 12.868-4.335.483-.25 1.608-.707 1.89-1.097 1.514-.728 2.941-1.753 4.304-2.728 9.25-6.618 16.618-17.054 18.404-28.45 1.907-12.174-.45-24.877-7.805-34.94l-.799-1.224.995-.625Z"/>
  <path fill="#18B5C2" d="M88.138 169.81c2.115-.192 4.104-.094 6.063.797 2.356 1.072 4.195 3.185 5.011 5.644.855 2.572.535 5.575-.806 7.927-1.321 2.319-3.754 3.839-6.252 4.542-2.361.356-4.365.279-6.529-.816-2.29-1.16-4.031-3.366-4.843-5.779-.825-2.452-.68-4.731.55-7.03 1.49-2.785 3.84-4.369 6.806-5.285Z"/>
  <path fill="#06D3DF" d="M311.026 405.412c7.94-1.515 15.743-3.837 23.74-5.099 1.304-.205 3.41-.851 4.646-.373-1.277 4.175-2.04 8.409-2.409 12.76-5.889.866-11.959 2.427-17.775 3.769-1.745.402-4.757.77-6.25 1.78-.933-3.984-2.93-6.45-6.058-8.912 1.484-.995 2.755-2.207 3.857-3.608l.249-.317Z"/>
  <path fill="#fff" d="m52.283 332.515 33.338-.117 1.074.346c-.504.43-.597.459-.756 1.091l.367.02.465-.189c.817.454 1.516.762 2.004 1.584.15.768.277 1.41-.154 2.125-.149.248-.352.41-.56.599l-1.374.988-.034.363.986.326c.638.445 1.166.753 1.323 1.599.073.396 0 .875-.043 1.273l.043.058-.944.74c-.788-.28-1.459-.233-2.277-.197l-33.877.155c-.27-.084-.624-.18-.864-.327-.495-.303-.782-.894-.846-1.452-.079-.695.143-1.051.567-1.555l1.517-1.57-.486-.599c-.87-.391-1.126-.588-1.623-1.401-.113-.951-.104-1.028.338-1.877l1.904-1.453-.088-.53Z"/>
  <path fill="#B1AAAD" d="m52.36 337.567 31.07-.03 4.631.437-1.374.988-.034.363.986.326c-.758.16-1.407.307-2.189.282l-20.871.084c-4.459.049-9.466.582-13.858-.072l1.517-1.57-.486-.599.607-.209Z"/>
  <path fill="#fff" d="m52.283 332.515 33.338-.117 1.074.346c-.504.43-.597.459-.756 1.091l.367.02.465-.189c.817.454 1.516.762 2.004 1.584.15.768.277 1.41-.154 2.125-.149.248-.352.41-.56.599l-4.632-.436-31.07.029-.608.209c-.87-.391-1.124-.588-1.622-1.401-.113-.951-.104-1.028.338-1.877l1.904-1.453-.088-.53Z"/>
  <path fill="#B1AAAD" d="m52.283 332.515 33.338-.117 1.074.346c-.504.43-.597.459-.756 1.091l.367.02-.218.646-32.202.009-3.419-.012 1.904-1.453-.088-.53Z"/>
  <path fill="#fff" d="M81.144 204.074c2.825-.212 5.502.386 7.92 1.893 2.64 1.645 4.573 4.507 5.22 7.534.673 3.145.028 6.86-1.761 9.519-2.187 3.25-5.421 4.733-9.168 5.422-2.835.196-5.493-.38-7.907-1.923-2.56-1.637-4.505-4.428-5.111-7.403-.719-3.532-.179-7.131 1.96-10.102 2.153-2.988 5.31-4.386 8.847-4.94Z"/>
  <path fill="#18B5C2" d="M69.621 160.405c3.637 3.161 6.008 6.617 7.532 11.189 1.879 5.635 1.006 11.517-1.659 16.708-2.599 5.062-7.435 9.376-12.861 11.123-2.625.845-5.21 1.099-7.949 1.099l2.607-9.661c3.229-10.439 7.349-20.734 12.33-30.458Z"/>
  <path fill="#fff" d="M87.993 124.27c6.948-8.942 14.77-17.158 22.974-24.962 1.355-1.289 2.972-3.336 4.658-4.067.614.091 1.209.377 1.596.884.285.374.535.879.395 1.337-.355 1.16-6.587 6.32-7.795 7.499-7.257 7.084-14.346 14.805-20.3 23.026l-19.9 32.418c-4.981 9.724-9.101 20.019-12.33 30.458l-2.606 9.66c-3.559 15.583-5.13 31.96-3.811 47.918l-3.32 2.446c-1.675-16.554-.098-34.5 3.796-50.637 2.432-14.587 8.794-29.055 15.589-42.107l21.054-33.873Z"/>
  <path fill="#18B5C2" d="M199.779 429.046c3.035 3.396 5.868 4.584 10.299 5.4.193.036.48-.064.579.106.178.306.158 1.921.218 2.366.186 1.389.484 2.785.83 4.142 2.435 9.546 8.206 16.728 15.329 23.275-14.296-2.15-28.351-5.68-41.851-10.895.694-2.086 1.136-4.253 1.946-6.305 2.725-6.9 7.392-12.964 12.65-18.089ZM183.748 456.399c13.944 5.151 28.63 9.517 43.416 11.363 2.022.252 4.376.718 6.401.445.895.509 1.813 1.123 2.781 1.473-2.763 4.864-9.16 9.024-14.355 10.78L218 481.575l-.404.097c-6.816 1.568-15.415-.22-21.286-3.937-5.953-3.769-10.245-9.349-11.875-16.235-.4-1.688-.531-3.377-.687-5.101ZM350.79 448.026l.143.11c1.302 1.798 3.318 3.075 5.077 4.397-1.85 7.615-8.73 14.41-15.26 18.367-7.288 4.417-16.781 5.978-25.125 4.432-5.512-1.021-10.72-2.92-15.34-6.149-1.399-.978-2.619-2.399-4.059-3.226l-.156-.11c13.219-2.394 26.136-5.773 38.704-10.562l9.273-3.99c1.783-.773 5.59-1.909 6.743-3.269ZM51.35 200.25c-2.57-.611-5.043-1.442-7.298-2.849-4.797-2.992-8.58-7.7-9.877-13.257-1.504-6.448-.516-12.606 3.004-18.225 3.22-5.138 8.461-8.589 14.343-9.903l.473-.102c5.192-1.184 10.297-.18 14.944 2.23-6.794 13.05-13.157 27.52-15.589 42.106Z"/>
  <path fill="#fff" d="m172.745 61.926 16.054-6.921c50.238-19.19 105.043-16.44 153.938 5.425 11.885 5.249 23.216 12.21 33.822 19.672 11.232 7.901 21.78 16.416 31.386 26.254l9.591 10.302c2.421 2.839 4.675 5.963 7.272 8.633l1.31 1.817c13.394 18.251 24.429 37.9 31.572 59.441 4.935 15.141 7.541 30.382 8.97 46.206.4 4.444.973 9.114.745 13.571l-3.587-2.647c-.106-8.712-1.11-17.517-2.428-26.125-1.505-9.84-3.448-19.602-6.779-29.005-.817-3.383-2.279-6.82-3.558-10.055-6.541-16.548-15.534-33.004-26.476-47.042l-2.087-2.971c-2.652-4.125-6.312-7.83-9.532-11.527-20.135-23.122-45.017-40.209-72.337-53.721C294.495 41.957 240.14 39.54 192.43 57.155c-5.592 2.064-11.607 4.262-16.86 7.093l-8.984 4.519c-2.118 1.19-4.368 2.895-6.684 3.608-.284-.178-.376-.21-.615-.5-.47-.57-.606-1.417-.548-2.125 1.182-1.121 2.743-1.803 4.15-2.612l9.856-5.212Z"/>
  <path fill="#18B5C2" d="M426.118 127.108c7.575-3.17 14.525-5.635 22.882-3.912 8.93 1.841 16.091 6.722 21.196 14.308 4.913 7.3 6.999 17.252 5.223 25.882-1.614 7.846-5.929 15.037-12.422 19.815l-5.308 3.349c-7.142-21.542-18.178-41.191-31.572-59.443Z"/>
  <path fill="#fff" d="m209.42 366.572 17.246-.122 29.452-.002 28.656.005 14.63.032c.65.03 1.262.125 1.871.368l.35.151c1.753.745 3.445 1.803 4.586 3.371 1.447 1.99 1.888 4.601 1.463 7.008-.417 2.363-1.868 4.394-3.867 5.69-1.166.757-2.307 1.105-3.635 1.415-3.61.312-7.458.01-11.098-.007l-22.283-.077-37.392.055-18.899.01c-1.022-.023-2.145-.096-3.078-.542-2.788-1.331-4.631-3.763-5.486-6.713-.582-2.006-.013-4.476 1.053-6.224 1.512-2.477 3.672-3.772 6.431-4.418ZM226.236 388.875l50.11-.012 15.731-.027c2.754.008 5.871-.193 8.584.285 1.813.32 3.582 1.555 4.882 2.834 1.757 1.728 2.757 3.807 2.731 6.281-.026 2.392-1.182 4.642-2.88 6.291-1.144 1.113-2.643 1.935-4.212 2.25-1.944.39-4.096.212-6.075.214l-10.982-.015H216.891c-2.584-.002-5.397.224-7.955-.149-1.65-.24-3.208-1.032-4.43-2.159-1.662-1.532-2.832-3.817-2.838-6.1-.007-2.474.755-4.918 2.531-6.697 1.197-1.199 3.05-2.342 4.682-2.754 1.738-.438 4-.22 5.797-.226l11.558-.016Z"/>
  <path fill="#18B5C2" d="M337.003 412.7c-.001 2.39-.069 4.824.185 7.202 1.038 9.69 4.867 18.418 11.348 25.695.773.785 1.591 1.548 2.255 2.43-1.154 1.36-4.961 2.495-6.744 3.268l-9.274 3.99c-12.567 4.788-25.484 8.167-38.703 10.561l-14.433 1.991c-1.822.184-3.86.562-5.676.33 2.39-1.415 4.719-3.18 7.22-4.359l10.228-1.146c-.37-2.323-1.476-4.953-2.393-7.123 4.536-6.318 6.721-13.406 7.544-21.065l2.69-.196c3.3-.339 6.754-2.447 8.816-5.02 2.529-3.155 3.31-7.075 2.913-11.01 1.492-1.01 4.505-1.377 6.249-1.78 5.816-1.341 11.886-2.902 17.775-3.768Z"/>
  <path fill="#fff" d="M348.536 445.597c.773.785 1.591 1.548 2.255 2.43-1.154 1.36-4.961 2.495-6.744 3.268l-9.274 3.99c-12.567 4.788-25.484 8.167-38.703 10.561l-14.433 1.991c-1.822.184-3.86.562-5.676.33 2.39-1.415 4.719-3.18 7.22-4.359l10.228-1.146c19.168-2.275 37.533-9.512 55.127-17.065ZM210.145 411.599c5.246-.442 10.755-.135 16.029-.135l30.982.002 28.069-.03c4.723-.004 9.758-.34 14.448.135 1.957.197 3.582.889 5.144 2.071 1.892 1.43 3.082 3.594 3.366 5.945.28 2.308-.48 4.903-1.931 6.714-1.849 2.308-3.948 3.041-6.766 3.348l-54.327-.009-23.732.091c-3.94.017-8 .255-11.927.022-1.139-.067-2.26-.544-3.23-1.121-2.226-1.324-3.589-3.574-4.184-6.053-.555-2.308-.122-4.598 1.184-6.602 1.624-2.493 4.017-3.832 6.875-4.378ZM215.7 434.248l78.167.186c-.54 8.765-5.106 16.856-11.138 22.99-6.496 6.413-16.89 11.18-26.089 11.342-10.986.193-21.608-3.281-29.587-11.069-6.243-6.093-11.238-14.531-11.353-23.45Z"/>
  <path fill="#06D3DF" d="M88.118 382.88c4.288 5.48 8.325 11.222 12.95 16.425 19.694 22.157 44.978 40.847 72.122 52.822-3.084 2.332-6.718 4.072-10.299 5.493-14.258 5.659-30.396 5.113-44.424-.993-13.95-6.07-25.375-17.79-30.87-31.972-5.121-13.218-5.19-28.741.52-41.775Z"/>
  <path fill="#18B5C2" d="M342.737 60.43c9.794-10.1 24.867-16.227 38.878-16.323 12.43-.085 26.811 5.4 35.584 14.268 10.754 10.872 16.298 24.587 16.073 39.869-.145 9.875-3.77 18.555-8.464 27.047-2.597-2.67-4.851-5.794-7.272-8.633l-9.59-10.302c-9.607-9.838-20.155-18.352-31.387-26.254-10.606-7.462-21.937-14.423-33.822-19.672Z"/>
  <path fill="#18B5C2" d="M340.621 63.233c27.32 13.512 52.202 30.599 72.337 53.72 3.22 3.698 6.88 7.403 9.532 11.528-3.031 3.754-7.738 7.206-11.976 9.51l-.028.177c-2.124 1.086-4.146 2.364-6.349 3.294-12.54 5.29-26.964 6.87-40.048 2.532l-2.231-.76c-2.019-2.262-3.471-5.298-5.22-7.802-3.503-5.013-7.453-9.722-11.722-14.099-5.657-5.553-11.387-10.834-17.882-15.406-.851-11.86 1.826-24.156 7.846-34.438 1.701-2.906 3.774-5.534 5.741-8.256Z"/>
  <path fill="#06D3DF" d="M344.916 121.333c2.163-.751 5.136-.767 7.447-.936 14.234-1.037 29.225 1.356 42.15 7.624 3.776 1.832 7.29 3.737 10.803 6.039 1.774 1.162 3.724 2.401 5.198 3.93l-.028.178c-2.124 1.086-4.146 2.364-6.349 3.294-12.54 5.29-26.964 6.87-40.048 2.532l-2.231-.76c-2.019-2.262-3.471-5.298-5.22-7.802-3.503-5.013-7.453-9.722-11.722-14.099Z"/>
  <path fill="#F7535D" d="M50.874 248.441c9.916-5.691 21.038-7.094 32.092-4.066 4.997 1.369 9.349 3.74 13.516 6.788 7.883 6.199 14.044 15.452 15.22 25.612 1.216 10.516-1.132 21.774-7.827 30.184l-4.449 4.685c-3.465 2.726-6.794 5.294-9.14 9.106-1.24 2.013-2.163 4.184-3.363 6.209l1.813 2.311c.331.858.368 1.02.226 1.98-.672.873-1.178 1.264-2.267 1.494l-1.074-.346-33.337.117c-1.012-.188-1.416-.601-2.006-1.39-.115-.882-.154-1.303.299-2.086.462-.686 1.003-1.277 1.557-1.89-.949-1.219-1.557-2.792-2.24-4.174-.953-1.933-1.976-3.762-3.222-5.524-2.091-2.959-5.167-5.144-7.404-8.038-6.546-8.469-9.29-19.493-7.863-30.093 1.08-8.027 3.785-15.23 9.024-21.527 2.12-2.549 4.614-4.756 7.124-6.906l3.321-2.446Z"/>
  <path fill="#fff" d="M61.859 324.803c-.718-8.248-2.311-16.82-5.483-24.508-2.985-1.191-5.627-3.009-6.97-6.042-1.24-2.796-1.475-5.827-.334-8.69.997-2.505 3.201-4.75 5.678-5.805 2.495-1.063 5.298-.856 7.75.183 3.385 1.433 5.897 4.169 7.263 7.559l.927 2.346c1.332-4.063 3.808-7.85 7.794-9.766 2.431-1.168 5.084-1.226 7.607-.31 2.773 1.008 4.791 2.809 5.994 5.511a10.776 10.776 0 0 1 .151 8.43c-1.243 3.1-3.355 4.831-6.313 6.18-.18.082-1.035.38-1.135.507-.532.674-.96 2.55-1.248 3.381-2.518 7.288-3.922 14.37-4.358 22.065 2.43.995 5.142-.475 7.741 1.115l1.813 2.311c.331.858.368 1.02.226 1.98-.672.873-1.178 1.264-2.267 1.494l-1.074-.346-33.337.117c-1.012-.188-1.416-.601-2.006-1.39-.115-.882-.154-1.303.299-2.086.462-.686 1.003-1.277 1.557-1.89l.12-.169c.191-.233.839-.86 1.121-.946.469-.142 1.512 0 2.028 0 2.075-.001 4.233.13 6.288-.108l.168-1.123Z"/>
  <path fill="#fff" d="M69.294 326.086c.813.017 1.695.144 2.446-.211l.207-27.481.01 27.65c1.534.01 3.23-.118 4.74.104.862.025 1.72.167 2.485-.304 2.43.995 5.142-.475 7.741 1.115l1.813 2.311c.331.858.368 1.02.226 1.98-.672.873-1.178 1.264-2.267 1.494l-1.074-.346-33.337.117c-1.012-.188-1.416-.601-2.006-1.39-.115-.882-.154-1.303.299-2.086.462-.686 1.003-1.277 1.557-1.89l.12-.169c.191-.233.839-.86 1.121-.946.469-.142 1.512 0 2.028 0 2.075-.001 4.233.13 6.288-.108l.168-1.123.207 1.178c.686.315 1.488.14 2.219.08 1.579 0 3.469-.207 5.01.025Z"/>
  <path fill="#B1AAAD" d="M69.294 326.086c.813.017 1.695.144 2.446-.211l.207-27.481.01 27.65c1.534.01 3.23-.118 4.74.104.862.025 1.72.167 2.485-.304 2.43.995 5.142-.475 7.741 1.115l1.813 2.311c-.743-.025-1.521-.161-2.18.24-.038.907.053 1.822-.528 2.57l-.032-2.58c-1.05-.716-5.894-.257-7.334-.259l-16.792.001c-3.756.001-7.55.122-11.293-.203.462-.686 1.003-1.277 1.557-1.89l.12-.169c.191-.233.839-.86 1.121-.946.469-.142 1.512 0 2.028 0 2.075-.001 4.233.13 6.288-.108l.168-1.123.207 1.178c.686.315 1.488.14 2.219.08 1.579 0 3.469-.207 5.01.025Z"/>
  <path fill="#F7535D" d="M71.947 298.394c.17-5.09 1.152-10.708 5.087-14.337 1.64-1.513 3.765-2.442 6.024-2.283 2.135.152 4.165 1.127 5.563 2.759 1.45 1.693 2.191 4.119 1.853 6.342-.325 2.132-1.688 4.322-3.45 5.572-.91.645-2.026 1.082-3.052 1.512-.319.133-1.011.301-1.232.496-.451.399-1.03 2.556-1.222 3.136-1.261 3.805-2.353 7.63-3.156 11.56l-1.665 12.997c-1.51-.223-3.207-.094-4.74-.105l-.01-27.649ZM64.285 326.061c-.816-9.365-2.178-18.882-5.82-27.623-3.271-1.952-6.188-3.036-7.359-7.166-.548-1.933.052-4.262 1.096-5.936 1.065-1.71 2.895-3.108 4.876-3.53 2.172-.464 4.507.224 6.297 1.456 3.132 2.155 4.817 6.012 5.462 9.657.691 3.916.374 8.235.39 12.202l.067 20.965c-1.54-.233-3.43-.025-5.009-.025ZM355.286 379.173c10.44-7.67 22.139-11.276 35.09-9.321 11.817 1.784 21.181 7.432 28.611 16.728l.799 1.225c7.355 10.063 9.712 22.765 7.805 34.939-1.786 11.396-9.154 21.832-18.404 28.45-1.363.975-2.79 2-4.303 2.728-.283.39-1.408.846-1.89 1.097-4.118 2.134-8.323 3.479-12.869 4.335l-2.856.376c-13.189 1.035-25.135-3.699-35.086-12.195-4.493-4.212-7.647-9.081-10.216-14.661-5.441-11.822-4.248-24.647.191-36.529l-.219-.084-.062-.511c.32-.324.214-.166.428-.594l.195-.406.375-.75c.156-.421.094-.473.383-.906l.242-.344-.33-.125c-.293.646-.544 1.35-1.166 1.748l-.37.219c2.835-6.465 7.582-12.455 13.32-16.583l.42.381-.083.372-.005.411Z"/>
  <path fill="#FE8C9D" d="M343.942 396.27c1.056-1.739 1.912-3.585 3.019-5.313 3.346-5.223 7.387-9.37 12.599-12.74 9.491-6.137 21.152-8.716 32.272-6.282 9.995 2.188 19.799 7.54 25.385 16.3 1.538 3.298 1.829 5.6 1.787 9.21-2.029-2.39-3.886-4.967-6.129-7.164-6.947-6.801-16.854-11.605-26.568-12.385-8.83-.71-19.863 2.818-26.583 8.595-9.032 7.765-13.772 17.915-14.575 29.762-.136 2.002-.131 3.987-.102 5.993.006.425.173 1.792.037 2.129-.061.154-.223.246-.334.369-.632-.11-.925-.168-1.28-.744-.764-1.238-1.044-2.909-1.346-4.324-1.305-6.131-1.504-13.308.391-19.313l1.427-4.092Z"/>
  <defs>
    <linearGradient id="a" x1="755.031" x2="762.339" y1="918.257" y2="739.004" gradientUnits="userSpaceOnUse">
      <stop offset="0" stop-color="#AF314A"/>
      <stop offset="1" stop-color="#FF4753"/>
    </linearGradient>
  </defs>
  <path fill="url(#a)" d="M710.572 758.347c20.881-15.34 44.277-22.553 70.179-18.643 23.635 3.568 42.363 14.864 57.223 33.457l1.598 2.448c-.156 1.293.313 2.165 1.076 3.189l.352.452 1.25 2.25c-.348.694-.257.405-.423 1.154l-.106.522c-1.176.614-2.033.831-3.319 1.042-.312-1.262-.188-1.013.413-2.046-1.735-.759-2.597-3.878-3.424-5.634l-.957-.069c-11.172-17.518-30.779-28.224-50.771-32.6-22.239-4.867-45.56.29-64.543 12.565-10.425 6.74-18.505 15.034-25.198 25.481-2.213 3.454-3.925 7.147-6.039 10.626l-1.589 1.217-.044.742c-.181.653-.712 2.126-1 2.755l-.495.745-.27 1.514c-.119.619-.352.994-.73 1.486-.004 1.056.124 1.061-.5 2-.004 1.056.124 1.061-.5 2-.003 1.184.176 1.482-.5 2.5l.1.656c.082 1.003-.176 1.471-.6 2.344l.138.906c.135.946.068 1.656-.143 2.594l-.495.5.069.672c.079.964-.076 1.847-.008 2.812.134 1.912-.164 3.815-.031 5.72.223 3.182 1.687 7.788.97 10.796l.25.484c.499 1.248.347 2.86.75 4.266l.123.78c.165 1 .001.534.622 1.47l-.065.562c-.054.78.066.987.32 1.688l.73 2.245c.28.841.671 1.566 1.093 2.342l-.053.643-.775-.003-.341-.882-2.591-5.913a39.799 39.799 0 0 1-1.193-3.807l-.266-.891c-1.366-4.908 1.269-12.764-1.289-16.859.214 5.721-.446 13.553 1.329 18.878 7.552 22.663 22.958 46.664 44.601 58.021l9.5 4.51.851.353c18.573 7.586 43.382 6.626 61.699-1.174 11.122-4.736 22.313-12.278 30.166-21.529-1.661 4.94-3.933 9.575-6.894 13.861-1.783 2.579-3.817 5.034-5.944 7.339-2.158 2.339-4.435 3.811-5.111 6.96-.564.781-2.814 1.693-3.78 2.194-8.234 4.268-16.644 6.958-25.737 8.671l-5.711.751c-26.379 2.07-50.271-7.398-70.172-24.389-8.986-8.425-15.295-18.163-20.432-29.323-10.884-23.643-8.498-49.293.381-73.057l-.438-.169-.123-1.022c.64-.647.427-.333.854-1.188l.391-.812.75-1.5c.313-.842.187-.945.766-1.812l.484-.688-.661-.25c-.586 1.291-1.087 2.7-2.33 3.495l-.741.439c5.671-12.931 15.164-24.91 26.639-33.167l.84.763-.165.744-.01.823Z" transform="scale(.5)"/>
  <path fill="#044F6C" d="m354.954 378.009.42.381-.083.372-.005.411c-5.85 5.038-9.701 10.294-13.128 17.173l-.219-.085-.062-.511c.32-.324.214-.166.428-.594l.195-.406.375-.75c.156-.421.094-.473.383-.906l.242-.344-.33-.125c-.293.646-.544 1.35-1.166 1.748l-.37.219c2.835-6.465 7.582-12.455 13.32-16.583Z"/>
  <path fill="#fff" d="M382.565 383.353c6.997-.489 14.644 2.515 20.118 6.736 6.691 5.159 11.109 12.753 12.127 21.137 1.034 8.526-.778 16.434-6.129 23.206-6.358 8.047-13.859 11.633-23.903 12.796-7.675.18-14.71-1.794-20.785-6.605-6.503-5.151-11.365-13.238-12.179-21.597-.836-8.58 2.061-17.612 7.551-24.214 5.827-7.007 14.255-10.683 23.2-11.46Z"/>
  <path fill="#F7535D" d="M381.139 389.827a23.435 23.435 0 0 1 8.06.538c6.706 1.635 12.456 5.582 16.054 11.51 3.31 5.452 4.714 12.917 3.153 19.147-.866 3.454-2.103 6.53-4.187 9.456-4.25 5.966-10.883 9.281-17.98 10.497-2.057.206-4.056.237-6.114-.004-6.568-.77-12.774-4.575-16.835-9.726-4.21-5.339-5.558-12.353-4.817-18.995.49-4.39 2.287-9.033 4.925-12.593 4.211-5.681 10.886-8.77 17.741-9.83Z"/>
  <path fill="#fff" d="M382.45 397.603c3.514-.235 7.269.607 10.298 2.414 3.954 2.36 6.875 6.853 7.981 11.252l.113.458.345 1.702c.56 4.833-.701 9.397-3.716 13.209-3.309 4.186-7.423 6.202-12.678 6.82-4.319.111-8.591-.851-12.07-3.516-4.17-3.195-6.317-7.67-6.885-12.822-.542-4.92 1.353-9.916 4.482-13.647 3.197-3.813 7.3-5.425 12.13-5.87Z"/>
  <path fill="#F7535D" d="M382.193 406.54c2.155-.098 3.946-.026 5.893 1.058 2.263 1.262 3.653 3.553 4.289 6.015.644 2.497.041 4.976-1.325 7.137-1.438 2.272-3.531 3.363-6.062 3.977-1.387.04-2.81.136-4.142-.315l-.346-.126c-.433-.154-.844-.305-1.25-.524-2.255-1.217-3.752-3.213-4.465-5.654-.676-2.315-.345-4.954.837-7.05 1.421-2.52 3.871-3.837 6.571-4.517Z"/>
  <path fill="#18B5C2" d="m96.481 251.163 1.702-3.773c6.194-13.075 16.865-25.94 28.554-34.476 1.304-.952 3.018-2.573 4.458-3.089.179 32.008 12.766 62.502 35.567 85.062 6.058 5.995 12.55 11.583 19.7 16.241 2.482 1.617 5.069 3.3 7.749 4.563l-.003 21.658c.01 3.475-.333 7.19.014 10.629.161 1.597.629 3.213 1.166 4.722 1.273 3.57 3.6 6.21 6.102 8.97-1.521-.43-3.216-2.154-4.479-3.163l-5.761-4.28c-9.931-6.813-20.712-9.846-32.432-11.866a13.628 13.628 0 0 1-2.063 2.264c-2.288 2.014-5.447 2.683-8.416 2.354-3.203-.355-5.397-2.362-7.258-4.784-10.748 1.106-20.591 4.995-29.711 10.716-5.017-9.667-8.41-19.192-10.448-29.911-.716-3.771-1.401-7.514-1.496-11.356l4.449-4.685c6.695-8.41 9.043-19.668 7.826-30.184-1.175-10.16-7.336-19.413-15.22-25.612Z"/>
  <path fill="#fff" d="m119.791 235.375.712-.09c.688.566.846.633 1.122 1.514-.757 1.2-1.81 2.185-2.788 3.206.795.874 2.929 2.78 3.064 3.87-.556.616-.721.902-1.526 1.16-1.278-.446-2.614-1.977-3.633-2.901l-3.117 2.943c-.239.173-.476.249-.75.353-.658-.556-.936-.902-1.305-1.68.726-1.345 2.233-2.492 3.355-3.542-.936-.947-2.837-2.49-2.885-3.833.615-.571.738-.735 1.585-.918 1.19.386 2.27 1.79 3.148 2.67l3.018-2.752ZM133.87 290.742c.851-.008 1.674.12 2.434.516 1.094.568 2.094 1.683 2.381 2.901.281 1.19.079 2.67-.56 3.712-.835 1.361-1.939 1.935-3.435 2.338-.572-.055-1.175-.096-1.729-.256-1.089-.314-2.157-1.316-2.637-2.328-.553-1.163-.746-2.625-.235-3.83.74-1.745 2.142-2.379 3.781-3.053ZM141.081 342.195c-1.47-2.836-2.202-5.587-1.167-8.748a10.87 10.87 0 0 1 5.461-6.31c2.49-1.248 5.626-1.392 8.225-.413 2.698 1.017 5.177 3.386 6.281 6.074 1.081 2.63 1.028 5.233-.125 7.827l-.938 1.736a13.628 13.628 0 0 1-2.063 2.264c-2.288 2.014-5.447 2.683-8.416 2.354-3.203-.355-5.397-2.362-7.258-4.784Z"/>
  <path fill="#06D3DF" d="m143.698 340.719 6.999.353c1.657.071 3.34.002 4.787.928l-.712.554c-2.03 1.33-4.61 1.889-7 1.34-1.783-.41-3.095-1.71-4.074-3.175Z"/>
  <path fill="#008498" d="M143.698 340.719c-1.076-1.987-1.796-3.856-1.115-6.139.618-2.067 1.983-3.75 3.907-4.749 1.742-.904 3.868-1.166 5.758-.564 2.089.666 3.858 2.07 4.776 4.094.86 1.898.988 4.069.197 6.014-.412 1.016-.982 1.839-1.737 2.625-1.447-.925-3.13-.857-4.787-.928l-6.999-.353Z"/>
  <path fill="#18B5C2" d="M87.993 124.27c-.447-1.6-1.245-3.195-1.811-4.77-1.217-3.382-1.962-6.607-2.405-10.171-1.64-13.185 2.703-26.987 10.892-37.336 9.043-11.428 23.32-18.896 37.716-20.531 11.514-1.309 22.84.684 33.115 6.02 2.498 1.297 5.037 2.686 7.245 4.444l-9.856 5.212c-1.407.808-2.968 1.49-4.15 2.612-.058.708.077 1.555.548 2.125.239.29.33.322.615.5 2.317-.713 4.567-2.418 6.684-3.608l8.983-4.519c2.92 2.846 5.817 5.665 8.381 8.843 6.041 7.483 9.579 15.877 11.703 25.213-20.541 11.231-36.956 27.962-48.612 48.18-1.976 3.428-3.6 7.01-5.347 10.552-3.956.251-7.781.1-11.694-.542-12.983-2.132-25.463-8.6-33.846-18.882-2.384-2.925-4.162-6.185-6.348-9.233l-.284-.392c5.953-8.221 13.041-15.942 20.299-23.026 1.209-1.18 7.44-6.338 7.795-7.499.14-.458-.11-.963-.395-1.337-.387-.507-.982-.793-1.596-.884-1.686.731-3.303 2.778-4.658 4.067-8.204 7.803-16.026 16.02-22.974 24.962Z"/>
  <path fill="#FDA656" d="M135.142 60.829c4.553-.61 9.691.85 13.45 3.428 4.273 2.931 7.706 7.608 8.648 12.754 1.105 6.023.14 11.659-3.377 16.724-3.583 5.16-8.412 7.657-14.463 8.77-5.253.422-10.246-.603-14.59-3.675-4.626-3.274-7.602-7.838-8.51-13.45-.892-5.517.364-11.448 3.698-15.962 3.838-5.197 8.915-7.629 15.144-8.589Z"/>
  <path fill="#06D3DF" d="M141.081 342.195c1.861 2.422 4.055 4.429 7.258 4.784 2.969.33 6.128-.34 8.417-2.354a13.628 13.628 0 0 0 2.062-2.264c11.72 2.02 22.5 5.053 32.432 11.865l5.761 4.281c1.263 1.009 2.958 2.733 4.48 3.163l2.586 2-.298.188c-3.273 2.125-5.716 5.185-6.53 9.036-.733 3.474.043 7.008 2.013 9.948 1.021 1.526 2.376 2.552 3.833 3.624-3.482 3.133-5.946 5.942-6.248 10.858-.205 3.344.846 7.053 3.123 9.56.842.926 1.809 1.686 2.801 2.441-3.26 3.235-5.662 6.492-5.743 11.3l.362 3.66c-2.222 5.845-6.005 11.395-10.012 16.164-1.318 1.57-2.79 3.006-4.29 4.399-.136.126-.409.357-.397.387l-6.26 4.655 5.576 2.29 3.175 1.26c13.5 5.215 27.556 8.745 41.852 10.895l6.531 3.872c-2.025.273-4.379-.192-6.401-.445-14.786-1.846-29.472-6.212-43.416-11.363l-10.558-4.272c-27.144-11.975-52.428-30.665-72.121-52.822-4.626-5.203-8.663-10.945-12.951-16.425-6.123-9.2-12.004-18.48-16.453-28.623l.21-.324 2.084-.041.992.15 14.11 24.537c1.686-2.793 3.147-5.675 4.966-8.399a62.301 62.301 0 0 1 17.343-17.269c9.12-5.721 18.963-9.61 29.711-10.716Z"/>
  <path fill="#4BE7F5" d="M176.969 409.309c.816.023 1.712.094 2.481.382 1.689.633 3.296 2.002 4.015 3.68l.123.306.189.45c.498 1.56.239 3.454-.541 4.873-1.035 1.884-2.847 2.688-4.81 3.262-1.528.04-3.001.023-4.357-.774-1.52-.894-2.547-2.414-2.926-4.125-.392-1.77-.143-3.731.906-5.238 1.189-1.707 2.995-2.354 4.92-2.816Z"/>
  <path fill="#fff" d="m73.959 353.892.992.15 14.11 24.537 8.712 11.745c21.128 25.826 48.191 46.094 78.657 59.566l5.577 2.29 3.175 1.26c13.5 5.215 27.556 8.745 41.852 10.895l6.531 3.872c-2.025.273-4.379-.192-6.401-.445-14.786-1.846-29.472-6.212-43.416-11.363l-10.558-4.272c-27.144-11.975-52.428-30.665-72.121-52.822-4.626-5.203-8.663-10.945-12.951-16.425-6.123-9.2-12.004-18.48-16.453-28.623l.21-.324 2.084-.041Z"/>
  <path fill="#4BE7F5" d="M158.813 353.094c1.175-.276 3.09-.125 4.28.045l2.738.466c3.918.98 8.236 3.791 10.329 7.272 1.37 2.28 2.349 4.204 2.935 6.837.46 2.074.579 4.274.274 6.382l-.063.404a19.331 19.331 0 0 1-3.172 8.075c-3.048 4.486-7.382 6.632-12.602 7.644-5.108.435-9.9-.252-14.126-3.35-3.903-2.862-6.597-7.473-7.284-12.244-.74-5.146.517-10.364 3.685-14.507 3.296-4.31 7.707-6.338 13.006-7.024Z"/>
  <path fill="#fff" d="m251.922 87.862.82-.018c30.589-.511 62.77 11.437 84.832 32.831 23.489 22.778 37.121 52.749 37.513 85.623.464 38.987-18.938 76.16-50.892 98.382-3.181 2.213-6.489 4.214-9.897 6.058-.519.281-3.868 1.834-4.022 2.131-.26.498.038 3.449.046 4.204l.132 18.53c.008 3.88.385 8.357-.49 12.147-.772 3.337-2.503 6.632-4.92 9.07-5.106 5.149-10.563 4.834-17.315 4.885l-.002-59.11c12.214-4.439 22.904-10.51 32.859-18.849 19.93-16.696 32.905-42.07 35.015-67.95 2.173-26.651-6.673-53.608-24.099-73.867-9.297-10.808-20.68-19.901-33.648-25.933-11.945-5.555-24.71-8.434-37.792-9.422-15.517-1.162-32.065 2.247-46.198 8.614-23.844 10.742-43.529 31.288-52.822 55.825-7.316 19.32-9.053 40.564-4.089 60.698 1.583 6.42 4.01 12.677 6.732 18.69 10.773 23.787 32.542 43.291 56.831 52.495l-.013 59.244c-6.45.075-11.373.124-16.378-4.486-2.506-2.308-4.341-5.73-5.066-9.048-.811-3.719-.375-8.087-.38-11.906l-.146-23.723c-2.177-.95-4.235-2.394-6.25-3.656-6.329-3.964-12.384-8.297-17.88-13.367-4.208-3.883-8.398-8.016-12.033-12.444-16.591-20.214-25.903-45.351-26.938-71.41-1.244-31.331 10.709-63.022 32.067-85.925 17.06-18.294 39.049-30.984 63.626-36.004 6.88-1.406 13.792-2.036 20.797-2.309Z"/>
  <path fill="#fff" d="M273.71 130.358c7.672.327 13.929 2.971 18.522 9.303.304.421 1.43 2.64 1.694 2.79.233.132 1.942.025 2.324.047 1.841.099 3.767.475 5.525 1.02 5.88 1.823 10.683 5.54 13.538 11.062 3.049 5.899 2.651 11.791.658 17.925 2.327.3 4.563.636 6.767 1.47 5.524 2.09 10.047 6.311 12.444 11.724 2.48 5.6 2.437 11.658.21 17.332-2.253 5.738-6.599 9.791-12.195 12.216 2.43 3.186 4.022 5.985 4.7 9.984 1.011 5.953-.5 11.61-4.042 16.45-3.262 4.456-8.258 7.512-13.739 8.326l-.491.071c-5.673.85-10.746-.715-15.466-3.82-.49.941-.553 2.34-.895 3.38-.949 2.886-2.872 5.56-4.888 7.8-4.296 4.774-9.62 6.469-15.878 6.76l-.002 97.598h-3.882l-.095-98.135c-5.276-2.005-8.649-5.06-11.937-9.574-.5 2.44-.083 5.799-.078 8.321l.032 20.668-.024 78.657-4.034-.014.016-29.344-.227-78.931c-3.231 4.632-6.445 7.884-11.775 10l-.08 98.363-3.673.022-.016-97.287c-4.075.712-8.06.284-11.796-1.514-6.475-3.118-10.867-10.273-13.109-16.842-.67-.046-2.162.948-2.845 1.242-1.05.45-2.18.776-3.3 1.002-5.772 1.163-12.042-.104-16.931-3.364-4.715-3.144-8.46-7.94-9.501-13.61-1.157-6.297.263-11.657 3.908-16.846l-3.918-2.603c-4.28-3.447-7.379-8.949-7.979-14.418-.687-6.255.654-12.13 4.644-17.056 4.219-5.208 9.688-7.775 16.228-8.463-1.203-3.415-1.645-6.426-1.318-10.07.49-5.446 3.59-10.567 7.782-13.978 4.745-3.861 10.544-4.93 16.498-4.29 1.332-3.361 3.987-6.68 6.84-8.875 4.338-3.34 9.93-4.991 15.39-4.224l2.858.46c7.001 1.718 10.93 6.042 14.542 11.998.925-1.99 1.887-3.688 3.333-5.355 4.112-4.74 9.502-6.928 15.66-7.377Z"/>
  <path fill="#06D3DF" d="M290.166 149.375c.54-.083.48-.147 1.009.125.113 2.827-.067 5.24-1.25 7.869-1.099 2.443-2.981 4.681-5.55 5.622-1.664.61-3.853.865-5.5.084-.679-.457-1.063-.912-1.32-1.688-.533-1.606-.15-3.129.65-4.583 2.213-4.016 7.8-6.094 11.961-7.429ZM217.243 148.779c3.582 1.088 7.389 2.258 10.37 4.618 1.663 1.316 3.447 3.515 3.633 5.703.137 1.614-.048 2.406-1.056 3.653-1.354.859-2.595 1.153-4.19.975-2.63-.293-5.039-1.82-6.649-3.88-2.659-3.401-2.582-7.025-2.108-11.069Z"/>
  <path fill="#008498" d="M256.661 241.969c2.914 2.102 5.3 3.203 8.75 4.166 7.349 2.052 15.784 1.433 22.456-2.385.642-.367 1.277-.68 1.77-1.24l.845 1.615c-.221 2.733-.827 4.935-2.222 7.316-2.406 4.109-6.177 6.877-10.803 8.014l-.457.11c-2.241.561-5.092.787-7.315.072l-.435-.152c-1.679-.577-3.207-1.316-4.636-2.37-5.253-3.875-7.012-8.907-7.953-15.147ZM216.17 243.985c.745.612 1.913.974 2.809 1.353 3.63 1.536 7.47 2.602 11.4 2.977 7.883.752 15.556-1.33 21.704-6.382-.552 5.33-3.383 11.179-7.543 14.638-3.691 3.069-8.497 4.881-13.317 4.349-4.262-.471-8.216-3.45-10.822-6.74-2.2-2.778-4.126-6.33-4.79-9.827l.559-.368Z"/>
  <path fill="#06D3DF" d="m210.757 147.602 3.04.12c-.474 1.924-.895 3.933-.75 5.926.306 4.179 1.998 8.086 5.207 10.833 3.187 2.728 6.174 3.642 10.329 3.315-.232 2.786-1.033 5.49-2.675 7.782-2.949 4.117-6.882 5.822-11.782 6.651-4.151.037-8.919-1.248-12.17-3.931-3.663-3.024-6.462-7.627-6.876-12.423-.379-4.396.579-8.641 3.487-12.056 3.296-3.87 7.129-5.77 12.19-6.216ZM294.724 146.189l.615.043c5.315.457 10.882 2.852 14.286 7.059 2.62 3.238 4.228 8.385 3.72 12.489l-.061.47c-.363 2.918-1.332 5.705-2.999 8.142-2.864 4.185-6.838 6.408-11.734 7.335-4.057.372-7.603-.114-11.092-2.392-4.408-2.877-6.282-6.798-7.36-11.805l3.301-.14c3.479-.503 6.603-2.848 8.597-5.667 3.409-4.818 3.662-9.913 2.727-15.535ZM313.788 176.32c2.281.1 4.455.32 6.626 1.07 4.478 1.549 8.339 4.589 10.42 8.903 2.24 4.641 2.781 9.687 1.038 14.582-1.77 4.972-5.579 8.524-10.254 10.745l-.222.086c-6.601 2.502-11.104.889-17.167-1.871l.01-25.659c4.094-1.715 6.769-4.495 9.549-7.855ZM191.844 176.344c.436-.018 3.063-.265 3.254-.133.362.25 1.012 1.691 1.362 2.135 1.966 2.492 4.85 4.373 7.663 5.753l.133 26.037-1.429.923c-4.384 2.612-9.04 2.883-13.881 1.657-2.001-.641-3.9-1.49-5.611-2.725-4.074-2.94-7.26-8.32-7.959-13.299-.662-4.72.94-10.07 3.888-13.779 3.23-4.064 7.51-5.986 12.58-6.57Z"/>
  <path fill="#06D3DF" d="m256.661 241.969-.118-18.413c3.677 6.181 8.438 10.59 15.54 12.359 5.967 1.486 12.702.306 17.904-2.888 3.832-2.354 7.001-6.044 8.078-10.492l.238-1.285.069-.39c.562-3.474-.573-7.311-2.63-10.124-2.159-2.951-5.477-5.278-9.137-5.825-2.639-.394-5.324.237-7.471 1.844-2.608 1.953-3.791 4.57-4.25 7.733-.304 2.089.49 4.238 1.72 5.908 1.276 1.73 3.125 3.212 5.271 3.563.751-.3 1.221-.434 1.628-1.209.339-.644.219-1.224-.018-1.875-.851-.912-1.757-1.085-2.714-1.75-1.4-.973-2.12-2.688-2.057-4.357.06-1.592 1.045-3.196 2.212-4.246 1.254-1.129 2.86-1.82 4.574-1.684 2.647.209 5.27 1.931 6.87 3.987 1.714 2.2 2.537 5.14 2.06 7.901-.662 3.83-2.974 6.654-6.127 8.764-3.883 2.6-10.091 3.685-14.64 2.703-5.566-1.202-9.976-4.469-12.992-9.289-1.36-2.175-3.272-5.643-3.686-8.162-.426-2.596-.126-5.681-.122-8.313l.048-17.545-.051-25.796-.008-8.648c.013-2.24-.048-4.469.469-6.665 1.031-4.377 4.047-8.505 7.921-10.781 4.063-2.388 9.094-3.02 13.633-1.767 4.386 1.21 8.214 4.065 10.449 8.055.356.635.714 1.238.898 1.947-6.034 1.914-12.488 3.958-15.612 9.96-1.083 2.081-1.808 4.797-1.028 7.075.308.898.745 1.819 1.321 2.576.362.475 1.066 1.121 1.26 1.661.44 1.215.286 3.03.62 4.374 1.395 5.626 5.644 10.677 10.886 13.095 4.03 1.858 8.116 2.212 12.463 1.502l.035 18.368.008 4.782c.004.71-.082 1.874.172 2.542.123.322.538.79.778 1.026 1.084 1.066 2.727 1.819 4.101 2.44 3.223 1.457 6.773 2.715 10.363 2.442l3.142-.416c2.718 3.055 4.43 5.73 5.06 9.844l.065.393c.716 4.572-.732 8.886-3.468 12.536-2.63 3.509-7.008 6.215-11.377 6.78-5.19.671-9.403-1.257-13.532-4.149-.74-.518-2.041-1.705-2.979-1.737-.795-.026-2.081 1.012-2.538 1.599-.211.271-.2.296-.325.588-.493.56-1.128.873-1.77 1.24-6.673 3.818-15.107 4.437-22.456 2.385-3.45-.963-5.836-2.064-8.75-4.166ZM216.17 243.985c1.17-1.701 2.917-2.458 3.072-4.804.072-1.095-.141-1.681-.867-2.496-1.385-.387-2.083 1.058-2.929 1.995-2.728 3.024-7.037 5.189-11.042 5.882-4.733.821-9.971-.42-13.86-3.24-3.746-2.716-6.668-7.084-7.309-11.716-.709-5.132.87-9.472 3.937-13.505 2.225.742 4.441 1.376 6.804 1.403 5.28.058 10.125-2.042 13.9-5.683.364-2.883.123-6.036.124-8.948l-.004-17.52c4.283 1.105 8.11 1 12.25-.662 5.957-2.39 10.668-7.572 12.017-13.924.242-1.135.388-2.203.434-3.36.014-.378-.077-1.252.046-1.58.387-1.038 1.643-1.962 2.104-3.142.931-2.385.434-5.32-.674-7.56-2.858-5.779-9.386-8.145-15.082-10.075 2.44-4.045 4.826-7.333 9.364-9.184 4.283-1.747 9.337-1.585 13.549.28 4.218 1.866 7.645 5.546 9.271 9.853.4 1.06.665 2.026.72 3.159l.047 11.602.014 21.748.038 20.084-.071 11.798c-.03.566-.087.975-.333 1.485-1.63 3.384-3.046 6.499-5.67 9.26-4.577 4.815-10.422 7.702-17.127 7.826-4.301.079-9.205-1.867-12.258-4.918-2.278-2.276-3.849-5.619-3.78-8.874.065-3.11 1.338-6.077 3.636-8.188 1.865-1.713 4.031-2.375 6.524-2.256 2.003.095 3.926 1.068 5.23 2.585 1.018 1.184 1.853 2.928 1.645 4.52-.246 1.888-.979 2.952-2.513 4.078-.83.61-1.768 1.097-2.152 2.092.016.912-.011 1.077.505 1.875.582.373.934.487 1.61.439 1.617-.115 2.844-1.288 3.864-2.446 1.745-1.978 2.732-4.733 2.494-7.368-.24-2.651-1.87-5.374-3.906-7.044-2.468-2.027-5.542-2.887-8.702-2.56-3.483.362-6.343 1.927-8.537 4.638-2.475 3.055-4.15 7.314-3.67 11.272.556 4.594 3.081 8.704 6.72 11.538 4.879 3.802 10.858 5.117 16.92 4.328 7.881-1.028 14.995-6.41 19.71-12.553l-.15 17.814c-6.148 5.052-13.82 7.134-21.704 6.382-3.93-.375-7.77-1.441-11.4-2.977-.896-.379-2.064-.741-2.809-1.353Z"/>
  <path fill="#18B5C2" d="m422.49 128.481 2.087 2.971c10.942 14.038 19.935 30.494 26.476 47.042 1.28 3.234 2.74 6.672 3.558 10.055 3.331 9.403 5.274 19.165 6.78 29.005 1.316 8.608 2.321 17.413 2.427 26.125l3.587 2.647c1.178 1.249 1.906 2.072 1.912 3.872.004 1.105-.452 1.716-.985 2.63-1.162 1.993-2.367 3.926-3.865 5.69l1.862 3.64c2.244-.523 8.683-2.66 10.664-1.333 1.558 1.044 5.428 11.813 5.704 14.046.147 1.191-.298 2.278-1.048 3.188-1.531 1.856-5.414 2.983-7.644 4.036-.249.117-1.269.485-1.394.658-.196.271-.091 3.262-.07 3.797 2.596 1.039 8.928 2.743 10.095 5.325.255.565.35 1.164.29 1.78-.214 2.17-1.28 4.756-1.949 6.845-.673 2.104-1.216 4.337-2.134 6.35-.35.766-.88 1.535-1.718 1.813-1.106.368-2.121.291-3.25.135l-7.715-1.125c-.704.812-1.578 1.625-1.921 2.657.737 1.603 1.604 3.143 2.484 4.67 1.14 1.979 2.51 3.701 1.722 6.077-.822 2.474-5.22 4.779-7.288 6.252-1.76 1.252-3.551 2.809-5.52 3.711-1.021.469-1.724.471-2.82.373-2.425-1.511-4.131-3.952-6.009-6.075l-2.936 1.426-1.307 6.285c-.138.849-.106 2.127-.491 2.867-.285.546-.742.927-1.199 1.322-4.488 1.45-9.645.082-14.223.538l3.511.264c-3.738 10.309-9.418 19.739-15.538 28.787-1.911 2.826-4.169 5.512-5.93 8.42-10.084-6.462-23.274-8.666-34.925-6.155a45.625 45.625 0 0 0-16.651 7.286c-.65.454-1.701 1.002-2.166 1.63-5.737 4.129-10.483 10.119-13.319 16.584-.958 1.65-1.548 3.566-2.222 5.349-1.236-.479-3.342.167-4.646.372-7.998 1.262-15.8 3.584-23.74 5.099.779-1.457 1.486-2.99 1.752-4.63l.062-.407c.225-1.37.322-2.807.119-4.188-.623-4.228-3.207-7.022-6.463-9.505 1.531-1.232 3.031-2.558 4.083-4.237 1.85-2.953 2.493-6.657 1.671-10.07-1.057-4.392-3.874-6.832-7.569-9.048 4.896-3.798 8.5-8.301 9.82-14.495l.096-.457c.938-4.348.425-9.33.395-13.775l-.008-18.813.994-.506c5.654-2.979 10.979-6.784 16.001-10.718 20.362-15.948 35.287-37.263 42.688-62.108 7.63-25.615 6.438-54.37-3.158-79.324-2.659-6.912-6.156-13.387-9.651-19.897l2.231.76c13.084 4.338 27.509 2.758 40.048-2.532 2.203-.93 4.225-2.208 6.349-3.293l.028-.179c4.238-2.304 8.945-5.756 11.976-9.509Z"/>
  <path fill="#fff" d="m343.026 356.625.608-.175c1.391.982 2.58 2.415 3.76 3.643 1.053-1.203 2.509-3.04 3.981-3.659.277.077.373.084.639.274.584.42.933.997 1.088 1.667-1.036 1.426-2.292 2.531-3.602 3.699.913 1.474 2.598 2.319 3.486 3.926-.101.723-.723 1.148-1.226 1.625l-.612.061c-1.382-1.015-2.585-2.362-3.799-3.573l-4.031 4.056-1.843-2.197 3.82-3.83-3.815-3.941 1.546-1.576ZM392.255 207.787c1.809-.032 3.488.164 5.12 1.035 2.131 1.139 3.605 3.243 4.183 5.567.555 2.237.245 4.597-.982 6.552-1.418 2.261-3.478 3.197-5.961 3.809-2.024.026-3.672-.013-5.496-1.04-2.027-1.14-3.47-3.133-4.005-5.388-.554-2.343-.336-4.517 1.018-6.566 1.517-2.298 3.497-3.402 6.123-3.969ZM403.94 183.377a11.718 11.718 0 0 1-2.716-1.246c-2.613-1.616-4.377-4.256-5.012-7.257-.645-3.05-.147-6.257 1.584-8.874 1.723-2.607 4.54-4.522 7.613-5.125 3.591-.706 6.456.113 9.423 2.17 2.505 2.335 4.284 5.16 4.401 8.705.106 3.184-1.389 6.548-3.608 8.776-2.396 2.407-5.53 3.428-8.875 3.312a10.86 10.86 0 0 1-2.81-.461Z"/>
  <path fill="#008498" d="M405.759 180.025c1.638-3.917 3.831-7.689 5.999-11.332.473-.793.817-1.86 1.564-2.42 1.432 1.55 2.577 3.167 2.538 5.369-.04 2.233-1.1 4.908-2.796 6.392-1.695 1.484-4.309 2.311-6.555 2.112l-.75-.12Z"/>
  <path fill="#18B5C2" d="M405.759 180.025c-1.107-.35-2.24-.804-3.212-1.442-1.698-1.117-2.683-2.903-3.079-4.863-.417-2.065.201-4.48 1.406-6.189 1.177-1.668 3.203-2.998 5.252-3.26 2.768-.353 4.996.25 7.196 2.003-.748.559-1.091 1.626-1.564 2.42-2.168 3.642-4.361 7.415-5.999 11.332Z"/>
  <path fill="#fff" d="M360.753 318.805c1.604-.15 3.535-.174 5.095.251l.402.118c.788.225 1.56.449 2.298.814 2.958 1.461 5.062 4.317 6.123 7.387 1.038 3.005.707 6.373-.744 9.185-1.88 3.642-4.764 5.454-8.576 6.632-2.931.36-5.736.119-8.372-1.351-2.993-1.67-5.063-4.45-5.941-7.75-.798-2.995-.377-6.786 1.284-9.42 2.036-3.226 4.735-5.022 8.431-5.866Z"/>
  <path fill="#008498" d="m422.49 128.481 2.087 2.971c10.942 14.038 19.935 30.494 26.476 47.042 1.28 3.234 2.74 6.672 3.558 10.055 3.331 9.403 5.274 19.165 6.78 29.005 1.316 8.608 2.321 17.413 2.427 26.125-2.787-2.081-5.572-4.101-8.705-5.636-2.152.716-3.257 1.47-4.839 3.088l-2.924 3.561-4.397-1.38c-.724-2.522-1.013-5.257-1.472-7.846-.939-1.026-1.57-1.128-2.916-1.432-3.236-2.79-6.983-4.397-11.006-5.682-9.468-3.025-17.918-7.754-22.548-16.982-4.64-9.246-4.213-18.41-1.072-27.993.912.28 1.857.427 2.811.461 3.346.116 6.479-.905 8.875-3.311 2.219-2.229 3.714-5.593 3.608-8.777-.118-3.546-1.897-6.37-4.4-8.705.947-1.569 5.026-4.634 4.9-6.348-.131-1.776-.554-3.624-.84-5.387-.32-1.98-.555-4.834-1.544-6.584-.583-1.03-1.697-1.933-2.56-2.732-1.404-1.301-2.806-2.631-4.303-3.826l.028-.178c4.238-2.304 8.945-5.756 11.976-9.509Z"/>
  <path fill="#18B5C2" d="M424.577 131.452c10.942 14.038 19.935 30.494 26.476 47.042 1.28 3.234 2.74 6.672 3.558 10.055-1.482-.393-2.149-1.57-3.135-2.654-1.33-1.46-2.772-2.968-4.301-4.214-2.058-1.678-4.099-3.236-6.471-4.46-1.012-.522-2.06-.95-3.12-1.364-.197-.077-.937-.282-1.033-.398-.248-.3-.482-3.286-.556-3.8-.478-3.289-1.162-6.517-1.975-9.74-2.442-9.676-6.209-20.387-13.035-27.865l3.592-2.602ZM431.91 182.359c2.841.141 5.147.575 7.625 2.101 2.912 1.796 5.433 5.505 6.125 8.814.721 3.448.116 7.439-1.873 10.37-2.624 3.873-6.051 5.591-10.517 6.389-3.452.157-6.88-.247-9.78-2.331-2.65-1.904-4.463-5.036-5.026-8.23l-.067-.414-.142-.984c-.264-3.886.412-7.744 3.077-10.749 2.925-3.296 6.247-4.674 10.579-4.966Z"/>
  <path fill="#003F6D" d="M426.652 337.776c-1.231-.044-2.466-.065-3.507-.813-1.983-1.423-2.347-7.793-2.756-10.189l-3.692-1.654c-2.373 2.758-4.551 5.21-7.826 6.88l-1.321-.706c-2.475-1.48-4.808-3.29-7.14-4.99-1.408-1.026-3.102-2.06-4.299-3.333-.498-.531-.98-1.206-1.108-1.937-.216-1.248.457-2.346 1.012-3.404 1.161-2.21 2.394-4.335 3.838-6.373l-2.575-3.56-10.269 1.543c-.954-.63-1.64-1.113-2.162-2.149-1.195-2.374-4.56-13.764-3.722-15.903.955-2.439 7.013-3.875 9.339-4.844 0-.608.202-4.157 0-4.44-.065-.094-1.373-.531-1.565-.607-2.387-.934-6.52-2.195-7.975-4.392-.916-1.382-.561-3.116-.22-4.635.784-3.491 2.325-7.556 4.084-10.661.541-.957 1.136-1.912 2.102-2.491 1.859-1.113 8.512 1.679 10.752 2.299l2.074-3.14-2.019-3.774c-.877-1.718-2.207-4.085-1.46-6.013.931-2.401 11.608-8.822 14.314-10.053 2.652 1.442 4.254 3.583 6.257 5.763l.558.028c.298.008 3.461-.223 3.504-.288.13-.195.202-1.309.246-1.594.226-1.447.572-6.707 1.559-7.624.42-.39.876-.774 1.46-.883 1.326-.249 2.997-.059 4.352-.046l10.078.241c1.346.304 1.977.406 2.916 1.432.459 2.59.748 5.324 1.472 7.846l4.397 1.38 2.924-3.56c1.582-1.619 2.687-2.373 4.839-3.089 3.133 1.535 5.918 3.555 8.705 5.636l3.587 2.647c1.178 1.249 1.906 2.072 1.912 3.872.004 1.105-.452 1.716-.985 2.63-1.162 1.993-2.367 3.926-3.865 5.69l1.862 3.64c2.244-.523 8.683-2.66 10.664-1.333 1.558 1.044 5.428 11.813 5.704 14.046.147 1.191-.298 2.278-1.048 3.188-1.531 1.856-5.414 2.983-7.644 4.036-.249.117-1.269.485-1.394.658-.196.271-.091 3.262-.07 3.797 2.596 1.039 8.928 2.743 10.095 5.325.255.565.35 1.164.29 1.78-.214 2.17-1.28 4.756-1.949 6.845-.673 2.104-1.216 4.337-2.134 6.35-.35.766-.88 1.535-1.718 1.813-1.106.368-2.121.291-3.25.135l-7.715-1.125c-.704.812-1.578 1.625-1.921 2.657.737 1.603 1.604 3.143 2.484 4.67 1.14 1.979 2.51 3.701 1.722 6.077-.822 2.474-5.22 4.779-7.288 6.252-1.76 1.252-3.551 2.809-5.52 3.711-1.021.469-1.724.471-2.82.373-2.425-1.511-4.131-3.952-6.009-6.075l-2.936 1.426-1.307 6.285c-.138.849-.106 2.127-.491 2.867-.285.546-.742.927-1.199 1.322-4.488 1.45-9.645.082-14.223.538Z"/>
  <path fill="#fff" d="m425.272 237.1 13.276.408.94 6.377c.127.835.137 1.895.558 2.613 3.024.063 5.52.931 8.228 2.195 1.661-2.738 4.065-4.952 6.307-7.206 3.986 2.589 8.192 5.308 11.697 8.534-1.962 2.864-3.584 6.018-5.86 8.654l-.166.189 4.433 6.775 10.6-1.986c2.023 3.793 3.319 8.243 4.582 12.35l-10.575 4.505-.05 7.997 10.745 4.519-4.305 12.845-11.135-2.492c-1.295 2.528-2.905 4.76-4.678 6.971l5.602 9.459c-.658.879-1.822 1.623-2.687 2.315-2.838 2.272-5.87 4.474-9.017 6.299-2.178-2.195-4.512-4.961-6.209-7.54l-.124-.193c-2.409 1.507-4.64 2.32-7.396 2.976l-.749 7.525-.293 3.13c-4.645.502-9.522.232-14.196.178l-1.083-10.584c-2.661-.656-4.918-1.327-7.325-2.69-.683.046-1.939 1.71-2.45 2.243-1.656 1.729-3.313 3.411-5.112 4.993l-10.648-8.118 5.481-9.358-5.235-7.361-10.865 2.167-3.59-13.328c.587-.552 1.847-.882 2.612-1.19 2.417-.973 4.894-1.803 7.238-2.944l-.047-8.102c-3.254-1.418-7.076-3.16-10.048-5.104 1.111-4.356 2.964-8.567 4.614-12.74l10.19 2.937c.805-.631 1.405-1.625 2.018-2.443 1.085-1.448 2.168-2.865 3.387-4.204l-4.681-8.645c3.017-3.14 7.535-5.368 11.249-7.65l5.955 6.12c2.312-1.215 4.42-1.862 7-2.154l1.813-9.242Z"/>
  <path fill="#F98440" d="m446.341 258.986 1.657 1.035c5.772 3.902 10.258 10.331 11.552 17.196.505 2.68.654 5.577.317 8.283-1.263 10.183-4.954 19.981-13.031 26.784a21.16 21.16 0 0 1-5.336 3.291c-3.938 1.703-8.375 2.232-12.625 1.704-7.257-.902-13.712-5.678-18.183-11.279-3.318-4.159-5.545-9.273-6.58-14.485-.309-1.556-.37-3.103-.572-4.67-.23-1.785-.14-3.806.04-5.594.498-4.972 2.374-11.76 6.047-15.35l.441.608-.318.363c-.144.24-.215.52-.37.753l-.882 1.373-1.25 2.25c-.236.594-.41 1.198-.75 1.75l-.187.252c-.071.567-.016.382-.177.858l-.512 1.642c-.158.515-.305.962-.389 1.498l-.11.627c-.224.606-.122 1.257-.375 1.764-.155.314-.138.16-.14.547l.008 4.939c.757.885.853 2.067 1.224 3.143 1.056 3.06 2.97 5.98 5.482 8.048l.339.274.671.548c4.663 3.661 11.923 5.748 17.824 4.98 4.131-.538 7.625-1.716 11.058-4.125 8.043-5.642 9.382-15.356 10.943-24.294.341-1.954 1.228-4.161 1.373-6.074.07-.942-.433-1.28-1.028-1.877l-.002-.373-3.373-3.25-.252-.002-.625-.748-.375-.002-.373-.375c-.39-.714.173-.075-.375-.623l-.252.248-.498-.498-.252-.002-.48-.74.697-.397Z"/>
  <path fill="#FDA656" d="m409.627 265.901-.013-.014c.95-1.699 2.783-3.353 4.285-4.598 1.832-1.519 3.696-2.918 5.923-3.818 3.613-1.461 6.834-2.11 10.678-2.594 5.267-.662 11.398 1.425 15.841 4.109l-.695.397.479.74.252.002.498.498.252-.248c.548.548-.015-.09.375.623l.373.375.375.002.625.748.252.002 3.373 3.25.002.373c.595.596 1.099.935 1.027 1.877-.144 1.913-1.031 4.12-1.372 6.074-1.56 8.938-2.9 18.652-10.942 24.294-3.434 2.41-6.928 3.587-11.059 4.125-5.901.767-13.16-1.319-17.824-4.98l-.671-.548-.339-.274c-2.512-2.068-4.426-4.988-5.482-8.048-.371-1.075-.467-2.257-1.224-3.143l-.007-4.939c0-.387-.016-.233.14-.546.252-.508.15-1.159.373-1.765l.111-.627c.084-.536.231-.983.39-1.498l.511-1.642c.16-.476.106-.291.177-.858l.188-.252c.34-.552.513-1.156.75-1.75l1.25-2.25.881-1.373c.155-.233.226-.513.37-.752l.318-.364-.441-.608Z"/>
  <path fill="#FEC377" d="m426.389 258.844.183-.038c4.033-.43 10.008.512 13.303 3.012 1.825 1.385 2.851 3.939 3.166 6.153.639 4.49-1.294 9.402-3.803 13.029l-.226.337c-3.238 4.722-8.517 7.12-13.98 8.084-1.897.354-3.874.324-5.782.102-1.49-.173-2.955-.433-4.365-.958-2.554-.949-4.93-2.32-6.086-4.91l-.14-.331c-.175-.404-.303-.757-.358-1.199-.642-5.236 2.843-12.817 6.028-16.856 3.206-4.065 6.994-5.847 12.06-6.425Z"/>
</svg>